G04 #@! TF.GenerationSoftware,KiCad,Pcbnew,(5.1.4-0-10_14)*
G04 #@! TF.CreationDate,2020-12-07T20:11:59-03:00*
G04 #@! TF.ProjectId,hub_usb_sd,6875625f-7573-4625-9f73-642e6b696361,1.0*
G04 #@! TF.SameCoordinates,Original*
G04 #@! TF.FileFunction,Copper,L1,Top*
G04 #@! TF.FilePolarity,Positive*
%FSLAX46Y46*%
G04 Gerber Fmt 4.6, Leading zero omitted, Abs format (unit mm)*
G04 Created by KiCad (PCBNEW (5.1.4-0-10_14)) date 2020-12-07 20:11:59*
%MOMM*%
%LPD*%
G04 APERTURE LIST*
%ADD10C,0.600000*%
%ADD11R,1.000000X1.800000*%
%ADD12R,0.700000X1.800000*%
%ADD13R,1.500000X2.800000*%
%ADD14R,1.700000X1.700000*%
%ADD15C,1.700000*%
%ADD16C,3.500000*%
%ADD17R,3.300000X2.500000*%
%ADD18C,3.000000*%
%ADD19R,1.600000X1.600000*%
%ADD20C,1.600000*%
%ADD21O,2.000000X1.700000*%
%ADD22C,0.100000*%
%ADD23O,1.700000X1.700000*%
%ADD24C,0.700000*%
%ADD25C,4.400000*%
%ADD26C,0.800000*%
%ADD27C,0.280000*%
%ADD28C,0.800000*%
%ADD29C,0.200000*%
%ADD30C,0.025400*%
G04 APERTURE END LIST*
D10*
X146800000Y-93200000D03*
X145900000Y-93200000D03*
X145000000Y-93200000D03*
X144100000Y-93200000D03*
X143200000Y-93200000D03*
X146800000Y-94100000D03*
X145900000Y-94100000D03*
X145000000Y-94100000D03*
X144100000Y-94100000D03*
X143200000Y-94100000D03*
X146800000Y-95000000D03*
X145900000Y-95000000D03*
X145000000Y-95000000D03*
X144100000Y-95000000D03*
X143200000Y-95000000D03*
X146800000Y-95900000D03*
X145900000Y-95900000D03*
X145000000Y-95900000D03*
X144100000Y-95900000D03*
X143200000Y-95900000D03*
X146800000Y-96800000D03*
X145900000Y-96800000D03*
X145000000Y-96800000D03*
X144100000Y-96800000D03*
X143200000Y-96800000D03*
D11*
X135631430Y-88361000D03*
X138131430Y-88361000D03*
X140631430Y-88361000D03*
X143131430Y-88361000D03*
X145631428Y-88361000D03*
X148131430Y-88361000D03*
X150631430Y-88361000D03*
X153131430Y-88361000D03*
X154781430Y-88361000D03*
D12*
X156081400Y-88361000D03*
X157281400Y-88361000D03*
D13*
X158650000Y-86411000D03*
X133550000Y-86411000D03*
X158650000Y-71911100D03*
X131350000Y-71911100D03*
D14*
X161010000Y-93750000D03*
D15*
X161010000Y-96250000D03*
X163010000Y-96250000D03*
X163010000Y-93750000D03*
D16*
X165720000Y-88980000D03*
X165720000Y-101020000D03*
D17*
X155078000Y-97677000D03*
X155078000Y-104477000D03*
D18*
X124280000Y-102500000D03*
X124280000Y-87500000D03*
D19*
X126990000Y-91500000D03*
D20*
X126990000Y-94000000D03*
X126990000Y-96000000D03*
X126990000Y-98500000D03*
D21*
X166800000Y-107760000D03*
D22*
G36*
X167574504Y-109411204D02*
G01*
X167598773Y-109414804D01*
X167622571Y-109420765D01*
X167645671Y-109429030D01*
X167667849Y-109439520D01*
X167688893Y-109452133D01*
X167708598Y-109466747D01*
X167726777Y-109483223D01*
X167743253Y-109501402D01*
X167757867Y-109521107D01*
X167770480Y-109542151D01*
X167780970Y-109564329D01*
X167789235Y-109587429D01*
X167795196Y-109611227D01*
X167798796Y-109635496D01*
X167800000Y-109660000D01*
X167800000Y-110860000D01*
X167798796Y-110884504D01*
X167795196Y-110908773D01*
X167789235Y-110932571D01*
X167780970Y-110955671D01*
X167770480Y-110977849D01*
X167757867Y-110998893D01*
X167743253Y-111018598D01*
X167726777Y-111036777D01*
X167708598Y-111053253D01*
X167688893Y-111067867D01*
X167667849Y-111080480D01*
X167645671Y-111090970D01*
X167622571Y-111099235D01*
X167598773Y-111105196D01*
X167574504Y-111108796D01*
X167550000Y-111110000D01*
X166050000Y-111110000D01*
X166025496Y-111108796D01*
X166001227Y-111105196D01*
X165977429Y-111099235D01*
X165954329Y-111090970D01*
X165932151Y-111080480D01*
X165911107Y-111067867D01*
X165891402Y-111053253D01*
X165873223Y-111036777D01*
X165856747Y-111018598D01*
X165842133Y-110998893D01*
X165829520Y-110977849D01*
X165819030Y-110955671D01*
X165810765Y-110932571D01*
X165804804Y-110908773D01*
X165801204Y-110884504D01*
X165800000Y-110860000D01*
X165800000Y-109660000D01*
X165801204Y-109635496D01*
X165804804Y-109611227D01*
X165810765Y-109587429D01*
X165819030Y-109564329D01*
X165829520Y-109542151D01*
X165842133Y-109521107D01*
X165856747Y-109501402D01*
X165873223Y-109483223D01*
X165891402Y-109466747D01*
X165911107Y-109452133D01*
X165932151Y-109439520D01*
X165954329Y-109429030D01*
X165977429Y-109420765D01*
X166001227Y-109414804D01*
X166025496Y-109411204D01*
X166050000Y-109410000D01*
X167550000Y-109410000D01*
X167574504Y-109411204D01*
X167574504Y-109411204D01*
G37*
D15*
X166800000Y-110260000D03*
D14*
X128036000Y-76450000D03*
D23*
X128036000Y-78990000D03*
X128036000Y-81530000D03*
X128036000Y-84070000D03*
D24*
X124166726Y-71833274D03*
X123000000Y-71350000D03*
X121833274Y-71833274D03*
X121350000Y-73000000D03*
X121833274Y-74166726D03*
X123000000Y-74650000D03*
X124166726Y-74166726D03*
X124650000Y-73000000D03*
D25*
X123000000Y-73000000D03*
X123000000Y-117000000D03*
D24*
X124650000Y-117000000D03*
X124166726Y-118166726D03*
X123000000Y-118650000D03*
X121833274Y-118166726D03*
X121350000Y-117000000D03*
X121833274Y-115833274D03*
X123000000Y-115350000D03*
X124166726Y-115833274D03*
X168166726Y-71833274D03*
X167000000Y-71350000D03*
X165833274Y-71833274D03*
X165350000Y-73000000D03*
X165833274Y-74166726D03*
X167000000Y-74650000D03*
X168166726Y-74166726D03*
X168650000Y-73000000D03*
D25*
X167000000Y-73000000D03*
D24*
X168166726Y-115833274D03*
X167000000Y-115350000D03*
X165833274Y-115833274D03*
X165350000Y-117000000D03*
X165833274Y-118166726D03*
X167000000Y-118650000D03*
X168166726Y-118166726D03*
X168650000Y-117000000D03*
D25*
X167000000Y-117000000D03*
D18*
X152500000Y-115720000D03*
X137500000Y-115720000D03*
D19*
X141500000Y-113010000D03*
D20*
X144000000Y-113010000D03*
X146000000Y-113010000D03*
X148500000Y-113010000D03*
D14*
X163420000Y-79720000D03*
D23*
X165960000Y-79720000D03*
X163420000Y-82260000D03*
X165960000Y-82260000D03*
D26*
X141549250Y-86520500D03*
X135972930Y-91547000D03*
X146553505Y-99703452D03*
X149477000Y-93500000D03*
X153577000Y-90999000D03*
X153089000Y-102540500D03*
X150861500Y-101603000D03*
X151683000Y-88361000D03*
X147075785Y-83279000D03*
X133550000Y-84460000D03*
X131350000Y-73863000D03*
X141533000Y-107489000D03*
X147620000Y-110127000D03*
X152151000Y-110127000D03*
X140395000Y-103579000D03*
X142353000Y-103579000D03*
D10*
X138438000Y-103479000D03*
D26*
X136485000Y-102911000D03*
X130059500Y-110834000D03*
X131059500Y-110834000D03*
X153577000Y-92950000D03*
D10*
X158586000Y-91874000D03*
D26*
X149095142Y-83279000D03*
X158650000Y-84460000D03*
X158650000Y-73863000D03*
X140153000Y-92486500D03*
X142934000Y-80260000D03*
X139721000Y-74328000D03*
X129090000Y-92515000D03*
X133775000Y-109289000D03*
X139598750Y-86520500D03*
X143499250Y-86520500D03*
D10*
X156222000Y-99887000D03*
D26*
X152349000Y-95547000D03*
D10*
X159106000Y-114315000D03*
X160106000Y-114315000D03*
X158106000Y-114315000D03*
X161106000Y-114315000D03*
D26*
X125410000Y-111334000D03*
X125410000Y-110334000D03*
X126659000Y-117001500D03*
D10*
X121080000Y-114520000D03*
X168920000Y-114520000D03*
D26*
X167295000Y-92931000D03*
X167295000Y-97070000D03*
X141200000Y-117295000D03*
X148799000Y-117295000D03*
X122705000Y-91201000D03*
X122705000Y-98799000D03*
D10*
X158106000Y-113315000D03*
X161106000Y-113315000D03*
X161106000Y-112315000D03*
X160106000Y-112315000D03*
X159106000Y-112315000D03*
X158106000Y-112315000D03*
X160106000Y-113315000D03*
X159106000Y-113315000D03*
D26*
X135508500Y-100935500D03*
X151602000Y-90023500D03*
X152349000Y-97422000D03*
D10*
X157409000Y-96776000D03*
X158068000Y-79720000D03*
D26*
X146001000Y-89964000D03*
X148908500Y-101603000D03*
X153089000Y-100665500D03*
X151602000Y-91974500D03*
D10*
X158068000Y-82260000D03*
D26*
X137651000Y-94361500D03*
X136949430Y-89570665D03*
X135771000Y-74328000D03*
D10*
X132708000Y-77114000D03*
X163108000Y-108710000D03*
X164108000Y-108710000D03*
X164108000Y-107710000D03*
X163108000Y-106710000D03*
X164108000Y-106710000D03*
X164108000Y-105710000D03*
X164108000Y-104710000D03*
X162108000Y-106710000D03*
X163108000Y-107710000D03*
X162108000Y-107710000D03*
X163108000Y-105710000D03*
X163108000Y-104710000D03*
D26*
X144675500Y-116360500D03*
X144675500Y-115409500D03*
X127610000Y-106626894D03*
X128317106Y-107334000D03*
X130059500Y-113912000D03*
X131027500Y-98819000D03*
X136688500Y-110540000D03*
X131059500Y-113912000D03*
D10*
X155679500Y-106960500D03*
X154679500Y-106960500D03*
X154679500Y-107960500D03*
X156679500Y-107960500D03*
X156679500Y-106960500D03*
X157679500Y-106960500D03*
X157679500Y-107960500D03*
D26*
X130059500Y-116340000D03*
X131059500Y-116340000D03*
D10*
X155679500Y-107960500D03*
X154679500Y-108960500D03*
X155679500Y-108960500D03*
X154679500Y-109960500D03*
X155679500Y-109960500D03*
X148954000Y-99169513D03*
D26*
X123639500Y-94675500D03*
X124590500Y-94675500D03*
X126610000Y-106626894D03*
X125902894Y-107334000D03*
X149659213Y-97510000D03*
X145631428Y-86192000D03*
X150539500Y-86192000D03*
D10*
X141619632Y-90457000D03*
X142474000Y-90457000D03*
X144526000Y-90457000D03*
X145511351Y-90729990D03*
X148131430Y-89702000D03*
X141549250Y-88397500D03*
X149270010Y-94850000D03*
X149548800Y-95981200D03*
X132708000Y-81530000D03*
X126710000Y-114186182D03*
X128875686Y-108634000D03*
X140383000Y-94955005D03*
X130945502Y-104392502D03*
X140153000Y-94200010D03*
X130945502Y-101474000D03*
D27*
X150631430Y-88361000D02*
X151683000Y-88361000D01*
X158650000Y-86411000D02*
X158650000Y-84460000D01*
X133550000Y-86411000D02*
X133550000Y-84460000D01*
X158650000Y-71911100D02*
X158650000Y-73863000D01*
X131350000Y-71911100D02*
X131350000Y-73863000D01*
X143131430Y-86888320D02*
X143499250Y-86520500D01*
X143131430Y-88361000D02*
X143131430Y-86888320D01*
D28*
X144200000Y-115885000D02*
X144675500Y-116360500D01*
X144675500Y-115409500D02*
X144200000Y-115885000D01*
X141270000Y-115885000D02*
X144200000Y-115885000D01*
X137852000Y-112467000D02*
X141270000Y-115885000D01*
X137852000Y-112467000D02*
X134833000Y-112467000D01*
X144675500Y-115409500D02*
X144675500Y-116360500D01*
X129700000Y-107334000D02*
X128317106Y-107334000D01*
X134833000Y-112467000D02*
X129700000Y-107334000D01*
X128992894Y-106626894D02*
X129700000Y-107334000D01*
X127610000Y-106626894D02*
X128992894Y-106626894D01*
D29*
X147184488Y-97400001D02*
X148954000Y-99169513D01*
X139656779Y-97400001D02*
X147184488Y-97400001D01*
X128036000Y-85779222D02*
X139656779Y-97400001D01*
X128036000Y-85779222D02*
X128036000Y-84070000D01*
D28*
X124115000Y-95151000D02*
X123639500Y-94675500D01*
X124590500Y-94675500D02*
X124115000Y-95151000D01*
X123639500Y-94675500D02*
X124590500Y-94675500D01*
X124115000Y-98483000D02*
X124115000Y-95151000D01*
X126610000Y-100978000D02*
X124115000Y-98483000D01*
X125902894Y-107334000D02*
X125902894Y-105951000D01*
X126610000Y-105243894D02*
X126610000Y-100978000D01*
X125902894Y-105951000D02*
X126610000Y-105243894D01*
X126610000Y-106626894D02*
X126610000Y-105243894D01*
D29*
X155078000Y-96227000D02*
X155078000Y-97677000D01*
X157555000Y-93750000D02*
X155078000Y-96227000D01*
X161010000Y-93750000D02*
X157555000Y-93750000D01*
D28*
X145631428Y-88361000D02*
X145631428Y-86192000D01*
D29*
X144398031Y-84441969D02*
X142381429Y-86458571D01*
X153757357Y-84441969D02*
X144398031Y-84441969D01*
X157281400Y-88361000D02*
X157281400Y-87261000D01*
X156330388Y-87015000D02*
X153757357Y-84441969D01*
X157281400Y-87261000D02*
X157035400Y-87015000D01*
X157035400Y-87015000D02*
X156330388Y-87015000D01*
X142381429Y-89695203D02*
X141619632Y-90457000D01*
X142381429Y-86458571D02*
X142381429Y-89695203D01*
X156081400Y-88361000D02*
X156081400Y-87261000D01*
X145313033Y-84791979D02*
X144276642Y-85828370D01*
X153612379Y-84791979D02*
X145313033Y-84791979D01*
X156081400Y-87261000D02*
X153612379Y-84791979D01*
X144276642Y-85828370D02*
X144276642Y-89157358D01*
X144276642Y-89157358D02*
X143620000Y-89814000D01*
X143117000Y-89814000D02*
X142474000Y-90457000D01*
X143620000Y-89814000D02*
X143117000Y-89814000D01*
X151962419Y-85141989D02*
X154781430Y-87961000D01*
X154781430Y-87961000D02*
X154781430Y-88361000D01*
X144754034Y-85845966D02*
X145458011Y-85141989D01*
X145458011Y-85141989D02*
X151962419Y-85141989D01*
X144526000Y-89580068D02*
X144754034Y-89352034D01*
X144526000Y-90457000D02*
X144526000Y-89580068D01*
X144754034Y-89352034D02*
X144754034Y-85845966D01*
X151362429Y-85491999D02*
X148323989Y-85491999D01*
X153131430Y-87261000D02*
X151362429Y-85491999D01*
X153131430Y-88361000D02*
X153131430Y-87261000D01*
X146879010Y-86936978D02*
X146879010Y-89458408D01*
X148323989Y-85491999D02*
X146879010Y-86936978D01*
X146879010Y-90144990D02*
X146879010Y-89458408D01*
X146497000Y-90527000D02*
X146879010Y-90144990D01*
X146294010Y-90729990D02*
X146879010Y-90144990D01*
X145511351Y-90729990D02*
X146294010Y-90729990D01*
X148131430Y-88361000D02*
X148131430Y-89702000D01*
X140667930Y-88397500D02*
X140631430Y-88361000D01*
X141549250Y-88397500D02*
X140667930Y-88397500D01*
X147208979Y-92249989D02*
X147750009Y-92791019D01*
X147750009Y-93329999D02*
X149270010Y-94850000D01*
X147750009Y-92791019D02*
X147750009Y-93329999D01*
X138131430Y-88761000D02*
X138131430Y-88361000D01*
X141620418Y-92249989D02*
X138131429Y-88761000D01*
X147208979Y-92249989D02*
X141620419Y-92249989D01*
X135631430Y-88361000D02*
X135631430Y-88761000D01*
X148653000Y-94733000D02*
X148653000Y-95085400D01*
X147400001Y-93480001D02*
X148653000Y-94733000D01*
X148653000Y-95085400D02*
X149548800Y-95981200D01*
X147400001Y-92935999D02*
X147400001Y-93480001D01*
X147064001Y-92599999D02*
X147400001Y-92935999D01*
X141465999Y-92599999D02*
X147064001Y-92599999D01*
X135631430Y-88361000D02*
X135631430Y-89461000D01*
X141465999Y-92599999D02*
X139290285Y-90424285D01*
X139290285Y-90424285D02*
X136594715Y-90424285D01*
X135631430Y-89461000D02*
X136594715Y-90424285D01*
X132704000Y-81530000D02*
X132708000Y-81534000D01*
X128036000Y-81530000D02*
X132704000Y-81530000D01*
X126710000Y-110799686D02*
X128875686Y-108634000D01*
X126710000Y-114186182D02*
X126710000Y-110799686D01*
D28*
X164800000Y-119200000D02*
X167000000Y-117000000D01*
X123000000Y-117000000D02*
X125200000Y-119200000D01*
X120800000Y-75200000D02*
X123000000Y-73000000D01*
X123000000Y-114520000D02*
X120800000Y-112320000D01*
D27*
X124280000Y-102500000D02*
X120800000Y-102500000D01*
X124280000Y-87500000D02*
X120800000Y-87500000D01*
X137500000Y-115720000D02*
X137500000Y-119200000D01*
X152500000Y-115720000D02*
X152500000Y-119200000D01*
X165720000Y-88980000D02*
X169200000Y-88980000D01*
X165720000Y-101020000D02*
X169200000Y-101020000D01*
D28*
X169200000Y-75200000D02*
X167000000Y-73000000D01*
X167000000Y-114520000D02*
X169200000Y-112320000D01*
X169200000Y-112320000D02*
X169200000Y-75200000D01*
X167000000Y-117000000D02*
X167000000Y-114520000D01*
X164800000Y-119200000D02*
X125200000Y-119200000D01*
X123000000Y-117000000D02*
X123000000Y-114520000D01*
X120800000Y-112320000D02*
X120800000Y-75200000D01*
D30*
G36*
X161820991Y-92939009D02*
G01*
X161847300Y-93002525D01*
X161847300Y-94497475D01*
X161820991Y-94560991D01*
X161757475Y-94587300D01*
X158596421Y-94587300D01*
X158593943Y-94587544D01*
X158591561Y-94588267D01*
X158520851Y-94617556D01*
X158518655Y-94618729D01*
X158516731Y-94620309D01*
X156748309Y-96388731D01*
X156746729Y-96390655D01*
X156745556Y-96392851D01*
X156716267Y-96463561D01*
X156715544Y-96465943D01*
X156715300Y-96468421D01*
X156715300Y-98824475D01*
X156688991Y-98887991D01*
X156625475Y-98914300D01*
X153530525Y-98914300D01*
X153467009Y-98887991D01*
X153440700Y-98824475D01*
X153440700Y-96470946D01*
X153468055Y-96404905D01*
X156932905Y-92940055D01*
X156998946Y-92912700D01*
X161757475Y-92912700D01*
X161820991Y-92939009D01*
X161820991Y-92939009D01*
G37*
X161820991Y-92939009D02*
X161847300Y-93002525D01*
X161847300Y-94497475D01*
X161820991Y-94560991D01*
X161757475Y-94587300D01*
X158596421Y-94587300D01*
X158593943Y-94587544D01*
X158591561Y-94588267D01*
X158520851Y-94617556D01*
X158518655Y-94618729D01*
X158516731Y-94620309D01*
X156748309Y-96388731D01*
X156746729Y-96390655D01*
X156745556Y-96392851D01*
X156716267Y-96463561D01*
X156715544Y-96465943D01*
X156715300Y-96468421D01*
X156715300Y-98824475D01*
X156688991Y-98887991D01*
X156625475Y-98914300D01*
X153530525Y-98914300D01*
X153467009Y-98887991D01*
X153440700Y-98824475D01*
X153440700Y-96470946D01*
X153468055Y-96404905D01*
X156932905Y-92940055D01*
X156998946Y-92912700D01*
X161757475Y-92912700D01*
X161820991Y-92939009D01*
G36*
X156688991Y-103266009D02*
G01*
X156715300Y-103329525D01*
X156715300Y-105214579D01*
X156715544Y-105217057D01*
X156716267Y-105219439D01*
X156745556Y-105290149D01*
X156746729Y-105292345D01*
X156748309Y-105294269D01*
X158015945Y-106561905D01*
X158043300Y-106627946D01*
X158043300Y-110234475D01*
X158016991Y-110297991D01*
X157953475Y-110324300D01*
X154346946Y-110324300D01*
X154280905Y-110296945D01*
X153468055Y-109484095D01*
X153440700Y-109418054D01*
X153440700Y-103329525D01*
X153467009Y-103266009D01*
X153530525Y-103239700D01*
X156625475Y-103239700D01*
X156688991Y-103266009D01*
X156688991Y-103266009D01*
G37*
X156688991Y-103266009D02*
X156715300Y-103329525D01*
X156715300Y-105214579D01*
X156715544Y-105217057D01*
X156716267Y-105219439D01*
X156745556Y-105290149D01*
X156746729Y-105292345D01*
X156748309Y-105294269D01*
X158015945Y-106561905D01*
X158043300Y-106627946D01*
X158043300Y-110234475D01*
X158016991Y-110297991D01*
X157953475Y-110324300D01*
X154346946Y-110324300D01*
X154280905Y-110296945D01*
X153468055Y-109484095D01*
X153440700Y-109418054D01*
X153440700Y-103329525D01*
X153467009Y-103266009D01*
X153530525Y-103239700D01*
X156625475Y-103239700D01*
X156688991Y-103266009D01*
D22*
G36*
X169725000Y-116986546D02*
G01*
X169671808Y-117529035D01*
X169518169Y-118037913D01*
X169268611Y-118507265D01*
X168932644Y-118919199D01*
X168523061Y-119258037D01*
X168055470Y-119510860D01*
X167547672Y-119668051D01*
X167006047Y-119724978D01*
X166999615Y-119725000D01*
X165184886Y-119725000D01*
X165261843Y-119661843D01*
X165282200Y-119637038D01*
X165784691Y-119134547D01*
X165839490Y-119171162D01*
X166285361Y-119355848D01*
X166758696Y-119450000D01*
X167241304Y-119450000D01*
X167714639Y-119355848D01*
X168160510Y-119171162D01*
X168561784Y-118903040D01*
X168903040Y-118561784D01*
X169171162Y-118160510D01*
X169355848Y-117714639D01*
X169450000Y-117241304D01*
X169450000Y-116758696D01*
X169355848Y-116285361D01*
X169171162Y-115839490D01*
X168903040Y-115438216D01*
X168561784Y-115096960D01*
X168160510Y-114828838D01*
X167771524Y-114667714D01*
X169637039Y-112802199D01*
X169661843Y-112781843D01*
X169725000Y-112704886D01*
X169725000Y-116986546D01*
X169725000Y-116986546D01*
G37*
X169725000Y-116986546D02*
X169671808Y-117529035D01*
X169518169Y-118037913D01*
X169268611Y-118507265D01*
X168932644Y-118919199D01*
X168523061Y-119258037D01*
X168055470Y-119510860D01*
X167547672Y-119668051D01*
X167006047Y-119724978D01*
X166999615Y-119725000D01*
X165184886Y-119725000D01*
X165261843Y-119661843D01*
X165282200Y-119637038D01*
X165784691Y-119134547D01*
X165839490Y-119171162D01*
X166285361Y-119355848D01*
X166758696Y-119450000D01*
X167241304Y-119450000D01*
X167714639Y-119355848D01*
X168160510Y-119171162D01*
X168561784Y-118903040D01*
X168903040Y-118561784D01*
X169171162Y-118160510D01*
X169355848Y-117714639D01*
X169450000Y-117241304D01*
X169450000Y-116758696D01*
X169355848Y-116285361D01*
X169171162Y-115839490D01*
X168903040Y-115438216D01*
X168561784Y-115096960D01*
X168160510Y-114828838D01*
X167771524Y-114667714D01*
X169637039Y-112802199D01*
X169661843Y-112781843D01*
X169725000Y-112704886D01*
X169725000Y-116986546D01*
G36*
X120284899Y-112716948D02*
G01*
X120338157Y-112781843D01*
X120362962Y-112802200D01*
X122228476Y-114667714D01*
X121839490Y-114828838D01*
X121438216Y-115096960D01*
X121096960Y-115438216D01*
X120828838Y-115839490D01*
X120644152Y-116285361D01*
X120550000Y-116758696D01*
X120550000Y-117241304D01*
X120644152Y-117714639D01*
X120828838Y-118160510D01*
X121096960Y-118561784D01*
X121438216Y-118903040D01*
X121839490Y-119171162D01*
X122285361Y-119355848D01*
X122758696Y-119450000D01*
X123241304Y-119450000D01*
X123714639Y-119355848D01*
X124160510Y-119171162D01*
X124215309Y-119134547D01*
X124717800Y-119637038D01*
X124738157Y-119661843D01*
X124815114Y-119725000D01*
X123013454Y-119725000D01*
X122470965Y-119671808D01*
X121962087Y-119518169D01*
X121492735Y-119268611D01*
X121080801Y-118932644D01*
X120741963Y-118523061D01*
X120489140Y-118055470D01*
X120331949Y-117547672D01*
X120275022Y-117006047D01*
X120275000Y-116999615D01*
X120275000Y-112704886D01*
X120284899Y-112716948D01*
X120284899Y-112716948D01*
G37*
X120284899Y-112716948D02*
X120338157Y-112781843D01*
X120362962Y-112802200D01*
X122228476Y-114667714D01*
X121839490Y-114828838D01*
X121438216Y-115096960D01*
X121096960Y-115438216D01*
X120828838Y-115839490D01*
X120644152Y-116285361D01*
X120550000Y-116758696D01*
X120550000Y-117241304D01*
X120644152Y-117714639D01*
X120828838Y-118160510D01*
X121096960Y-118561784D01*
X121438216Y-118903040D01*
X121839490Y-119171162D01*
X122285361Y-119355848D01*
X122758696Y-119450000D01*
X123241304Y-119450000D01*
X123714639Y-119355848D01*
X124160510Y-119171162D01*
X124215309Y-119134547D01*
X124717800Y-119637038D01*
X124738157Y-119661843D01*
X124815114Y-119725000D01*
X123013454Y-119725000D01*
X122470965Y-119671808D01*
X121962087Y-119518169D01*
X121492735Y-119268611D01*
X121080801Y-118932644D01*
X120741963Y-118523061D01*
X120489140Y-118055470D01*
X120331949Y-117547672D01*
X120275022Y-117006047D01*
X120275000Y-116999615D01*
X120275000Y-112704886D01*
X120284899Y-112716948D01*
G36*
X167529029Y-70328191D02*
G01*
X168037915Y-70481832D01*
X168507262Y-70731388D01*
X168919199Y-71067356D01*
X169258034Y-71476936D01*
X169510862Y-71944534D01*
X169668050Y-72452323D01*
X169724978Y-72993954D01*
X169725001Y-73000671D01*
X169725001Y-74815115D01*
X169661843Y-74738157D01*
X169637038Y-74717800D01*
X169134547Y-74215309D01*
X169171162Y-74160510D01*
X169355848Y-73714639D01*
X169450000Y-73241304D01*
X169450000Y-72758696D01*
X169355848Y-72285361D01*
X169171162Y-71839490D01*
X168903040Y-71438216D01*
X168561784Y-71096960D01*
X168160510Y-70828838D01*
X167714639Y-70644152D01*
X167241304Y-70550000D01*
X166758696Y-70550000D01*
X166285361Y-70644152D01*
X165839490Y-70828838D01*
X165438216Y-71096960D01*
X165096960Y-71438216D01*
X164828838Y-71839490D01*
X164644152Y-72285361D01*
X164550000Y-72758696D01*
X164550000Y-73241304D01*
X164644152Y-73714639D01*
X164828838Y-74160510D01*
X165096960Y-74561784D01*
X165438216Y-74903040D01*
X165839490Y-75171162D01*
X166285361Y-75355848D01*
X166758696Y-75450000D01*
X167241304Y-75450000D01*
X167714639Y-75355848D01*
X168160510Y-75171162D01*
X168215309Y-75134547D01*
X168550001Y-75469239D01*
X168550001Y-88590000D01*
X167681606Y-88590000D01*
X167643141Y-88396622D01*
X167492377Y-88032645D01*
X167273501Y-87705074D01*
X166994926Y-87426499D01*
X166667355Y-87207623D01*
X166303378Y-87056859D01*
X165916983Y-86980000D01*
X165523017Y-86980000D01*
X165136622Y-87056859D01*
X164772645Y-87207623D01*
X164445074Y-87426499D01*
X164166499Y-87705074D01*
X163947623Y-88032645D01*
X163796859Y-88396622D01*
X163720000Y-88783017D01*
X163720000Y-89176983D01*
X163796859Y-89563378D01*
X163947623Y-89927355D01*
X164166499Y-90254926D01*
X164445074Y-90533501D01*
X164772645Y-90752377D01*
X165136622Y-90903141D01*
X165523017Y-90980000D01*
X165916983Y-90980000D01*
X166303378Y-90903141D01*
X166667355Y-90752377D01*
X166994926Y-90533501D01*
X167273501Y-90254926D01*
X167492377Y-89927355D01*
X167643141Y-89563378D01*
X167681606Y-89370000D01*
X168550001Y-89370000D01*
X168550000Y-100630000D01*
X167681606Y-100630000D01*
X167643141Y-100436622D01*
X167492377Y-100072645D01*
X167273501Y-99745074D01*
X166994926Y-99466499D01*
X166667355Y-99247623D01*
X166303378Y-99096859D01*
X165916983Y-99020000D01*
X165523017Y-99020000D01*
X165136622Y-99096859D01*
X164772645Y-99247623D01*
X164445074Y-99466499D01*
X164166499Y-99745074D01*
X163947623Y-100072645D01*
X163796859Y-100436622D01*
X163720000Y-100823017D01*
X163720000Y-101216983D01*
X163796859Y-101603378D01*
X163947623Y-101967355D01*
X164166499Y-102294926D01*
X164445074Y-102573501D01*
X164772645Y-102792377D01*
X165136622Y-102943141D01*
X165523017Y-103020000D01*
X165916983Y-103020000D01*
X166303378Y-102943141D01*
X166667355Y-102792377D01*
X166994926Y-102573501D01*
X167273501Y-102294926D01*
X167492377Y-101967355D01*
X167643141Y-101603378D01*
X167681606Y-101410000D01*
X168550000Y-101410000D01*
X168550000Y-112050762D01*
X166562958Y-114037804D01*
X166538158Y-114058157D01*
X166517805Y-114082957D01*
X166517802Y-114082960D01*
X166456930Y-114157132D01*
X166396573Y-114270053D01*
X166359406Y-114392578D01*
X166346856Y-114520000D01*
X166350001Y-114551931D01*
X166350001Y-114631294D01*
X166285361Y-114644152D01*
X165839490Y-114828838D01*
X165438216Y-115096960D01*
X165096960Y-115438216D01*
X164828838Y-115839490D01*
X164644152Y-116285361D01*
X164550000Y-116758696D01*
X164550000Y-117241304D01*
X164644152Y-117714639D01*
X164828838Y-118160510D01*
X164865453Y-118215309D01*
X164530762Y-118550000D01*
X152890000Y-118550000D01*
X152890000Y-117426709D01*
X153010456Y-117402749D01*
X153328936Y-117270830D01*
X153615560Y-117079314D01*
X153859314Y-116835560D01*
X154050830Y-116548936D01*
X154182749Y-116230456D01*
X154250000Y-115892360D01*
X154250000Y-115547640D01*
X154182749Y-115209544D01*
X154050830Y-114891064D01*
X153859314Y-114604440D01*
X153615560Y-114360686D01*
X153328936Y-114169170D01*
X153010456Y-114037251D01*
X152672360Y-113970000D01*
X152327640Y-113970000D01*
X151989544Y-114037251D01*
X151671064Y-114169170D01*
X151384440Y-114360686D01*
X151140686Y-114604440D01*
X150949170Y-114891064D01*
X150817251Y-115209544D01*
X150750000Y-115547640D01*
X150750000Y-115892360D01*
X150817251Y-116230456D01*
X150949170Y-116548936D01*
X151140686Y-116835560D01*
X151384440Y-117079314D01*
X151671064Y-117270830D01*
X151989544Y-117402749D01*
X152110000Y-117426709D01*
X152110001Y-118550000D01*
X137890000Y-118550000D01*
X137890000Y-117426709D01*
X138010456Y-117402749D01*
X138328936Y-117270830D01*
X138615560Y-117079314D01*
X138859314Y-116835560D01*
X139050830Y-116548936D01*
X139182749Y-116230456D01*
X139250000Y-115892360D01*
X139250000Y-115547640D01*
X139182749Y-115209544D01*
X139050830Y-114891064D01*
X138859314Y-114604440D01*
X138615560Y-114360686D01*
X138328936Y-114169170D01*
X138010456Y-114037251D01*
X137672360Y-113970000D01*
X137327640Y-113970000D01*
X136989544Y-114037251D01*
X136671064Y-114169170D01*
X136384440Y-114360686D01*
X136140686Y-114604440D01*
X135949170Y-114891064D01*
X135817251Y-115209544D01*
X135750000Y-115547640D01*
X135750000Y-115892360D01*
X135817251Y-116230456D01*
X135949170Y-116548936D01*
X136140686Y-116835560D01*
X136384440Y-117079314D01*
X136671064Y-117270830D01*
X136989544Y-117402749D01*
X137110000Y-117426709D01*
X137110001Y-118550000D01*
X125469238Y-118550000D01*
X125134547Y-118215309D01*
X125171162Y-118160510D01*
X125355848Y-117714639D01*
X125450000Y-117241304D01*
X125450000Y-116758696D01*
X125355848Y-116285361D01*
X125351963Y-116275981D01*
X129409500Y-116275981D01*
X129409500Y-116404019D01*
X129434479Y-116529598D01*
X129483478Y-116647890D01*
X129554612Y-116754351D01*
X129645149Y-116844888D01*
X129751610Y-116916022D01*
X129869902Y-116965021D01*
X129995481Y-116990000D01*
X130123519Y-116990000D01*
X130249098Y-116965021D01*
X130367390Y-116916022D01*
X130473851Y-116844888D01*
X130559500Y-116759239D01*
X130645149Y-116844888D01*
X130751610Y-116916022D01*
X130869902Y-116965021D01*
X130995481Y-116990000D01*
X131123519Y-116990000D01*
X131249098Y-116965021D01*
X131367390Y-116916022D01*
X131473851Y-116844888D01*
X131564388Y-116754351D01*
X131635522Y-116647890D01*
X131684521Y-116529598D01*
X131709500Y-116404019D01*
X131709500Y-116275981D01*
X131684521Y-116150402D01*
X131635522Y-116032110D01*
X131564388Y-115925649D01*
X131473851Y-115835112D01*
X131367390Y-115763978D01*
X131249098Y-115714979D01*
X131123519Y-115690000D01*
X130995481Y-115690000D01*
X130869902Y-115714979D01*
X130751610Y-115763978D01*
X130645149Y-115835112D01*
X130559500Y-115920761D01*
X130473851Y-115835112D01*
X130367390Y-115763978D01*
X130249098Y-115714979D01*
X130123519Y-115690000D01*
X129995481Y-115690000D01*
X129869902Y-115714979D01*
X129751610Y-115763978D01*
X129645149Y-115835112D01*
X129554612Y-115925649D01*
X129483478Y-116032110D01*
X129434479Y-116150402D01*
X129409500Y-116275981D01*
X125351963Y-116275981D01*
X125171162Y-115839490D01*
X124903040Y-115438216D01*
X124561784Y-115096960D01*
X124160510Y-114828838D01*
X123714639Y-114644152D01*
X123650000Y-114631295D01*
X123650000Y-114551924D01*
X123653144Y-114520000D01*
X123650000Y-114488076D01*
X123650000Y-114488068D01*
X123640595Y-114392578D01*
X123603427Y-114270052D01*
X123543070Y-114157132D01*
X123522455Y-114132012D01*
X126160000Y-114132012D01*
X126160000Y-114240352D01*
X126181136Y-114346611D01*
X126222597Y-114446705D01*
X126282787Y-114536786D01*
X126359396Y-114613395D01*
X126449477Y-114673585D01*
X126549571Y-114715046D01*
X126655830Y-114736182D01*
X126764170Y-114736182D01*
X126870429Y-114715046D01*
X126970523Y-114673585D01*
X127060604Y-114613395D01*
X127137213Y-114536786D01*
X127197403Y-114446705D01*
X127238864Y-114346611D01*
X127260000Y-114240352D01*
X127260000Y-114132012D01*
X127238864Y-114025753D01*
X127197403Y-113925659D01*
X127145501Y-113847981D01*
X129409500Y-113847981D01*
X129409500Y-113976019D01*
X129434479Y-114101598D01*
X129483478Y-114219890D01*
X129554612Y-114326351D01*
X129645149Y-114416888D01*
X129751610Y-114488022D01*
X129869902Y-114537021D01*
X129995481Y-114562000D01*
X130123519Y-114562000D01*
X130249098Y-114537021D01*
X130367390Y-114488022D01*
X130473851Y-114416888D01*
X130559500Y-114331239D01*
X130645149Y-114416888D01*
X130751610Y-114488022D01*
X130869902Y-114537021D01*
X130995481Y-114562000D01*
X131123519Y-114562000D01*
X131249098Y-114537021D01*
X131367390Y-114488022D01*
X131473851Y-114416888D01*
X131564388Y-114326351D01*
X131635522Y-114219890D01*
X131684521Y-114101598D01*
X131709500Y-113976019D01*
X131709500Y-113847981D01*
X131684521Y-113722402D01*
X131635522Y-113604110D01*
X131564388Y-113497649D01*
X131473851Y-113407112D01*
X131367390Y-113335978D01*
X131249098Y-113286979D01*
X131123519Y-113262000D01*
X130995481Y-113262000D01*
X130869902Y-113286979D01*
X130751610Y-113335978D01*
X130645149Y-113407112D01*
X130559500Y-113492761D01*
X130473851Y-113407112D01*
X130367390Y-113335978D01*
X130249098Y-113286979D01*
X130123519Y-113262000D01*
X129995481Y-113262000D01*
X129869902Y-113286979D01*
X129751610Y-113335978D01*
X129645149Y-113407112D01*
X129554612Y-113497649D01*
X129483478Y-113604110D01*
X129434479Y-113722402D01*
X129409500Y-113847981D01*
X127145501Y-113847981D01*
X127137213Y-113835578D01*
X127060604Y-113758969D01*
X127060000Y-113758565D01*
X127060000Y-110944659D01*
X128820803Y-109183858D01*
X128821516Y-109184000D01*
X128929856Y-109184000D01*
X129036115Y-109162864D01*
X129136209Y-109121403D01*
X129226290Y-109061213D01*
X129302899Y-108984604D01*
X129363089Y-108894523D01*
X129404550Y-108794429D01*
X129425686Y-108688170D01*
X129425686Y-108579830D01*
X129404550Y-108473571D01*
X129363089Y-108373477D01*
X129302899Y-108283396D01*
X129226290Y-108206787D01*
X129136209Y-108146597D01*
X129036115Y-108105136D01*
X128929856Y-108084000D01*
X128821516Y-108084000D01*
X128715257Y-108105136D01*
X128615163Y-108146597D01*
X128525082Y-108206787D01*
X128448473Y-108283396D01*
X128388283Y-108373477D01*
X128346822Y-108473571D01*
X128325686Y-108579830D01*
X128325686Y-108688170D01*
X128325828Y-108688883D01*
X126474676Y-110540037D01*
X126461316Y-110551001D01*
X126417579Y-110604296D01*
X126385079Y-110665099D01*
X126365065Y-110731075D01*
X126358307Y-110799686D01*
X126360001Y-110816884D01*
X126360000Y-113758565D01*
X126359396Y-113758969D01*
X126282787Y-113835578D01*
X126222597Y-113925659D01*
X126181136Y-114025753D01*
X126160000Y-114132012D01*
X123522455Y-114132012D01*
X123461843Y-114058157D01*
X123437038Y-114037800D01*
X121450000Y-112050762D01*
X121450000Y-102890000D01*
X122573291Y-102890000D01*
X122597251Y-103010456D01*
X122729170Y-103328936D01*
X122920686Y-103615560D01*
X123164440Y-103859314D01*
X123451064Y-104050830D01*
X123769544Y-104182749D01*
X124107640Y-104250000D01*
X124452360Y-104250000D01*
X124790456Y-104182749D01*
X125108936Y-104050830D01*
X125395560Y-103859314D01*
X125639314Y-103615560D01*
X125830830Y-103328936D01*
X125960001Y-103017091D01*
X125960000Y-104974656D01*
X125465852Y-105468804D01*
X125441052Y-105489157D01*
X125420699Y-105513957D01*
X125420696Y-105513960D01*
X125359824Y-105588132D01*
X125299467Y-105701053D01*
X125262300Y-105823578D01*
X125249750Y-105951000D01*
X125252895Y-105982931D01*
X125252895Y-106316916D01*
X125252000Y-106326000D01*
X125252000Y-107634000D01*
X125256803Y-107682771D01*
X125271030Y-107729670D01*
X125300319Y-107800381D01*
X125323422Y-107843605D01*
X125354513Y-107881489D01*
X125392398Y-107912579D01*
X125435619Y-107935681D01*
X125506330Y-107964970D01*
X125553227Y-107979196D01*
X125602000Y-107984000D01*
X125870962Y-107984000D01*
X125902894Y-107987145D01*
X125934825Y-107984000D01*
X126910000Y-107984000D01*
X126958771Y-107979197D01*
X127005670Y-107964970D01*
X127076381Y-107935681D01*
X127110000Y-107917712D01*
X127143619Y-107935681D01*
X127214330Y-107964970D01*
X127261227Y-107979196D01*
X127310000Y-107984000D01*
X129430762Y-107984000D01*
X134350804Y-112904043D01*
X134371157Y-112928843D01*
X134395957Y-112949196D01*
X134395959Y-112949198D01*
X134425139Y-112973145D01*
X134470132Y-113010070D01*
X134583052Y-113070427D01*
X134705578Y-113107595D01*
X134801068Y-113117000D01*
X134801078Y-113117000D01*
X134832999Y-113120144D01*
X134864920Y-113117000D01*
X137582762Y-113117000D01*
X140787804Y-116322043D01*
X140808157Y-116346843D01*
X140832957Y-116367196D01*
X140832959Y-116367198D01*
X140907131Y-116428070D01*
X141019107Y-116487922D01*
X141020052Y-116488427D01*
X141142578Y-116525595D01*
X141238068Y-116535000D01*
X141238078Y-116535000D01*
X141270000Y-116538144D01*
X141301921Y-116535000D01*
X143930762Y-116535000D01*
X144170612Y-116774851D01*
X144193310Y-116797549D01*
X144213658Y-116822343D01*
X144238452Y-116842691D01*
X144261149Y-116865388D01*
X144287829Y-116883214D01*
X144312632Y-116903570D01*
X144340933Y-116918697D01*
X144367610Y-116936522D01*
X144397252Y-116948800D01*
X144425552Y-116963927D01*
X144456256Y-116973241D01*
X144485902Y-116985521D01*
X144517375Y-116991781D01*
X144548078Y-117001095D01*
X144559503Y-117002220D01*
X144580009Y-117004240D01*
X144611481Y-117010500D01*
X144643569Y-117010500D01*
X144675500Y-117013645D01*
X144707432Y-117010500D01*
X144739519Y-117010500D01*
X144770990Y-117004240D01*
X144802922Y-117001095D01*
X144833625Y-116991781D01*
X144865098Y-116985521D01*
X144894744Y-116973241D01*
X144925448Y-116963927D01*
X144953748Y-116948800D01*
X144983390Y-116936522D01*
X145010067Y-116918697D01*
X145038368Y-116903570D01*
X145063170Y-116883215D01*
X145089851Y-116865388D01*
X145112543Y-116842696D01*
X145137343Y-116822343D01*
X145157696Y-116797543D01*
X145180388Y-116774851D01*
X145198215Y-116748170D01*
X145218570Y-116723368D01*
X145233697Y-116695067D01*
X145251522Y-116668390D01*
X145263800Y-116638748D01*
X145278927Y-116610448D01*
X145288241Y-116579744D01*
X145300521Y-116550098D01*
X145306781Y-116518625D01*
X145316095Y-116487922D01*
X145319240Y-116455990D01*
X145325500Y-116424519D01*
X145325500Y-116392424D01*
X145328644Y-116360500D01*
X145325500Y-116328576D01*
X145325500Y-115441424D01*
X145328644Y-115409500D01*
X145325500Y-115377576D01*
X145325500Y-115345481D01*
X145319240Y-115314010D01*
X145316095Y-115282078D01*
X145306781Y-115251375D01*
X145300521Y-115219902D01*
X145288241Y-115190256D01*
X145278927Y-115159552D01*
X145263800Y-115131252D01*
X145251522Y-115101610D01*
X145233697Y-115074933D01*
X145218570Y-115046632D01*
X145198215Y-115021830D01*
X145180388Y-114995149D01*
X145157696Y-114972457D01*
X145137343Y-114947657D01*
X145112545Y-114927306D01*
X145089851Y-114904612D01*
X145063170Y-114886785D01*
X145038368Y-114866430D01*
X145010068Y-114851304D01*
X144983390Y-114833478D01*
X144953745Y-114821198D01*
X144925447Y-114806073D01*
X144894746Y-114796760D01*
X144865098Y-114784479D01*
X144833624Y-114778219D01*
X144802922Y-114768905D01*
X144791497Y-114767780D01*
X144770991Y-114765760D01*
X144739519Y-114759500D01*
X144707431Y-114759500D01*
X144675500Y-114756355D01*
X144643568Y-114759500D01*
X144611481Y-114759500D01*
X144580010Y-114765760D01*
X144548078Y-114768905D01*
X144517375Y-114778219D01*
X144485902Y-114784479D01*
X144456256Y-114796759D01*
X144425552Y-114806073D01*
X144397252Y-114821200D01*
X144367610Y-114833478D01*
X144340933Y-114851303D01*
X144312632Y-114866430D01*
X144287829Y-114886786D01*
X144261149Y-114904612D01*
X144238457Y-114927304D01*
X144213657Y-114947657D01*
X144193305Y-114972456D01*
X143930762Y-115235000D01*
X141539239Y-115235000D01*
X138514239Y-112210000D01*
X140448791Y-112210000D01*
X140448791Y-113810000D01*
X140453618Y-113859008D01*
X140467913Y-113906134D01*
X140491127Y-113949564D01*
X140522368Y-113987632D01*
X140560436Y-114018873D01*
X140603866Y-114042087D01*
X140650992Y-114056382D01*
X140700000Y-114061209D01*
X142300000Y-114061209D01*
X142349008Y-114056382D01*
X142396134Y-114042087D01*
X142439564Y-114018873D01*
X142477632Y-113987632D01*
X142508873Y-113949564D01*
X142532087Y-113906134D01*
X142546382Y-113859008D01*
X142551209Y-113810000D01*
X142551209Y-112906584D01*
X142950000Y-112906584D01*
X142950000Y-113113416D01*
X142990350Y-113316274D01*
X143069502Y-113507362D01*
X143184411Y-113679336D01*
X143330664Y-113825589D01*
X143502638Y-113940498D01*
X143693726Y-114019650D01*
X143896584Y-114060000D01*
X144103416Y-114060000D01*
X144306274Y-114019650D01*
X144497362Y-113940498D01*
X144669336Y-113825589D01*
X144815589Y-113679336D01*
X144930498Y-113507362D01*
X145000000Y-113339571D01*
X145069502Y-113507362D01*
X145184411Y-113679336D01*
X145330664Y-113825589D01*
X145502638Y-113940498D01*
X145693726Y-114019650D01*
X145896584Y-114060000D01*
X146103416Y-114060000D01*
X146306274Y-114019650D01*
X146497362Y-113940498D01*
X146669336Y-113825589D01*
X146815589Y-113679336D01*
X146930498Y-113507362D01*
X147009650Y-113316274D01*
X147050000Y-113113416D01*
X147050000Y-112906584D01*
X147009650Y-112703726D01*
X146930498Y-112512638D01*
X146815589Y-112340664D01*
X146669336Y-112194411D01*
X146497362Y-112079502D01*
X146306274Y-112000350D01*
X146103416Y-111960000D01*
X145896584Y-111960000D01*
X145693726Y-112000350D01*
X145502638Y-112079502D01*
X145330664Y-112194411D01*
X145184411Y-112340664D01*
X145069502Y-112512638D01*
X145000000Y-112680429D01*
X144930498Y-112512638D01*
X144815589Y-112340664D01*
X144669336Y-112194411D01*
X144497362Y-112079502D01*
X144306274Y-112000350D01*
X144103416Y-111960000D01*
X143896584Y-111960000D01*
X143693726Y-112000350D01*
X143502638Y-112079502D01*
X143330664Y-112194411D01*
X143184411Y-112340664D01*
X143069502Y-112512638D01*
X142990350Y-112703726D01*
X142950000Y-112906584D01*
X142551209Y-112906584D01*
X142551209Y-112210000D01*
X142546382Y-112160992D01*
X142532087Y-112113866D01*
X142508873Y-112070436D01*
X142477632Y-112032368D01*
X142439564Y-112001127D01*
X142396134Y-111977913D01*
X142349008Y-111963618D01*
X142300000Y-111958791D01*
X140700000Y-111958791D01*
X140650992Y-111963618D01*
X140603866Y-111977913D01*
X140560436Y-112001127D01*
X140522368Y-112032368D01*
X140491127Y-112070436D01*
X140467913Y-112113866D01*
X140453618Y-112160992D01*
X140448791Y-112210000D01*
X138514239Y-112210000D01*
X138334200Y-112029962D01*
X138313843Y-112005157D01*
X138214868Y-111923930D01*
X138101948Y-111863573D01*
X137979422Y-111826405D01*
X137883932Y-111817000D01*
X137883921Y-111817000D01*
X137852000Y-111813856D01*
X137820079Y-111817000D01*
X135102239Y-111817000D01*
X133761220Y-110475981D01*
X136038500Y-110475981D01*
X136038500Y-110604019D01*
X136063479Y-110729598D01*
X136112478Y-110847890D01*
X136183612Y-110954351D01*
X136274149Y-111044888D01*
X136380610Y-111116022D01*
X136498902Y-111165021D01*
X136624481Y-111190000D01*
X136752519Y-111190000D01*
X136878098Y-111165021D01*
X136996390Y-111116022D01*
X137102851Y-111044888D01*
X137193388Y-110954351D01*
X137264522Y-110847890D01*
X137313521Y-110729598D01*
X137338500Y-110604019D01*
X137338500Y-110475981D01*
X137313521Y-110350402D01*
X137264522Y-110232110D01*
X137193388Y-110125649D01*
X137102851Y-110035112D01*
X136996390Y-109963978D01*
X136878098Y-109914979D01*
X136752519Y-109890000D01*
X136624481Y-109890000D01*
X136498902Y-109914979D01*
X136380610Y-109963978D01*
X136274149Y-110035112D01*
X136183612Y-110125649D01*
X136112478Y-110232110D01*
X136063479Y-110350402D01*
X136038500Y-110475981D01*
X133761220Y-110475981D01*
X130182198Y-106896960D01*
X130161843Y-106872157D01*
X130137038Y-106851800D01*
X129475094Y-106189856D01*
X129454737Y-106165051D01*
X129355762Y-106083824D01*
X129242842Y-106023467D01*
X129120316Y-105986299D01*
X129024826Y-105976894D01*
X129024815Y-105976894D01*
X128992894Y-105973750D01*
X128960973Y-105976894D01*
X128627076Y-105976894D01*
X128618000Y-105976000D01*
X127310000Y-105976000D01*
X127261229Y-105980803D01*
X127260000Y-105981176D01*
X127260000Y-105275815D01*
X127263144Y-105243894D01*
X127260000Y-105211973D01*
X127260000Y-104338332D01*
X130395502Y-104338332D01*
X130395502Y-104446672D01*
X130416638Y-104552931D01*
X130458099Y-104653025D01*
X130518289Y-104743106D01*
X130594898Y-104819715D01*
X130684979Y-104879905D01*
X130785073Y-104921366D01*
X130891332Y-104942502D01*
X130999672Y-104942502D01*
X131105931Y-104921366D01*
X131206025Y-104879905D01*
X131296106Y-104819715D01*
X131372715Y-104743106D01*
X131432905Y-104653025D01*
X131474366Y-104552931D01*
X131495502Y-104446672D01*
X131495502Y-104338332D01*
X131474366Y-104232073D01*
X131432905Y-104131979D01*
X131372715Y-104041898D01*
X131296106Y-103965289D01*
X131206025Y-103905099D01*
X131105931Y-103863638D01*
X130999672Y-103842502D01*
X130891332Y-103842502D01*
X130785073Y-103863638D01*
X130684979Y-103905099D01*
X130594898Y-103965289D01*
X130518289Y-104041898D01*
X130458099Y-104131979D01*
X130416638Y-104232073D01*
X130395502Y-104338332D01*
X127260000Y-104338332D01*
X127260000Y-103227000D01*
X153176791Y-103227000D01*
X153176791Y-105727000D01*
X153178000Y-105739275D01*
X153178000Y-109420579D01*
X153182804Y-109469351D01*
X153197030Y-109516250D01*
X153226319Y-109586960D01*
X153249422Y-109630182D01*
X153280512Y-109668066D01*
X154096934Y-110484488D01*
X154134819Y-110515578D01*
X154178040Y-110538681D01*
X154248750Y-110567970D01*
X154295648Y-110582196D01*
X154344421Y-110587000D01*
X157956000Y-110587000D01*
X158004771Y-110582197D01*
X158051670Y-110567970D01*
X158122381Y-110538681D01*
X158165605Y-110515578D01*
X158203489Y-110484487D01*
X158234579Y-110446602D01*
X158257681Y-110403381D01*
X158286970Y-110332670D01*
X158301196Y-110285773D01*
X158306000Y-110237000D01*
X158306000Y-109660000D01*
X165548791Y-109660000D01*
X165548791Y-110860000D01*
X165558422Y-110957781D01*
X165586943Y-111051804D01*
X165633260Y-111138457D01*
X165695592Y-111214408D01*
X165771543Y-111276740D01*
X165858196Y-111323057D01*
X165952219Y-111351578D01*
X166050000Y-111361209D01*
X167550000Y-111361209D01*
X167647781Y-111351578D01*
X167741804Y-111323057D01*
X167828457Y-111276740D01*
X167904408Y-111214408D01*
X167966740Y-111138457D01*
X168013057Y-111051804D01*
X168041578Y-110957781D01*
X168051209Y-110860000D01*
X168051209Y-109660000D01*
X168041578Y-109562219D01*
X168013057Y-109468196D01*
X167966740Y-109381543D01*
X167904408Y-109305592D01*
X167828457Y-109243260D01*
X167741804Y-109196943D01*
X167647781Y-109168422D01*
X167550000Y-109158791D01*
X166050000Y-109158791D01*
X165952219Y-109168422D01*
X165858196Y-109196943D01*
X165771543Y-109243260D01*
X165695592Y-109305592D01*
X165633260Y-109381543D01*
X165586943Y-109468196D01*
X165558422Y-109562219D01*
X165548791Y-109660000D01*
X158306000Y-109660000D01*
X158306000Y-106655830D01*
X161558000Y-106655830D01*
X161558000Y-106764170D01*
X161579136Y-106870429D01*
X161620597Y-106970523D01*
X161680787Y-107060604D01*
X161757396Y-107137213D01*
X161847477Y-107197403D01*
X161877888Y-107210000D01*
X161847477Y-107222597D01*
X161757396Y-107282787D01*
X161680787Y-107359396D01*
X161620597Y-107449477D01*
X161579136Y-107549571D01*
X161558000Y-107655830D01*
X161558000Y-107764170D01*
X161579136Y-107870429D01*
X161620597Y-107970523D01*
X161680787Y-108060604D01*
X161757396Y-108137213D01*
X161847477Y-108197403D01*
X161947571Y-108238864D01*
X162053830Y-108260000D01*
X162162170Y-108260000D01*
X162268429Y-108238864D01*
X162368523Y-108197403D01*
X162458604Y-108137213D01*
X162535213Y-108060604D01*
X162595403Y-107970523D01*
X162608000Y-107940112D01*
X162620597Y-107970523D01*
X162680787Y-108060604D01*
X162757396Y-108137213D01*
X162847477Y-108197403D01*
X162877888Y-108210000D01*
X162847477Y-108222597D01*
X162757396Y-108282787D01*
X162680787Y-108359396D01*
X162620597Y-108449477D01*
X162579136Y-108549571D01*
X162558000Y-108655830D01*
X162558000Y-108764170D01*
X162579136Y-108870429D01*
X162620597Y-108970523D01*
X162680787Y-109060604D01*
X162757396Y-109137213D01*
X162847477Y-109197403D01*
X162947571Y-109238864D01*
X163053830Y-109260000D01*
X163162170Y-109260000D01*
X163268429Y-109238864D01*
X163368523Y-109197403D01*
X163458604Y-109137213D01*
X163535213Y-109060604D01*
X163595403Y-108970523D01*
X163608000Y-108940112D01*
X163620597Y-108970523D01*
X163680787Y-109060604D01*
X163757396Y-109137213D01*
X163847477Y-109197403D01*
X163947571Y-109238864D01*
X164053830Y-109260000D01*
X164162170Y-109260000D01*
X164268429Y-109238864D01*
X164368523Y-109197403D01*
X164458604Y-109137213D01*
X164535213Y-109060604D01*
X164595403Y-108970523D01*
X164636864Y-108870429D01*
X164658000Y-108764170D01*
X164658000Y-108655830D01*
X164636864Y-108549571D01*
X164595403Y-108449477D01*
X164535213Y-108359396D01*
X164458604Y-108282787D01*
X164368523Y-108222597D01*
X164338112Y-108210000D01*
X164368523Y-108197403D01*
X164458604Y-108137213D01*
X164535213Y-108060604D01*
X164595403Y-107970523D01*
X164636864Y-107870429D01*
X164658000Y-107764170D01*
X164658000Y-107655830D01*
X164636864Y-107549571D01*
X164595403Y-107449477D01*
X164535213Y-107359396D01*
X164458604Y-107282787D01*
X164368523Y-107222597D01*
X164338112Y-107210000D01*
X164368523Y-107197403D01*
X164458604Y-107137213D01*
X164535213Y-107060604D01*
X164595403Y-106970523D01*
X164636864Y-106870429D01*
X164658000Y-106764170D01*
X164658000Y-106655830D01*
X164636864Y-106549571D01*
X164595403Y-106449477D01*
X164535213Y-106359396D01*
X164458604Y-106282787D01*
X164368523Y-106222597D01*
X164338112Y-106210000D01*
X164368523Y-106197403D01*
X164458604Y-106137213D01*
X164535213Y-106060604D01*
X164595403Y-105970523D01*
X164636864Y-105870429D01*
X164658000Y-105764170D01*
X164658000Y-105655830D01*
X164636864Y-105549571D01*
X164595403Y-105449477D01*
X164535213Y-105359396D01*
X164458604Y-105282787D01*
X164368523Y-105222597D01*
X164338112Y-105210000D01*
X164368523Y-105197403D01*
X164458604Y-105137213D01*
X164535213Y-105060604D01*
X164595403Y-104970523D01*
X164636864Y-104870429D01*
X164658000Y-104764170D01*
X164658000Y-104655830D01*
X164636864Y-104549571D01*
X164595403Y-104449477D01*
X164535213Y-104359396D01*
X164458604Y-104282787D01*
X164368523Y-104222597D01*
X164268429Y-104181136D01*
X164162170Y-104160000D01*
X164053830Y-104160000D01*
X163947571Y-104181136D01*
X163847477Y-104222597D01*
X163757396Y-104282787D01*
X163680787Y-104359396D01*
X163620597Y-104449477D01*
X163608000Y-104479888D01*
X163595403Y-104449477D01*
X163535213Y-104359396D01*
X163458604Y-104282787D01*
X163368523Y-104222597D01*
X163268429Y-104181136D01*
X163162170Y-104160000D01*
X163053830Y-104160000D01*
X162947571Y-104181136D01*
X162847477Y-104222597D01*
X162757396Y-104282787D01*
X162680787Y-104359396D01*
X162620597Y-104449477D01*
X162579136Y-104549571D01*
X162558000Y-104655830D01*
X162558000Y-104764170D01*
X162579136Y-104870429D01*
X162620597Y-104970523D01*
X162680787Y-105060604D01*
X162757396Y-105137213D01*
X162847477Y-105197403D01*
X162877888Y-105210000D01*
X162847477Y-105222597D01*
X162757396Y-105282787D01*
X162680787Y-105359396D01*
X162620597Y-105449477D01*
X162579136Y-105549571D01*
X162558000Y-105655830D01*
X162558000Y-105764170D01*
X162579136Y-105870429D01*
X162620597Y-105970523D01*
X162680787Y-106060604D01*
X162757396Y-106137213D01*
X162847477Y-106197403D01*
X162877888Y-106210000D01*
X162847477Y-106222597D01*
X162757396Y-106282787D01*
X162680787Y-106359396D01*
X162620597Y-106449477D01*
X162608000Y-106479888D01*
X162595403Y-106449477D01*
X162535213Y-106359396D01*
X162458604Y-106282787D01*
X162368523Y-106222597D01*
X162268429Y-106181136D01*
X162162170Y-106160000D01*
X162053830Y-106160000D01*
X161947571Y-106181136D01*
X161847477Y-106222597D01*
X161757396Y-106282787D01*
X161680787Y-106359396D01*
X161620597Y-106449477D01*
X161579136Y-106549571D01*
X161558000Y-106655830D01*
X158306000Y-106655830D01*
X158306000Y-106625421D01*
X158301196Y-106576649D01*
X158286970Y-106529750D01*
X158257681Y-106459040D01*
X158234578Y-106415818D01*
X158203488Y-106377934D01*
X156979209Y-105153655D01*
X156979209Y-103227000D01*
X156974382Y-103177992D01*
X156960087Y-103130866D01*
X156936873Y-103087436D01*
X156905632Y-103049368D01*
X156867564Y-103018127D01*
X156824134Y-102994913D01*
X156777008Y-102980618D01*
X156728000Y-102975791D01*
X153428000Y-102975791D01*
X153378992Y-102980618D01*
X153331866Y-102994913D01*
X153288436Y-103018127D01*
X153250368Y-103049368D01*
X153219127Y-103087436D01*
X153195913Y-103130866D01*
X153181618Y-103177992D01*
X153176791Y-103227000D01*
X127260000Y-103227000D01*
X127260000Y-101419830D01*
X130395502Y-101419830D01*
X130395502Y-101528170D01*
X130416638Y-101634429D01*
X130458099Y-101734523D01*
X130518289Y-101824604D01*
X130594898Y-101901213D01*
X130684979Y-101961403D01*
X130785073Y-102002864D01*
X130891332Y-102024000D01*
X130999672Y-102024000D01*
X131105931Y-102002864D01*
X131206025Y-101961403D01*
X131296106Y-101901213D01*
X131372715Y-101824604D01*
X131432905Y-101734523D01*
X131474366Y-101634429D01*
X131495502Y-101528170D01*
X131495502Y-101419830D01*
X131474366Y-101313571D01*
X131432905Y-101213477D01*
X131372715Y-101123396D01*
X131296106Y-101046787D01*
X131206025Y-100986597D01*
X131105931Y-100945136D01*
X130999672Y-100924000D01*
X130891332Y-100924000D01*
X130785073Y-100945136D01*
X130684979Y-100986597D01*
X130594898Y-101046787D01*
X130518289Y-101123396D01*
X130458099Y-101213477D01*
X130416638Y-101313571D01*
X130395502Y-101419830D01*
X127260000Y-101419830D01*
X127260000Y-101009924D01*
X127263144Y-100978000D01*
X127260000Y-100946076D01*
X127260000Y-100946068D01*
X127252654Y-100871481D01*
X134858500Y-100871481D01*
X134858500Y-100999519D01*
X134883479Y-101125098D01*
X134932478Y-101243390D01*
X135003612Y-101349851D01*
X135094149Y-101440388D01*
X135200610Y-101511522D01*
X135318902Y-101560521D01*
X135444481Y-101585500D01*
X135572519Y-101585500D01*
X135698098Y-101560521D01*
X135750099Y-101538981D01*
X148258500Y-101538981D01*
X148258500Y-101667019D01*
X148283479Y-101792598D01*
X148332478Y-101910890D01*
X148403612Y-102017351D01*
X148494149Y-102107888D01*
X148600610Y-102179022D01*
X148718902Y-102228021D01*
X148844481Y-102253000D01*
X148972519Y-102253000D01*
X149098098Y-102228021D01*
X149216390Y-102179022D01*
X149322851Y-102107888D01*
X149413388Y-102017351D01*
X149484522Y-101910890D01*
X149533521Y-101792598D01*
X149558500Y-101667019D01*
X149558500Y-101538981D01*
X149533521Y-101413402D01*
X149484522Y-101295110D01*
X149413388Y-101188649D01*
X149322851Y-101098112D01*
X149216390Y-101026978D01*
X149098098Y-100977979D01*
X148972519Y-100953000D01*
X148844481Y-100953000D01*
X148718902Y-100977979D01*
X148600610Y-101026978D01*
X148494149Y-101098112D01*
X148403612Y-101188649D01*
X148332478Y-101295110D01*
X148283479Y-101413402D01*
X148258500Y-101538981D01*
X135750099Y-101538981D01*
X135816390Y-101511522D01*
X135922851Y-101440388D01*
X136013388Y-101349851D01*
X136084522Y-101243390D01*
X136133521Y-101125098D01*
X136158500Y-100999519D01*
X136158500Y-100871481D01*
X136133521Y-100745902D01*
X136084522Y-100627610D01*
X136067064Y-100601481D01*
X152439000Y-100601481D01*
X152439000Y-100729519D01*
X152463979Y-100855098D01*
X152512978Y-100973390D01*
X152584112Y-101079851D01*
X152674649Y-101170388D01*
X152781110Y-101241522D01*
X152899402Y-101290521D01*
X153024981Y-101315500D01*
X153153019Y-101315500D01*
X153278598Y-101290521D01*
X153396890Y-101241522D01*
X153503351Y-101170388D01*
X153593888Y-101079851D01*
X153665022Y-100973390D01*
X153714021Y-100855098D01*
X153739000Y-100729519D01*
X153739000Y-100601481D01*
X153714021Y-100475902D01*
X153665022Y-100357610D01*
X153593888Y-100251149D01*
X153503351Y-100160612D01*
X153396890Y-100089478D01*
X153278598Y-100040479D01*
X153153019Y-100015500D01*
X153024981Y-100015500D01*
X152899402Y-100040479D01*
X152781110Y-100089478D01*
X152674649Y-100160612D01*
X152584112Y-100251149D01*
X152512978Y-100357610D01*
X152463979Y-100475902D01*
X152439000Y-100601481D01*
X136067064Y-100601481D01*
X136013388Y-100521149D01*
X135922851Y-100430612D01*
X135816390Y-100359478D01*
X135698098Y-100310479D01*
X135572519Y-100285500D01*
X135444481Y-100285500D01*
X135318902Y-100310479D01*
X135200610Y-100359478D01*
X135094149Y-100430612D01*
X135003612Y-100521149D01*
X134932478Y-100627610D01*
X134883479Y-100745902D01*
X134858500Y-100871481D01*
X127252654Y-100871481D01*
X127250595Y-100850578D01*
X127213427Y-100728052D01*
X127153070Y-100615132D01*
X127071843Y-100516157D01*
X127047038Y-100495800D01*
X125306219Y-98754981D01*
X130377500Y-98754981D01*
X130377500Y-98883019D01*
X130402479Y-99008598D01*
X130451478Y-99126890D01*
X130522612Y-99233351D01*
X130613149Y-99323888D01*
X130719610Y-99395022D01*
X130837902Y-99444021D01*
X130963481Y-99469000D01*
X131091519Y-99469000D01*
X131217098Y-99444021D01*
X131335390Y-99395022D01*
X131441851Y-99323888D01*
X131532388Y-99233351D01*
X131603522Y-99126890D01*
X131652521Y-99008598D01*
X131677500Y-98883019D01*
X131677500Y-98754981D01*
X131652521Y-98629402D01*
X131603522Y-98511110D01*
X131532388Y-98404649D01*
X131441851Y-98314112D01*
X131335390Y-98242978D01*
X131217098Y-98193979D01*
X131091519Y-98169000D01*
X130963481Y-98169000D01*
X130837902Y-98193979D01*
X130719610Y-98242978D01*
X130613149Y-98314112D01*
X130522612Y-98404649D01*
X130451478Y-98511110D01*
X130402479Y-98629402D01*
X130377500Y-98754981D01*
X125306219Y-98754981D01*
X124765000Y-98213762D01*
X124765000Y-95420238D01*
X125027543Y-95157696D01*
X125052343Y-95137343D01*
X125072696Y-95112543D01*
X125095388Y-95089851D01*
X125113214Y-95063171D01*
X125133570Y-95038368D01*
X125148697Y-95010067D01*
X125166522Y-94983390D01*
X125178800Y-94953748D01*
X125193927Y-94925448D01*
X125203241Y-94894744D01*
X125215521Y-94865098D01*
X125221781Y-94833625D01*
X125231095Y-94802922D01*
X125231224Y-94801611D01*
X125234240Y-94770990D01*
X125240500Y-94739519D01*
X125240500Y-94707432D01*
X125243645Y-94675500D01*
X125240500Y-94643568D01*
X125240500Y-94611481D01*
X125234240Y-94580010D01*
X125231095Y-94548078D01*
X125221781Y-94517375D01*
X125215521Y-94485902D01*
X125203241Y-94456256D01*
X125193927Y-94425552D01*
X125178800Y-94397252D01*
X125166522Y-94367610D01*
X125148697Y-94340933D01*
X125133570Y-94312632D01*
X125113215Y-94287830D01*
X125095388Y-94261149D01*
X125072696Y-94238457D01*
X125052343Y-94213657D01*
X125027543Y-94193304D01*
X125004851Y-94170612D01*
X124978170Y-94152785D01*
X124953368Y-94132430D01*
X124925067Y-94117303D01*
X124898390Y-94099478D01*
X124868748Y-94087200D01*
X124840448Y-94072073D01*
X124809744Y-94062759D01*
X124780098Y-94050479D01*
X124748625Y-94044219D01*
X124717922Y-94034905D01*
X124685990Y-94031760D01*
X124654519Y-94025500D01*
X124622424Y-94025500D01*
X124590500Y-94022356D01*
X124558576Y-94025500D01*
X123671421Y-94025500D01*
X123639500Y-94022356D01*
X123607579Y-94025500D01*
X123575481Y-94025500D01*
X123544010Y-94031760D01*
X123512078Y-94034905D01*
X123481375Y-94044219D01*
X123449902Y-94050479D01*
X123420256Y-94062759D01*
X123389552Y-94072073D01*
X123361252Y-94087200D01*
X123331610Y-94099478D01*
X123304933Y-94117303D01*
X123276632Y-94132430D01*
X123251830Y-94152785D01*
X123225149Y-94170612D01*
X123202457Y-94193304D01*
X123177657Y-94213657D01*
X123157304Y-94238457D01*
X123134612Y-94261149D01*
X123116785Y-94287830D01*
X123096430Y-94312632D01*
X123081303Y-94340933D01*
X123063478Y-94367610D01*
X123051200Y-94397252D01*
X123036073Y-94425552D01*
X123026759Y-94456256D01*
X123014479Y-94485902D01*
X123008219Y-94517375D01*
X122998905Y-94548078D01*
X122995760Y-94580010D01*
X122989500Y-94611481D01*
X122989500Y-94643568D01*
X122986355Y-94675500D01*
X122989500Y-94707432D01*
X122989500Y-94739519D01*
X122995760Y-94770990D01*
X122998905Y-94802922D01*
X123008219Y-94833625D01*
X123014479Y-94865098D01*
X123026759Y-94894744D01*
X123036073Y-94925448D01*
X123051200Y-94953748D01*
X123063478Y-94983390D01*
X123081303Y-95010067D01*
X123096430Y-95038368D01*
X123116785Y-95063170D01*
X123134612Y-95089851D01*
X123157304Y-95112543D01*
X123177657Y-95137343D01*
X123202457Y-95157696D01*
X123225149Y-95180388D01*
X123225152Y-95180390D01*
X123465001Y-95420240D01*
X123465000Y-98451078D01*
X123461856Y-98483000D01*
X123465000Y-98514921D01*
X123465000Y-98514931D01*
X123474405Y-98610421D01*
X123480163Y-98629402D01*
X123511573Y-98732947D01*
X123571930Y-98845868D01*
X123622369Y-98907328D01*
X123653157Y-98944843D01*
X123677962Y-98965200D01*
X125960001Y-101247239D01*
X125960001Y-101982909D01*
X125830830Y-101671064D01*
X125639314Y-101384440D01*
X125395560Y-101140686D01*
X125108936Y-100949170D01*
X124790456Y-100817251D01*
X124452360Y-100750000D01*
X124107640Y-100750000D01*
X123769544Y-100817251D01*
X123451064Y-100949170D01*
X123164440Y-101140686D01*
X122920686Y-101384440D01*
X122729170Y-101671064D01*
X122597251Y-101989544D01*
X122573291Y-102110000D01*
X121450000Y-102110000D01*
X121450000Y-93896584D01*
X125940000Y-93896584D01*
X125940000Y-94103416D01*
X125980350Y-94306274D01*
X126059502Y-94497362D01*
X126174411Y-94669336D01*
X126320664Y-94815589D01*
X126492638Y-94930498D01*
X126660429Y-95000000D01*
X126492638Y-95069502D01*
X126320664Y-95184411D01*
X126174411Y-95330664D01*
X126059502Y-95502638D01*
X125980350Y-95693726D01*
X125940000Y-95896584D01*
X125940000Y-96103416D01*
X125980350Y-96306274D01*
X126059502Y-96497362D01*
X126174411Y-96669336D01*
X126320664Y-96815589D01*
X126492638Y-96930498D01*
X126683726Y-97009650D01*
X126886584Y-97050000D01*
X127093416Y-97050000D01*
X127296274Y-97009650D01*
X127487362Y-96930498D01*
X127659336Y-96815589D01*
X127805589Y-96669336D01*
X127920498Y-96497362D01*
X127999650Y-96306274D01*
X128040000Y-96103416D01*
X128040000Y-95896584D01*
X127999650Y-95693726D01*
X127920498Y-95502638D01*
X127805589Y-95330664D01*
X127659336Y-95184411D01*
X127487362Y-95069502D01*
X127319571Y-95000000D01*
X127487362Y-94930498D01*
X127659336Y-94815589D01*
X127805589Y-94669336D01*
X127920498Y-94497362D01*
X127999650Y-94306274D01*
X128040000Y-94103416D01*
X128040000Y-93896584D01*
X127999650Y-93693726D01*
X127920498Y-93502638D01*
X127805589Y-93330664D01*
X127659336Y-93184411D01*
X127487362Y-93069502D01*
X127296274Y-92990350D01*
X127093416Y-92950000D01*
X126886584Y-92950000D01*
X126683726Y-92990350D01*
X126492638Y-93069502D01*
X126320664Y-93184411D01*
X126174411Y-93330664D01*
X126059502Y-93502638D01*
X125980350Y-93693726D01*
X125940000Y-93896584D01*
X121450000Y-93896584D01*
X121450000Y-90700000D01*
X125938791Y-90700000D01*
X125938791Y-92300000D01*
X125943618Y-92349008D01*
X125957913Y-92396134D01*
X125981127Y-92439564D01*
X126012368Y-92477632D01*
X126050436Y-92508873D01*
X126093866Y-92532087D01*
X126140992Y-92546382D01*
X126190000Y-92551209D01*
X127790000Y-92551209D01*
X127839008Y-92546382D01*
X127886134Y-92532087D01*
X127929564Y-92508873D01*
X127967632Y-92477632D01*
X127998873Y-92439564D01*
X128022087Y-92396134D01*
X128036382Y-92349008D01*
X128041209Y-92300000D01*
X128041209Y-90700000D01*
X128036382Y-90650992D01*
X128022087Y-90603866D01*
X127998873Y-90560436D01*
X127967632Y-90522368D01*
X127929564Y-90491127D01*
X127886134Y-90467913D01*
X127839008Y-90453618D01*
X127790000Y-90448791D01*
X126190000Y-90448791D01*
X126140992Y-90453618D01*
X126093866Y-90467913D01*
X126050436Y-90491127D01*
X126012368Y-90522368D01*
X125981127Y-90560436D01*
X125957913Y-90603866D01*
X125943618Y-90650992D01*
X125938791Y-90700000D01*
X121450000Y-90700000D01*
X121450000Y-87890000D01*
X122573291Y-87890000D01*
X122597251Y-88010456D01*
X122729170Y-88328936D01*
X122920686Y-88615560D01*
X123164440Y-88859314D01*
X123451064Y-89050830D01*
X123769544Y-89182749D01*
X124107640Y-89250000D01*
X124452360Y-89250000D01*
X124790456Y-89182749D01*
X125108936Y-89050830D01*
X125395560Y-88859314D01*
X125639314Y-88615560D01*
X125830830Y-88328936D01*
X125962749Y-88010456D01*
X126030000Y-87672360D01*
X126030000Y-87327640D01*
X125962749Y-86989544D01*
X125830830Y-86671064D01*
X125639314Y-86384440D01*
X125395560Y-86140686D01*
X125108936Y-85949170D01*
X124790456Y-85817251D01*
X124452360Y-85750000D01*
X124107640Y-85750000D01*
X123769544Y-85817251D01*
X123451064Y-85949170D01*
X123164440Y-86140686D01*
X122920686Y-86384440D01*
X122729170Y-86671064D01*
X122597251Y-86989544D01*
X122573291Y-87110000D01*
X121450000Y-87110000D01*
X121450000Y-84070000D01*
X126930678Y-84070000D01*
X126951916Y-84285638D01*
X127014816Y-84492988D01*
X127116958Y-84684084D01*
X127254419Y-84851581D01*
X127421916Y-84989042D01*
X127613012Y-85091184D01*
X127686000Y-85113325D01*
X127686000Y-85762034D01*
X127684307Y-85779222D01*
X127686000Y-85796410D01*
X127691065Y-85847833D01*
X127711078Y-85913808D01*
X127743578Y-85974611D01*
X127787315Y-86027906D01*
X127800676Y-86038871D01*
X139397135Y-97635332D01*
X139408094Y-97648686D01*
X139461389Y-97692423D01*
X139522192Y-97724923D01*
X139588167Y-97744936D01*
X139639590Y-97750001D01*
X139639592Y-97750001D01*
X139656778Y-97751694D01*
X139673964Y-97750001D01*
X147039515Y-97750001D01*
X148404142Y-99114629D01*
X148404000Y-99115343D01*
X148404000Y-99223683D01*
X148425136Y-99329942D01*
X148466597Y-99430036D01*
X148526787Y-99520117D01*
X148603396Y-99596726D01*
X148693477Y-99656916D01*
X148793571Y-99698377D01*
X148899830Y-99719513D01*
X149008170Y-99719513D01*
X149114429Y-99698377D01*
X149214523Y-99656916D01*
X149304604Y-99596726D01*
X149381213Y-99520117D01*
X149441403Y-99430036D01*
X149482864Y-99329942D01*
X149504000Y-99223683D01*
X149504000Y-99115343D01*
X149482864Y-99009084D01*
X149441403Y-98908990D01*
X149381213Y-98818909D01*
X149304604Y-98742300D01*
X149214523Y-98682110D01*
X149114429Y-98640649D01*
X149008170Y-98619513D01*
X148899830Y-98619513D01*
X148899116Y-98619655D01*
X147725442Y-97445981D01*
X149009213Y-97445981D01*
X149009213Y-97574019D01*
X149034192Y-97699598D01*
X149083191Y-97817890D01*
X149154325Y-97924351D01*
X149244862Y-98014888D01*
X149351323Y-98086022D01*
X149469615Y-98135021D01*
X149595194Y-98160000D01*
X149723232Y-98160000D01*
X149848811Y-98135021D01*
X149967103Y-98086022D01*
X150073564Y-98014888D01*
X150164101Y-97924351D01*
X150235235Y-97817890D01*
X150284234Y-97699598D01*
X150309213Y-97574019D01*
X150309213Y-97445981D01*
X150291709Y-97357981D01*
X151699000Y-97357981D01*
X151699000Y-97486019D01*
X151723979Y-97611598D01*
X151772978Y-97729890D01*
X151844112Y-97836351D01*
X151934649Y-97926888D01*
X152041110Y-97998022D01*
X152159402Y-98047021D01*
X152284981Y-98072000D01*
X152413019Y-98072000D01*
X152538598Y-98047021D01*
X152656890Y-97998022D01*
X152763351Y-97926888D01*
X152853888Y-97836351D01*
X152925022Y-97729890D01*
X152974021Y-97611598D01*
X152999000Y-97486019D01*
X152999000Y-97357981D01*
X152974021Y-97232402D01*
X152925022Y-97114110D01*
X152853888Y-97007649D01*
X152763351Y-96917112D01*
X152656890Y-96845978D01*
X152538598Y-96796979D01*
X152413019Y-96772000D01*
X152284981Y-96772000D01*
X152159402Y-96796979D01*
X152041110Y-96845978D01*
X151934649Y-96917112D01*
X151844112Y-97007649D01*
X151772978Y-97114110D01*
X151723979Y-97232402D01*
X151699000Y-97357981D01*
X150291709Y-97357981D01*
X150284234Y-97320402D01*
X150235235Y-97202110D01*
X150164101Y-97095649D01*
X150073564Y-97005112D01*
X149967103Y-96933978D01*
X149848811Y-96884979D01*
X149723232Y-96860000D01*
X149595194Y-96860000D01*
X149469615Y-96884979D01*
X149351323Y-96933978D01*
X149244862Y-97005112D01*
X149154325Y-97095649D01*
X149083191Y-97202110D01*
X149034192Y-97320402D01*
X149009213Y-97445981D01*
X147725442Y-97445981D01*
X147444142Y-97164681D01*
X147433173Y-97151316D01*
X147379878Y-97107579D01*
X147319075Y-97075079D01*
X147253100Y-97055066D01*
X147201677Y-97050001D01*
X147201676Y-97050001D01*
X147184488Y-97048308D01*
X147167300Y-97050001D01*
X139801754Y-97050001D01*
X137755250Y-95003498D01*
X137840598Y-94986521D01*
X137958890Y-94937522D01*
X138065351Y-94866388D01*
X138155888Y-94775851D01*
X138227022Y-94669390D01*
X138276021Y-94551098D01*
X138301000Y-94425519D01*
X138301000Y-94297481D01*
X138276021Y-94171902D01*
X138265226Y-94145840D01*
X139603000Y-94145840D01*
X139603000Y-94254180D01*
X139624136Y-94360439D01*
X139665597Y-94460533D01*
X139725787Y-94550614D01*
X139802396Y-94627223D01*
X139892477Y-94687413D01*
X139898620Y-94689958D01*
X139895597Y-94694482D01*
X139854136Y-94794576D01*
X139833000Y-94900835D01*
X139833000Y-95009175D01*
X139854136Y-95115434D01*
X139895597Y-95215528D01*
X139955787Y-95305609D01*
X140032396Y-95382218D01*
X140122477Y-95442408D01*
X140222571Y-95483869D01*
X140328830Y-95505005D01*
X140437170Y-95505005D01*
X140543429Y-95483869D01*
X140643523Y-95442408D01*
X140733604Y-95382218D01*
X140810213Y-95305609D01*
X140870403Y-95215528D01*
X140911864Y-95115434D01*
X140933000Y-95009175D01*
X140933000Y-94900835D01*
X140911864Y-94794576D01*
X140870403Y-94694482D01*
X140810213Y-94604401D01*
X140733604Y-94527792D01*
X140643523Y-94467602D01*
X140637380Y-94465057D01*
X140640403Y-94460533D01*
X140681864Y-94360439D01*
X140703000Y-94254180D01*
X140703000Y-94145840D01*
X140681864Y-94039581D01*
X140640403Y-93939487D01*
X140580213Y-93849406D01*
X140503604Y-93772797D01*
X140413523Y-93712607D01*
X140313429Y-93671146D01*
X140207170Y-93650010D01*
X140098830Y-93650010D01*
X139992571Y-93671146D01*
X139892477Y-93712607D01*
X139802396Y-93772797D01*
X139725787Y-93849406D01*
X139665597Y-93939487D01*
X139624136Y-94039581D01*
X139603000Y-94145840D01*
X138265226Y-94145840D01*
X138227022Y-94053610D01*
X138155888Y-93947149D01*
X138065351Y-93856612D01*
X137958890Y-93785478D01*
X137840598Y-93736479D01*
X137715019Y-93711500D01*
X137586981Y-93711500D01*
X137461402Y-93736479D01*
X137343110Y-93785478D01*
X137236649Y-93856612D01*
X137146112Y-93947149D01*
X137074978Y-94053610D01*
X137025979Y-94171902D01*
X137009002Y-94257250D01*
X130212752Y-87461000D01*
X134880221Y-87461000D01*
X134880221Y-89261000D01*
X134885048Y-89310008D01*
X134899343Y-89357134D01*
X134922557Y-89400564D01*
X134953798Y-89438632D01*
X134991866Y-89469873D01*
X135035296Y-89493087D01*
X135082422Y-89507382D01*
X135131430Y-89512209D01*
X135284781Y-89512209D01*
X135286495Y-89529611D01*
X135301377Y-89578668D01*
X135306509Y-89595587D01*
X135339009Y-89656390D01*
X135382746Y-89709685D01*
X135396106Y-89720649D01*
X136335070Y-90659615D01*
X136346030Y-90672970D01*
X136399245Y-90716641D01*
X136399325Y-90716707D01*
X136460128Y-90749207D01*
X136526103Y-90769220D01*
X136594715Y-90775978D01*
X136611904Y-90774285D01*
X139145312Y-90774285D01*
X141206354Y-92835329D01*
X141217314Y-92848684D01*
X141270609Y-92892421D01*
X141331412Y-92924921D01*
X141397387Y-92944934D01*
X141448810Y-92949999D01*
X141448812Y-92949999D01*
X141465998Y-92951692D01*
X141483184Y-92949999D01*
X146919027Y-92949999D01*
X147050001Y-93080974D01*
X147050002Y-93462803D01*
X147048308Y-93480001D01*
X147055066Y-93548612D01*
X147075080Y-93614588D01*
X147107580Y-93675391D01*
X147151317Y-93728686D01*
X147164677Y-93739650D01*
X148303000Y-94877975D01*
X148303000Y-95068212D01*
X148301307Y-95085400D01*
X148303000Y-95102588D01*
X148303000Y-95102589D01*
X148308065Y-95154012D01*
X148328079Y-95219987D01*
X148360579Y-95280790D01*
X148404316Y-95334085D01*
X148417676Y-95345049D01*
X148998942Y-95926316D01*
X148998800Y-95927030D01*
X148998800Y-96035370D01*
X149019936Y-96141629D01*
X149061397Y-96241723D01*
X149121587Y-96331804D01*
X149198196Y-96408413D01*
X149288277Y-96468603D01*
X149388371Y-96510064D01*
X149494630Y-96531200D01*
X149602970Y-96531200D01*
X149709229Y-96510064D01*
X149809323Y-96468603D01*
X149871586Y-96427000D01*
X153176791Y-96427000D01*
X153176791Y-98927000D01*
X153181618Y-98976008D01*
X153195913Y-99023134D01*
X153219127Y-99066564D01*
X153250368Y-99104632D01*
X153288436Y-99135873D01*
X153331866Y-99159087D01*
X153378992Y-99173382D01*
X153428000Y-99178209D01*
X156728000Y-99178209D01*
X156777008Y-99173382D01*
X156824134Y-99159087D01*
X156867564Y-99135873D01*
X156905632Y-99104632D01*
X156936873Y-99066564D01*
X156960087Y-99023134D01*
X156974382Y-98976008D01*
X156979209Y-98927000D01*
X156979209Y-97122746D01*
X156981787Y-97126604D01*
X157058396Y-97203213D01*
X157148477Y-97263403D01*
X157248571Y-97304864D01*
X157354830Y-97326000D01*
X157463170Y-97326000D01*
X157569429Y-97304864D01*
X157669523Y-97263403D01*
X157759604Y-97203213D01*
X157836213Y-97126604D01*
X157896403Y-97036523D01*
X157937864Y-96936429D01*
X157959000Y-96830170D01*
X157959000Y-96721830D01*
X157937864Y-96615571D01*
X157896403Y-96515477D01*
X157836213Y-96425396D01*
X157759604Y-96348787D01*
X157669523Y-96288597D01*
X157569429Y-96247136D01*
X157463170Y-96226000D01*
X157354830Y-96226000D01*
X157264608Y-96243946D01*
X157366895Y-96141659D01*
X159910000Y-96141659D01*
X159910000Y-96358341D01*
X159952273Y-96570858D01*
X160035193Y-96771045D01*
X160155575Y-96951209D01*
X160308791Y-97104425D01*
X160488955Y-97224807D01*
X160689142Y-97307727D01*
X160901659Y-97350000D01*
X161118341Y-97350000D01*
X161330858Y-97307727D01*
X161531045Y-97224807D01*
X161711209Y-97104425D01*
X161864425Y-96951209D01*
X161984807Y-96771045D01*
X162010000Y-96710224D01*
X162035193Y-96771045D01*
X162155575Y-96951209D01*
X162308791Y-97104425D01*
X162488955Y-97224807D01*
X162689142Y-97307727D01*
X162901659Y-97350000D01*
X163118341Y-97350000D01*
X163330858Y-97307727D01*
X163531045Y-97224807D01*
X163711209Y-97104425D01*
X163864425Y-96951209D01*
X163984807Y-96771045D01*
X164067727Y-96570858D01*
X164110000Y-96358341D01*
X164110000Y-96141659D01*
X164067727Y-95929142D01*
X163984807Y-95728955D01*
X163864425Y-95548791D01*
X163711209Y-95395575D01*
X163531045Y-95275193D01*
X163330858Y-95192273D01*
X163118341Y-95150000D01*
X162901659Y-95150000D01*
X162689142Y-95192273D01*
X162488955Y-95275193D01*
X162308791Y-95395575D01*
X162155575Y-95548791D01*
X162035193Y-95728955D01*
X162010000Y-95789776D01*
X161984807Y-95728955D01*
X161864425Y-95548791D01*
X161711209Y-95395575D01*
X161531045Y-95275193D01*
X161330858Y-95192273D01*
X161118341Y-95150000D01*
X160901659Y-95150000D01*
X160689142Y-95192273D01*
X160488955Y-95275193D01*
X160308791Y-95395575D01*
X160155575Y-95548791D01*
X160035193Y-95728955D01*
X159952273Y-95929142D01*
X159910000Y-96141659D01*
X157366895Y-96141659D01*
X158658554Y-94850000D01*
X160147725Y-94850000D01*
X160160000Y-94851209D01*
X161860000Y-94851209D01*
X161909008Y-94846382D01*
X161956134Y-94832087D01*
X161999564Y-94808873D01*
X162037632Y-94777632D01*
X162068873Y-94739564D01*
X162092087Y-94696134D01*
X162106382Y-94649008D01*
X162111209Y-94600000D01*
X162111209Y-92900000D01*
X162106382Y-92850992D01*
X162092087Y-92803866D01*
X162068873Y-92760436D01*
X162037632Y-92722368D01*
X161999564Y-92691127D01*
X161956134Y-92667913D01*
X161909008Y-92653618D01*
X161860000Y-92648791D01*
X160160000Y-92648791D01*
X160147725Y-92650000D01*
X156996421Y-92650000D01*
X156947649Y-92654804D01*
X156900750Y-92669030D01*
X156830040Y-92698319D01*
X156786818Y-92721422D01*
X156748934Y-92752512D01*
X153280512Y-96220934D01*
X153271223Y-96232253D01*
X153250368Y-96249368D01*
X153219127Y-96287436D01*
X153195913Y-96330866D01*
X153181618Y-96377992D01*
X153176791Y-96427000D01*
X149871586Y-96427000D01*
X149899404Y-96408413D01*
X149976013Y-96331804D01*
X150036203Y-96241723D01*
X150077664Y-96141629D01*
X150098800Y-96035370D01*
X150098800Y-95927030D01*
X150077664Y-95820771D01*
X150036203Y-95720677D01*
X149976013Y-95630596D01*
X149899404Y-95553987D01*
X149809323Y-95493797D01*
X149709229Y-95452336D01*
X149602970Y-95431200D01*
X149494630Y-95431200D01*
X149493916Y-95431342D01*
X149438217Y-95375642D01*
X149530533Y-95337403D01*
X149620614Y-95277213D01*
X149697223Y-95200604D01*
X149757413Y-95110523D01*
X149798874Y-95010429D01*
X149820010Y-94904170D01*
X149820010Y-94795830D01*
X149798874Y-94689571D01*
X149757413Y-94589477D01*
X149697223Y-94499396D01*
X149620614Y-94422787D01*
X149530533Y-94362597D01*
X149430439Y-94321136D01*
X149324180Y-94300000D01*
X149215840Y-94300000D01*
X149215126Y-94300142D01*
X148100009Y-93185026D01*
X148100009Y-92808208D01*
X148101702Y-92791019D01*
X148094944Y-92722407D01*
X148084299Y-92687315D01*
X148074931Y-92656432D01*
X148042431Y-92595629D01*
X147998693Y-92542334D01*
X147985338Y-92531374D01*
X147468632Y-92014669D01*
X147457664Y-92001304D01*
X147404369Y-91957567D01*
X147343566Y-91925067D01*
X147295482Y-91910481D01*
X150952000Y-91910481D01*
X150952000Y-92038519D01*
X150976979Y-92164098D01*
X151025978Y-92282390D01*
X151097112Y-92388851D01*
X151187649Y-92479388D01*
X151294110Y-92550522D01*
X151412402Y-92599521D01*
X151537981Y-92624500D01*
X151666019Y-92624500D01*
X151791598Y-92599521D01*
X151909890Y-92550522D01*
X152016351Y-92479388D01*
X152106888Y-92388851D01*
X152178022Y-92282390D01*
X152227021Y-92164098D01*
X152252000Y-92038519D01*
X152252000Y-91910481D01*
X152227021Y-91784902D01*
X152178022Y-91666610D01*
X152106888Y-91560149D01*
X152016351Y-91469612D01*
X151909890Y-91398478D01*
X151791598Y-91349479D01*
X151666019Y-91324500D01*
X151537981Y-91324500D01*
X151412402Y-91349479D01*
X151294110Y-91398478D01*
X151187649Y-91469612D01*
X151097112Y-91560149D01*
X151025978Y-91666610D01*
X150976979Y-91784902D01*
X150952000Y-91910481D01*
X147295482Y-91910481D01*
X147277591Y-91905054D01*
X147226168Y-91899989D01*
X147226167Y-91899989D01*
X147208979Y-91898296D01*
X147191791Y-91899989D01*
X141765393Y-91899989D01*
X138882639Y-89017237D01*
X138882639Y-87461000D01*
X139880221Y-87461000D01*
X139880221Y-89261000D01*
X139885048Y-89310008D01*
X139899343Y-89357134D01*
X139922557Y-89400564D01*
X139953798Y-89438632D01*
X139991866Y-89469873D01*
X140035296Y-89493087D01*
X140082422Y-89507382D01*
X140131430Y-89512209D01*
X141131430Y-89512209D01*
X141180438Y-89507382D01*
X141227564Y-89493087D01*
X141270994Y-89469873D01*
X141309062Y-89438632D01*
X141340303Y-89400564D01*
X141363517Y-89357134D01*
X141377812Y-89310008D01*
X141382639Y-89261000D01*
X141382639Y-88923803D01*
X141388821Y-88926364D01*
X141495080Y-88947500D01*
X141603420Y-88947500D01*
X141709679Y-88926364D01*
X141809773Y-88884903D01*
X141899854Y-88824713D01*
X141976463Y-88748104D01*
X142031430Y-88665840D01*
X142031430Y-89550227D01*
X141674516Y-89907142D01*
X141673802Y-89907000D01*
X141565462Y-89907000D01*
X141459203Y-89928136D01*
X141359109Y-89969597D01*
X141269028Y-90029787D01*
X141192419Y-90106396D01*
X141132229Y-90196477D01*
X141090768Y-90296571D01*
X141069632Y-90402830D01*
X141069632Y-90511170D01*
X141090768Y-90617429D01*
X141132229Y-90717523D01*
X141192419Y-90807604D01*
X141269028Y-90884213D01*
X141359109Y-90944403D01*
X141459203Y-90985864D01*
X141565462Y-91007000D01*
X141673802Y-91007000D01*
X141780061Y-90985864D01*
X141880155Y-90944403D01*
X141970236Y-90884213D01*
X142046816Y-90807633D01*
X142123396Y-90884213D01*
X142213477Y-90944403D01*
X142313571Y-90985864D01*
X142419830Y-91007000D01*
X142528170Y-91007000D01*
X142634429Y-90985864D01*
X142734523Y-90944403D01*
X142824604Y-90884213D01*
X142901213Y-90807604D01*
X142961403Y-90717523D01*
X143002864Y-90617429D01*
X143024000Y-90511170D01*
X143024000Y-90402830D01*
X143023858Y-90402116D01*
X143261975Y-90164000D01*
X143602812Y-90164000D01*
X143620000Y-90165693D01*
X143637188Y-90164000D01*
X143637189Y-90164000D01*
X143688612Y-90158935D01*
X143754587Y-90138922D01*
X143815390Y-90106422D01*
X143868685Y-90062685D01*
X143879653Y-90049320D01*
X144176001Y-89752973D01*
X144176000Y-90029383D01*
X144175396Y-90029787D01*
X144098787Y-90106396D01*
X144038597Y-90196477D01*
X143997136Y-90296571D01*
X143976000Y-90402830D01*
X143976000Y-90511170D01*
X143997136Y-90617429D01*
X144038597Y-90717523D01*
X144098787Y-90807604D01*
X144175396Y-90884213D01*
X144265477Y-90944403D01*
X144365571Y-90985864D01*
X144471830Y-91007000D01*
X144580170Y-91007000D01*
X144686429Y-90985864D01*
X144786523Y-90944403D01*
X144876604Y-90884213D01*
X144953213Y-90807604D01*
X144963078Y-90792840D01*
X144982487Y-90890419D01*
X145023948Y-90990513D01*
X145084138Y-91080594D01*
X145160747Y-91157203D01*
X145250828Y-91217393D01*
X145350922Y-91258854D01*
X145457181Y-91279990D01*
X145565521Y-91279990D01*
X145671780Y-91258854D01*
X145771874Y-91217393D01*
X145861955Y-91157203D01*
X145938564Y-91080594D01*
X145938968Y-91079990D01*
X146276822Y-91079990D01*
X146294010Y-91081683D01*
X146311198Y-91079990D01*
X146311199Y-91079990D01*
X146362622Y-91074925D01*
X146428597Y-91054912D01*
X146489400Y-91022412D01*
X146542695Y-90978675D01*
X146553663Y-90965310D01*
X147029049Y-90489925D01*
X147114344Y-90404630D01*
X147127694Y-90393675D01*
X147158882Y-90355673D01*
X147171432Y-90340380D01*
X147203932Y-90279577D01*
X147223945Y-90213602D01*
X147230703Y-90144990D01*
X147229010Y-90127801D01*
X147229010Y-87461000D01*
X147380221Y-87461000D01*
X147380221Y-89261000D01*
X147385048Y-89310008D01*
X147399343Y-89357134D01*
X147422557Y-89400564D01*
X147453798Y-89438632D01*
X147491866Y-89469873D01*
X147535296Y-89493087D01*
X147582422Y-89507382D01*
X147615383Y-89510628D01*
X147602566Y-89541571D01*
X147581430Y-89647830D01*
X147581430Y-89756170D01*
X147602566Y-89862429D01*
X147644027Y-89962523D01*
X147704217Y-90052604D01*
X147780826Y-90129213D01*
X147870907Y-90189403D01*
X147971001Y-90230864D01*
X148077260Y-90252000D01*
X148185600Y-90252000D01*
X148291859Y-90230864D01*
X148391953Y-90189403D01*
X148482034Y-90129213D01*
X148558643Y-90052604D01*
X148618833Y-89962523D01*
X148620093Y-89959481D01*
X150952000Y-89959481D01*
X150952000Y-90087519D01*
X150976979Y-90213098D01*
X151025978Y-90331390D01*
X151097112Y-90437851D01*
X151187649Y-90528388D01*
X151294110Y-90599522D01*
X151412402Y-90648521D01*
X151537981Y-90673500D01*
X151666019Y-90673500D01*
X151791598Y-90648521D01*
X151909890Y-90599522D01*
X152016351Y-90528388D01*
X152106888Y-90437851D01*
X152178022Y-90331390D01*
X152227021Y-90213098D01*
X152252000Y-90087519D01*
X152252000Y-89959481D01*
X152227021Y-89833902D01*
X152178022Y-89715610D01*
X152106888Y-89609149D01*
X152016351Y-89518612D01*
X151909890Y-89447478D01*
X151791598Y-89398479D01*
X151666019Y-89373500D01*
X151537981Y-89373500D01*
X151412402Y-89398479D01*
X151294110Y-89447478D01*
X151187649Y-89518612D01*
X151097112Y-89609149D01*
X151025978Y-89715610D01*
X150976979Y-89833902D01*
X150952000Y-89959481D01*
X148620093Y-89959481D01*
X148660294Y-89862429D01*
X148681430Y-89756170D01*
X148681430Y-89647830D01*
X148660294Y-89541571D01*
X148647477Y-89510628D01*
X148680438Y-89507382D01*
X148727564Y-89493087D01*
X148770994Y-89469873D01*
X148809062Y-89438632D01*
X148840303Y-89400564D01*
X148863517Y-89357134D01*
X148877812Y-89310008D01*
X148882639Y-89261000D01*
X148882639Y-87461000D01*
X148877812Y-87411992D01*
X148863517Y-87364866D01*
X148840303Y-87321436D01*
X148809062Y-87283368D01*
X148770994Y-87252127D01*
X148727564Y-87228913D01*
X148680438Y-87214618D01*
X148631430Y-87209791D01*
X147631430Y-87209791D01*
X147582422Y-87214618D01*
X147535296Y-87228913D01*
X147491866Y-87252127D01*
X147453798Y-87283368D01*
X147422557Y-87321436D01*
X147399343Y-87364866D01*
X147385048Y-87411992D01*
X147380221Y-87461000D01*
X147229010Y-87461000D01*
X147229010Y-87081951D01*
X148468963Y-85841999D01*
X149991615Y-85841999D01*
X149963478Y-85884110D01*
X149914479Y-86002402D01*
X149889500Y-86127981D01*
X149889500Y-86256019D01*
X149914479Y-86381598D01*
X149963478Y-86499890D01*
X150034612Y-86606351D01*
X150125149Y-86696888D01*
X150231610Y-86768022D01*
X150349902Y-86817021D01*
X150475481Y-86842000D01*
X150603519Y-86842000D01*
X150729098Y-86817021D01*
X150847390Y-86768022D01*
X150953851Y-86696888D01*
X151044388Y-86606351D01*
X151115522Y-86499890D01*
X151164521Y-86381598D01*
X151189500Y-86256019D01*
X151189500Y-86127981D01*
X151164521Y-86002402D01*
X151115522Y-85884110D01*
X151087385Y-85841999D01*
X151217456Y-85841999D01*
X152589387Y-87213932D01*
X152582422Y-87214618D01*
X152535296Y-87228913D01*
X152491866Y-87252127D01*
X152453798Y-87283368D01*
X152422557Y-87321436D01*
X152399343Y-87364866D01*
X152385048Y-87411992D01*
X152380221Y-87461000D01*
X152380221Y-89261000D01*
X152385048Y-89310008D01*
X152399343Y-89357134D01*
X152422557Y-89400564D01*
X152453798Y-89438632D01*
X152491866Y-89469873D01*
X152535296Y-89493087D01*
X152582422Y-89507382D01*
X152631430Y-89512209D01*
X153631430Y-89512209D01*
X153680438Y-89507382D01*
X153727564Y-89493087D01*
X153770994Y-89469873D01*
X153809062Y-89438632D01*
X153840303Y-89400564D01*
X153863517Y-89357134D01*
X153877812Y-89310008D01*
X153882639Y-89261000D01*
X153882639Y-87557184D01*
X154030221Y-87704766D01*
X154030221Y-89261000D01*
X154035048Y-89310008D01*
X154049343Y-89357134D01*
X154072557Y-89400564D01*
X154103798Y-89438632D01*
X154141866Y-89469873D01*
X154185296Y-89493087D01*
X154232422Y-89507382D01*
X154281430Y-89512209D01*
X155281430Y-89512209D01*
X155330438Y-89507382D01*
X155377564Y-89493087D01*
X155420994Y-89469873D01*
X155459062Y-89438632D01*
X155490303Y-89400564D01*
X155506415Y-89370421D01*
X155522527Y-89400564D01*
X155553768Y-89438632D01*
X155591836Y-89469873D01*
X155635266Y-89493087D01*
X155682392Y-89507382D01*
X155731400Y-89512209D01*
X156431400Y-89512209D01*
X156480408Y-89507382D01*
X156527534Y-89493087D01*
X156570964Y-89469873D01*
X156609032Y-89438632D01*
X156640273Y-89400564D01*
X156663487Y-89357134D01*
X156677782Y-89310008D01*
X156681400Y-89273275D01*
X156685018Y-89310008D01*
X156699313Y-89357134D01*
X156722527Y-89400564D01*
X156753768Y-89438632D01*
X156791836Y-89469873D01*
X156835266Y-89493087D01*
X156882392Y-89507382D01*
X156931400Y-89512209D01*
X157631400Y-89512209D01*
X157680408Y-89507382D01*
X157727534Y-89493087D01*
X157770964Y-89469873D01*
X157809032Y-89438632D01*
X157840273Y-89400564D01*
X157863487Y-89357134D01*
X157877782Y-89310008D01*
X157882609Y-89261000D01*
X157882609Y-87461000D01*
X157877782Y-87411992D01*
X157863487Y-87364866D01*
X157840273Y-87321436D01*
X157809032Y-87283368D01*
X157770964Y-87252127D01*
X157727534Y-87228913D01*
X157680408Y-87214618D01*
X157631400Y-87209791D01*
X157628049Y-87209791D01*
X157626335Y-87192388D01*
X157606322Y-87126413D01*
X157573822Y-87065610D01*
X157541042Y-87025667D01*
X157530085Y-87012315D01*
X157516730Y-87001355D01*
X157295053Y-86779680D01*
X157284085Y-86766315D01*
X157230790Y-86722578D01*
X157169987Y-86690078D01*
X157104012Y-86670065D01*
X157052589Y-86665000D01*
X157052588Y-86665000D01*
X157035400Y-86663307D01*
X157018212Y-86665000D01*
X156475363Y-86665000D01*
X155132720Y-85322358D01*
X155600000Y-85322358D01*
X155600000Y-85499642D01*
X155634586Y-85673520D01*
X155702430Y-85837310D01*
X155800924Y-85984717D01*
X155926283Y-86110076D01*
X156073690Y-86208570D01*
X156237480Y-86276414D01*
X156411358Y-86311000D01*
X156588642Y-86311000D01*
X156762520Y-86276414D01*
X156926310Y-86208570D01*
X157073717Y-86110076D01*
X157199076Y-85984717D01*
X157297570Y-85837310D01*
X157365414Y-85673520D01*
X157400000Y-85499642D01*
X157400000Y-85322358D01*
X157365414Y-85148480D01*
X157297570Y-84984690D01*
X157199076Y-84837283D01*
X157073717Y-84711924D01*
X156926310Y-84613430D01*
X156762520Y-84545586D01*
X156588642Y-84511000D01*
X156411358Y-84511000D01*
X156237480Y-84545586D01*
X156073690Y-84613430D01*
X155926283Y-84711924D01*
X155800924Y-84837283D01*
X155702430Y-84984690D01*
X155634586Y-85148480D01*
X155600000Y-85322358D01*
X155132720Y-85322358D01*
X154017010Y-84206649D01*
X154006042Y-84193284D01*
X153952747Y-84149547D01*
X153891944Y-84117047D01*
X153825969Y-84097034D01*
X153774546Y-84091969D01*
X153774545Y-84091969D01*
X153757357Y-84090276D01*
X153740169Y-84091969D01*
X144415220Y-84091969D01*
X144398031Y-84090276D01*
X144329419Y-84097034D01*
X144263443Y-84117047D01*
X144242264Y-84128368D01*
X144202641Y-84149547D01*
X144149346Y-84193284D01*
X144138382Y-84206644D01*
X142146105Y-86198922D01*
X142132744Y-86209887D01*
X142089007Y-86263182D01*
X142056507Y-86323985D01*
X142036494Y-86389959D01*
X142036494Y-86389960D01*
X142029736Y-86458571D01*
X142031429Y-86475759D01*
X142031430Y-88129159D01*
X141976463Y-88046896D01*
X141899854Y-87970287D01*
X141809773Y-87910097D01*
X141709679Y-87868636D01*
X141603420Y-87847500D01*
X141495080Y-87847500D01*
X141388821Y-87868636D01*
X141382639Y-87871197D01*
X141382639Y-87461000D01*
X141377812Y-87411992D01*
X141363517Y-87364866D01*
X141340303Y-87321436D01*
X141309062Y-87283368D01*
X141270994Y-87252127D01*
X141227564Y-87228913D01*
X141180438Y-87214618D01*
X141131430Y-87209791D01*
X140131430Y-87209791D01*
X140082422Y-87214618D01*
X140035296Y-87228913D01*
X139991866Y-87252127D01*
X139953798Y-87283368D01*
X139922557Y-87321436D01*
X139899343Y-87364866D01*
X139885048Y-87411992D01*
X139880221Y-87461000D01*
X138882639Y-87461000D01*
X138877812Y-87411992D01*
X138863517Y-87364866D01*
X138840303Y-87321436D01*
X138809062Y-87283368D01*
X138770994Y-87252127D01*
X138727564Y-87228913D01*
X138680438Y-87214618D01*
X138631430Y-87209791D01*
X137631430Y-87209791D01*
X137582422Y-87214618D01*
X137535296Y-87228913D01*
X137491866Y-87252127D01*
X137453798Y-87283368D01*
X137422557Y-87321436D01*
X137399343Y-87364866D01*
X137385048Y-87411992D01*
X137380221Y-87461000D01*
X137380221Y-89082217D01*
X137363781Y-89065777D01*
X137257320Y-88994643D01*
X137139028Y-88945644D01*
X137013449Y-88920665D01*
X136885411Y-88920665D01*
X136759832Y-88945644D01*
X136641540Y-88994643D01*
X136535079Y-89065777D01*
X136444542Y-89156314D01*
X136382639Y-89248960D01*
X136382639Y-87461000D01*
X136377812Y-87411992D01*
X136363517Y-87364866D01*
X136340303Y-87321436D01*
X136309062Y-87283368D01*
X136270994Y-87252127D01*
X136227564Y-87228913D01*
X136180438Y-87214618D01*
X136131430Y-87209791D01*
X135131430Y-87209791D01*
X135082422Y-87214618D01*
X135035296Y-87228913D01*
X134991866Y-87252127D01*
X134953798Y-87283368D01*
X134922557Y-87321436D01*
X134899343Y-87364866D01*
X134885048Y-87411992D01*
X134880221Y-87461000D01*
X130212752Y-87461000D01*
X128386000Y-85634249D01*
X128386000Y-85297735D01*
X134350000Y-85297735D01*
X134350000Y-85524265D01*
X134394194Y-85746443D01*
X134480884Y-85955729D01*
X134606737Y-86144082D01*
X134766918Y-86304263D01*
X134955271Y-86430116D01*
X135164557Y-86516806D01*
X135386735Y-86561000D01*
X135613265Y-86561000D01*
X135835443Y-86516806D01*
X136044729Y-86430116D01*
X136233082Y-86304263D01*
X136393263Y-86144082D01*
X136519116Y-85955729D01*
X136605806Y-85746443D01*
X136650000Y-85524265D01*
X136650000Y-85297735D01*
X136605806Y-85075557D01*
X136519116Y-84866271D01*
X136393263Y-84677918D01*
X136233082Y-84517737D01*
X136044729Y-84391884D01*
X135835443Y-84305194D01*
X135613265Y-84261000D01*
X135386735Y-84261000D01*
X135164557Y-84305194D01*
X134955271Y-84391884D01*
X134766918Y-84517737D01*
X134606737Y-84677918D01*
X134480884Y-84866271D01*
X134394194Y-85075557D01*
X134350000Y-85297735D01*
X128386000Y-85297735D01*
X128386000Y-85113325D01*
X128458988Y-85091184D01*
X128650084Y-84989042D01*
X128817581Y-84851581D01*
X128955042Y-84684084D01*
X129057184Y-84492988D01*
X129120084Y-84285638D01*
X129141322Y-84070000D01*
X129120084Y-83854362D01*
X129057184Y-83647012D01*
X128955042Y-83455916D01*
X128817581Y-83288419D01*
X128650084Y-83150958D01*
X128458988Y-83048816D01*
X128251638Y-82985916D01*
X128090036Y-82970000D01*
X127981964Y-82970000D01*
X127820362Y-82985916D01*
X127613012Y-83048816D01*
X127421916Y-83150958D01*
X127254419Y-83288419D01*
X127116958Y-83455916D01*
X127014816Y-83647012D01*
X126951916Y-83854362D01*
X126930678Y-84070000D01*
X121450000Y-84070000D01*
X121450000Y-81530000D01*
X126930678Y-81530000D01*
X126951916Y-81745638D01*
X127014816Y-81952988D01*
X127116958Y-82144084D01*
X127254419Y-82311581D01*
X127421916Y-82449042D01*
X127613012Y-82551184D01*
X127820362Y-82614084D01*
X127981964Y-82630000D01*
X128090036Y-82630000D01*
X128251638Y-82614084D01*
X128458988Y-82551184D01*
X128650084Y-82449042D01*
X128817581Y-82311581D01*
X128904368Y-82205830D01*
X157518000Y-82205830D01*
X157518000Y-82314170D01*
X157539136Y-82420429D01*
X157580597Y-82520523D01*
X157640787Y-82610604D01*
X157717396Y-82687213D01*
X157807477Y-82747403D01*
X157907571Y-82788864D01*
X158013830Y-82810000D01*
X158122170Y-82810000D01*
X158228429Y-82788864D01*
X158328523Y-82747403D01*
X158418604Y-82687213D01*
X158495213Y-82610604D01*
X158555403Y-82520523D01*
X158596864Y-82420429D01*
X158618000Y-82314170D01*
X158618000Y-82260000D01*
X162314678Y-82260000D01*
X162335916Y-82475638D01*
X162398816Y-82682988D01*
X162500958Y-82874084D01*
X162638419Y-83041581D01*
X162805916Y-83179042D01*
X162997012Y-83281184D01*
X163204362Y-83344084D01*
X163365964Y-83360000D01*
X163474036Y-83360000D01*
X163635638Y-83344084D01*
X163842988Y-83281184D01*
X164034084Y-83179042D01*
X164201581Y-83041581D01*
X164339042Y-82874084D01*
X164441184Y-82682988D01*
X164504084Y-82475638D01*
X164525322Y-82260000D01*
X164504084Y-82044362D01*
X164441184Y-81837012D01*
X164339042Y-81645916D01*
X164201581Y-81478419D01*
X164034084Y-81340958D01*
X163842988Y-81238816D01*
X163635638Y-81175916D01*
X163474036Y-81160000D01*
X163365964Y-81160000D01*
X163204362Y-81175916D01*
X162997012Y-81238816D01*
X162805916Y-81340958D01*
X162638419Y-81478419D01*
X162500958Y-81645916D01*
X162398816Y-81837012D01*
X162335916Y-82044362D01*
X162314678Y-82260000D01*
X158618000Y-82260000D01*
X158618000Y-82205830D01*
X158596864Y-82099571D01*
X158555403Y-81999477D01*
X158495213Y-81909396D01*
X158418604Y-81832787D01*
X158328523Y-81772597D01*
X158228429Y-81731136D01*
X158122170Y-81710000D01*
X158013830Y-81710000D01*
X157907571Y-81731136D01*
X157807477Y-81772597D01*
X157717396Y-81832787D01*
X157640787Y-81909396D01*
X157580597Y-81999477D01*
X157539136Y-82099571D01*
X157518000Y-82205830D01*
X128904368Y-82205830D01*
X128955042Y-82144084D01*
X129057184Y-81952988D01*
X129079325Y-81880000D01*
X132280383Y-81880000D01*
X132280787Y-81880604D01*
X132357396Y-81957213D01*
X132447477Y-82017403D01*
X132547571Y-82058864D01*
X132653830Y-82080000D01*
X132762170Y-82080000D01*
X132868429Y-82058864D01*
X132968523Y-82017403D01*
X133058604Y-81957213D01*
X133135213Y-81880604D01*
X133195403Y-81790523D01*
X133236864Y-81690429D01*
X133258000Y-81584170D01*
X133258000Y-81475830D01*
X133236864Y-81369571D01*
X133195403Y-81269477D01*
X133135213Y-81179396D01*
X133058604Y-81102787D01*
X132968523Y-81042597D01*
X132868429Y-81001136D01*
X132762170Y-80980000D01*
X132653830Y-80980000D01*
X132547571Y-81001136D01*
X132447477Y-81042597D01*
X132357396Y-81102787D01*
X132280787Y-81179396D01*
X132280383Y-81180000D01*
X129079325Y-81180000D01*
X129057184Y-81107012D01*
X128955042Y-80915916D01*
X128817581Y-80748419D01*
X128650084Y-80610958D01*
X128458988Y-80508816D01*
X128251638Y-80445916D01*
X128090036Y-80430000D01*
X127981964Y-80430000D01*
X127820362Y-80445916D01*
X127613012Y-80508816D01*
X127421916Y-80610958D01*
X127254419Y-80748419D01*
X127116958Y-80915916D01*
X127014816Y-81107012D01*
X126951916Y-81314362D01*
X126930678Y-81530000D01*
X121450000Y-81530000D01*
X121450000Y-78990000D01*
X126930678Y-78990000D01*
X126951916Y-79205638D01*
X127014816Y-79412988D01*
X127116958Y-79604084D01*
X127254419Y-79771581D01*
X127421916Y-79909042D01*
X127613012Y-80011184D01*
X127820362Y-80074084D01*
X127981964Y-80090000D01*
X128090036Y-80090000D01*
X128251638Y-80074084D01*
X128458988Y-80011184D01*
X128650084Y-79909042D01*
X128817581Y-79771581D01*
X128904368Y-79665830D01*
X157518000Y-79665830D01*
X157518000Y-79774170D01*
X157539136Y-79880429D01*
X157580597Y-79980523D01*
X157640787Y-80070604D01*
X157717396Y-80147213D01*
X157807477Y-80207403D01*
X157907571Y-80248864D01*
X158013830Y-80270000D01*
X158122170Y-80270000D01*
X158228429Y-80248864D01*
X158328523Y-80207403D01*
X158418604Y-80147213D01*
X158495213Y-80070604D01*
X158555403Y-79980523D01*
X158596864Y-79880429D01*
X158618000Y-79774170D01*
X158618000Y-79665830D01*
X158596864Y-79559571D01*
X158555403Y-79459477D01*
X158495213Y-79369396D01*
X158418604Y-79292787D01*
X158328523Y-79232597D01*
X158228429Y-79191136D01*
X158122170Y-79170000D01*
X158013830Y-79170000D01*
X157907571Y-79191136D01*
X157807477Y-79232597D01*
X157717396Y-79292787D01*
X157640787Y-79369396D01*
X157580597Y-79459477D01*
X157539136Y-79559571D01*
X157518000Y-79665830D01*
X128904368Y-79665830D01*
X128955042Y-79604084D01*
X129057184Y-79412988D01*
X129120084Y-79205638D01*
X129141322Y-78990000D01*
X129129504Y-78870000D01*
X162318791Y-78870000D01*
X162318791Y-80570000D01*
X162323618Y-80619008D01*
X162337913Y-80666134D01*
X162361127Y-80709564D01*
X162392368Y-80747632D01*
X162430436Y-80778873D01*
X162473866Y-80802087D01*
X162520992Y-80816382D01*
X162570000Y-80821209D01*
X164270000Y-80821209D01*
X164319008Y-80816382D01*
X164366134Y-80802087D01*
X164409564Y-80778873D01*
X164447632Y-80747632D01*
X164478873Y-80709564D01*
X164502087Y-80666134D01*
X164516382Y-80619008D01*
X164521209Y-80570000D01*
X164521209Y-79720000D01*
X164854678Y-79720000D01*
X164875916Y-79935638D01*
X164938816Y-80142988D01*
X165040958Y-80334084D01*
X165178419Y-80501581D01*
X165345916Y-80639042D01*
X165537012Y-80741184D01*
X165744362Y-80804084D01*
X165905964Y-80820000D01*
X166014036Y-80820000D01*
X166175638Y-80804084D01*
X166382988Y-80741184D01*
X166574084Y-80639042D01*
X166741581Y-80501581D01*
X166879042Y-80334084D01*
X166981184Y-80142988D01*
X167044084Y-79935638D01*
X167065322Y-79720000D01*
X167044084Y-79504362D01*
X166981184Y-79297012D01*
X166879042Y-79105916D01*
X166741581Y-78938419D01*
X166574084Y-78800958D01*
X166382988Y-78698816D01*
X166175638Y-78635916D01*
X166014036Y-78620000D01*
X165905964Y-78620000D01*
X165744362Y-78635916D01*
X165537012Y-78698816D01*
X165345916Y-78800958D01*
X165178419Y-78938419D01*
X165040958Y-79105916D01*
X164938816Y-79297012D01*
X164875916Y-79504362D01*
X164854678Y-79720000D01*
X164521209Y-79720000D01*
X164521209Y-78870000D01*
X164516382Y-78820992D01*
X164502087Y-78773866D01*
X164478873Y-78730436D01*
X164447632Y-78692368D01*
X164409564Y-78661127D01*
X164366134Y-78637913D01*
X164319008Y-78623618D01*
X164270000Y-78618791D01*
X162570000Y-78618791D01*
X162520992Y-78623618D01*
X162473866Y-78637913D01*
X162430436Y-78661127D01*
X162392368Y-78692368D01*
X162361127Y-78730436D01*
X162337913Y-78773866D01*
X162323618Y-78820992D01*
X162318791Y-78870000D01*
X129129504Y-78870000D01*
X129120084Y-78774362D01*
X129057184Y-78567012D01*
X128955042Y-78375916D01*
X128817581Y-78208419D01*
X128650084Y-78070958D01*
X128458988Y-77968816D01*
X128251638Y-77905916D01*
X128090036Y-77890000D01*
X127981964Y-77890000D01*
X127820362Y-77905916D01*
X127613012Y-77968816D01*
X127421916Y-78070958D01*
X127254419Y-78208419D01*
X127116958Y-78375916D01*
X127014816Y-78567012D01*
X126951916Y-78774362D01*
X126930678Y-78990000D01*
X121450000Y-78990000D01*
X121450000Y-77059830D01*
X132158000Y-77059830D01*
X132158000Y-77168170D01*
X132179136Y-77274429D01*
X132220597Y-77374523D01*
X132280787Y-77464604D01*
X132357396Y-77541213D01*
X132447477Y-77601403D01*
X132547571Y-77642864D01*
X132653830Y-77664000D01*
X132762170Y-77664000D01*
X132868429Y-77642864D01*
X132968523Y-77601403D01*
X133058604Y-77541213D01*
X133135213Y-77464604D01*
X133195403Y-77374523D01*
X133236864Y-77274429D01*
X133258000Y-77168170D01*
X133258000Y-77059830D01*
X133236864Y-76953571D01*
X133195403Y-76853477D01*
X133135213Y-76763396D01*
X133058604Y-76686787D01*
X132968523Y-76626597D01*
X132868429Y-76585136D01*
X132762170Y-76564000D01*
X132653830Y-76564000D01*
X132547571Y-76585136D01*
X132447477Y-76626597D01*
X132357396Y-76686787D01*
X132280787Y-76763396D01*
X132220597Y-76853477D01*
X132179136Y-76953571D01*
X132158000Y-77059830D01*
X121450000Y-77059830D01*
X121450000Y-75469238D01*
X121784691Y-75134547D01*
X121839490Y-75171162D01*
X122285361Y-75355848D01*
X122758696Y-75450000D01*
X123241304Y-75450000D01*
X123714639Y-75355848D01*
X124160510Y-75171162D01*
X124561784Y-74903040D01*
X124903040Y-74561784D01*
X125102025Y-74263981D01*
X135121000Y-74263981D01*
X135121000Y-74392019D01*
X135145979Y-74517598D01*
X135194978Y-74635890D01*
X135266112Y-74742351D01*
X135356649Y-74832888D01*
X135463110Y-74904022D01*
X135581402Y-74953021D01*
X135706981Y-74978000D01*
X135835019Y-74978000D01*
X135960598Y-74953021D01*
X136078890Y-74904022D01*
X136185351Y-74832888D01*
X136275888Y-74742351D01*
X136347022Y-74635890D01*
X136396021Y-74517598D01*
X136421000Y-74392019D01*
X136421000Y-74263981D01*
X136396021Y-74138402D01*
X136347022Y-74020110D01*
X136275888Y-73913649D01*
X136185351Y-73823112D01*
X136078890Y-73751978D01*
X135960598Y-73702979D01*
X135835019Y-73678000D01*
X135706981Y-73678000D01*
X135581402Y-73702979D01*
X135463110Y-73751978D01*
X135356649Y-73823112D01*
X135266112Y-73913649D01*
X135194978Y-74020110D01*
X135145979Y-74138402D01*
X135121000Y-74263981D01*
X125102025Y-74263981D01*
X125171162Y-74160510D01*
X125355848Y-73714639D01*
X125450000Y-73241304D01*
X125450000Y-72758696D01*
X125355848Y-72285361D01*
X125171162Y-71839490D01*
X124903040Y-71438216D01*
X124561784Y-71096960D01*
X124160510Y-70828838D01*
X123714639Y-70644152D01*
X123241304Y-70550000D01*
X122758696Y-70550000D01*
X122285361Y-70644152D01*
X121839490Y-70828838D01*
X121438216Y-71096960D01*
X121096960Y-71438216D01*
X120828838Y-71839490D01*
X120644152Y-72285361D01*
X120550000Y-72758696D01*
X120550000Y-73241304D01*
X120644152Y-73714639D01*
X120828838Y-74160510D01*
X120865453Y-74215309D01*
X120362958Y-74717804D01*
X120338158Y-74738157D01*
X120317805Y-74762957D01*
X120317802Y-74762960D01*
X120275000Y-74815114D01*
X120275000Y-73013455D01*
X120328191Y-72470971D01*
X120481832Y-71962085D01*
X120731388Y-71492738D01*
X121067356Y-71080801D01*
X121476936Y-70741966D01*
X121944534Y-70489138D01*
X122452323Y-70331950D01*
X122993954Y-70275022D01*
X123000384Y-70275000D01*
X166986545Y-70275000D01*
X167529029Y-70328191D01*
X167529029Y-70328191D01*
G37*
X167529029Y-70328191D02*
X168037915Y-70481832D01*
X168507262Y-70731388D01*
X168919199Y-71067356D01*
X169258034Y-71476936D01*
X169510862Y-71944534D01*
X169668050Y-72452323D01*
X169724978Y-72993954D01*
X169725001Y-73000671D01*
X169725001Y-74815115D01*
X169661843Y-74738157D01*
X169637038Y-74717800D01*
X169134547Y-74215309D01*
X169171162Y-74160510D01*
X169355848Y-73714639D01*
X169450000Y-73241304D01*
X169450000Y-72758696D01*
X169355848Y-72285361D01*
X169171162Y-71839490D01*
X168903040Y-71438216D01*
X168561784Y-71096960D01*
X168160510Y-70828838D01*
X167714639Y-70644152D01*
X167241304Y-70550000D01*
X166758696Y-70550000D01*
X166285361Y-70644152D01*
X165839490Y-70828838D01*
X165438216Y-71096960D01*
X165096960Y-71438216D01*
X164828838Y-71839490D01*
X164644152Y-72285361D01*
X164550000Y-72758696D01*
X164550000Y-73241304D01*
X164644152Y-73714639D01*
X164828838Y-74160510D01*
X165096960Y-74561784D01*
X165438216Y-74903040D01*
X165839490Y-75171162D01*
X166285361Y-75355848D01*
X166758696Y-75450000D01*
X167241304Y-75450000D01*
X167714639Y-75355848D01*
X168160510Y-75171162D01*
X168215309Y-75134547D01*
X168550001Y-75469239D01*
X168550001Y-88590000D01*
X167681606Y-88590000D01*
X167643141Y-88396622D01*
X167492377Y-88032645D01*
X167273501Y-87705074D01*
X166994926Y-87426499D01*
X166667355Y-87207623D01*
X166303378Y-87056859D01*
X165916983Y-86980000D01*
X165523017Y-86980000D01*
X165136622Y-87056859D01*
X164772645Y-87207623D01*
X164445074Y-87426499D01*
X164166499Y-87705074D01*
X163947623Y-88032645D01*
X163796859Y-88396622D01*
X163720000Y-88783017D01*
X163720000Y-89176983D01*
X163796859Y-89563378D01*
X163947623Y-89927355D01*
X164166499Y-90254926D01*
X164445074Y-90533501D01*
X164772645Y-90752377D01*
X165136622Y-90903141D01*
X165523017Y-90980000D01*
X165916983Y-90980000D01*
X166303378Y-90903141D01*
X166667355Y-90752377D01*
X166994926Y-90533501D01*
X167273501Y-90254926D01*
X167492377Y-89927355D01*
X167643141Y-89563378D01*
X167681606Y-89370000D01*
X168550001Y-89370000D01*
X168550000Y-100630000D01*
X167681606Y-100630000D01*
X167643141Y-100436622D01*
X167492377Y-100072645D01*
X167273501Y-99745074D01*
X166994926Y-99466499D01*
X166667355Y-99247623D01*
X166303378Y-99096859D01*
X165916983Y-99020000D01*
X165523017Y-99020000D01*
X165136622Y-99096859D01*
X164772645Y-99247623D01*
X164445074Y-99466499D01*
X164166499Y-99745074D01*
X163947623Y-100072645D01*
X163796859Y-100436622D01*
X163720000Y-100823017D01*
X163720000Y-101216983D01*
X163796859Y-101603378D01*
X163947623Y-101967355D01*
X164166499Y-102294926D01*
X164445074Y-102573501D01*
X164772645Y-102792377D01*
X165136622Y-102943141D01*
X165523017Y-103020000D01*
X165916983Y-103020000D01*
X166303378Y-102943141D01*
X166667355Y-102792377D01*
X166994926Y-102573501D01*
X167273501Y-102294926D01*
X167492377Y-101967355D01*
X167643141Y-101603378D01*
X167681606Y-101410000D01*
X168550000Y-101410000D01*
X168550000Y-112050762D01*
X166562958Y-114037804D01*
X166538158Y-114058157D01*
X166517805Y-114082957D01*
X166517802Y-114082960D01*
X166456930Y-114157132D01*
X166396573Y-114270053D01*
X166359406Y-114392578D01*
X166346856Y-114520000D01*
X166350001Y-114551931D01*
X166350001Y-114631294D01*
X166285361Y-114644152D01*
X165839490Y-114828838D01*
X165438216Y-115096960D01*
X165096960Y-115438216D01*
X164828838Y-115839490D01*
X164644152Y-116285361D01*
X164550000Y-116758696D01*
X164550000Y-117241304D01*
X164644152Y-117714639D01*
X164828838Y-118160510D01*
X164865453Y-118215309D01*
X164530762Y-118550000D01*
X152890000Y-118550000D01*
X152890000Y-117426709D01*
X153010456Y-117402749D01*
X153328936Y-117270830D01*
X153615560Y-117079314D01*
X153859314Y-116835560D01*
X154050830Y-116548936D01*
X154182749Y-116230456D01*
X154250000Y-115892360D01*
X154250000Y-115547640D01*
X154182749Y-115209544D01*
X154050830Y-114891064D01*
X153859314Y-114604440D01*
X153615560Y-114360686D01*
X153328936Y-114169170D01*
X153010456Y-114037251D01*
X152672360Y-113970000D01*
X152327640Y-113970000D01*
X151989544Y-114037251D01*
X151671064Y-114169170D01*
X151384440Y-114360686D01*
X151140686Y-114604440D01*
X150949170Y-114891064D01*
X150817251Y-115209544D01*
X150750000Y-115547640D01*
X150750000Y-115892360D01*
X150817251Y-116230456D01*
X150949170Y-116548936D01*
X151140686Y-116835560D01*
X151384440Y-117079314D01*
X151671064Y-117270830D01*
X151989544Y-117402749D01*
X152110000Y-117426709D01*
X152110001Y-118550000D01*
X137890000Y-118550000D01*
X137890000Y-117426709D01*
X138010456Y-117402749D01*
X138328936Y-117270830D01*
X138615560Y-117079314D01*
X138859314Y-116835560D01*
X139050830Y-116548936D01*
X139182749Y-116230456D01*
X139250000Y-115892360D01*
X139250000Y-115547640D01*
X139182749Y-115209544D01*
X139050830Y-114891064D01*
X138859314Y-114604440D01*
X138615560Y-114360686D01*
X138328936Y-114169170D01*
X138010456Y-114037251D01*
X137672360Y-113970000D01*
X137327640Y-113970000D01*
X136989544Y-114037251D01*
X136671064Y-114169170D01*
X136384440Y-114360686D01*
X136140686Y-114604440D01*
X135949170Y-114891064D01*
X135817251Y-115209544D01*
X135750000Y-115547640D01*
X135750000Y-115892360D01*
X135817251Y-116230456D01*
X135949170Y-116548936D01*
X136140686Y-116835560D01*
X136384440Y-117079314D01*
X136671064Y-117270830D01*
X136989544Y-117402749D01*
X137110000Y-117426709D01*
X137110001Y-118550000D01*
X125469238Y-118550000D01*
X125134547Y-118215309D01*
X125171162Y-118160510D01*
X125355848Y-117714639D01*
X125450000Y-117241304D01*
X125450000Y-116758696D01*
X125355848Y-116285361D01*
X125351963Y-116275981D01*
X129409500Y-116275981D01*
X129409500Y-116404019D01*
X129434479Y-116529598D01*
X129483478Y-116647890D01*
X129554612Y-116754351D01*
X129645149Y-116844888D01*
X129751610Y-116916022D01*
X129869902Y-116965021D01*
X129995481Y-116990000D01*
X130123519Y-116990000D01*
X130249098Y-116965021D01*
X130367390Y-116916022D01*
X130473851Y-116844888D01*
X130559500Y-116759239D01*
X130645149Y-116844888D01*
X130751610Y-116916022D01*
X130869902Y-116965021D01*
X130995481Y-116990000D01*
X131123519Y-116990000D01*
X131249098Y-116965021D01*
X131367390Y-116916022D01*
X131473851Y-116844888D01*
X131564388Y-116754351D01*
X131635522Y-116647890D01*
X131684521Y-116529598D01*
X131709500Y-116404019D01*
X131709500Y-116275981D01*
X131684521Y-116150402D01*
X131635522Y-116032110D01*
X131564388Y-115925649D01*
X131473851Y-115835112D01*
X131367390Y-115763978D01*
X131249098Y-115714979D01*
X131123519Y-115690000D01*
X130995481Y-115690000D01*
X130869902Y-115714979D01*
X130751610Y-115763978D01*
X130645149Y-115835112D01*
X130559500Y-115920761D01*
X130473851Y-115835112D01*
X130367390Y-115763978D01*
X130249098Y-115714979D01*
X130123519Y-115690000D01*
X129995481Y-115690000D01*
X129869902Y-115714979D01*
X129751610Y-115763978D01*
X129645149Y-115835112D01*
X129554612Y-115925649D01*
X129483478Y-116032110D01*
X129434479Y-116150402D01*
X129409500Y-116275981D01*
X125351963Y-116275981D01*
X125171162Y-115839490D01*
X124903040Y-115438216D01*
X124561784Y-115096960D01*
X124160510Y-114828838D01*
X123714639Y-114644152D01*
X123650000Y-114631295D01*
X123650000Y-114551924D01*
X123653144Y-114520000D01*
X123650000Y-114488076D01*
X123650000Y-114488068D01*
X123640595Y-114392578D01*
X123603427Y-114270052D01*
X123543070Y-114157132D01*
X123522455Y-114132012D01*
X126160000Y-114132012D01*
X126160000Y-114240352D01*
X126181136Y-114346611D01*
X126222597Y-114446705D01*
X126282787Y-114536786D01*
X126359396Y-114613395D01*
X126449477Y-114673585D01*
X126549571Y-114715046D01*
X126655830Y-114736182D01*
X126764170Y-114736182D01*
X126870429Y-114715046D01*
X126970523Y-114673585D01*
X127060604Y-114613395D01*
X127137213Y-114536786D01*
X127197403Y-114446705D01*
X127238864Y-114346611D01*
X127260000Y-114240352D01*
X127260000Y-114132012D01*
X127238864Y-114025753D01*
X127197403Y-113925659D01*
X127145501Y-113847981D01*
X129409500Y-113847981D01*
X129409500Y-113976019D01*
X129434479Y-114101598D01*
X129483478Y-114219890D01*
X129554612Y-114326351D01*
X129645149Y-114416888D01*
X129751610Y-114488022D01*
X129869902Y-114537021D01*
X129995481Y-114562000D01*
X130123519Y-114562000D01*
X130249098Y-114537021D01*
X130367390Y-114488022D01*
X130473851Y-114416888D01*
X130559500Y-114331239D01*
X130645149Y-114416888D01*
X130751610Y-114488022D01*
X130869902Y-114537021D01*
X130995481Y-114562000D01*
X131123519Y-114562000D01*
X131249098Y-114537021D01*
X131367390Y-114488022D01*
X131473851Y-114416888D01*
X131564388Y-114326351D01*
X131635522Y-114219890D01*
X131684521Y-114101598D01*
X131709500Y-113976019D01*
X131709500Y-113847981D01*
X131684521Y-113722402D01*
X131635522Y-113604110D01*
X131564388Y-113497649D01*
X131473851Y-113407112D01*
X131367390Y-113335978D01*
X131249098Y-113286979D01*
X131123519Y-113262000D01*
X130995481Y-113262000D01*
X130869902Y-113286979D01*
X130751610Y-113335978D01*
X130645149Y-113407112D01*
X130559500Y-113492761D01*
X130473851Y-113407112D01*
X130367390Y-113335978D01*
X130249098Y-113286979D01*
X130123519Y-113262000D01*
X129995481Y-113262000D01*
X129869902Y-113286979D01*
X129751610Y-113335978D01*
X129645149Y-113407112D01*
X129554612Y-113497649D01*
X129483478Y-113604110D01*
X129434479Y-113722402D01*
X129409500Y-113847981D01*
X127145501Y-113847981D01*
X127137213Y-113835578D01*
X127060604Y-113758969D01*
X127060000Y-113758565D01*
X127060000Y-110944659D01*
X128820803Y-109183858D01*
X128821516Y-109184000D01*
X128929856Y-109184000D01*
X129036115Y-109162864D01*
X129136209Y-109121403D01*
X129226290Y-109061213D01*
X129302899Y-108984604D01*
X129363089Y-108894523D01*
X129404550Y-108794429D01*
X129425686Y-108688170D01*
X129425686Y-108579830D01*
X129404550Y-108473571D01*
X129363089Y-108373477D01*
X129302899Y-108283396D01*
X129226290Y-108206787D01*
X129136209Y-108146597D01*
X129036115Y-108105136D01*
X128929856Y-108084000D01*
X128821516Y-108084000D01*
X128715257Y-108105136D01*
X128615163Y-108146597D01*
X128525082Y-108206787D01*
X128448473Y-108283396D01*
X128388283Y-108373477D01*
X128346822Y-108473571D01*
X128325686Y-108579830D01*
X128325686Y-108688170D01*
X128325828Y-108688883D01*
X126474676Y-110540037D01*
X126461316Y-110551001D01*
X126417579Y-110604296D01*
X126385079Y-110665099D01*
X126365065Y-110731075D01*
X126358307Y-110799686D01*
X126360001Y-110816884D01*
X126360000Y-113758565D01*
X126359396Y-113758969D01*
X126282787Y-113835578D01*
X126222597Y-113925659D01*
X126181136Y-114025753D01*
X126160000Y-114132012D01*
X123522455Y-114132012D01*
X123461843Y-114058157D01*
X123437038Y-114037800D01*
X121450000Y-112050762D01*
X121450000Y-102890000D01*
X122573291Y-102890000D01*
X122597251Y-103010456D01*
X122729170Y-103328936D01*
X122920686Y-103615560D01*
X123164440Y-103859314D01*
X123451064Y-104050830D01*
X123769544Y-104182749D01*
X124107640Y-104250000D01*
X124452360Y-104250000D01*
X124790456Y-104182749D01*
X125108936Y-104050830D01*
X125395560Y-103859314D01*
X125639314Y-103615560D01*
X125830830Y-103328936D01*
X125960001Y-103017091D01*
X125960000Y-104974656D01*
X125465852Y-105468804D01*
X125441052Y-105489157D01*
X125420699Y-105513957D01*
X125420696Y-105513960D01*
X125359824Y-105588132D01*
X125299467Y-105701053D01*
X125262300Y-105823578D01*
X125249750Y-105951000D01*
X125252895Y-105982931D01*
X125252895Y-106316916D01*
X125252000Y-106326000D01*
X125252000Y-107634000D01*
X125256803Y-107682771D01*
X125271030Y-107729670D01*
X125300319Y-107800381D01*
X125323422Y-107843605D01*
X125354513Y-107881489D01*
X125392398Y-107912579D01*
X125435619Y-107935681D01*
X125506330Y-107964970D01*
X125553227Y-107979196D01*
X125602000Y-107984000D01*
X125870962Y-107984000D01*
X125902894Y-107987145D01*
X125934825Y-107984000D01*
X126910000Y-107984000D01*
X126958771Y-107979197D01*
X127005670Y-107964970D01*
X127076381Y-107935681D01*
X127110000Y-107917712D01*
X127143619Y-107935681D01*
X127214330Y-107964970D01*
X127261227Y-107979196D01*
X127310000Y-107984000D01*
X129430762Y-107984000D01*
X134350804Y-112904043D01*
X134371157Y-112928843D01*
X134395957Y-112949196D01*
X134395959Y-112949198D01*
X134425139Y-112973145D01*
X134470132Y-113010070D01*
X134583052Y-113070427D01*
X134705578Y-113107595D01*
X134801068Y-113117000D01*
X134801078Y-113117000D01*
X134832999Y-113120144D01*
X134864920Y-113117000D01*
X137582762Y-113117000D01*
X140787804Y-116322043D01*
X140808157Y-116346843D01*
X140832957Y-116367196D01*
X140832959Y-116367198D01*
X140907131Y-116428070D01*
X141019107Y-116487922D01*
X141020052Y-116488427D01*
X141142578Y-116525595D01*
X141238068Y-116535000D01*
X141238078Y-116535000D01*
X141270000Y-116538144D01*
X141301921Y-116535000D01*
X143930762Y-116535000D01*
X144170612Y-116774851D01*
X144193310Y-116797549D01*
X144213658Y-116822343D01*
X144238452Y-116842691D01*
X144261149Y-116865388D01*
X144287829Y-116883214D01*
X144312632Y-116903570D01*
X144340933Y-116918697D01*
X144367610Y-116936522D01*
X144397252Y-116948800D01*
X144425552Y-116963927D01*
X144456256Y-116973241D01*
X144485902Y-116985521D01*
X144517375Y-116991781D01*
X144548078Y-117001095D01*
X144559503Y-117002220D01*
X144580009Y-117004240D01*
X144611481Y-117010500D01*
X144643569Y-117010500D01*
X144675500Y-117013645D01*
X144707432Y-117010500D01*
X144739519Y-117010500D01*
X144770990Y-117004240D01*
X144802922Y-117001095D01*
X144833625Y-116991781D01*
X144865098Y-116985521D01*
X144894744Y-116973241D01*
X144925448Y-116963927D01*
X144953748Y-116948800D01*
X144983390Y-116936522D01*
X145010067Y-116918697D01*
X145038368Y-116903570D01*
X145063170Y-116883215D01*
X145089851Y-116865388D01*
X145112543Y-116842696D01*
X145137343Y-116822343D01*
X145157696Y-116797543D01*
X145180388Y-116774851D01*
X145198215Y-116748170D01*
X145218570Y-116723368D01*
X145233697Y-116695067D01*
X145251522Y-116668390D01*
X145263800Y-116638748D01*
X145278927Y-116610448D01*
X145288241Y-116579744D01*
X145300521Y-116550098D01*
X145306781Y-116518625D01*
X145316095Y-116487922D01*
X145319240Y-116455990D01*
X145325500Y-116424519D01*
X145325500Y-116392424D01*
X145328644Y-116360500D01*
X145325500Y-116328576D01*
X145325500Y-115441424D01*
X145328644Y-115409500D01*
X145325500Y-115377576D01*
X145325500Y-115345481D01*
X145319240Y-115314010D01*
X145316095Y-115282078D01*
X145306781Y-115251375D01*
X145300521Y-115219902D01*
X145288241Y-115190256D01*
X145278927Y-115159552D01*
X145263800Y-115131252D01*
X145251522Y-115101610D01*
X145233697Y-115074933D01*
X145218570Y-115046632D01*
X145198215Y-115021830D01*
X145180388Y-114995149D01*
X145157696Y-114972457D01*
X145137343Y-114947657D01*
X145112545Y-114927306D01*
X145089851Y-114904612D01*
X145063170Y-114886785D01*
X145038368Y-114866430D01*
X145010068Y-114851304D01*
X144983390Y-114833478D01*
X144953745Y-114821198D01*
X144925447Y-114806073D01*
X144894746Y-114796760D01*
X144865098Y-114784479D01*
X144833624Y-114778219D01*
X144802922Y-114768905D01*
X144791497Y-114767780D01*
X144770991Y-114765760D01*
X144739519Y-114759500D01*
X144707431Y-114759500D01*
X144675500Y-114756355D01*
X144643568Y-114759500D01*
X144611481Y-114759500D01*
X144580010Y-114765760D01*
X144548078Y-114768905D01*
X144517375Y-114778219D01*
X144485902Y-114784479D01*
X144456256Y-114796759D01*
X144425552Y-114806073D01*
X144397252Y-114821200D01*
X144367610Y-114833478D01*
X144340933Y-114851303D01*
X144312632Y-114866430D01*
X144287829Y-114886786D01*
X144261149Y-114904612D01*
X144238457Y-114927304D01*
X144213657Y-114947657D01*
X144193305Y-114972456D01*
X143930762Y-115235000D01*
X141539239Y-115235000D01*
X138514239Y-112210000D01*
X140448791Y-112210000D01*
X140448791Y-113810000D01*
X140453618Y-113859008D01*
X140467913Y-113906134D01*
X140491127Y-113949564D01*
X140522368Y-113987632D01*
X140560436Y-114018873D01*
X140603866Y-114042087D01*
X140650992Y-114056382D01*
X140700000Y-114061209D01*
X142300000Y-114061209D01*
X142349008Y-114056382D01*
X142396134Y-114042087D01*
X142439564Y-114018873D01*
X142477632Y-113987632D01*
X142508873Y-113949564D01*
X142532087Y-113906134D01*
X142546382Y-113859008D01*
X142551209Y-113810000D01*
X142551209Y-112906584D01*
X142950000Y-112906584D01*
X142950000Y-113113416D01*
X142990350Y-113316274D01*
X143069502Y-113507362D01*
X143184411Y-113679336D01*
X143330664Y-113825589D01*
X143502638Y-113940498D01*
X143693726Y-114019650D01*
X143896584Y-114060000D01*
X144103416Y-114060000D01*
X144306274Y-114019650D01*
X144497362Y-113940498D01*
X144669336Y-113825589D01*
X144815589Y-113679336D01*
X144930498Y-113507362D01*
X145000000Y-113339571D01*
X145069502Y-113507362D01*
X145184411Y-113679336D01*
X145330664Y-113825589D01*
X145502638Y-113940498D01*
X145693726Y-114019650D01*
X145896584Y-114060000D01*
X146103416Y-114060000D01*
X146306274Y-114019650D01*
X146497362Y-113940498D01*
X146669336Y-113825589D01*
X146815589Y-113679336D01*
X146930498Y-113507362D01*
X147009650Y-113316274D01*
X147050000Y-113113416D01*
X147050000Y-112906584D01*
X147009650Y-112703726D01*
X146930498Y-112512638D01*
X146815589Y-112340664D01*
X146669336Y-112194411D01*
X146497362Y-112079502D01*
X146306274Y-112000350D01*
X146103416Y-111960000D01*
X145896584Y-111960000D01*
X145693726Y-112000350D01*
X145502638Y-112079502D01*
X145330664Y-112194411D01*
X145184411Y-112340664D01*
X145069502Y-112512638D01*
X145000000Y-112680429D01*
X144930498Y-112512638D01*
X144815589Y-112340664D01*
X144669336Y-112194411D01*
X144497362Y-112079502D01*
X144306274Y-112000350D01*
X144103416Y-111960000D01*
X143896584Y-111960000D01*
X143693726Y-112000350D01*
X143502638Y-112079502D01*
X143330664Y-112194411D01*
X143184411Y-112340664D01*
X143069502Y-112512638D01*
X142990350Y-112703726D01*
X142950000Y-112906584D01*
X142551209Y-112906584D01*
X142551209Y-112210000D01*
X142546382Y-112160992D01*
X142532087Y-112113866D01*
X142508873Y-112070436D01*
X142477632Y-112032368D01*
X142439564Y-112001127D01*
X142396134Y-111977913D01*
X142349008Y-111963618D01*
X142300000Y-111958791D01*
X140700000Y-111958791D01*
X140650992Y-111963618D01*
X140603866Y-111977913D01*
X140560436Y-112001127D01*
X140522368Y-112032368D01*
X140491127Y-112070436D01*
X140467913Y-112113866D01*
X140453618Y-112160992D01*
X140448791Y-112210000D01*
X138514239Y-112210000D01*
X138334200Y-112029962D01*
X138313843Y-112005157D01*
X138214868Y-111923930D01*
X138101948Y-111863573D01*
X137979422Y-111826405D01*
X137883932Y-111817000D01*
X137883921Y-111817000D01*
X137852000Y-111813856D01*
X137820079Y-111817000D01*
X135102239Y-111817000D01*
X133761220Y-110475981D01*
X136038500Y-110475981D01*
X136038500Y-110604019D01*
X136063479Y-110729598D01*
X136112478Y-110847890D01*
X136183612Y-110954351D01*
X136274149Y-111044888D01*
X136380610Y-111116022D01*
X136498902Y-111165021D01*
X136624481Y-111190000D01*
X136752519Y-111190000D01*
X136878098Y-111165021D01*
X136996390Y-111116022D01*
X137102851Y-111044888D01*
X137193388Y-110954351D01*
X137264522Y-110847890D01*
X137313521Y-110729598D01*
X137338500Y-110604019D01*
X137338500Y-110475981D01*
X137313521Y-110350402D01*
X137264522Y-110232110D01*
X137193388Y-110125649D01*
X137102851Y-110035112D01*
X136996390Y-109963978D01*
X136878098Y-109914979D01*
X136752519Y-109890000D01*
X136624481Y-109890000D01*
X136498902Y-109914979D01*
X136380610Y-109963978D01*
X136274149Y-110035112D01*
X136183612Y-110125649D01*
X136112478Y-110232110D01*
X136063479Y-110350402D01*
X136038500Y-110475981D01*
X133761220Y-110475981D01*
X130182198Y-106896960D01*
X130161843Y-106872157D01*
X130137038Y-106851800D01*
X129475094Y-106189856D01*
X129454737Y-106165051D01*
X129355762Y-106083824D01*
X129242842Y-106023467D01*
X129120316Y-105986299D01*
X129024826Y-105976894D01*
X129024815Y-105976894D01*
X128992894Y-105973750D01*
X128960973Y-105976894D01*
X128627076Y-105976894D01*
X128618000Y-105976000D01*
X127310000Y-105976000D01*
X127261229Y-105980803D01*
X127260000Y-105981176D01*
X127260000Y-105275815D01*
X127263144Y-105243894D01*
X127260000Y-105211973D01*
X127260000Y-104338332D01*
X130395502Y-104338332D01*
X130395502Y-104446672D01*
X130416638Y-104552931D01*
X130458099Y-104653025D01*
X130518289Y-104743106D01*
X130594898Y-104819715D01*
X130684979Y-104879905D01*
X130785073Y-104921366D01*
X130891332Y-104942502D01*
X130999672Y-104942502D01*
X131105931Y-104921366D01*
X131206025Y-104879905D01*
X131296106Y-104819715D01*
X131372715Y-104743106D01*
X131432905Y-104653025D01*
X131474366Y-104552931D01*
X131495502Y-104446672D01*
X131495502Y-104338332D01*
X131474366Y-104232073D01*
X131432905Y-104131979D01*
X131372715Y-104041898D01*
X131296106Y-103965289D01*
X131206025Y-103905099D01*
X131105931Y-103863638D01*
X130999672Y-103842502D01*
X130891332Y-103842502D01*
X130785073Y-103863638D01*
X130684979Y-103905099D01*
X130594898Y-103965289D01*
X130518289Y-104041898D01*
X130458099Y-104131979D01*
X130416638Y-104232073D01*
X130395502Y-104338332D01*
X127260000Y-104338332D01*
X127260000Y-103227000D01*
X153176791Y-103227000D01*
X153176791Y-105727000D01*
X153178000Y-105739275D01*
X153178000Y-109420579D01*
X153182804Y-109469351D01*
X153197030Y-109516250D01*
X153226319Y-109586960D01*
X153249422Y-109630182D01*
X153280512Y-109668066D01*
X154096934Y-110484488D01*
X154134819Y-110515578D01*
X154178040Y-110538681D01*
X154248750Y-110567970D01*
X154295648Y-110582196D01*
X154344421Y-110587000D01*
X157956000Y-110587000D01*
X158004771Y-110582197D01*
X158051670Y-110567970D01*
X158122381Y-110538681D01*
X158165605Y-110515578D01*
X158203489Y-110484487D01*
X158234579Y-110446602D01*
X158257681Y-110403381D01*
X158286970Y-110332670D01*
X158301196Y-110285773D01*
X158306000Y-110237000D01*
X158306000Y-109660000D01*
X165548791Y-109660000D01*
X165548791Y-110860000D01*
X165558422Y-110957781D01*
X165586943Y-111051804D01*
X165633260Y-111138457D01*
X165695592Y-111214408D01*
X165771543Y-111276740D01*
X165858196Y-111323057D01*
X165952219Y-111351578D01*
X166050000Y-111361209D01*
X167550000Y-111361209D01*
X167647781Y-111351578D01*
X167741804Y-111323057D01*
X167828457Y-111276740D01*
X167904408Y-111214408D01*
X167966740Y-111138457D01*
X168013057Y-111051804D01*
X168041578Y-110957781D01*
X168051209Y-110860000D01*
X168051209Y-109660000D01*
X168041578Y-109562219D01*
X168013057Y-109468196D01*
X167966740Y-109381543D01*
X167904408Y-109305592D01*
X167828457Y-109243260D01*
X167741804Y-109196943D01*
X167647781Y-109168422D01*
X167550000Y-109158791D01*
X166050000Y-109158791D01*
X165952219Y-109168422D01*
X165858196Y-109196943D01*
X165771543Y-109243260D01*
X165695592Y-109305592D01*
X165633260Y-109381543D01*
X165586943Y-109468196D01*
X165558422Y-109562219D01*
X165548791Y-109660000D01*
X158306000Y-109660000D01*
X158306000Y-106655830D01*
X161558000Y-106655830D01*
X161558000Y-106764170D01*
X161579136Y-106870429D01*
X161620597Y-106970523D01*
X161680787Y-107060604D01*
X161757396Y-107137213D01*
X161847477Y-107197403D01*
X161877888Y-107210000D01*
X161847477Y-107222597D01*
X161757396Y-107282787D01*
X161680787Y-107359396D01*
X161620597Y-107449477D01*
X161579136Y-107549571D01*
X161558000Y-107655830D01*
X161558000Y-107764170D01*
X161579136Y-107870429D01*
X161620597Y-107970523D01*
X161680787Y-108060604D01*
X161757396Y-108137213D01*
X161847477Y-108197403D01*
X161947571Y-108238864D01*
X162053830Y-108260000D01*
X162162170Y-108260000D01*
X162268429Y-108238864D01*
X162368523Y-108197403D01*
X162458604Y-108137213D01*
X162535213Y-108060604D01*
X162595403Y-107970523D01*
X162608000Y-107940112D01*
X162620597Y-107970523D01*
X162680787Y-108060604D01*
X162757396Y-108137213D01*
X162847477Y-108197403D01*
X162877888Y-108210000D01*
X162847477Y-108222597D01*
X162757396Y-108282787D01*
X162680787Y-108359396D01*
X162620597Y-108449477D01*
X162579136Y-108549571D01*
X162558000Y-108655830D01*
X162558000Y-108764170D01*
X162579136Y-108870429D01*
X162620597Y-108970523D01*
X162680787Y-109060604D01*
X162757396Y-109137213D01*
X162847477Y-109197403D01*
X162947571Y-109238864D01*
X163053830Y-109260000D01*
X163162170Y-109260000D01*
X163268429Y-109238864D01*
X163368523Y-109197403D01*
X163458604Y-109137213D01*
X163535213Y-109060604D01*
X163595403Y-108970523D01*
X163608000Y-108940112D01*
X163620597Y-108970523D01*
X163680787Y-109060604D01*
X163757396Y-109137213D01*
X163847477Y-109197403D01*
X163947571Y-109238864D01*
X164053830Y-109260000D01*
X164162170Y-109260000D01*
X164268429Y-109238864D01*
X164368523Y-109197403D01*
X164458604Y-109137213D01*
X164535213Y-109060604D01*
X164595403Y-108970523D01*
X164636864Y-108870429D01*
X164658000Y-108764170D01*
X164658000Y-108655830D01*
X164636864Y-108549571D01*
X164595403Y-108449477D01*
X164535213Y-108359396D01*
X164458604Y-108282787D01*
X164368523Y-108222597D01*
X164338112Y-108210000D01*
X164368523Y-108197403D01*
X164458604Y-108137213D01*
X164535213Y-108060604D01*
X164595403Y-107970523D01*
X164636864Y-107870429D01*
X164658000Y-107764170D01*
X164658000Y-107655830D01*
X164636864Y-107549571D01*
X164595403Y-107449477D01*
X164535213Y-107359396D01*
X164458604Y-107282787D01*
X164368523Y-107222597D01*
X164338112Y-107210000D01*
X164368523Y-107197403D01*
X164458604Y-107137213D01*
X164535213Y-107060604D01*
X164595403Y-106970523D01*
X164636864Y-106870429D01*
X164658000Y-106764170D01*
X164658000Y-106655830D01*
X164636864Y-106549571D01*
X164595403Y-106449477D01*
X164535213Y-106359396D01*
X164458604Y-106282787D01*
X164368523Y-106222597D01*
X164338112Y-106210000D01*
X164368523Y-106197403D01*
X164458604Y-106137213D01*
X164535213Y-106060604D01*
X164595403Y-105970523D01*
X164636864Y-105870429D01*
X164658000Y-105764170D01*
X164658000Y-105655830D01*
X164636864Y-105549571D01*
X164595403Y-105449477D01*
X164535213Y-105359396D01*
X164458604Y-105282787D01*
X164368523Y-105222597D01*
X164338112Y-105210000D01*
X164368523Y-105197403D01*
X164458604Y-105137213D01*
X164535213Y-105060604D01*
X164595403Y-104970523D01*
X164636864Y-104870429D01*
X164658000Y-104764170D01*
X164658000Y-104655830D01*
X164636864Y-104549571D01*
X164595403Y-104449477D01*
X164535213Y-104359396D01*
X164458604Y-104282787D01*
X164368523Y-104222597D01*
X164268429Y-104181136D01*
X164162170Y-104160000D01*
X164053830Y-104160000D01*
X163947571Y-104181136D01*
X163847477Y-104222597D01*
X163757396Y-104282787D01*
X163680787Y-104359396D01*
X163620597Y-104449477D01*
X163608000Y-104479888D01*
X163595403Y-104449477D01*
X163535213Y-104359396D01*
X163458604Y-104282787D01*
X163368523Y-104222597D01*
X163268429Y-104181136D01*
X163162170Y-104160000D01*
X163053830Y-104160000D01*
X162947571Y-104181136D01*
X162847477Y-104222597D01*
X162757396Y-104282787D01*
X162680787Y-104359396D01*
X162620597Y-104449477D01*
X162579136Y-104549571D01*
X162558000Y-104655830D01*
X162558000Y-104764170D01*
X162579136Y-104870429D01*
X162620597Y-104970523D01*
X162680787Y-105060604D01*
X162757396Y-105137213D01*
X162847477Y-105197403D01*
X162877888Y-105210000D01*
X162847477Y-105222597D01*
X162757396Y-105282787D01*
X162680787Y-105359396D01*
X162620597Y-105449477D01*
X162579136Y-105549571D01*
X162558000Y-105655830D01*
X162558000Y-105764170D01*
X162579136Y-105870429D01*
X162620597Y-105970523D01*
X162680787Y-106060604D01*
X162757396Y-106137213D01*
X162847477Y-106197403D01*
X162877888Y-106210000D01*
X162847477Y-106222597D01*
X162757396Y-106282787D01*
X162680787Y-106359396D01*
X162620597Y-106449477D01*
X162608000Y-106479888D01*
X162595403Y-106449477D01*
X162535213Y-106359396D01*
X162458604Y-106282787D01*
X162368523Y-106222597D01*
X162268429Y-106181136D01*
X162162170Y-106160000D01*
X162053830Y-106160000D01*
X161947571Y-106181136D01*
X161847477Y-106222597D01*
X161757396Y-106282787D01*
X161680787Y-106359396D01*
X161620597Y-106449477D01*
X161579136Y-106549571D01*
X161558000Y-106655830D01*
X158306000Y-106655830D01*
X158306000Y-106625421D01*
X158301196Y-106576649D01*
X158286970Y-106529750D01*
X158257681Y-106459040D01*
X158234578Y-106415818D01*
X158203488Y-106377934D01*
X156979209Y-105153655D01*
X156979209Y-103227000D01*
X156974382Y-103177992D01*
X156960087Y-103130866D01*
X156936873Y-103087436D01*
X156905632Y-103049368D01*
X156867564Y-103018127D01*
X156824134Y-102994913D01*
X156777008Y-102980618D01*
X156728000Y-102975791D01*
X153428000Y-102975791D01*
X153378992Y-102980618D01*
X153331866Y-102994913D01*
X153288436Y-103018127D01*
X153250368Y-103049368D01*
X153219127Y-103087436D01*
X153195913Y-103130866D01*
X153181618Y-103177992D01*
X153176791Y-103227000D01*
X127260000Y-103227000D01*
X127260000Y-101419830D01*
X130395502Y-101419830D01*
X130395502Y-101528170D01*
X130416638Y-101634429D01*
X130458099Y-101734523D01*
X130518289Y-101824604D01*
X130594898Y-101901213D01*
X130684979Y-101961403D01*
X130785073Y-102002864D01*
X130891332Y-102024000D01*
X130999672Y-102024000D01*
X131105931Y-102002864D01*
X131206025Y-101961403D01*
X131296106Y-101901213D01*
X131372715Y-101824604D01*
X131432905Y-101734523D01*
X131474366Y-101634429D01*
X131495502Y-101528170D01*
X131495502Y-101419830D01*
X131474366Y-101313571D01*
X131432905Y-101213477D01*
X131372715Y-101123396D01*
X131296106Y-101046787D01*
X131206025Y-100986597D01*
X131105931Y-100945136D01*
X130999672Y-100924000D01*
X130891332Y-100924000D01*
X130785073Y-100945136D01*
X130684979Y-100986597D01*
X130594898Y-101046787D01*
X130518289Y-101123396D01*
X130458099Y-101213477D01*
X130416638Y-101313571D01*
X130395502Y-101419830D01*
X127260000Y-101419830D01*
X127260000Y-101009924D01*
X127263144Y-100978000D01*
X127260000Y-100946076D01*
X127260000Y-100946068D01*
X127252654Y-100871481D01*
X134858500Y-100871481D01*
X134858500Y-100999519D01*
X134883479Y-101125098D01*
X134932478Y-101243390D01*
X135003612Y-101349851D01*
X135094149Y-101440388D01*
X135200610Y-101511522D01*
X135318902Y-101560521D01*
X135444481Y-101585500D01*
X135572519Y-101585500D01*
X135698098Y-101560521D01*
X135750099Y-101538981D01*
X148258500Y-101538981D01*
X148258500Y-101667019D01*
X148283479Y-101792598D01*
X148332478Y-101910890D01*
X148403612Y-102017351D01*
X148494149Y-102107888D01*
X148600610Y-102179022D01*
X148718902Y-102228021D01*
X148844481Y-102253000D01*
X148972519Y-102253000D01*
X149098098Y-102228021D01*
X149216390Y-102179022D01*
X149322851Y-102107888D01*
X149413388Y-102017351D01*
X149484522Y-101910890D01*
X149533521Y-101792598D01*
X149558500Y-101667019D01*
X149558500Y-101538981D01*
X149533521Y-101413402D01*
X149484522Y-101295110D01*
X149413388Y-101188649D01*
X149322851Y-101098112D01*
X149216390Y-101026978D01*
X149098098Y-100977979D01*
X148972519Y-100953000D01*
X148844481Y-100953000D01*
X148718902Y-100977979D01*
X148600610Y-101026978D01*
X148494149Y-101098112D01*
X148403612Y-101188649D01*
X148332478Y-101295110D01*
X148283479Y-101413402D01*
X148258500Y-101538981D01*
X135750099Y-101538981D01*
X135816390Y-101511522D01*
X135922851Y-101440388D01*
X136013388Y-101349851D01*
X136084522Y-101243390D01*
X136133521Y-101125098D01*
X136158500Y-100999519D01*
X136158500Y-100871481D01*
X136133521Y-100745902D01*
X136084522Y-100627610D01*
X136067064Y-100601481D01*
X152439000Y-100601481D01*
X152439000Y-100729519D01*
X152463979Y-100855098D01*
X152512978Y-100973390D01*
X152584112Y-101079851D01*
X152674649Y-101170388D01*
X152781110Y-101241522D01*
X152899402Y-101290521D01*
X153024981Y-101315500D01*
X153153019Y-101315500D01*
X153278598Y-101290521D01*
X153396890Y-101241522D01*
X153503351Y-101170388D01*
X153593888Y-101079851D01*
X153665022Y-100973390D01*
X153714021Y-100855098D01*
X153739000Y-100729519D01*
X153739000Y-100601481D01*
X153714021Y-100475902D01*
X153665022Y-100357610D01*
X153593888Y-100251149D01*
X153503351Y-100160612D01*
X153396890Y-100089478D01*
X153278598Y-100040479D01*
X153153019Y-100015500D01*
X153024981Y-100015500D01*
X152899402Y-100040479D01*
X152781110Y-100089478D01*
X152674649Y-100160612D01*
X152584112Y-100251149D01*
X152512978Y-100357610D01*
X152463979Y-100475902D01*
X152439000Y-100601481D01*
X136067064Y-100601481D01*
X136013388Y-100521149D01*
X135922851Y-100430612D01*
X135816390Y-100359478D01*
X135698098Y-100310479D01*
X135572519Y-100285500D01*
X135444481Y-100285500D01*
X135318902Y-100310479D01*
X135200610Y-100359478D01*
X135094149Y-100430612D01*
X135003612Y-100521149D01*
X134932478Y-100627610D01*
X134883479Y-100745902D01*
X134858500Y-100871481D01*
X127252654Y-100871481D01*
X127250595Y-100850578D01*
X127213427Y-100728052D01*
X127153070Y-100615132D01*
X127071843Y-100516157D01*
X127047038Y-100495800D01*
X125306219Y-98754981D01*
X130377500Y-98754981D01*
X130377500Y-98883019D01*
X130402479Y-99008598D01*
X130451478Y-99126890D01*
X130522612Y-99233351D01*
X130613149Y-99323888D01*
X130719610Y-99395022D01*
X130837902Y-99444021D01*
X130963481Y-99469000D01*
X131091519Y-99469000D01*
X131217098Y-99444021D01*
X131335390Y-99395022D01*
X131441851Y-99323888D01*
X131532388Y-99233351D01*
X131603522Y-99126890D01*
X131652521Y-99008598D01*
X131677500Y-98883019D01*
X131677500Y-98754981D01*
X131652521Y-98629402D01*
X131603522Y-98511110D01*
X131532388Y-98404649D01*
X131441851Y-98314112D01*
X131335390Y-98242978D01*
X131217098Y-98193979D01*
X131091519Y-98169000D01*
X130963481Y-98169000D01*
X130837902Y-98193979D01*
X130719610Y-98242978D01*
X130613149Y-98314112D01*
X130522612Y-98404649D01*
X130451478Y-98511110D01*
X130402479Y-98629402D01*
X130377500Y-98754981D01*
X125306219Y-98754981D01*
X124765000Y-98213762D01*
X124765000Y-95420238D01*
X125027543Y-95157696D01*
X125052343Y-95137343D01*
X125072696Y-95112543D01*
X125095388Y-95089851D01*
X125113214Y-95063171D01*
X125133570Y-95038368D01*
X125148697Y-95010067D01*
X125166522Y-94983390D01*
X125178800Y-94953748D01*
X125193927Y-94925448D01*
X125203241Y-94894744D01*
X125215521Y-94865098D01*
X125221781Y-94833625D01*
X125231095Y-94802922D01*
X125231224Y-94801611D01*
X125234240Y-94770990D01*
X125240500Y-94739519D01*
X125240500Y-94707432D01*
X125243645Y-94675500D01*
X125240500Y-94643568D01*
X125240500Y-94611481D01*
X125234240Y-94580010D01*
X125231095Y-94548078D01*
X125221781Y-94517375D01*
X125215521Y-94485902D01*
X125203241Y-94456256D01*
X125193927Y-94425552D01*
X125178800Y-94397252D01*
X125166522Y-94367610D01*
X125148697Y-94340933D01*
X125133570Y-94312632D01*
X125113215Y-94287830D01*
X125095388Y-94261149D01*
X125072696Y-94238457D01*
X125052343Y-94213657D01*
X125027543Y-94193304D01*
X125004851Y-94170612D01*
X124978170Y-94152785D01*
X124953368Y-94132430D01*
X124925067Y-94117303D01*
X124898390Y-94099478D01*
X124868748Y-94087200D01*
X124840448Y-94072073D01*
X124809744Y-94062759D01*
X124780098Y-94050479D01*
X124748625Y-94044219D01*
X124717922Y-94034905D01*
X124685990Y-94031760D01*
X124654519Y-94025500D01*
X124622424Y-94025500D01*
X124590500Y-94022356D01*
X124558576Y-94025500D01*
X123671421Y-94025500D01*
X123639500Y-94022356D01*
X123607579Y-94025500D01*
X123575481Y-94025500D01*
X123544010Y-94031760D01*
X123512078Y-94034905D01*
X123481375Y-94044219D01*
X123449902Y-94050479D01*
X123420256Y-94062759D01*
X123389552Y-94072073D01*
X123361252Y-94087200D01*
X123331610Y-94099478D01*
X123304933Y-94117303D01*
X123276632Y-94132430D01*
X123251830Y-94152785D01*
X123225149Y-94170612D01*
X123202457Y-94193304D01*
X123177657Y-94213657D01*
X123157304Y-94238457D01*
X123134612Y-94261149D01*
X123116785Y-94287830D01*
X123096430Y-94312632D01*
X123081303Y-94340933D01*
X123063478Y-94367610D01*
X123051200Y-94397252D01*
X123036073Y-94425552D01*
X123026759Y-94456256D01*
X123014479Y-94485902D01*
X123008219Y-94517375D01*
X122998905Y-94548078D01*
X122995760Y-94580010D01*
X122989500Y-94611481D01*
X122989500Y-94643568D01*
X122986355Y-94675500D01*
X122989500Y-94707432D01*
X122989500Y-94739519D01*
X122995760Y-94770990D01*
X122998905Y-94802922D01*
X123008219Y-94833625D01*
X123014479Y-94865098D01*
X123026759Y-94894744D01*
X123036073Y-94925448D01*
X123051200Y-94953748D01*
X123063478Y-94983390D01*
X123081303Y-95010067D01*
X123096430Y-95038368D01*
X123116785Y-95063170D01*
X123134612Y-95089851D01*
X123157304Y-95112543D01*
X123177657Y-95137343D01*
X123202457Y-95157696D01*
X123225149Y-95180388D01*
X123225152Y-95180390D01*
X123465001Y-95420240D01*
X123465000Y-98451078D01*
X123461856Y-98483000D01*
X123465000Y-98514921D01*
X123465000Y-98514931D01*
X123474405Y-98610421D01*
X123480163Y-98629402D01*
X123511573Y-98732947D01*
X123571930Y-98845868D01*
X123622369Y-98907328D01*
X123653157Y-98944843D01*
X123677962Y-98965200D01*
X125960001Y-101247239D01*
X125960001Y-101982909D01*
X125830830Y-101671064D01*
X125639314Y-101384440D01*
X125395560Y-101140686D01*
X125108936Y-100949170D01*
X124790456Y-100817251D01*
X124452360Y-100750000D01*
X124107640Y-100750000D01*
X123769544Y-100817251D01*
X123451064Y-100949170D01*
X123164440Y-101140686D01*
X122920686Y-101384440D01*
X122729170Y-101671064D01*
X122597251Y-101989544D01*
X122573291Y-102110000D01*
X121450000Y-102110000D01*
X121450000Y-93896584D01*
X125940000Y-93896584D01*
X125940000Y-94103416D01*
X125980350Y-94306274D01*
X126059502Y-94497362D01*
X126174411Y-94669336D01*
X126320664Y-94815589D01*
X126492638Y-94930498D01*
X126660429Y-95000000D01*
X126492638Y-95069502D01*
X126320664Y-95184411D01*
X126174411Y-95330664D01*
X126059502Y-95502638D01*
X125980350Y-95693726D01*
X125940000Y-95896584D01*
X125940000Y-96103416D01*
X125980350Y-96306274D01*
X126059502Y-96497362D01*
X126174411Y-96669336D01*
X126320664Y-96815589D01*
X126492638Y-96930498D01*
X126683726Y-97009650D01*
X126886584Y-97050000D01*
X127093416Y-97050000D01*
X127296274Y-97009650D01*
X127487362Y-96930498D01*
X127659336Y-96815589D01*
X127805589Y-96669336D01*
X127920498Y-96497362D01*
X127999650Y-96306274D01*
X128040000Y-96103416D01*
X128040000Y-95896584D01*
X127999650Y-95693726D01*
X127920498Y-95502638D01*
X127805589Y-95330664D01*
X127659336Y-95184411D01*
X127487362Y-95069502D01*
X127319571Y-95000000D01*
X127487362Y-94930498D01*
X127659336Y-94815589D01*
X127805589Y-94669336D01*
X127920498Y-94497362D01*
X127999650Y-94306274D01*
X128040000Y-94103416D01*
X128040000Y-93896584D01*
X127999650Y-93693726D01*
X127920498Y-93502638D01*
X127805589Y-93330664D01*
X127659336Y-93184411D01*
X127487362Y-93069502D01*
X127296274Y-92990350D01*
X127093416Y-92950000D01*
X126886584Y-92950000D01*
X126683726Y-92990350D01*
X126492638Y-93069502D01*
X126320664Y-93184411D01*
X126174411Y-93330664D01*
X126059502Y-93502638D01*
X125980350Y-93693726D01*
X125940000Y-93896584D01*
X121450000Y-93896584D01*
X121450000Y-90700000D01*
X125938791Y-90700000D01*
X125938791Y-92300000D01*
X125943618Y-92349008D01*
X125957913Y-92396134D01*
X125981127Y-92439564D01*
X126012368Y-92477632D01*
X126050436Y-92508873D01*
X126093866Y-92532087D01*
X126140992Y-92546382D01*
X126190000Y-92551209D01*
X127790000Y-92551209D01*
X127839008Y-92546382D01*
X127886134Y-92532087D01*
X127929564Y-92508873D01*
X127967632Y-92477632D01*
X127998873Y-92439564D01*
X128022087Y-92396134D01*
X128036382Y-92349008D01*
X128041209Y-92300000D01*
X128041209Y-90700000D01*
X128036382Y-90650992D01*
X128022087Y-90603866D01*
X127998873Y-90560436D01*
X127967632Y-90522368D01*
X127929564Y-90491127D01*
X127886134Y-90467913D01*
X127839008Y-90453618D01*
X127790000Y-90448791D01*
X126190000Y-90448791D01*
X126140992Y-90453618D01*
X126093866Y-90467913D01*
X126050436Y-90491127D01*
X126012368Y-90522368D01*
X125981127Y-90560436D01*
X125957913Y-90603866D01*
X125943618Y-90650992D01*
X125938791Y-90700000D01*
X121450000Y-90700000D01*
X121450000Y-87890000D01*
X122573291Y-87890000D01*
X122597251Y-88010456D01*
X122729170Y-88328936D01*
X122920686Y-88615560D01*
X123164440Y-88859314D01*
X123451064Y-89050830D01*
X123769544Y-89182749D01*
X124107640Y-89250000D01*
X124452360Y-89250000D01*
X124790456Y-89182749D01*
X125108936Y-89050830D01*
X125395560Y-88859314D01*
X125639314Y-88615560D01*
X125830830Y-88328936D01*
X125962749Y-88010456D01*
X126030000Y-87672360D01*
X126030000Y-87327640D01*
X125962749Y-86989544D01*
X125830830Y-86671064D01*
X125639314Y-86384440D01*
X125395560Y-86140686D01*
X125108936Y-85949170D01*
X124790456Y-85817251D01*
X124452360Y-85750000D01*
X124107640Y-85750000D01*
X123769544Y-85817251D01*
X123451064Y-85949170D01*
X123164440Y-86140686D01*
X122920686Y-86384440D01*
X122729170Y-86671064D01*
X122597251Y-86989544D01*
X122573291Y-87110000D01*
X121450000Y-87110000D01*
X121450000Y-84070000D01*
X126930678Y-84070000D01*
X126951916Y-84285638D01*
X127014816Y-84492988D01*
X127116958Y-84684084D01*
X127254419Y-84851581D01*
X127421916Y-84989042D01*
X127613012Y-85091184D01*
X127686000Y-85113325D01*
X127686000Y-85762034D01*
X127684307Y-85779222D01*
X127686000Y-85796410D01*
X127691065Y-85847833D01*
X127711078Y-85913808D01*
X127743578Y-85974611D01*
X127787315Y-86027906D01*
X127800676Y-86038871D01*
X139397135Y-97635332D01*
X139408094Y-97648686D01*
X139461389Y-97692423D01*
X139522192Y-97724923D01*
X139588167Y-97744936D01*
X139639590Y-97750001D01*
X139639592Y-97750001D01*
X139656778Y-97751694D01*
X139673964Y-97750001D01*
X147039515Y-97750001D01*
X148404142Y-99114629D01*
X148404000Y-99115343D01*
X148404000Y-99223683D01*
X148425136Y-99329942D01*
X148466597Y-99430036D01*
X148526787Y-99520117D01*
X148603396Y-99596726D01*
X148693477Y-99656916D01*
X148793571Y-99698377D01*
X148899830Y-99719513D01*
X149008170Y-99719513D01*
X149114429Y-99698377D01*
X149214523Y-99656916D01*
X149304604Y-99596726D01*
X149381213Y-99520117D01*
X149441403Y-99430036D01*
X149482864Y-99329942D01*
X149504000Y-99223683D01*
X149504000Y-99115343D01*
X149482864Y-99009084D01*
X149441403Y-98908990D01*
X149381213Y-98818909D01*
X149304604Y-98742300D01*
X149214523Y-98682110D01*
X149114429Y-98640649D01*
X149008170Y-98619513D01*
X148899830Y-98619513D01*
X148899116Y-98619655D01*
X147725442Y-97445981D01*
X149009213Y-97445981D01*
X149009213Y-97574019D01*
X149034192Y-97699598D01*
X149083191Y-97817890D01*
X149154325Y-97924351D01*
X149244862Y-98014888D01*
X149351323Y-98086022D01*
X149469615Y-98135021D01*
X149595194Y-98160000D01*
X149723232Y-98160000D01*
X149848811Y-98135021D01*
X149967103Y-98086022D01*
X150073564Y-98014888D01*
X150164101Y-97924351D01*
X150235235Y-97817890D01*
X150284234Y-97699598D01*
X150309213Y-97574019D01*
X150309213Y-97445981D01*
X150291709Y-97357981D01*
X151699000Y-97357981D01*
X151699000Y-97486019D01*
X151723979Y-97611598D01*
X151772978Y-97729890D01*
X151844112Y-97836351D01*
X151934649Y-97926888D01*
X152041110Y-97998022D01*
X152159402Y-98047021D01*
X152284981Y-98072000D01*
X152413019Y-98072000D01*
X152538598Y-98047021D01*
X152656890Y-97998022D01*
X152763351Y-97926888D01*
X152853888Y-97836351D01*
X152925022Y-97729890D01*
X152974021Y-97611598D01*
X152999000Y-97486019D01*
X152999000Y-97357981D01*
X152974021Y-97232402D01*
X152925022Y-97114110D01*
X152853888Y-97007649D01*
X152763351Y-96917112D01*
X152656890Y-96845978D01*
X152538598Y-96796979D01*
X152413019Y-96772000D01*
X152284981Y-96772000D01*
X152159402Y-96796979D01*
X152041110Y-96845978D01*
X151934649Y-96917112D01*
X151844112Y-97007649D01*
X151772978Y-97114110D01*
X151723979Y-97232402D01*
X151699000Y-97357981D01*
X150291709Y-97357981D01*
X150284234Y-97320402D01*
X150235235Y-97202110D01*
X150164101Y-97095649D01*
X150073564Y-97005112D01*
X149967103Y-96933978D01*
X149848811Y-96884979D01*
X149723232Y-96860000D01*
X149595194Y-96860000D01*
X149469615Y-96884979D01*
X149351323Y-96933978D01*
X149244862Y-97005112D01*
X149154325Y-97095649D01*
X149083191Y-97202110D01*
X149034192Y-97320402D01*
X149009213Y-97445981D01*
X147725442Y-97445981D01*
X147444142Y-97164681D01*
X147433173Y-97151316D01*
X147379878Y-97107579D01*
X147319075Y-97075079D01*
X147253100Y-97055066D01*
X147201677Y-97050001D01*
X147201676Y-97050001D01*
X147184488Y-97048308D01*
X147167300Y-97050001D01*
X139801754Y-97050001D01*
X137755250Y-95003498D01*
X137840598Y-94986521D01*
X137958890Y-94937522D01*
X138065351Y-94866388D01*
X138155888Y-94775851D01*
X138227022Y-94669390D01*
X138276021Y-94551098D01*
X138301000Y-94425519D01*
X138301000Y-94297481D01*
X138276021Y-94171902D01*
X138265226Y-94145840D01*
X139603000Y-94145840D01*
X139603000Y-94254180D01*
X139624136Y-94360439D01*
X139665597Y-94460533D01*
X139725787Y-94550614D01*
X139802396Y-94627223D01*
X139892477Y-94687413D01*
X139898620Y-94689958D01*
X139895597Y-94694482D01*
X139854136Y-94794576D01*
X139833000Y-94900835D01*
X139833000Y-95009175D01*
X139854136Y-95115434D01*
X139895597Y-95215528D01*
X139955787Y-95305609D01*
X140032396Y-95382218D01*
X140122477Y-95442408D01*
X140222571Y-95483869D01*
X140328830Y-95505005D01*
X140437170Y-95505005D01*
X140543429Y-95483869D01*
X140643523Y-95442408D01*
X140733604Y-95382218D01*
X140810213Y-95305609D01*
X140870403Y-95215528D01*
X140911864Y-95115434D01*
X140933000Y-95009175D01*
X140933000Y-94900835D01*
X140911864Y-94794576D01*
X140870403Y-94694482D01*
X140810213Y-94604401D01*
X140733604Y-94527792D01*
X140643523Y-94467602D01*
X140637380Y-94465057D01*
X140640403Y-94460533D01*
X140681864Y-94360439D01*
X140703000Y-94254180D01*
X140703000Y-94145840D01*
X140681864Y-94039581D01*
X140640403Y-93939487D01*
X140580213Y-93849406D01*
X140503604Y-93772797D01*
X140413523Y-93712607D01*
X140313429Y-93671146D01*
X140207170Y-93650010D01*
X140098830Y-93650010D01*
X139992571Y-93671146D01*
X139892477Y-93712607D01*
X139802396Y-93772797D01*
X139725787Y-93849406D01*
X139665597Y-93939487D01*
X139624136Y-94039581D01*
X139603000Y-94145840D01*
X138265226Y-94145840D01*
X138227022Y-94053610D01*
X138155888Y-93947149D01*
X138065351Y-93856612D01*
X137958890Y-93785478D01*
X137840598Y-93736479D01*
X137715019Y-93711500D01*
X137586981Y-93711500D01*
X137461402Y-93736479D01*
X137343110Y-93785478D01*
X137236649Y-93856612D01*
X137146112Y-93947149D01*
X137074978Y-94053610D01*
X137025979Y-94171902D01*
X137009002Y-94257250D01*
X130212752Y-87461000D01*
X134880221Y-87461000D01*
X134880221Y-89261000D01*
X134885048Y-89310008D01*
X134899343Y-89357134D01*
X134922557Y-89400564D01*
X134953798Y-89438632D01*
X134991866Y-89469873D01*
X135035296Y-89493087D01*
X135082422Y-89507382D01*
X135131430Y-89512209D01*
X135284781Y-89512209D01*
X135286495Y-89529611D01*
X135301377Y-89578668D01*
X135306509Y-89595587D01*
X135339009Y-89656390D01*
X135382746Y-89709685D01*
X135396106Y-89720649D01*
X136335070Y-90659615D01*
X136346030Y-90672970D01*
X136399245Y-90716641D01*
X136399325Y-90716707D01*
X136460128Y-90749207D01*
X136526103Y-90769220D01*
X136594715Y-90775978D01*
X136611904Y-90774285D01*
X139145312Y-90774285D01*
X141206354Y-92835329D01*
X141217314Y-92848684D01*
X141270609Y-92892421D01*
X141331412Y-92924921D01*
X141397387Y-92944934D01*
X141448810Y-92949999D01*
X141448812Y-92949999D01*
X141465998Y-92951692D01*
X141483184Y-92949999D01*
X146919027Y-92949999D01*
X147050001Y-93080974D01*
X147050002Y-93462803D01*
X147048308Y-93480001D01*
X147055066Y-93548612D01*
X147075080Y-93614588D01*
X147107580Y-93675391D01*
X147151317Y-93728686D01*
X147164677Y-93739650D01*
X148303000Y-94877975D01*
X148303000Y-95068212D01*
X148301307Y-95085400D01*
X148303000Y-95102588D01*
X148303000Y-95102589D01*
X148308065Y-95154012D01*
X148328079Y-95219987D01*
X148360579Y-95280790D01*
X148404316Y-95334085D01*
X148417676Y-95345049D01*
X148998942Y-95926316D01*
X148998800Y-95927030D01*
X148998800Y-96035370D01*
X149019936Y-96141629D01*
X149061397Y-96241723D01*
X149121587Y-96331804D01*
X149198196Y-96408413D01*
X149288277Y-96468603D01*
X149388371Y-96510064D01*
X149494630Y-96531200D01*
X149602970Y-96531200D01*
X149709229Y-96510064D01*
X149809323Y-96468603D01*
X149871586Y-96427000D01*
X153176791Y-96427000D01*
X153176791Y-98927000D01*
X153181618Y-98976008D01*
X153195913Y-99023134D01*
X153219127Y-99066564D01*
X153250368Y-99104632D01*
X153288436Y-99135873D01*
X153331866Y-99159087D01*
X153378992Y-99173382D01*
X153428000Y-99178209D01*
X156728000Y-99178209D01*
X156777008Y-99173382D01*
X156824134Y-99159087D01*
X156867564Y-99135873D01*
X156905632Y-99104632D01*
X156936873Y-99066564D01*
X156960087Y-99023134D01*
X156974382Y-98976008D01*
X156979209Y-98927000D01*
X156979209Y-97122746D01*
X156981787Y-97126604D01*
X157058396Y-97203213D01*
X157148477Y-97263403D01*
X157248571Y-97304864D01*
X157354830Y-97326000D01*
X157463170Y-97326000D01*
X157569429Y-97304864D01*
X157669523Y-97263403D01*
X157759604Y-97203213D01*
X157836213Y-97126604D01*
X157896403Y-97036523D01*
X157937864Y-96936429D01*
X157959000Y-96830170D01*
X157959000Y-96721830D01*
X157937864Y-96615571D01*
X157896403Y-96515477D01*
X157836213Y-96425396D01*
X157759604Y-96348787D01*
X157669523Y-96288597D01*
X157569429Y-96247136D01*
X157463170Y-96226000D01*
X157354830Y-96226000D01*
X157264608Y-96243946D01*
X157366895Y-96141659D01*
X159910000Y-96141659D01*
X159910000Y-96358341D01*
X159952273Y-96570858D01*
X160035193Y-96771045D01*
X160155575Y-96951209D01*
X160308791Y-97104425D01*
X160488955Y-97224807D01*
X160689142Y-97307727D01*
X160901659Y-97350000D01*
X161118341Y-97350000D01*
X161330858Y-97307727D01*
X161531045Y-97224807D01*
X161711209Y-97104425D01*
X161864425Y-96951209D01*
X161984807Y-96771045D01*
X162010000Y-96710224D01*
X162035193Y-96771045D01*
X162155575Y-96951209D01*
X162308791Y-97104425D01*
X162488955Y-97224807D01*
X162689142Y-97307727D01*
X162901659Y-97350000D01*
X163118341Y-97350000D01*
X163330858Y-97307727D01*
X163531045Y-97224807D01*
X163711209Y-97104425D01*
X163864425Y-96951209D01*
X163984807Y-96771045D01*
X164067727Y-96570858D01*
X164110000Y-96358341D01*
X164110000Y-96141659D01*
X164067727Y-95929142D01*
X163984807Y-95728955D01*
X163864425Y-95548791D01*
X163711209Y-95395575D01*
X163531045Y-95275193D01*
X163330858Y-95192273D01*
X163118341Y-95150000D01*
X162901659Y-95150000D01*
X162689142Y-95192273D01*
X162488955Y-95275193D01*
X162308791Y-95395575D01*
X162155575Y-95548791D01*
X162035193Y-95728955D01*
X162010000Y-95789776D01*
X161984807Y-95728955D01*
X161864425Y-95548791D01*
X161711209Y-95395575D01*
X161531045Y-95275193D01*
X161330858Y-95192273D01*
X161118341Y-95150000D01*
X160901659Y-95150000D01*
X160689142Y-95192273D01*
X160488955Y-95275193D01*
X160308791Y-95395575D01*
X160155575Y-95548791D01*
X160035193Y-95728955D01*
X159952273Y-95929142D01*
X159910000Y-96141659D01*
X157366895Y-96141659D01*
X158658554Y-94850000D01*
X160147725Y-94850000D01*
X160160000Y-94851209D01*
X161860000Y-94851209D01*
X161909008Y-94846382D01*
X161956134Y-94832087D01*
X161999564Y-94808873D01*
X162037632Y-94777632D01*
X162068873Y-94739564D01*
X162092087Y-94696134D01*
X162106382Y-94649008D01*
X162111209Y-94600000D01*
X162111209Y-92900000D01*
X162106382Y-92850992D01*
X162092087Y-92803866D01*
X162068873Y-92760436D01*
X162037632Y-92722368D01*
X161999564Y-92691127D01*
X161956134Y-92667913D01*
X161909008Y-92653618D01*
X161860000Y-92648791D01*
X160160000Y-92648791D01*
X160147725Y-92650000D01*
X156996421Y-92650000D01*
X156947649Y-92654804D01*
X156900750Y-92669030D01*
X156830040Y-92698319D01*
X156786818Y-92721422D01*
X156748934Y-92752512D01*
X153280512Y-96220934D01*
X153271223Y-96232253D01*
X153250368Y-96249368D01*
X153219127Y-96287436D01*
X153195913Y-96330866D01*
X153181618Y-96377992D01*
X153176791Y-96427000D01*
X149871586Y-96427000D01*
X149899404Y-96408413D01*
X149976013Y-96331804D01*
X150036203Y-96241723D01*
X150077664Y-96141629D01*
X150098800Y-96035370D01*
X150098800Y-95927030D01*
X150077664Y-95820771D01*
X150036203Y-95720677D01*
X149976013Y-95630596D01*
X149899404Y-95553987D01*
X149809323Y-95493797D01*
X149709229Y-95452336D01*
X149602970Y-95431200D01*
X149494630Y-95431200D01*
X149493916Y-95431342D01*
X149438217Y-95375642D01*
X149530533Y-95337403D01*
X149620614Y-95277213D01*
X149697223Y-95200604D01*
X149757413Y-95110523D01*
X149798874Y-95010429D01*
X149820010Y-94904170D01*
X149820010Y-94795830D01*
X149798874Y-94689571D01*
X149757413Y-94589477D01*
X149697223Y-94499396D01*
X149620614Y-94422787D01*
X149530533Y-94362597D01*
X149430439Y-94321136D01*
X149324180Y-94300000D01*
X149215840Y-94300000D01*
X149215126Y-94300142D01*
X148100009Y-93185026D01*
X148100009Y-92808208D01*
X148101702Y-92791019D01*
X148094944Y-92722407D01*
X148084299Y-92687315D01*
X148074931Y-92656432D01*
X148042431Y-92595629D01*
X147998693Y-92542334D01*
X147985338Y-92531374D01*
X147468632Y-92014669D01*
X147457664Y-92001304D01*
X147404369Y-91957567D01*
X147343566Y-91925067D01*
X147295482Y-91910481D01*
X150952000Y-91910481D01*
X150952000Y-92038519D01*
X150976979Y-92164098D01*
X151025978Y-92282390D01*
X151097112Y-92388851D01*
X151187649Y-92479388D01*
X151294110Y-92550522D01*
X151412402Y-92599521D01*
X151537981Y-92624500D01*
X151666019Y-92624500D01*
X151791598Y-92599521D01*
X151909890Y-92550522D01*
X152016351Y-92479388D01*
X152106888Y-92388851D01*
X152178022Y-92282390D01*
X152227021Y-92164098D01*
X152252000Y-92038519D01*
X152252000Y-91910481D01*
X152227021Y-91784902D01*
X152178022Y-91666610D01*
X152106888Y-91560149D01*
X152016351Y-91469612D01*
X151909890Y-91398478D01*
X151791598Y-91349479D01*
X151666019Y-91324500D01*
X151537981Y-91324500D01*
X151412402Y-91349479D01*
X151294110Y-91398478D01*
X151187649Y-91469612D01*
X151097112Y-91560149D01*
X151025978Y-91666610D01*
X150976979Y-91784902D01*
X150952000Y-91910481D01*
X147295482Y-91910481D01*
X147277591Y-91905054D01*
X147226168Y-91899989D01*
X147226167Y-91899989D01*
X147208979Y-91898296D01*
X147191791Y-91899989D01*
X141765393Y-91899989D01*
X138882639Y-89017237D01*
X138882639Y-87461000D01*
X139880221Y-87461000D01*
X139880221Y-89261000D01*
X139885048Y-89310008D01*
X139899343Y-89357134D01*
X139922557Y-89400564D01*
X139953798Y-89438632D01*
X139991866Y-89469873D01*
X140035296Y-89493087D01*
X140082422Y-89507382D01*
X140131430Y-89512209D01*
X141131430Y-89512209D01*
X141180438Y-89507382D01*
X141227564Y-89493087D01*
X141270994Y-89469873D01*
X141309062Y-89438632D01*
X141340303Y-89400564D01*
X141363517Y-89357134D01*
X141377812Y-89310008D01*
X141382639Y-89261000D01*
X141382639Y-88923803D01*
X141388821Y-88926364D01*
X141495080Y-88947500D01*
X141603420Y-88947500D01*
X141709679Y-88926364D01*
X141809773Y-88884903D01*
X141899854Y-88824713D01*
X141976463Y-88748104D01*
X142031430Y-88665840D01*
X142031430Y-89550227D01*
X141674516Y-89907142D01*
X141673802Y-89907000D01*
X141565462Y-89907000D01*
X141459203Y-89928136D01*
X141359109Y-89969597D01*
X141269028Y-90029787D01*
X141192419Y-90106396D01*
X141132229Y-90196477D01*
X141090768Y-90296571D01*
X141069632Y-90402830D01*
X141069632Y-90511170D01*
X141090768Y-90617429D01*
X141132229Y-90717523D01*
X141192419Y-90807604D01*
X141269028Y-90884213D01*
X141359109Y-90944403D01*
X141459203Y-90985864D01*
X141565462Y-91007000D01*
X141673802Y-91007000D01*
X141780061Y-90985864D01*
X141880155Y-90944403D01*
X141970236Y-90884213D01*
X142046816Y-90807633D01*
X142123396Y-90884213D01*
X142213477Y-90944403D01*
X142313571Y-90985864D01*
X142419830Y-91007000D01*
X142528170Y-91007000D01*
X142634429Y-90985864D01*
X142734523Y-90944403D01*
X142824604Y-90884213D01*
X142901213Y-90807604D01*
X142961403Y-90717523D01*
X143002864Y-90617429D01*
X143024000Y-90511170D01*
X143024000Y-90402830D01*
X143023858Y-90402116D01*
X143261975Y-90164000D01*
X143602812Y-90164000D01*
X143620000Y-90165693D01*
X143637188Y-90164000D01*
X143637189Y-90164000D01*
X143688612Y-90158935D01*
X143754587Y-90138922D01*
X143815390Y-90106422D01*
X143868685Y-90062685D01*
X143879653Y-90049320D01*
X144176001Y-89752973D01*
X144176000Y-90029383D01*
X144175396Y-90029787D01*
X144098787Y-90106396D01*
X144038597Y-90196477D01*
X143997136Y-90296571D01*
X143976000Y-90402830D01*
X143976000Y-90511170D01*
X143997136Y-90617429D01*
X144038597Y-90717523D01*
X144098787Y-90807604D01*
X144175396Y-90884213D01*
X144265477Y-90944403D01*
X144365571Y-90985864D01*
X144471830Y-91007000D01*
X144580170Y-91007000D01*
X144686429Y-90985864D01*
X144786523Y-90944403D01*
X144876604Y-90884213D01*
X144953213Y-90807604D01*
X144963078Y-90792840D01*
X144982487Y-90890419D01*
X145023948Y-90990513D01*
X145084138Y-91080594D01*
X145160747Y-91157203D01*
X145250828Y-91217393D01*
X145350922Y-91258854D01*
X145457181Y-91279990D01*
X145565521Y-91279990D01*
X145671780Y-91258854D01*
X145771874Y-91217393D01*
X145861955Y-91157203D01*
X145938564Y-91080594D01*
X145938968Y-91079990D01*
X146276822Y-91079990D01*
X146294010Y-91081683D01*
X146311198Y-91079990D01*
X146311199Y-91079990D01*
X146362622Y-91074925D01*
X146428597Y-91054912D01*
X146489400Y-91022412D01*
X146542695Y-90978675D01*
X146553663Y-90965310D01*
X147029049Y-90489925D01*
X147114344Y-90404630D01*
X147127694Y-90393675D01*
X147158882Y-90355673D01*
X147171432Y-90340380D01*
X147203932Y-90279577D01*
X147223945Y-90213602D01*
X147230703Y-90144990D01*
X147229010Y-90127801D01*
X147229010Y-87461000D01*
X147380221Y-87461000D01*
X147380221Y-89261000D01*
X147385048Y-89310008D01*
X147399343Y-89357134D01*
X147422557Y-89400564D01*
X147453798Y-89438632D01*
X147491866Y-89469873D01*
X147535296Y-89493087D01*
X147582422Y-89507382D01*
X147615383Y-89510628D01*
X147602566Y-89541571D01*
X147581430Y-89647830D01*
X147581430Y-89756170D01*
X147602566Y-89862429D01*
X147644027Y-89962523D01*
X147704217Y-90052604D01*
X147780826Y-90129213D01*
X147870907Y-90189403D01*
X147971001Y-90230864D01*
X148077260Y-90252000D01*
X148185600Y-90252000D01*
X148291859Y-90230864D01*
X148391953Y-90189403D01*
X148482034Y-90129213D01*
X148558643Y-90052604D01*
X148618833Y-89962523D01*
X148620093Y-89959481D01*
X150952000Y-89959481D01*
X150952000Y-90087519D01*
X150976979Y-90213098D01*
X151025978Y-90331390D01*
X151097112Y-90437851D01*
X151187649Y-90528388D01*
X151294110Y-90599522D01*
X151412402Y-90648521D01*
X151537981Y-90673500D01*
X151666019Y-90673500D01*
X151791598Y-90648521D01*
X151909890Y-90599522D01*
X152016351Y-90528388D01*
X152106888Y-90437851D01*
X152178022Y-90331390D01*
X152227021Y-90213098D01*
X152252000Y-90087519D01*
X152252000Y-89959481D01*
X152227021Y-89833902D01*
X152178022Y-89715610D01*
X152106888Y-89609149D01*
X152016351Y-89518612D01*
X151909890Y-89447478D01*
X151791598Y-89398479D01*
X151666019Y-89373500D01*
X151537981Y-89373500D01*
X151412402Y-89398479D01*
X151294110Y-89447478D01*
X151187649Y-89518612D01*
X151097112Y-89609149D01*
X151025978Y-89715610D01*
X150976979Y-89833902D01*
X150952000Y-89959481D01*
X148620093Y-89959481D01*
X148660294Y-89862429D01*
X148681430Y-89756170D01*
X148681430Y-89647830D01*
X148660294Y-89541571D01*
X148647477Y-89510628D01*
X148680438Y-89507382D01*
X148727564Y-89493087D01*
X148770994Y-89469873D01*
X148809062Y-89438632D01*
X148840303Y-89400564D01*
X148863517Y-89357134D01*
X148877812Y-89310008D01*
X148882639Y-89261000D01*
X148882639Y-87461000D01*
X148877812Y-87411992D01*
X148863517Y-87364866D01*
X148840303Y-87321436D01*
X148809062Y-87283368D01*
X148770994Y-87252127D01*
X148727564Y-87228913D01*
X148680438Y-87214618D01*
X148631430Y-87209791D01*
X147631430Y-87209791D01*
X147582422Y-87214618D01*
X147535296Y-87228913D01*
X147491866Y-87252127D01*
X147453798Y-87283368D01*
X147422557Y-87321436D01*
X147399343Y-87364866D01*
X147385048Y-87411992D01*
X147380221Y-87461000D01*
X147229010Y-87461000D01*
X147229010Y-87081951D01*
X148468963Y-85841999D01*
X149991615Y-85841999D01*
X149963478Y-85884110D01*
X149914479Y-86002402D01*
X149889500Y-86127981D01*
X149889500Y-86256019D01*
X149914479Y-86381598D01*
X149963478Y-86499890D01*
X150034612Y-86606351D01*
X150125149Y-86696888D01*
X150231610Y-86768022D01*
X150349902Y-86817021D01*
X150475481Y-86842000D01*
X150603519Y-86842000D01*
X150729098Y-86817021D01*
X150847390Y-86768022D01*
X150953851Y-86696888D01*
X151044388Y-86606351D01*
X151115522Y-86499890D01*
X151164521Y-86381598D01*
X151189500Y-86256019D01*
X151189500Y-86127981D01*
X151164521Y-86002402D01*
X151115522Y-85884110D01*
X151087385Y-85841999D01*
X151217456Y-85841999D01*
X152589387Y-87213932D01*
X152582422Y-87214618D01*
X152535296Y-87228913D01*
X152491866Y-87252127D01*
X152453798Y-87283368D01*
X152422557Y-87321436D01*
X152399343Y-87364866D01*
X152385048Y-87411992D01*
X152380221Y-87461000D01*
X152380221Y-89261000D01*
X152385048Y-89310008D01*
X152399343Y-89357134D01*
X152422557Y-89400564D01*
X152453798Y-89438632D01*
X152491866Y-89469873D01*
X152535296Y-89493087D01*
X152582422Y-89507382D01*
X152631430Y-89512209D01*
X153631430Y-89512209D01*
X153680438Y-89507382D01*
X153727564Y-89493087D01*
X153770994Y-89469873D01*
X153809062Y-89438632D01*
X153840303Y-89400564D01*
X153863517Y-89357134D01*
X153877812Y-89310008D01*
X153882639Y-89261000D01*
X153882639Y-87557184D01*
X154030221Y-87704766D01*
X154030221Y-89261000D01*
X154035048Y-89310008D01*
X154049343Y-89357134D01*
X154072557Y-89400564D01*
X154103798Y-89438632D01*
X154141866Y-89469873D01*
X154185296Y-89493087D01*
X154232422Y-89507382D01*
X154281430Y-89512209D01*
X155281430Y-89512209D01*
X155330438Y-89507382D01*
X155377564Y-89493087D01*
X155420994Y-89469873D01*
X155459062Y-89438632D01*
X155490303Y-89400564D01*
X155506415Y-89370421D01*
X155522527Y-89400564D01*
X155553768Y-89438632D01*
X155591836Y-89469873D01*
X155635266Y-89493087D01*
X155682392Y-89507382D01*
X155731400Y-89512209D01*
X156431400Y-89512209D01*
X156480408Y-89507382D01*
X156527534Y-89493087D01*
X156570964Y-89469873D01*
X156609032Y-89438632D01*
X156640273Y-89400564D01*
X156663487Y-89357134D01*
X156677782Y-89310008D01*
X156681400Y-89273275D01*
X156685018Y-89310008D01*
X156699313Y-89357134D01*
X156722527Y-89400564D01*
X156753768Y-89438632D01*
X156791836Y-89469873D01*
X156835266Y-89493087D01*
X156882392Y-89507382D01*
X156931400Y-89512209D01*
X157631400Y-89512209D01*
X157680408Y-89507382D01*
X157727534Y-89493087D01*
X157770964Y-89469873D01*
X157809032Y-89438632D01*
X157840273Y-89400564D01*
X157863487Y-89357134D01*
X157877782Y-89310008D01*
X157882609Y-89261000D01*
X157882609Y-87461000D01*
X157877782Y-87411992D01*
X157863487Y-87364866D01*
X157840273Y-87321436D01*
X157809032Y-87283368D01*
X157770964Y-87252127D01*
X157727534Y-87228913D01*
X157680408Y-87214618D01*
X157631400Y-87209791D01*
X157628049Y-87209791D01*
X157626335Y-87192388D01*
X157606322Y-87126413D01*
X157573822Y-87065610D01*
X157541042Y-87025667D01*
X157530085Y-87012315D01*
X157516730Y-87001355D01*
X157295053Y-86779680D01*
X157284085Y-86766315D01*
X157230790Y-86722578D01*
X157169987Y-86690078D01*
X157104012Y-86670065D01*
X157052589Y-86665000D01*
X157052588Y-86665000D01*
X157035400Y-86663307D01*
X157018212Y-86665000D01*
X156475363Y-86665000D01*
X155132720Y-85322358D01*
X155600000Y-85322358D01*
X155600000Y-85499642D01*
X155634586Y-85673520D01*
X155702430Y-85837310D01*
X155800924Y-85984717D01*
X155926283Y-86110076D01*
X156073690Y-86208570D01*
X156237480Y-86276414D01*
X156411358Y-86311000D01*
X156588642Y-86311000D01*
X156762520Y-86276414D01*
X156926310Y-86208570D01*
X157073717Y-86110076D01*
X157199076Y-85984717D01*
X157297570Y-85837310D01*
X157365414Y-85673520D01*
X157400000Y-85499642D01*
X157400000Y-85322358D01*
X157365414Y-85148480D01*
X157297570Y-84984690D01*
X157199076Y-84837283D01*
X157073717Y-84711924D01*
X156926310Y-84613430D01*
X156762520Y-84545586D01*
X156588642Y-84511000D01*
X156411358Y-84511000D01*
X156237480Y-84545586D01*
X156073690Y-84613430D01*
X155926283Y-84711924D01*
X155800924Y-84837283D01*
X155702430Y-84984690D01*
X155634586Y-85148480D01*
X155600000Y-85322358D01*
X155132720Y-85322358D01*
X154017010Y-84206649D01*
X154006042Y-84193284D01*
X153952747Y-84149547D01*
X153891944Y-84117047D01*
X153825969Y-84097034D01*
X153774546Y-84091969D01*
X153774545Y-84091969D01*
X153757357Y-84090276D01*
X153740169Y-84091969D01*
X144415220Y-84091969D01*
X144398031Y-84090276D01*
X144329419Y-84097034D01*
X144263443Y-84117047D01*
X144242264Y-84128368D01*
X144202641Y-84149547D01*
X144149346Y-84193284D01*
X144138382Y-84206644D01*
X142146105Y-86198922D01*
X142132744Y-86209887D01*
X142089007Y-86263182D01*
X142056507Y-86323985D01*
X142036494Y-86389959D01*
X142036494Y-86389960D01*
X142029736Y-86458571D01*
X142031429Y-86475759D01*
X142031430Y-88129159D01*
X141976463Y-88046896D01*
X141899854Y-87970287D01*
X141809773Y-87910097D01*
X141709679Y-87868636D01*
X141603420Y-87847500D01*
X141495080Y-87847500D01*
X141388821Y-87868636D01*
X141382639Y-87871197D01*
X141382639Y-87461000D01*
X141377812Y-87411992D01*
X141363517Y-87364866D01*
X141340303Y-87321436D01*
X141309062Y-87283368D01*
X141270994Y-87252127D01*
X141227564Y-87228913D01*
X141180438Y-87214618D01*
X141131430Y-87209791D01*
X140131430Y-87209791D01*
X140082422Y-87214618D01*
X140035296Y-87228913D01*
X139991866Y-87252127D01*
X139953798Y-87283368D01*
X139922557Y-87321436D01*
X139899343Y-87364866D01*
X139885048Y-87411992D01*
X139880221Y-87461000D01*
X138882639Y-87461000D01*
X138877812Y-87411992D01*
X138863517Y-87364866D01*
X138840303Y-87321436D01*
X138809062Y-87283368D01*
X138770994Y-87252127D01*
X138727564Y-87228913D01*
X138680438Y-87214618D01*
X138631430Y-87209791D01*
X137631430Y-87209791D01*
X137582422Y-87214618D01*
X137535296Y-87228913D01*
X137491866Y-87252127D01*
X137453798Y-87283368D01*
X137422557Y-87321436D01*
X137399343Y-87364866D01*
X137385048Y-87411992D01*
X137380221Y-87461000D01*
X137380221Y-89082217D01*
X137363781Y-89065777D01*
X137257320Y-88994643D01*
X137139028Y-88945644D01*
X137013449Y-88920665D01*
X136885411Y-88920665D01*
X136759832Y-88945644D01*
X136641540Y-88994643D01*
X136535079Y-89065777D01*
X136444542Y-89156314D01*
X136382639Y-89248960D01*
X136382639Y-87461000D01*
X136377812Y-87411992D01*
X136363517Y-87364866D01*
X136340303Y-87321436D01*
X136309062Y-87283368D01*
X136270994Y-87252127D01*
X136227564Y-87228913D01*
X136180438Y-87214618D01*
X136131430Y-87209791D01*
X135131430Y-87209791D01*
X135082422Y-87214618D01*
X135035296Y-87228913D01*
X134991866Y-87252127D01*
X134953798Y-87283368D01*
X134922557Y-87321436D01*
X134899343Y-87364866D01*
X134885048Y-87411992D01*
X134880221Y-87461000D01*
X130212752Y-87461000D01*
X128386000Y-85634249D01*
X128386000Y-85297735D01*
X134350000Y-85297735D01*
X134350000Y-85524265D01*
X134394194Y-85746443D01*
X134480884Y-85955729D01*
X134606737Y-86144082D01*
X134766918Y-86304263D01*
X134955271Y-86430116D01*
X135164557Y-86516806D01*
X135386735Y-86561000D01*
X135613265Y-86561000D01*
X135835443Y-86516806D01*
X136044729Y-86430116D01*
X136233082Y-86304263D01*
X136393263Y-86144082D01*
X136519116Y-85955729D01*
X136605806Y-85746443D01*
X136650000Y-85524265D01*
X136650000Y-85297735D01*
X136605806Y-85075557D01*
X136519116Y-84866271D01*
X136393263Y-84677918D01*
X136233082Y-84517737D01*
X136044729Y-84391884D01*
X135835443Y-84305194D01*
X135613265Y-84261000D01*
X135386735Y-84261000D01*
X135164557Y-84305194D01*
X134955271Y-84391884D01*
X134766918Y-84517737D01*
X134606737Y-84677918D01*
X134480884Y-84866271D01*
X134394194Y-85075557D01*
X134350000Y-85297735D01*
X128386000Y-85297735D01*
X128386000Y-85113325D01*
X128458988Y-85091184D01*
X128650084Y-84989042D01*
X128817581Y-84851581D01*
X128955042Y-84684084D01*
X129057184Y-84492988D01*
X129120084Y-84285638D01*
X129141322Y-84070000D01*
X129120084Y-83854362D01*
X129057184Y-83647012D01*
X128955042Y-83455916D01*
X128817581Y-83288419D01*
X128650084Y-83150958D01*
X128458988Y-83048816D01*
X128251638Y-82985916D01*
X128090036Y-82970000D01*
X127981964Y-82970000D01*
X127820362Y-82985916D01*
X127613012Y-83048816D01*
X127421916Y-83150958D01*
X127254419Y-83288419D01*
X127116958Y-83455916D01*
X127014816Y-83647012D01*
X126951916Y-83854362D01*
X126930678Y-84070000D01*
X121450000Y-84070000D01*
X121450000Y-81530000D01*
X126930678Y-81530000D01*
X126951916Y-81745638D01*
X127014816Y-81952988D01*
X127116958Y-82144084D01*
X127254419Y-82311581D01*
X127421916Y-82449042D01*
X127613012Y-82551184D01*
X127820362Y-82614084D01*
X127981964Y-82630000D01*
X128090036Y-82630000D01*
X128251638Y-82614084D01*
X128458988Y-82551184D01*
X128650084Y-82449042D01*
X128817581Y-82311581D01*
X128904368Y-82205830D01*
X157518000Y-82205830D01*
X157518000Y-82314170D01*
X157539136Y-82420429D01*
X157580597Y-82520523D01*
X157640787Y-82610604D01*
X157717396Y-82687213D01*
X157807477Y-82747403D01*
X157907571Y-82788864D01*
X158013830Y-82810000D01*
X158122170Y-82810000D01*
X158228429Y-82788864D01*
X158328523Y-82747403D01*
X158418604Y-82687213D01*
X158495213Y-82610604D01*
X158555403Y-82520523D01*
X158596864Y-82420429D01*
X158618000Y-82314170D01*
X158618000Y-82260000D01*
X162314678Y-82260000D01*
X162335916Y-82475638D01*
X162398816Y-82682988D01*
X162500958Y-82874084D01*
X162638419Y-83041581D01*
X162805916Y-83179042D01*
X162997012Y-83281184D01*
X163204362Y-83344084D01*
X163365964Y-83360000D01*
X163474036Y-83360000D01*
X163635638Y-83344084D01*
X163842988Y-83281184D01*
X164034084Y-83179042D01*
X164201581Y-83041581D01*
X164339042Y-82874084D01*
X164441184Y-82682988D01*
X164504084Y-82475638D01*
X164525322Y-82260000D01*
X164504084Y-82044362D01*
X164441184Y-81837012D01*
X164339042Y-81645916D01*
X164201581Y-81478419D01*
X164034084Y-81340958D01*
X163842988Y-81238816D01*
X163635638Y-81175916D01*
X163474036Y-81160000D01*
X163365964Y-81160000D01*
X163204362Y-81175916D01*
X162997012Y-81238816D01*
X162805916Y-81340958D01*
X162638419Y-81478419D01*
X162500958Y-81645916D01*
X162398816Y-81837012D01*
X162335916Y-82044362D01*
X162314678Y-82260000D01*
X158618000Y-82260000D01*
X158618000Y-82205830D01*
X158596864Y-82099571D01*
X158555403Y-81999477D01*
X158495213Y-81909396D01*
X158418604Y-81832787D01*
X158328523Y-81772597D01*
X158228429Y-81731136D01*
X158122170Y-81710000D01*
X158013830Y-81710000D01*
X157907571Y-81731136D01*
X157807477Y-81772597D01*
X157717396Y-81832787D01*
X157640787Y-81909396D01*
X157580597Y-81999477D01*
X157539136Y-82099571D01*
X157518000Y-82205830D01*
X128904368Y-82205830D01*
X128955042Y-82144084D01*
X129057184Y-81952988D01*
X129079325Y-81880000D01*
X132280383Y-81880000D01*
X132280787Y-81880604D01*
X132357396Y-81957213D01*
X132447477Y-82017403D01*
X132547571Y-82058864D01*
X132653830Y-82080000D01*
X132762170Y-82080000D01*
X132868429Y-82058864D01*
X132968523Y-82017403D01*
X133058604Y-81957213D01*
X133135213Y-81880604D01*
X133195403Y-81790523D01*
X133236864Y-81690429D01*
X133258000Y-81584170D01*
X133258000Y-81475830D01*
X133236864Y-81369571D01*
X133195403Y-81269477D01*
X133135213Y-81179396D01*
X133058604Y-81102787D01*
X132968523Y-81042597D01*
X132868429Y-81001136D01*
X132762170Y-80980000D01*
X132653830Y-80980000D01*
X132547571Y-81001136D01*
X132447477Y-81042597D01*
X132357396Y-81102787D01*
X132280787Y-81179396D01*
X132280383Y-81180000D01*
X129079325Y-81180000D01*
X129057184Y-81107012D01*
X128955042Y-80915916D01*
X128817581Y-80748419D01*
X128650084Y-80610958D01*
X128458988Y-80508816D01*
X128251638Y-80445916D01*
X128090036Y-80430000D01*
X127981964Y-80430000D01*
X127820362Y-80445916D01*
X127613012Y-80508816D01*
X127421916Y-80610958D01*
X127254419Y-80748419D01*
X127116958Y-80915916D01*
X127014816Y-81107012D01*
X126951916Y-81314362D01*
X126930678Y-81530000D01*
X121450000Y-81530000D01*
X121450000Y-78990000D01*
X126930678Y-78990000D01*
X126951916Y-79205638D01*
X127014816Y-79412988D01*
X127116958Y-79604084D01*
X127254419Y-79771581D01*
X127421916Y-79909042D01*
X127613012Y-80011184D01*
X127820362Y-80074084D01*
X127981964Y-80090000D01*
X128090036Y-80090000D01*
X128251638Y-80074084D01*
X128458988Y-80011184D01*
X128650084Y-79909042D01*
X128817581Y-79771581D01*
X128904368Y-79665830D01*
X157518000Y-79665830D01*
X157518000Y-79774170D01*
X157539136Y-79880429D01*
X157580597Y-79980523D01*
X157640787Y-80070604D01*
X157717396Y-80147213D01*
X157807477Y-80207403D01*
X157907571Y-80248864D01*
X158013830Y-80270000D01*
X158122170Y-80270000D01*
X158228429Y-80248864D01*
X158328523Y-80207403D01*
X158418604Y-80147213D01*
X158495213Y-80070604D01*
X158555403Y-79980523D01*
X158596864Y-79880429D01*
X158618000Y-79774170D01*
X158618000Y-79665830D01*
X158596864Y-79559571D01*
X158555403Y-79459477D01*
X158495213Y-79369396D01*
X158418604Y-79292787D01*
X158328523Y-79232597D01*
X158228429Y-79191136D01*
X158122170Y-79170000D01*
X158013830Y-79170000D01*
X157907571Y-79191136D01*
X157807477Y-79232597D01*
X157717396Y-79292787D01*
X157640787Y-79369396D01*
X157580597Y-79459477D01*
X157539136Y-79559571D01*
X157518000Y-79665830D01*
X128904368Y-79665830D01*
X128955042Y-79604084D01*
X129057184Y-79412988D01*
X129120084Y-79205638D01*
X129141322Y-78990000D01*
X129129504Y-78870000D01*
X162318791Y-78870000D01*
X162318791Y-80570000D01*
X162323618Y-80619008D01*
X162337913Y-80666134D01*
X162361127Y-80709564D01*
X162392368Y-80747632D01*
X162430436Y-80778873D01*
X162473866Y-80802087D01*
X162520992Y-80816382D01*
X162570000Y-80821209D01*
X164270000Y-80821209D01*
X164319008Y-80816382D01*
X164366134Y-80802087D01*
X164409564Y-80778873D01*
X164447632Y-80747632D01*
X164478873Y-80709564D01*
X164502087Y-80666134D01*
X164516382Y-80619008D01*
X164521209Y-80570000D01*
X164521209Y-79720000D01*
X164854678Y-79720000D01*
X164875916Y-79935638D01*
X164938816Y-80142988D01*
X165040958Y-80334084D01*
X165178419Y-80501581D01*
X165345916Y-80639042D01*
X165537012Y-80741184D01*
X165744362Y-80804084D01*
X165905964Y-80820000D01*
X166014036Y-80820000D01*
X166175638Y-80804084D01*
X166382988Y-80741184D01*
X166574084Y-80639042D01*
X166741581Y-80501581D01*
X166879042Y-80334084D01*
X166981184Y-80142988D01*
X167044084Y-79935638D01*
X167065322Y-79720000D01*
X167044084Y-79504362D01*
X166981184Y-79297012D01*
X166879042Y-79105916D01*
X166741581Y-78938419D01*
X166574084Y-78800958D01*
X166382988Y-78698816D01*
X166175638Y-78635916D01*
X166014036Y-78620000D01*
X165905964Y-78620000D01*
X165744362Y-78635916D01*
X165537012Y-78698816D01*
X165345916Y-78800958D01*
X165178419Y-78938419D01*
X165040958Y-79105916D01*
X164938816Y-79297012D01*
X164875916Y-79504362D01*
X164854678Y-79720000D01*
X164521209Y-79720000D01*
X164521209Y-78870000D01*
X164516382Y-78820992D01*
X164502087Y-78773866D01*
X164478873Y-78730436D01*
X164447632Y-78692368D01*
X164409564Y-78661127D01*
X164366134Y-78637913D01*
X164319008Y-78623618D01*
X164270000Y-78618791D01*
X162570000Y-78618791D01*
X162520992Y-78623618D01*
X162473866Y-78637913D01*
X162430436Y-78661127D01*
X162392368Y-78692368D01*
X162361127Y-78730436D01*
X162337913Y-78773866D01*
X162323618Y-78820992D01*
X162318791Y-78870000D01*
X129129504Y-78870000D01*
X129120084Y-78774362D01*
X129057184Y-78567012D01*
X128955042Y-78375916D01*
X128817581Y-78208419D01*
X128650084Y-78070958D01*
X128458988Y-77968816D01*
X128251638Y-77905916D01*
X128090036Y-77890000D01*
X127981964Y-77890000D01*
X127820362Y-77905916D01*
X127613012Y-77968816D01*
X127421916Y-78070958D01*
X127254419Y-78208419D01*
X127116958Y-78375916D01*
X127014816Y-78567012D01*
X126951916Y-78774362D01*
X126930678Y-78990000D01*
X121450000Y-78990000D01*
X121450000Y-77059830D01*
X132158000Y-77059830D01*
X132158000Y-77168170D01*
X132179136Y-77274429D01*
X132220597Y-77374523D01*
X132280787Y-77464604D01*
X132357396Y-77541213D01*
X132447477Y-77601403D01*
X132547571Y-77642864D01*
X132653830Y-77664000D01*
X132762170Y-77664000D01*
X132868429Y-77642864D01*
X132968523Y-77601403D01*
X133058604Y-77541213D01*
X133135213Y-77464604D01*
X133195403Y-77374523D01*
X133236864Y-77274429D01*
X133258000Y-77168170D01*
X133258000Y-77059830D01*
X133236864Y-76953571D01*
X133195403Y-76853477D01*
X133135213Y-76763396D01*
X133058604Y-76686787D01*
X132968523Y-76626597D01*
X132868429Y-76585136D01*
X132762170Y-76564000D01*
X132653830Y-76564000D01*
X132547571Y-76585136D01*
X132447477Y-76626597D01*
X132357396Y-76686787D01*
X132280787Y-76763396D01*
X132220597Y-76853477D01*
X132179136Y-76953571D01*
X132158000Y-77059830D01*
X121450000Y-77059830D01*
X121450000Y-75469238D01*
X121784691Y-75134547D01*
X121839490Y-75171162D01*
X122285361Y-75355848D01*
X122758696Y-75450000D01*
X123241304Y-75450000D01*
X123714639Y-75355848D01*
X124160510Y-75171162D01*
X124561784Y-74903040D01*
X124903040Y-74561784D01*
X125102025Y-74263981D01*
X135121000Y-74263981D01*
X135121000Y-74392019D01*
X135145979Y-74517598D01*
X135194978Y-74635890D01*
X135266112Y-74742351D01*
X135356649Y-74832888D01*
X135463110Y-74904022D01*
X135581402Y-74953021D01*
X135706981Y-74978000D01*
X135835019Y-74978000D01*
X135960598Y-74953021D01*
X136078890Y-74904022D01*
X136185351Y-74832888D01*
X136275888Y-74742351D01*
X136347022Y-74635890D01*
X136396021Y-74517598D01*
X136421000Y-74392019D01*
X136421000Y-74263981D01*
X136396021Y-74138402D01*
X136347022Y-74020110D01*
X136275888Y-73913649D01*
X136185351Y-73823112D01*
X136078890Y-73751978D01*
X135960598Y-73702979D01*
X135835019Y-73678000D01*
X135706981Y-73678000D01*
X135581402Y-73702979D01*
X135463110Y-73751978D01*
X135356649Y-73823112D01*
X135266112Y-73913649D01*
X135194978Y-74020110D01*
X135145979Y-74138402D01*
X135121000Y-74263981D01*
X125102025Y-74263981D01*
X125171162Y-74160510D01*
X125355848Y-73714639D01*
X125450000Y-73241304D01*
X125450000Y-72758696D01*
X125355848Y-72285361D01*
X125171162Y-71839490D01*
X124903040Y-71438216D01*
X124561784Y-71096960D01*
X124160510Y-70828838D01*
X123714639Y-70644152D01*
X123241304Y-70550000D01*
X122758696Y-70550000D01*
X122285361Y-70644152D01*
X121839490Y-70828838D01*
X121438216Y-71096960D01*
X121096960Y-71438216D01*
X120828838Y-71839490D01*
X120644152Y-72285361D01*
X120550000Y-72758696D01*
X120550000Y-73241304D01*
X120644152Y-73714639D01*
X120828838Y-74160510D01*
X120865453Y-74215309D01*
X120362958Y-74717804D01*
X120338158Y-74738157D01*
X120317805Y-74762957D01*
X120317802Y-74762960D01*
X120275000Y-74815114D01*
X120275000Y-73013455D01*
X120328191Y-72470971D01*
X120481832Y-71962085D01*
X120731388Y-71492738D01*
X121067356Y-71080801D01*
X121476936Y-70741966D01*
X121944534Y-70489138D01*
X122452323Y-70331950D01*
X122993954Y-70275022D01*
X123000384Y-70275000D01*
X166986545Y-70275000D01*
X167529029Y-70328191D01*
G36*
X144041318Y-85568721D02*
G01*
X144027957Y-85579686D01*
X143984220Y-85632981D01*
X143951720Y-85693784D01*
X143940687Y-85730157D01*
X143931707Y-85759759D01*
X143924949Y-85828370D01*
X143926642Y-85845558D01*
X143926643Y-89012383D01*
X143475027Y-89464000D01*
X143134185Y-89464000D01*
X143116999Y-89462307D01*
X143099813Y-89464000D01*
X143099811Y-89464000D01*
X143048388Y-89469065D01*
X142982413Y-89489078D01*
X142921610Y-89521578D01*
X142868315Y-89565315D01*
X142857357Y-89578668D01*
X142732281Y-89703745D01*
X142733122Y-89695203D01*
X142731429Y-89678014D01*
X142731429Y-86603544D01*
X144543005Y-84791969D01*
X144818068Y-84791969D01*
X144041318Y-85568721D01*
X144041318Y-85568721D01*
G37*
X144041318Y-85568721D02*
X144027957Y-85579686D01*
X143984220Y-85632981D01*
X143951720Y-85693784D01*
X143940687Y-85730157D01*
X143931707Y-85759759D01*
X143924949Y-85828370D01*
X143926642Y-85845558D01*
X143926643Y-89012383D01*
X143475027Y-89464000D01*
X143134185Y-89464000D01*
X143116999Y-89462307D01*
X143099813Y-89464000D01*
X143099811Y-89464000D01*
X143048388Y-89469065D01*
X142982413Y-89489078D01*
X142921610Y-89521578D01*
X142868315Y-89565315D01*
X142857357Y-89578668D01*
X142732281Y-89703745D01*
X142733122Y-89695203D01*
X142731429Y-89678014D01*
X142731429Y-86603544D01*
X144543005Y-84791969D01*
X144818068Y-84791969D01*
X144041318Y-85568721D01*
D30*
G36*
X126970991Y-106265009D02*
G01*
X126997300Y-106328525D01*
X126997300Y-107631475D01*
X126970991Y-107694991D01*
X126907475Y-107721300D01*
X125604525Y-107721300D01*
X125541009Y-107694991D01*
X125514700Y-107631475D01*
X125514700Y-106328525D01*
X125541009Y-106265009D01*
X125604525Y-106238700D01*
X126907475Y-106238700D01*
X126970991Y-106265009D01*
X126970991Y-106265009D01*
G37*
X126970991Y-106265009D02*
X126997300Y-106328525D01*
X126997300Y-107631475D01*
X126970991Y-107694991D01*
X126907475Y-107721300D01*
X125604525Y-107721300D01*
X125541009Y-107694991D01*
X125514700Y-107631475D01*
X125514700Y-106328525D01*
X125541009Y-106265009D01*
X125604525Y-106238700D01*
X126907475Y-106238700D01*
X126970991Y-106265009D01*
G36*
X128678991Y-106265009D02*
G01*
X128705300Y-106328525D01*
X128705300Y-107631475D01*
X128678991Y-107694991D01*
X128615475Y-107721300D01*
X127312525Y-107721300D01*
X127249009Y-107694991D01*
X127222700Y-107631475D01*
X127222700Y-106328525D01*
X127249009Y-106265009D01*
X127312525Y-106238700D01*
X128615475Y-106238700D01*
X128678991Y-106265009D01*
X128678991Y-106265009D01*
G37*
X128678991Y-106265009D02*
X128705300Y-106328525D01*
X128705300Y-107631475D01*
X128678991Y-107694991D01*
X128615475Y-107721300D01*
X127312525Y-107721300D01*
X127249009Y-107694991D01*
X127222700Y-107631475D01*
X127222700Y-106328525D01*
X127249009Y-106265009D01*
X127312525Y-106238700D01*
X128615475Y-106238700D01*
X128678991Y-106265009D01*
M02*
