G04 #@! TF.GenerationSoftware,KiCad,Pcbnew,(5.1.4-0-10_14)*
G04 #@! TF.CreationDate,2020-12-07T20:11:59-03:00*
G04 #@! TF.ProjectId,hub_usb_sd,6875625f-7573-4625-9f73-642e6b696361,1.0*
G04 #@! TF.SameCoordinates,Original*
G04 #@! TF.FileFunction,Legend,Bot*
G04 #@! TF.FilePolarity,Positive*
%FSLAX46Y46*%
G04 Gerber Fmt 4.6, Leading zero omitted, Abs format (unit mm)*
G04 Created by KiCad (PCBNEW (5.1.4-0-10_14)) date 2020-12-07 20:11:59*
%MOMM*%
%LPD*%
G04 APERTURE LIST*
%ADD10C,0.150000*%
%ADD11C,0.250000*%
%ADD12C,0.120000*%
%ADD13C,0.249999*%
G04 APERTURE END LIST*
D10*
X141500000Y-91500000D02*
X141600000Y-91500000D01*
X141500000Y-91500000D02*
X141500000Y-91600000D01*
X148500000Y-91500000D02*
X148500000Y-91600000D01*
X148500000Y-91500000D02*
X148400000Y-91500000D01*
X141500000Y-98500000D02*
X141600000Y-98500000D01*
X141500000Y-98500000D02*
X141500000Y-98400000D01*
X148500000Y-98500000D02*
X148500000Y-98400000D01*
X148500000Y-98500000D02*
X148400000Y-98500000D01*
D11*
X140835000Y-97750000D02*
G75*
G03X140835000Y-97750000I-125000J0D01*
G01*
D12*
X129049500Y-116049000D02*
X129049500Y-111839000D01*
X132069500Y-116049000D02*
X129049500Y-116049000D01*
X132069500Y-111839000D02*
X132069500Y-116049000D01*
X128730000Y-110834000D02*
X128730000Y-113834000D01*
X125490000Y-109834000D02*
X125490000Y-111834000D01*
X163016000Y-114526000D02*
X161756000Y-114526000D01*
X156196000Y-114526000D02*
X157456000Y-114526000D01*
X163016000Y-110766000D02*
X163016000Y-114526000D01*
X156196000Y-108516000D02*
X156196000Y-114526000D01*
X133418000Y-78731422D02*
X133418000Y-79248578D01*
X131998000Y-78731422D02*
X131998000Y-79248578D01*
D13*
X141258001Y-75549999D02*
G75*
G03X141258001Y-75549999I-125001J0D01*
G01*
D10*
X139483001Y-80905000D02*
X137882999Y-80905000D01*
X139483001Y-75805000D02*
X137882999Y-75805000D01*
X137882999Y-80905000D02*
X137882999Y-75805000D01*
X139483001Y-80905000D02*
X139483001Y-75805000D01*
D12*
X138192000Y-93165422D02*
X138192000Y-93682578D01*
X139612000Y-93165422D02*
X139612000Y-93682578D01*
X136239430Y-91807578D02*
X136239430Y-91290422D01*
X137659430Y-91807578D02*
X137659430Y-91290422D01*
X159683922Y-79010000D02*
X160201078Y-79010000D01*
X159683922Y-80430000D02*
X160201078Y-80430000D01*
X155543078Y-96066000D02*
X155025922Y-96066000D01*
X155543078Y-97486000D02*
X155025922Y-97486000D01*
X139148000Y-101861578D02*
X139148000Y-101344422D01*
X137728000Y-101861578D02*
X137728000Y-101344422D01*
X151641000Y-108513279D02*
X151641000Y-108187721D01*
X152661000Y-108513279D02*
X152661000Y-108187721D01*
X135775000Y-101194078D02*
X135775000Y-100676922D01*
X137195000Y-101194078D02*
X137195000Y-100676922D01*
X147222000Y-101861578D02*
X147222000Y-101344422D01*
X148642000Y-101861578D02*
X148642000Y-101344422D01*
X149175000Y-101861578D02*
X149175000Y-101344422D01*
X150595000Y-101861578D02*
X150595000Y-101344422D01*
X152548000Y-101861578D02*
X152548000Y-101344422D01*
X151128000Y-101861578D02*
X151128000Y-101344422D01*
X143764500Y-88138922D02*
X143764500Y-88656078D01*
X145184500Y-88138922D02*
X145184500Y-88656078D01*
X151808000Y-96225922D02*
X151808000Y-96743078D01*
X150388000Y-96225922D02*
X150388000Y-96743078D01*
X151861078Y-91709000D02*
X151343922Y-91709000D01*
X151861078Y-90289000D02*
X151343922Y-90289000D01*
X151861078Y-92240000D02*
X151343922Y-92240000D01*
X151861078Y-93660000D02*
X151343922Y-93660000D01*
X146750000Y-117395000D02*
X142540000Y-117395000D01*
X142540000Y-117395000D02*
X142540000Y-114375000D01*
X142540000Y-114375000D02*
X146750000Y-114375000D01*
X141284000Y-88138922D02*
X141284000Y-88656078D01*
X139864000Y-88138922D02*
X139864000Y-88656078D01*
X141814500Y-88138922D02*
X141814500Y-88656078D01*
X143234500Y-88138922D02*
X143234500Y-88656078D01*
X141105000Y-101861578D02*
X141105000Y-101344422D01*
X139685000Y-101861578D02*
X139685000Y-101344422D01*
X141643000Y-101861578D02*
X141643000Y-101344422D01*
X143063000Y-101861578D02*
X143063000Y-101344422D01*
X135492422Y-108579000D02*
X136009578Y-108579000D01*
X135492422Y-109999000D02*
X136009578Y-109999000D01*
X129831422Y-98279000D02*
X130348578Y-98279000D01*
X129831422Y-96859000D02*
X130348578Y-96859000D01*
X155543078Y-98026000D02*
X155025922Y-98026000D01*
X155543078Y-99446000D02*
X155025922Y-99446000D01*
X125625000Y-92540000D02*
X125625000Y-96750000D01*
X122605000Y-92540000D02*
X125625000Y-92540000D01*
X122605000Y-96750000D02*
X122605000Y-92540000D01*
X128620000Y-116322578D02*
X128620000Y-115805422D01*
X127200000Y-116322578D02*
X127200000Y-115805422D01*
X162206078Y-91710000D02*
X161688922Y-91710000D01*
X162206078Y-90290000D02*
X161688922Y-90290000D01*
X148130000Y-108513279D02*
X148130000Y-108187721D01*
X147110000Y-108513279D02*
X147110000Y-108187721D01*
X146365785Y-84995922D02*
X146365785Y-85513078D01*
X147785785Y-84995922D02*
X147785785Y-85513078D01*
X149805142Y-84995922D02*
X149805142Y-85513078D01*
X148385142Y-84995922D02*
X148385142Y-85513078D01*
X138004078Y-73618000D02*
X137486922Y-73618000D01*
X138004078Y-75038000D02*
X137486922Y-75038000D01*
X154293000Y-112097578D02*
X154293000Y-111580422D01*
X155713000Y-112097578D02*
X155713000Y-111580422D01*
X159972422Y-106500000D02*
X160489578Y-106500000D01*
X159972422Y-107920000D02*
X160489578Y-107920000D01*
X162917000Y-106145000D02*
X159007000Y-106145000D01*
X162917000Y-104275000D02*
X162917000Y-106145000D01*
X159007000Y-104275000D02*
X162917000Y-104275000D01*
X159683922Y-81550000D02*
X160201078Y-81550000D01*
X159683922Y-82970000D02*
X160201078Y-82970000D01*
X157343000Y-93491422D02*
X157343000Y-94008578D01*
X155923000Y-93491422D02*
X155923000Y-94008578D01*
X159296000Y-94008578D02*
X159296000Y-93491422D01*
X157876000Y-94008578D02*
X157876000Y-93491422D01*
X130014000Y-77841422D02*
X130014000Y-78358578D01*
X131434000Y-77841422D02*
X131434000Y-78358578D01*
D10*
X151306000Y-108526000D02*
X151306000Y-110126000D01*
X148456000Y-108526000D02*
X148456000Y-110126000D01*
D11*
X150681000Y-110726000D02*
G75*
G03X150681000Y-110726000I-125000J0D01*
G01*
D12*
X164494000Y-110550279D02*
X164494000Y-110224721D01*
X163474000Y-110550279D02*
X163474000Y-110224721D01*
X149718221Y-108073000D02*
X150043779Y-108073000D01*
X149718221Y-107053000D02*
X150043779Y-107053000D01*
X140732000Y-110039000D02*
X137782000Y-110039000D01*
X138332000Y-106939000D02*
X140732000Y-106939000D01*
X131640000Y-93316000D02*
X131640000Y-96266000D01*
X128540000Y-95716000D02*
X128540000Y-93316000D01*
X166670279Y-91396000D02*
X166344721Y-91396000D01*
X166670279Y-92416000D02*
X166344721Y-92416000D01*
X123329721Y-100335000D02*
X123655279Y-100335000D01*
X123329721Y-99315000D02*
X123655279Y-99315000D01*
X149314000Y-116670279D02*
X149314000Y-116344721D01*
X150334000Y-116670279D02*
X150334000Y-116344721D01*
X140685000Y-116670279D02*
X140685000Y-116344721D01*
X139665000Y-116670279D02*
X139665000Y-116344721D01*
X123329721Y-89665000D02*
X123655279Y-89665000D01*
X123329721Y-90685000D02*
X123655279Y-90685000D01*
X166670279Y-97585000D02*
X166344721Y-97585000D01*
X166670279Y-98605000D02*
X166344721Y-98605000D01*
D10*
X140222404Y-97740380D02*
X140222404Y-98549904D01*
X140174785Y-98645142D01*
X140127166Y-98692761D01*
X140031928Y-98740380D01*
X139841452Y-98740380D01*
X139746214Y-98692761D01*
X139698595Y-98645142D01*
X139650976Y-98549904D01*
X139650976Y-97740380D01*
X138650976Y-98740380D02*
X139222404Y-98740380D01*
X138936690Y-98740380D02*
X138936690Y-97740380D01*
X139031928Y-97883238D01*
X139127166Y-97978476D01*
X139222404Y-98026095D01*
X133266642Y-112946142D02*
X133314261Y-112898523D01*
X133361880Y-112755666D01*
X133361880Y-112660428D01*
X133314261Y-112517571D01*
X133219023Y-112422333D01*
X133123785Y-112374714D01*
X132933309Y-112327095D01*
X132790452Y-112327095D01*
X132599976Y-112374714D01*
X132504738Y-112422333D01*
X132409500Y-112517571D01*
X132361880Y-112660428D01*
X132361880Y-112755666D01*
X132409500Y-112898523D01*
X132457119Y-112946142D01*
X132457119Y-113327095D02*
X132409500Y-113374714D01*
X132361880Y-113469952D01*
X132361880Y-113708047D01*
X132409500Y-113803285D01*
X132457119Y-113850904D01*
X132552357Y-113898523D01*
X132647595Y-113898523D01*
X132790452Y-113850904D01*
X133361880Y-113279476D01*
X133361880Y-113898523D01*
X133361880Y-114850904D02*
X133361880Y-114279476D01*
X133361880Y-114565190D02*
X132361880Y-114565190D01*
X132504738Y-114469952D01*
X132599976Y-114374714D01*
X132647595Y-114279476D01*
X124018380Y-110072095D02*
X124827904Y-110072095D01*
X124923142Y-110119714D01*
X124970761Y-110167333D01*
X125018380Y-110262571D01*
X125018380Y-110453047D01*
X124970761Y-110548285D01*
X124923142Y-110595904D01*
X124827904Y-110643523D01*
X124018380Y-110643523D01*
X124113619Y-111072095D02*
X124066000Y-111119714D01*
X124018380Y-111214952D01*
X124018380Y-111453047D01*
X124066000Y-111548285D01*
X124113619Y-111595904D01*
X124208857Y-111643523D01*
X124304095Y-111643523D01*
X124446952Y-111595904D01*
X125018380Y-111024476D01*
X125018380Y-111643523D01*
X160367904Y-117175380D02*
X160367904Y-117984904D01*
X160320285Y-118080142D01*
X160272666Y-118127761D01*
X160177428Y-118175380D01*
X159986952Y-118175380D01*
X159891714Y-118127761D01*
X159844095Y-118080142D01*
X159796476Y-117984904D01*
X159796476Y-117175380D01*
X158891714Y-117508714D02*
X158891714Y-118175380D01*
X159129809Y-117127761D02*
X159367904Y-117842047D01*
X158748857Y-117842047D01*
X133163380Y-76014333D02*
X132687190Y-75681000D01*
X133163380Y-75442904D02*
X132163380Y-75442904D01*
X132163380Y-75823857D01*
X132211000Y-75919095D01*
X132258619Y-75966714D01*
X132353857Y-76014333D01*
X132496714Y-76014333D01*
X132591952Y-75966714D01*
X132639571Y-75919095D01*
X132687190Y-75823857D01*
X132687190Y-75442904D01*
X132163380Y-76347666D02*
X132163380Y-77014333D01*
X133163380Y-76585761D01*
X143547403Y-74257381D02*
X143547403Y-75066905D01*
X143499784Y-75162143D01*
X143452165Y-75209762D01*
X143356927Y-75257381D01*
X143166451Y-75257381D01*
X143071213Y-75209762D01*
X143023594Y-75162143D01*
X142975975Y-75066905D01*
X142975975Y-74257381D01*
X142595022Y-74257381D02*
X141975975Y-74257381D01*
X142309308Y-74638334D01*
X142166451Y-74638334D01*
X142071213Y-74685953D01*
X142023594Y-74733572D01*
X141975975Y-74828810D01*
X141975975Y-75066905D01*
X142023594Y-75162143D01*
X142071213Y-75209762D01*
X142166451Y-75257381D01*
X142452165Y-75257381D01*
X142547403Y-75209762D01*
X142595022Y-75162143D01*
X139548857Y-96061142D02*
X139596476Y-96108761D01*
X139739333Y-96156380D01*
X139834571Y-96156380D01*
X139977428Y-96108761D01*
X140072666Y-96013523D01*
X140120285Y-95918285D01*
X140167904Y-95727809D01*
X140167904Y-95584952D01*
X140120285Y-95394476D01*
X140072666Y-95299238D01*
X139977428Y-95204000D01*
X139834571Y-95156380D01*
X139739333Y-95156380D01*
X139596476Y-95204000D01*
X139548857Y-95251619D01*
X138596476Y-96156380D02*
X139167904Y-96156380D01*
X138882190Y-96156380D02*
X138882190Y-95156380D01*
X138977428Y-95299238D01*
X139072666Y-95394476D01*
X139167904Y-95442095D01*
X137977428Y-95156380D02*
X137882190Y-95156380D01*
X137786952Y-95204000D01*
X137739333Y-95251619D01*
X137691714Y-95346857D01*
X137644095Y-95537333D01*
X137644095Y-95775428D01*
X137691714Y-95965904D01*
X137739333Y-96061142D01*
X137786952Y-96108761D01*
X137882190Y-96156380D01*
X137977428Y-96156380D01*
X138072666Y-96108761D01*
X138120285Y-96061142D01*
X138167904Y-95965904D01*
X138215523Y-95775428D01*
X138215523Y-95537333D01*
X138167904Y-95346857D01*
X138120285Y-95251619D01*
X138072666Y-95204000D01*
X137977428Y-95156380D01*
X137122666Y-89249142D02*
X137170285Y-89296761D01*
X137313142Y-89344380D01*
X137408380Y-89344380D01*
X137551238Y-89296761D01*
X137646476Y-89201523D01*
X137694095Y-89106285D01*
X137741714Y-88915809D01*
X137741714Y-88772952D01*
X137694095Y-88582476D01*
X137646476Y-88487238D01*
X137551238Y-88392000D01*
X137408380Y-88344380D01*
X137313142Y-88344380D01*
X137170285Y-88392000D01*
X137122666Y-88439619D01*
X136789333Y-88344380D02*
X136170285Y-88344380D01*
X136503619Y-88725333D01*
X136360761Y-88725333D01*
X136265523Y-88772952D01*
X136217904Y-88820571D01*
X136170285Y-88915809D01*
X136170285Y-89153904D01*
X136217904Y-89249142D01*
X136265523Y-89296761D01*
X136360761Y-89344380D01*
X136646476Y-89344380D01*
X136741714Y-89296761D01*
X136789333Y-89249142D01*
X160109166Y-78627380D02*
X160442500Y-78151190D01*
X160680595Y-78627380D02*
X160680595Y-77627380D01*
X160299642Y-77627380D01*
X160204404Y-77675000D01*
X160156785Y-77722619D01*
X160109166Y-77817857D01*
X160109166Y-77960714D01*
X160156785Y-78055952D01*
X160204404Y-78103571D01*
X160299642Y-78151190D01*
X160680595Y-78151190D01*
X159775833Y-77627380D02*
X159156785Y-77627380D01*
X159490119Y-78008333D01*
X159347261Y-78008333D01*
X159252023Y-78055952D01*
X159204404Y-78103571D01*
X159156785Y-78198809D01*
X159156785Y-78436904D01*
X159204404Y-78532142D01*
X159252023Y-78579761D01*
X159347261Y-78627380D01*
X159632976Y-78627380D01*
X159728214Y-78579761D01*
X159775833Y-78532142D01*
X158363666Y-97232380D02*
X158697000Y-96756190D01*
X158935095Y-97232380D02*
X158935095Y-96232380D01*
X158554142Y-96232380D01*
X158458904Y-96280000D01*
X158411285Y-96327619D01*
X158363666Y-96422857D01*
X158363666Y-96565714D01*
X158411285Y-96660952D01*
X158458904Y-96708571D01*
X158554142Y-96756190D01*
X158935095Y-96756190D01*
X157411285Y-97232380D02*
X157982714Y-97232380D01*
X157697000Y-97232380D02*
X157697000Y-96232380D01*
X157792238Y-96375238D01*
X157887476Y-96470476D01*
X157982714Y-96518095D01*
X138935380Y-104351333D02*
X138459190Y-104018000D01*
X138935380Y-103779904D02*
X137935380Y-103779904D01*
X137935380Y-104160857D01*
X137983000Y-104256095D01*
X138030619Y-104303714D01*
X138125857Y-104351333D01*
X138268714Y-104351333D01*
X138363952Y-104303714D01*
X138411571Y-104256095D01*
X138459190Y-104160857D01*
X138459190Y-103779904D01*
X138268714Y-105208476D02*
X138935380Y-105208476D01*
X137887761Y-104970380D02*
X138602047Y-104732285D01*
X138602047Y-105351333D01*
X153938142Y-107707642D02*
X153985761Y-107660023D01*
X154033380Y-107517166D01*
X154033380Y-107421928D01*
X153985761Y-107279071D01*
X153890523Y-107183833D01*
X153795285Y-107136214D01*
X153604809Y-107088595D01*
X153461952Y-107088595D01*
X153271476Y-107136214D01*
X153176238Y-107183833D01*
X153081000Y-107279071D01*
X153033380Y-107421928D01*
X153033380Y-107517166D01*
X153081000Y-107660023D01*
X153128619Y-107707642D01*
X153128619Y-108088595D02*
X153081000Y-108136214D01*
X153033380Y-108231452D01*
X153033380Y-108469547D01*
X153081000Y-108564785D01*
X153128619Y-108612404D01*
X153223857Y-108660023D01*
X153319095Y-108660023D01*
X153461952Y-108612404D01*
X154033380Y-108040976D01*
X154033380Y-108660023D01*
X153033380Y-108993357D02*
X153033380Y-109612404D01*
X153414333Y-109279071D01*
X153414333Y-109421928D01*
X153461952Y-109517166D01*
X153509571Y-109564785D01*
X153604809Y-109612404D01*
X153842904Y-109612404D01*
X153938142Y-109564785D01*
X153985761Y-109517166D01*
X154033380Y-109421928D01*
X154033380Y-109136214D01*
X153985761Y-109040976D01*
X153938142Y-108993357D01*
X136884142Y-103207333D02*
X136931761Y-103159714D01*
X136979380Y-103016857D01*
X136979380Y-102921619D01*
X136931761Y-102778761D01*
X136836523Y-102683523D01*
X136741285Y-102635904D01*
X136550809Y-102588285D01*
X136407952Y-102588285D01*
X136217476Y-102635904D01*
X136122238Y-102683523D01*
X136027000Y-102778761D01*
X135979380Y-102921619D01*
X135979380Y-103016857D01*
X136027000Y-103159714D01*
X136074619Y-103207333D01*
X136979380Y-104159714D02*
X136979380Y-103588285D01*
X136979380Y-103874000D02*
X135979380Y-103874000D01*
X136122238Y-103778761D01*
X136217476Y-103683523D01*
X136265095Y-103588285D01*
X148291142Y-103885333D02*
X148338761Y-103837714D01*
X148386380Y-103694857D01*
X148386380Y-103599619D01*
X148338761Y-103456761D01*
X148243523Y-103361523D01*
X148148285Y-103313904D01*
X147957809Y-103266285D01*
X147814952Y-103266285D01*
X147624476Y-103313904D01*
X147529238Y-103361523D01*
X147434000Y-103456761D01*
X147386380Y-103599619D01*
X147386380Y-103694857D01*
X147434000Y-103837714D01*
X147481619Y-103885333D01*
X147481619Y-104266285D02*
X147434000Y-104313904D01*
X147386380Y-104409142D01*
X147386380Y-104647238D01*
X147434000Y-104742476D01*
X147481619Y-104790095D01*
X147576857Y-104837714D01*
X147672095Y-104837714D01*
X147814952Y-104790095D01*
X148386380Y-104218666D01*
X148386380Y-104837714D01*
X150244142Y-103885333D02*
X150291761Y-103837714D01*
X150339380Y-103694857D01*
X150339380Y-103599619D01*
X150291761Y-103456761D01*
X150196523Y-103361523D01*
X150101285Y-103313904D01*
X149910809Y-103266285D01*
X149767952Y-103266285D01*
X149577476Y-103313904D01*
X149482238Y-103361523D01*
X149387000Y-103456761D01*
X149339380Y-103599619D01*
X149339380Y-103694857D01*
X149387000Y-103837714D01*
X149434619Y-103885333D01*
X149672714Y-104742476D02*
X150339380Y-104742476D01*
X149291761Y-104504380D02*
X150006047Y-104266285D01*
X150006047Y-104885333D01*
X152197142Y-103885333D02*
X152244761Y-103837714D01*
X152292380Y-103694857D01*
X152292380Y-103599619D01*
X152244761Y-103456761D01*
X152149523Y-103361523D01*
X152054285Y-103313904D01*
X151863809Y-103266285D01*
X151720952Y-103266285D01*
X151530476Y-103313904D01*
X151435238Y-103361523D01*
X151340000Y-103456761D01*
X151292380Y-103599619D01*
X151292380Y-103694857D01*
X151340000Y-103837714D01*
X151387619Y-103885333D01*
X151292380Y-104790095D02*
X151292380Y-104313904D01*
X151768571Y-104266285D01*
X151720952Y-104313904D01*
X151673333Y-104409142D01*
X151673333Y-104647238D01*
X151720952Y-104742476D01*
X151768571Y-104790095D01*
X151863809Y-104837714D01*
X152101904Y-104837714D01*
X152197142Y-104790095D01*
X152244761Y-104742476D01*
X152292380Y-104647238D01*
X152292380Y-104409142D01*
X152244761Y-104313904D01*
X152197142Y-104266285D01*
X144842642Y-85162833D02*
X144890261Y-85115214D01*
X144937880Y-84972357D01*
X144937880Y-84877119D01*
X144890261Y-84734261D01*
X144795023Y-84639023D01*
X144699785Y-84591404D01*
X144509309Y-84543785D01*
X144366452Y-84543785D01*
X144175976Y-84591404D01*
X144080738Y-84639023D01*
X143985500Y-84734261D01*
X143937880Y-84877119D01*
X143937880Y-84972357D01*
X143985500Y-85115214D01*
X144033119Y-85162833D01*
X143937880Y-86019976D02*
X143937880Y-85829500D01*
X143985500Y-85734261D01*
X144033119Y-85686642D01*
X144175976Y-85591404D01*
X144366452Y-85543785D01*
X144747404Y-85543785D01*
X144842642Y-85591404D01*
X144890261Y-85639023D01*
X144937880Y-85734261D01*
X144937880Y-85924738D01*
X144890261Y-86019976D01*
X144842642Y-86067595D01*
X144747404Y-86115214D01*
X144509309Y-86115214D01*
X144414071Y-86067595D01*
X144366452Y-86019976D01*
X144318833Y-85924738D01*
X144318833Y-85734261D01*
X144366452Y-85639023D01*
X144414071Y-85591404D01*
X144509309Y-85543785D01*
X151266666Y-99088142D02*
X151314285Y-99135761D01*
X151457142Y-99183380D01*
X151552380Y-99183380D01*
X151695238Y-99135761D01*
X151790476Y-99040523D01*
X151838095Y-98945285D01*
X151885714Y-98754809D01*
X151885714Y-98611952D01*
X151838095Y-98421476D01*
X151790476Y-98326238D01*
X151695238Y-98231000D01*
X151552380Y-98183380D01*
X151457142Y-98183380D01*
X151314285Y-98231000D01*
X151266666Y-98278619D01*
X150933333Y-98183380D02*
X150266666Y-98183380D01*
X150695238Y-99183380D01*
X152980666Y-88408142D02*
X153028285Y-88455761D01*
X153171142Y-88503380D01*
X153266380Y-88503380D01*
X153409238Y-88455761D01*
X153504476Y-88360523D01*
X153552095Y-88265285D01*
X153599714Y-88074809D01*
X153599714Y-87931952D01*
X153552095Y-87741476D01*
X153504476Y-87646238D01*
X153409238Y-87551000D01*
X153266380Y-87503380D01*
X153171142Y-87503380D01*
X153028285Y-87551000D01*
X152980666Y-87598619D01*
X152409238Y-87931952D02*
X152504476Y-87884333D01*
X152552095Y-87836714D01*
X152599714Y-87741476D01*
X152599714Y-87693857D01*
X152552095Y-87598619D01*
X152504476Y-87551000D01*
X152409238Y-87503380D01*
X152218761Y-87503380D01*
X152123523Y-87551000D01*
X152075904Y-87598619D01*
X152028285Y-87693857D01*
X152028285Y-87741476D01*
X152075904Y-87836714D01*
X152123523Y-87884333D01*
X152218761Y-87931952D01*
X152409238Y-87931952D01*
X152504476Y-87979571D01*
X152552095Y-88027190D01*
X152599714Y-88122428D01*
X152599714Y-88312904D01*
X152552095Y-88408142D01*
X152504476Y-88455761D01*
X152409238Y-88503380D01*
X152218761Y-88503380D01*
X152123523Y-88455761D01*
X152075904Y-88408142D01*
X152028285Y-88312904D01*
X152028285Y-88122428D01*
X152075904Y-88027190D01*
X152123523Y-87979571D01*
X152218761Y-87931952D01*
X152980666Y-89815142D02*
X153028285Y-89862761D01*
X153171142Y-89910380D01*
X153266380Y-89910380D01*
X153409238Y-89862761D01*
X153504476Y-89767523D01*
X153552095Y-89672285D01*
X153599714Y-89481809D01*
X153599714Y-89338952D01*
X153552095Y-89148476D01*
X153504476Y-89053238D01*
X153409238Y-88958000D01*
X153266380Y-88910380D01*
X153171142Y-88910380D01*
X153028285Y-88958000D01*
X152980666Y-89005619D01*
X152504476Y-89910380D02*
X152314000Y-89910380D01*
X152218761Y-89862761D01*
X152171142Y-89815142D01*
X152075904Y-89672285D01*
X152028285Y-89481809D01*
X152028285Y-89100857D01*
X152075904Y-89005619D01*
X152123523Y-88958000D01*
X152218761Y-88910380D01*
X152409238Y-88910380D01*
X152504476Y-88958000D01*
X152552095Y-89005619D01*
X152599714Y-89100857D01*
X152599714Y-89338952D01*
X152552095Y-89434190D01*
X152504476Y-89481809D01*
X152409238Y-89529428D01*
X152218761Y-89529428D01*
X152123523Y-89481809D01*
X152075904Y-89434190D01*
X152028285Y-89338952D01*
X145642857Y-118592142D02*
X145690476Y-118639761D01*
X145833333Y-118687380D01*
X145928571Y-118687380D01*
X146071428Y-118639761D01*
X146166666Y-118544523D01*
X146214285Y-118449285D01*
X146261904Y-118258809D01*
X146261904Y-118115952D01*
X146214285Y-117925476D01*
X146166666Y-117830238D01*
X146071428Y-117735000D01*
X145928571Y-117687380D01*
X145833333Y-117687380D01*
X145690476Y-117735000D01*
X145642857Y-117782619D01*
X144690476Y-118687380D02*
X145261904Y-118687380D01*
X144976190Y-118687380D02*
X144976190Y-117687380D01*
X145071428Y-117830238D01*
X145166666Y-117925476D01*
X145261904Y-117973095D01*
X143738095Y-118687380D02*
X144309523Y-118687380D01*
X144023809Y-118687380D02*
X144023809Y-117687380D01*
X144119047Y-117830238D01*
X144214285Y-117925476D01*
X144309523Y-117973095D01*
X140942142Y-84686642D02*
X140989761Y-84639023D01*
X141037380Y-84496166D01*
X141037380Y-84400928D01*
X140989761Y-84258071D01*
X140894523Y-84162833D01*
X140799285Y-84115214D01*
X140608809Y-84067595D01*
X140465952Y-84067595D01*
X140275476Y-84115214D01*
X140180238Y-84162833D01*
X140085000Y-84258071D01*
X140037380Y-84400928D01*
X140037380Y-84496166D01*
X140085000Y-84639023D01*
X140132619Y-84686642D01*
X141037380Y-85639023D02*
X141037380Y-85067595D01*
X141037380Y-85353309D02*
X140037380Y-85353309D01*
X140180238Y-85258071D01*
X140275476Y-85162833D01*
X140323095Y-85067595D01*
X140132619Y-86019976D02*
X140085000Y-86067595D01*
X140037380Y-86162833D01*
X140037380Y-86400928D01*
X140085000Y-86496166D01*
X140132619Y-86543785D01*
X140227857Y-86591404D01*
X140323095Y-86591404D01*
X140465952Y-86543785D01*
X141037380Y-85972357D01*
X141037380Y-86591404D01*
X142892642Y-84686642D02*
X142940261Y-84639023D01*
X142987880Y-84496166D01*
X142987880Y-84400928D01*
X142940261Y-84258071D01*
X142845023Y-84162833D01*
X142749785Y-84115214D01*
X142559309Y-84067595D01*
X142416452Y-84067595D01*
X142225976Y-84115214D01*
X142130738Y-84162833D01*
X142035500Y-84258071D01*
X141987880Y-84400928D01*
X141987880Y-84496166D01*
X142035500Y-84639023D01*
X142083119Y-84686642D01*
X142987880Y-85639023D02*
X142987880Y-85067595D01*
X142987880Y-85353309D02*
X141987880Y-85353309D01*
X142130738Y-85258071D01*
X142225976Y-85162833D01*
X142273595Y-85067595D01*
X141987880Y-85972357D02*
X141987880Y-86591404D01*
X142368833Y-86258071D01*
X142368833Y-86400928D01*
X142416452Y-86496166D01*
X142464071Y-86543785D01*
X142559309Y-86591404D01*
X142797404Y-86591404D01*
X142892642Y-86543785D01*
X142940261Y-86496166D01*
X142987880Y-86400928D01*
X142987880Y-86115214D01*
X142940261Y-86019976D01*
X142892642Y-85972357D01*
X140797142Y-103875142D02*
X140844761Y-103827523D01*
X140892380Y-103684666D01*
X140892380Y-103589428D01*
X140844761Y-103446571D01*
X140749523Y-103351333D01*
X140654285Y-103303714D01*
X140463809Y-103256095D01*
X140320952Y-103256095D01*
X140130476Y-103303714D01*
X140035238Y-103351333D01*
X139940000Y-103446571D01*
X139892380Y-103589428D01*
X139892380Y-103684666D01*
X139940000Y-103827523D01*
X139987619Y-103875142D01*
X140892380Y-104827523D02*
X140892380Y-104256095D01*
X140892380Y-104541809D02*
X139892380Y-104541809D01*
X140035238Y-104446571D01*
X140130476Y-104351333D01*
X140178095Y-104256095D01*
X140225714Y-105684666D02*
X140892380Y-105684666D01*
X139844761Y-105446571D02*
X140559047Y-105208476D01*
X140559047Y-105827523D01*
X142755142Y-103875142D02*
X142802761Y-103827523D01*
X142850380Y-103684666D01*
X142850380Y-103589428D01*
X142802761Y-103446571D01*
X142707523Y-103351333D01*
X142612285Y-103303714D01*
X142421809Y-103256095D01*
X142278952Y-103256095D01*
X142088476Y-103303714D01*
X141993238Y-103351333D01*
X141898000Y-103446571D01*
X141850380Y-103589428D01*
X141850380Y-103684666D01*
X141898000Y-103827523D01*
X141945619Y-103875142D01*
X142850380Y-104827523D02*
X142850380Y-104256095D01*
X142850380Y-104541809D02*
X141850380Y-104541809D01*
X141993238Y-104446571D01*
X142088476Y-104351333D01*
X142136095Y-104256095D01*
X141850380Y-105732285D02*
X141850380Y-105256095D01*
X142326571Y-105208476D01*
X142278952Y-105256095D01*
X142231333Y-105351333D01*
X142231333Y-105589428D01*
X142278952Y-105684666D01*
X142326571Y-105732285D01*
X142421809Y-105779904D01*
X142659904Y-105779904D01*
X142755142Y-105732285D01*
X142802761Y-105684666D01*
X142850380Y-105589428D01*
X142850380Y-105351333D01*
X142802761Y-105256095D01*
X142755142Y-105208476D01*
X136393857Y-108143142D02*
X136441476Y-108190761D01*
X136584333Y-108238380D01*
X136679571Y-108238380D01*
X136822428Y-108190761D01*
X136917666Y-108095523D01*
X136965285Y-108000285D01*
X137012904Y-107809809D01*
X137012904Y-107666952D01*
X136965285Y-107476476D01*
X136917666Y-107381238D01*
X136822428Y-107286000D01*
X136679571Y-107238380D01*
X136584333Y-107238380D01*
X136441476Y-107286000D01*
X136393857Y-107333619D01*
X135441476Y-108238380D02*
X136012904Y-108238380D01*
X135727190Y-108238380D02*
X135727190Y-107238380D01*
X135822428Y-107381238D01*
X135917666Y-107476476D01*
X136012904Y-107524095D01*
X134584333Y-107238380D02*
X134774809Y-107238380D01*
X134870047Y-107286000D01*
X134917666Y-107333619D01*
X135012904Y-107476476D01*
X135060523Y-107666952D01*
X135060523Y-108047904D01*
X135012904Y-108143142D01*
X134965285Y-108190761D01*
X134870047Y-108238380D01*
X134679571Y-108238380D01*
X134584333Y-108190761D01*
X134536714Y-108143142D01*
X134489095Y-108047904D01*
X134489095Y-107809809D01*
X134536714Y-107714571D01*
X134584333Y-107666952D01*
X134679571Y-107619333D01*
X134870047Y-107619333D01*
X134965285Y-107666952D01*
X135012904Y-107714571D01*
X135060523Y-107809809D01*
X133821857Y-97932142D02*
X133869476Y-97979761D01*
X134012333Y-98027380D01*
X134107571Y-98027380D01*
X134250428Y-97979761D01*
X134345666Y-97884523D01*
X134393285Y-97789285D01*
X134440904Y-97598809D01*
X134440904Y-97455952D01*
X134393285Y-97265476D01*
X134345666Y-97170238D01*
X134250428Y-97075000D01*
X134107571Y-97027380D01*
X134012333Y-97027380D01*
X133869476Y-97075000D01*
X133821857Y-97122619D01*
X132869476Y-98027380D02*
X133440904Y-98027380D01*
X133155190Y-98027380D02*
X133155190Y-97027380D01*
X133250428Y-97170238D01*
X133345666Y-97265476D01*
X133440904Y-97313095D01*
X132536142Y-97027380D02*
X131869476Y-97027380D01*
X132298047Y-98027380D01*
X158970857Y-99095142D02*
X159018476Y-99142761D01*
X159161333Y-99190380D01*
X159256571Y-99190380D01*
X159399428Y-99142761D01*
X159494666Y-99047523D01*
X159542285Y-98952285D01*
X159589904Y-98761809D01*
X159589904Y-98618952D01*
X159542285Y-98428476D01*
X159494666Y-98333238D01*
X159399428Y-98238000D01*
X159256571Y-98190380D01*
X159161333Y-98190380D01*
X159018476Y-98238000D01*
X158970857Y-98285619D01*
X158018476Y-99190380D02*
X158589904Y-99190380D01*
X158304190Y-99190380D02*
X158304190Y-98190380D01*
X158399428Y-98333238D01*
X158494666Y-98428476D01*
X158589904Y-98476095D01*
X157447047Y-98618952D02*
X157542285Y-98571333D01*
X157589904Y-98523714D01*
X157637523Y-98428476D01*
X157637523Y-98380857D01*
X157589904Y-98285619D01*
X157542285Y-98238000D01*
X157447047Y-98190380D01*
X157256571Y-98190380D01*
X157161333Y-98238000D01*
X157113714Y-98285619D01*
X157066095Y-98380857D01*
X157066095Y-98428476D01*
X157113714Y-98523714D01*
X157161333Y-98571333D01*
X157256571Y-98618952D01*
X157447047Y-98618952D01*
X157542285Y-98666571D01*
X157589904Y-98714190D01*
X157637523Y-98809428D01*
X157637523Y-98999904D01*
X157589904Y-99095142D01*
X157542285Y-99142761D01*
X157447047Y-99190380D01*
X157256571Y-99190380D01*
X157161333Y-99142761D01*
X157113714Y-99095142D01*
X157066095Y-98999904D01*
X157066095Y-98809428D01*
X157113714Y-98714190D01*
X157161333Y-98666571D01*
X157256571Y-98618952D01*
X122122142Y-94357142D02*
X122169761Y-94309523D01*
X122217380Y-94166666D01*
X122217380Y-94071428D01*
X122169761Y-93928571D01*
X122074523Y-93833333D01*
X121979285Y-93785714D01*
X121788809Y-93738095D01*
X121645952Y-93738095D01*
X121455476Y-93785714D01*
X121360238Y-93833333D01*
X121265000Y-93928571D01*
X121217380Y-94071428D01*
X121217380Y-94166666D01*
X121265000Y-94309523D01*
X121312619Y-94357142D01*
X122217380Y-95309523D02*
X122217380Y-94738095D01*
X122217380Y-95023809D02*
X121217380Y-95023809D01*
X121360238Y-94928571D01*
X121455476Y-94833333D01*
X121503095Y-94738095D01*
X122217380Y-95785714D02*
X122217380Y-95976190D01*
X122169761Y-96071428D01*
X122122142Y-96119047D01*
X121979285Y-96214285D01*
X121788809Y-96261904D01*
X121407857Y-96261904D01*
X121312619Y-96214285D01*
X121265000Y-96166666D01*
X121217380Y-96071428D01*
X121217380Y-95880952D01*
X121265000Y-95785714D01*
X121312619Y-95738095D01*
X121407857Y-95690476D01*
X121645952Y-95690476D01*
X121741190Y-95738095D01*
X121788809Y-95785714D01*
X121836428Y-95880952D01*
X121836428Y-96071428D01*
X121788809Y-96166666D01*
X121741190Y-96214285D01*
X121645952Y-96261904D01*
X128552857Y-118699142D02*
X128600476Y-118746761D01*
X128743333Y-118794380D01*
X128838571Y-118794380D01*
X128981428Y-118746761D01*
X129076666Y-118651523D01*
X129124285Y-118556285D01*
X129171904Y-118365809D01*
X129171904Y-118222952D01*
X129124285Y-118032476D01*
X129076666Y-117937238D01*
X128981428Y-117842000D01*
X128838571Y-117794380D01*
X128743333Y-117794380D01*
X128600476Y-117842000D01*
X128552857Y-117889619D01*
X128171904Y-117889619D02*
X128124285Y-117842000D01*
X128029047Y-117794380D01*
X127790952Y-117794380D01*
X127695714Y-117842000D01*
X127648095Y-117889619D01*
X127600476Y-117984857D01*
X127600476Y-118080095D01*
X127648095Y-118222952D01*
X128219523Y-118794380D01*
X127600476Y-118794380D01*
X126981428Y-117794380D02*
X126886190Y-117794380D01*
X126790952Y-117842000D01*
X126743333Y-117889619D01*
X126695714Y-117984857D01*
X126648095Y-118175333D01*
X126648095Y-118413428D01*
X126695714Y-118603904D01*
X126743333Y-118699142D01*
X126790952Y-118746761D01*
X126886190Y-118794380D01*
X126981428Y-118794380D01*
X127076666Y-118746761D01*
X127124285Y-118699142D01*
X127171904Y-118603904D01*
X127219523Y-118413428D01*
X127219523Y-118175333D01*
X127171904Y-117984857D01*
X127124285Y-117889619D01*
X127076666Y-117842000D01*
X126981428Y-117794380D01*
X162590357Y-89707142D02*
X162637976Y-89754761D01*
X162780833Y-89802380D01*
X162876071Y-89802380D01*
X163018928Y-89754761D01*
X163114166Y-89659523D01*
X163161785Y-89564285D01*
X163209404Y-89373809D01*
X163209404Y-89230952D01*
X163161785Y-89040476D01*
X163114166Y-88945238D01*
X163018928Y-88850000D01*
X162876071Y-88802380D01*
X162780833Y-88802380D01*
X162637976Y-88850000D01*
X162590357Y-88897619D01*
X162209404Y-88897619D02*
X162161785Y-88850000D01*
X162066547Y-88802380D01*
X161828452Y-88802380D01*
X161733214Y-88850000D01*
X161685595Y-88897619D01*
X161637976Y-88992857D01*
X161637976Y-89088095D01*
X161685595Y-89230952D01*
X162257023Y-89802380D01*
X161637976Y-89802380D01*
X161257023Y-88897619D02*
X161209404Y-88850000D01*
X161114166Y-88802380D01*
X160876071Y-88802380D01*
X160780833Y-88850000D01*
X160733214Y-88897619D01*
X160685595Y-88992857D01*
X160685595Y-89088095D01*
X160733214Y-89230952D01*
X161304642Y-89802380D01*
X160685595Y-89802380D01*
X146646142Y-107707642D02*
X146693761Y-107660023D01*
X146741380Y-107517166D01*
X146741380Y-107421928D01*
X146693761Y-107279071D01*
X146598523Y-107183833D01*
X146503285Y-107136214D01*
X146312809Y-107088595D01*
X146169952Y-107088595D01*
X145979476Y-107136214D01*
X145884238Y-107183833D01*
X145789000Y-107279071D01*
X145741380Y-107421928D01*
X145741380Y-107517166D01*
X145789000Y-107660023D01*
X145836619Y-107707642D01*
X145836619Y-108088595D02*
X145789000Y-108136214D01*
X145741380Y-108231452D01*
X145741380Y-108469547D01*
X145789000Y-108564785D01*
X145836619Y-108612404D01*
X145931857Y-108660023D01*
X146027095Y-108660023D01*
X146169952Y-108612404D01*
X146741380Y-108040976D01*
X146741380Y-108660023D01*
X146074714Y-109517166D02*
X146741380Y-109517166D01*
X145693761Y-109279071D02*
X146408047Y-109040976D01*
X146408047Y-109660023D01*
X147461927Y-87603642D02*
X147509546Y-87556023D01*
X147557165Y-87413166D01*
X147557165Y-87317928D01*
X147509546Y-87175071D01*
X147414308Y-87079833D01*
X147319070Y-87032214D01*
X147128594Y-86984595D01*
X146985737Y-86984595D01*
X146795261Y-87032214D01*
X146700023Y-87079833D01*
X146604785Y-87175071D01*
X146557165Y-87317928D01*
X146557165Y-87413166D01*
X146604785Y-87556023D01*
X146652404Y-87603642D01*
X146652404Y-87984595D02*
X146604785Y-88032214D01*
X146557165Y-88127452D01*
X146557165Y-88365547D01*
X146604785Y-88460785D01*
X146652404Y-88508404D01*
X146747642Y-88556023D01*
X146842880Y-88556023D01*
X146985737Y-88508404D01*
X147557165Y-87936976D01*
X147557165Y-88556023D01*
X146557165Y-89460785D02*
X146557165Y-88984595D01*
X147033356Y-88936976D01*
X146985737Y-88984595D01*
X146938118Y-89079833D01*
X146938118Y-89317928D01*
X146985737Y-89413166D01*
X147033356Y-89460785D01*
X147128594Y-89508404D01*
X147366689Y-89508404D01*
X147461927Y-89460785D01*
X147509546Y-89413166D01*
X147557165Y-89317928D01*
X147557165Y-89079833D01*
X147509546Y-88984595D01*
X147461927Y-88936976D01*
X149481284Y-87603642D02*
X149528903Y-87556023D01*
X149576522Y-87413166D01*
X149576522Y-87317928D01*
X149528903Y-87175071D01*
X149433665Y-87079833D01*
X149338427Y-87032214D01*
X149147951Y-86984595D01*
X149005094Y-86984595D01*
X148814618Y-87032214D01*
X148719380Y-87079833D01*
X148624142Y-87175071D01*
X148576522Y-87317928D01*
X148576522Y-87413166D01*
X148624142Y-87556023D01*
X148671761Y-87603642D01*
X148671761Y-87984595D02*
X148624142Y-88032214D01*
X148576522Y-88127452D01*
X148576522Y-88365547D01*
X148624142Y-88460785D01*
X148671761Y-88508404D01*
X148766999Y-88556023D01*
X148862237Y-88556023D01*
X149005094Y-88508404D01*
X149576522Y-87936976D01*
X149576522Y-88556023D01*
X148576522Y-89413166D02*
X148576522Y-89222690D01*
X148624142Y-89127452D01*
X148671761Y-89079833D01*
X148814618Y-88984595D01*
X149005094Y-88936976D01*
X149386046Y-88936976D01*
X149481284Y-88984595D01*
X149528903Y-89032214D01*
X149576522Y-89127452D01*
X149576522Y-89317928D01*
X149528903Y-89413166D01*
X149481284Y-89460785D01*
X149386046Y-89508404D01*
X149147951Y-89508404D01*
X149052713Y-89460785D01*
X149005094Y-89413166D01*
X148957475Y-89317928D01*
X148957475Y-89127452D01*
X149005094Y-89032214D01*
X149052713Y-88984595D01*
X149147951Y-88936976D01*
X138388357Y-73035142D02*
X138435976Y-73082761D01*
X138578833Y-73130380D01*
X138674071Y-73130380D01*
X138816928Y-73082761D01*
X138912166Y-72987523D01*
X138959785Y-72892285D01*
X139007404Y-72701809D01*
X139007404Y-72558952D01*
X138959785Y-72368476D01*
X138912166Y-72273238D01*
X138816928Y-72178000D01*
X138674071Y-72130380D01*
X138578833Y-72130380D01*
X138435976Y-72178000D01*
X138388357Y-72225619D01*
X138007404Y-72225619D02*
X137959785Y-72178000D01*
X137864547Y-72130380D01*
X137626452Y-72130380D01*
X137531214Y-72178000D01*
X137483595Y-72225619D01*
X137435976Y-72320857D01*
X137435976Y-72416095D01*
X137483595Y-72558952D01*
X138055023Y-73130380D01*
X137435976Y-73130380D01*
X137102642Y-72130380D02*
X136435976Y-72130380D01*
X136864547Y-73130380D01*
X153855142Y-111196142D02*
X153902761Y-111148523D01*
X153950380Y-111005666D01*
X153950380Y-110910428D01*
X153902761Y-110767571D01*
X153807523Y-110672333D01*
X153712285Y-110624714D01*
X153521809Y-110577095D01*
X153378952Y-110577095D01*
X153188476Y-110624714D01*
X153093238Y-110672333D01*
X152998000Y-110767571D01*
X152950380Y-110910428D01*
X152950380Y-111005666D01*
X152998000Y-111148523D01*
X153045619Y-111196142D01*
X153045619Y-111577095D02*
X152998000Y-111624714D01*
X152950380Y-111719952D01*
X152950380Y-111958047D01*
X152998000Y-112053285D01*
X153045619Y-112100904D01*
X153140857Y-112148523D01*
X153236095Y-112148523D01*
X153378952Y-112100904D01*
X153950380Y-111529476D01*
X153950380Y-112148523D01*
X153378952Y-112719952D02*
X153331333Y-112624714D01*
X153283714Y-112577095D01*
X153188476Y-112529476D01*
X153140857Y-112529476D01*
X153045619Y-112577095D01*
X152998000Y-112624714D01*
X152950380Y-112719952D01*
X152950380Y-112910428D01*
X152998000Y-113005666D01*
X153045619Y-113053285D01*
X153140857Y-113100904D01*
X153188476Y-113100904D01*
X153283714Y-113053285D01*
X153331333Y-113005666D01*
X153378952Y-112910428D01*
X153378952Y-112719952D01*
X153426571Y-112624714D01*
X153474190Y-112577095D01*
X153569428Y-112529476D01*
X153759904Y-112529476D01*
X153855142Y-112577095D01*
X153902761Y-112624714D01*
X153950380Y-112719952D01*
X153950380Y-112910428D01*
X153902761Y-113005666D01*
X153855142Y-113053285D01*
X153759904Y-113100904D01*
X153569428Y-113100904D01*
X153474190Y-113053285D01*
X153426571Y-113005666D01*
X153378952Y-112910428D01*
X160873857Y-103753142D02*
X160921476Y-103800761D01*
X161064333Y-103848380D01*
X161159571Y-103848380D01*
X161302428Y-103800761D01*
X161397666Y-103705523D01*
X161445285Y-103610285D01*
X161492904Y-103419809D01*
X161492904Y-103276952D01*
X161445285Y-103086476D01*
X161397666Y-102991238D01*
X161302428Y-102896000D01*
X161159571Y-102848380D01*
X161064333Y-102848380D01*
X160921476Y-102896000D01*
X160873857Y-102943619D01*
X160492904Y-102943619D02*
X160445285Y-102896000D01*
X160350047Y-102848380D01*
X160111952Y-102848380D01*
X160016714Y-102896000D01*
X159969095Y-102943619D01*
X159921476Y-103038857D01*
X159921476Y-103134095D01*
X159969095Y-103276952D01*
X160540523Y-103848380D01*
X159921476Y-103848380D01*
X159445285Y-103848380D02*
X159254809Y-103848380D01*
X159159571Y-103800761D01*
X159111952Y-103753142D01*
X159016714Y-103610285D01*
X158969095Y-103419809D01*
X158969095Y-103038857D01*
X159016714Y-102943619D01*
X159064333Y-102896000D01*
X159159571Y-102848380D01*
X159350047Y-102848380D01*
X159445285Y-102896000D01*
X159492904Y-102943619D01*
X159540523Y-103038857D01*
X159540523Y-103276952D01*
X159492904Y-103372190D01*
X159445285Y-103419809D01*
X159350047Y-103467428D01*
X159159571Y-103467428D01*
X159064333Y-103419809D01*
X159016714Y-103372190D01*
X158969095Y-103276952D01*
X160873857Y-102276142D02*
X160921476Y-102323761D01*
X161064333Y-102371380D01*
X161159571Y-102371380D01*
X161302428Y-102323761D01*
X161397666Y-102228523D01*
X161445285Y-102133285D01*
X161492904Y-101942809D01*
X161492904Y-101799952D01*
X161445285Y-101609476D01*
X161397666Y-101514238D01*
X161302428Y-101419000D01*
X161159571Y-101371380D01*
X161064333Y-101371380D01*
X160921476Y-101419000D01*
X160873857Y-101466619D01*
X160540523Y-101371380D02*
X159921476Y-101371380D01*
X160254809Y-101752333D01*
X160111952Y-101752333D01*
X160016714Y-101799952D01*
X159969095Y-101847571D01*
X159921476Y-101942809D01*
X159921476Y-102180904D01*
X159969095Y-102276142D01*
X160016714Y-102323761D01*
X160111952Y-102371380D01*
X160397666Y-102371380D01*
X160492904Y-102323761D01*
X160540523Y-102276142D01*
X158969095Y-102371380D02*
X159540523Y-102371380D01*
X159254809Y-102371380D02*
X159254809Y-101371380D01*
X159350047Y-101514238D01*
X159445285Y-101609476D01*
X159540523Y-101657095D01*
X160109166Y-84362380D02*
X160442500Y-83886190D01*
X160680595Y-84362380D02*
X160680595Y-83362380D01*
X160299642Y-83362380D01*
X160204404Y-83410000D01*
X160156785Y-83457619D01*
X160109166Y-83552857D01*
X160109166Y-83695714D01*
X160156785Y-83790952D01*
X160204404Y-83838571D01*
X160299642Y-83886190D01*
X160680595Y-83886190D01*
X159728214Y-83457619D02*
X159680595Y-83410000D01*
X159585357Y-83362380D01*
X159347261Y-83362380D01*
X159252023Y-83410000D01*
X159204404Y-83457619D01*
X159156785Y-83552857D01*
X159156785Y-83648095D01*
X159204404Y-83790952D01*
X159775833Y-84362380D01*
X159156785Y-84362380D01*
X157081380Y-90643333D02*
X156605190Y-90310000D01*
X157081380Y-90071904D02*
X156081380Y-90071904D01*
X156081380Y-90452857D01*
X156129000Y-90548095D01*
X156176619Y-90595714D01*
X156271857Y-90643333D01*
X156414714Y-90643333D01*
X156509952Y-90595714D01*
X156557571Y-90548095D01*
X156605190Y-90452857D01*
X156605190Y-90071904D01*
X156081380Y-91548095D02*
X156081380Y-91071904D01*
X156557571Y-91024285D01*
X156509952Y-91071904D01*
X156462333Y-91167142D01*
X156462333Y-91405238D01*
X156509952Y-91500476D01*
X156557571Y-91548095D01*
X156652809Y-91595714D01*
X156890904Y-91595714D01*
X156986142Y-91548095D01*
X157033761Y-91500476D01*
X157081380Y-91405238D01*
X157081380Y-91167142D01*
X157033761Y-91071904D01*
X156986142Y-91024285D01*
X159033380Y-90643333D02*
X158557190Y-90310000D01*
X159033380Y-90071904D02*
X158033380Y-90071904D01*
X158033380Y-90452857D01*
X158081000Y-90548095D01*
X158128619Y-90595714D01*
X158223857Y-90643333D01*
X158366714Y-90643333D01*
X158461952Y-90595714D01*
X158509571Y-90548095D01*
X158557190Y-90452857D01*
X158557190Y-90071904D01*
X158033380Y-91500476D02*
X158033380Y-91310000D01*
X158081000Y-91214761D01*
X158128619Y-91167142D01*
X158271476Y-91071904D01*
X158461952Y-91024285D01*
X158842904Y-91024285D01*
X158938142Y-91071904D01*
X158985761Y-91119523D01*
X159033380Y-91214761D01*
X159033380Y-91405238D01*
X158985761Y-91500476D01*
X158938142Y-91548095D01*
X158842904Y-91595714D01*
X158604809Y-91595714D01*
X158509571Y-91548095D01*
X158461952Y-91500476D01*
X158414333Y-91405238D01*
X158414333Y-91214761D01*
X158461952Y-91119523D01*
X158509571Y-91071904D01*
X158604809Y-91024285D01*
X131181380Y-75271333D02*
X130705190Y-74938000D01*
X131181380Y-74699904D02*
X130181380Y-74699904D01*
X130181380Y-75080857D01*
X130229000Y-75176095D01*
X130276619Y-75223714D01*
X130371857Y-75271333D01*
X130514714Y-75271333D01*
X130609952Y-75223714D01*
X130657571Y-75176095D01*
X130705190Y-75080857D01*
X130705190Y-74699904D01*
X130609952Y-75842761D02*
X130562333Y-75747523D01*
X130514714Y-75699904D01*
X130419476Y-75652285D01*
X130371857Y-75652285D01*
X130276619Y-75699904D01*
X130229000Y-75747523D01*
X130181380Y-75842761D01*
X130181380Y-76033238D01*
X130229000Y-76128476D01*
X130276619Y-76176095D01*
X130371857Y-76223714D01*
X130419476Y-76223714D01*
X130514714Y-76176095D01*
X130562333Y-76128476D01*
X130609952Y-76033238D01*
X130609952Y-75842761D01*
X130657571Y-75747523D01*
X130705190Y-75699904D01*
X130800428Y-75652285D01*
X130990904Y-75652285D01*
X131086142Y-75699904D01*
X131133761Y-75747523D01*
X131181380Y-75842761D01*
X131181380Y-76033238D01*
X131133761Y-76128476D01*
X131086142Y-76176095D01*
X130990904Y-76223714D01*
X130800428Y-76223714D01*
X130705190Y-76176095D01*
X130657571Y-76128476D01*
X130609952Y-76033238D01*
X149637928Y-111088190D02*
X149637928Y-111564380D01*
X149971261Y-110564380D02*
X149637928Y-111088190D01*
X149304595Y-110564380D01*
X148447452Y-111564380D02*
X149018880Y-111564380D01*
X148733166Y-111564380D02*
X148733166Y-110564380D01*
X148828404Y-110707238D01*
X148923642Y-110802476D01*
X149018880Y-110850095D01*
X164391142Y-112594142D02*
X164438761Y-112546523D01*
X164486380Y-112403666D01*
X164486380Y-112308428D01*
X164438761Y-112165571D01*
X164343523Y-112070333D01*
X164248285Y-112022714D01*
X164057809Y-111975095D01*
X163914952Y-111975095D01*
X163724476Y-112022714D01*
X163629238Y-112070333D01*
X163534000Y-112165571D01*
X163486380Y-112308428D01*
X163486380Y-112403666D01*
X163534000Y-112546523D01*
X163581619Y-112594142D01*
X163486380Y-112927476D02*
X163486380Y-113546523D01*
X163867333Y-113213190D01*
X163867333Y-113356047D01*
X163914952Y-113451285D01*
X163962571Y-113498904D01*
X164057809Y-113546523D01*
X164295904Y-113546523D01*
X164391142Y-113498904D01*
X164438761Y-113451285D01*
X164486380Y-113356047D01*
X164486380Y-113070333D01*
X164438761Y-112975095D01*
X164391142Y-112927476D01*
X163486380Y-114165571D02*
X163486380Y-114260809D01*
X163534000Y-114356047D01*
X163581619Y-114403666D01*
X163676857Y-114451285D01*
X163867333Y-114498904D01*
X164105428Y-114498904D01*
X164295904Y-114451285D01*
X164391142Y-114403666D01*
X164438761Y-114356047D01*
X164486380Y-114260809D01*
X164486380Y-114165571D01*
X164438761Y-114070333D01*
X164391142Y-114022714D01*
X164295904Y-113975095D01*
X164105428Y-113927476D01*
X163867333Y-113927476D01*
X163676857Y-113975095D01*
X163581619Y-114022714D01*
X163534000Y-114070333D01*
X163486380Y-114165571D01*
X150047666Y-106703380D02*
X150381000Y-106227190D01*
X150619095Y-106703380D02*
X150619095Y-105703380D01*
X150238142Y-105703380D01*
X150142904Y-105751000D01*
X150095285Y-105798619D01*
X150047666Y-105893857D01*
X150047666Y-106036714D01*
X150095285Y-106131952D01*
X150142904Y-106179571D01*
X150238142Y-106227190D01*
X150619095Y-106227190D01*
X149571476Y-106703380D02*
X149381000Y-106703380D01*
X149285761Y-106655761D01*
X149238142Y-106608142D01*
X149142904Y-106465285D01*
X149095285Y-106274809D01*
X149095285Y-105893857D01*
X149142904Y-105798619D01*
X149190523Y-105751000D01*
X149285761Y-105703380D01*
X149476238Y-105703380D01*
X149571476Y-105751000D01*
X149619095Y-105798619D01*
X149666714Y-105893857D01*
X149666714Y-106131952D01*
X149619095Y-106227190D01*
X149571476Y-106274809D01*
X149476238Y-106322428D01*
X149285761Y-106322428D01*
X149190523Y-106274809D01*
X149142904Y-106227190D01*
X149095285Y-106131952D01*
X140290095Y-111321380D02*
X140290095Y-110321380D01*
X140052000Y-110321380D01*
X139909142Y-110369000D01*
X139813904Y-110464238D01*
X139766285Y-110559476D01*
X139718666Y-110749952D01*
X139718666Y-110892809D01*
X139766285Y-111083285D01*
X139813904Y-111178523D01*
X139909142Y-111273761D01*
X140052000Y-111321380D01*
X140290095Y-111321380D01*
X138766285Y-111321380D02*
X139337714Y-111321380D01*
X139052000Y-111321380D02*
X139052000Y-110321380D01*
X139147238Y-110464238D01*
X139242476Y-110559476D01*
X139337714Y-110607095D01*
X132922380Y-93757904D02*
X131922380Y-93757904D01*
X131922380Y-93996000D01*
X131970000Y-94138857D01*
X132065238Y-94234095D01*
X132160476Y-94281714D01*
X132350952Y-94329333D01*
X132493809Y-94329333D01*
X132684285Y-94281714D01*
X132779523Y-94234095D01*
X132874761Y-94138857D01*
X132922380Y-93996000D01*
X132922380Y-93757904D01*
X132017619Y-94710285D02*
X131970000Y-94757904D01*
X131922380Y-94853142D01*
X131922380Y-95091238D01*
X131970000Y-95186476D01*
X132017619Y-95234095D01*
X132112857Y-95281714D01*
X132208095Y-95281714D01*
X132350952Y-95234095D01*
X132922380Y-94662666D01*
X132922380Y-95281714D01*
X168993142Y-91263142D02*
X169040761Y-91215523D01*
X169088380Y-91072666D01*
X169088380Y-90977428D01*
X169040761Y-90834571D01*
X168945523Y-90739333D01*
X168850285Y-90691714D01*
X168659809Y-90644095D01*
X168516952Y-90644095D01*
X168326476Y-90691714D01*
X168231238Y-90739333D01*
X168136000Y-90834571D01*
X168088380Y-90977428D01*
X168088380Y-91072666D01*
X168136000Y-91215523D01*
X168183619Y-91263142D01*
X168088380Y-91596476D02*
X168088380Y-92215523D01*
X168469333Y-91882190D01*
X168469333Y-92025047D01*
X168516952Y-92120285D01*
X168564571Y-92167904D01*
X168659809Y-92215523D01*
X168897904Y-92215523D01*
X168993142Y-92167904D01*
X169040761Y-92120285D01*
X169088380Y-92025047D01*
X169088380Y-91739333D01*
X169040761Y-91644095D01*
X168993142Y-91596476D01*
X168421714Y-93072666D02*
X169088380Y-93072666D01*
X168040761Y-92834571D02*
X168755047Y-92596476D01*
X168755047Y-93215523D01*
X121818142Y-99182142D02*
X121865761Y-99134523D01*
X121913380Y-98991666D01*
X121913380Y-98896428D01*
X121865761Y-98753571D01*
X121770523Y-98658333D01*
X121675285Y-98610714D01*
X121484809Y-98563095D01*
X121341952Y-98563095D01*
X121151476Y-98610714D01*
X121056238Y-98658333D01*
X120961000Y-98753571D01*
X120913380Y-98896428D01*
X120913380Y-98991666D01*
X120961000Y-99134523D01*
X121008619Y-99182142D01*
X120913380Y-99515476D02*
X120913380Y-100134523D01*
X121294333Y-99801190D01*
X121294333Y-99944047D01*
X121341952Y-100039285D01*
X121389571Y-100086904D01*
X121484809Y-100134523D01*
X121722904Y-100134523D01*
X121818142Y-100086904D01*
X121865761Y-100039285D01*
X121913380Y-99944047D01*
X121913380Y-99658333D01*
X121865761Y-99563095D01*
X121818142Y-99515476D01*
X120913380Y-100467857D02*
X120913380Y-101086904D01*
X121294333Y-100753571D01*
X121294333Y-100896428D01*
X121341952Y-100991666D01*
X121389571Y-101039285D01*
X121484809Y-101086904D01*
X121722904Y-101086904D01*
X121818142Y-101039285D01*
X121865761Y-100991666D01*
X121913380Y-100896428D01*
X121913380Y-100610714D01*
X121865761Y-100515476D01*
X121818142Y-100467857D01*
X150466857Y-118994142D02*
X150514476Y-119041761D01*
X150657333Y-119089380D01*
X150752571Y-119089380D01*
X150895428Y-119041761D01*
X150990666Y-118946523D01*
X151038285Y-118851285D01*
X151085904Y-118660809D01*
X151085904Y-118517952D01*
X151038285Y-118327476D01*
X150990666Y-118232238D01*
X150895428Y-118137000D01*
X150752571Y-118089380D01*
X150657333Y-118089380D01*
X150514476Y-118137000D01*
X150466857Y-118184619D01*
X150133523Y-118089380D02*
X149514476Y-118089380D01*
X149847809Y-118470333D01*
X149704952Y-118470333D01*
X149609714Y-118517952D01*
X149562095Y-118565571D01*
X149514476Y-118660809D01*
X149514476Y-118898904D01*
X149562095Y-118994142D01*
X149609714Y-119041761D01*
X149704952Y-119089380D01*
X149990666Y-119089380D01*
X150085904Y-119041761D01*
X150133523Y-118994142D01*
X149133523Y-118184619D02*
X149085904Y-118137000D01*
X148990666Y-118089380D01*
X148752571Y-118089380D01*
X148657333Y-118137000D01*
X148609714Y-118184619D01*
X148562095Y-118279857D01*
X148562095Y-118375095D01*
X148609714Y-118517952D01*
X149181142Y-119089380D01*
X148562095Y-119089380D01*
X140817857Y-119085380D02*
X141151190Y-118609190D01*
X141389285Y-119085380D02*
X141389285Y-118085380D01*
X141008333Y-118085380D01*
X140913095Y-118133000D01*
X140865476Y-118180619D01*
X140817857Y-118275857D01*
X140817857Y-118418714D01*
X140865476Y-118513952D01*
X140913095Y-118561571D01*
X141008333Y-118609190D01*
X141389285Y-118609190D01*
X139865476Y-119085380D02*
X140436904Y-119085380D01*
X140151190Y-119085380D02*
X140151190Y-118085380D01*
X140246428Y-118228238D01*
X140341666Y-118323476D01*
X140436904Y-118371095D01*
X139246428Y-118085380D02*
X139151190Y-118085380D01*
X139055952Y-118133000D01*
X139008333Y-118180619D01*
X138960714Y-118275857D01*
X138913095Y-118466333D01*
X138913095Y-118704428D01*
X138960714Y-118894904D01*
X139008333Y-118990142D01*
X139055952Y-119037761D01*
X139151190Y-119085380D01*
X139246428Y-119085380D01*
X139341666Y-119037761D01*
X139389285Y-118990142D01*
X139436904Y-118894904D01*
X139484523Y-118704428D01*
X139484523Y-118466333D01*
X139436904Y-118275857D01*
X139389285Y-118180619D01*
X139341666Y-118133000D01*
X139246428Y-118085380D01*
X121909380Y-89532142D02*
X121433190Y-89198809D01*
X121909380Y-88960714D02*
X120909380Y-88960714D01*
X120909380Y-89341666D01*
X120957000Y-89436904D01*
X121004619Y-89484523D01*
X121099857Y-89532142D01*
X121242714Y-89532142D01*
X121337952Y-89484523D01*
X121385571Y-89436904D01*
X121433190Y-89341666D01*
X121433190Y-88960714D01*
X121909380Y-90484523D02*
X121909380Y-89913095D01*
X121909380Y-90198809D02*
X120909380Y-90198809D01*
X121052238Y-90103571D01*
X121147476Y-90008333D01*
X121195095Y-89913095D01*
X121909380Y-91436904D02*
X121909380Y-90865476D01*
X121909380Y-91151190D02*
X120909380Y-91151190D01*
X121052238Y-91055952D01*
X121147476Y-90960714D01*
X121195095Y-90865476D01*
X169088380Y-97452142D02*
X168612190Y-97118809D01*
X169088380Y-96880714D02*
X168088380Y-96880714D01*
X168088380Y-97261666D01*
X168136000Y-97356904D01*
X168183619Y-97404523D01*
X168278857Y-97452142D01*
X168421714Y-97452142D01*
X168516952Y-97404523D01*
X168564571Y-97356904D01*
X168612190Y-97261666D01*
X168612190Y-96880714D01*
X169088380Y-98404523D02*
X169088380Y-97833095D01*
X169088380Y-98118809D02*
X168088380Y-98118809D01*
X168231238Y-98023571D01*
X168326476Y-97928333D01*
X168374095Y-97833095D01*
X168183619Y-98785476D02*
X168136000Y-98833095D01*
X168088380Y-98928333D01*
X168088380Y-99166428D01*
X168136000Y-99261666D01*
X168183619Y-99309285D01*
X168278857Y-99356904D01*
X168374095Y-99356904D01*
X168516952Y-99309285D01*
X169088380Y-98737857D01*
X169088380Y-99356904D01*
M02*
