G04 #@! TF.GenerationSoftware,KiCad,Pcbnew,(5.1.4-0-10_14)*
G04 #@! TF.CreationDate,2020-12-07T20:11:59-03:00*
G04 #@! TF.ProjectId,hub_usb_sd,6875625f-7573-4625-9f73-642e6b696361,1.0*
G04 #@! TF.SameCoordinates,Original*
G04 #@! TF.FileFunction,Soldermask,Bot*
G04 #@! TF.FilePolarity,Negative*
%FSLAX46Y46*%
G04 Gerber Fmt 4.6, Leading zero omitted, Abs format (unit mm)*
G04 Created by KiCad (PCBNEW (5.1.4-0-10_14)) date 2020-12-07 20:11:59*
%MOMM*%
%LPD*%
G04 APERTURE LIST*
%ADD10C,0.100000*%
G04 APERTURE END LIST*
D10*
G36*
X167275880Y-114759776D02*
G01*
X167656593Y-114835504D01*
X168066249Y-115005189D01*
X168434929Y-115251534D01*
X168748466Y-115565071D01*
X168994811Y-115933751D01*
X169164496Y-116343407D01*
X169251000Y-116778296D01*
X169251000Y-117221704D01*
X169164496Y-117656593D01*
X168994811Y-118066249D01*
X168748466Y-118434929D01*
X168434929Y-118748466D01*
X168066249Y-118994811D01*
X167656593Y-119164496D01*
X167275880Y-119240224D01*
X167221705Y-119251000D01*
X166778295Y-119251000D01*
X166724120Y-119240224D01*
X166343407Y-119164496D01*
X165933751Y-118994811D01*
X165565071Y-118748466D01*
X165251534Y-118434929D01*
X165005189Y-118066249D01*
X164835504Y-117656593D01*
X164749000Y-117221704D01*
X164749000Y-116778296D01*
X164835504Y-116343407D01*
X165005189Y-115933751D01*
X165251534Y-115565071D01*
X165565071Y-115251534D01*
X165933751Y-115005189D01*
X166343407Y-114835504D01*
X166724120Y-114759776D01*
X166778295Y-114749000D01*
X167221705Y-114749000D01*
X167275880Y-114759776D01*
X167275880Y-114759776D01*
G37*
G36*
X123275880Y-114759776D02*
G01*
X123656593Y-114835504D01*
X124066249Y-115005189D01*
X124434929Y-115251534D01*
X124748466Y-115565071D01*
X124994811Y-115933751D01*
X125164496Y-116343407D01*
X125251000Y-116778296D01*
X125251000Y-117221704D01*
X125164496Y-117656593D01*
X124994811Y-118066249D01*
X124748466Y-118434929D01*
X124434929Y-118748466D01*
X124066249Y-118994811D01*
X123656593Y-119164496D01*
X123275880Y-119240224D01*
X123221705Y-119251000D01*
X122778295Y-119251000D01*
X122724120Y-119240224D01*
X122343407Y-119164496D01*
X121933751Y-118994811D01*
X121565071Y-118748466D01*
X121251534Y-118434929D01*
X121005189Y-118066249D01*
X120835504Y-117656593D01*
X120749000Y-117221704D01*
X120749000Y-116778296D01*
X120835504Y-116343407D01*
X121005189Y-115933751D01*
X121251534Y-115565071D01*
X121565071Y-115251534D01*
X121933751Y-115005189D01*
X122343407Y-114835504D01*
X122724120Y-114759776D01*
X122778295Y-114749000D01*
X123221705Y-114749000D01*
X123275880Y-114759776D01*
X123275880Y-114759776D01*
G37*
G36*
X150203591Y-116810585D02*
G01*
X150237569Y-116820893D01*
X150268890Y-116837634D01*
X150296339Y-116860161D01*
X150318866Y-116887610D01*
X150335607Y-116918931D01*
X150345915Y-116952909D01*
X150350000Y-116994390D01*
X150350000Y-117595610D01*
X150345915Y-117637091D01*
X150335607Y-117671069D01*
X150318866Y-117702390D01*
X150296339Y-117729839D01*
X150268890Y-117752366D01*
X150237569Y-117769107D01*
X150203591Y-117779415D01*
X150162110Y-117783500D01*
X149485890Y-117783500D01*
X149444409Y-117779415D01*
X149410431Y-117769107D01*
X149379110Y-117752366D01*
X149351661Y-117729839D01*
X149329134Y-117702390D01*
X149312393Y-117671069D01*
X149302085Y-117637091D01*
X149298000Y-117595610D01*
X149298000Y-116994390D01*
X149302085Y-116952909D01*
X149312393Y-116918931D01*
X149329134Y-116887610D01*
X149351661Y-116860161D01*
X149379110Y-116837634D01*
X149410431Y-116820893D01*
X149444409Y-116810585D01*
X149485890Y-116806500D01*
X150162110Y-116806500D01*
X150203591Y-116810585D01*
X150203591Y-116810585D01*
G37*
G36*
X140554591Y-116810585D02*
G01*
X140588569Y-116820893D01*
X140619890Y-116837634D01*
X140647339Y-116860161D01*
X140669866Y-116887610D01*
X140686607Y-116918931D01*
X140696915Y-116952909D01*
X140701000Y-116994390D01*
X140701000Y-117595610D01*
X140696915Y-117637091D01*
X140686607Y-117671069D01*
X140669866Y-117702390D01*
X140647339Y-117729839D01*
X140619890Y-117752366D01*
X140588569Y-117769107D01*
X140554591Y-117779415D01*
X140513110Y-117783500D01*
X139836890Y-117783500D01*
X139795409Y-117779415D01*
X139761431Y-117769107D01*
X139730110Y-117752366D01*
X139702661Y-117729839D01*
X139680134Y-117702390D01*
X139663393Y-117671069D01*
X139653085Y-117637091D01*
X139649000Y-117595610D01*
X139649000Y-116994390D01*
X139653085Y-116952909D01*
X139663393Y-116918931D01*
X139680134Y-116887610D01*
X139702661Y-116860161D01*
X139730110Y-116837634D01*
X139761431Y-116820893D01*
X139795409Y-116810585D01*
X139836890Y-116806500D01*
X140513110Y-116806500D01*
X140554591Y-116810585D01*
X140554591Y-116810585D01*
G37*
G36*
X128494468Y-116467565D02*
G01*
X128533138Y-116479296D01*
X128568777Y-116498346D01*
X128600017Y-116523983D01*
X128625654Y-116555223D01*
X128644704Y-116590862D01*
X128656435Y-116629532D01*
X128661000Y-116675888D01*
X128661000Y-117327112D01*
X128656435Y-117373468D01*
X128644704Y-117412138D01*
X128625654Y-117447777D01*
X128600017Y-117479017D01*
X128568777Y-117504654D01*
X128533138Y-117523704D01*
X128494468Y-117535435D01*
X128448112Y-117540000D01*
X127371888Y-117540000D01*
X127325532Y-117535435D01*
X127286862Y-117523704D01*
X127251223Y-117504654D01*
X127219983Y-117479017D01*
X127194346Y-117447777D01*
X127175296Y-117412138D01*
X127163565Y-117373468D01*
X127159000Y-117327112D01*
X127159000Y-116675888D01*
X127163565Y-116629532D01*
X127175296Y-116590862D01*
X127194346Y-116555223D01*
X127219983Y-116523983D01*
X127251223Y-116498346D01*
X127286862Y-116479296D01*
X127325532Y-116467565D01*
X127371888Y-116463000D01*
X128448112Y-116463000D01*
X128494468Y-116467565D01*
X128494468Y-116467565D01*
G37*
G36*
X152802585Y-114198802D02*
G01*
X152952410Y-114228604D01*
X153234674Y-114345521D01*
X153488705Y-114515259D01*
X153704741Y-114731295D01*
X153874479Y-114985326D01*
X153991396Y-115267590D01*
X154006581Y-115343931D01*
X154045013Y-115537138D01*
X154051000Y-115567240D01*
X154051000Y-115872760D01*
X153991396Y-116172410D01*
X153874479Y-116454674D01*
X153704741Y-116708705D01*
X153488705Y-116924741D01*
X153234674Y-117094479D01*
X152952410Y-117211396D01*
X152802585Y-117241198D01*
X152652761Y-117271000D01*
X152347239Y-117271000D01*
X152197415Y-117241198D01*
X152047590Y-117211396D01*
X151765326Y-117094479D01*
X151511295Y-116924741D01*
X151295259Y-116708705D01*
X151125521Y-116454674D01*
X151008604Y-116172410D01*
X150949000Y-115872760D01*
X150949000Y-115567240D01*
X150954988Y-115537138D01*
X150993419Y-115343931D01*
X151008604Y-115267590D01*
X151125521Y-114985326D01*
X151295259Y-114731295D01*
X151511295Y-114515259D01*
X151765326Y-114345521D01*
X152047590Y-114228604D01*
X152197415Y-114198802D01*
X152347239Y-114169000D01*
X152652761Y-114169000D01*
X152802585Y-114198802D01*
X152802585Y-114198802D01*
G37*
G36*
X137802585Y-114198802D02*
G01*
X137952410Y-114228604D01*
X138234674Y-114345521D01*
X138488705Y-114515259D01*
X138704741Y-114731295D01*
X138874479Y-114985326D01*
X138991396Y-115267590D01*
X139006581Y-115343931D01*
X139045013Y-115537138D01*
X139051000Y-115567240D01*
X139051000Y-115872760D01*
X138991396Y-116172410D01*
X138874479Y-116454674D01*
X138704741Y-116708705D01*
X138488705Y-116924741D01*
X138234674Y-117094479D01*
X137952410Y-117211396D01*
X137802585Y-117241198D01*
X137652761Y-117271000D01*
X137347239Y-117271000D01*
X137197415Y-117241198D01*
X137047590Y-117211396D01*
X136765326Y-117094479D01*
X136511295Y-116924741D01*
X136295259Y-116708705D01*
X136125521Y-116454674D01*
X136008604Y-116172410D01*
X135949000Y-115872760D01*
X135949000Y-115567240D01*
X135954988Y-115537138D01*
X135993419Y-115343931D01*
X136008604Y-115267590D01*
X136125521Y-114985326D01*
X136295259Y-114731295D01*
X136511295Y-114515259D01*
X136765326Y-114345521D01*
X137047590Y-114228604D01*
X137197415Y-114198802D01*
X137347239Y-114169000D01*
X137652761Y-114169000D01*
X137802585Y-114198802D01*
X137802585Y-114198802D01*
G37*
G36*
X147096811Y-114663271D02*
G01*
X147132603Y-114674129D01*
X147165595Y-114691763D01*
X147194508Y-114715492D01*
X147218237Y-114744405D01*
X147235871Y-114777397D01*
X147246729Y-114813189D01*
X147251000Y-114856555D01*
X147251000Y-116913445D01*
X147246729Y-116956811D01*
X147235871Y-116992603D01*
X147218237Y-117025595D01*
X147194508Y-117054508D01*
X147165595Y-117078237D01*
X147132603Y-117095871D01*
X147096811Y-117106729D01*
X147053445Y-117111000D01*
X146021555Y-117111000D01*
X145978189Y-117106729D01*
X145942397Y-117095871D01*
X145909405Y-117078237D01*
X145880492Y-117054508D01*
X145856763Y-117025595D01*
X145839129Y-116992603D01*
X145828271Y-116956811D01*
X145824000Y-116913445D01*
X145824000Y-114856555D01*
X145828271Y-114813189D01*
X145839129Y-114777397D01*
X145856763Y-114744405D01*
X145880492Y-114715492D01*
X145909405Y-114691763D01*
X145942397Y-114674129D01*
X145978189Y-114663271D01*
X146021555Y-114659000D01*
X147053445Y-114659000D01*
X147096811Y-114663271D01*
X147096811Y-114663271D01*
G37*
G36*
X144021811Y-114663271D02*
G01*
X144057603Y-114674129D01*
X144090595Y-114691763D01*
X144119508Y-114715492D01*
X144143237Y-114744405D01*
X144160871Y-114777397D01*
X144171729Y-114813189D01*
X144176000Y-114856555D01*
X144176000Y-116913445D01*
X144171729Y-116956811D01*
X144160871Y-116992603D01*
X144143237Y-117025595D01*
X144119508Y-117054508D01*
X144090595Y-117078237D01*
X144057603Y-117095871D01*
X144021811Y-117106729D01*
X143978445Y-117111000D01*
X142946555Y-117111000D01*
X142903189Y-117106729D01*
X142867397Y-117095871D01*
X142834405Y-117078237D01*
X142805492Y-117054508D01*
X142781763Y-117025595D01*
X142764129Y-116992603D01*
X142753271Y-116956811D01*
X142749000Y-116913445D01*
X142749000Y-114856555D01*
X142753271Y-114813189D01*
X142764129Y-114777397D01*
X142781763Y-114744405D01*
X142805492Y-114715492D01*
X142834405Y-114691763D01*
X142867397Y-114674129D01*
X142903189Y-114663271D01*
X142946555Y-114659000D01*
X143978445Y-114659000D01*
X144021811Y-114663271D01*
X144021811Y-114663271D01*
G37*
G36*
X161557000Y-116817000D02*
G01*
X157655000Y-116817000D01*
X157655000Y-114715000D01*
X161557000Y-114715000D01*
X161557000Y-116817000D01*
X161557000Y-116817000D01*
G37*
G36*
X140554591Y-115235585D02*
G01*
X140588569Y-115245893D01*
X140619890Y-115262634D01*
X140647339Y-115285161D01*
X140669866Y-115312610D01*
X140686607Y-115343931D01*
X140696915Y-115377909D01*
X140701000Y-115419390D01*
X140701000Y-116020610D01*
X140696915Y-116062091D01*
X140686607Y-116096069D01*
X140669866Y-116127390D01*
X140647339Y-116154839D01*
X140619890Y-116177366D01*
X140588569Y-116194107D01*
X140554591Y-116204415D01*
X140513110Y-116208500D01*
X139836890Y-116208500D01*
X139795409Y-116204415D01*
X139761431Y-116194107D01*
X139730110Y-116177366D01*
X139702661Y-116154839D01*
X139680134Y-116127390D01*
X139663393Y-116096069D01*
X139653085Y-116062091D01*
X139649000Y-116020610D01*
X139649000Y-115419390D01*
X139653085Y-115377909D01*
X139663393Y-115343931D01*
X139680134Y-115312610D01*
X139702661Y-115285161D01*
X139730110Y-115262634D01*
X139761431Y-115245893D01*
X139795409Y-115235585D01*
X139836890Y-115231500D01*
X140513110Y-115231500D01*
X140554591Y-115235585D01*
X140554591Y-115235585D01*
G37*
G36*
X150203591Y-115235585D02*
G01*
X150237569Y-115245893D01*
X150268890Y-115262634D01*
X150296339Y-115285161D01*
X150318866Y-115312610D01*
X150335607Y-115343931D01*
X150345915Y-115377909D01*
X150350000Y-115419390D01*
X150350000Y-116020610D01*
X150345915Y-116062091D01*
X150335607Y-116096069D01*
X150318866Y-116127390D01*
X150296339Y-116154839D01*
X150268890Y-116177366D01*
X150237569Y-116194107D01*
X150203591Y-116204415D01*
X150162110Y-116208500D01*
X149485890Y-116208500D01*
X149444409Y-116204415D01*
X149410431Y-116194107D01*
X149379110Y-116177366D01*
X149351661Y-116154839D01*
X149329134Y-116127390D01*
X149312393Y-116096069D01*
X149302085Y-116062091D01*
X149298000Y-116020610D01*
X149298000Y-115419390D01*
X149302085Y-115377909D01*
X149312393Y-115343931D01*
X149329134Y-115312610D01*
X149351661Y-115285161D01*
X149379110Y-115262634D01*
X149410431Y-115245893D01*
X149444409Y-115235585D01*
X149485890Y-115231500D01*
X150162110Y-115231500D01*
X150203591Y-115235585D01*
X150203591Y-115235585D01*
G37*
G36*
X131631311Y-114417271D02*
G01*
X131667103Y-114428129D01*
X131700095Y-114445763D01*
X131729008Y-114469492D01*
X131752737Y-114498405D01*
X131770371Y-114531397D01*
X131781229Y-114567189D01*
X131785500Y-114610555D01*
X131785500Y-115642445D01*
X131781229Y-115685811D01*
X131770371Y-115721603D01*
X131752737Y-115754595D01*
X131729008Y-115783508D01*
X131700095Y-115807237D01*
X131667103Y-115824871D01*
X131631311Y-115835729D01*
X131587945Y-115840000D01*
X129531055Y-115840000D01*
X129487689Y-115835729D01*
X129451897Y-115824871D01*
X129418905Y-115807237D01*
X129389992Y-115783508D01*
X129366263Y-115754595D01*
X129348629Y-115721603D01*
X129337771Y-115685811D01*
X129333500Y-115642445D01*
X129333500Y-114610555D01*
X129337771Y-114567189D01*
X129348629Y-114531397D01*
X129366263Y-114498405D01*
X129389992Y-114469492D01*
X129418905Y-114445763D01*
X129451897Y-114428129D01*
X129487689Y-114417271D01*
X129531055Y-114413000D01*
X131587945Y-114413000D01*
X131631311Y-114417271D01*
X131631311Y-114417271D01*
G37*
G36*
X128494468Y-114592565D02*
G01*
X128533138Y-114604296D01*
X128568777Y-114623346D01*
X128600017Y-114648983D01*
X128625654Y-114680223D01*
X128644704Y-114715862D01*
X128656435Y-114754532D01*
X128661000Y-114800888D01*
X128661000Y-115452112D01*
X128656435Y-115498468D01*
X128644704Y-115537138D01*
X128625654Y-115572777D01*
X128600017Y-115604017D01*
X128568777Y-115629654D01*
X128533138Y-115648704D01*
X128494468Y-115660435D01*
X128448112Y-115665000D01*
X127371888Y-115665000D01*
X127325532Y-115660435D01*
X127286862Y-115648704D01*
X127251223Y-115629654D01*
X127219983Y-115604017D01*
X127194346Y-115572777D01*
X127175296Y-115537138D01*
X127163565Y-115498468D01*
X127159000Y-115452112D01*
X127159000Y-114800888D01*
X127163565Y-114754532D01*
X127175296Y-114715862D01*
X127194346Y-114680223D01*
X127219983Y-114648983D01*
X127251223Y-114623346D01*
X127286862Y-114604296D01*
X127325532Y-114592565D01*
X127371888Y-114588000D01*
X128448112Y-114588000D01*
X128494468Y-114592565D01*
X128494468Y-114592565D01*
G37*
G36*
X148748228Y-112191703D02*
G01*
X148903100Y-112255853D01*
X149042481Y-112348985D01*
X149161015Y-112467519D01*
X149254147Y-112606900D01*
X149318297Y-112761772D01*
X149351000Y-112926184D01*
X149351000Y-113093816D01*
X149318297Y-113258228D01*
X149254147Y-113413100D01*
X149161015Y-113552481D01*
X149042481Y-113671015D01*
X148903100Y-113764147D01*
X148748228Y-113828297D01*
X148583816Y-113861000D01*
X148416184Y-113861000D01*
X148251772Y-113828297D01*
X148096900Y-113764147D01*
X147957519Y-113671015D01*
X147838985Y-113552481D01*
X147745853Y-113413100D01*
X147681703Y-113258228D01*
X147649000Y-113093816D01*
X147649000Y-112926184D01*
X147681703Y-112761772D01*
X147745853Y-112606900D01*
X147838985Y-112467519D01*
X147957519Y-112348985D01*
X148096900Y-112255853D01*
X148251772Y-112191703D01*
X148416184Y-112159000D01*
X148583816Y-112159000D01*
X148748228Y-112191703D01*
X148748228Y-112191703D01*
G37*
G36*
X142351000Y-113861000D02*
G01*
X140649000Y-113861000D01*
X140649000Y-112159000D01*
X142351000Y-112159000D01*
X142351000Y-113861000D01*
X142351000Y-113861000D01*
G37*
G36*
X144248228Y-112191703D02*
G01*
X144403100Y-112255853D01*
X144542481Y-112348985D01*
X144661015Y-112467519D01*
X144754147Y-112606900D01*
X144818297Y-112761772D01*
X144851000Y-112926184D01*
X144851000Y-113093816D01*
X144818297Y-113258228D01*
X144754147Y-113413100D01*
X144661015Y-113552481D01*
X144542481Y-113671015D01*
X144403100Y-113764147D01*
X144248228Y-113828297D01*
X144083816Y-113861000D01*
X143916184Y-113861000D01*
X143751772Y-113828297D01*
X143596900Y-113764147D01*
X143457519Y-113671015D01*
X143338985Y-113552481D01*
X143245853Y-113413100D01*
X143181703Y-113258228D01*
X143149000Y-113093816D01*
X143149000Y-112926184D01*
X143181703Y-112761772D01*
X143245853Y-112606900D01*
X143338985Y-112467519D01*
X143457519Y-112348985D01*
X143596900Y-112255853D01*
X143751772Y-112191703D01*
X143916184Y-112159000D01*
X144083816Y-112159000D01*
X144248228Y-112191703D01*
X144248228Y-112191703D01*
G37*
G36*
X146248228Y-112191703D02*
G01*
X146403100Y-112255853D01*
X146542481Y-112348985D01*
X146661015Y-112467519D01*
X146754147Y-112606900D01*
X146818297Y-112761772D01*
X146851000Y-112926184D01*
X146851000Y-113093816D01*
X146818297Y-113258228D01*
X146754147Y-113413100D01*
X146661015Y-113552481D01*
X146542481Y-113671015D01*
X146403100Y-113764147D01*
X146248228Y-113828297D01*
X146083816Y-113861000D01*
X145916184Y-113861000D01*
X145751772Y-113828297D01*
X145596900Y-113764147D01*
X145457519Y-113671015D01*
X145338985Y-113552481D01*
X145245853Y-113413100D01*
X145181703Y-113258228D01*
X145149000Y-113093816D01*
X145149000Y-112926184D01*
X145181703Y-112761772D01*
X145245853Y-112606900D01*
X145338985Y-112467519D01*
X145457519Y-112348985D01*
X145596900Y-112255853D01*
X145751772Y-112191703D01*
X145916184Y-112159000D01*
X146083816Y-112159000D01*
X146248228Y-112191703D01*
X146248228Y-112191703D01*
G37*
G36*
X126447744Y-112283681D02*
G01*
X126472256Y-112283681D01*
X126479168Y-112283000D01*
X127090832Y-112283000D01*
X127097744Y-112283681D01*
X127122256Y-112283681D01*
X127129168Y-112283000D01*
X127740832Y-112283000D01*
X127747744Y-112283681D01*
X127772256Y-112283681D01*
X127779168Y-112283000D01*
X128361000Y-112283000D01*
X128361000Y-113785000D01*
X127779168Y-113785000D01*
X127772256Y-113784319D01*
X127747744Y-113784319D01*
X127740832Y-113785000D01*
X127129168Y-113785000D01*
X127122256Y-113784319D01*
X127097744Y-113784319D01*
X127090832Y-113785000D01*
X126479168Y-113785000D01*
X126472256Y-113784319D01*
X126447744Y-113784319D01*
X126440832Y-113785000D01*
X125859000Y-113785000D01*
X125859000Y-112283000D01*
X126440832Y-112283000D01*
X126447744Y-112283681D01*
X126447744Y-112283681D01*
G37*
G36*
X155587468Y-112242565D02*
G01*
X155626138Y-112254296D01*
X155661777Y-112273346D01*
X155693017Y-112298983D01*
X155718654Y-112330223D01*
X155737704Y-112365862D01*
X155749435Y-112404532D01*
X155754000Y-112450888D01*
X155754000Y-113102112D01*
X155749435Y-113148468D01*
X155737704Y-113187138D01*
X155718654Y-113222777D01*
X155693017Y-113254017D01*
X155661777Y-113279654D01*
X155626138Y-113298704D01*
X155587468Y-113310435D01*
X155541112Y-113315000D01*
X154464888Y-113315000D01*
X154418532Y-113310435D01*
X154379862Y-113298704D01*
X154344223Y-113279654D01*
X154312983Y-113254017D01*
X154287346Y-113222777D01*
X154268296Y-113187138D01*
X154256565Y-113148468D01*
X154252000Y-113102112D01*
X154252000Y-112450888D01*
X154256565Y-112404532D01*
X154268296Y-112365862D01*
X154287346Y-112330223D01*
X154312983Y-112298983D01*
X154344223Y-112273346D01*
X154379862Y-112254296D01*
X154418532Y-112242565D01*
X154464888Y-112238000D01*
X155541112Y-112238000D01*
X155587468Y-112242565D01*
X155587468Y-112242565D01*
G37*
G36*
X131631311Y-111342271D02*
G01*
X131667103Y-111353129D01*
X131700095Y-111370763D01*
X131729008Y-111394492D01*
X131752737Y-111423405D01*
X131770371Y-111456397D01*
X131781229Y-111492189D01*
X131785500Y-111535555D01*
X131785500Y-112567445D01*
X131781229Y-112610811D01*
X131770371Y-112646603D01*
X131752737Y-112679595D01*
X131729008Y-112708508D01*
X131700095Y-112732237D01*
X131667103Y-112749871D01*
X131631311Y-112760729D01*
X131587945Y-112765000D01*
X129531055Y-112765000D01*
X129487689Y-112760729D01*
X129451897Y-112749871D01*
X129418905Y-112732237D01*
X129389992Y-112708508D01*
X129366263Y-112679595D01*
X129348629Y-112646603D01*
X129337771Y-112610811D01*
X129333500Y-112567445D01*
X129333500Y-111535555D01*
X129337771Y-111492189D01*
X129348629Y-111456397D01*
X129366263Y-111423405D01*
X129389992Y-111394492D01*
X129418905Y-111370763D01*
X129451897Y-111353129D01*
X129487689Y-111342271D01*
X129531055Y-111338000D01*
X131587945Y-111338000D01*
X131631311Y-111342271D01*
X131631311Y-111342271D01*
G37*
G36*
X128311000Y-111885000D02*
G01*
X125909000Y-111885000D01*
X125909000Y-109783000D01*
X128311000Y-109783000D01*
X128311000Y-111885000D01*
X128311000Y-111885000D01*
G37*
G36*
X164363591Y-110690585D02*
G01*
X164397569Y-110700893D01*
X164428890Y-110717634D01*
X164456339Y-110740161D01*
X164478866Y-110767610D01*
X164495607Y-110798931D01*
X164505915Y-110832909D01*
X164510000Y-110874390D01*
X164510000Y-111475610D01*
X164505915Y-111517091D01*
X164495607Y-111551069D01*
X164478866Y-111582390D01*
X164456339Y-111609839D01*
X164428890Y-111632366D01*
X164397569Y-111649107D01*
X164363591Y-111659415D01*
X164322110Y-111663500D01*
X163645890Y-111663500D01*
X163604409Y-111659415D01*
X163570431Y-111649107D01*
X163539110Y-111632366D01*
X163511661Y-111609839D01*
X163489134Y-111582390D01*
X163472393Y-111551069D01*
X163462085Y-111517091D01*
X163458000Y-111475610D01*
X163458000Y-110874390D01*
X163462085Y-110832909D01*
X163472393Y-110798931D01*
X163489134Y-110767610D01*
X163511661Y-110740161D01*
X163539110Y-110717634D01*
X163570431Y-110700893D01*
X163604409Y-110690585D01*
X163645890Y-110686500D01*
X164322110Y-110686500D01*
X164363591Y-110690585D01*
X164363591Y-110690585D01*
G37*
G36*
X155587468Y-110367565D02*
G01*
X155626138Y-110379296D01*
X155661777Y-110398346D01*
X155693017Y-110423983D01*
X155718654Y-110455223D01*
X155737704Y-110490862D01*
X155749435Y-110529532D01*
X155754000Y-110575888D01*
X155754000Y-111227112D01*
X155749435Y-111273468D01*
X155737704Y-111312138D01*
X155718654Y-111347777D01*
X155693017Y-111379017D01*
X155661777Y-111404654D01*
X155626138Y-111423704D01*
X155587468Y-111435435D01*
X155541112Y-111440000D01*
X154464888Y-111440000D01*
X154418532Y-111435435D01*
X154379862Y-111423704D01*
X154344223Y-111404654D01*
X154312983Y-111379017D01*
X154287346Y-111347777D01*
X154268296Y-111312138D01*
X154256565Y-111273468D01*
X154252000Y-111227112D01*
X154252000Y-110575888D01*
X154256565Y-110529532D01*
X154268296Y-110490862D01*
X154287346Y-110455223D01*
X154312983Y-110423983D01*
X154344223Y-110398346D01*
X154379862Y-110379296D01*
X154418532Y-110367565D01*
X154464888Y-110363000D01*
X155541112Y-110363000D01*
X155587468Y-110367565D01*
X155587468Y-110367565D01*
G37*
G36*
X167708600Y-109362989D02*
G01*
X167741652Y-109373015D01*
X167772103Y-109389292D01*
X167798799Y-109411201D01*
X167820708Y-109437897D01*
X167836985Y-109468348D01*
X167847011Y-109501400D01*
X167851000Y-109541903D01*
X167851000Y-110978097D01*
X167847011Y-111018600D01*
X167836985Y-111051652D01*
X167820708Y-111082103D01*
X167798799Y-111108799D01*
X167772103Y-111130708D01*
X167741652Y-111146985D01*
X167708600Y-111157011D01*
X167668097Y-111161000D01*
X165931903Y-111161000D01*
X165891400Y-111157011D01*
X165858348Y-111146985D01*
X165827897Y-111130708D01*
X165801201Y-111108799D01*
X165779292Y-111082103D01*
X165763015Y-111051652D01*
X165752989Y-111018600D01*
X165749000Y-110978097D01*
X165749000Y-109541903D01*
X165752989Y-109501400D01*
X165763015Y-109468348D01*
X165779292Y-109437897D01*
X165801201Y-109411201D01*
X165827897Y-109389292D01*
X165858348Y-109373015D01*
X165891400Y-109362989D01*
X165931903Y-109359000D01*
X167668097Y-109359000D01*
X167708600Y-109362989D01*
X167708600Y-109362989D01*
G37*
G36*
X160407000Y-110517000D02*
G01*
X158805000Y-110517000D01*
X158805000Y-108415000D01*
X160407000Y-108415000D01*
X160407000Y-110517000D01*
X160407000Y-110517000D01*
G37*
G36*
X162707000Y-110517000D02*
G01*
X161105000Y-110517000D01*
X161105000Y-108415000D01*
X162707000Y-108415000D01*
X162707000Y-110517000D01*
X162707000Y-110517000D01*
G37*
G36*
X158107000Y-110517000D02*
G01*
X156505000Y-110517000D01*
X156505000Y-108415000D01*
X158107000Y-108415000D01*
X158107000Y-110517000D01*
X158107000Y-110517000D01*
G37*
G36*
X149632000Y-110227000D02*
G01*
X148780000Y-110227000D01*
X148780000Y-108425000D01*
X149632000Y-108425000D01*
X149632000Y-110227000D01*
X149632000Y-110227000D01*
G37*
G36*
X150982000Y-110227000D02*
G01*
X150130000Y-110227000D01*
X150130000Y-108425000D01*
X150982000Y-108425000D01*
X150982000Y-110227000D01*
X150982000Y-110227000D01*
G37*
G36*
X164363591Y-109115585D02*
G01*
X164397569Y-109125893D01*
X164428890Y-109142634D01*
X164456339Y-109165161D01*
X164478866Y-109192610D01*
X164495607Y-109223931D01*
X164505915Y-109257909D01*
X164510000Y-109299390D01*
X164510000Y-109900610D01*
X164505915Y-109942091D01*
X164495607Y-109976069D01*
X164478866Y-110007390D01*
X164456339Y-110034839D01*
X164428890Y-110057366D01*
X164397569Y-110074107D01*
X164363591Y-110084415D01*
X164322110Y-110088500D01*
X163645890Y-110088500D01*
X163604409Y-110084415D01*
X163570431Y-110074107D01*
X163539110Y-110057366D01*
X163511661Y-110034839D01*
X163489134Y-110007390D01*
X163472393Y-109976069D01*
X163462085Y-109942091D01*
X163458000Y-109900610D01*
X163458000Y-109299390D01*
X163462085Y-109257909D01*
X163472393Y-109223931D01*
X163489134Y-109192610D01*
X163511661Y-109165161D01*
X163539110Y-109142634D01*
X163570431Y-109125893D01*
X163604409Y-109115585D01*
X163645890Y-109111500D01*
X164322110Y-109111500D01*
X164363591Y-109115585D01*
X164363591Y-109115585D01*
G37*
G36*
X135185468Y-108542565D02*
G01*
X135224138Y-108554296D01*
X135259777Y-108573346D01*
X135291017Y-108598983D01*
X135316654Y-108630223D01*
X135335704Y-108665862D01*
X135347435Y-108704532D01*
X135352000Y-108750888D01*
X135352000Y-109827112D01*
X135347435Y-109873468D01*
X135335704Y-109912138D01*
X135316654Y-109947777D01*
X135291017Y-109979017D01*
X135259777Y-110004654D01*
X135224138Y-110023704D01*
X135185468Y-110035435D01*
X135139112Y-110040000D01*
X134487888Y-110040000D01*
X134441532Y-110035435D01*
X134402862Y-110023704D01*
X134367223Y-110004654D01*
X134335983Y-109979017D01*
X134310346Y-109947777D01*
X134291296Y-109912138D01*
X134279565Y-109873468D01*
X134275000Y-109827112D01*
X134275000Y-108750888D01*
X134279565Y-108704532D01*
X134291296Y-108665862D01*
X134310346Y-108630223D01*
X134335983Y-108598983D01*
X134367223Y-108573346D01*
X134402862Y-108554296D01*
X134441532Y-108542565D01*
X134487888Y-108538000D01*
X135139112Y-108538000D01*
X135185468Y-108542565D01*
X135185468Y-108542565D01*
G37*
G36*
X137060468Y-108542565D02*
G01*
X137099138Y-108554296D01*
X137134777Y-108573346D01*
X137166017Y-108598983D01*
X137191654Y-108630223D01*
X137210704Y-108665862D01*
X137222435Y-108704532D01*
X137227000Y-108750888D01*
X137227000Y-109827112D01*
X137222435Y-109873468D01*
X137210704Y-109912138D01*
X137191654Y-109947777D01*
X137166017Y-109979017D01*
X137134777Y-110004654D01*
X137099138Y-110023704D01*
X137060468Y-110035435D01*
X137014112Y-110040000D01*
X136362888Y-110040000D01*
X136316532Y-110035435D01*
X136277862Y-110023704D01*
X136242223Y-110004654D01*
X136210983Y-109979017D01*
X136185346Y-109947777D01*
X136166296Y-109912138D01*
X136154565Y-109873468D01*
X136150000Y-109827112D01*
X136150000Y-108750888D01*
X136154565Y-108704532D01*
X136166296Y-108665862D01*
X136185346Y-108630223D01*
X136210983Y-108598983D01*
X136242223Y-108573346D01*
X136277862Y-108554296D01*
X136316532Y-108542565D01*
X136362888Y-108538000D01*
X137014112Y-108538000D01*
X137060468Y-108542565D01*
X137060468Y-108542565D01*
G37*
G36*
X139033000Y-109940000D02*
G01*
X138031000Y-109940000D01*
X138031000Y-108638000D01*
X139033000Y-108638000D01*
X139033000Y-109940000D01*
X139033000Y-109940000D01*
G37*
G36*
X141033000Y-109940000D02*
G01*
X140031000Y-109940000D01*
X140031000Y-109038000D01*
X141033000Y-109038000D01*
X141033000Y-109940000D01*
X141033000Y-109940000D01*
G37*
G36*
X147999591Y-108653585D02*
G01*
X148033569Y-108663893D01*
X148064890Y-108680634D01*
X148092339Y-108703161D01*
X148114866Y-108730610D01*
X148131607Y-108761931D01*
X148141915Y-108795909D01*
X148146000Y-108837390D01*
X148146000Y-109438610D01*
X148141915Y-109480091D01*
X148131607Y-109514069D01*
X148114866Y-109545390D01*
X148092339Y-109572839D01*
X148064890Y-109595366D01*
X148033569Y-109612107D01*
X147999591Y-109622415D01*
X147958110Y-109626500D01*
X147281890Y-109626500D01*
X147240409Y-109622415D01*
X147206431Y-109612107D01*
X147175110Y-109595366D01*
X147147661Y-109572839D01*
X147125134Y-109545390D01*
X147108393Y-109514069D01*
X147098085Y-109480091D01*
X147094000Y-109438610D01*
X147094000Y-108837390D01*
X147098085Y-108795909D01*
X147108393Y-108761931D01*
X147125134Y-108730610D01*
X147147661Y-108703161D01*
X147175110Y-108680634D01*
X147206431Y-108663893D01*
X147240409Y-108653585D01*
X147281890Y-108649500D01*
X147958110Y-108649500D01*
X147999591Y-108653585D01*
X147999591Y-108653585D01*
G37*
G36*
X152530591Y-108653585D02*
G01*
X152564569Y-108663893D01*
X152595890Y-108680634D01*
X152623339Y-108703161D01*
X152645866Y-108730610D01*
X152662607Y-108761931D01*
X152672915Y-108795909D01*
X152677000Y-108837390D01*
X152677000Y-109438610D01*
X152672915Y-109480091D01*
X152662607Y-109514069D01*
X152645866Y-109545390D01*
X152623339Y-109572839D01*
X152595890Y-109595366D01*
X152564569Y-109612107D01*
X152530591Y-109622415D01*
X152489110Y-109626500D01*
X151812890Y-109626500D01*
X151771409Y-109622415D01*
X151737431Y-109612107D01*
X151706110Y-109595366D01*
X151678661Y-109572839D01*
X151656134Y-109545390D01*
X151639393Y-109514069D01*
X151629085Y-109480091D01*
X151625000Y-109438610D01*
X151625000Y-108837390D01*
X151629085Y-108795909D01*
X151639393Y-108761931D01*
X151656134Y-108730610D01*
X151678661Y-108703161D01*
X151706110Y-108680634D01*
X151737431Y-108663893D01*
X151771409Y-108653585D01*
X151812890Y-108649500D01*
X152489110Y-108649500D01*
X152530591Y-108653585D01*
X152530591Y-108653585D01*
G37*
G36*
X126447744Y-107883681D02*
G01*
X126472256Y-107883681D01*
X126479168Y-107883000D01*
X127090832Y-107883000D01*
X127097744Y-107883681D01*
X127122256Y-107883681D01*
X127129168Y-107883000D01*
X127740832Y-107883000D01*
X127747744Y-107883681D01*
X127772256Y-107883681D01*
X127779168Y-107883000D01*
X128361000Y-107883000D01*
X128361000Y-109385000D01*
X127779168Y-109385000D01*
X127772256Y-109384319D01*
X127747744Y-109384319D01*
X127740832Y-109385000D01*
X127129168Y-109385000D01*
X127122256Y-109384319D01*
X127097744Y-109384319D01*
X127090832Y-109385000D01*
X126479168Y-109385000D01*
X126472256Y-109384319D01*
X126447744Y-109384319D01*
X126440832Y-109385000D01*
X125859000Y-109385000D01*
X125859000Y-107883000D01*
X126440832Y-107883000D01*
X126447744Y-107883681D01*
X126447744Y-107883681D01*
G37*
G36*
X167060443Y-106865519D02*
G01*
X167126627Y-106872037D01*
X167296466Y-106923557D01*
X167452991Y-107007222D01*
X167488729Y-107036552D01*
X167590186Y-107119814D01*
X167645963Y-107187780D01*
X167702778Y-107257009D01*
X167786443Y-107413534D01*
X167837963Y-107583373D01*
X167855359Y-107760000D01*
X167837963Y-107936627D01*
X167786443Y-108106466D01*
X167702778Y-108262991D01*
X167673448Y-108298729D01*
X167590186Y-108400186D01*
X167488729Y-108483448D01*
X167452991Y-108512778D01*
X167296466Y-108596443D01*
X167126627Y-108647963D01*
X167069545Y-108653585D01*
X166994260Y-108661000D01*
X166605740Y-108661000D01*
X166530455Y-108653585D01*
X166473373Y-108647963D01*
X166303534Y-108596443D01*
X166147009Y-108512778D01*
X166111271Y-108483448D01*
X166009814Y-108400186D01*
X165926552Y-108298729D01*
X165897222Y-108262991D01*
X165813557Y-108106466D01*
X165762037Y-107936627D01*
X165744641Y-107760000D01*
X165762037Y-107583373D01*
X165813557Y-107413534D01*
X165897222Y-107257009D01*
X165954037Y-107187780D01*
X166009814Y-107119814D01*
X166111271Y-107036552D01*
X166147009Y-107007222D01*
X166303534Y-106923557D01*
X166473373Y-106872037D01*
X166539557Y-106865519D01*
X166605740Y-106859000D01*
X166994260Y-106859000D01*
X167060443Y-106865519D01*
X167060443Y-106865519D01*
G37*
G36*
X151010591Y-107041085D02*
G01*
X151044569Y-107051393D01*
X151075890Y-107068134D01*
X151103339Y-107090661D01*
X151125866Y-107118110D01*
X151142607Y-107149431D01*
X151152915Y-107183409D01*
X151157000Y-107224890D01*
X151157000Y-107901110D01*
X151152915Y-107942591D01*
X151142607Y-107976569D01*
X151125866Y-108007890D01*
X151103339Y-108035339D01*
X151075890Y-108057866D01*
X151044569Y-108074607D01*
X151010591Y-108084915D01*
X150969110Y-108089000D01*
X150367890Y-108089000D01*
X150326409Y-108084915D01*
X150292431Y-108074607D01*
X150261110Y-108057866D01*
X150233661Y-108035339D01*
X150211134Y-108007890D01*
X150194393Y-107976569D01*
X150184085Y-107942591D01*
X150180000Y-107901110D01*
X150180000Y-107224890D01*
X150184085Y-107183409D01*
X150194393Y-107149431D01*
X150211134Y-107118110D01*
X150233661Y-107090661D01*
X150261110Y-107068134D01*
X150292431Y-107051393D01*
X150326409Y-107041085D01*
X150367890Y-107037000D01*
X150969110Y-107037000D01*
X151010591Y-107041085D01*
X151010591Y-107041085D01*
G37*
G36*
X149435591Y-107041085D02*
G01*
X149469569Y-107051393D01*
X149500890Y-107068134D01*
X149528339Y-107090661D01*
X149550866Y-107118110D01*
X149567607Y-107149431D01*
X149577915Y-107183409D01*
X149582000Y-107224890D01*
X149582000Y-107901110D01*
X149577915Y-107942591D01*
X149567607Y-107976569D01*
X149550866Y-108007890D01*
X149528339Y-108035339D01*
X149500890Y-108057866D01*
X149469569Y-108074607D01*
X149435591Y-108084915D01*
X149394110Y-108089000D01*
X148792890Y-108089000D01*
X148751409Y-108084915D01*
X148717431Y-108074607D01*
X148686110Y-108057866D01*
X148658661Y-108035339D01*
X148636134Y-108007890D01*
X148619393Y-107976569D01*
X148609085Y-107942591D01*
X148605000Y-107901110D01*
X148605000Y-107224890D01*
X148609085Y-107183409D01*
X148619393Y-107149431D01*
X148636134Y-107118110D01*
X148658661Y-107090661D01*
X148686110Y-107068134D01*
X148717431Y-107051393D01*
X148751409Y-107041085D01*
X148792890Y-107037000D01*
X149394110Y-107037000D01*
X149435591Y-107041085D01*
X149435591Y-107041085D01*
G37*
G36*
X152530591Y-107078585D02*
G01*
X152564569Y-107088893D01*
X152595890Y-107105634D01*
X152623339Y-107128161D01*
X152645866Y-107155610D01*
X152662607Y-107186931D01*
X152672915Y-107220909D01*
X152677000Y-107262390D01*
X152677000Y-107863610D01*
X152672915Y-107905091D01*
X152662607Y-107939069D01*
X152645866Y-107970390D01*
X152623339Y-107997839D01*
X152595890Y-108020366D01*
X152564569Y-108037107D01*
X152530591Y-108047415D01*
X152489110Y-108051500D01*
X151812890Y-108051500D01*
X151771409Y-108047415D01*
X151737431Y-108037107D01*
X151706110Y-108020366D01*
X151678661Y-107997839D01*
X151656134Y-107970390D01*
X151639393Y-107939069D01*
X151629085Y-107905091D01*
X151625000Y-107863610D01*
X151625000Y-107262390D01*
X151629085Y-107220909D01*
X151639393Y-107186931D01*
X151656134Y-107155610D01*
X151678661Y-107128161D01*
X151706110Y-107105634D01*
X151737431Y-107088893D01*
X151771409Y-107078585D01*
X151812890Y-107074500D01*
X152489110Y-107074500D01*
X152530591Y-107078585D01*
X152530591Y-107078585D01*
G37*
G36*
X147999591Y-107078585D02*
G01*
X148033569Y-107088893D01*
X148064890Y-107105634D01*
X148092339Y-107128161D01*
X148114866Y-107155610D01*
X148131607Y-107186931D01*
X148141915Y-107220909D01*
X148146000Y-107262390D01*
X148146000Y-107863610D01*
X148141915Y-107905091D01*
X148131607Y-107939069D01*
X148114866Y-107970390D01*
X148092339Y-107997839D01*
X148064890Y-108020366D01*
X148033569Y-108037107D01*
X147999591Y-108047415D01*
X147958110Y-108051500D01*
X147281890Y-108051500D01*
X147240409Y-108047415D01*
X147206431Y-108037107D01*
X147175110Y-108020366D01*
X147147661Y-107997839D01*
X147125134Y-107970390D01*
X147108393Y-107939069D01*
X147098085Y-107905091D01*
X147094000Y-107863610D01*
X147094000Y-107262390D01*
X147098085Y-107220909D01*
X147108393Y-107186931D01*
X147125134Y-107155610D01*
X147147661Y-107128161D01*
X147175110Y-107105634D01*
X147206431Y-107088893D01*
X147240409Y-107078585D01*
X147281890Y-107074500D01*
X147958110Y-107074500D01*
X147999591Y-107078585D01*
X147999591Y-107078585D01*
G37*
G36*
X161540468Y-106463565D02*
G01*
X161579138Y-106475296D01*
X161614777Y-106494346D01*
X161646017Y-106519983D01*
X161671654Y-106551223D01*
X161690704Y-106586862D01*
X161702435Y-106625532D01*
X161707000Y-106671888D01*
X161707000Y-107748112D01*
X161702435Y-107794468D01*
X161690704Y-107833138D01*
X161671654Y-107868777D01*
X161646017Y-107900017D01*
X161614777Y-107925654D01*
X161579138Y-107944704D01*
X161540468Y-107956435D01*
X161494112Y-107961000D01*
X160842888Y-107961000D01*
X160796532Y-107956435D01*
X160757862Y-107944704D01*
X160722223Y-107925654D01*
X160690983Y-107900017D01*
X160665346Y-107868777D01*
X160646296Y-107833138D01*
X160634565Y-107794468D01*
X160630000Y-107748112D01*
X160630000Y-106671888D01*
X160634565Y-106625532D01*
X160646296Y-106586862D01*
X160665346Y-106551223D01*
X160690983Y-106519983D01*
X160722223Y-106494346D01*
X160757862Y-106475296D01*
X160796532Y-106463565D01*
X160842888Y-106459000D01*
X161494112Y-106459000D01*
X161540468Y-106463565D01*
X161540468Y-106463565D01*
G37*
G36*
X159665468Y-106463565D02*
G01*
X159704138Y-106475296D01*
X159739777Y-106494346D01*
X159771017Y-106519983D01*
X159796654Y-106551223D01*
X159815704Y-106586862D01*
X159827435Y-106625532D01*
X159832000Y-106671888D01*
X159832000Y-107748112D01*
X159827435Y-107794468D01*
X159815704Y-107833138D01*
X159796654Y-107868777D01*
X159771017Y-107900017D01*
X159739777Y-107925654D01*
X159704138Y-107944704D01*
X159665468Y-107956435D01*
X159619112Y-107961000D01*
X158967888Y-107961000D01*
X158921532Y-107956435D01*
X158882862Y-107944704D01*
X158847223Y-107925654D01*
X158815983Y-107900017D01*
X158790346Y-107868777D01*
X158771296Y-107833138D01*
X158759565Y-107794468D01*
X158755000Y-107748112D01*
X158755000Y-106671888D01*
X158759565Y-106625532D01*
X158771296Y-106586862D01*
X158790346Y-106551223D01*
X158815983Y-106519983D01*
X158847223Y-106494346D01*
X158882862Y-106475296D01*
X158921532Y-106463565D01*
X158967888Y-106459000D01*
X159619112Y-106459000D01*
X159665468Y-106463565D01*
X159665468Y-106463565D01*
G37*
G36*
X141033000Y-107940000D02*
G01*
X140031000Y-107940000D01*
X140031000Y-107038000D01*
X141033000Y-107038000D01*
X141033000Y-107940000D01*
X141033000Y-107940000D01*
G37*
G36*
X139033000Y-107940000D02*
G01*
X138031000Y-107940000D01*
X138031000Y-107038000D01*
X139033000Y-107038000D01*
X139033000Y-107940000D01*
X139033000Y-107940000D01*
G37*
G36*
X159854798Y-104488247D02*
G01*
X159890367Y-104499037D01*
X159923139Y-104516554D01*
X159951869Y-104540131D01*
X159975446Y-104568861D01*
X159992963Y-104601633D01*
X160003753Y-104637202D01*
X160008000Y-104680325D01*
X160008000Y-105739675D01*
X160003753Y-105782798D01*
X159992963Y-105818367D01*
X159975446Y-105851139D01*
X159951869Y-105879869D01*
X159923139Y-105903446D01*
X159890367Y-105920963D01*
X159854798Y-105931753D01*
X159811675Y-105936000D01*
X158702325Y-105936000D01*
X158659202Y-105931753D01*
X158623633Y-105920963D01*
X158590861Y-105903446D01*
X158562131Y-105879869D01*
X158538554Y-105851139D01*
X158521037Y-105818367D01*
X158510247Y-105782798D01*
X158506000Y-105739675D01*
X158506000Y-104680325D01*
X158510247Y-104637202D01*
X158521037Y-104601633D01*
X158538554Y-104568861D01*
X158562131Y-104540131D01*
X158590861Y-104516554D01*
X158623633Y-104499037D01*
X158659202Y-104488247D01*
X158702325Y-104484000D01*
X159811675Y-104484000D01*
X159854798Y-104488247D01*
X159854798Y-104488247D01*
G37*
G36*
X162554798Y-104488247D02*
G01*
X162590367Y-104499037D01*
X162623139Y-104516554D01*
X162651869Y-104540131D01*
X162675446Y-104568861D01*
X162692963Y-104601633D01*
X162703753Y-104637202D01*
X162708000Y-104680325D01*
X162708000Y-105739675D01*
X162703753Y-105782798D01*
X162692963Y-105818367D01*
X162675446Y-105851139D01*
X162651869Y-105879869D01*
X162623139Y-105903446D01*
X162590367Y-105920963D01*
X162554798Y-105931753D01*
X162511675Y-105936000D01*
X161402325Y-105936000D01*
X161359202Y-105931753D01*
X161323633Y-105920963D01*
X161290861Y-105903446D01*
X161262131Y-105879869D01*
X161238554Y-105851139D01*
X161221037Y-105818367D01*
X161210247Y-105782798D01*
X161206000Y-105739675D01*
X161206000Y-104680325D01*
X161210247Y-104637202D01*
X161221037Y-104601633D01*
X161238554Y-104568861D01*
X161262131Y-104540131D01*
X161290861Y-104516554D01*
X161323633Y-104499037D01*
X161359202Y-104488247D01*
X161402325Y-104484000D01*
X162511675Y-104484000D01*
X162554798Y-104488247D01*
X162554798Y-104488247D01*
G37*
G36*
X124582585Y-100978802D02*
G01*
X124732410Y-101008604D01*
X125014674Y-101125521D01*
X125268705Y-101295259D01*
X125484741Y-101511295D01*
X125654479Y-101765326D01*
X125771396Y-102047590D01*
X125831000Y-102347240D01*
X125831000Y-102652760D01*
X125771396Y-102952410D01*
X125654479Y-103234674D01*
X125484741Y-103488705D01*
X125268705Y-103704741D01*
X125014674Y-103874479D01*
X124732410Y-103991396D01*
X124582585Y-104021198D01*
X124432761Y-104051000D01*
X124127239Y-104051000D01*
X123977415Y-104021198D01*
X123827590Y-103991396D01*
X123545326Y-103874479D01*
X123291295Y-103704741D01*
X123075259Y-103488705D01*
X122905521Y-103234674D01*
X122788604Y-102952410D01*
X122729000Y-102652760D01*
X122729000Y-102347240D01*
X122788604Y-102047590D01*
X122905521Y-101765326D01*
X123075259Y-101511295D01*
X123291295Y-101295259D01*
X123545326Y-101125521D01*
X123827590Y-101008604D01*
X123977415Y-100978802D01*
X124127239Y-100949000D01*
X124432761Y-100949000D01*
X124582585Y-100978802D01*
X124582585Y-100978802D01*
G37*
G36*
X150469468Y-102006565D02*
G01*
X150508138Y-102018296D01*
X150543777Y-102037346D01*
X150575017Y-102062983D01*
X150600654Y-102094223D01*
X150619704Y-102129862D01*
X150631435Y-102168532D01*
X150636000Y-102214888D01*
X150636000Y-102866112D01*
X150631435Y-102912468D01*
X150619704Y-102951138D01*
X150600654Y-102986777D01*
X150575017Y-103018017D01*
X150543777Y-103043654D01*
X150508138Y-103062704D01*
X150469468Y-103074435D01*
X150423112Y-103079000D01*
X149346888Y-103079000D01*
X149300532Y-103074435D01*
X149261862Y-103062704D01*
X149226223Y-103043654D01*
X149194983Y-103018017D01*
X149169346Y-102986777D01*
X149150296Y-102951138D01*
X149138565Y-102912468D01*
X149134000Y-102866112D01*
X149134000Y-102214888D01*
X149138565Y-102168532D01*
X149150296Y-102129862D01*
X149169346Y-102094223D01*
X149194983Y-102062983D01*
X149226223Y-102037346D01*
X149261862Y-102018296D01*
X149300532Y-102006565D01*
X149346888Y-102002000D01*
X150423112Y-102002000D01*
X150469468Y-102006565D01*
X150469468Y-102006565D01*
G37*
G36*
X152422468Y-102006565D02*
G01*
X152461138Y-102018296D01*
X152496777Y-102037346D01*
X152528017Y-102062983D01*
X152553654Y-102094223D01*
X152572704Y-102129862D01*
X152584435Y-102168532D01*
X152589000Y-102214888D01*
X152589000Y-102866112D01*
X152584435Y-102912468D01*
X152572704Y-102951138D01*
X152553654Y-102986777D01*
X152528017Y-103018017D01*
X152496777Y-103043654D01*
X152461138Y-103062704D01*
X152422468Y-103074435D01*
X152376112Y-103079000D01*
X151299888Y-103079000D01*
X151253532Y-103074435D01*
X151214862Y-103062704D01*
X151179223Y-103043654D01*
X151147983Y-103018017D01*
X151122346Y-102986777D01*
X151103296Y-102951138D01*
X151091565Y-102912468D01*
X151087000Y-102866112D01*
X151087000Y-102214888D01*
X151091565Y-102168532D01*
X151103296Y-102129862D01*
X151122346Y-102094223D01*
X151147983Y-102062983D01*
X151179223Y-102037346D01*
X151214862Y-102018296D01*
X151253532Y-102006565D01*
X151299888Y-102002000D01*
X152376112Y-102002000D01*
X152422468Y-102006565D01*
X152422468Y-102006565D01*
G37*
G36*
X142937468Y-102006565D02*
G01*
X142976138Y-102018296D01*
X143011777Y-102037346D01*
X143043017Y-102062983D01*
X143068654Y-102094223D01*
X143087704Y-102129862D01*
X143099435Y-102168532D01*
X143104000Y-102214888D01*
X143104000Y-102866112D01*
X143099435Y-102912468D01*
X143087704Y-102951138D01*
X143068654Y-102986777D01*
X143043017Y-103018017D01*
X143011777Y-103043654D01*
X142976138Y-103062704D01*
X142937468Y-103074435D01*
X142891112Y-103079000D01*
X141814888Y-103079000D01*
X141768532Y-103074435D01*
X141729862Y-103062704D01*
X141694223Y-103043654D01*
X141662983Y-103018017D01*
X141637346Y-102986777D01*
X141618296Y-102951138D01*
X141606565Y-102912468D01*
X141602000Y-102866112D01*
X141602000Y-102214888D01*
X141606565Y-102168532D01*
X141618296Y-102129862D01*
X141637346Y-102094223D01*
X141662983Y-102062983D01*
X141694223Y-102037346D01*
X141729862Y-102018296D01*
X141768532Y-102006565D01*
X141814888Y-102002000D01*
X142891112Y-102002000D01*
X142937468Y-102006565D01*
X142937468Y-102006565D01*
G37*
G36*
X139022468Y-102006565D02*
G01*
X139061138Y-102018296D01*
X139096777Y-102037346D01*
X139128017Y-102062983D01*
X139153654Y-102094223D01*
X139172704Y-102129862D01*
X139184435Y-102168532D01*
X139189000Y-102214888D01*
X139189000Y-102866112D01*
X139184435Y-102912468D01*
X139172704Y-102951138D01*
X139153654Y-102986777D01*
X139128017Y-103018017D01*
X139096777Y-103043654D01*
X139061138Y-103062704D01*
X139022468Y-103074435D01*
X138976112Y-103079000D01*
X137899888Y-103079000D01*
X137853532Y-103074435D01*
X137814862Y-103062704D01*
X137779223Y-103043654D01*
X137747983Y-103018017D01*
X137722346Y-102986777D01*
X137703296Y-102951138D01*
X137691565Y-102912468D01*
X137687000Y-102866112D01*
X137687000Y-102214888D01*
X137691565Y-102168532D01*
X137703296Y-102129862D01*
X137722346Y-102094223D01*
X137747983Y-102062983D01*
X137779223Y-102037346D01*
X137814862Y-102018296D01*
X137853532Y-102006565D01*
X137899888Y-102002000D01*
X138976112Y-102002000D01*
X139022468Y-102006565D01*
X139022468Y-102006565D01*
G37*
G36*
X140979468Y-102006565D02*
G01*
X141018138Y-102018296D01*
X141053777Y-102037346D01*
X141085017Y-102062983D01*
X141110654Y-102094223D01*
X141129704Y-102129862D01*
X141141435Y-102168532D01*
X141146000Y-102214888D01*
X141146000Y-102866112D01*
X141141435Y-102912468D01*
X141129704Y-102951138D01*
X141110654Y-102986777D01*
X141085017Y-103018017D01*
X141053777Y-103043654D01*
X141018138Y-103062704D01*
X140979468Y-103074435D01*
X140933112Y-103079000D01*
X139856888Y-103079000D01*
X139810532Y-103074435D01*
X139771862Y-103062704D01*
X139736223Y-103043654D01*
X139704983Y-103018017D01*
X139679346Y-102986777D01*
X139660296Y-102951138D01*
X139648565Y-102912468D01*
X139644000Y-102866112D01*
X139644000Y-102214888D01*
X139648565Y-102168532D01*
X139660296Y-102129862D01*
X139679346Y-102094223D01*
X139704983Y-102062983D01*
X139736223Y-102037346D01*
X139771862Y-102018296D01*
X139810532Y-102006565D01*
X139856888Y-102002000D01*
X140933112Y-102002000D01*
X140979468Y-102006565D01*
X140979468Y-102006565D01*
G37*
G36*
X148516468Y-102006565D02*
G01*
X148555138Y-102018296D01*
X148590777Y-102037346D01*
X148622017Y-102062983D01*
X148647654Y-102094223D01*
X148666704Y-102129862D01*
X148678435Y-102168532D01*
X148683000Y-102214888D01*
X148683000Y-102866112D01*
X148678435Y-102912468D01*
X148666704Y-102951138D01*
X148647654Y-102986777D01*
X148622017Y-103018017D01*
X148590777Y-103043654D01*
X148555138Y-103062704D01*
X148516468Y-103074435D01*
X148470112Y-103079000D01*
X147393888Y-103079000D01*
X147347532Y-103074435D01*
X147308862Y-103062704D01*
X147273223Y-103043654D01*
X147241983Y-103018017D01*
X147216346Y-102986777D01*
X147197296Y-102951138D01*
X147185565Y-102912468D01*
X147181000Y-102866112D01*
X147181000Y-102214888D01*
X147185565Y-102168532D01*
X147197296Y-102129862D01*
X147216346Y-102094223D01*
X147241983Y-102062983D01*
X147273223Y-102037346D01*
X147308862Y-102018296D01*
X147347532Y-102006565D01*
X147393888Y-102002000D01*
X148470112Y-102002000D01*
X148516468Y-102006565D01*
X148516468Y-102006565D01*
G37*
G36*
X166245331Y-99288211D02*
G01*
X166573092Y-99423974D01*
X166868070Y-99621072D01*
X167118928Y-99871930D01*
X167316026Y-100166908D01*
X167451789Y-100494669D01*
X167521000Y-100842616D01*
X167521000Y-101197384D01*
X167451789Y-101545331D01*
X167316026Y-101873092D01*
X167118928Y-102168070D01*
X166868070Y-102418928D01*
X166573092Y-102616026D01*
X166245331Y-102751789D01*
X165897384Y-102821000D01*
X165542616Y-102821000D01*
X165194669Y-102751789D01*
X164866908Y-102616026D01*
X164571930Y-102418928D01*
X164321072Y-102168070D01*
X164123974Y-101873092D01*
X163988211Y-101545331D01*
X163919000Y-101197384D01*
X163919000Y-100842616D01*
X163988211Y-100494669D01*
X164123974Y-100166908D01*
X164321072Y-99871930D01*
X164571930Y-99621072D01*
X164866908Y-99423974D01*
X165194669Y-99288211D01*
X165542616Y-99219000D01*
X165897384Y-99219000D01*
X166245331Y-99288211D01*
X166245331Y-99288211D01*
G37*
G36*
X137069468Y-101339065D02*
G01*
X137108138Y-101350796D01*
X137143777Y-101369846D01*
X137175017Y-101395483D01*
X137200654Y-101426723D01*
X137219704Y-101462362D01*
X137231435Y-101501032D01*
X137236000Y-101547388D01*
X137236000Y-102198612D01*
X137231435Y-102244968D01*
X137219704Y-102283638D01*
X137200654Y-102319277D01*
X137175017Y-102350517D01*
X137143777Y-102376154D01*
X137108138Y-102395204D01*
X137069468Y-102406935D01*
X137023112Y-102411500D01*
X135946888Y-102411500D01*
X135900532Y-102406935D01*
X135861862Y-102395204D01*
X135826223Y-102376154D01*
X135794983Y-102350517D01*
X135769346Y-102319277D01*
X135750296Y-102283638D01*
X135738565Y-102244968D01*
X135734000Y-102198612D01*
X135734000Y-101547388D01*
X135738565Y-101501032D01*
X135750296Y-101462362D01*
X135769346Y-101426723D01*
X135794983Y-101395483D01*
X135826223Y-101369846D01*
X135861862Y-101350796D01*
X135900532Y-101339065D01*
X135946888Y-101334500D01*
X137023112Y-101334500D01*
X137069468Y-101339065D01*
X137069468Y-101339065D01*
G37*
G36*
X148516468Y-100131565D02*
G01*
X148555138Y-100143296D01*
X148590777Y-100162346D01*
X148622017Y-100187983D01*
X148647654Y-100219223D01*
X148666704Y-100254862D01*
X148678435Y-100293532D01*
X148683000Y-100339888D01*
X148683000Y-100991112D01*
X148678435Y-101037468D01*
X148666704Y-101076138D01*
X148647654Y-101111777D01*
X148622017Y-101143017D01*
X148590777Y-101168654D01*
X148555138Y-101187704D01*
X148516468Y-101199435D01*
X148470112Y-101204000D01*
X147393888Y-101204000D01*
X147347532Y-101199435D01*
X147308862Y-101187704D01*
X147273223Y-101168654D01*
X147241983Y-101143017D01*
X147216346Y-101111777D01*
X147197296Y-101076138D01*
X147185565Y-101037468D01*
X147181000Y-100991112D01*
X147181000Y-100339888D01*
X147185565Y-100293532D01*
X147197296Y-100254862D01*
X147216346Y-100219223D01*
X147241983Y-100187983D01*
X147273223Y-100162346D01*
X147308862Y-100143296D01*
X147347532Y-100131565D01*
X147393888Y-100127000D01*
X148470112Y-100127000D01*
X148516468Y-100131565D01*
X148516468Y-100131565D01*
G37*
G36*
X150469468Y-100131565D02*
G01*
X150508138Y-100143296D01*
X150543777Y-100162346D01*
X150575017Y-100187983D01*
X150600654Y-100219223D01*
X150619704Y-100254862D01*
X150631435Y-100293532D01*
X150636000Y-100339888D01*
X150636000Y-100991112D01*
X150631435Y-101037468D01*
X150619704Y-101076138D01*
X150600654Y-101111777D01*
X150575017Y-101143017D01*
X150543777Y-101168654D01*
X150508138Y-101187704D01*
X150469468Y-101199435D01*
X150423112Y-101204000D01*
X149346888Y-101204000D01*
X149300532Y-101199435D01*
X149261862Y-101187704D01*
X149226223Y-101168654D01*
X149194983Y-101143017D01*
X149169346Y-101111777D01*
X149150296Y-101076138D01*
X149138565Y-101037468D01*
X149134000Y-100991112D01*
X149134000Y-100339888D01*
X149138565Y-100293532D01*
X149150296Y-100254862D01*
X149169346Y-100219223D01*
X149194983Y-100187983D01*
X149226223Y-100162346D01*
X149261862Y-100143296D01*
X149300532Y-100131565D01*
X149346888Y-100127000D01*
X150423112Y-100127000D01*
X150469468Y-100131565D01*
X150469468Y-100131565D01*
G37*
G36*
X139022468Y-100131565D02*
G01*
X139061138Y-100143296D01*
X139096777Y-100162346D01*
X139128017Y-100187983D01*
X139153654Y-100219223D01*
X139172704Y-100254862D01*
X139184435Y-100293532D01*
X139189000Y-100339888D01*
X139189000Y-100991112D01*
X139184435Y-101037468D01*
X139172704Y-101076138D01*
X139153654Y-101111777D01*
X139128017Y-101143017D01*
X139096777Y-101168654D01*
X139061138Y-101187704D01*
X139022468Y-101199435D01*
X138976112Y-101204000D01*
X137899888Y-101204000D01*
X137853532Y-101199435D01*
X137814862Y-101187704D01*
X137779223Y-101168654D01*
X137747983Y-101143017D01*
X137722346Y-101111777D01*
X137703296Y-101076138D01*
X137691565Y-101037468D01*
X137687000Y-100991112D01*
X137687000Y-100339888D01*
X137691565Y-100293532D01*
X137703296Y-100254862D01*
X137722346Y-100219223D01*
X137747983Y-100187983D01*
X137779223Y-100162346D01*
X137814862Y-100143296D01*
X137853532Y-100131565D01*
X137899888Y-100127000D01*
X138976112Y-100127000D01*
X139022468Y-100131565D01*
X139022468Y-100131565D01*
G37*
G36*
X152422468Y-100131565D02*
G01*
X152461138Y-100143296D01*
X152496777Y-100162346D01*
X152528017Y-100187983D01*
X152553654Y-100219223D01*
X152572704Y-100254862D01*
X152584435Y-100293532D01*
X152589000Y-100339888D01*
X152589000Y-100991112D01*
X152584435Y-101037468D01*
X152572704Y-101076138D01*
X152553654Y-101111777D01*
X152528017Y-101143017D01*
X152496777Y-101168654D01*
X152461138Y-101187704D01*
X152422468Y-101199435D01*
X152376112Y-101204000D01*
X151299888Y-101204000D01*
X151253532Y-101199435D01*
X151214862Y-101187704D01*
X151179223Y-101168654D01*
X151147983Y-101143017D01*
X151122346Y-101111777D01*
X151103296Y-101076138D01*
X151091565Y-101037468D01*
X151087000Y-100991112D01*
X151087000Y-100339888D01*
X151091565Y-100293532D01*
X151103296Y-100254862D01*
X151122346Y-100219223D01*
X151147983Y-100187983D01*
X151179223Y-100162346D01*
X151214862Y-100143296D01*
X151253532Y-100131565D01*
X151299888Y-100127000D01*
X152376112Y-100127000D01*
X152422468Y-100131565D01*
X152422468Y-100131565D01*
G37*
G36*
X140979468Y-100131565D02*
G01*
X141018138Y-100143296D01*
X141053777Y-100162346D01*
X141085017Y-100187983D01*
X141110654Y-100219223D01*
X141129704Y-100254862D01*
X141141435Y-100293532D01*
X141146000Y-100339888D01*
X141146000Y-100991112D01*
X141141435Y-101037468D01*
X141129704Y-101076138D01*
X141110654Y-101111777D01*
X141085017Y-101143017D01*
X141053777Y-101168654D01*
X141018138Y-101187704D01*
X140979468Y-101199435D01*
X140933112Y-101204000D01*
X139856888Y-101204000D01*
X139810532Y-101199435D01*
X139771862Y-101187704D01*
X139736223Y-101168654D01*
X139704983Y-101143017D01*
X139679346Y-101111777D01*
X139660296Y-101076138D01*
X139648565Y-101037468D01*
X139644000Y-100991112D01*
X139644000Y-100339888D01*
X139648565Y-100293532D01*
X139660296Y-100254862D01*
X139679346Y-100219223D01*
X139704983Y-100187983D01*
X139736223Y-100162346D01*
X139771862Y-100143296D01*
X139810532Y-100131565D01*
X139856888Y-100127000D01*
X140933112Y-100127000D01*
X140979468Y-100131565D01*
X140979468Y-100131565D01*
G37*
G36*
X142937468Y-100131565D02*
G01*
X142976138Y-100143296D01*
X143011777Y-100162346D01*
X143043017Y-100187983D01*
X143068654Y-100219223D01*
X143087704Y-100254862D01*
X143099435Y-100293532D01*
X143104000Y-100339888D01*
X143104000Y-100991112D01*
X143099435Y-101037468D01*
X143087704Y-101076138D01*
X143068654Y-101111777D01*
X143043017Y-101143017D01*
X143011777Y-101168654D01*
X142976138Y-101187704D01*
X142937468Y-101199435D01*
X142891112Y-101204000D01*
X141814888Y-101204000D01*
X141768532Y-101199435D01*
X141729862Y-101187704D01*
X141694223Y-101168654D01*
X141662983Y-101143017D01*
X141637346Y-101111777D01*
X141618296Y-101076138D01*
X141606565Y-101037468D01*
X141602000Y-100991112D01*
X141602000Y-100339888D01*
X141606565Y-100293532D01*
X141618296Y-100254862D01*
X141637346Y-100219223D01*
X141662983Y-100187983D01*
X141694223Y-100162346D01*
X141729862Y-100143296D01*
X141768532Y-100131565D01*
X141814888Y-100127000D01*
X142891112Y-100127000D01*
X142937468Y-100131565D01*
X142937468Y-100131565D01*
G37*
G36*
X137069468Y-99464065D02*
G01*
X137108138Y-99475796D01*
X137143777Y-99494846D01*
X137175017Y-99520483D01*
X137200654Y-99551723D01*
X137219704Y-99587362D01*
X137231435Y-99626032D01*
X137236000Y-99672388D01*
X137236000Y-100323612D01*
X137231435Y-100369968D01*
X137219704Y-100408638D01*
X137200654Y-100444277D01*
X137175017Y-100475517D01*
X137143777Y-100501154D01*
X137108138Y-100520204D01*
X137069468Y-100531935D01*
X137023112Y-100536500D01*
X135946888Y-100536500D01*
X135900532Y-100531935D01*
X135861862Y-100520204D01*
X135826223Y-100501154D01*
X135794983Y-100475517D01*
X135769346Y-100444277D01*
X135750296Y-100408638D01*
X135738565Y-100369968D01*
X135734000Y-100323612D01*
X135734000Y-99672388D01*
X135738565Y-99626032D01*
X135750296Y-99587362D01*
X135769346Y-99551723D01*
X135794983Y-99520483D01*
X135826223Y-99494846D01*
X135861862Y-99475796D01*
X135900532Y-99464065D01*
X135946888Y-99459500D01*
X137023112Y-99459500D01*
X137069468Y-99464065D01*
X137069468Y-99464065D01*
G37*
G36*
X123047091Y-99303085D02*
G01*
X123081069Y-99313393D01*
X123112390Y-99330134D01*
X123139839Y-99352661D01*
X123162366Y-99380110D01*
X123179107Y-99411431D01*
X123189415Y-99445409D01*
X123193500Y-99486890D01*
X123193500Y-100163110D01*
X123189415Y-100204591D01*
X123179107Y-100238569D01*
X123162366Y-100269890D01*
X123139839Y-100297339D01*
X123112390Y-100319866D01*
X123081069Y-100336607D01*
X123047091Y-100346915D01*
X123005610Y-100351000D01*
X122404390Y-100351000D01*
X122362909Y-100346915D01*
X122328931Y-100336607D01*
X122297610Y-100319866D01*
X122270161Y-100297339D01*
X122247634Y-100269890D01*
X122230893Y-100238569D01*
X122220585Y-100204591D01*
X122216500Y-100163110D01*
X122216500Y-99486890D01*
X122220585Y-99445409D01*
X122230893Y-99411431D01*
X122247634Y-99380110D01*
X122270161Y-99352661D01*
X122297610Y-99330134D01*
X122328931Y-99313393D01*
X122362909Y-99303085D01*
X122404390Y-99299000D01*
X123005610Y-99299000D01*
X123047091Y-99303085D01*
X123047091Y-99303085D01*
G37*
G36*
X124622091Y-99303085D02*
G01*
X124656069Y-99313393D01*
X124687390Y-99330134D01*
X124714839Y-99352661D01*
X124737366Y-99380110D01*
X124754107Y-99411431D01*
X124764415Y-99445409D01*
X124768500Y-99486890D01*
X124768500Y-100163110D01*
X124764415Y-100204591D01*
X124754107Y-100238569D01*
X124737366Y-100269890D01*
X124714839Y-100297339D01*
X124687390Y-100319866D01*
X124656069Y-100336607D01*
X124622091Y-100346915D01*
X124580610Y-100351000D01*
X123979390Y-100351000D01*
X123937909Y-100346915D01*
X123903931Y-100336607D01*
X123872610Y-100319866D01*
X123845161Y-100297339D01*
X123822634Y-100269890D01*
X123805893Y-100238569D01*
X123795585Y-100204591D01*
X123791500Y-100163110D01*
X123791500Y-99486890D01*
X123795585Y-99445409D01*
X123805893Y-99411431D01*
X123822634Y-99380110D01*
X123845161Y-99352661D01*
X123872610Y-99330134D01*
X123903931Y-99313393D01*
X123937909Y-99303085D01*
X123979390Y-99299000D01*
X124580610Y-99299000D01*
X124622091Y-99303085D01*
X124622091Y-99303085D01*
G37*
G36*
X154718968Y-97989565D02*
G01*
X154757638Y-98001296D01*
X154793277Y-98020346D01*
X154824517Y-98045983D01*
X154850154Y-98077223D01*
X154869204Y-98112862D01*
X154880935Y-98151532D01*
X154885500Y-98197888D01*
X154885500Y-99274112D01*
X154880935Y-99320468D01*
X154869204Y-99359138D01*
X154850154Y-99394777D01*
X154824517Y-99426017D01*
X154793277Y-99451654D01*
X154757638Y-99470704D01*
X154718968Y-99482435D01*
X154672612Y-99487000D01*
X154021388Y-99487000D01*
X153975032Y-99482435D01*
X153936362Y-99470704D01*
X153900723Y-99451654D01*
X153869483Y-99426017D01*
X153843846Y-99394777D01*
X153824796Y-99359138D01*
X153813065Y-99320468D01*
X153808500Y-99274112D01*
X153808500Y-98197888D01*
X153813065Y-98151532D01*
X153824796Y-98112862D01*
X153843846Y-98077223D01*
X153869483Y-98045983D01*
X153900723Y-98020346D01*
X153936362Y-98001296D01*
X153975032Y-97989565D01*
X154021388Y-97985000D01*
X154672612Y-97985000D01*
X154718968Y-97989565D01*
X154718968Y-97989565D01*
G37*
G36*
X156593968Y-97989565D02*
G01*
X156632638Y-98001296D01*
X156668277Y-98020346D01*
X156699517Y-98045983D01*
X156725154Y-98077223D01*
X156744204Y-98112862D01*
X156755935Y-98151532D01*
X156760500Y-98197888D01*
X156760500Y-99274112D01*
X156755935Y-99320468D01*
X156744204Y-99359138D01*
X156725154Y-99394777D01*
X156699517Y-99426017D01*
X156668277Y-99451654D01*
X156632638Y-99470704D01*
X156593968Y-99482435D01*
X156547612Y-99487000D01*
X155896388Y-99487000D01*
X155850032Y-99482435D01*
X155811362Y-99470704D01*
X155775723Y-99451654D01*
X155744483Y-99426017D01*
X155718846Y-99394777D01*
X155699796Y-99359138D01*
X155688065Y-99320468D01*
X155683500Y-99274112D01*
X155683500Y-98197888D01*
X155688065Y-98151532D01*
X155699796Y-98112862D01*
X155718846Y-98077223D01*
X155744483Y-98045983D01*
X155775723Y-98020346D01*
X155811362Y-98001296D01*
X155850032Y-97989565D01*
X155896388Y-97985000D01*
X156547612Y-97985000D01*
X156593968Y-97989565D01*
X156593968Y-97989565D01*
G37*
G36*
X127238228Y-97681703D02*
G01*
X127393100Y-97745853D01*
X127532481Y-97838985D01*
X127651015Y-97957519D01*
X127744147Y-98096900D01*
X127808297Y-98251772D01*
X127841000Y-98416184D01*
X127841000Y-98583816D01*
X127808297Y-98748228D01*
X127744147Y-98903100D01*
X127651015Y-99042481D01*
X127532481Y-99161015D01*
X127393100Y-99254147D01*
X127238228Y-99318297D01*
X127073816Y-99351000D01*
X126906184Y-99351000D01*
X126741772Y-99318297D01*
X126586900Y-99254147D01*
X126447519Y-99161015D01*
X126328985Y-99042481D01*
X126235853Y-98903100D01*
X126171703Y-98748228D01*
X126139000Y-98583816D01*
X126139000Y-98416184D01*
X126171703Y-98251772D01*
X126235853Y-98096900D01*
X126328985Y-97957519D01*
X126447519Y-97838985D01*
X126586900Y-97745853D01*
X126741772Y-97681703D01*
X126906184Y-97649000D01*
X127073816Y-97649000D01*
X127238228Y-97681703D01*
X127238228Y-97681703D01*
G37*
G36*
X147941000Y-91934001D02*
G01*
X147943402Y-91958387D01*
X147950515Y-91981836D01*
X147962066Y-92003447D01*
X147977611Y-92022389D01*
X147996553Y-92037934D01*
X148018164Y-92049485D01*
X148041613Y-92056598D01*
X148065999Y-92059000D01*
X148766000Y-92059000D01*
X148766000Y-97941000D01*
X148065999Y-97941000D01*
X148041613Y-97943402D01*
X148018164Y-97950515D01*
X147996553Y-97962066D01*
X147977611Y-97977611D01*
X147962066Y-97996553D01*
X147950515Y-98018164D01*
X147943402Y-98041613D01*
X147941000Y-98065999D01*
X147941000Y-98766000D01*
X142059000Y-98766000D01*
X142059000Y-98065999D01*
X142056598Y-98041613D01*
X142049485Y-98018164D01*
X142037934Y-97996553D01*
X142022389Y-97977611D01*
X142003447Y-97962066D01*
X141981836Y-97950515D01*
X141958387Y-97943402D01*
X141934001Y-97941000D01*
X141234000Y-97941000D01*
X141234000Y-92150999D01*
X142026000Y-92150999D01*
X142026000Y-97849001D01*
X142028402Y-97873387D01*
X142035515Y-97896836D01*
X142047066Y-97918447D01*
X142062611Y-97937389D01*
X142081553Y-97952934D01*
X142103164Y-97964485D01*
X142126613Y-97971598D01*
X142150999Y-97974000D01*
X147849001Y-97974000D01*
X147873387Y-97971598D01*
X147896836Y-97964485D01*
X147918447Y-97952934D01*
X147937389Y-97937389D01*
X147952934Y-97918447D01*
X147964485Y-97896836D01*
X147971598Y-97873387D01*
X147974000Y-97849001D01*
X147974000Y-92150999D01*
X147971598Y-92126613D01*
X147964485Y-92103164D01*
X147952934Y-92081553D01*
X147937389Y-92062611D01*
X147918447Y-92047066D01*
X147896836Y-92035515D01*
X147873387Y-92028402D01*
X147849001Y-92026000D01*
X142150999Y-92026000D01*
X142126613Y-92028402D01*
X142103164Y-92035515D01*
X142081553Y-92047066D01*
X142062611Y-92062611D01*
X142047066Y-92081553D01*
X142035515Y-92103164D01*
X142028402Y-92126613D01*
X142026000Y-92150999D01*
X141234000Y-92150999D01*
X141234000Y-92059000D01*
X141934001Y-92059000D01*
X141958387Y-92056598D01*
X141981836Y-92049485D01*
X142003447Y-92037934D01*
X142022389Y-92022389D01*
X142037934Y-92003447D01*
X142049485Y-91981836D01*
X142056598Y-91958387D01*
X142059000Y-91934001D01*
X142059000Y-91234000D01*
X147941000Y-91234000D01*
X147941000Y-91934001D01*
X147941000Y-91934001D01*
G37*
G36*
X147701000Y-97701000D02*
G01*
X142299000Y-97701000D01*
X142299000Y-92299000D01*
X147701000Y-92299000D01*
X147701000Y-97701000D01*
X147701000Y-97701000D01*
G37*
G36*
X166062091Y-97573085D02*
G01*
X166096069Y-97583393D01*
X166127390Y-97600134D01*
X166154839Y-97622661D01*
X166177366Y-97650110D01*
X166194107Y-97681431D01*
X166204415Y-97715409D01*
X166208500Y-97756890D01*
X166208500Y-98433110D01*
X166204415Y-98474591D01*
X166194107Y-98508569D01*
X166177366Y-98539890D01*
X166154839Y-98567339D01*
X166127390Y-98589866D01*
X166096069Y-98606607D01*
X166062091Y-98616915D01*
X166020610Y-98621000D01*
X165419390Y-98621000D01*
X165377909Y-98616915D01*
X165343931Y-98606607D01*
X165312610Y-98589866D01*
X165285161Y-98567339D01*
X165262634Y-98539890D01*
X165245893Y-98508569D01*
X165235585Y-98474591D01*
X165231500Y-98433110D01*
X165231500Y-97756890D01*
X165235585Y-97715409D01*
X165245893Y-97681431D01*
X165262634Y-97650110D01*
X165285161Y-97622661D01*
X165312610Y-97600134D01*
X165343931Y-97583393D01*
X165377909Y-97573085D01*
X165419390Y-97569000D01*
X166020610Y-97569000D01*
X166062091Y-97573085D01*
X166062091Y-97573085D01*
G37*
G36*
X167637091Y-97573085D02*
G01*
X167671069Y-97583393D01*
X167702390Y-97600134D01*
X167729839Y-97622661D01*
X167752366Y-97650110D01*
X167769107Y-97681431D01*
X167779415Y-97715409D01*
X167783500Y-97756890D01*
X167783500Y-98433110D01*
X167779415Y-98474591D01*
X167769107Y-98508569D01*
X167752366Y-98539890D01*
X167729839Y-98567339D01*
X167702390Y-98589866D01*
X167671069Y-98606607D01*
X167637091Y-98616915D01*
X167595610Y-98621000D01*
X166994390Y-98621000D01*
X166952909Y-98616915D01*
X166918931Y-98606607D01*
X166887610Y-98589866D01*
X166860161Y-98567339D01*
X166837634Y-98539890D01*
X166820893Y-98508569D01*
X166810585Y-98474591D01*
X166806500Y-98433110D01*
X166806500Y-97756890D01*
X166810585Y-97715409D01*
X166820893Y-97681431D01*
X166837634Y-97650110D01*
X166860161Y-97622661D01*
X166887610Y-97600134D01*
X166918931Y-97583393D01*
X166952909Y-97573085D01*
X166994390Y-97569000D01*
X167595610Y-97569000D01*
X167637091Y-97573085D01*
X167637091Y-97573085D01*
G37*
G36*
X131399468Y-96822565D02*
G01*
X131438138Y-96834296D01*
X131473777Y-96853346D01*
X131505017Y-96878983D01*
X131530654Y-96910223D01*
X131549704Y-96945862D01*
X131561435Y-96984532D01*
X131566000Y-97030888D01*
X131566000Y-98107112D01*
X131561435Y-98153468D01*
X131549704Y-98192138D01*
X131530654Y-98227777D01*
X131505017Y-98259017D01*
X131473777Y-98284654D01*
X131438138Y-98303704D01*
X131399468Y-98315435D01*
X131353112Y-98320000D01*
X130701888Y-98320000D01*
X130655532Y-98315435D01*
X130616862Y-98303704D01*
X130581223Y-98284654D01*
X130549983Y-98259017D01*
X130524346Y-98227777D01*
X130505296Y-98192138D01*
X130493565Y-98153468D01*
X130489000Y-98107112D01*
X130489000Y-97030888D01*
X130493565Y-96984532D01*
X130505296Y-96945862D01*
X130524346Y-96910223D01*
X130549983Y-96878983D01*
X130581223Y-96853346D01*
X130616862Y-96834296D01*
X130655532Y-96822565D01*
X130701888Y-96818000D01*
X131353112Y-96818000D01*
X131399468Y-96822565D01*
X131399468Y-96822565D01*
G37*
G36*
X129524468Y-96822565D02*
G01*
X129563138Y-96834296D01*
X129598777Y-96853346D01*
X129630017Y-96878983D01*
X129655654Y-96910223D01*
X129674704Y-96945862D01*
X129686435Y-96984532D01*
X129691000Y-97030888D01*
X129691000Y-98107112D01*
X129686435Y-98153468D01*
X129674704Y-98192138D01*
X129655654Y-98227777D01*
X129630017Y-98259017D01*
X129598777Y-98284654D01*
X129563138Y-98303704D01*
X129524468Y-98315435D01*
X129478112Y-98320000D01*
X128826888Y-98320000D01*
X128780532Y-98315435D01*
X128741862Y-98303704D01*
X128706223Y-98284654D01*
X128674983Y-98259017D01*
X128649346Y-98227777D01*
X128630296Y-98192138D01*
X128618565Y-98153468D01*
X128614000Y-98107112D01*
X128614000Y-97030888D01*
X128618565Y-96984532D01*
X128630296Y-96945862D01*
X128649346Y-96910223D01*
X128674983Y-96878983D01*
X128706223Y-96853346D01*
X128741862Y-96834296D01*
X128780532Y-96822565D01*
X128826888Y-96818000D01*
X129478112Y-96818000D01*
X129524468Y-96822565D01*
X129524468Y-96822565D01*
G37*
G36*
X151682468Y-96888065D02*
G01*
X151721138Y-96899796D01*
X151756777Y-96918846D01*
X151788017Y-96944483D01*
X151813654Y-96975723D01*
X151832704Y-97011362D01*
X151844435Y-97050032D01*
X151849000Y-97096388D01*
X151849000Y-97747612D01*
X151844435Y-97793968D01*
X151832704Y-97832638D01*
X151813654Y-97868277D01*
X151788017Y-97899517D01*
X151756777Y-97925154D01*
X151721138Y-97944204D01*
X151682468Y-97955935D01*
X151636112Y-97960500D01*
X150559888Y-97960500D01*
X150513532Y-97955935D01*
X150474862Y-97944204D01*
X150439223Y-97925154D01*
X150407983Y-97899517D01*
X150382346Y-97868277D01*
X150363296Y-97832638D01*
X150351565Y-97793968D01*
X150347000Y-97747612D01*
X150347000Y-97096388D01*
X150351565Y-97050032D01*
X150363296Y-97011362D01*
X150382346Y-96975723D01*
X150407983Y-96944483D01*
X150439223Y-96918846D01*
X150474862Y-96899796D01*
X150513532Y-96888065D01*
X150559888Y-96883500D01*
X151636112Y-96883500D01*
X151682468Y-96888065D01*
X151682468Y-96888065D01*
G37*
G36*
X154718968Y-96029565D02*
G01*
X154757638Y-96041296D01*
X154793277Y-96060346D01*
X154824517Y-96085983D01*
X154850154Y-96117223D01*
X154869204Y-96152862D01*
X154880935Y-96191532D01*
X154885500Y-96237888D01*
X154885500Y-97314112D01*
X154880935Y-97360468D01*
X154869204Y-97399138D01*
X154850154Y-97434777D01*
X154824517Y-97466017D01*
X154793277Y-97491654D01*
X154757638Y-97510704D01*
X154718968Y-97522435D01*
X154672612Y-97527000D01*
X154021388Y-97527000D01*
X153975032Y-97522435D01*
X153936362Y-97510704D01*
X153900723Y-97491654D01*
X153869483Y-97466017D01*
X153843846Y-97434777D01*
X153824796Y-97399138D01*
X153813065Y-97360468D01*
X153808500Y-97314112D01*
X153808500Y-96237888D01*
X153813065Y-96191532D01*
X153824796Y-96152862D01*
X153843846Y-96117223D01*
X153869483Y-96085983D01*
X153900723Y-96060346D01*
X153936362Y-96041296D01*
X153975032Y-96029565D01*
X154021388Y-96025000D01*
X154672612Y-96025000D01*
X154718968Y-96029565D01*
X154718968Y-96029565D01*
G37*
G36*
X156593968Y-96029565D02*
G01*
X156632638Y-96041296D01*
X156668277Y-96060346D01*
X156699517Y-96085983D01*
X156725154Y-96117223D01*
X156744204Y-96152862D01*
X156755935Y-96191532D01*
X156760500Y-96237888D01*
X156760500Y-97314112D01*
X156755935Y-97360468D01*
X156744204Y-97399138D01*
X156725154Y-97434777D01*
X156699517Y-97466017D01*
X156668277Y-97491654D01*
X156632638Y-97510704D01*
X156593968Y-97522435D01*
X156547612Y-97527000D01*
X155896388Y-97527000D01*
X155850032Y-97522435D01*
X155811362Y-97510704D01*
X155775723Y-97491654D01*
X155744483Y-97466017D01*
X155718846Y-97434777D01*
X155699796Y-97399138D01*
X155688065Y-97360468D01*
X155683500Y-97314112D01*
X155683500Y-96237888D01*
X155688065Y-96191532D01*
X155699796Y-96152862D01*
X155718846Y-96117223D01*
X155744483Y-96085983D01*
X155775723Y-96060346D01*
X155811362Y-96041296D01*
X155850032Y-96029565D01*
X155896388Y-96025000D01*
X156547612Y-96025000D01*
X156593968Y-96029565D01*
X156593968Y-96029565D01*
G37*
G36*
X125186811Y-95828271D02*
G01*
X125222603Y-95839129D01*
X125255595Y-95856763D01*
X125284508Y-95880492D01*
X125308237Y-95909405D01*
X125325871Y-95942397D01*
X125336729Y-95978189D01*
X125341000Y-96021555D01*
X125341000Y-97053445D01*
X125336729Y-97096811D01*
X125325871Y-97132603D01*
X125308237Y-97165595D01*
X125284508Y-97194508D01*
X125255595Y-97218237D01*
X125222603Y-97235871D01*
X125186811Y-97246729D01*
X125143445Y-97251000D01*
X123086555Y-97251000D01*
X123043189Y-97246729D01*
X123007397Y-97235871D01*
X122974405Y-97218237D01*
X122945492Y-97194508D01*
X122921763Y-97165595D01*
X122904129Y-97132603D01*
X122893271Y-97096811D01*
X122889000Y-97053445D01*
X122889000Y-96021555D01*
X122893271Y-95978189D01*
X122904129Y-95942397D01*
X122921763Y-95909405D01*
X122945492Y-95880492D01*
X122974405Y-95856763D01*
X123007397Y-95839129D01*
X123043189Y-95828271D01*
X123086555Y-95824000D01*
X125143445Y-95824000D01*
X125186811Y-95828271D01*
X125186811Y-95828271D01*
G37*
G36*
X161123512Y-95353927D02*
G01*
X161272812Y-95383624D01*
X161436784Y-95451544D01*
X161584354Y-95550147D01*
X161709853Y-95675646D01*
X161808456Y-95823216D01*
X161876376Y-95987188D01*
X161887405Y-96042638D01*
X161894516Y-96066078D01*
X161906067Y-96087689D01*
X161921613Y-96106631D01*
X161940555Y-96122176D01*
X161962165Y-96133727D01*
X161985614Y-96140840D01*
X162010000Y-96143242D01*
X162034387Y-96140840D01*
X162057835Y-96133727D01*
X162079446Y-96122176D01*
X162098388Y-96106630D01*
X162113933Y-96087688D01*
X162125484Y-96066078D01*
X162132595Y-96042638D01*
X162143624Y-95987188D01*
X162211544Y-95823216D01*
X162310147Y-95675646D01*
X162435646Y-95550147D01*
X162583216Y-95451544D01*
X162747188Y-95383624D01*
X162896488Y-95353927D01*
X162921258Y-95349000D01*
X163098742Y-95349000D01*
X163123512Y-95353927D01*
X163272812Y-95383624D01*
X163436784Y-95451544D01*
X163584354Y-95550147D01*
X163709853Y-95675646D01*
X163808456Y-95823216D01*
X163876376Y-95987188D01*
X163911000Y-96161259D01*
X163911000Y-96338741D01*
X163876376Y-96512812D01*
X163808456Y-96676784D01*
X163709853Y-96824354D01*
X163584354Y-96949853D01*
X163436784Y-97048456D01*
X163272812Y-97116376D01*
X163123512Y-97146073D01*
X163098742Y-97151000D01*
X162921258Y-97151000D01*
X162896488Y-97146073D01*
X162747188Y-97116376D01*
X162583216Y-97048456D01*
X162435646Y-96949853D01*
X162310147Y-96824354D01*
X162211544Y-96676784D01*
X162143624Y-96512812D01*
X162132595Y-96457362D01*
X162125484Y-96433922D01*
X162113933Y-96412311D01*
X162098387Y-96393369D01*
X162079445Y-96377824D01*
X162057835Y-96366273D01*
X162034386Y-96359160D01*
X162010000Y-96356758D01*
X161985613Y-96359160D01*
X161962165Y-96366273D01*
X161940554Y-96377824D01*
X161921612Y-96393370D01*
X161906067Y-96412312D01*
X161894516Y-96433922D01*
X161887405Y-96457362D01*
X161876376Y-96512812D01*
X161808456Y-96676784D01*
X161709853Y-96824354D01*
X161584354Y-96949853D01*
X161436784Y-97048456D01*
X161272812Y-97116376D01*
X161123512Y-97146073D01*
X161098742Y-97151000D01*
X160921258Y-97151000D01*
X160896488Y-97146073D01*
X160747188Y-97116376D01*
X160583216Y-97048456D01*
X160435646Y-96949853D01*
X160310147Y-96824354D01*
X160211544Y-96676784D01*
X160143624Y-96512812D01*
X160109000Y-96338741D01*
X160109000Y-96161259D01*
X160143624Y-95987188D01*
X160211544Y-95823216D01*
X160310147Y-95675646D01*
X160435646Y-95550147D01*
X160583216Y-95451544D01*
X160747188Y-95383624D01*
X160896488Y-95353927D01*
X160921258Y-95349000D01*
X161098742Y-95349000D01*
X161123512Y-95353927D01*
X161123512Y-95353927D01*
G37*
G36*
X127238228Y-95181703D02*
G01*
X127393100Y-95245853D01*
X127532481Y-95338985D01*
X127651015Y-95457519D01*
X127744147Y-95596900D01*
X127808297Y-95751772D01*
X127841000Y-95916184D01*
X127841000Y-96083816D01*
X127808297Y-96248228D01*
X127744147Y-96403100D01*
X127651015Y-96542481D01*
X127532481Y-96661015D01*
X127393100Y-96754147D01*
X127238228Y-96818297D01*
X127073816Y-96851000D01*
X126906184Y-96851000D01*
X126741772Y-96818297D01*
X126586900Y-96754147D01*
X126447519Y-96661015D01*
X126328985Y-96542481D01*
X126235853Y-96403100D01*
X126171703Y-96248228D01*
X126139000Y-96083816D01*
X126139000Y-95916184D01*
X126171703Y-95751772D01*
X126235853Y-95596900D01*
X126328985Y-95457519D01*
X126447519Y-95338985D01*
X126586900Y-95245853D01*
X126741772Y-95181703D01*
X126906184Y-95149000D01*
X127073816Y-95149000D01*
X127238228Y-95181703D01*
X127238228Y-95181703D01*
G37*
G36*
X151682468Y-95013065D02*
G01*
X151721138Y-95024796D01*
X151756777Y-95043846D01*
X151788017Y-95069483D01*
X151813654Y-95100723D01*
X151832704Y-95136362D01*
X151844435Y-95175032D01*
X151849000Y-95221388D01*
X151849000Y-95872612D01*
X151844435Y-95918968D01*
X151832704Y-95957638D01*
X151813654Y-95993277D01*
X151788017Y-96024517D01*
X151756777Y-96050154D01*
X151721138Y-96069204D01*
X151682468Y-96080935D01*
X151636112Y-96085500D01*
X150559888Y-96085500D01*
X150513532Y-96080935D01*
X150474862Y-96069204D01*
X150439223Y-96050154D01*
X150407983Y-96024517D01*
X150382346Y-95993277D01*
X150363296Y-95957638D01*
X150351565Y-95918968D01*
X150347000Y-95872612D01*
X150347000Y-95221388D01*
X150351565Y-95175032D01*
X150363296Y-95136362D01*
X150382346Y-95100723D01*
X150407983Y-95069483D01*
X150439223Y-95043846D01*
X150474862Y-95024796D01*
X150513532Y-95013065D01*
X150559888Y-95008500D01*
X151636112Y-95008500D01*
X151682468Y-95013065D01*
X151682468Y-95013065D01*
G37*
G36*
X129541000Y-96017000D02*
G01*
X128639000Y-96017000D01*
X128639000Y-95015000D01*
X129541000Y-95015000D01*
X129541000Y-96017000D01*
X129541000Y-96017000D01*
G37*
G36*
X131541000Y-96017000D02*
G01*
X130239000Y-96017000D01*
X130239000Y-95015000D01*
X131541000Y-95015000D01*
X131541000Y-96017000D01*
X131541000Y-96017000D01*
G37*
G36*
X157217468Y-94153565D02*
G01*
X157256138Y-94165296D01*
X157291777Y-94184346D01*
X157323017Y-94209983D01*
X157348654Y-94241223D01*
X157367704Y-94276862D01*
X157379435Y-94315532D01*
X157384000Y-94361888D01*
X157384000Y-95013112D01*
X157379435Y-95059468D01*
X157367704Y-95098138D01*
X157348654Y-95133777D01*
X157323017Y-95165017D01*
X157291777Y-95190654D01*
X157256138Y-95209704D01*
X157217468Y-95221435D01*
X157171112Y-95226000D01*
X156094888Y-95226000D01*
X156048532Y-95221435D01*
X156009862Y-95209704D01*
X155974223Y-95190654D01*
X155942983Y-95165017D01*
X155917346Y-95133777D01*
X155898296Y-95098138D01*
X155886565Y-95059468D01*
X155882000Y-95013112D01*
X155882000Y-94361888D01*
X155886565Y-94315532D01*
X155898296Y-94276862D01*
X155917346Y-94241223D01*
X155942983Y-94209983D01*
X155974223Y-94184346D01*
X156009862Y-94165296D01*
X156048532Y-94153565D01*
X156094888Y-94149000D01*
X157171112Y-94149000D01*
X157217468Y-94153565D01*
X157217468Y-94153565D01*
G37*
G36*
X159170468Y-94153565D02*
G01*
X159209138Y-94165296D01*
X159244777Y-94184346D01*
X159276017Y-94209983D01*
X159301654Y-94241223D01*
X159320704Y-94276862D01*
X159332435Y-94315532D01*
X159337000Y-94361888D01*
X159337000Y-95013112D01*
X159332435Y-95059468D01*
X159320704Y-95098138D01*
X159301654Y-95133777D01*
X159276017Y-95165017D01*
X159244777Y-95190654D01*
X159209138Y-95209704D01*
X159170468Y-95221435D01*
X159124112Y-95226000D01*
X158047888Y-95226000D01*
X158001532Y-95221435D01*
X157962862Y-95209704D01*
X157927223Y-95190654D01*
X157895983Y-95165017D01*
X157870346Y-95133777D01*
X157851296Y-95098138D01*
X157839565Y-95059468D01*
X157835000Y-95013112D01*
X157835000Y-94361888D01*
X157839565Y-94315532D01*
X157851296Y-94276862D01*
X157870346Y-94241223D01*
X157895983Y-94209983D01*
X157927223Y-94184346D01*
X157962862Y-94165296D01*
X158001532Y-94153565D01*
X158047888Y-94149000D01*
X159124112Y-94149000D01*
X159170468Y-94153565D01*
X159170468Y-94153565D01*
G37*
G36*
X139486468Y-93827565D02*
G01*
X139525138Y-93839296D01*
X139560777Y-93858346D01*
X139592017Y-93883983D01*
X139617654Y-93915223D01*
X139636704Y-93950862D01*
X139648435Y-93989532D01*
X139653000Y-94035888D01*
X139653000Y-94687112D01*
X139648435Y-94733468D01*
X139636704Y-94772138D01*
X139617654Y-94807777D01*
X139592017Y-94839017D01*
X139560777Y-94864654D01*
X139525138Y-94883704D01*
X139486468Y-94895435D01*
X139440112Y-94900000D01*
X138363888Y-94900000D01*
X138317532Y-94895435D01*
X138278862Y-94883704D01*
X138243223Y-94864654D01*
X138211983Y-94839017D01*
X138186346Y-94807777D01*
X138167296Y-94772138D01*
X138155565Y-94733468D01*
X138151000Y-94687112D01*
X138151000Y-94035888D01*
X138155565Y-93989532D01*
X138167296Y-93950862D01*
X138186346Y-93915223D01*
X138211983Y-93883983D01*
X138243223Y-93858346D01*
X138278862Y-93839296D01*
X138317532Y-93827565D01*
X138363888Y-93823000D01*
X139440112Y-93823000D01*
X139486468Y-93827565D01*
X139486468Y-93827565D01*
G37*
G36*
X127238228Y-93181703D02*
G01*
X127393100Y-93245853D01*
X127532481Y-93338985D01*
X127651015Y-93457519D01*
X127744147Y-93596900D01*
X127808297Y-93751772D01*
X127841000Y-93916184D01*
X127841000Y-94083816D01*
X127808297Y-94248228D01*
X127744147Y-94403100D01*
X127651015Y-94542481D01*
X127532481Y-94661015D01*
X127393100Y-94754147D01*
X127238228Y-94818297D01*
X127073816Y-94851000D01*
X126906184Y-94851000D01*
X126741772Y-94818297D01*
X126586900Y-94754147D01*
X126447519Y-94661015D01*
X126328985Y-94542481D01*
X126235853Y-94403100D01*
X126171703Y-94248228D01*
X126139000Y-94083816D01*
X126139000Y-93916184D01*
X126171703Y-93751772D01*
X126235853Y-93596900D01*
X126328985Y-93457519D01*
X126447519Y-93338985D01*
X126586900Y-93245853D01*
X126741772Y-93181703D01*
X126906184Y-93149000D01*
X127073816Y-93149000D01*
X127238228Y-93181703D01*
X127238228Y-93181703D01*
G37*
G36*
X161911000Y-93420383D02*
G01*
X161913402Y-93444769D01*
X161920515Y-93468218D01*
X161932066Y-93489829D01*
X161947611Y-93508771D01*
X161966553Y-93524316D01*
X161988164Y-93535867D01*
X162011613Y-93542980D01*
X162035999Y-93545382D01*
X162060385Y-93542980D01*
X162083834Y-93535867D01*
X162105445Y-93524316D01*
X162124387Y-93508771D01*
X162139932Y-93489829D01*
X162151477Y-93468229D01*
X162211544Y-93323216D01*
X162310147Y-93175646D01*
X162435646Y-93050147D01*
X162583216Y-92951544D01*
X162747188Y-92883624D01*
X162896488Y-92853927D01*
X162921258Y-92849000D01*
X163098742Y-92849000D01*
X163123512Y-92853927D01*
X163272812Y-92883624D01*
X163436784Y-92951544D01*
X163584354Y-93050147D01*
X163709853Y-93175646D01*
X163808456Y-93323216D01*
X163876376Y-93487188D01*
X163898199Y-93596903D01*
X163911000Y-93661258D01*
X163911000Y-93838742D01*
X163907100Y-93858346D01*
X163876376Y-94012812D01*
X163808456Y-94176784D01*
X163709853Y-94324354D01*
X163584354Y-94449853D01*
X163436784Y-94548456D01*
X163272812Y-94616376D01*
X163123512Y-94646073D01*
X163098742Y-94651000D01*
X162921258Y-94651000D01*
X162896488Y-94646073D01*
X162747188Y-94616376D01*
X162583216Y-94548456D01*
X162435646Y-94449853D01*
X162310147Y-94324354D01*
X162211544Y-94176784D01*
X162151477Y-94031771D01*
X162139932Y-94010171D01*
X162124387Y-93991229D01*
X162105445Y-93975684D01*
X162083834Y-93964133D01*
X162060385Y-93957020D01*
X162035999Y-93954618D01*
X162011613Y-93957020D01*
X161988164Y-93964133D01*
X161966553Y-93975684D01*
X161947611Y-93991229D01*
X161932066Y-94010171D01*
X161920515Y-94031782D01*
X161913402Y-94055231D01*
X161911000Y-94079617D01*
X161911000Y-94651000D01*
X160109000Y-94651000D01*
X160109000Y-92849000D01*
X161911000Y-92849000D01*
X161911000Y-93420383D01*
X161911000Y-93420383D01*
G37*
G36*
X125186811Y-92753271D02*
G01*
X125222603Y-92764129D01*
X125255595Y-92781763D01*
X125284508Y-92805492D01*
X125308237Y-92834405D01*
X125325871Y-92867397D01*
X125336729Y-92903189D01*
X125341000Y-92946555D01*
X125341000Y-93978445D01*
X125336729Y-94021811D01*
X125325871Y-94057603D01*
X125308237Y-94090595D01*
X125284508Y-94119508D01*
X125255595Y-94143237D01*
X125222603Y-94160871D01*
X125186811Y-94171729D01*
X125143445Y-94176000D01*
X123086555Y-94176000D01*
X123043189Y-94171729D01*
X123007397Y-94160871D01*
X122974405Y-94143237D01*
X122945492Y-94119508D01*
X122921763Y-94090595D01*
X122904129Y-94057603D01*
X122893271Y-94021811D01*
X122889000Y-93978445D01*
X122889000Y-92946555D01*
X122893271Y-92903189D01*
X122904129Y-92867397D01*
X122921763Y-92834405D01*
X122945492Y-92805492D01*
X122974405Y-92781763D01*
X123007397Y-92764129D01*
X123043189Y-92753271D01*
X123086555Y-92749000D01*
X125143445Y-92749000D01*
X125186811Y-92753271D01*
X125186811Y-92753271D01*
G37*
G36*
X131541000Y-94017000D02*
G01*
X130639000Y-94017000D01*
X130639000Y-93015000D01*
X131541000Y-93015000D01*
X131541000Y-94017000D01*
X131541000Y-94017000D01*
G37*
G36*
X129541000Y-94017000D02*
G01*
X128639000Y-94017000D01*
X128639000Y-93015000D01*
X129541000Y-93015000D01*
X129541000Y-94017000D01*
X129541000Y-94017000D01*
G37*
G36*
X152911968Y-92203565D02*
G01*
X152950638Y-92215296D01*
X152986277Y-92234346D01*
X153017517Y-92259983D01*
X153043154Y-92291223D01*
X153062204Y-92326862D01*
X153073935Y-92365532D01*
X153078500Y-92411888D01*
X153078500Y-93488112D01*
X153073935Y-93534468D01*
X153062204Y-93573138D01*
X153043154Y-93608777D01*
X153017517Y-93640017D01*
X152986277Y-93665654D01*
X152950638Y-93684704D01*
X152911968Y-93696435D01*
X152865612Y-93701000D01*
X152214388Y-93701000D01*
X152168032Y-93696435D01*
X152129362Y-93684704D01*
X152093723Y-93665654D01*
X152062483Y-93640017D01*
X152036846Y-93608777D01*
X152017796Y-93573138D01*
X152006065Y-93534468D01*
X152001500Y-93488112D01*
X152001500Y-92411888D01*
X152006065Y-92365532D01*
X152017796Y-92326862D01*
X152036846Y-92291223D01*
X152062483Y-92259983D01*
X152093723Y-92234346D01*
X152129362Y-92215296D01*
X152168032Y-92203565D01*
X152214388Y-92199000D01*
X152865612Y-92199000D01*
X152911968Y-92203565D01*
X152911968Y-92203565D01*
G37*
G36*
X151036968Y-92203565D02*
G01*
X151075638Y-92215296D01*
X151111277Y-92234346D01*
X151142517Y-92259983D01*
X151168154Y-92291223D01*
X151187204Y-92326862D01*
X151198935Y-92365532D01*
X151203500Y-92411888D01*
X151203500Y-93488112D01*
X151198935Y-93534468D01*
X151187204Y-93573138D01*
X151168154Y-93608777D01*
X151142517Y-93640017D01*
X151111277Y-93665654D01*
X151075638Y-93684704D01*
X151036968Y-93696435D01*
X150990612Y-93701000D01*
X150339388Y-93701000D01*
X150293032Y-93696435D01*
X150254362Y-93684704D01*
X150218723Y-93665654D01*
X150187483Y-93640017D01*
X150161846Y-93608777D01*
X150142796Y-93573138D01*
X150131065Y-93534468D01*
X150126500Y-93488112D01*
X150126500Y-92411888D01*
X150131065Y-92365532D01*
X150142796Y-92326862D01*
X150161846Y-92291223D01*
X150187483Y-92259983D01*
X150218723Y-92234346D01*
X150254362Y-92215296D01*
X150293032Y-92203565D01*
X150339388Y-92199000D01*
X150990612Y-92199000D01*
X151036968Y-92203565D01*
X151036968Y-92203565D01*
G37*
G36*
X157217468Y-92278565D02*
G01*
X157256138Y-92290296D01*
X157291777Y-92309346D01*
X157323017Y-92334983D01*
X157348654Y-92366223D01*
X157367704Y-92401862D01*
X157379435Y-92440532D01*
X157384000Y-92486888D01*
X157384000Y-93138112D01*
X157379435Y-93184468D01*
X157367704Y-93223138D01*
X157348654Y-93258777D01*
X157323017Y-93290017D01*
X157291777Y-93315654D01*
X157256138Y-93334704D01*
X157217468Y-93346435D01*
X157171112Y-93351000D01*
X156094888Y-93351000D01*
X156048532Y-93346435D01*
X156009862Y-93334704D01*
X155974223Y-93315654D01*
X155942983Y-93290017D01*
X155917346Y-93258777D01*
X155898296Y-93223138D01*
X155886565Y-93184468D01*
X155882000Y-93138112D01*
X155882000Y-92486888D01*
X155886565Y-92440532D01*
X155898296Y-92401862D01*
X155917346Y-92366223D01*
X155942983Y-92334983D01*
X155974223Y-92309346D01*
X156009862Y-92290296D01*
X156048532Y-92278565D01*
X156094888Y-92274000D01*
X157171112Y-92274000D01*
X157217468Y-92278565D01*
X157217468Y-92278565D01*
G37*
G36*
X159170468Y-92278565D02*
G01*
X159209138Y-92290296D01*
X159244777Y-92309346D01*
X159276017Y-92334983D01*
X159301654Y-92366223D01*
X159320704Y-92401862D01*
X159332435Y-92440532D01*
X159337000Y-92486888D01*
X159337000Y-93138112D01*
X159332435Y-93184468D01*
X159320704Y-93223138D01*
X159301654Y-93258777D01*
X159276017Y-93290017D01*
X159244777Y-93315654D01*
X159209138Y-93334704D01*
X159170468Y-93346435D01*
X159124112Y-93351000D01*
X158047888Y-93351000D01*
X158001532Y-93346435D01*
X157962862Y-93334704D01*
X157927223Y-93315654D01*
X157895983Y-93290017D01*
X157870346Y-93258777D01*
X157851296Y-93223138D01*
X157839565Y-93184468D01*
X157835000Y-93138112D01*
X157835000Y-92486888D01*
X157839565Y-92440532D01*
X157851296Y-92401862D01*
X157870346Y-92366223D01*
X157895983Y-92334983D01*
X157927223Y-92309346D01*
X157962862Y-92290296D01*
X158001532Y-92278565D01*
X158047888Y-92274000D01*
X159124112Y-92274000D01*
X159170468Y-92278565D01*
X159170468Y-92278565D01*
G37*
G36*
X139486468Y-91952565D02*
G01*
X139525138Y-91964296D01*
X139560777Y-91983346D01*
X139592017Y-92008983D01*
X139617654Y-92040223D01*
X139636704Y-92075862D01*
X139648435Y-92114532D01*
X139653000Y-92160888D01*
X139653000Y-92812112D01*
X139648435Y-92858468D01*
X139636704Y-92897138D01*
X139617654Y-92932777D01*
X139592017Y-92964017D01*
X139560777Y-92989654D01*
X139525138Y-93008704D01*
X139486468Y-93020435D01*
X139440112Y-93025000D01*
X138363888Y-93025000D01*
X138317532Y-93020435D01*
X138278862Y-93008704D01*
X138243223Y-92989654D01*
X138211983Y-92964017D01*
X138186346Y-92932777D01*
X138167296Y-92897138D01*
X138155565Y-92858468D01*
X138151000Y-92812112D01*
X138151000Y-92160888D01*
X138155565Y-92114532D01*
X138167296Y-92075862D01*
X138186346Y-92040223D01*
X138211983Y-92008983D01*
X138243223Y-91983346D01*
X138278862Y-91964296D01*
X138317532Y-91952565D01*
X138363888Y-91948000D01*
X139440112Y-91948000D01*
X139486468Y-91952565D01*
X139486468Y-91952565D01*
G37*
G36*
X137533898Y-91952565D02*
G01*
X137572568Y-91964296D01*
X137608207Y-91983346D01*
X137639447Y-92008983D01*
X137665084Y-92040223D01*
X137684134Y-92075862D01*
X137695865Y-92114532D01*
X137700430Y-92160888D01*
X137700430Y-92812112D01*
X137695865Y-92858468D01*
X137684134Y-92897138D01*
X137665084Y-92932777D01*
X137639447Y-92964017D01*
X137608207Y-92989654D01*
X137572568Y-93008704D01*
X137533898Y-93020435D01*
X137487542Y-93025000D01*
X136411318Y-93025000D01*
X136364962Y-93020435D01*
X136326292Y-93008704D01*
X136290653Y-92989654D01*
X136259413Y-92964017D01*
X136233776Y-92932777D01*
X136214726Y-92897138D01*
X136202995Y-92858468D01*
X136198430Y-92812112D01*
X136198430Y-92160888D01*
X136202995Y-92114532D01*
X136214726Y-92075862D01*
X136233776Y-92040223D01*
X136259413Y-92008983D01*
X136290653Y-91983346D01*
X136326292Y-91964296D01*
X136364962Y-91952565D01*
X136411318Y-91948000D01*
X137487542Y-91948000D01*
X137533898Y-91952565D01*
X137533898Y-91952565D01*
G37*
G36*
X166062091Y-91384085D02*
G01*
X166096069Y-91394393D01*
X166127390Y-91411134D01*
X166154839Y-91433661D01*
X166177366Y-91461110D01*
X166194107Y-91492431D01*
X166204415Y-91526409D01*
X166208500Y-91567890D01*
X166208500Y-92244110D01*
X166204415Y-92285591D01*
X166194107Y-92319569D01*
X166177366Y-92350890D01*
X166154839Y-92378339D01*
X166127390Y-92400866D01*
X166096069Y-92417607D01*
X166062091Y-92427915D01*
X166020610Y-92432000D01*
X165419390Y-92432000D01*
X165377909Y-92427915D01*
X165343931Y-92417607D01*
X165312610Y-92400866D01*
X165285161Y-92378339D01*
X165262634Y-92350890D01*
X165245893Y-92319569D01*
X165235585Y-92285591D01*
X165231500Y-92244110D01*
X165231500Y-91567890D01*
X165235585Y-91526409D01*
X165245893Y-91492431D01*
X165262634Y-91461110D01*
X165285161Y-91433661D01*
X165312610Y-91411134D01*
X165343931Y-91394393D01*
X165377909Y-91384085D01*
X165419390Y-91380000D01*
X166020610Y-91380000D01*
X166062091Y-91384085D01*
X166062091Y-91384085D01*
G37*
G36*
X167637091Y-91384085D02*
G01*
X167671069Y-91394393D01*
X167702390Y-91411134D01*
X167729839Y-91433661D01*
X167752366Y-91461110D01*
X167769107Y-91492431D01*
X167779415Y-91526409D01*
X167783500Y-91567890D01*
X167783500Y-92244110D01*
X167779415Y-92285591D01*
X167769107Y-92319569D01*
X167752366Y-92350890D01*
X167729839Y-92378339D01*
X167702390Y-92400866D01*
X167671069Y-92417607D01*
X167637091Y-92427915D01*
X167595610Y-92432000D01*
X166994390Y-92432000D01*
X166952909Y-92427915D01*
X166918931Y-92417607D01*
X166887610Y-92400866D01*
X166860161Y-92378339D01*
X166837634Y-92350890D01*
X166820893Y-92319569D01*
X166810585Y-92285591D01*
X166806500Y-92244110D01*
X166806500Y-91567890D01*
X166810585Y-91526409D01*
X166820893Y-91492431D01*
X166837634Y-91461110D01*
X166860161Y-91433661D01*
X166887610Y-91411134D01*
X166918931Y-91394393D01*
X166952909Y-91384085D01*
X166994390Y-91380000D01*
X167595610Y-91380000D01*
X167637091Y-91384085D01*
X167637091Y-91384085D01*
G37*
G36*
X127841000Y-92351000D02*
G01*
X126139000Y-92351000D01*
X126139000Y-90649000D01*
X127841000Y-90649000D01*
X127841000Y-92351000D01*
X127841000Y-92351000D01*
G37*
G36*
X161381968Y-90253565D02*
G01*
X161420638Y-90265296D01*
X161456277Y-90284346D01*
X161487517Y-90309983D01*
X161513154Y-90341223D01*
X161532204Y-90376862D01*
X161543935Y-90415532D01*
X161548500Y-90461888D01*
X161548500Y-91538112D01*
X161543935Y-91584468D01*
X161532204Y-91623138D01*
X161513154Y-91658777D01*
X161487517Y-91690017D01*
X161456277Y-91715654D01*
X161420638Y-91734704D01*
X161381968Y-91746435D01*
X161335612Y-91751000D01*
X160684388Y-91751000D01*
X160638032Y-91746435D01*
X160599362Y-91734704D01*
X160563723Y-91715654D01*
X160532483Y-91690017D01*
X160506846Y-91658777D01*
X160487796Y-91623138D01*
X160476065Y-91584468D01*
X160471500Y-91538112D01*
X160471500Y-90461888D01*
X160476065Y-90415532D01*
X160487796Y-90376862D01*
X160506846Y-90341223D01*
X160532483Y-90309983D01*
X160563723Y-90284346D01*
X160599362Y-90265296D01*
X160638032Y-90253565D01*
X160684388Y-90249000D01*
X161335612Y-90249000D01*
X161381968Y-90253565D01*
X161381968Y-90253565D01*
G37*
G36*
X163256968Y-90253565D02*
G01*
X163295638Y-90265296D01*
X163331277Y-90284346D01*
X163362517Y-90309983D01*
X163388154Y-90341223D01*
X163407204Y-90376862D01*
X163418935Y-90415532D01*
X163423500Y-90461888D01*
X163423500Y-91538112D01*
X163418935Y-91584468D01*
X163407204Y-91623138D01*
X163388154Y-91658777D01*
X163362517Y-91690017D01*
X163331277Y-91715654D01*
X163295638Y-91734704D01*
X163256968Y-91746435D01*
X163210612Y-91751000D01*
X162559388Y-91751000D01*
X162513032Y-91746435D01*
X162474362Y-91734704D01*
X162438723Y-91715654D01*
X162407483Y-91690017D01*
X162381846Y-91658777D01*
X162362796Y-91623138D01*
X162351065Y-91584468D01*
X162346500Y-91538112D01*
X162346500Y-90461888D01*
X162351065Y-90415532D01*
X162362796Y-90376862D01*
X162381846Y-90341223D01*
X162407483Y-90309983D01*
X162438723Y-90284346D01*
X162474362Y-90265296D01*
X162513032Y-90253565D01*
X162559388Y-90249000D01*
X163210612Y-90249000D01*
X163256968Y-90253565D01*
X163256968Y-90253565D01*
G37*
G36*
X152911968Y-90252565D02*
G01*
X152950638Y-90264296D01*
X152986277Y-90283346D01*
X153017517Y-90308983D01*
X153043154Y-90340223D01*
X153062204Y-90375862D01*
X153073935Y-90414532D01*
X153078500Y-90460888D01*
X153078500Y-91537112D01*
X153073935Y-91583468D01*
X153062204Y-91622138D01*
X153043154Y-91657777D01*
X153017517Y-91689017D01*
X152986277Y-91714654D01*
X152950638Y-91733704D01*
X152911968Y-91745435D01*
X152865612Y-91750000D01*
X152214388Y-91750000D01*
X152168032Y-91745435D01*
X152129362Y-91733704D01*
X152093723Y-91714654D01*
X152062483Y-91689017D01*
X152036846Y-91657777D01*
X152017796Y-91622138D01*
X152006065Y-91583468D01*
X152001500Y-91537112D01*
X152001500Y-90460888D01*
X152006065Y-90414532D01*
X152017796Y-90375862D01*
X152036846Y-90340223D01*
X152062483Y-90308983D01*
X152093723Y-90283346D01*
X152129362Y-90264296D01*
X152168032Y-90252565D01*
X152214388Y-90248000D01*
X152865612Y-90248000D01*
X152911968Y-90252565D01*
X152911968Y-90252565D01*
G37*
G36*
X151036968Y-90252565D02*
G01*
X151075638Y-90264296D01*
X151111277Y-90283346D01*
X151142517Y-90308983D01*
X151168154Y-90340223D01*
X151187204Y-90375862D01*
X151198935Y-90414532D01*
X151203500Y-90460888D01*
X151203500Y-91537112D01*
X151198935Y-91583468D01*
X151187204Y-91622138D01*
X151168154Y-91657777D01*
X151142517Y-91689017D01*
X151111277Y-91714654D01*
X151075638Y-91733704D01*
X151036968Y-91745435D01*
X150990612Y-91750000D01*
X150339388Y-91750000D01*
X150293032Y-91745435D01*
X150254362Y-91733704D01*
X150218723Y-91714654D01*
X150187483Y-91689017D01*
X150161846Y-91657777D01*
X150142796Y-91622138D01*
X150131065Y-91583468D01*
X150126500Y-91537112D01*
X150126500Y-90460888D01*
X150131065Y-90414532D01*
X150142796Y-90375862D01*
X150161846Y-90340223D01*
X150187483Y-90308983D01*
X150218723Y-90283346D01*
X150254362Y-90264296D01*
X150293032Y-90252565D01*
X150339388Y-90248000D01*
X150990612Y-90248000D01*
X151036968Y-90252565D01*
X151036968Y-90252565D01*
G37*
G36*
X137533898Y-90077565D02*
G01*
X137572568Y-90089296D01*
X137608207Y-90108346D01*
X137639447Y-90133983D01*
X137665084Y-90165223D01*
X137684134Y-90200862D01*
X137695865Y-90239532D01*
X137700430Y-90285888D01*
X137700430Y-90937112D01*
X137695865Y-90983468D01*
X137684134Y-91022138D01*
X137665084Y-91057777D01*
X137639447Y-91089017D01*
X137608207Y-91114654D01*
X137572568Y-91133704D01*
X137533898Y-91145435D01*
X137487542Y-91150000D01*
X136411318Y-91150000D01*
X136364962Y-91145435D01*
X136326292Y-91133704D01*
X136290653Y-91114654D01*
X136259413Y-91089017D01*
X136233776Y-91057777D01*
X136214726Y-91022138D01*
X136202995Y-90983468D01*
X136198430Y-90937112D01*
X136198430Y-90285888D01*
X136202995Y-90239532D01*
X136214726Y-90200862D01*
X136233776Y-90165223D01*
X136259413Y-90133983D01*
X136290653Y-90108346D01*
X136326292Y-90089296D01*
X136364962Y-90077565D01*
X136411318Y-90073000D01*
X137487542Y-90073000D01*
X137533898Y-90077565D01*
X137533898Y-90077565D01*
G37*
G36*
X166245331Y-87248211D02*
G01*
X166573092Y-87383974D01*
X166868070Y-87581072D01*
X167118928Y-87831930D01*
X167316026Y-88126908D01*
X167451789Y-88454669D01*
X167521000Y-88802616D01*
X167521000Y-89157384D01*
X167451789Y-89505331D01*
X167316026Y-89833092D01*
X167118928Y-90128070D01*
X166868070Y-90378928D01*
X166573092Y-90576026D01*
X166245331Y-90711789D01*
X165897384Y-90781000D01*
X165542616Y-90781000D01*
X165194669Y-90711789D01*
X164866908Y-90576026D01*
X164571930Y-90378928D01*
X164321072Y-90128070D01*
X164123974Y-89833092D01*
X163988211Y-89505331D01*
X163919000Y-89157384D01*
X163919000Y-88802616D01*
X163988211Y-88454669D01*
X164123974Y-88126908D01*
X164321072Y-87831930D01*
X164571930Y-87581072D01*
X164866908Y-87383974D01*
X165194669Y-87248211D01*
X165542616Y-87179000D01*
X165897384Y-87179000D01*
X166245331Y-87248211D01*
X166245331Y-87248211D01*
G37*
G36*
X124622091Y-89653085D02*
G01*
X124656069Y-89663393D01*
X124687390Y-89680134D01*
X124714839Y-89702661D01*
X124737366Y-89730110D01*
X124754107Y-89761431D01*
X124764415Y-89795409D01*
X124768500Y-89836890D01*
X124768500Y-90513110D01*
X124764415Y-90554591D01*
X124754107Y-90588569D01*
X124737366Y-90619890D01*
X124714839Y-90647339D01*
X124687390Y-90669866D01*
X124656069Y-90686607D01*
X124622091Y-90696915D01*
X124580610Y-90701000D01*
X123979390Y-90701000D01*
X123937909Y-90696915D01*
X123903931Y-90686607D01*
X123872610Y-90669866D01*
X123845161Y-90647339D01*
X123822634Y-90619890D01*
X123805893Y-90588569D01*
X123795585Y-90554591D01*
X123791500Y-90513110D01*
X123791500Y-89836890D01*
X123795585Y-89795409D01*
X123805893Y-89761431D01*
X123822634Y-89730110D01*
X123845161Y-89702661D01*
X123872610Y-89680134D01*
X123903931Y-89663393D01*
X123937909Y-89653085D01*
X123979390Y-89649000D01*
X124580610Y-89649000D01*
X124622091Y-89653085D01*
X124622091Y-89653085D01*
G37*
G36*
X123047091Y-89653085D02*
G01*
X123081069Y-89663393D01*
X123112390Y-89680134D01*
X123139839Y-89702661D01*
X123162366Y-89730110D01*
X123179107Y-89761431D01*
X123189415Y-89795409D01*
X123193500Y-89836890D01*
X123193500Y-90513110D01*
X123189415Y-90554591D01*
X123179107Y-90588569D01*
X123162366Y-90619890D01*
X123139839Y-90647339D01*
X123112390Y-90669866D01*
X123081069Y-90686607D01*
X123047091Y-90696915D01*
X123005610Y-90701000D01*
X122404390Y-90701000D01*
X122362909Y-90696915D01*
X122328931Y-90686607D01*
X122297610Y-90669866D01*
X122270161Y-90647339D01*
X122247634Y-90619890D01*
X122230893Y-90588569D01*
X122220585Y-90554591D01*
X122216500Y-90513110D01*
X122216500Y-89836890D01*
X122220585Y-89795409D01*
X122230893Y-89761431D01*
X122247634Y-89730110D01*
X122270161Y-89702661D01*
X122297610Y-89680134D01*
X122328931Y-89663393D01*
X122362909Y-89653085D01*
X122404390Y-89649000D01*
X123005610Y-89649000D01*
X123047091Y-89653085D01*
X123047091Y-89653085D01*
G37*
G36*
X145058968Y-88801065D02*
G01*
X145097638Y-88812796D01*
X145133277Y-88831846D01*
X145164517Y-88857483D01*
X145190154Y-88888723D01*
X145209204Y-88924362D01*
X145220935Y-88963032D01*
X145225500Y-89009388D01*
X145225500Y-89660612D01*
X145220935Y-89706968D01*
X145209204Y-89745638D01*
X145190154Y-89781277D01*
X145164517Y-89812517D01*
X145133277Y-89838154D01*
X145097638Y-89857204D01*
X145058968Y-89868935D01*
X145012612Y-89873500D01*
X143936388Y-89873500D01*
X143890032Y-89868935D01*
X143851362Y-89857204D01*
X143815723Y-89838154D01*
X143784483Y-89812517D01*
X143758846Y-89781277D01*
X143739796Y-89745638D01*
X143728065Y-89706968D01*
X143723500Y-89660612D01*
X143723500Y-89009388D01*
X143728065Y-88963032D01*
X143739796Y-88924362D01*
X143758846Y-88888723D01*
X143784483Y-88857483D01*
X143815723Y-88831846D01*
X143851362Y-88812796D01*
X143890032Y-88801065D01*
X143936388Y-88796500D01*
X145012612Y-88796500D01*
X145058968Y-88801065D01*
X145058968Y-88801065D01*
G37*
G36*
X143108968Y-88801065D02*
G01*
X143147638Y-88812796D01*
X143183277Y-88831846D01*
X143214517Y-88857483D01*
X143240154Y-88888723D01*
X143259204Y-88924362D01*
X143270935Y-88963032D01*
X143275500Y-89009388D01*
X143275500Y-89660612D01*
X143270935Y-89706968D01*
X143259204Y-89745638D01*
X143240154Y-89781277D01*
X143214517Y-89812517D01*
X143183277Y-89838154D01*
X143147638Y-89857204D01*
X143108968Y-89868935D01*
X143062612Y-89873500D01*
X141986388Y-89873500D01*
X141940032Y-89868935D01*
X141901362Y-89857204D01*
X141865723Y-89838154D01*
X141834483Y-89812517D01*
X141808846Y-89781277D01*
X141789796Y-89745638D01*
X141778065Y-89706968D01*
X141773500Y-89660612D01*
X141773500Y-89009388D01*
X141778065Y-88963032D01*
X141789796Y-88924362D01*
X141808846Y-88888723D01*
X141834483Y-88857483D01*
X141865723Y-88831846D01*
X141901362Y-88812796D01*
X141940032Y-88801065D01*
X141986388Y-88796500D01*
X143062612Y-88796500D01*
X143108968Y-88801065D01*
X143108968Y-88801065D01*
G37*
G36*
X141158468Y-88801065D02*
G01*
X141197138Y-88812796D01*
X141232777Y-88831846D01*
X141264017Y-88857483D01*
X141289654Y-88888723D01*
X141308704Y-88924362D01*
X141320435Y-88963032D01*
X141325000Y-89009388D01*
X141325000Y-89660612D01*
X141320435Y-89706968D01*
X141308704Y-89745638D01*
X141289654Y-89781277D01*
X141264017Y-89812517D01*
X141232777Y-89838154D01*
X141197138Y-89857204D01*
X141158468Y-89868935D01*
X141112112Y-89873500D01*
X140035888Y-89873500D01*
X139989532Y-89868935D01*
X139950862Y-89857204D01*
X139915223Y-89838154D01*
X139883983Y-89812517D01*
X139858346Y-89781277D01*
X139839296Y-89745638D01*
X139827565Y-89706968D01*
X139823000Y-89660612D01*
X139823000Y-89009388D01*
X139827565Y-88963032D01*
X139839296Y-88924362D01*
X139858346Y-88888723D01*
X139883983Y-88857483D01*
X139915223Y-88831846D01*
X139950862Y-88812796D01*
X139989532Y-88801065D01*
X140035888Y-88796500D01*
X141112112Y-88796500D01*
X141158468Y-88801065D01*
X141158468Y-88801065D01*
G37*
G36*
X124582585Y-85978802D02*
G01*
X124732410Y-86008604D01*
X125014674Y-86125521D01*
X125268705Y-86295259D01*
X125484741Y-86511295D01*
X125654479Y-86765326D01*
X125771396Y-87047590D01*
X125831000Y-87347240D01*
X125831000Y-87652760D01*
X125771396Y-87952410D01*
X125654479Y-88234674D01*
X125484741Y-88488705D01*
X125268705Y-88704741D01*
X125014674Y-88874479D01*
X124732410Y-88991396D01*
X124641958Y-89009388D01*
X124432761Y-89051000D01*
X124127239Y-89051000D01*
X123918042Y-89009388D01*
X123827590Y-88991396D01*
X123545326Y-88874479D01*
X123291295Y-88704741D01*
X123075259Y-88488705D01*
X122905521Y-88234674D01*
X122788604Y-87952410D01*
X122729000Y-87652760D01*
X122729000Y-87347240D01*
X122788604Y-87047590D01*
X122905521Y-86765326D01*
X123075259Y-86511295D01*
X123291295Y-86295259D01*
X123545326Y-86125521D01*
X123827590Y-86008604D01*
X123977415Y-85978802D01*
X124127239Y-85949000D01*
X124432761Y-85949000D01*
X124582585Y-85978802D01*
X124582585Y-85978802D01*
G37*
G36*
X145058968Y-86926065D02*
G01*
X145097638Y-86937796D01*
X145133277Y-86956846D01*
X145164517Y-86982483D01*
X145190154Y-87013723D01*
X145209204Y-87049362D01*
X145220935Y-87088032D01*
X145225500Y-87134388D01*
X145225500Y-87785612D01*
X145220935Y-87831968D01*
X145209204Y-87870638D01*
X145190154Y-87906277D01*
X145164517Y-87937517D01*
X145133277Y-87963154D01*
X145097638Y-87982204D01*
X145058968Y-87993935D01*
X145012612Y-87998500D01*
X143936388Y-87998500D01*
X143890032Y-87993935D01*
X143851362Y-87982204D01*
X143815723Y-87963154D01*
X143784483Y-87937517D01*
X143758846Y-87906277D01*
X143739796Y-87870638D01*
X143728065Y-87831968D01*
X143723500Y-87785612D01*
X143723500Y-87134388D01*
X143728065Y-87088032D01*
X143739796Y-87049362D01*
X143758846Y-87013723D01*
X143784483Y-86982483D01*
X143815723Y-86956846D01*
X143851362Y-86937796D01*
X143890032Y-86926065D01*
X143936388Y-86921500D01*
X145012612Y-86921500D01*
X145058968Y-86926065D01*
X145058968Y-86926065D01*
G37*
G36*
X141158468Y-86926065D02*
G01*
X141197138Y-86937796D01*
X141232777Y-86956846D01*
X141264017Y-86982483D01*
X141289654Y-87013723D01*
X141308704Y-87049362D01*
X141320435Y-87088032D01*
X141325000Y-87134388D01*
X141325000Y-87785612D01*
X141320435Y-87831968D01*
X141308704Y-87870638D01*
X141289654Y-87906277D01*
X141264017Y-87937517D01*
X141232777Y-87963154D01*
X141197138Y-87982204D01*
X141158468Y-87993935D01*
X141112112Y-87998500D01*
X140035888Y-87998500D01*
X139989532Y-87993935D01*
X139950862Y-87982204D01*
X139915223Y-87963154D01*
X139883983Y-87937517D01*
X139858346Y-87906277D01*
X139839296Y-87870638D01*
X139827565Y-87831968D01*
X139823000Y-87785612D01*
X139823000Y-87134388D01*
X139827565Y-87088032D01*
X139839296Y-87049362D01*
X139858346Y-87013723D01*
X139883983Y-86982483D01*
X139915223Y-86956846D01*
X139950862Y-86937796D01*
X139989532Y-86926065D01*
X140035888Y-86921500D01*
X141112112Y-86921500D01*
X141158468Y-86926065D01*
X141158468Y-86926065D01*
G37*
G36*
X143108968Y-86926065D02*
G01*
X143147638Y-86937796D01*
X143183277Y-86956846D01*
X143214517Y-86982483D01*
X143240154Y-87013723D01*
X143259204Y-87049362D01*
X143270935Y-87088032D01*
X143275500Y-87134388D01*
X143275500Y-87785612D01*
X143270935Y-87831968D01*
X143259204Y-87870638D01*
X143240154Y-87906277D01*
X143214517Y-87937517D01*
X143183277Y-87963154D01*
X143147638Y-87982204D01*
X143108968Y-87993935D01*
X143062612Y-87998500D01*
X141986388Y-87998500D01*
X141940032Y-87993935D01*
X141901362Y-87982204D01*
X141865723Y-87963154D01*
X141834483Y-87937517D01*
X141808846Y-87906277D01*
X141789796Y-87870638D01*
X141778065Y-87831968D01*
X141773500Y-87785612D01*
X141773500Y-87134388D01*
X141778065Y-87088032D01*
X141789796Y-87049362D01*
X141808846Y-87013723D01*
X141834483Y-86982483D01*
X141865723Y-86956846D01*
X141901362Y-86937796D01*
X141940032Y-86926065D01*
X141986388Y-86921500D01*
X143062612Y-86921500D01*
X143108968Y-86926065D01*
X143108968Y-86926065D01*
G37*
G36*
X147660253Y-85658065D02*
G01*
X147698923Y-85669796D01*
X147734562Y-85688846D01*
X147765802Y-85714483D01*
X147791439Y-85745723D01*
X147810489Y-85781362D01*
X147822220Y-85820032D01*
X147826785Y-85866388D01*
X147826785Y-86517612D01*
X147822220Y-86563968D01*
X147810489Y-86602638D01*
X147791439Y-86638277D01*
X147765802Y-86669517D01*
X147734562Y-86695154D01*
X147698923Y-86714204D01*
X147660253Y-86725935D01*
X147613897Y-86730500D01*
X146537673Y-86730500D01*
X146491317Y-86725935D01*
X146452647Y-86714204D01*
X146417008Y-86695154D01*
X146385768Y-86669517D01*
X146360131Y-86638277D01*
X146341081Y-86602638D01*
X146329350Y-86563968D01*
X146324785Y-86517612D01*
X146324785Y-85866388D01*
X146329350Y-85820032D01*
X146341081Y-85781362D01*
X146360131Y-85745723D01*
X146385768Y-85714483D01*
X146417008Y-85688846D01*
X146452647Y-85669796D01*
X146491317Y-85658065D01*
X146537673Y-85653500D01*
X147613897Y-85653500D01*
X147660253Y-85658065D01*
X147660253Y-85658065D01*
G37*
G36*
X149679610Y-85658065D02*
G01*
X149718280Y-85669796D01*
X149753919Y-85688846D01*
X149785159Y-85714483D01*
X149810796Y-85745723D01*
X149829846Y-85781362D01*
X149841577Y-85820032D01*
X149846142Y-85866388D01*
X149846142Y-86517612D01*
X149841577Y-86563968D01*
X149829846Y-86602638D01*
X149810796Y-86638277D01*
X149785159Y-86669517D01*
X149753919Y-86695154D01*
X149718280Y-86714204D01*
X149679610Y-86725935D01*
X149633254Y-86730500D01*
X148557030Y-86730500D01*
X148510674Y-86725935D01*
X148472004Y-86714204D01*
X148436365Y-86695154D01*
X148405125Y-86669517D01*
X148379488Y-86638277D01*
X148360438Y-86602638D01*
X148348707Y-86563968D01*
X148344142Y-86517612D01*
X148344142Y-85866388D01*
X148348707Y-85820032D01*
X148360438Y-85781362D01*
X148379488Y-85745723D01*
X148405125Y-85714483D01*
X148436365Y-85688846D01*
X148472004Y-85669796D01*
X148510674Y-85658065D01*
X148557030Y-85653500D01*
X149633254Y-85653500D01*
X149679610Y-85658065D01*
X149679610Y-85658065D01*
G37*
G36*
X135777395Y-84496546D02*
G01*
X135950466Y-84568234D01*
X136027818Y-84619919D01*
X136106227Y-84672310D01*
X136238690Y-84804773D01*
X136279931Y-84866495D01*
X136342766Y-84960534D01*
X136414454Y-85133605D01*
X136451000Y-85317333D01*
X136451000Y-85504667D01*
X136414454Y-85688395D01*
X136342766Y-85861466D01*
X136342765Y-85861467D01*
X136238690Y-86017227D01*
X136106227Y-86149690D01*
X136027818Y-86202081D01*
X135950466Y-86253766D01*
X135777395Y-86325454D01*
X135593667Y-86362000D01*
X135406333Y-86362000D01*
X135222605Y-86325454D01*
X135049534Y-86253766D01*
X134972182Y-86202081D01*
X134893773Y-86149690D01*
X134761310Y-86017227D01*
X134657235Y-85861467D01*
X134657234Y-85861466D01*
X134585546Y-85688395D01*
X134549000Y-85504667D01*
X134549000Y-85317333D01*
X134585546Y-85133605D01*
X134657234Y-84960534D01*
X134720069Y-84866495D01*
X134761310Y-84804773D01*
X134893773Y-84672310D01*
X134972182Y-84619919D01*
X135049534Y-84568234D01*
X135222605Y-84496546D01*
X135406333Y-84460000D01*
X135593667Y-84460000D01*
X135777395Y-84496546D01*
X135777395Y-84496546D01*
G37*
G36*
X156704473Y-84736938D02*
G01*
X156832049Y-84789782D01*
X156946859Y-84866495D01*
X157044505Y-84964141D01*
X157121218Y-85078951D01*
X157174062Y-85206527D01*
X157201000Y-85341956D01*
X157201000Y-85480044D01*
X157174062Y-85615473D01*
X157121218Y-85743049D01*
X157044505Y-85857859D01*
X156946859Y-85955505D01*
X156832049Y-86032218D01*
X156704473Y-86085062D01*
X156569044Y-86112000D01*
X156430956Y-86112000D01*
X156295527Y-86085062D01*
X156167951Y-86032218D01*
X156053141Y-85955505D01*
X155955495Y-85857859D01*
X155878782Y-85743049D01*
X155825938Y-85615473D01*
X155799000Y-85480044D01*
X155799000Y-85341956D01*
X155825938Y-85206527D01*
X155878782Y-85078951D01*
X155955495Y-84964141D01*
X156053141Y-84866495D01*
X156167951Y-84789782D01*
X156295527Y-84736938D01*
X156430956Y-84710000D01*
X156569044Y-84710000D01*
X156704473Y-84736938D01*
X156704473Y-84736938D01*
G37*
G36*
X128146442Y-83175518D02*
G01*
X128212627Y-83182037D01*
X128382466Y-83233557D01*
X128538991Y-83317222D01*
X128574729Y-83346552D01*
X128676186Y-83429814D01*
X128759448Y-83531271D01*
X128788778Y-83567009D01*
X128872443Y-83723534D01*
X128923963Y-83893373D01*
X128941359Y-84070000D01*
X128923963Y-84246627D01*
X128872443Y-84416466D01*
X128788778Y-84572991D01*
X128759448Y-84608729D01*
X128676186Y-84710186D01*
X128574729Y-84793448D01*
X128538991Y-84822778D01*
X128382466Y-84906443D01*
X128212627Y-84957963D01*
X128149930Y-84964138D01*
X128080260Y-84971000D01*
X127991740Y-84971000D01*
X127922070Y-84964138D01*
X127859373Y-84957963D01*
X127689534Y-84906443D01*
X127533009Y-84822778D01*
X127497271Y-84793448D01*
X127395814Y-84710186D01*
X127312552Y-84608729D01*
X127283222Y-84572991D01*
X127199557Y-84416466D01*
X127148037Y-84246627D01*
X127130641Y-84070000D01*
X127148037Y-83893373D01*
X127199557Y-83723534D01*
X127283222Y-83567009D01*
X127312552Y-83531271D01*
X127395814Y-83429814D01*
X127497271Y-83346552D01*
X127533009Y-83317222D01*
X127689534Y-83233557D01*
X127859373Y-83182037D01*
X127925558Y-83175518D01*
X127991740Y-83169000D01*
X128080260Y-83169000D01*
X128146442Y-83175518D01*
X128146442Y-83175518D01*
G37*
G36*
X149679610Y-83783065D02*
G01*
X149718280Y-83794796D01*
X149753919Y-83813846D01*
X149785159Y-83839483D01*
X149810796Y-83870723D01*
X149829846Y-83906362D01*
X149841577Y-83945032D01*
X149846142Y-83991388D01*
X149846142Y-84642612D01*
X149841577Y-84688968D01*
X149829846Y-84727638D01*
X149810796Y-84763277D01*
X149785159Y-84794517D01*
X149753919Y-84820154D01*
X149718280Y-84839204D01*
X149679610Y-84850935D01*
X149633254Y-84855500D01*
X148557030Y-84855500D01*
X148510674Y-84850935D01*
X148472004Y-84839204D01*
X148436365Y-84820154D01*
X148405125Y-84794517D01*
X148379488Y-84763277D01*
X148360438Y-84727638D01*
X148348707Y-84688968D01*
X148344142Y-84642612D01*
X148344142Y-83991388D01*
X148348707Y-83945032D01*
X148360438Y-83906362D01*
X148379488Y-83870723D01*
X148405125Y-83839483D01*
X148436365Y-83813846D01*
X148472004Y-83794796D01*
X148510674Y-83783065D01*
X148557030Y-83778500D01*
X149633254Y-83778500D01*
X149679610Y-83783065D01*
X149679610Y-83783065D01*
G37*
G36*
X147660253Y-83783065D02*
G01*
X147698923Y-83794796D01*
X147734562Y-83813846D01*
X147765802Y-83839483D01*
X147791439Y-83870723D01*
X147810489Y-83906362D01*
X147822220Y-83945032D01*
X147826785Y-83991388D01*
X147826785Y-84642612D01*
X147822220Y-84688968D01*
X147810489Y-84727638D01*
X147791439Y-84763277D01*
X147765802Y-84794517D01*
X147734562Y-84820154D01*
X147698923Y-84839204D01*
X147660253Y-84850935D01*
X147613897Y-84855500D01*
X146537673Y-84855500D01*
X146491317Y-84850935D01*
X146452647Y-84839204D01*
X146417008Y-84820154D01*
X146385768Y-84794517D01*
X146360131Y-84763277D01*
X146341081Y-84727638D01*
X146329350Y-84688968D01*
X146324785Y-84642612D01*
X146324785Y-83991388D01*
X146329350Y-83945032D01*
X146341081Y-83906362D01*
X146360131Y-83870723D01*
X146385768Y-83839483D01*
X146417008Y-83813846D01*
X146452647Y-83794796D01*
X146491317Y-83783065D01*
X146537673Y-83778500D01*
X147613897Y-83778500D01*
X147660253Y-83783065D01*
X147660253Y-83783065D01*
G37*
G36*
X166070442Y-81365518D02*
G01*
X166136627Y-81372037D01*
X166306466Y-81423557D01*
X166462991Y-81507222D01*
X166490746Y-81530000D01*
X166600186Y-81619814D01*
X166683448Y-81721271D01*
X166712778Y-81757009D01*
X166796443Y-81913534D01*
X166847963Y-82083373D01*
X166865359Y-82260000D01*
X166847963Y-82436627D01*
X166796443Y-82606466D01*
X166712778Y-82762991D01*
X166687101Y-82794278D01*
X166600186Y-82900186D01*
X166498729Y-82983448D01*
X166462991Y-83012778D01*
X166306466Y-83096443D01*
X166136627Y-83147963D01*
X166070443Y-83154481D01*
X166004260Y-83161000D01*
X165915740Y-83161000D01*
X165849557Y-83154481D01*
X165783373Y-83147963D01*
X165613534Y-83096443D01*
X165457009Y-83012778D01*
X165421271Y-82983448D01*
X165319814Y-82900186D01*
X165232899Y-82794278D01*
X165207222Y-82762991D01*
X165123557Y-82606466D01*
X165072037Y-82436627D01*
X165054641Y-82260000D01*
X165072037Y-82083373D01*
X165123557Y-81913534D01*
X165207222Y-81757009D01*
X165236552Y-81721271D01*
X165319814Y-81619814D01*
X165429254Y-81530000D01*
X165457009Y-81507222D01*
X165613534Y-81423557D01*
X165783373Y-81372037D01*
X165849558Y-81365518D01*
X165915740Y-81359000D01*
X166004260Y-81359000D01*
X166070442Y-81365518D01*
X166070442Y-81365518D01*
G37*
G36*
X163530442Y-81365518D02*
G01*
X163596627Y-81372037D01*
X163766466Y-81423557D01*
X163922991Y-81507222D01*
X163950746Y-81530000D01*
X164060186Y-81619814D01*
X164143448Y-81721271D01*
X164172778Y-81757009D01*
X164256443Y-81913534D01*
X164307963Y-82083373D01*
X164325359Y-82260000D01*
X164307963Y-82436627D01*
X164256443Y-82606466D01*
X164172778Y-82762991D01*
X164147101Y-82794278D01*
X164060186Y-82900186D01*
X163958729Y-82983448D01*
X163922991Y-83012778D01*
X163766466Y-83096443D01*
X163596627Y-83147963D01*
X163530443Y-83154481D01*
X163464260Y-83161000D01*
X163375740Y-83161000D01*
X163309557Y-83154481D01*
X163243373Y-83147963D01*
X163073534Y-83096443D01*
X162917009Y-83012778D01*
X162881271Y-82983448D01*
X162779814Y-82900186D01*
X162692899Y-82794278D01*
X162667222Y-82762991D01*
X162583557Y-82606466D01*
X162532037Y-82436627D01*
X162514641Y-82260000D01*
X162532037Y-82083373D01*
X162583557Y-81913534D01*
X162667222Y-81757009D01*
X162696552Y-81721271D01*
X162779814Y-81619814D01*
X162889254Y-81530000D01*
X162917009Y-81507222D01*
X163073534Y-81423557D01*
X163243373Y-81372037D01*
X163309558Y-81365518D01*
X163375740Y-81359000D01*
X163464260Y-81359000D01*
X163530442Y-81365518D01*
X163530442Y-81365518D01*
G37*
G36*
X161251968Y-81513565D02*
G01*
X161290638Y-81525296D01*
X161326277Y-81544346D01*
X161357517Y-81569983D01*
X161383154Y-81601223D01*
X161402204Y-81636862D01*
X161413935Y-81675532D01*
X161418500Y-81721888D01*
X161418500Y-82798112D01*
X161413935Y-82844468D01*
X161402204Y-82883138D01*
X161383154Y-82918777D01*
X161357517Y-82950017D01*
X161326277Y-82975654D01*
X161290638Y-82994704D01*
X161251968Y-83006435D01*
X161205612Y-83011000D01*
X160554388Y-83011000D01*
X160508032Y-83006435D01*
X160469362Y-82994704D01*
X160433723Y-82975654D01*
X160402483Y-82950017D01*
X160376846Y-82918777D01*
X160357796Y-82883138D01*
X160346065Y-82844468D01*
X160341500Y-82798112D01*
X160341500Y-81721888D01*
X160346065Y-81675532D01*
X160357796Y-81636862D01*
X160376846Y-81601223D01*
X160402483Y-81569983D01*
X160433723Y-81544346D01*
X160469362Y-81525296D01*
X160508032Y-81513565D01*
X160554388Y-81509000D01*
X161205612Y-81509000D01*
X161251968Y-81513565D01*
X161251968Y-81513565D01*
G37*
G36*
X159376968Y-81513565D02*
G01*
X159415638Y-81525296D01*
X159451277Y-81544346D01*
X159482517Y-81569983D01*
X159508154Y-81601223D01*
X159527204Y-81636862D01*
X159538935Y-81675532D01*
X159543500Y-81721888D01*
X159543500Y-82798112D01*
X159538935Y-82844468D01*
X159527204Y-82883138D01*
X159508154Y-82918777D01*
X159482517Y-82950017D01*
X159451277Y-82975654D01*
X159415638Y-82994704D01*
X159376968Y-83006435D01*
X159330612Y-83011000D01*
X158679388Y-83011000D01*
X158633032Y-83006435D01*
X158594362Y-82994704D01*
X158558723Y-82975654D01*
X158527483Y-82950017D01*
X158501846Y-82918777D01*
X158482796Y-82883138D01*
X158471065Y-82844468D01*
X158466500Y-82798112D01*
X158466500Y-81721888D01*
X158471065Y-81675532D01*
X158482796Y-81636862D01*
X158501846Y-81601223D01*
X158527483Y-81569983D01*
X158558723Y-81544346D01*
X158594362Y-81525296D01*
X158633032Y-81513565D01*
X158679388Y-81509000D01*
X159330612Y-81509000D01*
X159376968Y-81513565D01*
X159376968Y-81513565D01*
G37*
G36*
X128130700Y-80633968D02*
G01*
X128212627Y-80642037D01*
X128382466Y-80693557D01*
X128538991Y-80777222D01*
X128574729Y-80806552D01*
X128676186Y-80889814D01*
X128759448Y-80991271D01*
X128788778Y-81027009D01*
X128872443Y-81183534D01*
X128923963Y-81353373D01*
X128941359Y-81530000D01*
X128923963Y-81706627D01*
X128872443Y-81876466D01*
X128788778Y-82032991D01*
X128759448Y-82068729D01*
X128676186Y-82170186D01*
X128574729Y-82253448D01*
X128538991Y-82282778D01*
X128382466Y-82366443D01*
X128212627Y-82417963D01*
X128146443Y-82424481D01*
X128080260Y-82431000D01*
X127991740Y-82431000D01*
X127925557Y-82424481D01*
X127859373Y-82417963D01*
X127689534Y-82366443D01*
X127533009Y-82282778D01*
X127497271Y-82253448D01*
X127395814Y-82170186D01*
X127312552Y-82068729D01*
X127283222Y-82032991D01*
X127199557Y-81876466D01*
X127148037Y-81706627D01*
X127130641Y-81530000D01*
X127148037Y-81353373D01*
X127199557Y-81183534D01*
X127283222Y-81027009D01*
X127312552Y-80991271D01*
X127395814Y-80889814D01*
X127497271Y-80806552D01*
X127533009Y-80777222D01*
X127689534Y-80693557D01*
X127859373Y-80642037D01*
X127941300Y-80633968D01*
X127991740Y-80629000D01*
X128080260Y-80629000D01*
X128130700Y-80633968D01*
X128130700Y-80633968D01*
G37*
G36*
X137465144Y-79861234D02*
G01*
X137481049Y-79866059D01*
X137495708Y-79873895D01*
X137508559Y-79884441D01*
X137519105Y-79897292D01*
X137526941Y-79911951D01*
X137531766Y-79927856D01*
X137534000Y-79950541D01*
X137534000Y-80569459D01*
X137531766Y-80592144D01*
X137526941Y-80608049D01*
X137519105Y-80622708D01*
X137508559Y-80635559D01*
X137495708Y-80646105D01*
X137481049Y-80653941D01*
X137465144Y-80658766D01*
X137442459Y-80661000D01*
X135023541Y-80661000D01*
X135000856Y-80658766D01*
X134984951Y-80653941D01*
X134970292Y-80646105D01*
X134957441Y-80635559D01*
X134946895Y-80622708D01*
X134939059Y-80608049D01*
X134934234Y-80592144D01*
X134932000Y-80569459D01*
X134932000Y-79950541D01*
X134934234Y-79927856D01*
X134939059Y-79911951D01*
X134946895Y-79897292D01*
X134957441Y-79884441D01*
X134970292Y-79873895D01*
X134984951Y-79866059D01*
X135000856Y-79861234D01*
X135023541Y-79859000D01*
X137442459Y-79859000D01*
X137465144Y-79861234D01*
X137465144Y-79861234D01*
G37*
G36*
X142365144Y-79861234D02*
G01*
X142381049Y-79866059D01*
X142395708Y-79873895D01*
X142408559Y-79884441D01*
X142419105Y-79897292D01*
X142426941Y-79911951D01*
X142431766Y-79927856D01*
X142434000Y-79950541D01*
X142434000Y-80569459D01*
X142431766Y-80592144D01*
X142426941Y-80608049D01*
X142419105Y-80622708D01*
X142408559Y-80635559D01*
X142395708Y-80646105D01*
X142381049Y-80653941D01*
X142365144Y-80658766D01*
X142342459Y-80661000D01*
X139923541Y-80661000D01*
X139900856Y-80658766D01*
X139884951Y-80653941D01*
X139870292Y-80646105D01*
X139857441Y-80635559D01*
X139846895Y-80622708D01*
X139839059Y-80608049D01*
X139834234Y-80592144D01*
X139832000Y-80569459D01*
X139832000Y-79950541D01*
X139834234Y-79927856D01*
X139839059Y-79911951D01*
X139846895Y-79897292D01*
X139857441Y-79884441D01*
X139870292Y-79873895D01*
X139884951Y-79866059D01*
X139900856Y-79861234D01*
X139923541Y-79859000D01*
X142342459Y-79859000D01*
X142365144Y-79861234D01*
X142365144Y-79861234D01*
G37*
G36*
X166070443Y-78825519D02*
G01*
X166136627Y-78832037D01*
X166306466Y-78883557D01*
X166462991Y-78967222D01*
X166490746Y-78990000D01*
X166600186Y-79079814D01*
X166683448Y-79181271D01*
X166712778Y-79217009D01*
X166796443Y-79373534D01*
X166847963Y-79543373D01*
X166865359Y-79720000D01*
X166847963Y-79896627D01*
X166796443Y-80066466D01*
X166712778Y-80222991D01*
X166688058Y-80253112D01*
X166600186Y-80360186D01*
X166498729Y-80443448D01*
X166462991Y-80472778D01*
X166306466Y-80556443D01*
X166136627Y-80607963D01*
X166075128Y-80614020D01*
X166004260Y-80621000D01*
X165915740Y-80621000D01*
X165844872Y-80614020D01*
X165783373Y-80607963D01*
X165613534Y-80556443D01*
X165457009Y-80472778D01*
X165421271Y-80443448D01*
X165319814Y-80360186D01*
X165231942Y-80253112D01*
X165207222Y-80222991D01*
X165123557Y-80066466D01*
X165072037Y-79896627D01*
X165054641Y-79720000D01*
X165072037Y-79543373D01*
X165123557Y-79373534D01*
X165207222Y-79217009D01*
X165236552Y-79181271D01*
X165319814Y-79079814D01*
X165429254Y-78990000D01*
X165457009Y-78967222D01*
X165613534Y-78883557D01*
X165783373Y-78832037D01*
X165849557Y-78825519D01*
X165915740Y-78819000D01*
X166004260Y-78819000D01*
X166070443Y-78825519D01*
X166070443Y-78825519D01*
G37*
G36*
X164321000Y-80621000D02*
G01*
X162519000Y-80621000D01*
X162519000Y-78819000D01*
X164321000Y-78819000D01*
X164321000Y-80621000D01*
X164321000Y-80621000D01*
G37*
G36*
X161251968Y-78973565D02*
G01*
X161290638Y-78985296D01*
X161326277Y-79004346D01*
X161357517Y-79029983D01*
X161383154Y-79061223D01*
X161402204Y-79096862D01*
X161413935Y-79135532D01*
X161418500Y-79181888D01*
X161418500Y-80258112D01*
X161413935Y-80304468D01*
X161402204Y-80343138D01*
X161383154Y-80378777D01*
X161357517Y-80410017D01*
X161326277Y-80435654D01*
X161290638Y-80454704D01*
X161251968Y-80466435D01*
X161205612Y-80471000D01*
X160554388Y-80471000D01*
X160508032Y-80466435D01*
X160469362Y-80454704D01*
X160433723Y-80435654D01*
X160402483Y-80410017D01*
X160376846Y-80378777D01*
X160357796Y-80343138D01*
X160346065Y-80304468D01*
X160341500Y-80258112D01*
X160341500Y-79181888D01*
X160346065Y-79135532D01*
X160357796Y-79096862D01*
X160376846Y-79061223D01*
X160402483Y-79029983D01*
X160433723Y-79004346D01*
X160469362Y-78985296D01*
X160508032Y-78973565D01*
X160554388Y-78969000D01*
X161205612Y-78969000D01*
X161251968Y-78973565D01*
X161251968Y-78973565D01*
G37*
G36*
X159376968Y-78973565D02*
G01*
X159415638Y-78985296D01*
X159451277Y-79004346D01*
X159482517Y-79029983D01*
X159508154Y-79061223D01*
X159527204Y-79096862D01*
X159538935Y-79135532D01*
X159543500Y-79181888D01*
X159543500Y-80258112D01*
X159538935Y-80304468D01*
X159527204Y-80343138D01*
X159508154Y-80378777D01*
X159482517Y-80410017D01*
X159451277Y-80435654D01*
X159415638Y-80454704D01*
X159376968Y-80466435D01*
X159330612Y-80471000D01*
X158679388Y-80471000D01*
X158633032Y-80466435D01*
X158594362Y-80454704D01*
X158558723Y-80435654D01*
X158527483Y-80410017D01*
X158501846Y-80378777D01*
X158482796Y-80343138D01*
X158471065Y-80304468D01*
X158466500Y-80258112D01*
X158466500Y-79181888D01*
X158471065Y-79135532D01*
X158482796Y-79096862D01*
X158501846Y-79061223D01*
X158527483Y-79029983D01*
X158558723Y-79004346D01*
X158594362Y-78985296D01*
X158633032Y-78973565D01*
X158679388Y-78969000D01*
X159330612Y-78969000D01*
X159376968Y-78973565D01*
X159376968Y-78973565D01*
G37*
G36*
X133292468Y-79393565D02*
G01*
X133331138Y-79405296D01*
X133366777Y-79424346D01*
X133398017Y-79449983D01*
X133423654Y-79481223D01*
X133442704Y-79516862D01*
X133454435Y-79555532D01*
X133459000Y-79601888D01*
X133459000Y-80253112D01*
X133454435Y-80299468D01*
X133442704Y-80338138D01*
X133423654Y-80373777D01*
X133398017Y-80405017D01*
X133366777Y-80430654D01*
X133331138Y-80449704D01*
X133292468Y-80461435D01*
X133246112Y-80466000D01*
X132169888Y-80466000D01*
X132123532Y-80461435D01*
X132084862Y-80449704D01*
X132049223Y-80430654D01*
X132017983Y-80405017D01*
X131992346Y-80373777D01*
X131973296Y-80338138D01*
X131961565Y-80299468D01*
X131957000Y-80253112D01*
X131957000Y-79601888D01*
X131961565Y-79555532D01*
X131973296Y-79516862D01*
X131992346Y-79481223D01*
X132017983Y-79449983D01*
X132049223Y-79424346D01*
X132084862Y-79405296D01*
X132123532Y-79393565D01*
X132169888Y-79389000D01*
X133246112Y-79389000D01*
X133292468Y-79393565D01*
X133292468Y-79393565D01*
G37*
G36*
X128130700Y-78093968D02*
G01*
X128212627Y-78102037D01*
X128382466Y-78153557D01*
X128538991Y-78237222D01*
X128574729Y-78266552D01*
X128676186Y-78349814D01*
X128759448Y-78451271D01*
X128788778Y-78487009D01*
X128872443Y-78643534D01*
X128923963Y-78813373D01*
X128941359Y-78990000D01*
X128923963Y-79166627D01*
X128872443Y-79336466D01*
X128788778Y-79492991D01*
X128769187Y-79516862D01*
X128676186Y-79630186D01*
X128574729Y-79713448D01*
X128538991Y-79742778D01*
X128382466Y-79826443D01*
X128212627Y-79877963D01*
X128146854Y-79884441D01*
X128080260Y-79891000D01*
X127991740Y-79891000D01*
X127925146Y-79884441D01*
X127859373Y-79877963D01*
X127689534Y-79826443D01*
X127533009Y-79742778D01*
X127497271Y-79713448D01*
X127395814Y-79630186D01*
X127302813Y-79516862D01*
X127283222Y-79492991D01*
X127199557Y-79336466D01*
X127148037Y-79166627D01*
X127130641Y-78990000D01*
X127148037Y-78813373D01*
X127199557Y-78643534D01*
X127283222Y-78487009D01*
X127312552Y-78451271D01*
X127395814Y-78349814D01*
X127497271Y-78266552D01*
X127533009Y-78237222D01*
X127689534Y-78153557D01*
X127859373Y-78102037D01*
X127941300Y-78093968D01*
X127991740Y-78089000D01*
X128080260Y-78089000D01*
X128130700Y-78093968D01*
X128130700Y-78093968D01*
G37*
G36*
X131308468Y-78503565D02*
G01*
X131347138Y-78515296D01*
X131382777Y-78534346D01*
X131414017Y-78559983D01*
X131439654Y-78591223D01*
X131458704Y-78626862D01*
X131470435Y-78665532D01*
X131475000Y-78711888D01*
X131475000Y-79363112D01*
X131470435Y-79409468D01*
X131458704Y-79448138D01*
X131439654Y-79483777D01*
X131414017Y-79515017D01*
X131382777Y-79540654D01*
X131347138Y-79559704D01*
X131308468Y-79571435D01*
X131262112Y-79576000D01*
X130185888Y-79576000D01*
X130139532Y-79571435D01*
X130100862Y-79559704D01*
X130065223Y-79540654D01*
X130033983Y-79515017D01*
X130008346Y-79483777D01*
X129989296Y-79448138D01*
X129977565Y-79409468D01*
X129973000Y-79363112D01*
X129973000Y-78711888D01*
X129977565Y-78665532D01*
X129989296Y-78626862D01*
X130008346Y-78591223D01*
X130033983Y-78559983D01*
X130065223Y-78534346D01*
X130100862Y-78515296D01*
X130139532Y-78503565D01*
X130185888Y-78499000D01*
X131262112Y-78499000D01*
X131308468Y-78503565D01*
X131308468Y-78503565D01*
G37*
G36*
X142365144Y-78591234D02*
G01*
X142381049Y-78596059D01*
X142395708Y-78603895D01*
X142408559Y-78614441D01*
X142419105Y-78627292D01*
X142426941Y-78641951D01*
X142431766Y-78657856D01*
X142434000Y-78680541D01*
X142434000Y-79299459D01*
X142431766Y-79322144D01*
X142426941Y-79338049D01*
X142419105Y-79352708D01*
X142408559Y-79365559D01*
X142395708Y-79376105D01*
X142381049Y-79383941D01*
X142365144Y-79388766D01*
X142342459Y-79391000D01*
X139923541Y-79391000D01*
X139900856Y-79388766D01*
X139884951Y-79383941D01*
X139870292Y-79376105D01*
X139857441Y-79365559D01*
X139846895Y-79352708D01*
X139839059Y-79338049D01*
X139834234Y-79322144D01*
X139832000Y-79299459D01*
X139832000Y-78680541D01*
X139834234Y-78657856D01*
X139839059Y-78641951D01*
X139846895Y-78627292D01*
X139857441Y-78614441D01*
X139870292Y-78603895D01*
X139884951Y-78596059D01*
X139900856Y-78591234D01*
X139923541Y-78589000D01*
X142342459Y-78589000D01*
X142365144Y-78591234D01*
X142365144Y-78591234D01*
G37*
G36*
X137465144Y-78591234D02*
G01*
X137481049Y-78596059D01*
X137495708Y-78603895D01*
X137508559Y-78614441D01*
X137519105Y-78627292D01*
X137526941Y-78641951D01*
X137531766Y-78657856D01*
X137534000Y-78680541D01*
X137534000Y-79299459D01*
X137531766Y-79322144D01*
X137526941Y-79338049D01*
X137519105Y-79352708D01*
X137508559Y-79365559D01*
X137495708Y-79376105D01*
X137481049Y-79383941D01*
X137465144Y-79388766D01*
X137442459Y-79391000D01*
X135023541Y-79391000D01*
X135000856Y-79388766D01*
X134984951Y-79383941D01*
X134970292Y-79376105D01*
X134957441Y-79365559D01*
X134946895Y-79352708D01*
X134939059Y-79338049D01*
X134934234Y-79322144D01*
X134932000Y-79299459D01*
X134932000Y-78680541D01*
X134934234Y-78657856D01*
X134939059Y-78641951D01*
X134946895Y-78627292D01*
X134957441Y-78614441D01*
X134970292Y-78603895D01*
X134984951Y-78596059D01*
X135000856Y-78591234D01*
X135023541Y-78589000D01*
X137442459Y-78589000D01*
X137465144Y-78591234D01*
X137465144Y-78591234D01*
G37*
G36*
X133292468Y-77518565D02*
G01*
X133331138Y-77530296D01*
X133366777Y-77549346D01*
X133398017Y-77574983D01*
X133423654Y-77606223D01*
X133442704Y-77641862D01*
X133454435Y-77680532D01*
X133459000Y-77726888D01*
X133459000Y-78378112D01*
X133454435Y-78424468D01*
X133442704Y-78463138D01*
X133423654Y-78498777D01*
X133398017Y-78530017D01*
X133366777Y-78555654D01*
X133331138Y-78574704D01*
X133292468Y-78586435D01*
X133246112Y-78591000D01*
X132169888Y-78591000D01*
X132123532Y-78586435D01*
X132084862Y-78574704D01*
X132049223Y-78555654D01*
X132017983Y-78530017D01*
X131992346Y-78498777D01*
X131973296Y-78463138D01*
X131961565Y-78424468D01*
X131957000Y-78378112D01*
X131957000Y-77726888D01*
X131961565Y-77680532D01*
X131973296Y-77641862D01*
X131992346Y-77606223D01*
X132017983Y-77574983D01*
X132049223Y-77549346D01*
X132084862Y-77530296D01*
X132123532Y-77518565D01*
X132169888Y-77514000D01*
X133246112Y-77514000D01*
X133292468Y-77518565D01*
X133292468Y-77518565D01*
G37*
G36*
X137465144Y-77321234D02*
G01*
X137481049Y-77326059D01*
X137495708Y-77333895D01*
X137508559Y-77344441D01*
X137519105Y-77357292D01*
X137526941Y-77371951D01*
X137531766Y-77387856D01*
X137534000Y-77410541D01*
X137534000Y-78029459D01*
X137531766Y-78052144D01*
X137526941Y-78068049D01*
X137519105Y-78082708D01*
X137508559Y-78095559D01*
X137495708Y-78106105D01*
X137481049Y-78113941D01*
X137465144Y-78118766D01*
X137442459Y-78121000D01*
X135023541Y-78121000D01*
X135000856Y-78118766D01*
X134984951Y-78113941D01*
X134970292Y-78106105D01*
X134957441Y-78095559D01*
X134946895Y-78082708D01*
X134939059Y-78068049D01*
X134934234Y-78052144D01*
X134932000Y-78029459D01*
X134932000Y-77410541D01*
X134934234Y-77387856D01*
X134939059Y-77371951D01*
X134946895Y-77357292D01*
X134957441Y-77344441D01*
X134970292Y-77333895D01*
X134984951Y-77326059D01*
X135000856Y-77321234D01*
X135023541Y-77319000D01*
X137442459Y-77319000D01*
X137465144Y-77321234D01*
X137465144Y-77321234D01*
G37*
G36*
X142365144Y-77321234D02*
G01*
X142381049Y-77326059D01*
X142395708Y-77333895D01*
X142408559Y-77344441D01*
X142419105Y-77357292D01*
X142426941Y-77371951D01*
X142431766Y-77387856D01*
X142434000Y-77410541D01*
X142434000Y-78029459D01*
X142431766Y-78052144D01*
X142426941Y-78068049D01*
X142419105Y-78082708D01*
X142408559Y-78095559D01*
X142395708Y-78106105D01*
X142381049Y-78113941D01*
X142365144Y-78118766D01*
X142342459Y-78121000D01*
X139923541Y-78121000D01*
X139900856Y-78118766D01*
X139884951Y-78113941D01*
X139870292Y-78106105D01*
X139857441Y-78095559D01*
X139846895Y-78082708D01*
X139839059Y-78068049D01*
X139834234Y-78052144D01*
X139832000Y-78029459D01*
X139832000Y-77410541D01*
X139834234Y-77387856D01*
X139839059Y-77371951D01*
X139846895Y-77357292D01*
X139857441Y-77344441D01*
X139870292Y-77333895D01*
X139884951Y-77326059D01*
X139900856Y-77321234D01*
X139923541Y-77319000D01*
X142342459Y-77319000D01*
X142365144Y-77321234D01*
X142365144Y-77321234D01*
G37*
G36*
X131308468Y-76628565D02*
G01*
X131347138Y-76640296D01*
X131382777Y-76659346D01*
X131414017Y-76684983D01*
X131439654Y-76716223D01*
X131458704Y-76751862D01*
X131470435Y-76790532D01*
X131475000Y-76836888D01*
X131475000Y-77488112D01*
X131470435Y-77534468D01*
X131458704Y-77573138D01*
X131439654Y-77608777D01*
X131414017Y-77640017D01*
X131382777Y-77665654D01*
X131347138Y-77684704D01*
X131308468Y-77696435D01*
X131262112Y-77701000D01*
X130185888Y-77701000D01*
X130139532Y-77696435D01*
X130100862Y-77684704D01*
X130065223Y-77665654D01*
X130033983Y-77640017D01*
X130008346Y-77608777D01*
X129989296Y-77573138D01*
X129977565Y-77534468D01*
X129973000Y-77488112D01*
X129973000Y-76836888D01*
X129977565Y-76790532D01*
X129989296Y-76751862D01*
X130008346Y-76716223D01*
X130033983Y-76684983D01*
X130065223Y-76659346D01*
X130100862Y-76640296D01*
X130139532Y-76628565D01*
X130185888Y-76624000D01*
X131262112Y-76624000D01*
X131308468Y-76628565D01*
X131308468Y-76628565D01*
G37*
G36*
X128937000Y-77351000D02*
G01*
X127135000Y-77351000D01*
X127135000Y-75549000D01*
X128937000Y-75549000D01*
X128937000Y-77351000D01*
X128937000Y-77351000D01*
G37*
G36*
X137465144Y-76051234D02*
G01*
X137481049Y-76056059D01*
X137495708Y-76063895D01*
X137508559Y-76074441D01*
X137519105Y-76087292D01*
X137526941Y-76101951D01*
X137531766Y-76117856D01*
X137534000Y-76140541D01*
X137534000Y-76759459D01*
X137531766Y-76782144D01*
X137526941Y-76798049D01*
X137519105Y-76812708D01*
X137508559Y-76825559D01*
X137495708Y-76836105D01*
X137481049Y-76843941D01*
X137465144Y-76848766D01*
X137442459Y-76851000D01*
X135023541Y-76851000D01*
X135000856Y-76848766D01*
X134984951Y-76843941D01*
X134970292Y-76836105D01*
X134957441Y-76825559D01*
X134946895Y-76812708D01*
X134939059Y-76798049D01*
X134934234Y-76782144D01*
X134932000Y-76759459D01*
X134932000Y-76140541D01*
X134934234Y-76117856D01*
X134939059Y-76101951D01*
X134946895Y-76087292D01*
X134957441Y-76074441D01*
X134970292Y-76063895D01*
X134984951Y-76056059D01*
X135000856Y-76051234D01*
X135023541Y-76049000D01*
X137442459Y-76049000D01*
X137465144Y-76051234D01*
X137465144Y-76051234D01*
G37*
G36*
X142365144Y-76051234D02*
G01*
X142381049Y-76056059D01*
X142395708Y-76063895D01*
X142408559Y-76074441D01*
X142419105Y-76087292D01*
X142426941Y-76101951D01*
X142431766Y-76117856D01*
X142434000Y-76140541D01*
X142434000Y-76759459D01*
X142431766Y-76782144D01*
X142426941Y-76798049D01*
X142419105Y-76812708D01*
X142408559Y-76825559D01*
X142395708Y-76836105D01*
X142381049Y-76843941D01*
X142365144Y-76848766D01*
X142342459Y-76851000D01*
X139923541Y-76851000D01*
X139900856Y-76848766D01*
X139884951Y-76843941D01*
X139870292Y-76836105D01*
X139857441Y-76825559D01*
X139846895Y-76812708D01*
X139839059Y-76798049D01*
X139834234Y-76782144D01*
X139832000Y-76759459D01*
X139832000Y-76140541D01*
X139834234Y-76117856D01*
X139839059Y-76101951D01*
X139846895Y-76087292D01*
X139857441Y-76074441D01*
X139870292Y-76063895D01*
X139884951Y-76056059D01*
X139900856Y-76051234D01*
X139923541Y-76049000D01*
X142342459Y-76049000D01*
X142365144Y-76051234D01*
X142365144Y-76051234D01*
G37*
G36*
X167275880Y-70759776D02*
G01*
X167656593Y-70835504D01*
X168066249Y-71005189D01*
X168434929Y-71251534D01*
X168748466Y-71565071D01*
X168994811Y-71933751D01*
X169164496Y-72343407D01*
X169251000Y-72778296D01*
X169251000Y-73221704D01*
X169164496Y-73656593D01*
X168994811Y-74066249D01*
X168748466Y-74434929D01*
X168434929Y-74748466D01*
X168066249Y-74994811D01*
X167656593Y-75164496D01*
X167275880Y-75240224D01*
X167221705Y-75251000D01*
X166778295Y-75251000D01*
X166724120Y-75240224D01*
X166343407Y-75164496D01*
X165933751Y-74994811D01*
X165565071Y-74748466D01*
X165251534Y-74434929D01*
X165005189Y-74066249D01*
X164835504Y-73656593D01*
X164749000Y-73221704D01*
X164749000Y-72778296D01*
X164835504Y-72343407D01*
X165005189Y-71933751D01*
X165251534Y-71565071D01*
X165565071Y-71251534D01*
X165933751Y-71005189D01*
X166343407Y-70835504D01*
X166724120Y-70759776D01*
X166778295Y-70749000D01*
X167221705Y-70749000D01*
X167275880Y-70759776D01*
X167275880Y-70759776D01*
G37*
G36*
X123275880Y-70759776D02*
G01*
X123656593Y-70835504D01*
X124066249Y-71005189D01*
X124434929Y-71251534D01*
X124748466Y-71565071D01*
X124994811Y-71933751D01*
X125164496Y-72343407D01*
X125251000Y-72778296D01*
X125251000Y-73221704D01*
X125164496Y-73656593D01*
X124994811Y-74066249D01*
X124748466Y-74434929D01*
X124434929Y-74748466D01*
X124066249Y-74994811D01*
X123656593Y-75164496D01*
X123275880Y-75240224D01*
X123221705Y-75251000D01*
X122778295Y-75251000D01*
X122724120Y-75240224D01*
X122343407Y-75164496D01*
X121933751Y-74994811D01*
X121565071Y-74748466D01*
X121251534Y-74434929D01*
X121005189Y-74066249D01*
X120835504Y-73656593D01*
X120749000Y-73221704D01*
X120749000Y-72778296D01*
X120835504Y-72343407D01*
X121005189Y-71933751D01*
X121251534Y-71565071D01*
X121565071Y-71251534D01*
X121933751Y-71005189D01*
X122343407Y-70835504D01*
X122724120Y-70759776D01*
X122778295Y-70749000D01*
X123221705Y-70749000D01*
X123275880Y-70759776D01*
X123275880Y-70759776D01*
G37*
G36*
X137179968Y-73581565D02*
G01*
X137218638Y-73593296D01*
X137254277Y-73612346D01*
X137285517Y-73637983D01*
X137311154Y-73669223D01*
X137330204Y-73704862D01*
X137341935Y-73743532D01*
X137346500Y-73789888D01*
X137346500Y-74866112D01*
X137341935Y-74912468D01*
X137330204Y-74951138D01*
X137311154Y-74986777D01*
X137285517Y-75018017D01*
X137254277Y-75043654D01*
X137218638Y-75062704D01*
X137179968Y-75074435D01*
X137133612Y-75079000D01*
X136482388Y-75079000D01*
X136436032Y-75074435D01*
X136397362Y-75062704D01*
X136361723Y-75043654D01*
X136330483Y-75018017D01*
X136304846Y-74986777D01*
X136285796Y-74951138D01*
X136274065Y-74912468D01*
X136269500Y-74866112D01*
X136269500Y-73789888D01*
X136274065Y-73743532D01*
X136285796Y-73704862D01*
X136304846Y-73669223D01*
X136330483Y-73637983D01*
X136361723Y-73612346D01*
X136397362Y-73593296D01*
X136436032Y-73581565D01*
X136482388Y-73577000D01*
X137133612Y-73577000D01*
X137179968Y-73581565D01*
X137179968Y-73581565D01*
G37*
G36*
X139054968Y-73581565D02*
G01*
X139093638Y-73593296D01*
X139129277Y-73612346D01*
X139160517Y-73637983D01*
X139186154Y-73669223D01*
X139205204Y-73704862D01*
X139216935Y-73743532D01*
X139221500Y-73789888D01*
X139221500Y-74866112D01*
X139216935Y-74912468D01*
X139205204Y-74951138D01*
X139186154Y-74986777D01*
X139160517Y-75018017D01*
X139129277Y-75043654D01*
X139093638Y-75062704D01*
X139054968Y-75074435D01*
X139008612Y-75079000D01*
X138357388Y-75079000D01*
X138311032Y-75074435D01*
X138272362Y-75062704D01*
X138236723Y-75043654D01*
X138205483Y-75018017D01*
X138179846Y-74986777D01*
X138160796Y-74951138D01*
X138149065Y-74912468D01*
X138144500Y-74866112D01*
X138144500Y-73789888D01*
X138149065Y-73743532D01*
X138160796Y-73704862D01*
X138179846Y-73669223D01*
X138205483Y-73637983D01*
X138236723Y-73612346D01*
X138272362Y-73593296D01*
X138311032Y-73581565D01*
X138357388Y-73577000D01*
X139008612Y-73577000D01*
X139054968Y-73581565D01*
X139054968Y-73581565D01*
G37*
M02*
