M48
; DRILL file {KiCad (5.1.4-0-10_14)} date 2020 December 07, Monday 20:12:19
; FORMAT={-:-/ absolute / inch / decimal}
; #@! TF.CreationDate,2020-12-07T20:12:19-03:00
; #@! TF.GenerationSoftware,Kicad,Pcbnew,(5.1.4-0-10_14)
; #@! TF.FileFunction,Plated,1,4,PTH
FMAT,2
INCH
T1C0.0118
T2C0.0157
T3C0.0362
T4C0.0394
T5C0.0866
T6C0.0906
T7C0.0917
%
G90
G05
T1
X4.7669Y-4.5087
X4.9886Y-4.4955
X5.0738Y-4.2769
X5.1553Y-3.995
X5.1553Y-4.1099
X5.2247Y-3.036
X5.2247Y-3.2098
X5.4503Y-4.074
X5.5178Y-3.7087
X5.5269Y-3.7384
X5.5728Y-3.4802
X5.5756Y-3.5613
X5.6092Y-3.5613
X5.69Y-3.5613
X5.7288Y-3.572
X5.8319Y-3.5316
X5.8643Y-3.9043
X5.8768Y-3.7343
X5.8877Y-3.7788
X6.0897Y-4.211
X6.0897Y-4.2504
X6.0897Y-4.2898
X6.0897Y-4.3292
X6.1291Y-4.211
X6.1291Y-4.2504
X6.1291Y-4.2898
X6.1291Y-4.3292
X6.1505Y-3.9326
X6.1685Y-4.211
X6.1685Y-4.2504
X6.1972Y-3.8101
X6.2079Y-4.211
X6.2079Y-4.2504
X6.2231Y-3.1386
X6.2231Y-3.2386
X6.2246Y-4.4219
X6.2246Y-4.4612
X6.2246Y-4.5006
X6.2435Y-3.6171
X6.264Y-4.4219
X6.264Y-4.4612
X6.264Y-4.5006
X6.3034Y-4.4219
X6.3034Y-4.4612
X6.3034Y-4.5006
X6.3428Y-4.4219
X6.3428Y-4.4612
X6.3428Y-4.5006
X6.3822Y-4.2012
X6.3822Y-4.2406
X6.4216Y-4.1224
X6.4216Y-4.1618
X6.4216Y-4.2012
X6.4216Y-4.2406
X6.4216Y-4.2799
X6.4609Y-4.1224
X6.4609Y-4.1618
X6.4609Y-4.2012
X6.4609Y-4.2406
X6.4609Y-4.2799
X6.6504Y-4.5087
X5.6378Y-3.6693
X5.6378Y-3.7047
X5.6378Y-3.7402
X5.6378Y-3.7756
X5.6378Y-3.811
X5.6732Y-3.6693
X5.6732Y-3.7047
X5.6732Y-3.7402
X5.6732Y-3.7756
X5.6732Y-3.811
X5.7087Y-3.6693
X5.7087Y-3.7047
X5.7087Y-3.7402
X5.7087Y-3.7756
X5.7087Y-3.811
X5.7441Y-3.6693
X5.7441Y-3.7047
X5.7441Y-3.7402
X5.7441Y-3.7756
X5.7441Y-3.811
X5.7795Y-3.6693
X5.7795Y-3.7047
X5.7795Y-3.7402
X5.7795Y-3.7756
X5.7795Y-3.811
T2
X4.8309Y-3.5906
X4.8309Y-3.8897
X4.8677Y-3.7274
X4.9051Y-3.7274
X4.9374Y-4.3439
X4.9374Y-4.3832
X4.9568Y-4.2257
X4.9846Y-4.1979
X4.9866Y-4.6064
X5.024Y-4.1979
X5.0519Y-4.2257
X5.0823Y-3.6423
X5.1205Y-4.3635
X5.1205Y-4.4847
X5.1205Y-4.5803
X5.1586Y-3.8905
X5.1598Y-4.3635
X5.1598Y-4.4847
X5.1598Y-4.5803
X5.1713Y-2.908
X5.2579Y-3.3252
X5.2667Y-4.3027
X5.335Y-3.9738
X5.3453Y-2.9263
X5.3533Y-3.6042
X5.3734Y-4.0516
X5.3814Y-4.352
X5.3917Y-3.5264
X5.4193Y-3.715
X5.496Y-3.4063
X5.5008Y-2.9263
X5.5178Y-3.6412
X5.5274Y-4.0779
X5.5591Y-4.6179
X5.5722Y-4.2319
X5.5728Y-3.4063
X5.6044Y-4.0779
X5.6273Y-3.1598
X5.6496Y-3.4063
X5.6959Y-4.5437
X5.6959Y-4.5811
X5.7335Y-3.3934
X5.7481Y-3.5419
X5.7698Y-3.9253
X5.7904Y-3.2787
X5.8118Y-4.3357
X5.8582Y-4.6179
X5.8625Y-4.0001
X5.8699Y-3.2787
X5.8849Y-3.6811
X5.8921Y-3.839
X5.9268Y-3.3934
X5.9394Y-4.0001
X5.9686Y-3.5442
X5.9686Y-3.621
X5.9718Y-3.4788
X5.9902Y-4.3357
X5.998Y-3.7617
X5.998Y-3.8355
X6.0271Y-3.9632
X6.0271Y-4.037
X6.0463Y-3.5826
X6.0463Y-3.6594
X6.2461Y-2.908
X6.2461Y-3.3252
X6.5864Y-3.6587
X6.5864Y-3.8217
X6.5098Y-2.874
X6.5289Y-2.8281
X6.5289Y-2.9199
X6.5748Y-2.8091
X6.5748Y-2.939
X6.6207Y-2.8281
X6.6207Y-2.9199
X6.6398Y-2.874
X6.5098Y-4.6063
X6.5289Y-4.5604
X6.5289Y-4.6522
X6.5748Y-4.5413
X6.5748Y-4.6713
X6.6207Y-4.6522
X6.6398Y-4.6063
X4.7776Y-2.874
X4.7966Y-2.8281
X4.7966Y-2.9199
X4.8425Y-2.8091
X4.8425Y-2.939
X4.8885Y-2.8281
X4.8885Y-2.9199
X4.9075Y-2.874
X6.6207Y-4.5604
X4.7776Y-4.6063
X4.7966Y-4.5604
X4.7966Y-4.6522
X4.8425Y-4.5413
X4.8425Y-4.6713
X4.8885Y-4.5604
X4.8885Y-4.6522
X4.9075Y-4.6063
T3
X5.5709Y-4.4492
X5.6693Y-4.4492
X5.748Y-4.4492
X5.8465Y-4.4492
X4.9996Y-3.6024
X4.9996Y-3.7008
X4.9996Y-3.7795
X4.9996Y-3.878
X6.339Y-3.6909
X6.339Y-3.7894
X6.4177Y-3.6909
X6.4177Y-3.7894
T4
X6.4339Y-3.1386
X6.4339Y-3.2386
X6.5339Y-3.1386
X6.5339Y-3.2386
X6.5669Y-4.2425
X6.5669Y-4.3409
X5.0408Y-3.0098
X5.0408Y-3.1098
X5.0408Y-3.2098
X5.0408Y-3.3098
T5
X4.8425Y-2.874
X4.8425Y-4.6063
X6.5748Y-2.874
X6.5748Y-4.6063
T6
X5.4134Y-4.5559
X6.0039Y-4.5559
X4.8929Y-3.4449
X4.8929Y-4.0354
T7
X6.5244Y-3.5031
X6.5244Y-3.9772
T0
M30
