G04 #@! TF.GenerationSoftware,KiCad,Pcbnew,(5.1.4-0-10_14)*
G04 #@! TF.CreationDate,2020-12-07T20:11:59-03:00*
G04 #@! TF.ProjectId,hub_usb_sd,6875625f-7573-4625-9f73-642e6b696361,1.0*
G04 #@! TF.SameCoordinates,Original*
G04 #@! TF.FileFunction,Copper,L2,Inr*
G04 #@! TF.FilePolarity,Positive*
%FSLAX46Y46*%
G04 Gerber Fmt 4.6, Leading zero omitted, Abs format (unit mm)*
G04 Created by KiCad (PCBNEW (5.1.4-0-10_14)) date 2020-12-07 20:11:59*
%MOMM*%
%LPD*%
G04 APERTURE LIST*
%ADD10C,0.600000*%
%ADD11R,1.700000X1.700000*%
%ADD12C,1.700000*%
%ADD13C,3.500000*%
%ADD14C,3.000000*%
%ADD15R,1.600000X1.600000*%
%ADD16C,1.600000*%
%ADD17O,2.000000X1.700000*%
%ADD18C,0.100000*%
%ADD19O,1.700000X1.700000*%
%ADD20C,0.700000*%
%ADD21C,4.400000*%
%ADD22C,0.800000*%
%ADD23C,0.800000*%
%ADD24C,0.200000*%
G04 APERTURE END LIST*
D10*
X146800000Y-93200000D03*
X145900000Y-93200000D03*
X145000000Y-93200000D03*
X144100000Y-93200000D03*
X143200000Y-93200000D03*
X146800000Y-94100000D03*
X145900000Y-94100000D03*
X145000000Y-94100000D03*
X144100000Y-94100000D03*
X143200000Y-94100000D03*
X146800000Y-95000000D03*
X145900000Y-95000000D03*
X145000000Y-95000000D03*
X144100000Y-95000000D03*
X143200000Y-95000000D03*
X146800000Y-95900000D03*
X145900000Y-95900000D03*
X145000000Y-95900000D03*
X144100000Y-95900000D03*
X143200000Y-95900000D03*
X146800000Y-96800000D03*
X145900000Y-96800000D03*
X145000000Y-96800000D03*
X144100000Y-96800000D03*
X143200000Y-96800000D03*
D11*
X161010000Y-93750000D03*
D12*
X161010000Y-96250000D03*
X163010000Y-96250000D03*
X163010000Y-93750000D03*
D13*
X165720000Y-88980000D03*
X165720000Y-101020000D03*
D14*
X124280000Y-102500000D03*
X124280000Y-87500000D03*
D15*
X126990000Y-91500000D03*
D16*
X126990000Y-94000000D03*
X126990000Y-96000000D03*
X126990000Y-98500000D03*
D17*
X166800000Y-107760000D03*
D18*
G36*
X167574504Y-109411204D02*
G01*
X167598773Y-109414804D01*
X167622571Y-109420765D01*
X167645671Y-109429030D01*
X167667849Y-109439520D01*
X167688893Y-109452133D01*
X167708598Y-109466747D01*
X167726777Y-109483223D01*
X167743253Y-109501402D01*
X167757867Y-109521107D01*
X167770480Y-109542151D01*
X167780970Y-109564329D01*
X167789235Y-109587429D01*
X167795196Y-109611227D01*
X167798796Y-109635496D01*
X167800000Y-109660000D01*
X167800000Y-110860000D01*
X167798796Y-110884504D01*
X167795196Y-110908773D01*
X167789235Y-110932571D01*
X167780970Y-110955671D01*
X167770480Y-110977849D01*
X167757867Y-110998893D01*
X167743253Y-111018598D01*
X167726777Y-111036777D01*
X167708598Y-111053253D01*
X167688893Y-111067867D01*
X167667849Y-111080480D01*
X167645671Y-111090970D01*
X167622571Y-111099235D01*
X167598773Y-111105196D01*
X167574504Y-111108796D01*
X167550000Y-111110000D01*
X166050000Y-111110000D01*
X166025496Y-111108796D01*
X166001227Y-111105196D01*
X165977429Y-111099235D01*
X165954329Y-111090970D01*
X165932151Y-111080480D01*
X165911107Y-111067867D01*
X165891402Y-111053253D01*
X165873223Y-111036777D01*
X165856747Y-111018598D01*
X165842133Y-110998893D01*
X165829520Y-110977849D01*
X165819030Y-110955671D01*
X165810765Y-110932571D01*
X165804804Y-110908773D01*
X165801204Y-110884504D01*
X165800000Y-110860000D01*
X165800000Y-109660000D01*
X165801204Y-109635496D01*
X165804804Y-109611227D01*
X165810765Y-109587429D01*
X165819030Y-109564329D01*
X165829520Y-109542151D01*
X165842133Y-109521107D01*
X165856747Y-109501402D01*
X165873223Y-109483223D01*
X165891402Y-109466747D01*
X165911107Y-109452133D01*
X165932151Y-109439520D01*
X165954329Y-109429030D01*
X165977429Y-109420765D01*
X166001227Y-109414804D01*
X166025496Y-109411204D01*
X166050000Y-109410000D01*
X167550000Y-109410000D01*
X167574504Y-109411204D01*
X167574504Y-109411204D01*
G37*
D12*
X166800000Y-110260000D03*
D11*
X128036000Y-76450000D03*
D19*
X128036000Y-78990000D03*
X128036000Y-81530000D03*
X128036000Y-84070000D03*
D20*
X124166726Y-71833274D03*
X123000000Y-71350000D03*
X121833274Y-71833274D03*
X121350000Y-73000000D03*
X121833274Y-74166726D03*
X123000000Y-74650000D03*
X124166726Y-74166726D03*
X124650000Y-73000000D03*
D21*
X123000000Y-73000000D03*
X123000000Y-117000000D03*
D20*
X124650000Y-117000000D03*
X124166726Y-118166726D03*
X123000000Y-118650000D03*
X121833274Y-118166726D03*
X121350000Y-117000000D03*
X121833274Y-115833274D03*
X123000000Y-115350000D03*
X124166726Y-115833274D03*
X168166726Y-71833274D03*
X167000000Y-71350000D03*
X165833274Y-71833274D03*
X165350000Y-73000000D03*
X165833274Y-74166726D03*
X167000000Y-74650000D03*
X168166726Y-74166726D03*
X168650000Y-73000000D03*
D21*
X167000000Y-73000000D03*
D20*
X168166726Y-115833274D03*
X167000000Y-115350000D03*
X165833274Y-115833274D03*
X165350000Y-117000000D03*
X165833274Y-118166726D03*
X167000000Y-118650000D03*
X168166726Y-118166726D03*
X168650000Y-117000000D03*
D21*
X167000000Y-117000000D03*
D14*
X152500000Y-115720000D03*
X137500000Y-115720000D03*
D15*
X141500000Y-113010000D03*
D16*
X144000000Y-113010000D03*
X146000000Y-113010000D03*
X148500000Y-113010000D03*
D11*
X163420000Y-79720000D03*
D19*
X165960000Y-79720000D03*
X163420000Y-82260000D03*
X165960000Y-82260000D03*
D22*
X141549250Y-86520500D03*
X135972930Y-91547000D03*
X146553505Y-99703452D03*
X149477000Y-93500000D03*
X153577000Y-90999000D03*
X153089000Y-102540500D03*
X150861500Y-101603000D03*
X151683000Y-88361000D03*
X147075785Y-83279000D03*
X133550000Y-84460000D03*
X131350000Y-73863000D03*
X141533000Y-107489000D03*
X147620000Y-110127000D03*
X152151000Y-110127000D03*
X140395000Y-103579000D03*
X142353000Y-103579000D03*
D10*
X138438000Y-103479000D03*
D22*
X136485000Y-102911000D03*
X130059500Y-110834000D03*
X131059500Y-110834000D03*
X153577000Y-92950000D03*
D10*
X158586000Y-91874000D03*
D22*
X149095142Y-83279000D03*
X158650000Y-84460000D03*
X158650000Y-73863000D03*
X140153000Y-92486500D03*
X142934000Y-80260000D03*
X139721000Y-74328000D03*
X129090000Y-92515000D03*
X133775000Y-109289000D03*
X139598750Y-86520500D03*
X143499250Y-86520500D03*
D10*
X156222000Y-99887000D03*
D22*
X152349000Y-95547000D03*
D10*
X159106000Y-114315000D03*
X160106000Y-114315000D03*
X158106000Y-114315000D03*
X161106000Y-114315000D03*
D22*
X125410000Y-111334000D03*
X125410000Y-110334000D03*
X126659000Y-117001500D03*
D10*
X121080000Y-114520000D03*
X168920000Y-114520000D03*
D22*
X167295000Y-92931000D03*
X167295000Y-97070000D03*
X141200000Y-117295000D03*
X148799000Y-117295000D03*
X122705000Y-91201000D03*
X122705000Y-98799000D03*
D10*
X158106000Y-113315000D03*
X161106000Y-113315000D03*
X161106000Y-112315000D03*
X160106000Y-112315000D03*
X159106000Y-112315000D03*
X158106000Y-112315000D03*
X160106000Y-113315000D03*
X159106000Y-113315000D03*
D22*
X135508500Y-100935500D03*
X151602000Y-90023500D03*
X152349000Y-97422000D03*
D10*
X157409000Y-96776000D03*
X158068000Y-79720000D03*
D22*
X146001000Y-89964000D03*
X148908500Y-101603000D03*
X153089000Y-100665500D03*
X151602000Y-91974500D03*
D10*
X158068000Y-82260000D03*
D22*
X137651000Y-94361500D03*
X136949430Y-89570665D03*
X135771000Y-74328000D03*
D10*
X132708000Y-77114000D03*
X163108000Y-108710000D03*
X164108000Y-108710000D03*
X164108000Y-107710000D03*
X163108000Y-106710000D03*
X164108000Y-106710000D03*
X164108000Y-105710000D03*
X164108000Y-104710000D03*
X162108000Y-106710000D03*
X163108000Y-107710000D03*
X162108000Y-107710000D03*
X163108000Y-105710000D03*
X163108000Y-104710000D03*
D22*
X144675500Y-116360500D03*
X144675500Y-115409500D03*
X127610000Y-106626894D03*
X128317106Y-107334000D03*
X130059500Y-113912000D03*
X131027500Y-98819000D03*
X136688500Y-110540000D03*
X131059500Y-113912000D03*
D10*
X155679500Y-106960500D03*
X154679500Y-106960500D03*
X154679500Y-107960500D03*
X156679500Y-107960500D03*
X156679500Y-106960500D03*
X157679500Y-106960500D03*
X157679500Y-107960500D03*
D22*
X130059500Y-116340000D03*
X131059500Y-116340000D03*
D10*
X155679500Y-107960500D03*
X154679500Y-108960500D03*
X155679500Y-108960500D03*
X154679500Y-109960500D03*
X155679500Y-109960500D03*
X148954000Y-99169513D03*
D22*
X123639500Y-94675500D03*
X124590500Y-94675500D03*
X126610000Y-106626894D03*
X125902894Y-107334000D03*
X149659213Y-97510000D03*
X145631428Y-86192000D03*
X150539500Y-86192000D03*
D10*
X141619632Y-90457000D03*
X142474000Y-90457000D03*
X144526000Y-90457000D03*
X145511351Y-90729990D03*
X148131430Y-89702000D03*
X141549250Y-88397500D03*
X149270010Y-94850000D03*
X149548800Y-95981200D03*
X132708000Y-81530000D03*
X126710000Y-114186182D03*
X128875686Y-108634000D03*
X140383000Y-94955005D03*
X130945502Y-104392502D03*
X140153000Y-94200010D03*
X130945502Y-101474000D03*
D23*
X150539500Y-96629713D02*
X149659213Y-97510000D01*
X150539500Y-86192000D02*
X150539500Y-96629713D01*
D24*
X140383000Y-94955005D02*
X139892993Y-94955005D01*
X139892993Y-94955005D02*
X133023988Y-101824010D01*
X131641994Y-101824010D02*
X130945502Y-102520502D01*
X133023988Y-101824010D02*
X131641994Y-101824010D01*
X130945502Y-102520502D02*
X130945502Y-104392502D01*
X140153000Y-94200010D02*
X132879010Y-101474000D01*
X132879010Y-101474000D02*
X130945502Y-101474000D01*
D18*
G36*
X126019062Y-97703172D02*
G01*
X125882265Y-97907903D01*
X125788037Y-98135389D01*
X125740000Y-98376886D01*
X125740000Y-98623114D01*
X125788037Y-98864611D01*
X125882265Y-99092097D01*
X126019062Y-99296828D01*
X126193172Y-99470938D01*
X126397903Y-99607735D01*
X126625389Y-99701963D01*
X126866886Y-99750000D01*
X127113114Y-99750000D01*
X127354611Y-99701963D01*
X127582097Y-99607735D01*
X127786828Y-99470938D01*
X127960938Y-99296828D01*
X128097735Y-99092097D01*
X128191963Y-98864611D01*
X128240000Y-98623114D01*
X128240000Y-98376886D01*
X128191963Y-98135389D01*
X128097735Y-97907903D01*
X127960938Y-97703172D01*
X127907766Y-97650000D01*
X131463604Y-97650000D01*
X131950000Y-98136396D01*
X131950000Y-100924000D01*
X131456162Y-100924000D01*
X131423599Y-100891437D01*
X131300760Y-100809359D01*
X131164269Y-100752822D01*
X131019371Y-100724000D01*
X130871633Y-100724000D01*
X130726735Y-100752822D01*
X130590244Y-100809359D01*
X130467405Y-100891437D01*
X130362939Y-100995903D01*
X130280861Y-101118742D01*
X130224324Y-101255233D01*
X130195502Y-101400131D01*
X130195502Y-101547869D01*
X130224324Y-101692767D01*
X130280861Y-101829258D01*
X130362939Y-101952097D01*
X130467405Y-102056563D01*
X130564661Y-102121547D01*
X130554712Y-102129712D01*
X130485981Y-102213460D01*
X130434910Y-102309009D01*
X130403460Y-102412684D01*
X130395502Y-102493485D01*
X130395502Y-102493494D01*
X130392842Y-102520502D01*
X130395502Y-102547510D01*
X130395503Y-103881841D01*
X130362939Y-103914405D01*
X130280861Y-104037244D01*
X130224324Y-104173735D01*
X130195502Y-104318633D01*
X130195502Y-104466371D01*
X130224324Y-104611269D01*
X130280861Y-104747760D01*
X130362939Y-104870599D01*
X130467405Y-104975065D01*
X130590244Y-105057143D01*
X130726735Y-105113680D01*
X130871633Y-105142502D01*
X131019371Y-105142502D01*
X131164269Y-105113680D01*
X131300760Y-105057143D01*
X131423599Y-104975065D01*
X131528065Y-104870599D01*
X131610143Y-104747760D01*
X131666680Y-104611269D01*
X131695502Y-104466371D01*
X131695502Y-104318633D01*
X131666680Y-104173735D01*
X131610143Y-104037244D01*
X131528065Y-103914405D01*
X131495502Y-103881842D01*
X131495502Y-102748319D01*
X131869812Y-102374010D01*
X131950000Y-102374010D01*
X131950000Y-104930000D01*
X131958647Y-105017791D01*
X131984254Y-105102208D01*
X132025839Y-105180007D01*
X132081802Y-105248198D01*
X133411802Y-106578198D01*
X133479993Y-106634161D01*
X133557792Y-106675746D01*
X133642209Y-106701353D01*
X133730000Y-106710000D01*
X141192516Y-106710000D01*
X141130374Y-106735740D01*
X140991156Y-106828762D01*
X140872762Y-106947156D01*
X140779740Y-107086374D01*
X140715665Y-107241064D01*
X140683000Y-107405282D01*
X140683000Y-107572718D01*
X140715665Y-107736936D01*
X140779740Y-107891626D01*
X140872762Y-108030844D01*
X140991156Y-108149238D01*
X141130374Y-108242260D01*
X141285064Y-108306335D01*
X141449282Y-108339000D01*
X141616718Y-108339000D01*
X141780936Y-108306335D01*
X141935626Y-108242260D01*
X142074844Y-108149238D01*
X142193238Y-108030844D01*
X142286260Y-107891626D01*
X142350335Y-107736936D01*
X142383000Y-107572718D01*
X142383000Y-107405282D01*
X142350335Y-107241064D01*
X142286260Y-107086374D01*
X142193238Y-106947156D01*
X142074844Y-106828762D01*
X141935626Y-106735740D01*
X141873484Y-106710000D01*
X158796604Y-106710000D01*
X161414802Y-109328198D01*
X161482993Y-109384161D01*
X161560792Y-109425746D01*
X161645209Y-109451353D01*
X161733000Y-109460000D01*
X169525000Y-109460000D01*
X169525000Y-114075483D01*
X169502563Y-114041903D01*
X169398097Y-113937437D01*
X169275258Y-113855359D01*
X169138767Y-113798822D01*
X168993869Y-113770000D01*
X168846131Y-113770000D01*
X168701233Y-113798822D01*
X168564742Y-113855359D01*
X168441903Y-113937437D01*
X168337437Y-114041903D01*
X168255359Y-114164742D01*
X168198822Y-114301233D01*
X168170000Y-114446131D01*
X168170000Y-114593869D01*
X168174860Y-114618304D01*
X167772976Y-114451838D01*
X167261002Y-114350000D01*
X166738998Y-114350000D01*
X166227024Y-114451838D01*
X165744754Y-114651601D01*
X165310724Y-114941611D01*
X164941611Y-115310724D01*
X164651601Y-115744754D01*
X164451838Y-116227024D01*
X164350000Y-116738998D01*
X164350000Y-117261002D01*
X164451838Y-117772976D01*
X164651601Y-118255246D01*
X164941611Y-118689276D01*
X165310724Y-119058389D01*
X165744754Y-119348399D01*
X166171106Y-119525000D01*
X123828894Y-119525000D01*
X124255246Y-119348399D01*
X124689276Y-119058389D01*
X125058389Y-118689276D01*
X125348399Y-118255246D01*
X125548162Y-117772976D01*
X125650000Y-117261002D01*
X125650000Y-116917782D01*
X125809000Y-116917782D01*
X125809000Y-117085218D01*
X125841665Y-117249436D01*
X125905740Y-117404126D01*
X125998762Y-117543344D01*
X126117156Y-117661738D01*
X126256374Y-117754760D01*
X126411064Y-117818835D01*
X126575282Y-117851500D01*
X126742718Y-117851500D01*
X126906936Y-117818835D01*
X127061626Y-117754760D01*
X127200844Y-117661738D01*
X127319238Y-117543344D01*
X127412260Y-117404126D01*
X127476335Y-117249436D01*
X127509000Y-117085218D01*
X127509000Y-116917782D01*
X127476335Y-116753564D01*
X127412260Y-116598874D01*
X127319238Y-116459656D01*
X127200844Y-116341262D01*
X127061626Y-116248240D01*
X126906936Y-116184165D01*
X126742718Y-116151500D01*
X126575282Y-116151500D01*
X126411064Y-116184165D01*
X126256374Y-116248240D01*
X126117156Y-116341262D01*
X125998762Y-116459656D01*
X125905740Y-116598874D01*
X125841665Y-116753564D01*
X125809000Y-116917782D01*
X125650000Y-116917782D01*
X125650000Y-116738998D01*
X125548162Y-116227024D01*
X125348399Y-115744754D01*
X125203530Y-115527942D01*
X135550000Y-115527942D01*
X135550000Y-115912058D01*
X135624938Y-116288794D01*
X135771933Y-116643671D01*
X135985336Y-116963052D01*
X136256948Y-117234664D01*
X136576329Y-117448067D01*
X136931206Y-117595062D01*
X137307942Y-117670000D01*
X137692058Y-117670000D01*
X138068794Y-117595062D01*
X138423671Y-117448067D01*
X138743052Y-117234664D01*
X138766434Y-117211282D01*
X140350000Y-117211282D01*
X140350000Y-117378718D01*
X140382665Y-117542936D01*
X140446740Y-117697626D01*
X140539762Y-117836844D01*
X140658156Y-117955238D01*
X140797374Y-118048260D01*
X140952064Y-118112335D01*
X141116282Y-118145000D01*
X141283718Y-118145000D01*
X141447936Y-118112335D01*
X141602626Y-118048260D01*
X141741844Y-117955238D01*
X141860238Y-117836844D01*
X141953260Y-117697626D01*
X142017335Y-117542936D01*
X142050000Y-117378718D01*
X142050000Y-117211282D01*
X147949000Y-117211282D01*
X147949000Y-117378718D01*
X147981665Y-117542936D01*
X148045740Y-117697626D01*
X148138762Y-117836844D01*
X148257156Y-117955238D01*
X148396374Y-118048260D01*
X148551064Y-118112335D01*
X148715282Y-118145000D01*
X148882718Y-118145000D01*
X149046936Y-118112335D01*
X149201626Y-118048260D01*
X149340844Y-117955238D01*
X149459238Y-117836844D01*
X149552260Y-117697626D01*
X149616335Y-117542936D01*
X149649000Y-117378718D01*
X149649000Y-117211282D01*
X149616335Y-117047064D01*
X149552260Y-116892374D01*
X149459238Y-116753156D01*
X149340844Y-116634762D01*
X149201626Y-116541740D01*
X149046936Y-116477665D01*
X148882718Y-116445000D01*
X148715282Y-116445000D01*
X148551064Y-116477665D01*
X148396374Y-116541740D01*
X148257156Y-116634762D01*
X148138762Y-116753156D01*
X148045740Y-116892374D01*
X147981665Y-117047064D01*
X147949000Y-117211282D01*
X142050000Y-117211282D01*
X142017335Y-117047064D01*
X141953260Y-116892374D01*
X141860238Y-116753156D01*
X141741844Y-116634762D01*
X141602626Y-116541740D01*
X141447936Y-116477665D01*
X141283718Y-116445000D01*
X141116282Y-116445000D01*
X140952064Y-116477665D01*
X140797374Y-116541740D01*
X140658156Y-116634762D01*
X140539762Y-116753156D01*
X140446740Y-116892374D01*
X140382665Y-117047064D01*
X140350000Y-117211282D01*
X138766434Y-117211282D01*
X139014664Y-116963052D01*
X139228067Y-116643671D01*
X139375062Y-116288794D01*
X139450000Y-115912058D01*
X139450000Y-115527942D01*
X139409788Y-115325782D01*
X143825500Y-115325782D01*
X143825500Y-115493218D01*
X143858165Y-115657436D01*
X143922240Y-115812126D01*
X143970933Y-115885000D01*
X143922240Y-115957874D01*
X143858165Y-116112564D01*
X143825500Y-116276782D01*
X143825500Y-116444218D01*
X143858165Y-116608436D01*
X143922240Y-116763126D01*
X144015262Y-116902344D01*
X144133656Y-117020738D01*
X144272874Y-117113760D01*
X144427564Y-117177835D01*
X144591782Y-117210500D01*
X144759218Y-117210500D01*
X144923436Y-117177835D01*
X145078126Y-117113760D01*
X145217344Y-117020738D01*
X145335738Y-116902344D01*
X145428760Y-116763126D01*
X145492835Y-116608436D01*
X145525500Y-116444218D01*
X145525500Y-116276782D01*
X145492835Y-116112564D01*
X145428760Y-115957874D01*
X145380067Y-115885000D01*
X145428760Y-115812126D01*
X145492835Y-115657436D01*
X145518592Y-115527942D01*
X150550000Y-115527942D01*
X150550000Y-115912058D01*
X150624938Y-116288794D01*
X150771933Y-116643671D01*
X150985336Y-116963052D01*
X151256948Y-117234664D01*
X151576329Y-117448067D01*
X151931206Y-117595062D01*
X152307942Y-117670000D01*
X152692058Y-117670000D01*
X153068794Y-117595062D01*
X153423671Y-117448067D01*
X153743052Y-117234664D01*
X154014664Y-116963052D01*
X154228067Y-116643671D01*
X154375062Y-116288794D01*
X154450000Y-115912058D01*
X154450000Y-115527942D01*
X154375062Y-115151206D01*
X154228067Y-114796329D01*
X154014664Y-114476948D01*
X153743052Y-114205336D01*
X153423671Y-113991933D01*
X153068794Y-113844938D01*
X152692058Y-113770000D01*
X152307942Y-113770000D01*
X151931206Y-113844938D01*
X151576329Y-113991933D01*
X151256948Y-114205336D01*
X150985336Y-114476948D01*
X150771933Y-114796329D01*
X150624938Y-115151206D01*
X150550000Y-115527942D01*
X145518592Y-115527942D01*
X145525500Y-115493218D01*
X145525500Y-115325782D01*
X145492835Y-115161564D01*
X145428760Y-115006874D01*
X145335738Y-114867656D01*
X145217344Y-114749262D01*
X145078126Y-114656240D01*
X144923436Y-114592165D01*
X144759218Y-114559500D01*
X144591782Y-114559500D01*
X144427564Y-114592165D01*
X144272874Y-114656240D01*
X144133656Y-114749262D01*
X144015262Y-114867656D01*
X143922240Y-115006874D01*
X143858165Y-115161564D01*
X143825500Y-115325782D01*
X139409788Y-115325782D01*
X139375062Y-115151206D01*
X139228067Y-114796329D01*
X139014664Y-114476948D01*
X138743052Y-114205336D01*
X138423671Y-113991933D01*
X138068794Y-113844938D01*
X137692058Y-113770000D01*
X137307942Y-113770000D01*
X136931206Y-113844938D01*
X136576329Y-113991933D01*
X136256948Y-114205336D01*
X135985336Y-114476948D01*
X135771933Y-114796329D01*
X135624938Y-115151206D01*
X135550000Y-115527942D01*
X125203530Y-115527942D01*
X125058389Y-115310724D01*
X124689276Y-114941611D01*
X124255246Y-114651601D01*
X123772976Y-114451838D01*
X123261002Y-114350000D01*
X122738998Y-114350000D01*
X122227024Y-114451838D01*
X121825140Y-114618304D01*
X121830000Y-114593869D01*
X121830000Y-114446131D01*
X121801178Y-114301233D01*
X121744641Y-114164742D01*
X121709610Y-114112313D01*
X125960000Y-114112313D01*
X125960000Y-114260051D01*
X125988822Y-114404949D01*
X126045359Y-114541440D01*
X126127437Y-114664279D01*
X126231903Y-114768745D01*
X126354742Y-114850823D01*
X126491233Y-114907360D01*
X126636131Y-114936182D01*
X126783869Y-114936182D01*
X126928767Y-114907360D01*
X127065258Y-114850823D01*
X127188097Y-114768745D01*
X127292563Y-114664279D01*
X127374641Y-114541440D01*
X127431178Y-114404949D01*
X127460000Y-114260051D01*
X127460000Y-114112313D01*
X127431178Y-113967415D01*
X127374641Y-113830924D01*
X127292563Y-113708085D01*
X127188097Y-113603619D01*
X127065258Y-113521541D01*
X126928767Y-113465004D01*
X126783869Y-113436182D01*
X126636131Y-113436182D01*
X126491233Y-113465004D01*
X126354742Y-113521541D01*
X126231903Y-113603619D01*
X126127437Y-113708085D01*
X126045359Y-113830924D01*
X125988822Y-113967415D01*
X125960000Y-114112313D01*
X121709610Y-114112313D01*
X121662563Y-114041903D01*
X121558097Y-113937437D01*
X121435258Y-113855359D01*
X121298767Y-113798822D01*
X121153869Y-113770000D01*
X121006131Y-113770000D01*
X120861233Y-113798822D01*
X120724742Y-113855359D01*
X120601903Y-113937437D01*
X120497437Y-114041903D01*
X120475000Y-114075483D01*
X120475000Y-112210000D01*
X140247823Y-112210000D01*
X140247823Y-113810000D01*
X140256511Y-113898215D01*
X140282243Y-113983041D01*
X140324029Y-114061216D01*
X140380263Y-114129737D01*
X140448784Y-114185971D01*
X140526959Y-114227757D01*
X140611785Y-114253489D01*
X140700000Y-114262177D01*
X142300000Y-114262177D01*
X142388215Y-114253489D01*
X142473041Y-114227757D01*
X142551216Y-114185971D01*
X142619737Y-114129737D01*
X142675971Y-114061216D01*
X142717757Y-113983041D01*
X142743489Y-113898215D01*
X142752177Y-113810000D01*
X142752177Y-113144058D01*
X142798037Y-113374611D01*
X142892265Y-113602097D01*
X143029062Y-113806828D01*
X143203172Y-113980938D01*
X143407903Y-114117735D01*
X143635389Y-114211963D01*
X143876886Y-114260000D01*
X144123114Y-114260000D01*
X144364611Y-114211963D01*
X144592097Y-114117735D01*
X144796828Y-113980938D01*
X144970938Y-113806828D01*
X145000000Y-113763334D01*
X145029062Y-113806828D01*
X145203172Y-113980938D01*
X145407903Y-114117735D01*
X145635389Y-114211963D01*
X145876886Y-114260000D01*
X146123114Y-114260000D01*
X146364611Y-114211963D01*
X146592097Y-114117735D01*
X146796828Y-113980938D01*
X146970938Y-113806828D01*
X147107735Y-113602097D01*
X147201963Y-113374611D01*
X147250000Y-113133114D01*
X147298037Y-113374611D01*
X147392265Y-113602097D01*
X147529062Y-113806828D01*
X147703172Y-113980938D01*
X147907903Y-114117735D01*
X148135389Y-114211963D01*
X148376886Y-114260000D01*
X148623114Y-114260000D01*
X148864611Y-114211963D01*
X149092097Y-114117735D01*
X149296828Y-113980938D01*
X149470938Y-113806828D01*
X149607735Y-113602097D01*
X149701963Y-113374611D01*
X149750000Y-113133114D01*
X149750000Y-112886886D01*
X149701963Y-112645389D01*
X149607735Y-112417903D01*
X149489620Y-112241131D01*
X157356000Y-112241131D01*
X157356000Y-112388869D01*
X157384822Y-112533767D01*
X157441359Y-112670258D01*
X157523437Y-112793097D01*
X157545340Y-112815000D01*
X157523437Y-112836903D01*
X157441359Y-112959742D01*
X157384822Y-113096233D01*
X157356000Y-113241131D01*
X157356000Y-113388869D01*
X157384822Y-113533767D01*
X157441359Y-113670258D01*
X157523437Y-113793097D01*
X157545340Y-113815000D01*
X157523437Y-113836903D01*
X157441359Y-113959742D01*
X157384822Y-114096233D01*
X157356000Y-114241131D01*
X157356000Y-114388869D01*
X157384822Y-114533767D01*
X157441359Y-114670258D01*
X157523437Y-114793097D01*
X157627903Y-114897563D01*
X157750742Y-114979641D01*
X157887233Y-115036178D01*
X158032131Y-115065000D01*
X158179869Y-115065000D01*
X158324767Y-115036178D01*
X158461258Y-114979641D01*
X158584097Y-114897563D01*
X158606000Y-114875660D01*
X158627903Y-114897563D01*
X158750742Y-114979641D01*
X158887233Y-115036178D01*
X159032131Y-115065000D01*
X159179869Y-115065000D01*
X159324767Y-115036178D01*
X159461258Y-114979641D01*
X159584097Y-114897563D01*
X159606000Y-114875660D01*
X159627903Y-114897563D01*
X159750742Y-114979641D01*
X159887233Y-115036178D01*
X160032131Y-115065000D01*
X160179869Y-115065000D01*
X160324767Y-115036178D01*
X160461258Y-114979641D01*
X160584097Y-114897563D01*
X160606000Y-114875660D01*
X160627903Y-114897563D01*
X160750742Y-114979641D01*
X160887233Y-115036178D01*
X161032131Y-115065000D01*
X161179869Y-115065000D01*
X161324767Y-115036178D01*
X161461258Y-114979641D01*
X161584097Y-114897563D01*
X161688563Y-114793097D01*
X161770641Y-114670258D01*
X161827178Y-114533767D01*
X161856000Y-114388869D01*
X161856000Y-114241131D01*
X161827178Y-114096233D01*
X161770641Y-113959742D01*
X161688563Y-113836903D01*
X161666660Y-113815000D01*
X161688563Y-113793097D01*
X161770641Y-113670258D01*
X161827178Y-113533767D01*
X161856000Y-113388869D01*
X161856000Y-113241131D01*
X161827178Y-113096233D01*
X161770641Y-112959742D01*
X161688563Y-112836903D01*
X161666660Y-112815000D01*
X161688563Y-112793097D01*
X161770641Y-112670258D01*
X161827178Y-112533767D01*
X161856000Y-112388869D01*
X161856000Y-112241131D01*
X161827178Y-112096233D01*
X161770641Y-111959742D01*
X161688563Y-111836903D01*
X161584097Y-111732437D01*
X161461258Y-111650359D01*
X161324767Y-111593822D01*
X161179869Y-111565000D01*
X161032131Y-111565000D01*
X160887233Y-111593822D01*
X160750742Y-111650359D01*
X160627903Y-111732437D01*
X160606000Y-111754340D01*
X160584097Y-111732437D01*
X160461258Y-111650359D01*
X160324767Y-111593822D01*
X160179869Y-111565000D01*
X160032131Y-111565000D01*
X159887233Y-111593822D01*
X159750742Y-111650359D01*
X159627903Y-111732437D01*
X159606000Y-111754340D01*
X159584097Y-111732437D01*
X159461258Y-111650359D01*
X159324767Y-111593822D01*
X159179869Y-111565000D01*
X159032131Y-111565000D01*
X158887233Y-111593822D01*
X158750742Y-111650359D01*
X158627903Y-111732437D01*
X158606000Y-111754340D01*
X158584097Y-111732437D01*
X158461258Y-111650359D01*
X158324767Y-111593822D01*
X158179869Y-111565000D01*
X158032131Y-111565000D01*
X157887233Y-111593822D01*
X157750742Y-111650359D01*
X157627903Y-111732437D01*
X157523437Y-111836903D01*
X157441359Y-111959742D01*
X157384822Y-112096233D01*
X157356000Y-112241131D01*
X149489620Y-112241131D01*
X149470938Y-112213172D01*
X149296828Y-112039062D01*
X149092097Y-111902265D01*
X148864611Y-111808037D01*
X148623114Y-111760000D01*
X148376886Y-111760000D01*
X148135389Y-111808037D01*
X147907903Y-111902265D01*
X147703172Y-112039062D01*
X147529062Y-112213172D01*
X147392265Y-112417903D01*
X147298037Y-112645389D01*
X147250000Y-112886886D01*
X147201963Y-112645389D01*
X147107735Y-112417903D01*
X146970938Y-112213172D01*
X146796828Y-112039062D01*
X146592097Y-111902265D01*
X146364611Y-111808037D01*
X146123114Y-111760000D01*
X145876886Y-111760000D01*
X145635389Y-111808037D01*
X145407903Y-111902265D01*
X145203172Y-112039062D01*
X145029062Y-112213172D01*
X145000000Y-112256666D01*
X144970938Y-112213172D01*
X144796828Y-112039062D01*
X144592097Y-111902265D01*
X144364611Y-111808037D01*
X144123114Y-111760000D01*
X143876886Y-111760000D01*
X143635389Y-111808037D01*
X143407903Y-111902265D01*
X143203172Y-112039062D01*
X143029062Y-112213172D01*
X142892265Y-112417903D01*
X142798037Y-112645389D01*
X142752177Y-112875942D01*
X142752177Y-112210000D01*
X142743489Y-112121785D01*
X142717757Y-112036959D01*
X142675971Y-111958784D01*
X142619737Y-111890263D01*
X142551216Y-111834029D01*
X142473041Y-111792243D01*
X142388215Y-111766511D01*
X142300000Y-111757823D01*
X140700000Y-111757823D01*
X140611785Y-111766511D01*
X140526959Y-111792243D01*
X140448784Y-111834029D01*
X140380263Y-111890263D01*
X140324029Y-111958784D01*
X140282243Y-112036959D01*
X140256511Y-112121785D01*
X140247823Y-112210000D01*
X120475000Y-112210000D01*
X120475000Y-110250282D01*
X124560000Y-110250282D01*
X124560000Y-110417718D01*
X124592665Y-110581936D01*
X124656740Y-110736626D01*
X124721803Y-110834000D01*
X124656740Y-110931374D01*
X124592665Y-111086064D01*
X124560000Y-111250282D01*
X124560000Y-111417718D01*
X124592665Y-111581936D01*
X124656740Y-111736626D01*
X124749762Y-111875844D01*
X124868156Y-111994238D01*
X125007374Y-112087260D01*
X125162064Y-112151335D01*
X125326282Y-112184000D01*
X125493718Y-112184000D01*
X125657936Y-112151335D01*
X125812626Y-112087260D01*
X125951844Y-111994238D01*
X126070238Y-111875844D01*
X126163260Y-111736626D01*
X126227335Y-111581936D01*
X126260000Y-111417718D01*
X126260000Y-111250282D01*
X126227335Y-111086064D01*
X126163260Y-110931374D01*
X126098197Y-110834000D01*
X126154135Y-110750282D01*
X129209500Y-110750282D01*
X129209500Y-110917718D01*
X129242165Y-111081936D01*
X129306240Y-111236626D01*
X129399262Y-111375844D01*
X129517656Y-111494238D01*
X129656874Y-111587260D01*
X129811564Y-111651335D01*
X129975782Y-111684000D01*
X130143218Y-111684000D01*
X130307436Y-111651335D01*
X130462126Y-111587260D01*
X130559500Y-111522197D01*
X130656874Y-111587260D01*
X130811564Y-111651335D01*
X130975782Y-111684000D01*
X131143218Y-111684000D01*
X131307436Y-111651335D01*
X131462126Y-111587260D01*
X131601344Y-111494238D01*
X131719738Y-111375844D01*
X131812760Y-111236626D01*
X131876835Y-111081936D01*
X131909500Y-110917718D01*
X131909500Y-110750282D01*
X131876835Y-110586064D01*
X131812760Y-110431374D01*
X131719738Y-110292156D01*
X131601344Y-110173762D01*
X131462126Y-110080740D01*
X131307436Y-110016665D01*
X131143218Y-109984000D01*
X130975782Y-109984000D01*
X130811564Y-110016665D01*
X130656874Y-110080740D01*
X130559500Y-110145803D01*
X130462126Y-110080740D01*
X130307436Y-110016665D01*
X130143218Y-109984000D01*
X129975782Y-109984000D01*
X129811564Y-110016665D01*
X129656874Y-110080740D01*
X129517656Y-110173762D01*
X129399262Y-110292156D01*
X129306240Y-110431374D01*
X129242165Y-110586064D01*
X129209500Y-110750282D01*
X126154135Y-110750282D01*
X126163260Y-110736626D01*
X126227335Y-110581936D01*
X126260000Y-110417718D01*
X126260000Y-110250282D01*
X126227335Y-110086064D01*
X126163260Y-109931374D01*
X126070238Y-109792156D01*
X125951844Y-109673762D01*
X125812626Y-109580740D01*
X125657936Y-109516665D01*
X125493718Y-109484000D01*
X125326282Y-109484000D01*
X125162064Y-109516665D01*
X125007374Y-109580740D01*
X124868156Y-109673762D01*
X124749762Y-109792156D01*
X124656740Y-109931374D01*
X124592665Y-110086064D01*
X124560000Y-110250282D01*
X120475000Y-110250282D01*
X120475000Y-107250282D01*
X125052894Y-107250282D01*
X125052894Y-107417718D01*
X125085559Y-107581936D01*
X125149634Y-107736626D01*
X125242656Y-107875844D01*
X125361050Y-107994238D01*
X125500268Y-108087260D01*
X125654958Y-108151335D01*
X125819176Y-108184000D01*
X125986612Y-108184000D01*
X126150830Y-108151335D01*
X126305520Y-108087260D01*
X126444738Y-107994238D01*
X126563132Y-107875844D01*
X126656154Y-107736626D01*
X126720229Y-107581936D01*
X126743076Y-107467076D01*
X126857936Y-107444229D01*
X127012626Y-107380154D01*
X127110000Y-107315091D01*
X127207374Y-107380154D01*
X127362064Y-107444229D01*
X127476924Y-107467076D01*
X127499771Y-107581936D01*
X127563846Y-107736626D01*
X127656868Y-107875844D01*
X127775262Y-107994238D01*
X127914480Y-108087260D01*
X128069170Y-108151335D01*
X128233388Y-108184000D01*
X128274349Y-108184000D01*
X128211045Y-108278742D01*
X128154508Y-108415233D01*
X128125686Y-108560131D01*
X128125686Y-108707869D01*
X128154508Y-108852767D01*
X128211045Y-108989258D01*
X128293123Y-109112097D01*
X128397589Y-109216563D01*
X128520428Y-109298641D01*
X128656919Y-109355178D01*
X128801817Y-109384000D01*
X128949555Y-109384000D01*
X129094453Y-109355178D01*
X129230944Y-109298641D01*
X129353783Y-109216563D01*
X129365064Y-109205282D01*
X132925000Y-109205282D01*
X132925000Y-109372718D01*
X132957665Y-109536936D01*
X133021740Y-109691626D01*
X133114762Y-109830844D01*
X133233156Y-109949238D01*
X133372374Y-110042260D01*
X133527064Y-110106335D01*
X133691282Y-110139000D01*
X133858718Y-110139000D01*
X134022936Y-110106335D01*
X134175158Y-110043282D01*
X146770000Y-110043282D01*
X146770000Y-110210718D01*
X146802665Y-110374936D01*
X146866740Y-110529626D01*
X146959762Y-110668844D01*
X147078156Y-110787238D01*
X147217374Y-110880260D01*
X147372064Y-110944335D01*
X147536282Y-110977000D01*
X147703718Y-110977000D01*
X147867936Y-110944335D01*
X148022626Y-110880260D01*
X148161844Y-110787238D01*
X148280238Y-110668844D01*
X148373260Y-110529626D01*
X148437335Y-110374936D01*
X148470000Y-110210718D01*
X148470000Y-110043282D01*
X151301000Y-110043282D01*
X151301000Y-110210718D01*
X151333665Y-110374936D01*
X151397740Y-110529626D01*
X151490762Y-110668844D01*
X151609156Y-110787238D01*
X151748374Y-110880260D01*
X151903064Y-110944335D01*
X152067282Y-110977000D01*
X152234718Y-110977000D01*
X152398936Y-110944335D01*
X152553626Y-110880260D01*
X152692844Y-110787238D01*
X152811238Y-110668844D01*
X152904260Y-110529626D01*
X152968335Y-110374936D01*
X153001000Y-110210718D01*
X153001000Y-110043282D01*
X152968335Y-109879064D01*
X152904260Y-109724374D01*
X152811238Y-109585156D01*
X152692844Y-109466762D01*
X152553626Y-109373740D01*
X152398936Y-109309665D01*
X152234718Y-109277000D01*
X152067282Y-109277000D01*
X151903064Y-109309665D01*
X151748374Y-109373740D01*
X151609156Y-109466762D01*
X151490762Y-109585156D01*
X151397740Y-109724374D01*
X151333665Y-109879064D01*
X151301000Y-110043282D01*
X148470000Y-110043282D01*
X148437335Y-109879064D01*
X148373260Y-109724374D01*
X148280238Y-109585156D01*
X148161844Y-109466762D01*
X148022626Y-109373740D01*
X147867936Y-109309665D01*
X147703718Y-109277000D01*
X147536282Y-109277000D01*
X147372064Y-109309665D01*
X147217374Y-109373740D01*
X147078156Y-109466762D01*
X146959762Y-109585156D01*
X146866740Y-109724374D01*
X146802665Y-109879064D01*
X146770000Y-110043282D01*
X134175158Y-110043282D01*
X134177626Y-110042260D01*
X134316844Y-109949238D01*
X134435238Y-109830844D01*
X134528260Y-109691626D01*
X134592335Y-109536936D01*
X134625000Y-109372718D01*
X134625000Y-109205282D01*
X134592335Y-109041064D01*
X134528260Y-108886374D01*
X134435238Y-108747156D01*
X134316844Y-108628762D01*
X134177626Y-108535740D01*
X134022936Y-108471665D01*
X133858718Y-108439000D01*
X133691282Y-108439000D01*
X133527064Y-108471665D01*
X133372374Y-108535740D01*
X133233156Y-108628762D01*
X133114762Y-108747156D01*
X133021740Y-108886374D01*
X132957665Y-109041064D01*
X132925000Y-109205282D01*
X129365064Y-109205282D01*
X129458249Y-109112097D01*
X129540327Y-108989258D01*
X129596864Y-108852767D01*
X129625686Y-108707869D01*
X129625686Y-108560131D01*
X129596864Y-108415233D01*
X129540327Y-108278742D01*
X129458249Y-108155903D01*
X129353783Y-108051437D01*
X129230944Y-107969359D01*
X129094453Y-107912822D01*
X128965931Y-107887257D01*
X128977344Y-107875844D01*
X129070366Y-107736626D01*
X129134441Y-107581936D01*
X129167106Y-107417718D01*
X129167106Y-107250282D01*
X129134441Y-107086064D01*
X129070366Y-106931374D01*
X128977344Y-106792156D01*
X128858950Y-106673762D01*
X128719732Y-106580740D01*
X128565042Y-106516665D01*
X128450182Y-106493818D01*
X128427335Y-106378958D01*
X128363260Y-106224268D01*
X128270238Y-106085050D01*
X128151844Y-105966656D01*
X128012626Y-105873634D01*
X127857936Y-105809559D01*
X127693718Y-105776894D01*
X127526282Y-105776894D01*
X127362064Y-105809559D01*
X127207374Y-105873634D01*
X127110000Y-105938697D01*
X127012626Y-105873634D01*
X126857936Y-105809559D01*
X126693718Y-105776894D01*
X126526282Y-105776894D01*
X126362064Y-105809559D01*
X126207374Y-105873634D01*
X126068156Y-105966656D01*
X125949762Y-106085050D01*
X125856740Y-106224268D01*
X125792665Y-106378958D01*
X125769818Y-106493818D01*
X125654958Y-106516665D01*
X125500268Y-106580740D01*
X125361050Y-106673762D01*
X125242656Y-106792156D01*
X125149634Y-106931374D01*
X125085559Y-107086064D01*
X125052894Y-107250282D01*
X120475000Y-107250282D01*
X120475000Y-102307942D01*
X122330000Y-102307942D01*
X122330000Y-102692058D01*
X122404938Y-103068794D01*
X122551933Y-103423671D01*
X122765336Y-103743052D01*
X123036948Y-104014664D01*
X123356329Y-104228067D01*
X123711206Y-104375062D01*
X124087942Y-104450000D01*
X124472058Y-104450000D01*
X124848794Y-104375062D01*
X125203671Y-104228067D01*
X125523052Y-104014664D01*
X125794664Y-103743052D01*
X126008067Y-103423671D01*
X126155062Y-103068794D01*
X126230000Y-102692058D01*
X126230000Y-102307942D01*
X126155062Y-101931206D01*
X126008067Y-101576329D01*
X125794664Y-101256948D01*
X125523052Y-100985336D01*
X125203671Y-100771933D01*
X124848794Y-100624938D01*
X124472058Y-100550000D01*
X124087942Y-100550000D01*
X123711206Y-100624938D01*
X123356329Y-100771933D01*
X123036948Y-100985336D01*
X122765336Y-101256948D01*
X122551933Y-101576329D01*
X122404938Y-101931206D01*
X122330000Y-102307942D01*
X120475000Y-102307942D01*
X120475000Y-98715282D01*
X121855000Y-98715282D01*
X121855000Y-98882718D01*
X121887665Y-99046936D01*
X121951740Y-99201626D01*
X122044762Y-99340844D01*
X122163156Y-99459238D01*
X122302374Y-99552260D01*
X122457064Y-99616335D01*
X122621282Y-99649000D01*
X122788718Y-99649000D01*
X122952936Y-99616335D01*
X123107626Y-99552260D01*
X123246844Y-99459238D01*
X123365238Y-99340844D01*
X123458260Y-99201626D01*
X123522335Y-99046936D01*
X123555000Y-98882718D01*
X123555000Y-98715282D01*
X123522335Y-98551064D01*
X123458260Y-98396374D01*
X123365238Y-98257156D01*
X123246844Y-98138762D01*
X123107626Y-98045740D01*
X122952936Y-97981665D01*
X122788718Y-97949000D01*
X122621282Y-97949000D01*
X122457064Y-97981665D01*
X122302374Y-98045740D01*
X122163156Y-98138762D01*
X122044762Y-98257156D01*
X121951740Y-98396374D01*
X121887665Y-98551064D01*
X121855000Y-98715282D01*
X120475000Y-98715282D01*
X120475000Y-97650000D01*
X126072234Y-97650000D01*
X126019062Y-97703172D01*
X126019062Y-97703172D01*
G37*
X126019062Y-97703172D02*
X125882265Y-97907903D01*
X125788037Y-98135389D01*
X125740000Y-98376886D01*
X125740000Y-98623114D01*
X125788037Y-98864611D01*
X125882265Y-99092097D01*
X126019062Y-99296828D01*
X126193172Y-99470938D01*
X126397903Y-99607735D01*
X126625389Y-99701963D01*
X126866886Y-99750000D01*
X127113114Y-99750000D01*
X127354611Y-99701963D01*
X127582097Y-99607735D01*
X127786828Y-99470938D01*
X127960938Y-99296828D01*
X128097735Y-99092097D01*
X128191963Y-98864611D01*
X128240000Y-98623114D01*
X128240000Y-98376886D01*
X128191963Y-98135389D01*
X128097735Y-97907903D01*
X127960938Y-97703172D01*
X127907766Y-97650000D01*
X131463604Y-97650000D01*
X131950000Y-98136396D01*
X131950000Y-100924000D01*
X131456162Y-100924000D01*
X131423599Y-100891437D01*
X131300760Y-100809359D01*
X131164269Y-100752822D01*
X131019371Y-100724000D01*
X130871633Y-100724000D01*
X130726735Y-100752822D01*
X130590244Y-100809359D01*
X130467405Y-100891437D01*
X130362939Y-100995903D01*
X130280861Y-101118742D01*
X130224324Y-101255233D01*
X130195502Y-101400131D01*
X130195502Y-101547869D01*
X130224324Y-101692767D01*
X130280861Y-101829258D01*
X130362939Y-101952097D01*
X130467405Y-102056563D01*
X130564661Y-102121547D01*
X130554712Y-102129712D01*
X130485981Y-102213460D01*
X130434910Y-102309009D01*
X130403460Y-102412684D01*
X130395502Y-102493485D01*
X130395502Y-102493494D01*
X130392842Y-102520502D01*
X130395502Y-102547510D01*
X130395503Y-103881841D01*
X130362939Y-103914405D01*
X130280861Y-104037244D01*
X130224324Y-104173735D01*
X130195502Y-104318633D01*
X130195502Y-104466371D01*
X130224324Y-104611269D01*
X130280861Y-104747760D01*
X130362939Y-104870599D01*
X130467405Y-104975065D01*
X130590244Y-105057143D01*
X130726735Y-105113680D01*
X130871633Y-105142502D01*
X131019371Y-105142502D01*
X131164269Y-105113680D01*
X131300760Y-105057143D01*
X131423599Y-104975065D01*
X131528065Y-104870599D01*
X131610143Y-104747760D01*
X131666680Y-104611269D01*
X131695502Y-104466371D01*
X131695502Y-104318633D01*
X131666680Y-104173735D01*
X131610143Y-104037244D01*
X131528065Y-103914405D01*
X131495502Y-103881842D01*
X131495502Y-102748319D01*
X131869812Y-102374010D01*
X131950000Y-102374010D01*
X131950000Y-104930000D01*
X131958647Y-105017791D01*
X131984254Y-105102208D01*
X132025839Y-105180007D01*
X132081802Y-105248198D01*
X133411802Y-106578198D01*
X133479993Y-106634161D01*
X133557792Y-106675746D01*
X133642209Y-106701353D01*
X133730000Y-106710000D01*
X141192516Y-106710000D01*
X141130374Y-106735740D01*
X140991156Y-106828762D01*
X140872762Y-106947156D01*
X140779740Y-107086374D01*
X140715665Y-107241064D01*
X140683000Y-107405282D01*
X140683000Y-107572718D01*
X140715665Y-107736936D01*
X140779740Y-107891626D01*
X140872762Y-108030844D01*
X140991156Y-108149238D01*
X141130374Y-108242260D01*
X141285064Y-108306335D01*
X141449282Y-108339000D01*
X141616718Y-108339000D01*
X141780936Y-108306335D01*
X141935626Y-108242260D01*
X142074844Y-108149238D01*
X142193238Y-108030844D01*
X142286260Y-107891626D01*
X142350335Y-107736936D01*
X142383000Y-107572718D01*
X142383000Y-107405282D01*
X142350335Y-107241064D01*
X142286260Y-107086374D01*
X142193238Y-106947156D01*
X142074844Y-106828762D01*
X141935626Y-106735740D01*
X141873484Y-106710000D01*
X158796604Y-106710000D01*
X161414802Y-109328198D01*
X161482993Y-109384161D01*
X161560792Y-109425746D01*
X161645209Y-109451353D01*
X161733000Y-109460000D01*
X169525000Y-109460000D01*
X169525000Y-114075483D01*
X169502563Y-114041903D01*
X169398097Y-113937437D01*
X169275258Y-113855359D01*
X169138767Y-113798822D01*
X168993869Y-113770000D01*
X168846131Y-113770000D01*
X168701233Y-113798822D01*
X168564742Y-113855359D01*
X168441903Y-113937437D01*
X168337437Y-114041903D01*
X168255359Y-114164742D01*
X168198822Y-114301233D01*
X168170000Y-114446131D01*
X168170000Y-114593869D01*
X168174860Y-114618304D01*
X167772976Y-114451838D01*
X167261002Y-114350000D01*
X166738998Y-114350000D01*
X166227024Y-114451838D01*
X165744754Y-114651601D01*
X165310724Y-114941611D01*
X164941611Y-115310724D01*
X164651601Y-115744754D01*
X164451838Y-116227024D01*
X164350000Y-116738998D01*
X164350000Y-117261002D01*
X164451838Y-117772976D01*
X164651601Y-118255246D01*
X164941611Y-118689276D01*
X165310724Y-119058389D01*
X165744754Y-119348399D01*
X166171106Y-119525000D01*
X123828894Y-119525000D01*
X124255246Y-119348399D01*
X124689276Y-119058389D01*
X125058389Y-118689276D01*
X125348399Y-118255246D01*
X125548162Y-117772976D01*
X125650000Y-117261002D01*
X125650000Y-116917782D01*
X125809000Y-116917782D01*
X125809000Y-117085218D01*
X125841665Y-117249436D01*
X125905740Y-117404126D01*
X125998762Y-117543344D01*
X126117156Y-117661738D01*
X126256374Y-117754760D01*
X126411064Y-117818835D01*
X126575282Y-117851500D01*
X126742718Y-117851500D01*
X126906936Y-117818835D01*
X127061626Y-117754760D01*
X127200844Y-117661738D01*
X127319238Y-117543344D01*
X127412260Y-117404126D01*
X127476335Y-117249436D01*
X127509000Y-117085218D01*
X127509000Y-116917782D01*
X127476335Y-116753564D01*
X127412260Y-116598874D01*
X127319238Y-116459656D01*
X127200844Y-116341262D01*
X127061626Y-116248240D01*
X126906936Y-116184165D01*
X126742718Y-116151500D01*
X126575282Y-116151500D01*
X126411064Y-116184165D01*
X126256374Y-116248240D01*
X126117156Y-116341262D01*
X125998762Y-116459656D01*
X125905740Y-116598874D01*
X125841665Y-116753564D01*
X125809000Y-116917782D01*
X125650000Y-116917782D01*
X125650000Y-116738998D01*
X125548162Y-116227024D01*
X125348399Y-115744754D01*
X125203530Y-115527942D01*
X135550000Y-115527942D01*
X135550000Y-115912058D01*
X135624938Y-116288794D01*
X135771933Y-116643671D01*
X135985336Y-116963052D01*
X136256948Y-117234664D01*
X136576329Y-117448067D01*
X136931206Y-117595062D01*
X137307942Y-117670000D01*
X137692058Y-117670000D01*
X138068794Y-117595062D01*
X138423671Y-117448067D01*
X138743052Y-117234664D01*
X138766434Y-117211282D01*
X140350000Y-117211282D01*
X140350000Y-117378718D01*
X140382665Y-117542936D01*
X140446740Y-117697626D01*
X140539762Y-117836844D01*
X140658156Y-117955238D01*
X140797374Y-118048260D01*
X140952064Y-118112335D01*
X141116282Y-118145000D01*
X141283718Y-118145000D01*
X141447936Y-118112335D01*
X141602626Y-118048260D01*
X141741844Y-117955238D01*
X141860238Y-117836844D01*
X141953260Y-117697626D01*
X142017335Y-117542936D01*
X142050000Y-117378718D01*
X142050000Y-117211282D01*
X147949000Y-117211282D01*
X147949000Y-117378718D01*
X147981665Y-117542936D01*
X148045740Y-117697626D01*
X148138762Y-117836844D01*
X148257156Y-117955238D01*
X148396374Y-118048260D01*
X148551064Y-118112335D01*
X148715282Y-118145000D01*
X148882718Y-118145000D01*
X149046936Y-118112335D01*
X149201626Y-118048260D01*
X149340844Y-117955238D01*
X149459238Y-117836844D01*
X149552260Y-117697626D01*
X149616335Y-117542936D01*
X149649000Y-117378718D01*
X149649000Y-117211282D01*
X149616335Y-117047064D01*
X149552260Y-116892374D01*
X149459238Y-116753156D01*
X149340844Y-116634762D01*
X149201626Y-116541740D01*
X149046936Y-116477665D01*
X148882718Y-116445000D01*
X148715282Y-116445000D01*
X148551064Y-116477665D01*
X148396374Y-116541740D01*
X148257156Y-116634762D01*
X148138762Y-116753156D01*
X148045740Y-116892374D01*
X147981665Y-117047064D01*
X147949000Y-117211282D01*
X142050000Y-117211282D01*
X142017335Y-117047064D01*
X141953260Y-116892374D01*
X141860238Y-116753156D01*
X141741844Y-116634762D01*
X141602626Y-116541740D01*
X141447936Y-116477665D01*
X141283718Y-116445000D01*
X141116282Y-116445000D01*
X140952064Y-116477665D01*
X140797374Y-116541740D01*
X140658156Y-116634762D01*
X140539762Y-116753156D01*
X140446740Y-116892374D01*
X140382665Y-117047064D01*
X140350000Y-117211282D01*
X138766434Y-117211282D01*
X139014664Y-116963052D01*
X139228067Y-116643671D01*
X139375062Y-116288794D01*
X139450000Y-115912058D01*
X139450000Y-115527942D01*
X139409788Y-115325782D01*
X143825500Y-115325782D01*
X143825500Y-115493218D01*
X143858165Y-115657436D01*
X143922240Y-115812126D01*
X143970933Y-115885000D01*
X143922240Y-115957874D01*
X143858165Y-116112564D01*
X143825500Y-116276782D01*
X143825500Y-116444218D01*
X143858165Y-116608436D01*
X143922240Y-116763126D01*
X144015262Y-116902344D01*
X144133656Y-117020738D01*
X144272874Y-117113760D01*
X144427564Y-117177835D01*
X144591782Y-117210500D01*
X144759218Y-117210500D01*
X144923436Y-117177835D01*
X145078126Y-117113760D01*
X145217344Y-117020738D01*
X145335738Y-116902344D01*
X145428760Y-116763126D01*
X145492835Y-116608436D01*
X145525500Y-116444218D01*
X145525500Y-116276782D01*
X145492835Y-116112564D01*
X145428760Y-115957874D01*
X145380067Y-115885000D01*
X145428760Y-115812126D01*
X145492835Y-115657436D01*
X145518592Y-115527942D01*
X150550000Y-115527942D01*
X150550000Y-115912058D01*
X150624938Y-116288794D01*
X150771933Y-116643671D01*
X150985336Y-116963052D01*
X151256948Y-117234664D01*
X151576329Y-117448067D01*
X151931206Y-117595062D01*
X152307942Y-117670000D01*
X152692058Y-117670000D01*
X153068794Y-117595062D01*
X153423671Y-117448067D01*
X153743052Y-117234664D01*
X154014664Y-116963052D01*
X154228067Y-116643671D01*
X154375062Y-116288794D01*
X154450000Y-115912058D01*
X154450000Y-115527942D01*
X154375062Y-115151206D01*
X154228067Y-114796329D01*
X154014664Y-114476948D01*
X153743052Y-114205336D01*
X153423671Y-113991933D01*
X153068794Y-113844938D01*
X152692058Y-113770000D01*
X152307942Y-113770000D01*
X151931206Y-113844938D01*
X151576329Y-113991933D01*
X151256948Y-114205336D01*
X150985336Y-114476948D01*
X150771933Y-114796329D01*
X150624938Y-115151206D01*
X150550000Y-115527942D01*
X145518592Y-115527942D01*
X145525500Y-115493218D01*
X145525500Y-115325782D01*
X145492835Y-115161564D01*
X145428760Y-115006874D01*
X145335738Y-114867656D01*
X145217344Y-114749262D01*
X145078126Y-114656240D01*
X144923436Y-114592165D01*
X144759218Y-114559500D01*
X144591782Y-114559500D01*
X144427564Y-114592165D01*
X144272874Y-114656240D01*
X144133656Y-114749262D01*
X144015262Y-114867656D01*
X143922240Y-115006874D01*
X143858165Y-115161564D01*
X143825500Y-115325782D01*
X139409788Y-115325782D01*
X139375062Y-115151206D01*
X139228067Y-114796329D01*
X139014664Y-114476948D01*
X138743052Y-114205336D01*
X138423671Y-113991933D01*
X138068794Y-113844938D01*
X137692058Y-113770000D01*
X137307942Y-113770000D01*
X136931206Y-113844938D01*
X136576329Y-113991933D01*
X136256948Y-114205336D01*
X135985336Y-114476948D01*
X135771933Y-114796329D01*
X135624938Y-115151206D01*
X135550000Y-115527942D01*
X125203530Y-115527942D01*
X125058389Y-115310724D01*
X124689276Y-114941611D01*
X124255246Y-114651601D01*
X123772976Y-114451838D01*
X123261002Y-114350000D01*
X122738998Y-114350000D01*
X122227024Y-114451838D01*
X121825140Y-114618304D01*
X121830000Y-114593869D01*
X121830000Y-114446131D01*
X121801178Y-114301233D01*
X121744641Y-114164742D01*
X121709610Y-114112313D01*
X125960000Y-114112313D01*
X125960000Y-114260051D01*
X125988822Y-114404949D01*
X126045359Y-114541440D01*
X126127437Y-114664279D01*
X126231903Y-114768745D01*
X126354742Y-114850823D01*
X126491233Y-114907360D01*
X126636131Y-114936182D01*
X126783869Y-114936182D01*
X126928767Y-114907360D01*
X127065258Y-114850823D01*
X127188097Y-114768745D01*
X127292563Y-114664279D01*
X127374641Y-114541440D01*
X127431178Y-114404949D01*
X127460000Y-114260051D01*
X127460000Y-114112313D01*
X127431178Y-113967415D01*
X127374641Y-113830924D01*
X127292563Y-113708085D01*
X127188097Y-113603619D01*
X127065258Y-113521541D01*
X126928767Y-113465004D01*
X126783869Y-113436182D01*
X126636131Y-113436182D01*
X126491233Y-113465004D01*
X126354742Y-113521541D01*
X126231903Y-113603619D01*
X126127437Y-113708085D01*
X126045359Y-113830924D01*
X125988822Y-113967415D01*
X125960000Y-114112313D01*
X121709610Y-114112313D01*
X121662563Y-114041903D01*
X121558097Y-113937437D01*
X121435258Y-113855359D01*
X121298767Y-113798822D01*
X121153869Y-113770000D01*
X121006131Y-113770000D01*
X120861233Y-113798822D01*
X120724742Y-113855359D01*
X120601903Y-113937437D01*
X120497437Y-114041903D01*
X120475000Y-114075483D01*
X120475000Y-112210000D01*
X140247823Y-112210000D01*
X140247823Y-113810000D01*
X140256511Y-113898215D01*
X140282243Y-113983041D01*
X140324029Y-114061216D01*
X140380263Y-114129737D01*
X140448784Y-114185971D01*
X140526959Y-114227757D01*
X140611785Y-114253489D01*
X140700000Y-114262177D01*
X142300000Y-114262177D01*
X142388215Y-114253489D01*
X142473041Y-114227757D01*
X142551216Y-114185971D01*
X142619737Y-114129737D01*
X142675971Y-114061216D01*
X142717757Y-113983041D01*
X142743489Y-113898215D01*
X142752177Y-113810000D01*
X142752177Y-113144058D01*
X142798037Y-113374611D01*
X142892265Y-113602097D01*
X143029062Y-113806828D01*
X143203172Y-113980938D01*
X143407903Y-114117735D01*
X143635389Y-114211963D01*
X143876886Y-114260000D01*
X144123114Y-114260000D01*
X144364611Y-114211963D01*
X144592097Y-114117735D01*
X144796828Y-113980938D01*
X144970938Y-113806828D01*
X145000000Y-113763334D01*
X145029062Y-113806828D01*
X145203172Y-113980938D01*
X145407903Y-114117735D01*
X145635389Y-114211963D01*
X145876886Y-114260000D01*
X146123114Y-114260000D01*
X146364611Y-114211963D01*
X146592097Y-114117735D01*
X146796828Y-113980938D01*
X146970938Y-113806828D01*
X147107735Y-113602097D01*
X147201963Y-113374611D01*
X147250000Y-113133114D01*
X147298037Y-113374611D01*
X147392265Y-113602097D01*
X147529062Y-113806828D01*
X147703172Y-113980938D01*
X147907903Y-114117735D01*
X148135389Y-114211963D01*
X148376886Y-114260000D01*
X148623114Y-114260000D01*
X148864611Y-114211963D01*
X149092097Y-114117735D01*
X149296828Y-113980938D01*
X149470938Y-113806828D01*
X149607735Y-113602097D01*
X149701963Y-113374611D01*
X149750000Y-113133114D01*
X149750000Y-112886886D01*
X149701963Y-112645389D01*
X149607735Y-112417903D01*
X149489620Y-112241131D01*
X157356000Y-112241131D01*
X157356000Y-112388869D01*
X157384822Y-112533767D01*
X157441359Y-112670258D01*
X157523437Y-112793097D01*
X157545340Y-112815000D01*
X157523437Y-112836903D01*
X157441359Y-112959742D01*
X157384822Y-113096233D01*
X157356000Y-113241131D01*
X157356000Y-113388869D01*
X157384822Y-113533767D01*
X157441359Y-113670258D01*
X157523437Y-113793097D01*
X157545340Y-113815000D01*
X157523437Y-113836903D01*
X157441359Y-113959742D01*
X157384822Y-114096233D01*
X157356000Y-114241131D01*
X157356000Y-114388869D01*
X157384822Y-114533767D01*
X157441359Y-114670258D01*
X157523437Y-114793097D01*
X157627903Y-114897563D01*
X157750742Y-114979641D01*
X157887233Y-115036178D01*
X158032131Y-115065000D01*
X158179869Y-115065000D01*
X158324767Y-115036178D01*
X158461258Y-114979641D01*
X158584097Y-114897563D01*
X158606000Y-114875660D01*
X158627903Y-114897563D01*
X158750742Y-114979641D01*
X158887233Y-115036178D01*
X159032131Y-115065000D01*
X159179869Y-115065000D01*
X159324767Y-115036178D01*
X159461258Y-114979641D01*
X159584097Y-114897563D01*
X159606000Y-114875660D01*
X159627903Y-114897563D01*
X159750742Y-114979641D01*
X159887233Y-115036178D01*
X160032131Y-115065000D01*
X160179869Y-115065000D01*
X160324767Y-115036178D01*
X160461258Y-114979641D01*
X160584097Y-114897563D01*
X160606000Y-114875660D01*
X160627903Y-114897563D01*
X160750742Y-114979641D01*
X160887233Y-115036178D01*
X161032131Y-115065000D01*
X161179869Y-115065000D01*
X161324767Y-115036178D01*
X161461258Y-114979641D01*
X161584097Y-114897563D01*
X161688563Y-114793097D01*
X161770641Y-114670258D01*
X161827178Y-114533767D01*
X161856000Y-114388869D01*
X161856000Y-114241131D01*
X161827178Y-114096233D01*
X161770641Y-113959742D01*
X161688563Y-113836903D01*
X161666660Y-113815000D01*
X161688563Y-113793097D01*
X161770641Y-113670258D01*
X161827178Y-113533767D01*
X161856000Y-113388869D01*
X161856000Y-113241131D01*
X161827178Y-113096233D01*
X161770641Y-112959742D01*
X161688563Y-112836903D01*
X161666660Y-112815000D01*
X161688563Y-112793097D01*
X161770641Y-112670258D01*
X161827178Y-112533767D01*
X161856000Y-112388869D01*
X161856000Y-112241131D01*
X161827178Y-112096233D01*
X161770641Y-111959742D01*
X161688563Y-111836903D01*
X161584097Y-111732437D01*
X161461258Y-111650359D01*
X161324767Y-111593822D01*
X161179869Y-111565000D01*
X161032131Y-111565000D01*
X160887233Y-111593822D01*
X160750742Y-111650359D01*
X160627903Y-111732437D01*
X160606000Y-111754340D01*
X160584097Y-111732437D01*
X160461258Y-111650359D01*
X160324767Y-111593822D01*
X160179869Y-111565000D01*
X160032131Y-111565000D01*
X159887233Y-111593822D01*
X159750742Y-111650359D01*
X159627903Y-111732437D01*
X159606000Y-111754340D01*
X159584097Y-111732437D01*
X159461258Y-111650359D01*
X159324767Y-111593822D01*
X159179869Y-111565000D01*
X159032131Y-111565000D01*
X158887233Y-111593822D01*
X158750742Y-111650359D01*
X158627903Y-111732437D01*
X158606000Y-111754340D01*
X158584097Y-111732437D01*
X158461258Y-111650359D01*
X158324767Y-111593822D01*
X158179869Y-111565000D01*
X158032131Y-111565000D01*
X157887233Y-111593822D01*
X157750742Y-111650359D01*
X157627903Y-111732437D01*
X157523437Y-111836903D01*
X157441359Y-111959742D01*
X157384822Y-112096233D01*
X157356000Y-112241131D01*
X149489620Y-112241131D01*
X149470938Y-112213172D01*
X149296828Y-112039062D01*
X149092097Y-111902265D01*
X148864611Y-111808037D01*
X148623114Y-111760000D01*
X148376886Y-111760000D01*
X148135389Y-111808037D01*
X147907903Y-111902265D01*
X147703172Y-112039062D01*
X147529062Y-112213172D01*
X147392265Y-112417903D01*
X147298037Y-112645389D01*
X147250000Y-112886886D01*
X147201963Y-112645389D01*
X147107735Y-112417903D01*
X146970938Y-112213172D01*
X146796828Y-112039062D01*
X146592097Y-111902265D01*
X146364611Y-111808037D01*
X146123114Y-111760000D01*
X145876886Y-111760000D01*
X145635389Y-111808037D01*
X145407903Y-111902265D01*
X145203172Y-112039062D01*
X145029062Y-112213172D01*
X145000000Y-112256666D01*
X144970938Y-112213172D01*
X144796828Y-112039062D01*
X144592097Y-111902265D01*
X144364611Y-111808037D01*
X144123114Y-111760000D01*
X143876886Y-111760000D01*
X143635389Y-111808037D01*
X143407903Y-111902265D01*
X143203172Y-112039062D01*
X143029062Y-112213172D01*
X142892265Y-112417903D01*
X142798037Y-112645389D01*
X142752177Y-112875942D01*
X142752177Y-112210000D01*
X142743489Y-112121785D01*
X142717757Y-112036959D01*
X142675971Y-111958784D01*
X142619737Y-111890263D01*
X142551216Y-111834029D01*
X142473041Y-111792243D01*
X142388215Y-111766511D01*
X142300000Y-111757823D01*
X140700000Y-111757823D01*
X140611785Y-111766511D01*
X140526959Y-111792243D01*
X140448784Y-111834029D01*
X140380263Y-111890263D01*
X140324029Y-111958784D01*
X140282243Y-112036959D01*
X140256511Y-112121785D01*
X140247823Y-112210000D01*
X120475000Y-112210000D01*
X120475000Y-110250282D01*
X124560000Y-110250282D01*
X124560000Y-110417718D01*
X124592665Y-110581936D01*
X124656740Y-110736626D01*
X124721803Y-110834000D01*
X124656740Y-110931374D01*
X124592665Y-111086064D01*
X124560000Y-111250282D01*
X124560000Y-111417718D01*
X124592665Y-111581936D01*
X124656740Y-111736626D01*
X124749762Y-111875844D01*
X124868156Y-111994238D01*
X125007374Y-112087260D01*
X125162064Y-112151335D01*
X125326282Y-112184000D01*
X125493718Y-112184000D01*
X125657936Y-112151335D01*
X125812626Y-112087260D01*
X125951844Y-111994238D01*
X126070238Y-111875844D01*
X126163260Y-111736626D01*
X126227335Y-111581936D01*
X126260000Y-111417718D01*
X126260000Y-111250282D01*
X126227335Y-111086064D01*
X126163260Y-110931374D01*
X126098197Y-110834000D01*
X126154135Y-110750282D01*
X129209500Y-110750282D01*
X129209500Y-110917718D01*
X129242165Y-111081936D01*
X129306240Y-111236626D01*
X129399262Y-111375844D01*
X129517656Y-111494238D01*
X129656874Y-111587260D01*
X129811564Y-111651335D01*
X129975782Y-111684000D01*
X130143218Y-111684000D01*
X130307436Y-111651335D01*
X130462126Y-111587260D01*
X130559500Y-111522197D01*
X130656874Y-111587260D01*
X130811564Y-111651335D01*
X130975782Y-111684000D01*
X131143218Y-111684000D01*
X131307436Y-111651335D01*
X131462126Y-111587260D01*
X131601344Y-111494238D01*
X131719738Y-111375844D01*
X131812760Y-111236626D01*
X131876835Y-111081936D01*
X131909500Y-110917718D01*
X131909500Y-110750282D01*
X131876835Y-110586064D01*
X131812760Y-110431374D01*
X131719738Y-110292156D01*
X131601344Y-110173762D01*
X131462126Y-110080740D01*
X131307436Y-110016665D01*
X131143218Y-109984000D01*
X130975782Y-109984000D01*
X130811564Y-110016665D01*
X130656874Y-110080740D01*
X130559500Y-110145803D01*
X130462126Y-110080740D01*
X130307436Y-110016665D01*
X130143218Y-109984000D01*
X129975782Y-109984000D01*
X129811564Y-110016665D01*
X129656874Y-110080740D01*
X129517656Y-110173762D01*
X129399262Y-110292156D01*
X129306240Y-110431374D01*
X129242165Y-110586064D01*
X129209500Y-110750282D01*
X126154135Y-110750282D01*
X126163260Y-110736626D01*
X126227335Y-110581936D01*
X126260000Y-110417718D01*
X126260000Y-110250282D01*
X126227335Y-110086064D01*
X126163260Y-109931374D01*
X126070238Y-109792156D01*
X125951844Y-109673762D01*
X125812626Y-109580740D01*
X125657936Y-109516665D01*
X125493718Y-109484000D01*
X125326282Y-109484000D01*
X125162064Y-109516665D01*
X125007374Y-109580740D01*
X124868156Y-109673762D01*
X124749762Y-109792156D01*
X124656740Y-109931374D01*
X124592665Y-110086064D01*
X124560000Y-110250282D01*
X120475000Y-110250282D01*
X120475000Y-107250282D01*
X125052894Y-107250282D01*
X125052894Y-107417718D01*
X125085559Y-107581936D01*
X125149634Y-107736626D01*
X125242656Y-107875844D01*
X125361050Y-107994238D01*
X125500268Y-108087260D01*
X125654958Y-108151335D01*
X125819176Y-108184000D01*
X125986612Y-108184000D01*
X126150830Y-108151335D01*
X126305520Y-108087260D01*
X126444738Y-107994238D01*
X126563132Y-107875844D01*
X126656154Y-107736626D01*
X126720229Y-107581936D01*
X126743076Y-107467076D01*
X126857936Y-107444229D01*
X127012626Y-107380154D01*
X127110000Y-107315091D01*
X127207374Y-107380154D01*
X127362064Y-107444229D01*
X127476924Y-107467076D01*
X127499771Y-107581936D01*
X127563846Y-107736626D01*
X127656868Y-107875844D01*
X127775262Y-107994238D01*
X127914480Y-108087260D01*
X128069170Y-108151335D01*
X128233388Y-108184000D01*
X128274349Y-108184000D01*
X128211045Y-108278742D01*
X128154508Y-108415233D01*
X128125686Y-108560131D01*
X128125686Y-108707869D01*
X128154508Y-108852767D01*
X128211045Y-108989258D01*
X128293123Y-109112097D01*
X128397589Y-109216563D01*
X128520428Y-109298641D01*
X128656919Y-109355178D01*
X128801817Y-109384000D01*
X128949555Y-109384000D01*
X129094453Y-109355178D01*
X129230944Y-109298641D01*
X129353783Y-109216563D01*
X129365064Y-109205282D01*
X132925000Y-109205282D01*
X132925000Y-109372718D01*
X132957665Y-109536936D01*
X133021740Y-109691626D01*
X133114762Y-109830844D01*
X133233156Y-109949238D01*
X133372374Y-110042260D01*
X133527064Y-110106335D01*
X133691282Y-110139000D01*
X133858718Y-110139000D01*
X134022936Y-110106335D01*
X134175158Y-110043282D01*
X146770000Y-110043282D01*
X146770000Y-110210718D01*
X146802665Y-110374936D01*
X146866740Y-110529626D01*
X146959762Y-110668844D01*
X147078156Y-110787238D01*
X147217374Y-110880260D01*
X147372064Y-110944335D01*
X147536282Y-110977000D01*
X147703718Y-110977000D01*
X147867936Y-110944335D01*
X148022626Y-110880260D01*
X148161844Y-110787238D01*
X148280238Y-110668844D01*
X148373260Y-110529626D01*
X148437335Y-110374936D01*
X148470000Y-110210718D01*
X148470000Y-110043282D01*
X151301000Y-110043282D01*
X151301000Y-110210718D01*
X151333665Y-110374936D01*
X151397740Y-110529626D01*
X151490762Y-110668844D01*
X151609156Y-110787238D01*
X151748374Y-110880260D01*
X151903064Y-110944335D01*
X152067282Y-110977000D01*
X152234718Y-110977000D01*
X152398936Y-110944335D01*
X152553626Y-110880260D01*
X152692844Y-110787238D01*
X152811238Y-110668844D01*
X152904260Y-110529626D01*
X152968335Y-110374936D01*
X153001000Y-110210718D01*
X153001000Y-110043282D01*
X152968335Y-109879064D01*
X152904260Y-109724374D01*
X152811238Y-109585156D01*
X152692844Y-109466762D01*
X152553626Y-109373740D01*
X152398936Y-109309665D01*
X152234718Y-109277000D01*
X152067282Y-109277000D01*
X151903064Y-109309665D01*
X151748374Y-109373740D01*
X151609156Y-109466762D01*
X151490762Y-109585156D01*
X151397740Y-109724374D01*
X151333665Y-109879064D01*
X151301000Y-110043282D01*
X148470000Y-110043282D01*
X148437335Y-109879064D01*
X148373260Y-109724374D01*
X148280238Y-109585156D01*
X148161844Y-109466762D01*
X148022626Y-109373740D01*
X147867936Y-109309665D01*
X147703718Y-109277000D01*
X147536282Y-109277000D01*
X147372064Y-109309665D01*
X147217374Y-109373740D01*
X147078156Y-109466762D01*
X146959762Y-109585156D01*
X146866740Y-109724374D01*
X146802665Y-109879064D01*
X146770000Y-110043282D01*
X134175158Y-110043282D01*
X134177626Y-110042260D01*
X134316844Y-109949238D01*
X134435238Y-109830844D01*
X134528260Y-109691626D01*
X134592335Y-109536936D01*
X134625000Y-109372718D01*
X134625000Y-109205282D01*
X134592335Y-109041064D01*
X134528260Y-108886374D01*
X134435238Y-108747156D01*
X134316844Y-108628762D01*
X134177626Y-108535740D01*
X134022936Y-108471665D01*
X133858718Y-108439000D01*
X133691282Y-108439000D01*
X133527064Y-108471665D01*
X133372374Y-108535740D01*
X133233156Y-108628762D01*
X133114762Y-108747156D01*
X133021740Y-108886374D01*
X132957665Y-109041064D01*
X132925000Y-109205282D01*
X129365064Y-109205282D01*
X129458249Y-109112097D01*
X129540327Y-108989258D01*
X129596864Y-108852767D01*
X129625686Y-108707869D01*
X129625686Y-108560131D01*
X129596864Y-108415233D01*
X129540327Y-108278742D01*
X129458249Y-108155903D01*
X129353783Y-108051437D01*
X129230944Y-107969359D01*
X129094453Y-107912822D01*
X128965931Y-107887257D01*
X128977344Y-107875844D01*
X129070366Y-107736626D01*
X129134441Y-107581936D01*
X129167106Y-107417718D01*
X129167106Y-107250282D01*
X129134441Y-107086064D01*
X129070366Y-106931374D01*
X128977344Y-106792156D01*
X128858950Y-106673762D01*
X128719732Y-106580740D01*
X128565042Y-106516665D01*
X128450182Y-106493818D01*
X128427335Y-106378958D01*
X128363260Y-106224268D01*
X128270238Y-106085050D01*
X128151844Y-105966656D01*
X128012626Y-105873634D01*
X127857936Y-105809559D01*
X127693718Y-105776894D01*
X127526282Y-105776894D01*
X127362064Y-105809559D01*
X127207374Y-105873634D01*
X127110000Y-105938697D01*
X127012626Y-105873634D01*
X126857936Y-105809559D01*
X126693718Y-105776894D01*
X126526282Y-105776894D01*
X126362064Y-105809559D01*
X126207374Y-105873634D01*
X126068156Y-105966656D01*
X125949762Y-106085050D01*
X125856740Y-106224268D01*
X125792665Y-106378958D01*
X125769818Y-106493818D01*
X125654958Y-106516665D01*
X125500268Y-106580740D01*
X125361050Y-106673762D01*
X125242656Y-106792156D01*
X125149634Y-106931374D01*
X125085559Y-107086064D01*
X125052894Y-107250282D01*
X120475000Y-107250282D01*
X120475000Y-102307942D01*
X122330000Y-102307942D01*
X122330000Y-102692058D01*
X122404938Y-103068794D01*
X122551933Y-103423671D01*
X122765336Y-103743052D01*
X123036948Y-104014664D01*
X123356329Y-104228067D01*
X123711206Y-104375062D01*
X124087942Y-104450000D01*
X124472058Y-104450000D01*
X124848794Y-104375062D01*
X125203671Y-104228067D01*
X125523052Y-104014664D01*
X125794664Y-103743052D01*
X126008067Y-103423671D01*
X126155062Y-103068794D01*
X126230000Y-102692058D01*
X126230000Y-102307942D01*
X126155062Y-101931206D01*
X126008067Y-101576329D01*
X125794664Y-101256948D01*
X125523052Y-100985336D01*
X125203671Y-100771933D01*
X124848794Y-100624938D01*
X124472058Y-100550000D01*
X124087942Y-100550000D01*
X123711206Y-100624938D01*
X123356329Y-100771933D01*
X123036948Y-100985336D01*
X122765336Y-101256948D01*
X122551933Y-101576329D01*
X122404938Y-101931206D01*
X122330000Y-102307942D01*
X120475000Y-102307942D01*
X120475000Y-98715282D01*
X121855000Y-98715282D01*
X121855000Y-98882718D01*
X121887665Y-99046936D01*
X121951740Y-99201626D01*
X122044762Y-99340844D01*
X122163156Y-99459238D01*
X122302374Y-99552260D01*
X122457064Y-99616335D01*
X122621282Y-99649000D01*
X122788718Y-99649000D01*
X122952936Y-99616335D01*
X123107626Y-99552260D01*
X123246844Y-99459238D01*
X123365238Y-99340844D01*
X123458260Y-99201626D01*
X123522335Y-99046936D01*
X123555000Y-98882718D01*
X123555000Y-98715282D01*
X123522335Y-98551064D01*
X123458260Y-98396374D01*
X123365238Y-98257156D01*
X123246844Y-98138762D01*
X123107626Y-98045740D01*
X122952936Y-97981665D01*
X122788718Y-97949000D01*
X122621282Y-97949000D01*
X122457064Y-97981665D01*
X122302374Y-98045740D01*
X122163156Y-98138762D01*
X122044762Y-98257156D01*
X121951740Y-98396374D01*
X121887665Y-98551064D01*
X121855000Y-98715282D01*
X120475000Y-98715282D01*
X120475000Y-97650000D01*
X126072234Y-97650000D01*
X126019062Y-97703172D01*
G36*
X165744754Y-70651601D02*
G01*
X165310724Y-70941611D01*
X164941611Y-71310724D01*
X164651601Y-71744754D01*
X164451838Y-72227024D01*
X164350000Y-72738998D01*
X164350000Y-73261002D01*
X164451838Y-73772976D01*
X164651601Y-74255246D01*
X164941611Y-74689276D01*
X165310724Y-75058389D01*
X165744754Y-75348399D01*
X166227024Y-75548162D01*
X166738998Y-75650000D01*
X167261002Y-75650000D01*
X167772976Y-75548162D01*
X168255246Y-75348399D01*
X168689276Y-75058389D01*
X169058389Y-74689276D01*
X169348399Y-74255246D01*
X169525001Y-73828892D01*
X169525000Y-108960000D01*
X167572104Y-108960000D01*
X167550000Y-108957823D01*
X167466794Y-108957823D01*
X167675736Y-108846140D01*
X167873687Y-108683687D01*
X168036140Y-108485736D01*
X168156855Y-108259896D01*
X168231190Y-108014845D01*
X168256290Y-107760000D01*
X168231190Y-107505155D01*
X168156855Y-107260104D01*
X168036140Y-107034264D01*
X167873687Y-106836313D01*
X167675736Y-106673860D01*
X167449896Y-106553145D01*
X167204845Y-106478810D01*
X167013864Y-106460000D01*
X166586136Y-106460000D01*
X166395155Y-106478810D01*
X166150104Y-106553145D01*
X165924264Y-106673860D01*
X165726313Y-106836313D01*
X165563860Y-107034264D01*
X165443145Y-107260104D01*
X165368810Y-107505155D01*
X165343710Y-107760000D01*
X165368810Y-108014845D01*
X165443145Y-108259896D01*
X165563860Y-108485736D01*
X165726313Y-108683687D01*
X165924264Y-108846140D01*
X166133206Y-108957823D01*
X166050000Y-108957823D01*
X166027896Y-108960000D01*
X161753710Y-108960000D01*
X159018355Y-106224645D01*
X159010779Y-106218427D01*
X159002134Y-106213806D01*
X158992755Y-106210961D01*
X158983000Y-106210000D01*
X133750710Y-106210000D01*
X132450000Y-104909290D01*
X132450000Y-102827282D01*
X135635000Y-102827282D01*
X135635000Y-102994718D01*
X135667665Y-103158936D01*
X135731740Y-103313626D01*
X135824762Y-103452844D01*
X135943156Y-103571238D01*
X136082374Y-103664260D01*
X136237064Y-103728335D01*
X136401282Y-103761000D01*
X136568718Y-103761000D01*
X136732936Y-103728335D01*
X136887626Y-103664260D01*
X137026844Y-103571238D01*
X137145238Y-103452844D01*
X137177118Y-103405131D01*
X137688000Y-103405131D01*
X137688000Y-103552869D01*
X137716822Y-103697767D01*
X137773359Y-103834258D01*
X137855437Y-103957097D01*
X137959903Y-104061563D01*
X138082742Y-104143641D01*
X138219233Y-104200178D01*
X138364131Y-104229000D01*
X138511869Y-104229000D01*
X138656767Y-104200178D01*
X138793258Y-104143641D01*
X138916097Y-104061563D01*
X139020563Y-103957097D01*
X139102641Y-103834258D01*
X139159178Y-103697767D01*
X139188000Y-103552869D01*
X139188000Y-103495282D01*
X139545000Y-103495282D01*
X139545000Y-103662718D01*
X139577665Y-103826936D01*
X139641740Y-103981626D01*
X139734762Y-104120844D01*
X139853156Y-104239238D01*
X139992374Y-104332260D01*
X140147064Y-104396335D01*
X140311282Y-104429000D01*
X140478718Y-104429000D01*
X140642936Y-104396335D01*
X140797626Y-104332260D01*
X140936844Y-104239238D01*
X141055238Y-104120844D01*
X141148260Y-103981626D01*
X141212335Y-103826936D01*
X141245000Y-103662718D01*
X141245000Y-103495282D01*
X141503000Y-103495282D01*
X141503000Y-103662718D01*
X141535665Y-103826936D01*
X141599740Y-103981626D01*
X141692762Y-104120844D01*
X141811156Y-104239238D01*
X141950374Y-104332260D01*
X142105064Y-104396335D01*
X142269282Y-104429000D01*
X142436718Y-104429000D01*
X142600936Y-104396335D01*
X142755626Y-104332260D01*
X142894844Y-104239238D01*
X143013238Y-104120844D01*
X143106260Y-103981626D01*
X143170335Y-103826936D01*
X143203000Y-103662718D01*
X143203000Y-103495282D01*
X143170335Y-103331064D01*
X143106260Y-103176374D01*
X143013238Y-103037156D01*
X142894844Y-102918762D01*
X142755626Y-102825740D01*
X142600936Y-102761665D01*
X142436718Y-102729000D01*
X142269282Y-102729000D01*
X142105064Y-102761665D01*
X141950374Y-102825740D01*
X141811156Y-102918762D01*
X141692762Y-103037156D01*
X141599740Y-103176374D01*
X141535665Y-103331064D01*
X141503000Y-103495282D01*
X141245000Y-103495282D01*
X141212335Y-103331064D01*
X141148260Y-103176374D01*
X141055238Y-103037156D01*
X140936844Y-102918762D01*
X140797626Y-102825740D01*
X140642936Y-102761665D01*
X140478718Y-102729000D01*
X140311282Y-102729000D01*
X140147064Y-102761665D01*
X139992374Y-102825740D01*
X139853156Y-102918762D01*
X139734762Y-103037156D01*
X139641740Y-103176374D01*
X139577665Y-103331064D01*
X139545000Y-103495282D01*
X139188000Y-103495282D01*
X139188000Y-103405131D01*
X139159178Y-103260233D01*
X139102641Y-103123742D01*
X139020563Y-103000903D01*
X138916097Y-102896437D01*
X138793258Y-102814359D01*
X138656767Y-102757822D01*
X138511869Y-102729000D01*
X138364131Y-102729000D01*
X138219233Y-102757822D01*
X138082742Y-102814359D01*
X137959903Y-102896437D01*
X137855437Y-103000903D01*
X137773359Y-103123742D01*
X137716822Y-103260233D01*
X137688000Y-103405131D01*
X137177118Y-103405131D01*
X137238260Y-103313626D01*
X137302335Y-103158936D01*
X137335000Y-102994718D01*
X137335000Y-102827282D01*
X137302335Y-102663064D01*
X137238260Y-102508374D01*
X137203788Y-102456782D01*
X152239000Y-102456782D01*
X152239000Y-102624218D01*
X152271665Y-102788436D01*
X152335740Y-102943126D01*
X152428762Y-103082344D01*
X152547156Y-103200738D01*
X152686374Y-103293760D01*
X152841064Y-103357835D01*
X153005282Y-103390500D01*
X153172718Y-103390500D01*
X153336936Y-103357835D01*
X153491626Y-103293760D01*
X153630844Y-103200738D01*
X153749238Y-103082344D01*
X153842260Y-102943126D01*
X153906335Y-102788436D01*
X153939000Y-102624218D01*
X153939000Y-102456782D01*
X153906335Y-102292564D01*
X153842260Y-102137874D01*
X153749238Y-101998656D01*
X153630844Y-101880262D01*
X153491626Y-101787240D01*
X153336936Y-101723165D01*
X153172718Y-101690500D01*
X153005282Y-101690500D01*
X152841064Y-101723165D01*
X152686374Y-101787240D01*
X152547156Y-101880262D01*
X152428762Y-101998656D01*
X152335740Y-102137874D01*
X152271665Y-102292564D01*
X152239000Y-102456782D01*
X137203788Y-102456782D01*
X137145238Y-102369156D01*
X137026844Y-102250762D01*
X136887626Y-102157740D01*
X136732936Y-102093665D01*
X136568718Y-102061000D01*
X136401282Y-102061000D01*
X136237064Y-102093665D01*
X136082374Y-102157740D01*
X135943156Y-102250762D01*
X135824762Y-102369156D01*
X135731740Y-102508374D01*
X135667665Y-102663064D01*
X135635000Y-102827282D01*
X132450000Y-102827282D01*
X132450000Y-102374010D01*
X132996980Y-102374010D01*
X133023988Y-102376670D01*
X133050996Y-102374010D01*
X133051006Y-102374010D01*
X133131807Y-102366052D01*
X133235482Y-102334602D01*
X133331030Y-102283531D01*
X133414778Y-102214800D01*
X133432001Y-102193814D01*
X134106533Y-101519282D01*
X150011500Y-101519282D01*
X150011500Y-101686718D01*
X150044165Y-101850936D01*
X150108240Y-102005626D01*
X150201262Y-102144844D01*
X150319656Y-102263238D01*
X150458874Y-102356260D01*
X150613564Y-102420335D01*
X150777782Y-102453000D01*
X150945218Y-102453000D01*
X151109436Y-102420335D01*
X151264126Y-102356260D01*
X151403344Y-102263238D01*
X151521738Y-102144844D01*
X151614760Y-102005626D01*
X151678835Y-101850936D01*
X151711500Y-101686718D01*
X151711500Y-101519282D01*
X151678835Y-101355064D01*
X151614760Y-101200374D01*
X151521738Y-101061156D01*
X151403344Y-100942762D01*
X151264126Y-100849740D01*
X151152057Y-100803319D01*
X163520000Y-100803319D01*
X163520000Y-101236681D01*
X163604545Y-101661716D01*
X163770385Y-102062091D01*
X164011148Y-102422418D01*
X164317582Y-102728852D01*
X164677909Y-102969615D01*
X165078284Y-103135455D01*
X165503319Y-103220000D01*
X165936681Y-103220000D01*
X166361716Y-103135455D01*
X166762091Y-102969615D01*
X167122418Y-102728852D01*
X167428852Y-102422418D01*
X167669615Y-102062091D01*
X167835455Y-101661716D01*
X167920000Y-101236681D01*
X167920000Y-100803319D01*
X167835455Y-100378284D01*
X167669615Y-99977909D01*
X167428852Y-99617582D01*
X167122418Y-99311148D01*
X166762091Y-99070385D01*
X166361716Y-98904545D01*
X165936681Y-98820000D01*
X165503319Y-98820000D01*
X165078284Y-98904545D01*
X164677909Y-99070385D01*
X164317582Y-99311148D01*
X164011148Y-99617582D01*
X163770385Y-99977909D01*
X163604545Y-100378284D01*
X163520000Y-100803319D01*
X151152057Y-100803319D01*
X151109436Y-100785665D01*
X150945218Y-100753000D01*
X150777782Y-100753000D01*
X150613564Y-100785665D01*
X150458874Y-100849740D01*
X150319656Y-100942762D01*
X150201262Y-101061156D01*
X150108240Y-101200374D01*
X150044165Y-101355064D01*
X150011500Y-101519282D01*
X134106533Y-101519282D01*
X136006081Y-99619734D01*
X145703505Y-99619734D01*
X145703505Y-99787170D01*
X145736170Y-99951388D01*
X145800245Y-100106078D01*
X145893267Y-100245296D01*
X146011661Y-100363690D01*
X146150879Y-100456712D01*
X146305569Y-100520787D01*
X146469787Y-100553452D01*
X146637223Y-100553452D01*
X146801441Y-100520787D01*
X146956131Y-100456712D01*
X147095349Y-100363690D01*
X147213743Y-100245296D01*
X147306765Y-100106078D01*
X147370840Y-99951388D01*
X147403505Y-99787170D01*
X147403505Y-99619734D01*
X147370840Y-99455516D01*
X147306765Y-99300826D01*
X147213743Y-99161608D01*
X147147779Y-99095644D01*
X148204000Y-99095644D01*
X148204000Y-99243382D01*
X148232822Y-99388280D01*
X148289359Y-99524771D01*
X148371437Y-99647610D01*
X148475903Y-99752076D01*
X148598742Y-99834154D01*
X148735233Y-99890691D01*
X148880131Y-99919513D01*
X149027869Y-99919513D01*
X149172767Y-99890691D01*
X149309258Y-99834154D01*
X149340721Y-99813131D01*
X155472000Y-99813131D01*
X155472000Y-99960869D01*
X155500822Y-100105767D01*
X155557359Y-100242258D01*
X155639437Y-100365097D01*
X155743903Y-100469563D01*
X155866742Y-100551641D01*
X156003233Y-100608178D01*
X156148131Y-100637000D01*
X156295869Y-100637000D01*
X156440767Y-100608178D01*
X156577258Y-100551641D01*
X156700097Y-100469563D01*
X156804563Y-100365097D01*
X156886641Y-100242258D01*
X156943178Y-100105767D01*
X156972000Y-99960869D01*
X156972000Y-99813131D01*
X156943178Y-99668233D01*
X156886641Y-99531742D01*
X156804563Y-99408903D01*
X156700097Y-99304437D01*
X156577258Y-99222359D01*
X156440767Y-99165822D01*
X156295869Y-99137000D01*
X156148131Y-99137000D01*
X156003233Y-99165822D01*
X155866742Y-99222359D01*
X155743903Y-99304437D01*
X155639437Y-99408903D01*
X155557359Y-99531742D01*
X155500822Y-99668233D01*
X155472000Y-99813131D01*
X149340721Y-99813131D01*
X149432097Y-99752076D01*
X149536563Y-99647610D01*
X149618641Y-99524771D01*
X149675178Y-99388280D01*
X149704000Y-99243382D01*
X149704000Y-99095644D01*
X149675178Y-98950746D01*
X149618641Y-98814255D01*
X149536563Y-98691416D01*
X149432097Y-98586950D01*
X149309258Y-98504872D01*
X149172767Y-98448335D01*
X149027869Y-98419513D01*
X148880131Y-98419513D01*
X148735233Y-98448335D01*
X148598742Y-98504872D01*
X148475903Y-98586950D01*
X148371437Y-98691416D01*
X148289359Y-98814255D01*
X148232822Y-98950746D01*
X148204000Y-99095644D01*
X147147779Y-99095644D01*
X147095349Y-99043214D01*
X146956131Y-98950192D01*
X146801441Y-98886117D01*
X146637223Y-98853452D01*
X146469787Y-98853452D01*
X146305569Y-98886117D01*
X146150879Y-98950192D01*
X146011661Y-99043214D01*
X145893267Y-99161608D01*
X145800245Y-99300826D01*
X145736170Y-99455516D01*
X145703505Y-99619734D01*
X136006081Y-99619734D01*
X140014810Y-95611005D01*
X140027742Y-95619646D01*
X140164233Y-95676183D01*
X140309131Y-95705005D01*
X140456869Y-95705005D01*
X140601767Y-95676183D01*
X140738258Y-95619646D01*
X140861097Y-95537568D01*
X140965563Y-95433102D01*
X141047641Y-95310263D01*
X141104178Y-95173772D01*
X141133000Y-95028874D01*
X141133000Y-94881136D01*
X141104178Y-94736238D01*
X141047641Y-94599747D01*
X140965563Y-94476908D01*
X140879695Y-94391040D01*
X140903000Y-94273879D01*
X140903000Y-94126141D01*
X140874178Y-93981243D01*
X140817641Y-93844752D01*
X140735563Y-93721913D01*
X140631097Y-93617447D01*
X140508258Y-93535369D01*
X140371767Y-93478832D01*
X140226869Y-93450010D01*
X140079131Y-93450010D01*
X139934233Y-93478832D01*
X139797742Y-93535369D01*
X139674903Y-93617447D01*
X139570437Y-93721913D01*
X139488359Y-93844752D01*
X139431822Y-93981243D01*
X139403000Y-94126141D01*
X139403000Y-94172192D01*
X132651193Y-100924000D01*
X132450000Y-100924000D01*
X132450000Y-97950000D01*
X132449039Y-97940245D01*
X132446194Y-97930866D01*
X132441573Y-97922221D01*
X132435355Y-97914645D01*
X131685355Y-97164645D01*
X131677779Y-97158427D01*
X131669134Y-97153806D01*
X131659755Y-97150961D01*
X131650000Y-97150000D01*
X127480060Y-97150000D01*
X127582097Y-97107735D01*
X127786828Y-96970938D01*
X127960938Y-96796828D01*
X128097735Y-96592097D01*
X128191963Y-96364611D01*
X128240000Y-96123114D01*
X128240000Y-95876886D01*
X128191963Y-95635389D01*
X128097735Y-95407903D01*
X127960938Y-95203172D01*
X127786828Y-95029062D01*
X127743334Y-95000000D01*
X127786828Y-94970938D01*
X127960938Y-94796828D01*
X128097735Y-94592097D01*
X128191963Y-94364611D01*
X128240000Y-94123114D01*
X128240000Y-93876886D01*
X128191963Y-93635389D01*
X128097735Y-93407903D01*
X127960938Y-93203172D01*
X127786828Y-93029062D01*
X127582097Y-92892265D01*
X127354611Y-92798037D01*
X127124058Y-92752177D01*
X127790000Y-92752177D01*
X127878215Y-92743489D01*
X127963041Y-92717757D01*
X128041216Y-92675971D01*
X128109737Y-92619737D01*
X128165971Y-92551216D01*
X128207757Y-92473041D01*
X128220424Y-92431282D01*
X128240000Y-92431282D01*
X128240000Y-92598718D01*
X128272665Y-92762936D01*
X128336740Y-92917626D01*
X128429762Y-93056844D01*
X128548156Y-93175238D01*
X128687374Y-93268260D01*
X128842064Y-93332335D01*
X129006282Y-93365000D01*
X129173718Y-93365000D01*
X129337936Y-93332335D01*
X129492626Y-93268260D01*
X129631844Y-93175238D01*
X129750238Y-93056844D01*
X129843260Y-92917626D01*
X129907335Y-92762936D01*
X129940000Y-92598718D01*
X129940000Y-92431282D01*
X129934331Y-92402782D01*
X139303000Y-92402782D01*
X139303000Y-92570218D01*
X139335665Y-92734436D01*
X139399740Y-92889126D01*
X139492762Y-93028344D01*
X139611156Y-93146738D01*
X139750374Y-93239760D01*
X139905064Y-93303835D01*
X140069282Y-93336500D01*
X140236718Y-93336500D01*
X140400936Y-93303835D01*
X140555626Y-93239760D01*
X140694844Y-93146738D01*
X140715451Y-93126131D01*
X142450000Y-93126131D01*
X142450000Y-93273869D01*
X142478822Y-93418767D01*
X142535359Y-93555258D01*
X142598663Y-93650000D01*
X142535359Y-93744742D01*
X142478822Y-93881233D01*
X142450000Y-94026131D01*
X142450000Y-94173869D01*
X142478822Y-94318767D01*
X142535359Y-94455258D01*
X142598663Y-94550000D01*
X142535359Y-94644742D01*
X142478822Y-94781233D01*
X142450000Y-94926131D01*
X142450000Y-95073869D01*
X142478822Y-95218767D01*
X142535359Y-95355258D01*
X142598663Y-95450000D01*
X142535359Y-95544742D01*
X142478822Y-95681233D01*
X142450000Y-95826131D01*
X142450000Y-95973869D01*
X142478822Y-96118767D01*
X142535359Y-96255258D01*
X142598663Y-96350000D01*
X142535359Y-96444742D01*
X142478822Y-96581233D01*
X142450000Y-96726131D01*
X142450000Y-96873869D01*
X142478822Y-97018767D01*
X142535359Y-97155258D01*
X142617437Y-97278097D01*
X142721903Y-97382563D01*
X142844742Y-97464641D01*
X142981233Y-97521178D01*
X143126131Y-97550000D01*
X143273869Y-97550000D01*
X143418767Y-97521178D01*
X143555258Y-97464641D01*
X143650000Y-97401337D01*
X143744742Y-97464641D01*
X143881233Y-97521178D01*
X144026131Y-97550000D01*
X144173869Y-97550000D01*
X144318767Y-97521178D01*
X144455258Y-97464641D01*
X144550000Y-97401337D01*
X144644742Y-97464641D01*
X144781233Y-97521178D01*
X144926131Y-97550000D01*
X145073869Y-97550000D01*
X145218767Y-97521178D01*
X145355258Y-97464641D01*
X145450000Y-97401337D01*
X145544742Y-97464641D01*
X145681233Y-97521178D01*
X145826131Y-97550000D01*
X145973869Y-97550000D01*
X146118767Y-97521178D01*
X146255258Y-97464641D01*
X146350000Y-97401337D01*
X146444742Y-97464641D01*
X146581233Y-97521178D01*
X146726131Y-97550000D01*
X146873869Y-97550000D01*
X147018767Y-97521178D01*
X147155258Y-97464641D01*
X147278097Y-97382563D01*
X147382563Y-97278097D01*
X147464641Y-97155258D01*
X147521178Y-97018767D01*
X147550000Y-96873869D01*
X147550000Y-96726131D01*
X147521178Y-96581233D01*
X147464641Y-96444742D01*
X147401337Y-96350000D01*
X147464641Y-96255258D01*
X147521178Y-96118767D01*
X147550000Y-95973869D01*
X147550000Y-95826131D01*
X147521178Y-95681233D01*
X147464641Y-95544742D01*
X147401337Y-95450000D01*
X147464641Y-95355258D01*
X147521178Y-95218767D01*
X147550000Y-95073869D01*
X147550000Y-94926131D01*
X147521178Y-94781233D01*
X147519065Y-94776131D01*
X148520010Y-94776131D01*
X148520010Y-94923869D01*
X148548832Y-95068767D01*
X148605369Y-95205258D01*
X148687447Y-95328097D01*
X148791913Y-95432563D01*
X148914752Y-95514641D01*
X148949038Y-95528843D01*
X148884159Y-95625942D01*
X148827622Y-95762433D01*
X148798800Y-95907331D01*
X148798800Y-96055069D01*
X148827622Y-96199967D01*
X148884159Y-96336458D01*
X148966237Y-96459297D01*
X149070703Y-96563763D01*
X149193542Y-96645841D01*
X149283874Y-96683258D01*
X149117375Y-96849758D01*
X149117369Y-96849762D01*
X148998975Y-96968156D01*
X148975649Y-97003065D01*
X148949046Y-97035482D01*
X148929275Y-97072470D01*
X148905953Y-97107374D01*
X148889892Y-97146149D01*
X148870116Y-97183146D01*
X148857938Y-97223291D01*
X148841878Y-97262064D01*
X148833690Y-97303229D01*
X148821513Y-97343371D01*
X148817402Y-97385114D01*
X148809213Y-97426282D01*
X148809213Y-97468259D01*
X148805102Y-97510000D01*
X148809213Y-97551741D01*
X148809213Y-97593718D01*
X148817402Y-97634886D01*
X148821513Y-97676629D01*
X148833690Y-97716771D01*
X148841878Y-97757936D01*
X148857938Y-97796709D01*
X148870116Y-97836854D01*
X148889892Y-97873851D01*
X148905953Y-97912626D01*
X148929275Y-97947530D01*
X148949046Y-97984518D01*
X148975650Y-98016936D01*
X148998975Y-98051844D01*
X149028659Y-98081528D01*
X149055265Y-98113948D01*
X149087685Y-98140554D01*
X149117369Y-98170238D01*
X149152277Y-98193563D01*
X149184695Y-98220167D01*
X149221683Y-98239938D01*
X149256587Y-98263260D01*
X149295362Y-98279321D01*
X149332359Y-98299097D01*
X149372504Y-98311275D01*
X149411277Y-98327335D01*
X149452442Y-98335523D01*
X149492584Y-98347700D01*
X149534327Y-98351811D01*
X149575495Y-98360000D01*
X149617472Y-98360000D01*
X149659213Y-98364111D01*
X149700954Y-98360000D01*
X149742931Y-98360000D01*
X149784099Y-98351811D01*
X149825842Y-98347700D01*
X149865984Y-98335523D01*
X149907149Y-98327335D01*
X149945922Y-98311275D01*
X149986067Y-98299097D01*
X150023064Y-98279321D01*
X150061839Y-98263260D01*
X150096743Y-98239938D01*
X150133731Y-98220167D01*
X150166148Y-98193564D01*
X150201057Y-98170238D01*
X150319451Y-98051844D01*
X150319455Y-98051838D01*
X151111019Y-97260275D01*
X151143448Y-97233661D01*
X151249668Y-97104232D01*
X151328597Y-96956568D01*
X151377200Y-96796342D01*
X151389500Y-96671462D01*
X151389500Y-96671454D01*
X151393611Y-96629713D01*
X151389500Y-96587972D01*
X151389500Y-95463282D01*
X151499000Y-95463282D01*
X151499000Y-95630718D01*
X151531665Y-95794936D01*
X151595740Y-95949626D01*
X151688762Y-96088844D01*
X151807156Y-96207238D01*
X151946374Y-96300260D01*
X152101064Y-96364335D01*
X152265282Y-96397000D01*
X152432718Y-96397000D01*
X152596936Y-96364335D01*
X152751626Y-96300260D01*
X152890844Y-96207238D01*
X153009238Y-96088844D01*
X153102260Y-95949626D01*
X153166335Y-95794936D01*
X153199000Y-95630718D01*
X153199000Y-95463282D01*
X153166335Y-95299064D01*
X153102260Y-95144374D01*
X153009238Y-95005156D01*
X152890844Y-94886762D01*
X152751626Y-94793740D01*
X152596936Y-94729665D01*
X152432718Y-94697000D01*
X152265282Y-94697000D01*
X152101064Y-94729665D01*
X151946374Y-94793740D01*
X151807156Y-94886762D01*
X151688762Y-95005156D01*
X151595740Y-95144374D01*
X151531665Y-95299064D01*
X151499000Y-95463282D01*
X151389500Y-95463282D01*
X151389500Y-92866282D01*
X152727000Y-92866282D01*
X152727000Y-93033718D01*
X152759665Y-93197936D01*
X152823740Y-93352626D01*
X152916762Y-93491844D01*
X153035156Y-93610238D01*
X153174374Y-93703260D01*
X153329064Y-93767335D01*
X153493282Y-93800000D01*
X153660718Y-93800000D01*
X153824936Y-93767335D01*
X153979626Y-93703260D01*
X154118844Y-93610238D01*
X154237238Y-93491844D01*
X154330260Y-93352626D01*
X154394335Y-93197936D01*
X154427000Y-93033718D01*
X154427000Y-92900000D01*
X159707823Y-92900000D01*
X159707823Y-94600000D01*
X159716511Y-94688215D01*
X159742243Y-94773041D01*
X159784029Y-94851216D01*
X159840263Y-94919737D01*
X159908784Y-94975971D01*
X159986959Y-95017757D01*
X160071785Y-95043489D01*
X160160000Y-95052177D01*
X160504737Y-95052177D01*
X160394219Y-95097955D01*
X160181298Y-95240224D01*
X160000224Y-95421298D01*
X159857955Y-95634219D01*
X159759958Y-95870804D01*
X159710000Y-96121961D01*
X159710000Y-96378039D01*
X159759958Y-96629196D01*
X159857955Y-96865781D01*
X160000224Y-97078702D01*
X160181298Y-97259776D01*
X160394219Y-97402045D01*
X160630804Y-97500042D01*
X160881961Y-97550000D01*
X161138039Y-97550000D01*
X161389196Y-97500042D01*
X161625781Y-97402045D01*
X161838702Y-97259776D01*
X162010000Y-97088478D01*
X162181298Y-97259776D01*
X162394219Y-97402045D01*
X162630804Y-97500042D01*
X162881961Y-97550000D01*
X163138039Y-97550000D01*
X163389196Y-97500042D01*
X163625781Y-97402045D01*
X163838702Y-97259776D01*
X164019776Y-97078702D01*
X164081528Y-96986282D01*
X166445000Y-96986282D01*
X166445000Y-97153718D01*
X166477665Y-97317936D01*
X166541740Y-97472626D01*
X166634762Y-97611844D01*
X166753156Y-97730238D01*
X166892374Y-97823260D01*
X167047064Y-97887335D01*
X167211282Y-97920000D01*
X167378718Y-97920000D01*
X167542936Y-97887335D01*
X167697626Y-97823260D01*
X167836844Y-97730238D01*
X167955238Y-97611844D01*
X168048260Y-97472626D01*
X168112335Y-97317936D01*
X168145000Y-97153718D01*
X168145000Y-96986282D01*
X168112335Y-96822064D01*
X168048260Y-96667374D01*
X167955238Y-96528156D01*
X167836844Y-96409762D01*
X167697626Y-96316740D01*
X167542936Y-96252665D01*
X167378718Y-96220000D01*
X167211282Y-96220000D01*
X167047064Y-96252665D01*
X166892374Y-96316740D01*
X166753156Y-96409762D01*
X166634762Y-96528156D01*
X166541740Y-96667374D01*
X166477665Y-96822064D01*
X166445000Y-96986282D01*
X164081528Y-96986282D01*
X164162045Y-96865781D01*
X164260042Y-96629196D01*
X164310000Y-96378039D01*
X164310000Y-96121961D01*
X164260042Y-95870804D01*
X164162045Y-95634219D01*
X164019776Y-95421298D01*
X163838702Y-95240224D01*
X163625781Y-95097955D01*
X163389297Y-95000000D01*
X163625781Y-94902045D01*
X163838702Y-94759776D01*
X164019776Y-94578702D01*
X164162045Y-94365781D01*
X164260042Y-94129196D01*
X164310000Y-93878039D01*
X164310000Y-93621961D01*
X164260042Y-93370804D01*
X164162045Y-93134219D01*
X164019776Y-92921298D01*
X163945760Y-92847282D01*
X166445000Y-92847282D01*
X166445000Y-93014718D01*
X166477665Y-93178936D01*
X166541740Y-93333626D01*
X166634762Y-93472844D01*
X166753156Y-93591238D01*
X166892374Y-93684260D01*
X167047064Y-93748335D01*
X167211282Y-93781000D01*
X167378718Y-93781000D01*
X167542936Y-93748335D01*
X167697626Y-93684260D01*
X167836844Y-93591238D01*
X167955238Y-93472844D01*
X168048260Y-93333626D01*
X168112335Y-93178936D01*
X168145000Y-93014718D01*
X168145000Y-92847282D01*
X168112335Y-92683064D01*
X168048260Y-92528374D01*
X167955238Y-92389156D01*
X167836844Y-92270762D01*
X167697626Y-92177740D01*
X167542936Y-92113665D01*
X167378718Y-92081000D01*
X167211282Y-92081000D01*
X167047064Y-92113665D01*
X166892374Y-92177740D01*
X166753156Y-92270762D01*
X166634762Y-92389156D01*
X166541740Y-92528374D01*
X166477665Y-92683064D01*
X166445000Y-92847282D01*
X163945760Y-92847282D01*
X163838702Y-92740224D01*
X163625781Y-92597955D01*
X163389196Y-92499958D01*
X163138039Y-92450000D01*
X162881961Y-92450000D01*
X162630804Y-92499958D01*
X162394219Y-92597955D01*
X162257597Y-92689243D01*
X162235971Y-92648784D01*
X162179737Y-92580263D01*
X162111216Y-92524029D01*
X162033041Y-92482243D01*
X161948215Y-92456511D01*
X161860000Y-92447823D01*
X160160000Y-92447823D01*
X160071785Y-92456511D01*
X159986959Y-92482243D01*
X159908784Y-92524029D01*
X159840263Y-92580263D01*
X159784029Y-92648784D01*
X159742243Y-92726959D01*
X159716511Y-92811785D01*
X159707823Y-92900000D01*
X154427000Y-92900000D01*
X154427000Y-92866282D01*
X154394335Y-92702064D01*
X154330260Y-92547374D01*
X154237238Y-92408156D01*
X154118844Y-92289762D01*
X153979626Y-92196740D01*
X153824936Y-92132665D01*
X153660718Y-92100000D01*
X153493282Y-92100000D01*
X153329064Y-92132665D01*
X153174374Y-92196740D01*
X153035156Y-92289762D01*
X152916762Y-92408156D01*
X152823740Y-92547374D01*
X152759665Y-92702064D01*
X152727000Y-92866282D01*
X151389500Y-92866282D01*
X151389500Y-90915282D01*
X152727000Y-90915282D01*
X152727000Y-91082718D01*
X152759665Y-91246936D01*
X152823740Y-91401626D01*
X152916762Y-91540844D01*
X153035156Y-91659238D01*
X153174374Y-91752260D01*
X153329064Y-91816335D01*
X153493282Y-91849000D01*
X153660718Y-91849000D01*
X153824936Y-91816335D01*
X153864055Y-91800131D01*
X157836000Y-91800131D01*
X157836000Y-91947869D01*
X157864822Y-92092767D01*
X157921359Y-92229258D01*
X158003437Y-92352097D01*
X158107903Y-92456563D01*
X158230742Y-92538641D01*
X158367233Y-92595178D01*
X158512131Y-92624000D01*
X158659869Y-92624000D01*
X158804767Y-92595178D01*
X158941258Y-92538641D01*
X159064097Y-92456563D01*
X159168563Y-92352097D01*
X159250641Y-92229258D01*
X159307178Y-92092767D01*
X159336000Y-91947869D01*
X159336000Y-91800131D01*
X159307178Y-91655233D01*
X159250641Y-91518742D01*
X159168563Y-91395903D01*
X159064097Y-91291437D01*
X158941258Y-91209359D01*
X158804767Y-91152822D01*
X158659869Y-91124000D01*
X158512131Y-91124000D01*
X158367233Y-91152822D01*
X158230742Y-91209359D01*
X158107903Y-91291437D01*
X158003437Y-91395903D01*
X157921359Y-91518742D01*
X157864822Y-91655233D01*
X157836000Y-91800131D01*
X153864055Y-91800131D01*
X153979626Y-91752260D01*
X154118844Y-91659238D01*
X154237238Y-91540844D01*
X154330260Y-91401626D01*
X154394335Y-91246936D01*
X154427000Y-91082718D01*
X154427000Y-90915282D01*
X154394335Y-90751064D01*
X154330260Y-90596374D01*
X154237238Y-90457156D01*
X154118844Y-90338762D01*
X153979626Y-90245740D01*
X153824936Y-90181665D01*
X153660718Y-90149000D01*
X153493282Y-90149000D01*
X153329064Y-90181665D01*
X153174374Y-90245740D01*
X153035156Y-90338762D01*
X152916762Y-90457156D01*
X152823740Y-90596374D01*
X152759665Y-90751064D01*
X152727000Y-90915282D01*
X151389500Y-90915282D01*
X151389500Y-89159462D01*
X151435064Y-89178335D01*
X151599282Y-89211000D01*
X151766718Y-89211000D01*
X151930936Y-89178335D01*
X152085626Y-89114260D01*
X152224844Y-89021238D01*
X152343238Y-88902844D01*
X152436260Y-88763626D01*
X152436387Y-88763319D01*
X163520000Y-88763319D01*
X163520000Y-89196681D01*
X163604545Y-89621716D01*
X163770385Y-90022091D01*
X164011148Y-90382418D01*
X164317582Y-90688852D01*
X164677909Y-90929615D01*
X165078284Y-91095455D01*
X165503319Y-91180000D01*
X165936681Y-91180000D01*
X166361716Y-91095455D01*
X166762091Y-90929615D01*
X167122418Y-90688852D01*
X167428852Y-90382418D01*
X167669615Y-90022091D01*
X167835455Y-89621716D01*
X167920000Y-89196681D01*
X167920000Y-88763319D01*
X167835455Y-88338284D01*
X167669615Y-87937909D01*
X167428852Y-87577582D01*
X167122418Y-87271148D01*
X166762091Y-87030385D01*
X166361716Y-86864545D01*
X165936681Y-86780000D01*
X165503319Y-86780000D01*
X165078284Y-86864545D01*
X164677909Y-87030385D01*
X164317582Y-87271148D01*
X164011148Y-87577582D01*
X163770385Y-87937909D01*
X163604545Y-88338284D01*
X163520000Y-88763319D01*
X152436387Y-88763319D01*
X152500335Y-88608936D01*
X152533000Y-88444718D01*
X152533000Y-88277282D01*
X152500335Y-88113064D01*
X152436260Y-87958374D01*
X152343238Y-87819156D01*
X152224844Y-87700762D01*
X152085626Y-87607740D01*
X151930936Y-87543665D01*
X151766718Y-87511000D01*
X151599282Y-87511000D01*
X151435064Y-87543665D01*
X151389500Y-87562538D01*
X151389500Y-86108282D01*
X151381312Y-86067117D01*
X151377200Y-86025371D01*
X151365023Y-85985228D01*
X151356835Y-85944064D01*
X151340776Y-85905294D01*
X151328597Y-85865145D01*
X151308819Y-85828143D01*
X151292760Y-85789374D01*
X151269444Y-85754479D01*
X151249668Y-85717481D01*
X151223057Y-85685055D01*
X151199738Y-85650156D01*
X151170057Y-85620475D01*
X151143448Y-85588052D01*
X151111026Y-85561444D01*
X151081344Y-85531762D01*
X151046441Y-85508440D01*
X151014018Y-85481832D01*
X150977025Y-85462058D01*
X150942126Y-85438740D01*
X150903353Y-85422680D01*
X150866354Y-85402903D01*
X150826209Y-85390725D01*
X150787436Y-85374665D01*
X150746269Y-85366476D01*
X150706128Y-85354300D01*
X150664384Y-85350188D01*
X150623218Y-85342000D01*
X150581248Y-85342000D01*
X150539500Y-85337888D01*
X150497751Y-85342000D01*
X150455782Y-85342000D01*
X150414617Y-85350188D01*
X150372871Y-85354300D01*
X150332728Y-85366477D01*
X150291564Y-85374665D01*
X150252794Y-85390724D01*
X150212645Y-85402903D01*
X150175643Y-85422681D01*
X150136874Y-85438740D01*
X150101979Y-85462056D01*
X150064981Y-85481832D01*
X150032555Y-85508443D01*
X149997656Y-85531762D01*
X149967975Y-85561443D01*
X149935552Y-85588052D01*
X149908944Y-85620474D01*
X149879262Y-85650156D01*
X149855940Y-85685059D01*
X149829332Y-85717482D01*
X149809558Y-85754475D01*
X149786240Y-85789374D01*
X149770180Y-85828147D01*
X149750403Y-85865146D01*
X149738225Y-85905291D01*
X149722165Y-85944064D01*
X149713976Y-85985231D01*
X149701800Y-86025372D01*
X149697688Y-86067116D01*
X149689500Y-86108282D01*
X149689500Y-86150252D01*
X149689501Y-92675616D01*
X149560718Y-92650000D01*
X149393282Y-92650000D01*
X149229064Y-92682665D01*
X149074374Y-92746740D01*
X148935156Y-92839762D01*
X148816762Y-92958156D01*
X148723740Y-93097374D01*
X148659665Y-93252064D01*
X148627000Y-93416282D01*
X148627000Y-93583718D01*
X148659665Y-93747936D01*
X148723740Y-93902626D01*
X148816762Y-94041844D01*
X148935156Y-94160238D01*
X148950556Y-94170528D01*
X148914752Y-94185359D01*
X148791913Y-94267437D01*
X148687447Y-94371903D01*
X148605369Y-94494742D01*
X148548832Y-94631233D01*
X148520010Y-94776131D01*
X147519065Y-94776131D01*
X147464641Y-94644742D01*
X147401337Y-94550000D01*
X147464641Y-94455258D01*
X147521178Y-94318767D01*
X147550000Y-94173869D01*
X147550000Y-94026131D01*
X147521178Y-93881233D01*
X147464641Y-93744742D01*
X147401337Y-93650000D01*
X147464641Y-93555258D01*
X147521178Y-93418767D01*
X147550000Y-93273869D01*
X147550000Y-93126131D01*
X147521178Y-92981233D01*
X147464641Y-92844742D01*
X147382563Y-92721903D01*
X147278097Y-92617437D01*
X147155258Y-92535359D01*
X147018767Y-92478822D01*
X146873869Y-92450000D01*
X146726131Y-92450000D01*
X146581233Y-92478822D01*
X146444742Y-92535359D01*
X146350000Y-92598663D01*
X146255258Y-92535359D01*
X146118767Y-92478822D01*
X145973869Y-92450000D01*
X145826131Y-92450000D01*
X145681233Y-92478822D01*
X145544742Y-92535359D01*
X145450000Y-92598663D01*
X145355258Y-92535359D01*
X145218767Y-92478822D01*
X145073869Y-92450000D01*
X144926131Y-92450000D01*
X144781233Y-92478822D01*
X144644742Y-92535359D01*
X144550000Y-92598663D01*
X144455258Y-92535359D01*
X144318767Y-92478822D01*
X144173869Y-92450000D01*
X144026131Y-92450000D01*
X143881233Y-92478822D01*
X143744742Y-92535359D01*
X143650000Y-92598663D01*
X143555258Y-92535359D01*
X143418767Y-92478822D01*
X143273869Y-92450000D01*
X143126131Y-92450000D01*
X142981233Y-92478822D01*
X142844742Y-92535359D01*
X142721903Y-92617437D01*
X142617437Y-92721903D01*
X142535359Y-92844742D01*
X142478822Y-92981233D01*
X142450000Y-93126131D01*
X140715451Y-93126131D01*
X140813238Y-93028344D01*
X140906260Y-92889126D01*
X140970335Y-92734436D01*
X141003000Y-92570218D01*
X141003000Y-92402782D01*
X140970335Y-92238564D01*
X140906260Y-92083874D01*
X140813238Y-91944656D01*
X140694844Y-91826262D01*
X140555626Y-91733240D01*
X140400936Y-91669165D01*
X140236718Y-91636500D01*
X140069282Y-91636500D01*
X139905064Y-91669165D01*
X139750374Y-91733240D01*
X139611156Y-91826262D01*
X139492762Y-91944656D01*
X139399740Y-92083874D01*
X139335665Y-92238564D01*
X139303000Y-92402782D01*
X129934331Y-92402782D01*
X129907335Y-92267064D01*
X129843260Y-92112374D01*
X129750238Y-91973156D01*
X129631844Y-91854762D01*
X129492626Y-91761740D01*
X129337936Y-91697665D01*
X129173718Y-91665000D01*
X129006282Y-91665000D01*
X128842064Y-91697665D01*
X128687374Y-91761740D01*
X128548156Y-91854762D01*
X128429762Y-91973156D01*
X128336740Y-92112374D01*
X128272665Y-92267064D01*
X128240000Y-92431282D01*
X128220424Y-92431282D01*
X128233489Y-92388215D01*
X128242177Y-92300000D01*
X128242177Y-91463282D01*
X135122930Y-91463282D01*
X135122930Y-91630718D01*
X135155595Y-91794936D01*
X135219670Y-91949626D01*
X135312692Y-92088844D01*
X135431086Y-92207238D01*
X135570304Y-92300260D01*
X135724994Y-92364335D01*
X135889212Y-92397000D01*
X136056648Y-92397000D01*
X136220866Y-92364335D01*
X136375556Y-92300260D01*
X136514774Y-92207238D01*
X136633168Y-92088844D01*
X136726190Y-91949626D01*
X136790265Y-91794936D01*
X136822930Y-91630718D01*
X136822930Y-91463282D01*
X136790265Y-91299064D01*
X136726190Y-91144374D01*
X136633168Y-91005156D01*
X136514774Y-90886762D01*
X136375556Y-90793740D01*
X136220866Y-90729665D01*
X136056648Y-90697000D01*
X135889212Y-90697000D01*
X135724994Y-90729665D01*
X135570304Y-90793740D01*
X135431086Y-90886762D01*
X135312692Y-91005156D01*
X135219670Y-91144374D01*
X135155595Y-91299064D01*
X135122930Y-91463282D01*
X128242177Y-91463282D01*
X128242177Y-90700000D01*
X128233489Y-90611785D01*
X128207757Y-90526959D01*
X128165971Y-90448784D01*
X128112091Y-90383131D01*
X140869632Y-90383131D01*
X140869632Y-90530869D01*
X140898454Y-90675767D01*
X140954991Y-90812258D01*
X141037069Y-90935097D01*
X141141535Y-91039563D01*
X141264374Y-91121641D01*
X141400865Y-91178178D01*
X141545763Y-91207000D01*
X141693501Y-91207000D01*
X141838399Y-91178178D01*
X141974890Y-91121641D01*
X142046816Y-91073582D01*
X142118742Y-91121641D01*
X142255233Y-91178178D01*
X142400131Y-91207000D01*
X142547869Y-91207000D01*
X142692767Y-91178178D01*
X142829258Y-91121641D01*
X142952097Y-91039563D01*
X143056563Y-90935097D01*
X143138641Y-90812258D01*
X143195178Y-90675767D01*
X143224000Y-90530869D01*
X143224000Y-90383131D01*
X143776000Y-90383131D01*
X143776000Y-90530869D01*
X143804822Y-90675767D01*
X143861359Y-90812258D01*
X143943437Y-90935097D01*
X144047903Y-91039563D01*
X144170742Y-91121641D01*
X144307233Y-91178178D01*
X144452131Y-91207000D01*
X144599869Y-91207000D01*
X144744767Y-91178178D01*
X144873245Y-91124960D01*
X144928788Y-91208087D01*
X145033254Y-91312553D01*
X145156093Y-91394631D01*
X145292584Y-91451168D01*
X145437482Y-91479990D01*
X145585220Y-91479990D01*
X145730118Y-91451168D01*
X145866609Y-91394631D01*
X145989448Y-91312553D01*
X146093914Y-91208087D01*
X146175992Y-91085248D01*
X146232529Y-90948757D01*
X146261351Y-90803859D01*
X146261351Y-90656121D01*
X146232529Y-90511223D01*
X146175992Y-90374732D01*
X146093914Y-90251893D01*
X145989448Y-90147427D01*
X145866609Y-90065349D01*
X145730118Y-90008812D01*
X145585220Y-89979990D01*
X145437482Y-89979990D01*
X145292584Y-90008812D01*
X145164106Y-90062030D01*
X145108563Y-89978903D01*
X145004097Y-89874437D01*
X144881258Y-89792359D01*
X144744767Y-89735822D01*
X144599869Y-89707000D01*
X144452131Y-89707000D01*
X144307233Y-89735822D01*
X144170742Y-89792359D01*
X144047903Y-89874437D01*
X143943437Y-89978903D01*
X143861359Y-90101742D01*
X143804822Y-90238233D01*
X143776000Y-90383131D01*
X143224000Y-90383131D01*
X143195178Y-90238233D01*
X143138641Y-90101742D01*
X143056563Y-89978903D01*
X142952097Y-89874437D01*
X142829258Y-89792359D01*
X142692767Y-89735822D01*
X142547869Y-89707000D01*
X142400131Y-89707000D01*
X142255233Y-89735822D01*
X142118742Y-89792359D01*
X142046816Y-89840418D01*
X141974890Y-89792359D01*
X141838399Y-89735822D01*
X141693501Y-89707000D01*
X141545763Y-89707000D01*
X141400865Y-89735822D01*
X141264374Y-89792359D01*
X141141535Y-89874437D01*
X141037069Y-89978903D01*
X140954991Y-90101742D01*
X140898454Y-90238233D01*
X140869632Y-90383131D01*
X128112091Y-90383131D01*
X128109737Y-90380263D01*
X128041216Y-90324029D01*
X127963041Y-90282243D01*
X127878215Y-90256511D01*
X127790000Y-90247823D01*
X126190000Y-90247823D01*
X126101785Y-90256511D01*
X126016959Y-90282243D01*
X125938784Y-90324029D01*
X125870263Y-90380263D01*
X125814029Y-90448784D01*
X125772243Y-90526959D01*
X125746511Y-90611785D01*
X125737823Y-90700000D01*
X125737823Y-92300000D01*
X125746511Y-92388215D01*
X125772243Y-92473041D01*
X125814029Y-92551216D01*
X125870263Y-92619737D01*
X125938784Y-92675971D01*
X126016959Y-92717757D01*
X126101785Y-92743489D01*
X126190000Y-92752177D01*
X126855942Y-92752177D01*
X126625389Y-92798037D01*
X126397903Y-92892265D01*
X126193172Y-93029062D01*
X126019062Y-93203172D01*
X125882265Y-93407903D01*
X125788037Y-93635389D01*
X125740000Y-93876886D01*
X125740000Y-94123114D01*
X125788037Y-94364611D01*
X125882265Y-94592097D01*
X126019062Y-94796828D01*
X126193172Y-94970938D01*
X126236666Y-95000000D01*
X126193172Y-95029062D01*
X126019062Y-95203172D01*
X125882265Y-95407903D01*
X125788037Y-95635389D01*
X125740000Y-95876886D01*
X125740000Y-96123114D01*
X125788037Y-96364611D01*
X125882265Y-96592097D01*
X126019062Y-96796828D01*
X126193172Y-96970938D01*
X126397903Y-97107735D01*
X126499940Y-97150000D01*
X120475000Y-97150000D01*
X120475000Y-94591782D01*
X122789500Y-94591782D01*
X122789500Y-94759218D01*
X122822165Y-94923436D01*
X122886240Y-95078126D01*
X122979262Y-95217344D01*
X123097656Y-95335738D01*
X123236874Y-95428760D01*
X123391564Y-95492835D01*
X123555782Y-95525500D01*
X123723218Y-95525500D01*
X123887436Y-95492835D01*
X124042126Y-95428760D01*
X124115000Y-95380067D01*
X124187874Y-95428760D01*
X124342564Y-95492835D01*
X124506782Y-95525500D01*
X124674218Y-95525500D01*
X124838436Y-95492835D01*
X124993126Y-95428760D01*
X125132344Y-95335738D01*
X125250738Y-95217344D01*
X125343760Y-95078126D01*
X125407835Y-94923436D01*
X125440500Y-94759218D01*
X125440500Y-94591782D01*
X125407835Y-94427564D01*
X125343760Y-94272874D01*
X125250738Y-94133656D01*
X125132344Y-94015262D01*
X124993126Y-93922240D01*
X124838436Y-93858165D01*
X124674218Y-93825500D01*
X124506782Y-93825500D01*
X124342564Y-93858165D01*
X124187874Y-93922240D01*
X124115000Y-93970933D01*
X124042126Y-93922240D01*
X123887436Y-93858165D01*
X123723218Y-93825500D01*
X123555782Y-93825500D01*
X123391564Y-93858165D01*
X123236874Y-93922240D01*
X123097656Y-94015262D01*
X122979262Y-94133656D01*
X122886240Y-94272874D01*
X122822165Y-94427564D01*
X122789500Y-94591782D01*
X120475000Y-94591782D01*
X120475000Y-91117282D01*
X121855000Y-91117282D01*
X121855000Y-91284718D01*
X121887665Y-91448936D01*
X121951740Y-91603626D01*
X122044762Y-91742844D01*
X122163156Y-91861238D01*
X122302374Y-91954260D01*
X122457064Y-92018335D01*
X122621282Y-92051000D01*
X122788718Y-92051000D01*
X122952936Y-92018335D01*
X123107626Y-91954260D01*
X123246844Y-91861238D01*
X123365238Y-91742844D01*
X123458260Y-91603626D01*
X123522335Y-91448936D01*
X123555000Y-91284718D01*
X123555000Y-91117282D01*
X123522335Y-90953064D01*
X123458260Y-90798374D01*
X123365238Y-90659156D01*
X123246844Y-90540762D01*
X123107626Y-90447740D01*
X122952936Y-90383665D01*
X122788718Y-90351000D01*
X122621282Y-90351000D01*
X122457064Y-90383665D01*
X122302374Y-90447740D01*
X122163156Y-90540762D01*
X122044762Y-90659156D01*
X121951740Y-90798374D01*
X121887665Y-90953064D01*
X121855000Y-91117282D01*
X120475000Y-91117282D01*
X120475000Y-89628131D01*
X147381430Y-89628131D01*
X147381430Y-89775869D01*
X147410252Y-89920767D01*
X147466789Y-90057258D01*
X147548867Y-90180097D01*
X147653333Y-90284563D01*
X147776172Y-90366641D01*
X147912663Y-90423178D01*
X148057561Y-90452000D01*
X148205299Y-90452000D01*
X148350197Y-90423178D01*
X148486688Y-90366641D01*
X148609527Y-90284563D01*
X148713993Y-90180097D01*
X148796071Y-90057258D01*
X148852608Y-89920767D01*
X148881430Y-89775869D01*
X148881430Y-89628131D01*
X148852608Y-89483233D01*
X148796071Y-89346742D01*
X148713993Y-89223903D01*
X148609527Y-89119437D01*
X148486688Y-89037359D01*
X148350197Y-88980822D01*
X148205299Y-88952000D01*
X148057561Y-88952000D01*
X147912663Y-88980822D01*
X147776172Y-89037359D01*
X147653333Y-89119437D01*
X147548867Y-89223903D01*
X147466789Y-89346742D01*
X147410252Y-89483233D01*
X147381430Y-89628131D01*
X120475000Y-89628131D01*
X120475000Y-87307942D01*
X122330000Y-87307942D01*
X122330000Y-87692058D01*
X122404938Y-88068794D01*
X122551933Y-88423671D01*
X122765336Y-88743052D01*
X123036948Y-89014664D01*
X123356329Y-89228067D01*
X123711206Y-89375062D01*
X124087942Y-89450000D01*
X124472058Y-89450000D01*
X124848794Y-89375062D01*
X125203671Y-89228067D01*
X125523052Y-89014664D01*
X125794664Y-88743052D01*
X126008067Y-88423671D01*
X126049504Y-88323631D01*
X140799250Y-88323631D01*
X140799250Y-88471369D01*
X140828072Y-88616267D01*
X140884609Y-88752758D01*
X140966687Y-88875597D01*
X141071153Y-88980063D01*
X141193992Y-89062141D01*
X141330483Y-89118678D01*
X141475381Y-89147500D01*
X141623119Y-89147500D01*
X141768017Y-89118678D01*
X141904508Y-89062141D01*
X142027347Y-88980063D01*
X142131813Y-88875597D01*
X142213891Y-88752758D01*
X142270428Y-88616267D01*
X142299250Y-88471369D01*
X142299250Y-88323631D01*
X142270428Y-88178733D01*
X142213891Y-88042242D01*
X142131813Y-87919403D01*
X142027347Y-87814937D01*
X141904508Y-87732859D01*
X141768017Y-87676322D01*
X141623119Y-87647500D01*
X141475381Y-87647500D01*
X141330483Y-87676322D01*
X141193992Y-87732859D01*
X141071153Y-87814937D01*
X140966687Y-87919403D01*
X140884609Y-88042242D01*
X140828072Y-88178733D01*
X140799250Y-88323631D01*
X126049504Y-88323631D01*
X126155062Y-88068794D01*
X126230000Y-87692058D01*
X126230000Y-87307942D01*
X126155062Y-86931206D01*
X126008067Y-86576329D01*
X125794664Y-86256948D01*
X125523052Y-85985336D01*
X125203671Y-85771933D01*
X124848794Y-85624938D01*
X124472058Y-85550000D01*
X124087942Y-85550000D01*
X123711206Y-85624938D01*
X123356329Y-85771933D01*
X123036948Y-85985336D01*
X122765336Y-86256948D01*
X122551933Y-86576329D01*
X122404938Y-86931206D01*
X122330000Y-87307942D01*
X120475000Y-87307942D01*
X120475000Y-78990000D01*
X126729710Y-78990000D01*
X126754810Y-79244845D01*
X126829145Y-79489896D01*
X126949860Y-79715736D01*
X127112313Y-79913687D01*
X127310264Y-80076140D01*
X127536104Y-80196855D01*
X127744266Y-80260000D01*
X127536104Y-80323145D01*
X127310264Y-80443860D01*
X127112313Y-80606313D01*
X126949860Y-80804264D01*
X126829145Y-81030104D01*
X126754810Y-81275155D01*
X126729710Y-81530000D01*
X126754810Y-81784845D01*
X126829145Y-82029896D01*
X126949860Y-82255736D01*
X127112313Y-82453687D01*
X127310264Y-82616140D01*
X127536104Y-82736855D01*
X127744266Y-82800000D01*
X127536104Y-82863145D01*
X127310264Y-82983860D01*
X127112313Y-83146313D01*
X126949860Y-83344264D01*
X126829145Y-83570104D01*
X126754810Y-83815155D01*
X126729710Y-84070000D01*
X126754810Y-84324845D01*
X126829145Y-84569896D01*
X126949860Y-84795736D01*
X127112313Y-84993687D01*
X127310264Y-85156140D01*
X127536104Y-85276855D01*
X127781155Y-85351190D01*
X127972136Y-85370000D01*
X128099864Y-85370000D01*
X128290845Y-85351190D01*
X128535896Y-85276855D01*
X128761736Y-85156140D01*
X128959687Y-84993687D01*
X129122140Y-84795736D01*
X129242855Y-84569896D01*
X129301586Y-84376282D01*
X132700000Y-84376282D01*
X132700000Y-84543718D01*
X132732665Y-84707936D01*
X132796740Y-84862626D01*
X132889762Y-85001844D01*
X133008156Y-85120238D01*
X133147374Y-85213260D01*
X133302064Y-85277335D01*
X133466282Y-85310000D01*
X133633718Y-85310000D01*
X133797936Y-85277335D01*
X133952626Y-85213260D01*
X134091844Y-85120238D01*
X134206842Y-85005240D01*
X134201880Y-85017220D01*
X134150000Y-85278037D01*
X134150000Y-85543963D01*
X134201880Y-85804780D01*
X134303646Y-86050465D01*
X134451387Y-86271575D01*
X134639425Y-86459613D01*
X134860535Y-86607354D01*
X135106220Y-86709120D01*
X135367037Y-86761000D01*
X135632963Y-86761000D01*
X135893780Y-86709120D01*
X136139465Y-86607354D01*
X136360575Y-86459613D01*
X136383406Y-86436782D01*
X138748750Y-86436782D01*
X138748750Y-86604218D01*
X138781415Y-86768436D01*
X138845490Y-86923126D01*
X138938512Y-87062344D01*
X139056906Y-87180738D01*
X139196124Y-87273760D01*
X139350814Y-87337835D01*
X139515032Y-87370500D01*
X139682468Y-87370500D01*
X139846686Y-87337835D01*
X140001376Y-87273760D01*
X140140594Y-87180738D01*
X140258988Y-87062344D01*
X140352010Y-86923126D01*
X140416085Y-86768436D01*
X140448750Y-86604218D01*
X140448750Y-86436782D01*
X140699250Y-86436782D01*
X140699250Y-86604218D01*
X140731915Y-86768436D01*
X140795990Y-86923126D01*
X140889012Y-87062344D01*
X141007406Y-87180738D01*
X141146624Y-87273760D01*
X141301314Y-87337835D01*
X141465532Y-87370500D01*
X141632968Y-87370500D01*
X141797186Y-87337835D01*
X141951876Y-87273760D01*
X142091094Y-87180738D01*
X142209488Y-87062344D01*
X142302510Y-86923126D01*
X142366585Y-86768436D01*
X142399250Y-86604218D01*
X142399250Y-86436782D01*
X142649250Y-86436782D01*
X142649250Y-86604218D01*
X142681915Y-86768436D01*
X142745990Y-86923126D01*
X142839012Y-87062344D01*
X142957406Y-87180738D01*
X143096624Y-87273760D01*
X143251314Y-87337835D01*
X143415532Y-87370500D01*
X143582968Y-87370500D01*
X143747186Y-87337835D01*
X143901876Y-87273760D01*
X144041094Y-87180738D01*
X144159488Y-87062344D01*
X144252510Y-86923126D01*
X144316585Y-86768436D01*
X144349250Y-86604218D01*
X144349250Y-86436782D01*
X144316585Y-86272564D01*
X144252510Y-86117874D01*
X144246101Y-86108282D01*
X144781428Y-86108282D01*
X144781428Y-86275718D01*
X144814093Y-86439936D01*
X144878168Y-86594626D01*
X144971190Y-86733844D01*
X145089584Y-86852238D01*
X145228802Y-86945260D01*
X145383492Y-87009335D01*
X145547710Y-87042000D01*
X145715146Y-87042000D01*
X145879364Y-87009335D01*
X146034054Y-86945260D01*
X146173272Y-86852238D01*
X146291666Y-86733844D01*
X146384688Y-86594626D01*
X146448763Y-86439936D01*
X146481428Y-86275718D01*
X146481428Y-86108282D01*
X146448763Y-85944064D01*
X146384688Y-85789374D01*
X146291666Y-85650156D01*
X146173272Y-85531762D01*
X146034054Y-85438740D01*
X145879364Y-85374665D01*
X145715146Y-85342000D01*
X145547710Y-85342000D01*
X145383492Y-85374665D01*
X145228802Y-85438740D01*
X145089584Y-85531762D01*
X144971190Y-85650156D01*
X144878168Y-85789374D01*
X144814093Y-85944064D01*
X144781428Y-86108282D01*
X144246101Y-86108282D01*
X144159488Y-85978656D01*
X144041094Y-85860262D01*
X143901876Y-85767240D01*
X143747186Y-85703165D01*
X143582968Y-85670500D01*
X143415532Y-85670500D01*
X143251314Y-85703165D01*
X143096624Y-85767240D01*
X142957406Y-85860262D01*
X142839012Y-85978656D01*
X142745990Y-86117874D01*
X142681915Y-86272564D01*
X142649250Y-86436782D01*
X142399250Y-86436782D01*
X142366585Y-86272564D01*
X142302510Y-86117874D01*
X142209488Y-85978656D01*
X142091094Y-85860262D01*
X141951876Y-85767240D01*
X141797186Y-85703165D01*
X141632968Y-85670500D01*
X141465532Y-85670500D01*
X141301314Y-85703165D01*
X141146624Y-85767240D01*
X141007406Y-85860262D01*
X140889012Y-85978656D01*
X140795990Y-86117874D01*
X140731915Y-86272564D01*
X140699250Y-86436782D01*
X140448750Y-86436782D01*
X140416085Y-86272564D01*
X140352010Y-86117874D01*
X140258988Y-85978656D01*
X140140594Y-85860262D01*
X140001376Y-85767240D01*
X139846686Y-85703165D01*
X139682468Y-85670500D01*
X139515032Y-85670500D01*
X139350814Y-85703165D01*
X139196124Y-85767240D01*
X139056906Y-85860262D01*
X138938512Y-85978656D01*
X138845490Y-86117874D01*
X138781415Y-86272564D01*
X138748750Y-86436782D01*
X136383406Y-86436782D01*
X136548613Y-86271575D01*
X136696354Y-86050465D01*
X136798120Y-85804780D01*
X136850000Y-85543963D01*
X136850000Y-85302659D01*
X155400000Y-85302659D01*
X155400000Y-85519341D01*
X155442273Y-85731858D01*
X155525193Y-85932045D01*
X155645575Y-86112209D01*
X155798791Y-86265425D01*
X155978955Y-86385807D01*
X156179142Y-86468727D01*
X156391659Y-86511000D01*
X156608341Y-86511000D01*
X156820858Y-86468727D01*
X157021045Y-86385807D01*
X157201209Y-86265425D01*
X157354425Y-86112209D01*
X157474807Y-85932045D01*
X157557727Y-85731858D01*
X157600000Y-85519341D01*
X157600000Y-85302659D01*
X157557727Y-85090142D01*
X157474807Y-84889955D01*
X157354425Y-84709791D01*
X157201209Y-84556575D01*
X157021045Y-84436193D01*
X156876407Y-84376282D01*
X157800000Y-84376282D01*
X157800000Y-84543718D01*
X157832665Y-84707936D01*
X157896740Y-84862626D01*
X157989762Y-85001844D01*
X158108156Y-85120238D01*
X158247374Y-85213260D01*
X158402064Y-85277335D01*
X158566282Y-85310000D01*
X158733718Y-85310000D01*
X158897936Y-85277335D01*
X159052626Y-85213260D01*
X159191844Y-85120238D01*
X159310238Y-85001844D01*
X159403260Y-84862626D01*
X159467335Y-84707936D01*
X159500000Y-84543718D01*
X159500000Y-84376282D01*
X159467335Y-84212064D01*
X159403260Y-84057374D01*
X159310238Y-83918156D01*
X159191844Y-83799762D01*
X159052626Y-83706740D01*
X158897936Y-83642665D01*
X158733718Y-83610000D01*
X158566282Y-83610000D01*
X158402064Y-83642665D01*
X158247374Y-83706740D01*
X158108156Y-83799762D01*
X157989762Y-83918156D01*
X157896740Y-84057374D01*
X157832665Y-84212064D01*
X157800000Y-84376282D01*
X156876407Y-84376282D01*
X156820858Y-84353273D01*
X156608341Y-84311000D01*
X156391659Y-84311000D01*
X156179142Y-84353273D01*
X155978955Y-84436193D01*
X155798791Y-84556575D01*
X155645575Y-84709791D01*
X155525193Y-84889955D01*
X155442273Y-85090142D01*
X155400000Y-85302659D01*
X136850000Y-85302659D01*
X136850000Y-85278037D01*
X136798120Y-85017220D01*
X136696354Y-84771535D01*
X136548613Y-84550425D01*
X136360575Y-84362387D01*
X136139465Y-84214646D01*
X135893780Y-84112880D01*
X135632963Y-84061000D01*
X135367037Y-84061000D01*
X135106220Y-84112880D01*
X134860535Y-84214646D01*
X134639425Y-84362387D01*
X134451387Y-84550425D01*
X134376318Y-84662773D01*
X134400000Y-84543718D01*
X134400000Y-84376282D01*
X134367335Y-84212064D01*
X134303260Y-84057374D01*
X134210238Y-83918156D01*
X134091844Y-83799762D01*
X133952626Y-83706740D01*
X133797936Y-83642665D01*
X133633718Y-83610000D01*
X133466282Y-83610000D01*
X133302064Y-83642665D01*
X133147374Y-83706740D01*
X133008156Y-83799762D01*
X132889762Y-83918156D01*
X132796740Y-84057374D01*
X132732665Y-84212064D01*
X132700000Y-84376282D01*
X129301586Y-84376282D01*
X129317190Y-84324845D01*
X129342290Y-84070000D01*
X129317190Y-83815155D01*
X129242855Y-83570104D01*
X129122140Y-83344264D01*
X128999875Y-83195282D01*
X146225785Y-83195282D01*
X146225785Y-83362718D01*
X146258450Y-83526936D01*
X146322525Y-83681626D01*
X146415547Y-83820844D01*
X146533941Y-83939238D01*
X146673159Y-84032260D01*
X146827849Y-84096335D01*
X146992067Y-84129000D01*
X147159503Y-84129000D01*
X147323721Y-84096335D01*
X147478411Y-84032260D01*
X147617629Y-83939238D01*
X147736023Y-83820844D01*
X147829045Y-83681626D01*
X147893120Y-83526936D01*
X147925785Y-83362718D01*
X147925785Y-83195282D01*
X148245142Y-83195282D01*
X148245142Y-83362718D01*
X148277807Y-83526936D01*
X148341882Y-83681626D01*
X148434904Y-83820844D01*
X148553298Y-83939238D01*
X148692516Y-84032260D01*
X148847206Y-84096335D01*
X149011424Y-84129000D01*
X149178860Y-84129000D01*
X149343078Y-84096335D01*
X149497768Y-84032260D01*
X149636986Y-83939238D01*
X149755380Y-83820844D01*
X149848402Y-83681626D01*
X149912477Y-83526936D01*
X149945142Y-83362718D01*
X149945142Y-83195282D01*
X149912477Y-83031064D01*
X149848402Y-82876374D01*
X149755380Y-82737156D01*
X149636986Y-82618762D01*
X149497768Y-82525740D01*
X149343078Y-82461665D01*
X149178860Y-82429000D01*
X149011424Y-82429000D01*
X148847206Y-82461665D01*
X148692516Y-82525740D01*
X148553298Y-82618762D01*
X148434904Y-82737156D01*
X148341882Y-82876374D01*
X148277807Y-83031064D01*
X148245142Y-83195282D01*
X147925785Y-83195282D01*
X147893120Y-83031064D01*
X147829045Y-82876374D01*
X147736023Y-82737156D01*
X147617629Y-82618762D01*
X147478411Y-82525740D01*
X147323721Y-82461665D01*
X147159503Y-82429000D01*
X146992067Y-82429000D01*
X146827849Y-82461665D01*
X146673159Y-82525740D01*
X146533941Y-82618762D01*
X146415547Y-82737156D01*
X146322525Y-82876374D01*
X146258450Y-83031064D01*
X146225785Y-83195282D01*
X128999875Y-83195282D01*
X128959687Y-83146313D01*
X128761736Y-82983860D01*
X128535896Y-82863145D01*
X128327734Y-82800000D01*
X128535896Y-82736855D01*
X128761736Y-82616140D01*
X128959687Y-82453687D01*
X129122140Y-82255736D01*
X129242855Y-82029896D01*
X129317190Y-81784845D01*
X129342290Y-81530000D01*
X129335015Y-81456131D01*
X131958000Y-81456131D01*
X131958000Y-81603869D01*
X131986822Y-81748767D01*
X132043359Y-81885258D01*
X132125437Y-82008097D01*
X132229903Y-82112563D01*
X132352742Y-82194641D01*
X132489233Y-82251178D01*
X132634131Y-82280000D01*
X132781869Y-82280000D01*
X132882415Y-82260000D01*
X162113710Y-82260000D01*
X162138810Y-82514845D01*
X162213145Y-82759896D01*
X162333860Y-82985736D01*
X162496313Y-83183687D01*
X162694264Y-83346140D01*
X162920104Y-83466855D01*
X163165155Y-83541190D01*
X163356136Y-83560000D01*
X163483864Y-83560000D01*
X163674845Y-83541190D01*
X163919896Y-83466855D01*
X164145736Y-83346140D01*
X164343687Y-83183687D01*
X164506140Y-82985736D01*
X164626855Y-82759896D01*
X164690000Y-82551734D01*
X164753145Y-82759896D01*
X164873860Y-82985736D01*
X165036313Y-83183687D01*
X165234264Y-83346140D01*
X165460104Y-83466855D01*
X165705155Y-83541190D01*
X165896136Y-83560000D01*
X166023864Y-83560000D01*
X166214845Y-83541190D01*
X166459896Y-83466855D01*
X166685736Y-83346140D01*
X166883687Y-83183687D01*
X167046140Y-82985736D01*
X167166855Y-82759896D01*
X167241190Y-82514845D01*
X167266290Y-82260000D01*
X167241190Y-82005155D01*
X167166855Y-81760104D01*
X167046140Y-81534264D01*
X166883687Y-81336313D01*
X166685736Y-81173860D01*
X166459896Y-81053145D01*
X166251734Y-80990000D01*
X166459896Y-80926855D01*
X166685736Y-80806140D01*
X166883687Y-80643687D01*
X167046140Y-80445736D01*
X167166855Y-80219896D01*
X167241190Y-79974845D01*
X167266290Y-79720000D01*
X167241190Y-79465155D01*
X167166855Y-79220104D01*
X167046140Y-78994264D01*
X166883687Y-78796313D01*
X166685736Y-78633860D01*
X166459896Y-78513145D01*
X166214845Y-78438810D01*
X166023864Y-78420000D01*
X165896136Y-78420000D01*
X165705155Y-78438810D01*
X165460104Y-78513145D01*
X165234264Y-78633860D01*
X165036313Y-78796313D01*
X164873860Y-78994264D01*
X164753145Y-79220104D01*
X164722177Y-79322192D01*
X164722177Y-78870000D01*
X164713489Y-78781785D01*
X164687757Y-78696959D01*
X164645971Y-78618784D01*
X164589737Y-78550263D01*
X164521216Y-78494029D01*
X164443041Y-78452243D01*
X164358215Y-78426511D01*
X164270000Y-78417823D01*
X162570000Y-78417823D01*
X162481785Y-78426511D01*
X162396959Y-78452243D01*
X162318784Y-78494029D01*
X162250263Y-78550263D01*
X162194029Y-78618784D01*
X162152243Y-78696959D01*
X162126511Y-78781785D01*
X162117823Y-78870000D01*
X162117823Y-80570000D01*
X162126511Y-80658215D01*
X162152243Y-80743041D01*
X162194029Y-80821216D01*
X162250263Y-80889737D01*
X162318784Y-80945971D01*
X162396959Y-80987757D01*
X162481785Y-81013489D01*
X162570000Y-81022177D01*
X163022192Y-81022177D01*
X162920104Y-81053145D01*
X162694264Y-81173860D01*
X162496313Y-81336313D01*
X162333860Y-81534264D01*
X162213145Y-81760104D01*
X162138810Y-82005155D01*
X162113710Y-82260000D01*
X132882415Y-82260000D01*
X132926767Y-82251178D01*
X133063258Y-82194641D01*
X133186097Y-82112563D01*
X133290563Y-82008097D01*
X133372641Y-81885258D01*
X133429178Y-81748767D01*
X133458000Y-81603869D01*
X133458000Y-81456131D01*
X133429178Y-81311233D01*
X133372641Y-81174742D01*
X133290563Y-81051903D01*
X133186097Y-80947437D01*
X133063258Y-80865359D01*
X132926767Y-80808822D01*
X132781869Y-80780000D01*
X132634131Y-80780000D01*
X132489233Y-80808822D01*
X132352742Y-80865359D01*
X132229903Y-80947437D01*
X132125437Y-81051903D01*
X132043359Y-81174742D01*
X131986822Y-81311233D01*
X131958000Y-81456131D01*
X129335015Y-81456131D01*
X129317190Y-81275155D01*
X129242855Y-81030104D01*
X129122140Y-80804264D01*
X128959687Y-80606313D01*
X128761736Y-80443860D01*
X128535896Y-80323145D01*
X128327734Y-80260000D01*
X128535896Y-80196855D01*
X128574385Y-80176282D01*
X142084000Y-80176282D01*
X142084000Y-80343718D01*
X142116665Y-80507936D01*
X142180740Y-80662626D01*
X142273762Y-80801844D01*
X142392156Y-80920238D01*
X142531374Y-81013260D01*
X142686064Y-81077335D01*
X142850282Y-81110000D01*
X143017718Y-81110000D01*
X143181936Y-81077335D01*
X143336626Y-81013260D01*
X143475844Y-80920238D01*
X143594238Y-80801844D01*
X143687260Y-80662626D01*
X143751335Y-80507936D01*
X143784000Y-80343718D01*
X143784000Y-80176282D01*
X143751335Y-80012064D01*
X143687260Y-79857374D01*
X143594238Y-79718156D01*
X143475844Y-79599762D01*
X143336626Y-79506740D01*
X143181936Y-79442665D01*
X143017718Y-79410000D01*
X142850282Y-79410000D01*
X142686064Y-79442665D01*
X142531374Y-79506740D01*
X142392156Y-79599762D01*
X142273762Y-79718156D01*
X142180740Y-79857374D01*
X142116665Y-80012064D01*
X142084000Y-80176282D01*
X128574385Y-80176282D01*
X128761736Y-80076140D01*
X128959687Y-79913687D01*
X129122140Y-79715736D01*
X129242855Y-79489896D01*
X129317190Y-79244845D01*
X129342290Y-78990000D01*
X129317190Y-78735155D01*
X129242855Y-78490104D01*
X129122140Y-78264264D01*
X128959687Y-78066313D01*
X128761736Y-77903860D01*
X128535896Y-77783145D01*
X128433808Y-77752177D01*
X128886000Y-77752177D01*
X128974215Y-77743489D01*
X129059041Y-77717757D01*
X129137216Y-77675971D01*
X129205737Y-77619737D01*
X129261971Y-77551216D01*
X129303757Y-77473041D01*
X129329489Y-77388215D01*
X129338177Y-77300000D01*
X129338177Y-75600000D01*
X129329489Y-75511785D01*
X129303757Y-75426959D01*
X129261971Y-75348784D01*
X129205737Y-75280263D01*
X129137216Y-75224029D01*
X129059041Y-75182243D01*
X128974215Y-75156511D01*
X128886000Y-75147823D01*
X127186000Y-75147823D01*
X127097785Y-75156511D01*
X127012959Y-75182243D01*
X126934784Y-75224029D01*
X126866263Y-75280263D01*
X126810029Y-75348784D01*
X126768243Y-75426959D01*
X126742511Y-75511785D01*
X126733823Y-75600000D01*
X126733823Y-77300000D01*
X126742511Y-77388215D01*
X126768243Y-77473041D01*
X126810029Y-77551216D01*
X126866263Y-77619737D01*
X126934784Y-77675971D01*
X127012959Y-77717757D01*
X127097785Y-77743489D01*
X127186000Y-77752177D01*
X127638192Y-77752177D01*
X127536104Y-77783145D01*
X127310264Y-77903860D01*
X127112313Y-78066313D01*
X126949860Y-78264264D01*
X126829145Y-78490104D01*
X126754810Y-78735155D01*
X126729710Y-78990000D01*
X120475000Y-78990000D01*
X120475000Y-73828894D01*
X120651601Y-74255246D01*
X120941611Y-74689276D01*
X121310724Y-75058389D01*
X121744754Y-75348399D01*
X122227024Y-75548162D01*
X122738998Y-75650000D01*
X123261002Y-75650000D01*
X123772976Y-75548162D01*
X124255246Y-75348399D01*
X124689276Y-75058389D01*
X125058389Y-74689276D01*
X125348399Y-74255246D01*
X125545549Y-73779282D01*
X130500000Y-73779282D01*
X130500000Y-73946718D01*
X130532665Y-74110936D01*
X130596740Y-74265626D01*
X130689762Y-74404844D01*
X130808156Y-74523238D01*
X130947374Y-74616260D01*
X131102064Y-74680335D01*
X131266282Y-74713000D01*
X131433718Y-74713000D01*
X131597936Y-74680335D01*
X131752626Y-74616260D01*
X131891844Y-74523238D01*
X132010238Y-74404844D01*
X132103260Y-74265626D01*
X132112101Y-74244282D01*
X138871000Y-74244282D01*
X138871000Y-74411718D01*
X138903665Y-74575936D01*
X138967740Y-74730626D01*
X139060762Y-74869844D01*
X139179156Y-74988238D01*
X139318374Y-75081260D01*
X139473064Y-75145335D01*
X139637282Y-75178000D01*
X139804718Y-75178000D01*
X139968936Y-75145335D01*
X140123626Y-75081260D01*
X140262844Y-74988238D01*
X140381238Y-74869844D01*
X140474260Y-74730626D01*
X140538335Y-74575936D01*
X140571000Y-74411718D01*
X140571000Y-74244282D01*
X140538335Y-74080064D01*
X140474260Y-73925374D01*
X140381238Y-73786156D01*
X140374364Y-73779282D01*
X157800000Y-73779282D01*
X157800000Y-73946718D01*
X157832665Y-74110936D01*
X157896740Y-74265626D01*
X157989762Y-74404844D01*
X158108156Y-74523238D01*
X158247374Y-74616260D01*
X158402064Y-74680335D01*
X158566282Y-74713000D01*
X158733718Y-74713000D01*
X158897936Y-74680335D01*
X159052626Y-74616260D01*
X159191844Y-74523238D01*
X159310238Y-74404844D01*
X159403260Y-74265626D01*
X159467335Y-74110936D01*
X159500000Y-73946718D01*
X159500000Y-73779282D01*
X159467335Y-73615064D01*
X159403260Y-73460374D01*
X159310238Y-73321156D01*
X159191844Y-73202762D01*
X159052626Y-73109740D01*
X158897936Y-73045665D01*
X158733718Y-73013000D01*
X158566282Y-73013000D01*
X158402064Y-73045665D01*
X158247374Y-73109740D01*
X158108156Y-73202762D01*
X157989762Y-73321156D01*
X157896740Y-73460374D01*
X157832665Y-73615064D01*
X157800000Y-73779282D01*
X140374364Y-73779282D01*
X140262844Y-73667762D01*
X140123626Y-73574740D01*
X139968936Y-73510665D01*
X139804718Y-73478000D01*
X139637282Y-73478000D01*
X139473064Y-73510665D01*
X139318374Y-73574740D01*
X139179156Y-73667762D01*
X139060762Y-73786156D01*
X138967740Y-73925374D01*
X138903665Y-74080064D01*
X138871000Y-74244282D01*
X132112101Y-74244282D01*
X132167335Y-74110936D01*
X132200000Y-73946718D01*
X132200000Y-73779282D01*
X132167335Y-73615064D01*
X132103260Y-73460374D01*
X132010238Y-73321156D01*
X131891844Y-73202762D01*
X131752626Y-73109740D01*
X131597936Y-73045665D01*
X131433718Y-73013000D01*
X131266282Y-73013000D01*
X131102064Y-73045665D01*
X130947374Y-73109740D01*
X130808156Y-73202762D01*
X130689762Y-73321156D01*
X130596740Y-73460374D01*
X130532665Y-73615064D01*
X130500000Y-73779282D01*
X125545549Y-73779282D01*
X125548162Y-73772976D01*
X125650000Y-73261002D01*
X125650000Y-72738998D01*
X125548162Y-72227024D01*
X125348399Y-71744754D01*
X125058389Y-71310724D01*
X124689276Y-70941611D01*
X124255246Y-70651601D01*
X123828894Y-70475000D01*
X166171106Y-70475000D01*
X165744754Y-70651601D01*
X165744754Y-70651601D01*
G37*
X165744754Y-70651601D02*
X165310724Y-70941611D01*
X164941611Y-71310724D01*
X164651601Y-71744754D01*
X164451838Y-72227024D01*
X164350000Y-72738998D01*
X164350000Y-73261002D01*
X164451838Y-73772976D01*
X164651601Y-74255246D01*
X164941611Y-74689276D01*
X165310724Y-75058389D01*
X165744754Y-75348399D01*
X166227024Y-75548162D01*
X166738998Y-75650000D01*
X167261002Y-75650000D01*
X167772976Y-75548162D01*
X168255246Y-75348399D01*
X168689276Y-75058389D01*
X169058389Y-74689276D01*
X169348399Y-74255246D01*
X169525001Y-73828892D01*
X169525000Y-108960000D01*
X167572104Y-108960000D01*
X167550000Y-108957823D01*
X167466794Y-108957823D01*
X167675736Y-108846140D01*
X167873687Y-108683687D01*
X168036140Y-108485736D01*
X168156855Y-108259896D01*
X168231190Y-108014845D01*
X168256290Y-107760000D01*
X168231190Y-107505155D01*
X168156855Y-107260104D01*
X168036140Y-107034264D01*
X167873687Y-106836313D01*
X167675736Y-106673860D01*
X167449896Y-106553145D01*
X167204845Y-106478810D01*
X167013864Y-106460000D01*
X166586136Y-106460000D01*
X166395155Y-106478810D01*
X166150104Y-106553145D01*
X165924264Y-106673860D01*
X165726313Y-106836313D01*
X165563860Y-107034264D01*
X165443145Y-107260104D01*
X165368810Y-107505155D01*
X165343710Y-107760000D01*
X165368810Y-108014845D01*
X165443145Y-108259896D01*
X165563860Y-108485736D01*
X165726313Y-108683687D01*
X165924264Y-108846140D01*
X166133206Y-108957823D01*
X166050000Y-108957823D01*
X166027896Y-108960000D01*
X161753710Y-108960000D01*
X159018355Y-106224645D01*
X159010779Y-106218427D01*
X159002134Y-106213806D01*
X158992755Y-106210961D01*
X158983000Y-106210000D01*
X133750710Y-106210000D01*
X132450000Y-104909290D01*
X132450000Y-102827282D01*
X135635000Y-102827282D01*
X135635000Y-102994718D01*
X135667665Y-103158936D01*
X135731740Y-103313626D01*
X135824762Y-103452844D01*
X135943156Y-103571238D01*
X136082374Y-103664260D01*
X136237064Y-103728335D01*
X136401282Y-103761000D01*
X136568718Y-103761000D01*
X136732936Y-103728335D01*
X136887626Y-103664260D01*
X137026844Y-103571238D01*
X137145238Y-103452844D01*
X137177118Y-103405131D01*
X137688000Y-103405131D01*
X137688000Y-103552869D01*
X137716822Y-103697767D01*
X137773359Y-103834258D01*
X137855437Y-103957097D01*
X137959903Y-104061563D01*
X138082742Y-104143641D01*
X138219233Y-104200178D01*
X138364131Y-104229000D01*
X138511869Y-104229000D01*
X138656767Y-104200178D01*
X138793258Y-104143641D01*
X138916097Y-104061563D01*
X139020563Y-103957097D01*
X139102641Y-103834258D01*
X139159178Y-103697767D01*
X139188000Y-103552869D01*
X139188000Y-103495282D01*
X139545000Y-103495282D01*
X139545000Y-103662718D01*
X139577665Y-103826936D01*
X139641740Y-103981626D01*
X139734762Y-104120844D01*
X139853156Y-104239238D01*
X139992374Y-104332260D01*
X140147064Y-104396335D01*
X140311282Y-104429000D01*
X140478718Y-104429000D01*
X140642936Y-104396335D01*
X140797626Y-104332260D01*
X140936844Y-104239238D01*
X141055238Y-104120844D01*
X141148260Y-103981626D01*
X141212335Y-103826936D01*
X141245000Y-103662718D01*
X141245000Y-103495282D01*
X141503000Y-103495282D01*
X141503000Y-103662718D01*
X141535665Y-103826936D01*
X141599740Y-103981626D01*
X141692762Y-104120844D01*
X141811156Y-104239238D01*
X141950374Y-104332260D01*
X142105064Y-104396335D01*
X142269282Y-104429000D01*
X142436718Y-104429000D01*
X142600936Y-104396335D01*
X142755626Y-104332260D01*
X142894844Y-104239238D01*
X143013238Y-104120844D01*
X143106260Y-103981626D01*
X143170335Y-103826936D01*
X143203000Y-103662718D01*
X143203000Y-103495282D01*
X143170335Y-103331064D01*
X143106260Y-103176374D01*
X143013238Y-103037156D01*
X142894844Y-102918762D01*
X142755626Y-102825740D01*
X142600936Y-102761665D01*
X142436718Y-102729000D01*
X142269282Y-102729000D01*
X142105064Y-102761665D01*
X141950374Y-102825740D01*
X141811156Y-102918762D01*
X141692762Y-103037156D01*
X141599740Y-103176374D01*
X141535665Y-103331064D01*
X141503000Y-103495282D01*
X141245000Y-103495282D01*
X141212335Y-103331064D01*
X141148260Y-103176374D01*
X141055238Y-103037156D01*
X140936844Y-102918762D01*
X140797626Y-102825740D01*
X140642936Y-102761665D01*
X140478718Y-102729000D01*
X140311282Y-102729000D01*
X140147064Y-102761665D01*
X139992374Y-102825740D01*
X139853156Y-102918762D01*
X139734762Y-103037156D01*
X139641740Y-103176374D01*
X139577665Y-103331064D01*
X139545000Y-103495282D01*
X139188000Y-103495282D01*
X139188000Y-103405131D01*
X139159178Y-103260233D01*
X139102641Y-103123742D01*
X139020563Y-103000903D01*
X138916097Y-102896437D01*
X138793258Y-102814359D01*
X138656767Y-102757822D01*
X138511869Y-102729000D01*
X138364131Y-102729000D01*
X138219233Y-102757822D01*
X138082742Y-102814359D01*
X137959903Y-102896437D01*
X137855437Y-103000903D01*
X137773359Y-103123742D01*
X137716822Y-103260233D01*
X137688000Y-103405131D01*
X137177118Y-103405131D01*
X137238260Y-103313626D01*
X137302335Y-103158936D01*
X137335000Y-102994718D01*
X137335000Y-102827282D01*
X137302335Y-102663064D01*
X137238260Y-102508374D01*
X137203788Y-102456782D01*
X152239000Y-102456782D01*
X152239000Y-102624218D01*
X152271665Y-102788436D01*
X152335740Y-102943126D01*
X152428762Y-103082344D01*
X152547156Y-103200738D01*
X152686374Y-103293760D01*
X152841064Y-103357835D01*
X153005282Y-103390500D01*
X153172718Y-103390500D01*
X153336936Y-103357835D01*
X153491626Y-103293760D01*
X153630844Y-103200738D01*
X153749238Y-103082344D01*
X153842260Y-102943126D01*
X153906335Y-102788436D01*
X153939000Y-102624218D01*
X153939000Y-102456782D01*
X153906335Y-102292564D01*
X153842260Y-102137874D01*
X153749238Y-101998656D01*
X153630844Y-101880262D01*
X153491626Y-101787240D01*
X153336936Y-101723165D01*
X153172718Y-101690500D01*
X153005282Y-101690500D01*
X152841064Y-101723165D01*
X152686374Y-101787240D01*
X152547156Y-101880262D01*
X152428762Y-101998656D01*
X152335740Y-102137874D01*
X152271665Y-102292564D01*
X152239000Y-102456782D01*
X137203788Y-102456782D01*
X137145238Y-102369156D01*
X137026844Y-102250762D01*
X136887626Y-102157740D01*
X136732936Y-102093665D01*
X136568718Y-102061000D01*
X136401282Y-102061000D01*
X136237064Y-102093665D01*
X136082374Y-102157740D01*
X135943156Y-102250762D01*
X135824762Y-102369156D01*
X135731740Y-102508374D01*
X135667665Y-102663064D01*
X135635000Y-102827282D01*
X132450000Y-102827282D01*
X132450000Y-102374010D01*
X132996980Y-102374010D01*
X133023988Y-102376670D01*
X133050996Y-102374010D01*
X133051006Y-102374010D01*
X133131807Y-102366052D01*
X133235482Y-102334602D01*
X133331030Y-102283531D01*
X133414778Y-102214800D01*
X133432001Y-102193814D01*
X134106533Y-101519282D01*
X150011500Y-101519282D01*
X150011500Y-101686718D01*
X150044165Y-101850936D01*
X150108240Y-102005626D01*
X150201262Y-102144844D01*
X150319656Y-102263238D01*
X150458874Y-102356260D01*
X150613564Y-102420335D01*
X150777782Y-102453000D01*
X150945218Y-102453000D01*
X151109436Y-102420335D01*
X151264126Y-102356260D01*
X151403344Y-102263238D01*
X151521738Y-102144844D01*
X151614760Y-102005626D01*
X151678835Y-101850936D01*
X151711500Y-101686718D01*
X151711500Y-101519282D01*
X151678835Y-101355064D01*
X151614760Y-101200374D01*
X151521738Y-101061156D01*
X151403344Y-100942762D01*
X151264126Y-100849740D01*
X151152057Y-100803319D01*
X163520000Y-100803319D01*
X163520000Y-101236681D01*
X163604545Y-101661716D01*
X163770385Y-102062091D01*
X164011148Y-102422418D01*
X164317582Y-102728852D01*
X164677909Y-102969615D01*
X165078284Y-103135455D01*
X165503319Y-103220000D01*
X165936681Y-103220000D01*
X166361716Y-103135455D01*
X166762091Y-102969615D01*
X167122418Y-102728852D01*
X167428852Y-102422418D01*
X167669615Y-102062091D01*
X167835455Y-101661716D01*
X167920000Y-101236681D01*
X167920000Y-100803319D01*
X167835455Y-100378284D01*
X167669615Y-99977909D01*
X167428852Y-99617582D01*
X167122418Y-99311148D01*
X166762091Y-99070385D01*
X166361716Y-98904545D01*
X165936681Y-98820000D01*
X165503319Y-98820000D01*
X165078284Y-98904545D01*
X164677909Y-99070385D01*
X164317582Y-99311148D01*
X164011148Y-99617582D01*
X163770385Y-99977909D01*
X163604545Y-100378284D01*
X163520000Y-100803319D01*
X151152057Y-100803319D01*
X151109436Y-100785665D01*
X150945218Y-100753000D01*
X150777782Y-100753000D01*
X150613564Y-100785665D01*
X150458874Y-100849740D01*
X150319656Y-100942762D01*
X150201262Y-101061156D01*
X150108240Y-101200374D01*
X150044165Y-101355064D01*
X150011500Y-101519282D01*
X134106533Y-101519282D01*
X136006081Y-99619734D01*
X145703505Y-99619734D01*
X145703505Y-99787170D01*
X145736170Y-99951388D01*
X145800245Y-100106078D01*
X145893267Y-100245296D01*
X146011661Y-100363690D01*
X146150879Y-100456712D01*
X146305569Y-100520787D01*
X146469787Y-100553452D01*
X146637223Y-100553452D01*
X146801441Y-100520787D01*
X146956131Y-100456712D01*
X147095349Y-100363690D01*
X147213743Y-100245296D01*
X147306765Y-100106078D01*
X147370840Y-99951388D01*
X147403505Y-99787170D01*
X147403505Y-99619734D01*
X147370840Y-99455516D01*
X147306765Y-99300826D01*
X147213743Y-99161608D01*
X147147779Y-99095644D01*
X148204000Y-99095644D01*
X148204000Y-99243382D01*
X148232822Y-99388280D01*
X148289359Y-99524771D01*
X148371437Y-99647610D01*
X148475903Y-99752076D01*
X148598742Y-99834154D01*
X148735233Y-99890691D01*
X148880131Y-99919513D01*
X149027869Y-99919513D01*
X149172767Y-99890691D01*
X149309258Y-99834154D01*
X149340721Y-99813131D01*
X155472000Y-99813131D01*
X155472000Y-99960869D01*
X155500822Y-100105767D01*
X155557359Y-100242258D01*
X155639437Y-100365097D01*
X155743903Y-100469563D01*
X155866742Y-100551641D01*
X156003233Y-100608178D01*
X156148131Y-100637000D01*
X156295869Y-100637000D01*
X156440767Y-100608178D01*
X156577258Y-100551641D01*
X156700097Y-100469563D01*
X156804563Y-100365097D01*
X156886641Y-100242258D01*
X156943178Y-100105767D01*
X156972000Y-99960869D01*
X156972000Y-99813131D01*
X156943178Y-99668233D01*
X156886641Y-99531742D01*
X156804563Y-99408903D01*
X156700097Y-99304437D01*
X156577258Y-99222359D01*
X156440767Y-99165822D01*
X156295869Y-99137000D01*
X156148131Y-99137000D01*
X156003233Y-99165822D01*
X155866742Y-99222359D01*
X155743903Y-99304437D01*
X155639437Y-99408903D01*
X155557359Y-99531742D01*
X155500822Y-99668233D01*
X155472000Y-99813131D01*
X149340721Y-99813131D01*
X149432097Y-99752076D01*
X149536563Y-99647610D01*
X149618641Y-99524771D01*
X149675178Y-99388280D01*
X149704000Y-99243382D01*
X149704000Y-99095644D01*
X149675178Y-98950746D01*
X149618641Y-98814255D01*
X149536563Y-98691416D01*
X149432097Y-98586950D01*
X149309258Y-98504872D01*
X149172767Y-98448335D01*
X149027869Y-98419513D01*
X148880131Y-98419513D01*
X148735233Y-98448335D01*
X148598742Y-98504872D01*
X148475903Y-98586950D01*
X148371437Y-98691416D01*
X148289359Y-98814255D01*
X148232822Y-98950746D01*
X148204000Y-99095644D01*
X147147779Y-99095644D01*
X147095349Y-99043214D01*
X146956131Y-98950192D01*
X146801441Y-98886117D01*
X146637223Y-98853452D01*
X146469787Y-98853452D01*
X146305569Y-98886117D01*
X146150879Y-98950192D01*
X146011661Y-99043214D01*
X145893267Y-99161608D01*
X145800245Y-99300826D01*
X145736170Y-99455516D01*
X145703505Y-99619734D01*
X136006081Y-99619734D01*
X140014810Y-95611005D01*
X140027742Y-95619646D01*
X140164233Y-95676183D01*
X140309131Y-95705005D01*
X140456869Y-95705005D01*
X140601767Y-95676183D01*
X140738258Y-95619646D01*
X140861097Y-95537568D01*
X140965563Y-95433102D01*
X141047641Y-95310263D01*
X141104178Y-95173772D01*
X141133000Y-95028874D01*
X141133000Y-94881136D01*
X141104178Y-94736238D01*
X141047641Y-94599747D01*
X140965563Y-94476908D01*
X140879695Y-94391040D01*
X140903000Y-94273879D01*
X140903000Y-94126141D01*
X140874178Y-93981243D01*
X140817641Y-93844752D01*
X140735563Y-93721913D01*
X140631097Y-93617447D01*
X140508258Y-93535369D01*
X140371767Y-93478832D01*
X140226869Y-93450010D01*
X140079131Y-93450010D01*
X139934233Y-93478832D01*
X139797742Y-93535369D01*
X139674903Y-93617447D01*
X139570437Y-93721913D01*
X139488359Y-93844752D01*
X139431822Y-93981243D01*
X139403000Y-94126141D01*
X139403000Y-94172192D01*
X132651193Y-100924000D01*
X132450000Y-100924000D01*
X132450000Y-97950000D01*
X132449039Y-97940245D01*
X132446194Y-97930866D01*
X132441573Y-97922221D01*
X132435355Y-97914645D01*
X131685355Y-97164645D01*
X131677779Y-97158427D01*
X131669134Y-97153806D01*
X131659755Y-97150961D01*
X131650000Y-97150000D01*
X127480060Y-97150000D01*
X127582097Y-97107735D01*
X127786828Y-96970938D01*
X127960938Y-96796828D01*
X128097735Y-96592097D01*
X128191963Y-96364611D01*
X128240000Y-96123114D01*
X128240000Y-95876886D01*
X128191963Y-95635389D01*
X128097735Y-95407903D01*
X127960938Y-95203172D01*
X127786828Y-95029062D01*
X127743334Y-95000000D01*
X127786828Y-94970938D01*
X127960938Y-94796828D01*
X128097735Y-94592097D01*
X128191963Y-94364611D01*
X128240000Y-94123114D01*
X128240000Y-93876886D01*
X128191963Y-93635389D01*
X128097735Y-93407903D01*
X127960938Y-93203172D01*
X127786828Y-93029062D01*
X127582097Y-92892265D01*
X127354611Y-92798037D01*
X127124058Y-92752177D01*
X127790000Y-92752177D01*
X127878215Y-92743489D01*
X127963041Y-92717757D01*
X128041216Y-92675971D01*
X128109737Y-92619737D01*
X128165971Y-92551216D01*
X128207757Y-92473041D01*
X128220424Y-92431282D01*
X128240000Y-92431282D01*
X128240000Y-92598718D01*
X128272665Y-92762936D01*
X128336740Y-92917626D01*
X128429762Y-93056844D01*
X128548156Y-93175238D01*
X128687374Y-93268260D01*
X128842064Y-93332335D01*
X129006282Y-93365000D01*
X129173718Y-93365000D01*
X129337936Y-93332335D01*
X129492626Y-93268260D01*
X129631844Y-93175238D01*
X129750238Y-93056844D01*
X129843260Y-92917626D01*
X129907335Y-92762936D01*
X129940000Y-92598718D01*
X129940000Y-92431282D01*
X129934331Y-92402782D01*
X139303000Y-92402782D01*
X139303000Y-92570218D01*
X139335665Y-92734436D01*
X139399740Y-92889126D01*
X139492762Y-93028344D01*
X139611156Y-93146738D01*
X139750374Y-93239760D01*
X139905064Y-93303835D01*
X140069282Y-93336500D01*
X140236718Y-93336500D01*
X140400936Y-93303835D01*
X140555626Y-93239760D01*
X140694844Y-93146738D01*
X140715451Y-93126131D01*
X142450000Y-93126131D01*
X142450000Y-93273869D01*
X142478822Y-93418767D01*
X142535359Y-93555258D01*
X142598663Y-93650000D01*
X142535359Y-93744742D01*
X142478822Y-93881233D01*
X142450000Y-94026131D01*
X142450000Y-94173869D01*
X142478822Y-94318767D01*
X142535359Y-94455258D01*
X142598663Y-94550000D01*
X142535359Y-94644742D01*
X142478822Y-94781233D01*
X142450000Y-94926131D01*
X142450000Y-95073869D01*
X142478822Y-95218767D01*
X142535359Y-95355258D01*
X142598663Y-95450000D01*
X142535359Y-95544742D01*
X142478822Y-95681233D01*
X142450000Y-95826131D01*
X142450000Y-95973869D01*
X142478822Y-96118767D01*
X142535359Y-96255258D01*
X142598663Y-96350000D01*
X142535359Y-96444742D01*
X142478822Y-96581233D01*
X142450000Y-96726131D01*
X142450000Y-96873869D01*
X142478822Y-97018767D01*
X142535359Y-97155258D01*
X142617437Y-97278097D01*
X142721903Y-97382563D01*
X142844742Y-97464641D01*
X142981233Y-97521178D01*
X143126131Y-97550000D01*
X143273869Y-97550000D01*
X143418767Y-97521178D01*
X143555258Y-97464641D01*
X143650000Y-97401337D01*
X143744742Y-97464641D01*
X143881233Y-97521178D01*
X144026131Y-97550000D01*
X144173869Y-97550000D01*
X144318767Y-97521178D01*
X144455258Y-97464641D01*
X144550000Y-97401337D01*
X144644742Y-97464641D01*
X144781233Y-97521178D01*
X144926131Y-97550000D01*
X145073869Y-97550000D01*
X145218767Y-97521178D01*
X145355258Y-97464641D01*
X145450000Y-97401337D01*
X145544742Y-97464641D01*
X145681233Y-97521178D01*
X145826131Y-97550000D01*
X145973869Y-97550000D01*
X146118767Y-97521178D01*
X146255258Y-97464641D01*
X146350000Y-97401337D01*
X146444742Y-97464641D01*
X146581233Y-97521178D01*
X146726131Y-97550000D01*
X146873869Y-97550000D01*
X147018767Y-97521178D01*
X147155258Y-97464641D01*
X147278097Y-97382563D01*
X147382563Y-97278097D01*
X147464641Y-97155258D01*
X147521178Y-97018767D01*
X147550000Y-96873869D01*
X147550000Y-96726131D01*
X147521178Y-96581233D01*
X147464641Y-96444742D01*
X147401337Y-96350000D01*
X147464641Y-96255258D01*
X147521178Y-96118767D01*
X147550000Y-95973869D01*
X147550000Y-95826131D01*
X147521178Y-95681233D01*
X147464641Y-95544742D01*
X147401337Y-95450000D01*
X147464641Y-95355258D01*
X147521178Y-95218767D01*
X147550000Y-95073869D01*
X147550000Y-94926131D01*
X147521178Y-94781233D01*
X147519065Y-94776131D01*
X148520010Y-94776131D01*
X148520010Y-94923869D01*
X148548832Y-95068767D01*
X148605369Y-95205258D01*
X148687447Y-95328097D01*
X148791913Y-95432563D01*
X148914752Y-95514641D01*
X148949038Y-95528843D01*
X148884159Y-95625942D01*
X148827622Y-95762433D01*
X148798800Y-95907331D01*
X148798800Y-96055069D01*
X148827622Y-96199967D01*
X148884159Y-96336458D01*
X148966237Y-96459297D01*
X149070703Y-96563763D01*
X149193542Y-96645841D01*
X149283874Y-96683258D01*
X149117375Y-96849758D01*
X149117369Y-96849762D01*
X148998975Y-96968156D01*
X148975649Y-97003065D01*
X148949046Y-97035482D01*
X148929275Y-97072470D01*
X148905953Y-97107374D01*
X148889892Y-97146149D01*
X148870116Y-97183146D01*
X148857938Y-97223291D01*
X148841878Y-97262064D01*
X148833690Y-97303229D01*
X148821513Y-97343371D01*
X148817402Y-97385114D01*
X148809213Y-97426282D01*
X148809213Y-97468259D01*
X148805102Y-97510000D01*
X148809213Y-97551741D01*
X148809213Y-97593718D01*
X148817402Y-97634886D01*
X148821513Y-97676629D01*
X148833690Y-97716771D01*
X148841878Y-97757936D01*
X148857938Y-97796709D01*
X148870116Y-97836854D01*
X148889892Y-97873851D01*
X148905953Y-97912626D01*
X148929275Y-97947530D01*
X148949046Y-97984518D01*
X148975650Y-98016936D01*
X148998975Y-98051844D01*
X149028659Y-98081528D01*
X149055265Y-98113948D01*
X149087685Y-98140554D01*
X149117369Y-98170238D01*
X149152277Y-98193563D01*
X149184695Y-98220167D01*
X149221683Y-98239938D01*
X149256587Y-98263260D01*
X149295362Y-98279321D01*
X149332359Y-98299097D01*
X149372504Y-98311275D01*
X149411277Y-98327335D01*
X149452442Y-98335523D01*
X149492584Y-98347700D01*
X149534327Y-98351811D01*
X149575495Y-98360000D01*
X149617472Y-98360000D01*
X149659213Y-98364111D01*
X149700954Y-98360000D01*
X149742931Y-98360000D01*
X149784099Y-98351811D01*
X149825842Y-98347700D01*
X149865984Y-98335523D01*
X149907149Y-98327335D01*
X149945922Y-98311275D01*
X149986067Y-98299097D01*
X150023064Y-98279321D01*
X150061839Y-98263260D01*
X150096743Y-98239938D01*
X150133731Y-98220167D01*
X150166148Y-98193564D01*
X150201057Y-98170238D01*
X150319451Y-98051844D01*
X150319455Y-98051838D01*
X151111019Y-97260275D01*
X151143448Y-97233661D01*
X151249668Y-97104232D01*
X151328597Y-96956568D01*
X151377200Y-96796342D01*
X151389500Y-96671462D01*
X151389500Y-96671454D01*
X151393611Y-96629713D01*
X151389500Y-96587972D01*
X151389500Y-95463282D01*
X151499000Y-95463282D01*
X151499000Y-95630718D01*
X151531665Y-95794936D01*
X151595740Y-95949626D01*
X151688762Y-96088844D01*
X151807156Y-96207238D01*
X151946374Y-96300260D01*
X152101064Y-96364335D01*
X152265282Y-96397000D01*
X152432718Y-96397000D01*
X152596936Y-96364335D01*
X152751626Y-96300260D01*
X152890844Y-96207238D01*
X153009238Y-96088844D01*
X153102260Y-95949626D01*
X153166335Y-95794936D01*
X153199000Y-95630718D01*
X153199000Y-95463282D01*
X153166335Y-95299064D01*
X153102260Y-95144374D01*
X153009238Y-95005156D01*
X152890844Y-94886762D01*
X152751626Y-94793740D01*
X152596936Y-94729665D01*
X152432718Y-94697000D01*
X152265282Y-94697000D01*
X152101064Y-94729665D01*
X151946374Y-94793740D01*
X151807156Y-94886762D01*
X151688762Y-95005156D01*
X151595740Y-95144374D01*
X151531665Y-95299064D01*
X151499000Y-95463282D01*
X151389500Y-95463282D01*
X151389500Y-92866282D01*
X152727000Y-92866282D01*
X152727000Y-93033718D01*
X152759665Y-93197936D01*
X152823740Y-93352626D01*
X152916762Y-93491844D01*
X153035156Y-93610238D01*
X153174374Y-93703260D01*
X153329064Y-93767335D01*
X153493282Y-93800000D01*
X153660718Y-93800000D01*
X153824936Y-93767335D01*
X153979626Y-93703260D01*
X154118844Y-93610238D01*
X154237238Y-93491844D01*
X154330260Y-93352626D01*
X154394335Y-93197936D01*
X154427000Y-93033718D01*
X154427000Y-92900000D01*
X159707823Y-92900000D01*
X159707823Y-94600000D01*
X159716511Y-94688215D01*
X159742243Y-94773041D01*
X159784029Y-94851216D01*
X159840263Y-94919737D01*
X159908784Y-94975971D01*
X159986959Y-95017757D01*
X160071785Y-95043489D01*
X160160000Y-95052177D01*
X160504737Y-95052177D01*
X160394219Y-95097955D01*
X160181298Y-95240224D01*
X160000224Y-95421298D01*
X159857955Y-95634219D01*
X159759958Y-95870804D01*
X159710000Y-96121961D01*
X159710000Y-96378039D01*
X159759958Y-96629196D01*
X159857955Y-96865781D01*
X160000224Y-97078702D01*
X160181298Y-97259776D01*
X160394219Y-97402045D01*
X160630804Y-97500042D01*
X160881961Y-97550000D01*
X161138039Y-97550000D01*
X161389196Y-97500042D01*
X161625781Y-97402045D01*
X161838702Y-97259776D01*
X162010000Y-97088478D01*
X162181298Y-97259776D01*
X162394219Y-97402045D01*
X162630804Y-97500042D01*
X162881961Y-97550000D01*
X163138039Y-97550000D01*
X163389196Y-97500042D01*
X163625781Y-97402045D01*
X163838702Y-97259776D01*
X164019776Y-97078702D01*
X164081528Y-96986282D01*
X166445000Y-96986282D01*
X166445000Y-97153718D01*
X166477665Y-97317936D01*
X166541740Y-97472626D01*
X166634762Y-97611844D01*
X166753156Y-97730238D01*
X166892374Y-97823260D01*
X167047064Y-97887335D01*
X167211282Y-97920000D01*
X167378718Y-97920000D01*
X167542936Y-97887335D01*
X167697626Y-97823260D01*
X167836844Y-97730238D01*
X167955238Y-97611844D01*
X168048260Y-97472626D01*
X168112335Y-97317936D01*
X168145000Y-97153718D01*
X168145000Y-96986282D01*
X168112335Y-96822064D01*
X168048260Y-96667374D01*
X167955238Y-96528156D01*
X167836844Y-96409762D01*
X167697626Y-96316740D01*
X167542936Y-96252665D01*
X167378718Y-96220000D01*
X167211282Y-96220000D01*
X167047064Y-96252665D01*
X166892374Y-96316740D01*
X166753156Y-96409762D01*
X166634762Y-96528156D01*
X166541740Y-96667374D01*
X166477665Y-96822064D01*
X166445000Y-96986282D01*
X164081528Y-96986282D01*
X164162045Y-96865781D01*
X164260042Y-96629196D01*
X164310000Y-96378039D01*
X164310000Y-96121961D01*
X164260042Y-95870804D01*
X164162045Y-95634219D01*
X164019776Y-95421298D01*
X163838702Y-95240224D01*
X163625781Y-95097955D01*
X163389297Y-95000000D01*
X163625781Y-94902045D01*
X163838702Y-94759776D01*
X164019776Y-94578702D01*
X164162045Y-94365781D01*
X164260042Y-94129196D01*
X164310000Y-93878039D01*
X164310000Y-93621961D01*
X164260042Y-93370804D01*
X164162045Y-93134219D01*
X164019776Y-92921298D01*
X163945760Y-92847282D01*
X166445000Y-92847282D01*
X166445000Y-93014718D01*
X166477665Y-93178936D01*
X166541740Y-93333626D01*
X166634762Y-93472844D01*
X166753156Y-93591238D01*
X166892374Y-93684260D01*
X167047064Y-93748335D01*
X167211282Y-93781000D01*
X167378718Y-93781000D01*
X167542936Y-93748335D01*
X167697626Y-93684260D01*
X167836844Y-93591238D01*
X167955238Y-93472844D01*
X168048260Y-93333626D01*
X168112335Y-93178936D01*
X168145000Y-93014718D01*
X168145000Y-92847282D01*
X168112335Y-92683064D01*
X168048260Y-92528374D01*
X167955238Y-92389156D01*
X167836844Y-92270762D01*
X167697626Y-92177740D01*
X167542936Y-92113665D01*
X167378718Y-92081000D01*
X167211282Y-92081000D01*
X167047064Y-92113665D01*
X166892374Y-92177740D01*
X166753156Y-92270762D01*
X166634762Y-92389156D01*
X166541740Y-92528374D01*
X166477665Y-92683064D01*
X166445000Y-92847282D01*
X163945760Y-92847282D01*
X163838702Y-92740224D01*
X163625781Y-92597955D01*
X163389196Y-92499958D01*
X163138039Y-92450000D01*
X162881961Y-92450000D01*
X162630804Y-92499958D01*
X162394219Y-92597955D01*
X162257597Y-92689243D01*
X162235971Y-92648784D01*
X162179737Y-92580263D01*
X162111216Y-92524029D01*
X162033041Y-92482243D01*
X161948215Y-92456511D01*
X161860000Y-92447823D01*
X160160000Y-92447823D01*
X160071785Y-92456511D01*
X159986959Y-92482243D01*
X159908784Y-92524029D01*
X159840263Y-92580263D01*
X159784029Y-92648784D01*
X159742243Y-92726959D01*
X159716511Y-92811785D01*
X159707823Y-92900000D01*
X154427000Y-92900000D01*
X154427000Y-92866282D01*
X154394335Y-92702064D01*
X154330260Y-92547374D01*
X154237238Y-92408156D01*
X154118844Y-92289762D01*
X153979626Y-92196740D01*
X153824936Y-92132665D01*
X153660718Y-92100000D01*
X153493282Y-92100000D01*
X153329064Y-92132665D01*
X153174374Y-92196740D01*
X153035156Y-92289762D01*
X152916762Y-92408156D01*
X152823740Y-92547374D01*
X152759665Y-92702064D01*
X152727000Y-92866282D01*
X151389500Y-92866282D01*
X151389500Y-90915282D01*
X152727000Y-90915282D01*
X152727000Y-91082718D01*
X152759665Y-91246936D01*
X152823740Y-91401626D01*
X152916762Y-91540844D01*
X153035156Y-91659238D01*
X153174374Y-91752260D01*
X153329064Y-91816335D01*
X153493282Y-91849000D01*
X153660718Y-91849000D01*
X153824936Y-91816335D01*
X153864055Y-91800131D01*
X157836000Y-91800131D01*
X157836000Y-91947869D01*
X157864822Y-92092767D01*
X157921359Y-92229258D01*
X158003437Y-92352097D01*
X158107903Y-92456563D01*
X158230742Y-92538641D01*
X158367233Y-92595178D01*
X158512131Y-92624000D01*
X158659869Y-92624000D01*
X158804767Y-92595178D01*
X158941258Y-92538641D01*
X159064097Y-92456563D01*
X159168563Y-92352097D01*
X159250641Y-92229258D01*
X159307178Y-92092767D01*
X159336000Y-91947869D01*
X159336000Y-91800131D01*
X159307178Y-91655233D01*
X159250641Y-91518742D01*
X159168563Y-91395903D01*
X159064097Y-91291437D01*
X158941258Y-91209359D01*
X158804767Y-91152822D01*
X158659869Y-91124000D01*
X158512131Y-91124000D01*
X158367233Y-91152822D01*
X158230742Y-91209359D01*
X158107903Y-91291437D01*
X158003437Y-91395903D01*
X157921359Y-91518742D01*
X157864822Y-91655233D01*
X157836000Y-91800131D01*
X153864055Y-91800131D01*
X153979626Y-91752260D01*
X154118844Y-91659238D01*
X154237238Y-91540844D01*
X154330260Y-91401626D01*
X154394335Y-91246936D01*
X154427000Y-91082718D01*
X154427000Y-90915282D01*
X154394335Y-90751064D01*
X154330260Y-90596374D01*
X154237238Y-90457156D01*
X154118844Y-90338762D01*
X153979626Y-90245740D01*
X153824936Y-90181665D01*
X153660718Y-90149000D01*
X153493282Y-90149000D01*
X153329064Y-90181665D01*
X153174374Y-90245740D01*
X153035156Y-90338762D01*
X152916762Y-90457156D01*
X152823740Y-90596374D01*
X152759665Y-90751064D01*
X152727000Y-90915282D01*
X151389500Y-90915282D01*
X151389500Y-89159462D01*
X151435064Y-89178335D01*
X151599282Y-89211000D01*
X151766718Y-89211000D01*
X151930936Y-89178335D01*
X152085626Y-89114260D01*
X152224844Y-89021238D01*
X152343238Y-88902844D01*
X152436260Y-88763626D01*
X152436387Y-88763319D01*
X163520000Y-88763319D01*
X163520000Y-89196681D01*
X163604545Y-89621716D01*
X163770385Y-90022091D01*
X164011148Y-90382418D01*
X164317582Y-90688852D01*
X164677909Y-90929615D01*
X165078284Y-91095455D01*
X165503319Y-91180000D01*
X165936681Y-91180000D01*
X166361716Y-91095455D01*
X166762091Y-90929615D01*
X167122418Y-90688852D01*
X167428852Y-90382418D01*
X167669615Y-90022091D01*
X167835455Y-89621716D01*
X167920000Y-89196681D01*
X167920000Y-88763319D01*
X167835455Y-88338284D01*
X167669615Y-87937909D01*
X167428852Y-87577582D01*
X167122418Y-87271148D01*
X166762091Y-87030385D01*
X166361716Y-86864545D01*
X165936681Y-86780000D01*
X165503319Y-86780000D01*
X165078284Y-86864545D01*
X164677909Y-87030385D01*
X164317582Y-87271148D01*
X164011148Y-87577582D01*
X163770385Y-87937909D01*
X163604545Y-88338284D01*
X163520000Y-88763319D01*
X152436387Y-88763319D01*
X152500335Y-88608936D01*
X152533000Y-88444718D01*
X152533000Y-88277282D01*
X152500335Y-88113064D01*
X152436260Y-87958374D01*
X152343238Y-87819156D01*
X152224844Y-87700762D01*
X152085626Y-87607740D01*
X151930936Y-87543665D01*
X151766718Y-87511000D01*
X151599282Y-87511000D01*
X151435064Y-87543665D01*
X151389500Y-87562538D01*
X151389500Y-86108282D01*
X151381312Y-86067117D01*
X151377200Y-86025371D01*
X151365023Y-85985228D01*
X151356835Y-85944064D01*
X151340776Y-85905294D01*
X151328597Y-85865145D01*
X151308819Y-85828143D01*
X151292760Y-85789374D01*
X151269444Y-85754479D01*
X151249668Y-85717481D01*
X151223057Y-85685055D01*
X151199738Y-85650156D01*
X151170057Y-85620475D01*
X151143448Y-85588052D01*
X151111026Y-85561444D01*
X151081344Y-85531762D01*
X151046441Y-85508440D01*
X151014018Y-85481832D01*
X150977025Y-85462058D01*
X150942126Y-85438740D01*
X150903353Y-85422680D01*
X150866354Y-85402903D01*
X150826209Y-85390725D01*
X150787436Y-85374665D01*
X150746269Y-85366476D01*
X150706128Y-85354300D01*
X150664384Y-85350188D01*
X150623218Y-85342000D01*
X150581248Y-85342000D01*
X150539500Y-85337888D01*
X150497751Y-85342000D01*
X150455782Y-85342000D01*
X150414617Y-85350188D01*
X150372871Y-85354300D01*
X150332728Y-85366477D01*
X150291564Y-85374665D01*
X150252794Y-85390724D01*
X150212645Y-85402903D01*
X150175643Y-85422681D01*
X150136874Y-85438740D01*
X150101979Y-85462056D01*
X150064981Y-85481832D01*
X150032555Y-85508443D01*
X149997656Y-85531762D01*
X149967975Y-85561443D01*
X149935552Y-85588052D01*
X149908944Y-85620474D01*
X149879262Y-85650156D01*
X149855940Y-85685059D01*
X149829332Y-85717482D01*
X149809558Y-85754475D01*
X149786240Y-85789374D01*
X149770180Y-85828147D01*
X149750403Y-85865146D01*
X149738225Y-85905291D01*
X149722165Y-85944064D01*
X149713976Y-85985231D01*
X149701800Y-86025372D01*
X149697688Y-86067116D01*
X149689500Y-86108282D01*
X149689500Y-86150252D01*
X149689501Y-92675616D01*
X149560718Y-92650000D01*
X149393282Y-92650000D01*
X149229064Y-92682665D01*
X149074374Y-92746740D01*
X148935156Y-92839762D01*
X148816762Y-92958156D01*
X148723740Y-93097374D01*
X148659665Y-93252064D01*
X148627000Y-93416282D01*
X148627000Y-93583718D01*
X148659665Y-93747936D01*
X148723740Y-93902626D01*
X148816762Y-94041844D01*
X148935156Y-94160238D01*
X148950556Y-94170528D01*
X148914752Y-94185359D01*
X148791913Y-94267437D01*
X148687447Y-94371903D01*
X148605369Y-94494742D01*
X148548832Y-94631233D01*
X148520010Y-94776131D01*
X147519065Y-94776131D01*
X147464641Y-94644742D01*
X147401337Y-94550000D01*
X147464641Y-94455258D01*
X147521178Y-94318767D01*
X147550000Y-94173869D01*
X147550000Y-94026131D01*
X147521178Y-93881233D01*
X147464641Y-93744742D01*
X147401337Y-93650000D01*
X147464641Y-93555258D01*
X147521178Y-93418767D01*
X147550000Y-93273869D01*
X147550000Y-93126131D01*
X147521178Y-92981233D01*
X147464641Y-92844742D01*
X147382563Y-92721903D01*
X147278097Y-92617437D01*
X147155258Y-92535359D01*
X147018767Y-92478822D01*
X146873869Y-92450000D01*
X146726131Y-92450000D01*
X146581233Y-92478822D01*
X146444742Y-92535359D01*
X146350000Y-92598663D01*
X146255258Y-92535359D01*
X146118767Y-92478822D01*
X145973869Y-92450000D01*
X145826131Y-92450000D01*
X145681233Y-92478822D01*
X145544742Y-92535359D01*
X145450000Y-92598663D01*
X145355258Y-92535359D01*
X145218767Y-92478822D01*
X145073869Y-92450000D01*
X144926131Y-92450000D01*
X144781233Y-92478822D01*
X144644742Y-92535359D01*
X144550000Y-92598663D01*
X144455258Y-92535359D01*
X144318767Y-92478822D01*
X144173869Y-92450000D01*
X144026131Y-92450000D01*
X143881233Y-92478822D01*
X143744742Y-92535359D01*
X143650000Y-92598663D01*
X143555258Y-92535359D01*
X143418767Y-92478822D01*
X143273869Y-92450000D01*
X143126131Y-92450000D01*
X142981233Y-92478822D01*
X142844742Y-92535359D01*
X142721903Y-92617437D01*
X142617437Y-92721903D01*
X142535359Y-92844742D01*
X142478822Y-92981233D01*
X142450000Y-93126131D01*
X140715451Y-93126131D01*
X140813238Y-93028344D01*
X140906260Y-92889126D01*
X140970335Y-92734436D01*
X141003000Y-92570218D01*
X141003000Y-92402782D01*
X140970335Y-92238564D01*
X140906260Y-92083874D01*
X140813238Y-91944656D01*
X140694844Y-91826262D01*
X140555626Y-91733240D01*
X140400936Y-91669165D01*
X140236718Y-91636500D01*
X140069282Y-91636500D01*
X139905064Y-91669165D01*
X139750374Y-91733240D01*
X139611156Y-91826262D01*
X139492762Y-91944656D01*
X139399740Y-92083874D01*
X139335665Y-92238564D01*
X139303000Y-92402782D01*
X129934331Y-92402782D01*
X129907335Y-92267064D01*
X129843260Y-92112374D01*
X129750238Y-91973156D01*
X129631844Y-91854762D01*
X129492626Y-91761740D01*
X129337936Y-91697665D01*
X129173718Y-91665000D01*
X129006282Y-91665000D01*
X128842064Y-91697665D01*
X128687374Y-91761740D01*
X128548156Y-91854762D01*
X128429762Y-91973156D01*
X128336740Y-92112374D01*
X128272665Y-92267064D01*
X128240000Y-92431282D01*
X128220424Y-92431282D01*
X128233489Y-92388215D01*
X128242177Y-92300000D01*
X128242177Y-91463282D01*
X135122930Y-91463282D01*
X135122930Y-91630718D01*
X135155595Y-91794936D01*
X135219670Y-91949626D01*
X135312692Y-92088844D01*
X135431086Y-92207238D01*
X135570304Y-92300260D01*
X135724994Y-92364335D01*
X135889212Y-92397000D01*
X136056648Y-92397000D01*
X136220866Y-92364335D01*
X136375556Y-92300260D01*
X136514774Y-92207238D01*
X136633168Y-92088844D01*
X136726190Y-91949626D01*
X136790265Y-91794936D01*
X136822930Y-91630718D01*
X136822930Y-91463282D01*
X136790265Y-91299064D01*
X136726190Y-91144374D01*
X136633168Y-91005156D01*
X136514774Y-90886762D01*
X136375556Y-90793740D01*
X136220866Y-90729665D01*
X136056648Y-90697000D01*
X135889212Y-90697000D01*
X135724994Y-90729665D01*
X135570304Y-90793740D01*
X135431086Y-90886762D01*
X135312692Y-91005156D01*
X135219670Y-91144374D01*
X135155595Y-91299064D01*
X135122930Y-91463282D01*
X128242177Y-91463282D01*
X128242177Y-90700000D01*
X128233489Y-90611785D01*
X128207757Y-90526959D01*
X128165971Y-90448784D01*
X128112091Y-90383131D01*
X140869632Y-90383131D01*
X140869632Y-90530869D01*
X140898454Y-90675767D01*
X140954991Y-90812258D01*
X141037069Y-90935097D01*
X141141535Y-91039563D01*
X141264374Y-91121641D01*
X141400865Y-91178178D01*
X141545763Y-91207000D01*
X141693501Y-91207000D01*
X141838399Y-91178178D01*
X141974890Y-91121641D01*
X142046816Y-91073582D01*
X142118742Y-91121641D01*
X142255233Y-91178178D01*
X142400131Y-91207000D01*
X142547869Y-91207000D01*
X142692767Y-91178178D01*
X142829258Y-91121641D01*
X142952097Y-91039563D01*
X143056563Y-90935097D01*
X143138641Y-90812258D01*
X143195178Y-90675767D01*
X143224000Y-90530869D01*
X143224000Y-90383131D01*
X143776000Y-90383131D01*
X143776000Y-90530869D01*
X143804822Y-90675767D01*
X143861359Y-90812258D01*
X143943437Y-90935097D01*
X144047903Y-91039563D01*
X144170742Y-91121641D01*
X144307233Y-91178178D01*
X144452131Y-91207000D01*
X144599869Y-91207000D01*
X144744767Y-91178178D01*
X144873245Y-91124960D01*
X144928788Y-91208087D01*
X145033254Y-91312553D01*
X145156093Y-91394631D01*
X145292584Y-91451168D01*
X145437482Y-91479990D01*
X145585220Y-91479990D01*
X145730118Y-91451168D01*
X145866609Y-91394631D01*
X145989448Y-91312553D01*
X146093914Y-91208087D01*
X146175992Y-91085248D01*
X146232529Y-90948757D01*
X146261351Y-90803859D01*
X146261351Y-90656121D01*
X146232529Y-90511223D01*
X146175992Y-90374732D01*
X146093914Y-90251893D01*
X145989448Y-90147427D01*
X145866609Y-90065349D01*
X145730118Y-90008812D01*
X145585220Y-89979990D01*
X145437482Y-89979990D01*
X145292584Y-90008812D01*
X145164106Y-90062030D01*
X145108563Y-89978903D01*
X145004097Y-89874437D01*
X144881258Y-89792359D01*
X144744767Y-89735822D01*
X144599869Y-89707000D01*
X144452131Y-89707000D01*
X144307233Y-89735822D01*
X144170742Y-89792359D01*
X144047903Y-89874437D01*
X143943437Y-89978903D01*
X143861359Y-90101742D01*
X143804822Y-90238233D01*
X143776000Y-90383131D01*
X143224000Y-90383131D01*
X143195178Y-90238233D01*
X143138641Y-90101742D01*
X143056563Y-89978903D01*
X142952097Y-89874437D01*
X142829258Y-89792359D01*
X142692767Y-89735822D01*
X142547869Y-89707000D01*
X142400131Y-89707000D01*
X142255233Y-89735822D01*
X142118742Y-89792359D01*
X142046816Y-89840418D01*
X141974890Y-89792359D01*
X141838399Y-89735822D01*
X141693501Y-89707000D01*
X141545763Y-89707000D01*
X141400865Y-89735822D01*
X141264374Y-89792359D01*
X141141535Y-89874437D01*
X141037069Y-89978903D01*
X140954991Y-90101742D01*
X140898454Y-90238233D01*
X140869632Y-90383131D01*
X128112091Y-90383131D01*
X128109737Y-90380263D01*
X128041216Y-90324029D01*
X127963041Y-90282243D01*
X127878215Y-90256511D01*
X127790000Y-90247823D01*
X126190000Y-90247823D01*
X126101785Y-90256511D01*
X126016959Y-90282243D01*
X125938784Y-90324029D01*
X125870263Y-90380263D01*
X125814029Y-90448784D01*
X125772243Y-90526959D01*
X125746511Y-90611785D01*
X125737823Y-90700000D01*
X125737823Y-92300000D01*
X125746511Y-92388215D01*
X125772243Y-92473041D01*
X125814029Y-92551216D01*
X125870263Y-92619737D01*
X125938784Y-92675971D01*
X126016959Y-92717757D01*
X126101785Y-92743489D01*
X126190000Y-92752177D01*
X126855942Y-92752177D01*
X126625389Y-92798037D01*
X126397903Y-92892265D01*
X126193172Y-93029062D01*
X126019062Y-93203172D01*
X125882265Y-93407903D01*
X125788037Y-93635389D01*
X125740000Y-93876886D01*
X125740000Y-94123114D01*
X125788037Y-94364611D01*
X125882265Y-94592097D01*
X126019062Y-94796828D01*
X126193172Y-94970938D01*
X126236666Y-95000000D01*
X126193172Y-95029062D01*
X126019062Y-95203172D01*
X125882265Y-95407903D01*
X125788037Y-95635389D01*
X125740000Y-95876886D01*
X125740000Y-96123114D01*
X125788037Y-96364611D01*
X125882265Y-96592097D01*
X126019062Y-96796828D01*
X126193172Y-96970938D01*
X126397903Y-97107735D01*
X126499940Y-97150000D01*
X120475000Y-97150000D01*
X120475000Y-94591782D01*
X122789500Y-94591782D01*
X122789500Y-94759218D01*
X122822165Y-94923436D01*
X122886240Y-95078126D01*
X122979262Y-95217344D01*
X123097656Y-95335738D01*
X123236874Y-95428760D01*
X123391564Y-95492835D01*
X123555782Y-95525500D01*
X123723218Y-95525500D01*
X123887436Y-95492835D01*
X124042126Y-95428760D01*
X124115000Y-95380067D01*
X124187874Y-95428760D01*
X124342564Y-95492835D01*
X124506782Y-95525500D01*
X124674218Y-95525500D01*
X124838436Y-95492835D01*
X124993126Y-95428760D01*
X125132344Y-95335738D01*
X125250738Y-95217344D01*
X125343760Y-95078126D01*
X125407835Y-94923436D01*
X125440500Y-94759218D01*
X125440500Y-94591782D01*
X125407835Y-94427564D01*
X125343760Y-94272874D01*
X125250738Y-94133656D01*
X125132344Y-94015262D01*
X124993126Y-93922240D01*
X124838436Y-93858165D01*
X124674218Y-93825500D01*
X124506782Y-93825500D01*
X124342564Y-93858165D01*
X124187874Y-93922240D01*
X124115000Y-93970933D01*
X124042126Y-93922240D01*
X123887436Y-93858165D01*
X123723218Y-93825500D01*
X123555782Y-93825500D01*
X123391564Y-93858165D01*
X123236874Y-93922240D01*
X123097656Y-94015262D01*
X122979262Y-94133656D01*
X122886240Y-94272874D01*
X122822165Y-94427564D01*
X122789500Y-94591782D01*
X120475000Y-94591782D01*
X120475000Y-91117282D01*
X121855000Y-91117282D01*
X121855000Y-91284718D01*
X121887665Y-91448936D01*
X121951740Y-91603626D01*
X122044762Y-91742844D01*
X122163156Y-91861238D01*
X122302374Y-91954260D01*
X122457064Y-92018335D01*
X122621282Y-92051000D01*
X122788718Y-92051000D01*
X122952936Y-92018335D01*
X123107626Y-91954260D01*
X123246844Y-91861238D01*
X123365238Y-91742844D01*
X123458260Y-91603626D01*
X123522335Y-91448936D01*
X123555000Y-91284718D01*
X123555000Y-91117282D01*
X123522335Y-90953064D01*
X123458260Y-90798374D01*
X123365238Y-90659156D01*
X123246844Y-90540762D01*
X123107626Y-90447740D01*
X122952936Y-90383665D01*
X122788718Y-90351000D01*
X122621282Y-90351000D01*
X122457064Y-90383665D01*
X122302374Y-90447740D01*
X122163156Y-90540762D01*
X122044762Y-90659156D01*
X121951740Y-90798374D01*
X121887665Y-90953064D01*
X121855000Y-91117282D01*
X120475000Y-91117282D01*
X120475000Y-89628131D01*
X147381430Y-89628131D01*
X147381430Y-89775869D01*
X147410252Y-89920767D01*
X147466789Y-90057258D01*
X147548867Y-90180097D01*
X147653333Y-90284563D01*
X147776172Y-90366641D01*
X147912663Y-90423178D01*
X148057561Y-90452000D01*
X148205299Y-90452000D01*
X148350197Y-90423178D01*
X148486688Y-90366641D01*
X148609527Y-90284563D01*
X148713993Y-90180097D01*
X148796071Y-90057258D01*
X148852608Y-89920767D01*
X148881430Y-89775869D01*
X148881430Y-89628131D01*
X148852608Y-89483233D01*
X148796071Y-89346742D01*
X148713993Y-89223903D01*
X148609527Y-89119437D01*
X148486688Y-89037359D01*
X148350197Y-88980822D01*
X148205299Y-88952000D01*
X148057561Y-88952000D01*
X147912663Y-88980822D01*
X147776172Y-89037359D01*
X147653333Y-89119437D01*
X147548867Y-89223903D01*
X147466789Y-89346742D01*
X147410252Y-89483233D01*
X147381430Y-89628131D01*
X120475000Y-89628131D01*
X120475000Y-87307942D01*
X122330000Y-87307942D01*
X122330000Y-87692058D01*
X122404938Y-88068794D01*
X122551933Y-88423671D01*
X122765336Y-88743052D01*
X123036948Y-89014664D01*
X123356329Y-89228067D01*
X123711206Y-89375062D01*
X124087942Y-89450000D01*
X124472058Y-89450000D01*
X124848794Y-89375062D01*
X125203671Y-89228067D01*
X125523052Y-89014664D01*
X125794664Y-88743052D01*
X126008067Y-88423671D01*
X126049504Y-88323631D01*
X140799250Y-88323631D01*
X140799250Y-88471369D01*
X140828072Y-88616267D01*
X140884609Y-88752758D01*
X140966687Y-88875597D01*
X141071153Y-88980063D01*
X141193992Y-89062141D01*
X141330483Y-89118678D01*
X141475381Y-89147500D01*
X141623119Y-89147500D01*
X141768017Y-89118678D01*
X141904508Y-89062141D01*
X142027347Y-88980063D01*
X142131813Y-88875597D01*
X142213891Y-88752758D01*
X142270428Y-88616267D01*
X142299250Y-88471369D01*
X142299250Y-88323631D01*
X142270428Y-88178733D01*
X142213891Y-88042242D01*
X142131813Y-87919403D01*
X142027347Y-87814937D01*
X141904508Y-87732859D01*
X141768017Y-87676322D01*
X141623119Y-87647500D01*
X141475381Y-87647500D01*
X141330483Y-87676322D01*
X141193992Y-87732859D01*
X141071153Y-87814937D01*
X140966687Y-87919403D01*
X140884609Y-88042242D01*
X140828072Y-88178733D01*
X140799250Y-88323631D01*
X126049504Y-88323631D01*
X126155062Y-88068794D01*
X126230000Y-87692058D01*
X126230000Y-87307942D01*
X126155062Y-86931206D01*
X126008067Y-86576329D01*
X125794664Y-86256948D01*
X125523052Y-85985336D01*
X125203671Y-85771933D01*
X124848794Y-85624938D01*
X124472058Y-85550000D01*
X124087942Y-85550000D01*
X123711206Y-85624938D01*
X123356329Y-85771933D01*
X123036948Y-85985336D01*
X122765336Y-86256948D01*
X122551933Y-86576329D01*
X122404938Y-86931206D01*
X122330000Y-87307942D01*
X120475000Y-87307942D01*
X120475000Y-78990000D01*
X126729710Y-78990000D01*
X126754810Y-79244845D01*
X126829145Y-79489896D01*
X126949860Y-79715736D01*
X127112313Y-79913687D01*
X127310264Y-80076140D01*
X127536104Y-80196855D01*
X127744266Y-80260000D01*
X127536104Y-80323145D01*
X127310264Y-80443860D01*
X127112313Y-80606313D01*
X126949860Y-80804264D01*
X126829145Y-81030104D01*
X126754810Y-81275155D01*
X126729710Y-81530000D01*
X126754810Y-81784845D01*
X126829145Y-82029896D01*
X126949860Y-82255736D01*
X127112313Y-82453687D01*
X127310264Y-82616140D01*
X127536104Y-82736855D01*
X127744266Y-82800000D01*
X127536104Y-82863145D01*
X127310264Y-82983860D01*
X127112313Y-83146313D01*
X126949860Y-83344264D01*
X126829145Y-83570104D01*
X126754810Y-83815155D01*
X126729710Y-84070000D01*
X126754810Y-84324845D01*
X126829145Y-84569896D01*
X126949860Y-84795736D01*
X127112313Y-84993687D01*
X127310264Y-85156140D01*
X127536104Y-85276855D01*
X127781155Y-85351190D01*
X127972136Y-85370000D01*
X128099864Y-85370000D01*
X128290845Y-85351190D01*
X128535896Y-85276855D01*
X128761736Y-85156140D01*
X128959687Y-84993687D01*
X129122140Y-84795736D01*
X129242855Y-84569896D01*
X129301586Y-84376282D01*
X132700000Y-84376282D01*
X132700000Y-84543718D01*
X132732665Y-84707936D01*
X132796740Y-84862626D01*
X132889762Y-85001844D01*
X133008156Y-85120238D01*
X133147374Y-85213260D01*
X133302064Y-85277335D01*
X133466282Y-85310000D01*
X133633718Y-85310000D01*
X133797936Y-85277335D01*
X133952626Y-85213260D01*
X134091844Y-85120238D01*
X134206842Y-85005240D01*
X134201880Y-85017220D01*
X134150000Y-85278037D01*
X134150000Y-85543963D01*
X134201880Y-85804780D01*
X134303646Y-86050465D01*
X134451387Y-86271575D01*
X134639425Y-86459613D01*
X134860535Y-86607354D01*
X135106220Y-86709120D01*
X135367037Y-86761000D01*
X135632963Y-86761000D01*
X135893780Y-86709120D01*
X136139465Y-86607354D01*
X136360575Y-86459613D01*
X136383406Y-86436782D01*
X138748750Y-86436782D01*
X138748750Y-86604218D01*
X138781415Y-86768436D01*
X138845490Y-86923126D01*
X138938512Y-87062344D01*
X139056906Y-87180738D01*
X139196124Y-87273760D01*
X139350814Y-87337835D01*
X139515032Y-87370500D01*
X139682468Y-87370500D01*
X139846686Y-87337835D01*
X140001376Y-87273760D01*
X140140594Y-87180738D01*
X140258988Y-87062344D01*
X140352010Y-86923126D01*
X140416085Y-86768436D01*
X140448750Y-86604218D01*
X140448750Y-86436782D01*
X140699250Y-86436782D01*
X140699250Y-86604218D01*
X140731915Y-86768436D01*
X140795990Y-86923126D01*
X140889012Y-87062344D01*
X141007406Y-87180738D01*
X141146624Y-87273760D01*
X141301314Y-87337835D01*
X141465532Y-87370500D01*
X141632968Y-87370500D01*
X141797186Y-87337835D01*
X141951876Y-87273760D01*
X142091094Y-87180738D01*
X142209488Y-87062344D01*
X142302510Y-86923126D01*
X142366585Y-86768436D01*
X142399250Y-86604218D01*
X142399250Y-86436782D01*
X142649250Y-86436782D01*
X142649250Y-86604218D01*
X142681915Y-86768436D01*
X142745990Y-86923126D01*
X142839012Y-87062344D01*
X142957406Y-87180738D01*
X143096624Y-87273760D01*
X143251314Y-87337835D01*
X143415532Y-87370500D01*
X143582968Y-87370500D01*
X143747186Y-87337835D01*
X143901876Y-87273760D01*
X144041094Y-87180738D01*
X144159488Y-87062344D01*
X144252510Y-86923126D01*
X144316585Y-86768436D01*
X144349250Y-86604218D01*
X144349250Y-86436782D01*
X144316585Y-86272564D01*
X144252510Y-86117874D01*
X144246101Y-86108282D01*
X144781428Y-86108282D01*
X144781428Y-86275718D01*
X144814093Y-86439936D01*
X144878168Y-86594626D01*
X144971190Y-86733844D01*
X145089584Y-86852238D01*
X145228802Y-86945260D01*
X145383492Y-87009335D01*
X145547710Y-87042000D01*
X145715146Y-87042000D01*
X145879364Y-87009335D01*
X146034054Y-86945260D01*
X146173272Y-86852238D01*
X146291666Y-86733844D01*
X146384688Y-86594626D01*
X146448763Y-86439936D01*
X146481428Y-86275718D01*
X146481428Y-86108282D01*
X146448763Y-85944064D01*
X146384688Y-85789374D01*
X146291666Y-85650156D01*
X146173272Y-85531762D01*
X146034054Y-85438740D01*
X145879364Y-85374665D01*
X145715146Y-85342000D01*
X145547710Y-85342000D01*
X145383492Y-85374665D01*
X145228802Y-85438740D01*
X145089584Y-85531762D01*
X144971190Y-85650156D01*
X144878168Y-85789374D01*
X144814093Y-85944064D01*
X144781428Y-86108282D01*
X144246101Y-86108282D01*
X144159488Y-85978656D01*
X144041094Y-85860262D01*
X143901876Y-85767240D01*
X143747186Y-85703165D01*
X143582968Y-85670500D01*
X143415532Y-85670500D01*
X143251314Y-85703165D01*
X143096624Y-85767240D01*
X142957406Y-85860262D01*
X142839012Y-85978656D01*
X142745990Y-86117874D01*
X142681915Y-86272564D01*
X142649250Y-86436782D01*
X142399250Y-86436782D01*
X142366585Y-86272564D01*
X142302510Y-86117874D01*
X142209488Y-85978656D01*
X142091094Y-85860262D01*
X141951876Y-85767240D01*
X141797186Y-85703165D01*
X141632968Y-85670500D01*
X141465532Y-85670500D01*
X141301314Y-85703165D01*
X141146624Y-85767240D01*
X141007406Y-85860262D01*
X140889012Y-85978656D01*
X140795990Y-86117874D01*
X140731915Y-86272564D01*
X140699250Y-86436782D01*
X140448750Y-86436782D01*
X140416085Y-86272564D01*
X140352010Y-86117874D01*
X140258988Y-85978656D01*
X140140594Y-85860262D01*
X140001376Y-85767240D01*
X139846686Y-85703165D01*
X139682468Y-85670500D01*
X139515032Y-85670500D01*
X139350814Y-85703165D01*
X139196124Y-85767240D01*
X139056906Y-85860262D01*
X138938512Y-85978656D01*
X138845490Y-86117874D01*
X138781415Y-86272564D01*
X138748750Y-86436782D01*
X136383406Y-86436782D01*
X136548613Y-86271575D01*
X136696354Y-86050465D01*
X136798120Y-85804780D01*
X136850000Y-85543963D01*
X136850000Y-85302659D01*
X155400000Y-85302659D01*
X155400000Y-85519341D01*
X155442273Y-85731858D01*
X155525193Y-85932045D01*
X155645575Y-86112209D01*
X155798791Y-86265425D01*
X155978955Y-86385807D01*
X156179142Y-86468727D01*
X156391659Y-86511000D01*
X156608341Y-86511000D01*
X156820858Y-86468727D01*
X157021045Y-86385807D01*
X157201209Y-86265425D01*
X157354425Y-86112209D01*
X157474807Y-85932045D01*
X157557727Y-85731858D01*
X157600000Y-85519341D01*
X157600000Y-85302659D01*
X157557727Y-85090142D01*
X157474807Y-84889955D01*
X157354425Y-84709791D01*
X157201209Y-84556575D01*
X157021045Y-84436193D01*
X156876407Y-84376282D01*
X157800000Y-84376282D01*
X157800000Y-84543718D01*
X157832665Y-84707936D01*
X157896740Y-84862626D01*
X157989762Y-85001844D01*
X158108156Y-85120238D01*
X158247374Y-85213260D01*
X158402064Y-85277335D01*
X158566282Y-85310000D01*
X158733718Y-85310000D01*
X158897936Y-85277335D01*
X159052626Y-85213260D01*
X159191844Y-85120238D01*
X159310238Y-85001844D01*
X159403260Y-84862626D01*
X159467335Y-84707936D01*
X159500000Y-84543718D01*
X159500000Y-84376282D01*
X159467335Y-84212064D01*
X159403260Y-84057374D01*
X159310238Y-83918156D01*
X159191844Y-83799762D01*
X159052626Y-83706740D01*
X158897936Y-83642665D01*
X158733718Y-83610000D01*
X158566282Y-83610000D01*
X158402064Y-83642665D01*
X158247374Y-83706740D01*
X158108156Y-83799762D01*
X157989762Y-83918156D01*
X157896740Y-84057374D01*
X157832665Y-84212064D01*
X157800000Y-84376282D01*
X156876407Y-84376282D01*
X156820858Y-84353273D01*
X156608341Y-84311000D01*
X156391659Y-84311000D01*
X156179142Y-84353273D01*
X155978955Y-84436193D01*
X155798791Y-84556575D01*
X155645575Y-84709791D01*
X155525193Y-84889955D01*
X155442273Y-85090142D01*
X155400000Y-85302659D01*
X136850000Y-85302659D01*
X136850000Y-85278037D01*
X136798120Y-85017220D01*
X136696354Y-84771535D01*
X136548613Y-84550425D01*
X136360575Y-84362387D01*
X136139465Y-84214646D01*
X135893780Y-84112880D01*
X135632963Y-84061000D01*
X135367037Y-84061000D01*
X135106220Y-84112880D01*
X134860535Y-84214646D01*
X134639425Y-84362387D01*
X134451387Y-84550425D01*
X134376318Y-84662773D01*
X134400000Y-84543718D01*
X134400000Y-84376282D01*
X134367335Y-84212064D01*
X134303260Y-84057374D01*
X134210238Y-83918156D01*
X134091844Y-83799762D01*
X133952626Y-83706740D01*
X133797936Y-83642665D01*
X133633718Y-83610000D01*
X133466282Y-83610000D01*
X133302064Y-83642665D01*
X133147374Y-83706740D01*
X133008156Y-83799762D01*
X132889762Y-83918156D01*
X132796740Y-84057374D01*
X132732665Y-84212064D01*
X132700000Y-84376282D01*
X129301586Y-84376282D01*
X129317190Y-84324845D01*
X129342290Y-84070000D01*
X129317190Y-83815155D01*
X129242855Y-83570104D01*
X129122140Y-83344264D01*
X128999875Y-83195282D01*
X146225785Y-83195282D01*
X146225785Y-83362718D01*
X146258450Y-83526936D01*
X146322525Y-83681626D01*
X146415547Y-83820844D01*
X146533941Y-83939238D01*
X146673159Y-84032260D01*
X146827849Y-84096335D01*
X146992067Y-84129000D01*
X147159503Y-84129000D01*
X147323721Y-84096335D01*
X147478411Y-84032260D01*
X147617629Y-83939238D01*
X147736023Y-83820844D01*
X147829045Y-83681626D01*
X147893120Y-83526936D01*
X147925785Y-83362718D01*
X147925785Y-83195282D01*
X148245142Y-83195282D01*
X148245142Y-83362718D01*
X148277807Y-83526936D01*
X148341882Y-83681626D01*
X148434904Y-83820844D01*
X148553298Y-83939238D01*
X148692516Y-84032260D01*
X148847206Y-84096335D01*
X149011424Y-84129000D01*
X149178860Y-84129000D01*
X149343078Y-84096335D01*
X149497768Y-84032260D01*
X149636986Y-83939238D01*
X149755380Y-83820844D01*
X149848402Y-83681626D01*
X149912477Y-83526936D01*
X149945142Y-83362718D01*
X149945142Y-83195282D01*
X149912477Y-83031064D01*
X149848402Y-82876374D01*
X149755380Y-82737156D01*
X149636986Y-82618762D01*
X149497768Y-82525740D01*
X149343078Y-82461665D01*
X149178860Y-82429000D01*
X149011424Y-82429000D01*
X148847206Y-82461665D01*
X148692516Y-82525740D01*
X148553298Y-82618762D01*
X148434904Y-82737156D01*
X148341882Y-82876374D01*
X148277807Y-83031064D01*
X148245142Y-83195282D01*
X147925785Y-83195282D01*
X147893120Y-83031064D01*
X147829045Y-82876374D01*
X147736023Y-82737156D01*
X147617629Y-82618762D01*
X147478411Y-82525740D01*
X147323721Y-82461665D01*
X147159503Y-82429000D01*
X146992067Y-82429000D01*
X146827849Y-82461665D01*
X146673159Y-82525740D01*
X146533941Y-82618762D01*
X146415547Y-82737156D01*
X146322525Y-82876374D01*
X146258450Y-83031064D01*
X146225785Y-83195282D01*
X128999875Y-83195282D01*
X128959687Y-83146313D01*
X128761736Y-82983860D01*
X128535896Y-82863145D01*
X128327734Y-82800000D01*
X128535896Y-82736855D01*
X128761736Y-82616140D01*
X128959687Y-82453687D01*
X129122140Y-82255736D01*
X129242855Y-82029896D01*
X129317190Y-81784845D01*
X129342290Y-81530000D01*
X129335015Y-81456131D01*
X131958000Y-81456131D01*
X131958000Y-81603869D01*
X131986822Y-81748767D01*
X132043359Y-81885258D01*
X132125437Y-82008097D01*
X132229903Y-82112563D01*
X132352742Y-82194641D01*
X132489233Y-82251178D01*
X132634131Y-82280000D01*
X132781869Y-82280000D01*
X132882415Y-82260000D01*
X162113710Y-82260000D01*
X162138810Y-82514845D01*
X162213145Y-82759896D01*
X162333860Y-82985736D01*
X162496313Y-83183687D01*
X162694264Y-83346140D01*
X162920104Y-83466855D01*
X163165155Y-83541190D01*
X163356136Y-83560000D01*
X163483864Y-83560000D01*
X163674845Y-83541190D01*
X163919896Y-83466855D01*
X164145736Y-83346140D01*
X164343687Y-83183687D01*
X164506140Y-82985736D01*
X164626855Y-82759896D01*
X164690000Y-82551734D01*
X164753145Y-82759896D01*
X164873860Y-82985736D01*
X165036313Y-83183687D01*
X165234264Y-83346140D01*
X165460104Y-83466855D01*
X165705155Y-83541190D01*
X165896136Y-83560000D01*
X166023864Y-83560000D01*
X166214845Y-83541190D01*
X166459896Y-83466855D01*
X166685736Y-83346140D01*
X166883687Y-83183687D01*
X167046140Y-82985736D01*
X167166855Y-82759896D01*
X167241190Y-82514845D01*
X167266290Y-82260000D01*
X167241190Y-82005155D01*
X167166855Y-81760104D01*
X167046140Y-81534264D01*
X166883687Y-81336313D01*
X166685736Y-81173860D01*
X166459896Y-81053145D01*
X166251734Y-80990000D01*
X166459896Y-80926855D01*
X166685736Y-80806140D01*
X166883687Y-80643687D01*
X167046140Y-80445736D01*
X167166855Y-80219896D01*
X167241190Y-79974845D01*
X167266290Y-79720000D01*
X167241190Y-79465155D01*
X167166855Y-79220104D01*
X167046140Y-78994264D01*
X166883687Y-78796313D01*
X166685736Y-78633860D01*
X166459896Y-78513145D01*
X166214845Y-78438810D01*
X166023864Y-78420000D01*
X165896136Y-78420000D01*
X165705155Y-78438810D01*
X165460104Y-78513145D01*
X165234264Y-78633860D01*
X165036313Y-78796313D01*
X164873860Y-78994264D01*
X164753145Y-79220104D01*
X164722177Y-79322192D01*
X164722177Y-78870000D01*
X164713489Y-78781785D01*
X164687757Y-78696959D01*
X164645971Y-78618784D01*
X164589737Y-78550263D01*
X164521216Y-78494029D01*
X164443041Y-78452243D01*
X164358215Y-78426511D01*
X164270000Y-78417823D01*
X162570000Y-78417823D01*
X162481785Y-78426511D01*
X162396959Y-78452243D01*
X162318784Y-78494029D01*
X162250263Y-78550263D01*
X162194029Y-78618784D01*
X162152243Y-78696959D01*
X162126511Y-78781785D01*
X162117823Y-78870000D01*
X162117823Y-80570000D01*
X162126511Y-80658215D01*
X162152243Y-80743041D01*
X162194029Y-80821216D01*
X162250263Y-80889737D01*
X162318784Y-80945971D01*
X162396959Y-80987757D01*
X162481785Y-81013489D01*
X162570000Y-81022177D01*
X163022192Y-81022177D01*
X162920104Y-81053145D01*
X162694264Y-81173860D01*
X162496313Y-81336313D01*
X162333860Y-81534264D01*
X162213145Y-81760104D01*
X162138810Y-82005155D01*
X162113710Y-82260000D01*
X132882415Y-82260000D01*
X132926767Y-82251178D01*
X133063258Y-82194641D01*
X133186097Y-82112563D01*
X133290563Y-82008097D01*
X133372641Y-81885258D01*
X133429178Y-81748767D01*
X133458000Y-81603869D01*
X133458000Y-81456131D01*
X133429178Y-81311233D01*
X133372641Y-81174742D01*
X133290563Y-81051903D01*
X133186097Y-80947437D01*
X133063258Y-80865359D01*
X132926767Y-80808822D01*
X132781869Y-80780000D01*
X132634131Y-80780000D01*
X132489233Y-80808822D01*
X132352742Y-80865359D01*
X132229903Y-80947437D01*
X132125437Y-81051903D01*
X132043359Y-81174742D01*
X131986822Y-81311233D01*
X131958000Y-81456131D01*
X129335015Y-81456131D01*
X129317190Y-81275155D01*
X129242855Y-81030104D01*
X129122140Y-80804264D01*
X128959687Y-80606313D01*
X128761736Y-80443860D01*
X128535896Y-80323145D01*
X128327734Y-80260000D01*
X128535896Y-80196855D01*
X128574385Y-80176282D01*
X142084000Y-80176282D01*
X142084000Y-80343718D01*
X142116665Y-80507936D01*
X142180740Y-80662626D01*
X142273762Y-80801844D01*
X142392156Y-80920238D01*
X142531374Y-81013260D01*
X142686064Y-81077335D01*
X142850282Y-81110000D01*
X143017718Y-81110000D01*
X143181936Y-81077335D01*
X143336626Y-81013260D01*
X143475844Y-80920238D01*
X143594238Y-80801844D01*
X143687260Y-80662626D01*
X143751335Y-80507936D01*
X143784000Y-80343718D01*
X143784000Y-80176282D01*
X143751335Y-80012064D01*
X143687260Y-79857374D01*
X143594238Y-79718156D01*
X143475844Y-79599762D01*
X143336626Y-79506740D01*
X143181936Y-79442665D01*
X143017718Y-79410000D01*
X142850282Y-79410000D01*
X142686064Y-79442665D01*
X142531374Y-79506740D01*
X142392156Y-79599762D01*
X142273762Y-79718156D01*
X142180740Y-79857374D01*
X142116665Y-80012064D01*
X142084000Y-80176282D01*
X128574385Y-80176282D01*
X128761736Y-80076140D01*
X128959687Y-79913687D01*
X129122140Y-79715736D01*
X129242855Y-79489896D01*
X129317190Y-79244845D01*
X129342290Y-78990000D01*
X129317190Y-78735155D01*
X129242855Y-78490104D01*
X129122140Y-78264264D01*
X128959687Y-78066313D01*
X128761736Y-77903860D01*
X128535896Y-77783145D01*
X128433808Y-77752177D01*
X128886000Y-77752177D01*
X128974215Y-77743489D01*
X129059041Y-77717757D01*
X129137216Y-77675971D01*
X129205737Y-77619737D01*
X129261971Y-77551216D01*
X129303757Y-77473041D01*
X129329489Y-77388215D01*
X129338177Y-77300000D01*
X129338177Y-75600000D01*
X129329489Y-75511785D01*
X129303757Y-75426959D01*
X129261971Y-75348784D01*
X129205737Y-75280263D01*
X129137216Y-75224029D01*
X129059041Y-75182243D01*
X128974215Y-75156511D01*
X128886000Y-75147823D01*
X127186000Y-75147823D01*
X127097785Y-75156511D01*
X127012959Y-75182243D01*
X126934784Y-75224029D01*
X126866263Y-75280263D01*
X126810029Y-75348784D01*
X126768243Y-75426959D01*
X126742511Y-75511785D01*
X126733823Y-75600000D01*
X126733823Y-77300000D01*
X126742511Y-77388215D01*
X126768243Y-77473041D01*
X126810029Y-77551216D01*
X126866263Y-77619737D01*
X126934784Y-77675971D01*
X127012959Y-77717757D01*
X127097785Y-77743489D01*
X127186000Y-77752177D01*
X127638192Y-77752177D01*
X127536104Y-77783145D01*
X127310264Y-77903860D01*
X127112313Y-78066313D01*
X126949860Y-78264264D01*
X126829145Y-78490104D01*
X126754810Y-78735155D01*
X126729710Y-78990000D01*
X120475000Y-78990000D01*
X120475000Y-73828894D01*
X120651601Y-74255246D01*
X120941611Y-74689276D01*
X121310724Y-75058389D01*
X121744754Y-75348399D01*
X122227024Y-75548162D01*
X122738998Y-75650000D01*
X123261002Y-75650000D01*
X123772976Y-75548162D01*
X124255246Y-75348399D01*
X124689276Y-75058389D01*
X125058389Y-74689276D01*
X125348399Y-74255246D01*
X125545549Y-73779282D01*
X130500000Y-73779282D01*
X130500000Y-73946718D01*
X130532665Y-74110936D01*
X130596740Y-74265626D01*
X130689762Y-74404844D01*
X130808156Y-74523238D01*
X130947374Y-74616260D01*
X131102064Y-74680335D01*
X131266282Y-74713000D01*
X131433718Y-74713000D01*
X131597936Y-74680335D01*
X131752626Y-74616260D01*
X131891844Y-74523238D01*
X132010238Y-74404844D01*
X132103260Y-74265626D01*
X132112101Y-74244282D01*
X138871000Y-74244282D01*
X138871000Y-74411718D01*
X138903665Y-74575936D01*
X138967740Y-74730626D01*
X139060762Y-74869844D01*
X139179156Y-74988238D01*
X139318374Y-75081260D01*
X139473064Y-75145335D01*
X139637282Y-75178000D01*
X139804718Y-75178000D01*
X139968936Y-75145335D01*
X140123626Y-75081260D01*
X140262844Y-74988238D01*
X140381238Y-74869844D01*
X140474260Y-74730626D01*
X140538335Y-74575936D01*
X140571000Y-74411718D01*
X140571000Y-74244282D01*
X140538335Y-74080064D01*
X140474260Y-73925374D01*
X140381238Y-73786156D01*
X140374364Y-73779282D01*
X157800000Y-73779282D01*
X157800000Y-73946718D01*
X157832665Y-74110936D01*
X157896740Y-74265626D01*
X157989762Y-74404844D01*
X158108156Y-74523238D01*
X158247374Y-74616260D01*
X158402064Y-74680335D01*
X158566282Y-74713000D01*
X158733718Y-74713000D01*
X158897936Y-74680335D01*
X159052626Y-74616260D01*
X159191844Y-74523238D01*
X159310238Y-74404844D01*
X159403260Y-74265626D01*
X159467335Y-74110936D01*
X159500000Y-73946718D01*
X159500000Y-73779282D01*
X159467335Y-73615064D01*
X159403260Y-73460374D01*
X159310238Y-73321156D01*
X159191844Y-73202762D01*
X159052626Y-73109740D01*
X158897936Y-73045665D01*
X158733718Y-73013000D01*
X158566282Y-73013000D01*
X158402064Y-73045665D01*
X158247374Y-73109740D01*
X158108156Y-73202762D01*
X157989762Y-73321156D01*
X157896740Y-73460374D01*
X157832665Y-73615064D01*
X157800000Y-73779282D01*
X140374364Y-73779282D01*
X140262844Y-73667762D01*
X140123626Y-73574740D01*
X139968936Y-73510665D01*
X139804718Y-73478000D01*
X139637282Y-73478000D01*
X139473064Y-73510665D01*
X139318374Y-73574740D01*
X139179156Y-73667762D01*
X139060762Y-73786156D01*
X138967740Y-73925374D01*
X138903665Y-74080064D01*
X138871000Y-74244282D01*
X132112101Y-74244282D01*
X132167335Y-74110936D01*
X132200000Y-73946718D01*
X132200000Y-73779282D01*
X132167335Y-73615064D01*
X132103260Y-73460374D01*
X132010238Y-73321156D01*
X131891844Y-73202762D01*
X131752626Y-73109740D01*
X131597936Y-73045665D01*
X131433718Y-73013000D01*
X131266282Y-73013000D01*
X131102064Y-73045665D01*
X130947374Y-73109740D01*
X130808156Y-73202762D01*
X130689762Y-73321156D01*
X130596740Y-73460374D01*
X130532665Y-73615064D01*
X130500000Y-73779282D01*
X125545549Y-73779282D01*
X125548162Y-73772976D01*
X125650000Y-73261002D01*
X125650000Y-72738998D01*
X125548162Y-72227024D01*
X125348399Y-71744754D01*
X125058389Y-71310724D01*
X124689276Y-70941611D01*
X124255246Y-70651601D01*
X123828894Y-70475000D01*
X166171106Y-70475000D01*
X165744754Y-70651601D01*
M02*
