G04 #@! TF.GenerationSoftware,KiCad,Pcbnew,(5.1.4-0-10_14)*
G04 #@! TF.CreationDate,2020-12-07T20:11:59-03:00*
G04 #@! TF.ProjectId,hub_usb_sd,6875625f-7573-4625-9f73-642e6b696361,1.0*
G04 #@! TF.SameCoordinates,Original*
G04 #@! TF.FileFunction,Soldermask,Top*
G04 #@! TF.FilePolarity,Negative*
%FSLAX46Y46*%
G04 Gerber Fmt 4.6, Leading zero omitted, Abs format (unit mm)*
G04 Created by KiCad (PCBNEW (5.1.4-0-10_14)) date 2020-12-07 20:11:59*
%MOMM*%
%LPD*%
G04 APERTURE LIST*
%ADD10C,0.100000*%
G04 APERTURE END LIST*
D10*
G36*
X167275880Y-114759776D02*
G01*
X167656593Y-114835504D01*
X168066249Y-115005189D01*
X168434929Y-115251534D01*
X168748466Y-115565071D01*
X168994811Y-115933751D01*
X169164496Y-116343407D01*
X169251000Y-116778296D01*
X169251000Y-117221704D01*
X169164496Y-117656593D01*
X168994811Y-118066249D01*
X168748466Y-118434929D01*
X168434929Y-118748466D01*
X168066249Y-118994811D01*
X167656593Y-119164496D01*
X167275880Y-119240224D01*
X167221705Y-119251000D01*
X166778295Y-119251000D01*
X166724120Y-119240224D01*
X166343407Y-119164496D01*
X165933751Y-118994811D01*
X165565071Y-118748466D01*
X165251534Y-118434929D01*
X165005189Y-118066249D01*
X164835504Y-117656593D01*
X164749000Y-117221704D01*
X164749000Y-116778296D01*
X164835504Y-116343407D01*
X165005189Y-115933751D01*
X165251534Y-115565071D01*
X165565071Y-115251534D01*
X165933751Y-115005189D01*
X166343407Y-114835504D01*
X166724120Y-114759776D01*
X166778295Y-114749000D01*
X167221705Y-114749000D01*
X167275880Y-114759776D01*
X167275880Y-114759776D01*
G37*
G36*
X123275880Y-114759776D02*
G01*
X123656593Y-114835504D01*
X124066249Y-115005189D01*
X124434929Y-115251534D01*
X124748466Y-115565071D01*
X124994811Y-115933751D01*
X125164496Y-116343407D01*
X125251000Y-116778296D01*
X125251000Y-117221704D01*
X125164496Y-117656593D01*
X124994811Y-118066249D01*
X124748466Y-118434929D01*
X124434929Y-118748466D01*
X124066249Y-118994811D01*
X123656593Y-119164496D01*
X123275880Y-119240224D01*
X123221705Y-119251000D01*
X122778295Y-119251000D01*
X122724120Y-119240224D01*
X122343407Y-119164496D01*
X121933751Y-118994811D01*
X121565071Y-118748466D01*
X121251534Y-118434929D01*
X121005189Y-118066249D01*
X120835504Y-117656593D01*
X120749000Y-117221704D01*
X120749000Y-116778296D01*
X120835504Y-116343407D01*
X121005189Y-115933751D01*
X121251534Y-115565071D01*
X121565071Y-115251534D01*
X121933751Y-115005189D01*
X122343407Y-114835504D01*
X122724120Y-114759776D01*
X122778295Y-114749000D01*
X123221705Y-114749000D01*
X123275880Y-114759776D01*
X123275880Y-114759776D01*
G37*
G36*
X152802585Y-114198802D02*
G01*
X152952410Y-114228604D01*
X153234674Y-114345521D01*
X153488705Y-114515259D01*
X153704741Y-114731295D01*
X153874479Y-114985326D01*
X153977082Y-115233033D01*
X153991396Y-115267591D01*
X154031055Y-115466967D01*
X154051000Y-115567240D01*
X154051000Y-115872760D01*
X153991396Y-116172410D01*
X153874479Y-116454674D01*
X153704741Y-116708705D01*
X153488705Y-116924741D01*
X153234674Y-117094479D01*
X152952410Y-117211396D01*
X152802585Y-117241198D01*
X152652761Y-117271000D01*
X152347239Y-117271000D01*
X152197415Y-117241198D01*
X152047590Y-117211396D01*
X151765326Y-117094479D01*
X151511295Y-116924741D01*
X151295259Y-116708705D01*
X151125521Y-116454674D01*
X151008604Y-116172410D01*
X150949000Y-115872760D01*
X150949000Y-115567240D01*
X150968946Y-115466967D01*
X151008604Y-115267591D01*
X151022918Y-115233033D01*
X151125521Y-114985326D01*
X151295259Y-114731295D01*
X151511295Y-114515259D01*
X151765326Y-114345521D01*
X152047590Y-114228604D01*
X152197415Y-114198802D01*
X152347239Y-114169000D01*
X152652761Y-114169000D01*
X152802585Y-114198802D01*
X152802585Y-114198802D01*
G37*
G36*
X137802585Y-114198802D02*
G01*
X137952410Y-114228604D01*
X138234674Y-114345521D01*
X138488705Y-114515259D01*
X138704741Y-114731295D01*
X138874479Y-114985326D01*
X138977082Y-115233033D01*
X138991396Y-115267591D01*
X139031055Y-115466967D01*
X139051000Y-115567240D01*
X139051000Y-115872760D01*
X138991396Y-116172410D01*
X138874479Y-116454674D01*
X138704741Y-116708705D01*
X138488705Y-116924741D01*
X138234674Y-117094479D01*
X137952410Y-117211396D01*
X137802585Y-117241198D01*
X137652761Y-117271000D01*
X137347239Y-117271000D01*
X137197415Y-117241198D01*
X137047590Y-117211396D01*
X136765326Y-117094479D01*
X136511295Y-116924741D01*
X136295259Y-116708705D01*
X136125521Y-116454674D01*
X136008604Y-116172410D01*
X135949000Y-115872760D01*
X135949000Y-115567240D01*
X135968946Y-115466967D01*
X136008604Y-115267591D01*
X136022918Y-115233033D01*
X136125521Y-114985326D01*
X136295259Y-114731295D01*
X136511295Y-114515259D01*
X136765326Y-114345521D01*
X137047590Y-114228604D01*
X137197415Y-114198802D01*
X137347239Y-114169000D01*
X137652761Y-114169000D01*
X137802585Y-114198802D01*
X137802585Y-114198802D01*
G37*
G36*
X148748228Y-112191703D02*
G01*
X148903100Y-112255853D01*
X149042481Y-112348985D01*
X149161015Y-112467519D01*
X149254147Y-112606900D01*
X149318297Y-112761772D01*
X149351000Y-112926184D01*
X149351000Y-113093816D01*
X149318297Y-113258228D01*
X149254147Y-113413100D01*
X149161015Y-113552481D01*
X149042481Y-113671015D01*
X148903100Y-113764147D01*
X148748228Y-113828297D01*
X148583816Y-113861000D01*
X148416184Y-113861000D01*
X148251772Y-113828297D01*
X148096900Y-113764147D01*
X147957519Y-113671015D01*
X147838985Y-113552481D01*
X147745853Y-113413100D01*
X147681703Y-113258228D01*
X147649000Y-113093816D01*
X147649000Y-112926184D01*
X147681703Y-112761772D01*
X147745853Y-112606900D01*
X147838985Y-112467519D01*
X147957519Y-112348985D01*
X148096900Y-112255853D01*
X148251772Y-112191703D01*
X148416184Y-112159000D01*
X148583816Y-112159000D01*
X148748228Y-112191703D01*
X148748228Y-112191703D01*
G37*
G36*
X146248228Y-112191703D02*
G01*
X146403100Y-112255853D01*
X146542481Y-112348985D01*
X146661015Y-112467519D01*
X146754147Y-112606900D01*
X146818297Y-112761772D01*
X146851000Y-112926184D01*
X146851000Y-113093816D01*
X146818297Y-113258228D01*
X146754147Y-113413100D01*
X146661015Y-113552481D01*
X146542481Y-113671015D01*
X146403100Y-113764147D01*
X146248228Y-113828297D01*
X146083816Y-113861000D01*
X145916184Y-113861000D01*
X145751772Y-113828297D01*
X145596900Y-113764147D01*
X145457519Y-113671015D01*
X145338985Y-113552481D01*
X145245853Y-113413100D01*
X145181703Y-113258228D01*
X145149000Y-113093816D01*
X145149000Y-112926184D01*
X145181703Y-112761772D01*
X145245853Y-112606900D01*
X145338985Y-112467519D01*
X145457519Y-112348985D01*
X145596900Y-112255853D01*
X145751772Y-112191703D01*
X145916184Y-112159000D01*
X146083816Y-112159000D01*
X146248228Y-112191703D01*
X146248228Y-112191703D01*
G37*
G36*
X144248228Y-112191703D02*
G01*
X144403100Y-112255853D01*
X144542481Y-112348985D01*
X144661015Y-112467519D01*
X144754147Y-112606900D01*
X144818297Y-112761772D01*
X144851000Y-112926184D01*
X144851000Y-113093816D01*
X144818297Y-113258228D01*
X144754147Y-113413100D01*
X144661015Y-113552481D01*
X144542481Y-113671015D01*
X144403100Y-113764147D01*
X144248228Y-113828297D01*
X144083816Y-113861000D01*
X143916184Y-113861000D01*
X143751772Y-113828297D01*
X143596900Y-113764147D01*
X143457519Y-113671015D01*
X143338985Y-113552481D01*
X143245853Y-113413100D01*
X143181703Y-113258228D01*
X143149000Y-113093816D01*
X143149000Y-112926184D01*
X143181703Y-112761772D01*
X143245853Y-112606900D01*
X143338985Y-112467519D01*
X143457519Y-112348985D01*
X143596900Y-112255853D01*
X143751772Y-112191703D01*
X143916184Y-112159000D01*
X144083816Y-112159000D01*
X144248228Y-112191703D01*
X144248228Y-112191703D01*
G37*
G36*
X142351000Y-113861000D02*
G01*
X140649000Y-113861000D01*
X140649000Y-112159000D01*
X142351000Y-112159000D01*
X142351000Y-113861000D01*
X142351000Y-113861000D01*
G37*
G36*
X167708600Y-109362989D02*
G01*
X167741652Y-109373015D01*
X167772103Y-109389292D01*
X167798799Y-109411201D01*
X167820708Y-109437897D01*
X167836985Y-109468348D01*
X167847011Y-109501400D01*
X167851000Y-109541903D01*
X167851000Y-110978097D01*
X167847011Y-111018600D01*
X167836985Y-111051652D01*
X167820708Y-111082103D01*
X167798799Y-111108799D01*
X167772103Y-111130708D01*
X167741652Y-111146985D01*
X167708600Y-111157011D01*
X167668097Y-111161000D01*
X165931903Y-111161000D01*
X165891400Y-111157011D01*
X165858348Y-111146985D01*
X165827897Y-111130708D01*
X165801201Y-111108799D01*
X165779292Y-111082103D01*
X165763015Y-111051652D01*
X165752989Y-111018600D01*
X165749000Y-110978097D01*
X165749000Y-109541903D01*
X165752989Y-109501400D01*
X165763015Y-109468348D01*
X165779292Y-109437897D01*
X165801201Y-109411201D01*
X165827897Y-109389292D01*
X165858348Y-109373015D01*
X165891400Y-109362989D01*
X165931903Y-109359000D01*
X167668097Y-109359000D01*
X167708600Y-109362989D01*
X167708600Y-109362989D01*
G37*
G36*
X167060443Y-106865519D02*
G01*
X167126627Y-106872037D01*
X167296466Y-106923557D01*
X167452991Y-107007222D01*
X167488729Y-107036552D01*
X167590186Y-107119814D01*
X167673448Y-107221271D01*
X167702778Y-107257009D01*
X167786443Y-107413534D01*
X167837963Y-107583373D01*
X167855359Y-107760000D01*
X167837963Y-107936627D01*
X167786443Y-108106466D01*
X167702778Y-108262991D01*
X167673448Y-108298729D01*
X167590186Y-108400186D01*
X167488729Y-108483448D01*
X167452991Y-108512778D01*
X167296466Y-108596443D01*
X167126627Y-108647963D01*
X167060443Y-108654481D01*
X166994260Y-108661000D01*
X166605740Y-108661000D01*
X166539557Y-108654481D01*
X166473373Y-108647963D01*
X166303534Y-108596443D01*
X166147009Y-108512778D01*
X166111271Y-108483448D01*
X166009814Y-108400186D01*
X165926552Y-108298729D01*
X165897222Y-108262991D01*
X165813557Y-108106466D01*
X165762037Y-107936627D01*
X165744641Y-107760000D01*
X165762037Y-107583373D01*
X165813557Y-107413534D01*
X165897222Y-107257009D01*
X165926552Y-107221271D01*
X166009814Y-107119814D01*
X166111271Y-107036552D01*
X166147009Y-107007222D01*
X166303534Y-106923557D01*
X166473373Y-106872037D01*
X166539557Y-106865519D01*
X166605740Y-106859000D01*
X166994260Y-106859000D01*
X167060443Y-106865519D01*
X167060443Y-106865519D01*
G37*
G36*
X156779000Y-105778000D02*
G01*
X153377000Y-105778000D01*
X153377000Y-103176000D01*
X156779000Y-103176000D01*
X156779000Y-105778000D01*
X156779000Y-105778000D01*
G37*
G36*
X124582585Y-100978802D02*
G01*
X124732410Y-101008604D01*
X125014674Y-101125521D01*
X125268705Y-101295259D01*
X125484741Y-101511295D01*
X125654479Y-101765326D01*
X125771396Y-102047590D01*
X125831000Y-102347240D01*
X125831000Y-102652760D01*
X125771396Y-102952410D01*
X125654479Y-103234674D01*
X125484741Y-103488705D01*
X125268705Y-103704741D01*
X125014674Y-103874479D01*
X124732410Y-103991396D01*
X124582585Y-104021198D01*
X124432761Y-104051000D01*
X124127239Y-104051000D01*
X123977415Y-104021198D01*
X123827590Y-103991396D01*
X123545326Y-103874479D01*
X123291295Y-103704741D01*
X123075259Y-103488705D01*
X122905521Y-103234674D01*
X122788604Y-102952410D01*
X122729000Y-102652760D01*
X122729000Y-102347240D01*
X122788604Y-102047590D01*
X122905521Y-101765326D01*
X123075259Y-101511295D01*
X123291295Y-101295259D01*
X123545326Y-101125521D01*
X123827590Y-101008604D01*
X123977415Y-100978802D01*
X124127239Y-100949000D01*
X124432761Y-100949000D01*
X124582585Y-100978802D01*
X124582585Y-100978802D01*
G37*
G36*
X166245331Y-99288211D02*
G01*
X166573092Y-99423974D01*
X166868070Y-99621072D01*
X167118928Y-99871930D01*
X167316026Y-100166908D01*
X167451789Y-100494669D01*
X167521000Y-100842616D01*
X167521000Y-101197384D01*
X167451789Y-101545331D01*
X167316026Y-101873092D01*
X167118928Y-102168070D01*
X166868070Y-102418928D01*
X166573092Y-102616026D01*
X166245331Y-102751789D01*
X165897384Y-102821000D01*
X165542616Y-102821000D01*
X165194669Y-102751789D01*
X164866908Y-102616026D01*
X164571930Y-102418928D01*
X164321072Y-102168070D01*
X164123974Y-101873092D01*
X163988211Y-101545331D01*
X163919000Y-101197384D01*
X163919000Y-100842616D01*
X163988211Y-100494669D01*
X164123974Y-100166908D01*
X164321072Y-99871930D01*
X164571930Y-99621072D01*
X164866908Y-99423974D01*
X165194669Y-99288211D01*
X165542616Y-99219000D01*
X165897384Y-99219000D01*
X166245331Y-99288211D01*
X166245331Y-99288211D01*
G37*
G36*
X127238228Y-97681703D02*
G01*
X127393100Y-97745853D01*
X127532481Y-97838985D01*
X127651015Y-97957519D01*
X127744147Y-98096900D01*
X127808297Y-98251772D01*
X127841000Y-98416184D01*
X127841000Y-98583816D01*
X127808297Y-98748228D01*
X127744147Y-98903100D01*
X127651015Y-99042481D01*
X127532481Y-99161015D01*
X127393100Y-99254147D01*
X127238228Y-99318297D01*
X127073816Y-99351000D01*
X126906184Y-99351000D01*
X126741772Y-99318297D01*
X126586900Y-99254147D01*
X126447519Y-99161015D01*
X126328985Y-99042481D01*
X126235853Y-98903100D01*
X126171703Y-98748228D01*
X126139000Y-98583816D01*
X126139000Y-98416184D01*
X126171703Y-98251772D01*
X126235853Y-98096900D01*
X126328985Y-97957519D01*
X126447519Y-97838985D01*
X126586900Y-97745853D01*
X126741772Y-97681703D01*
X126906184Y-97649000D01*
X127073816Y-97649000D01*
X127238228Y-97681703D01*
X127238228Y-97681703D01*
G37*
G36*
X156779000Y-98978000D02*
G01*
X153377000Y-98978000D01*
X153377000Y-96376000D01*
X156779000Y-96376000D01*
X156779000Y-98978000D01*
X156779000Y-98978000D01*
G37*
G36*
X161123512Y-95353927D02*
G01*
X161272812Y-95383624D01*
X161436784Y-95451544D01*
X161584354Y-95550147D01*
X161709853Y-95675646D01*
X161808456Y-95823216D01*
X161876376Y-95987188D01*
X161887405Y-96042638D01*
X161894516Y-96066078D01*
X161906067Y-96087689D01*
X161921613Y-96106631D01*
X161940555Y-96122176D01*
X161962165Y-96133727D01*
X161985614Y-96140840D01*
X162010000Y-96143242D01*
X162034387Y-96140840D01*
X162057835Y-96133727D01*
X162079446Y-96122176D01*
X162098388Y-96106630D01*
X162113933Y-96087688D01*
X162125484Y-96066078D01*
X162132595Y-96042638D01*
X162143624Y-95987188D01*
X162211544Y-95823216D01*
X162310147Y-95675646D01*
X162435646Y-95550147D01*
X162583216Y-95451544D01*
X162747188Y-95383624D01*
X162896488Y-95353927D01*
X162921258Y-95349000D01*
X163098742Y-95349000D01*
X163123512Y-95353927D01*
X163272812Y-95383624D01*
X163436784Y-95451544D01*
X163584354Y-95550147D01*
X163709853Y-95675646D01*
X163808456Y-95823216D01*
X163876376Y-95987188D01*
X163911000Y-96161259D01*
X163911000Y-96338741D01*
X163876376Y-96512812D01*
X163808456Y-96676784D01*
X163709853Y-96824354D01*
X163584354Y-96949853D01*
X163436784Y-97048456D01*
X163272812Y-97116376D01*
X163123512Y-97146073D01*
X163098742Y-97151000D01*
X162921258Y-97151000D01*
X162896488Y-97146073D01*
X162747188Y-97116376D01*
X162583216Y-97048456D01*
X162435646Y-96949853D01*
X162310147Y-96824354D01*
X162211544Y-96676784D01*
X162143624Y-96512812D01*
X162132595Y-96457362D01*
X162125484Y-96433922D01*
X162113933Y-96412311D01*
X162098387Y-96393369D01*
X162079445Y-96377824D01*
X162057835Y-96366273D01*
X162034386Y-96359160D01*
X162010000Y-96356758D01*
X161985613Y-96359160D01*
X161962165Y-96366273D01*
X161940554Y-96377824D01*
X161921612Y-96393370D01*
X161906067Y-96412312D01*
X161894516Y-96433922D01*
X161887405Y-96457362D01*
X161876376Y-96512812D01*
X161808456Y-96676784D01*
X161709853Y-96824354D01*
X161584354Y-96949853D01*
X161436784Y-97048456D01*
X161272812Y-97116376D01*
X161123512Y-97146073D01*
X161098742Y-97151000D01*
X160921258Y-97151000D01*
X160896488Y-97146073D01*
X160747188Y-97116376D01*
X160583216Y-97048456D01*
X160435646Y-96949853D01*
X160310147Y-96824354D01*
X160211544Y-96676784D01*
X160143624Y-96512812D01*
X160109000Y-96338741D01*
X160109000Y-96161259D01*
X160143624Y-95987188D01*
X160211544Y-95823216D01*
X160310147Y-95675646D01*
X160435646Y-95550147D01*
X160583216Y-95451544D01*
X160747188Y-95383624D01*
X160896488Y-95353927D01*
X160921258Y-95349000D01*
X161098742Y-95349000D01*
X161123512Y-95353927D01*
X161123512Y-95353927D01*
G37*
G36*
X127238228Y-95181703D02*
G01*
X127393100Y-95245853D01*
X127532481Y-95338985D01*
X127651015Y-95457519D01*
X127744147Y-95596900D01*
X127808297Y-95751772D01*
X127841000Y-95916184D01*
X127841000Y-96083816D01*
X127808297Y-96248228D01*
X127744147Y-96403100D01*
X127651015Y-96542481D01*
X127532481Y-96661015D01*
X127393100Y-96754147D01*
X127238228Y-96818297D01*
X127073816Y-96851000D01*
X126906184Y-96851000D01*
X126741772Y-96818297D01*
X126586900Y-96754147D01*
X126447519Y-96661015D01*
X126328985Y-96542481D01*
X126235853Y-96403100D01*
X126171703Y-96248228D01*
X126139000Y-96083816D01*
X126139000Y-95916184D01*
X126171703Y-95751772D01*
X126235853Y-95596900D01*
X126328985Y-95457519D01*
X126447519Y-95338985D01*
X126586900Y-95245853D01*
X126741772Y-95181703D01*
X126906184Y-95149000D01*
X127073816Y-95149000D01*
X127238228Y-95181703D01*
X127238228Y-95181703D01*
G37*
G36*
X127238228Y-93181703D02*
G01*
X127393100Y-93245853D01*
X127532481Y-93338985D01*
X127651015Y-93457519D01*
X127744147Y-93596900D01*
X127808297Y-93751772D01*
X127841000Y-93916184D01*
X127841000Y-94083816D01*
X127808297Y-94248228D01*
X127744147Y-94403100D01*
X127651015Y-94542481D01*
X127532481Y-94661015D01*
X127393100Y-94754147D01*
X127238228Y-94818297D01*
X127073816Y-94851000D01*
X126906184Y-94851000D01*
X126741772Y-94818297D01*
X126586900Y-94754147D01*
X126447519Y-94661015D01*
X126328985Y-94542481D01*
X126235853Y-94403100D01*
X126171703Y-94248228D01*
X126139000Y-94083816D01*
X126139000Y-93916184D01*
X126171703Y-93751772D01*
X126235853Y-93596900D01*
X126328985Y-93457519D01*
X126447519Y-93338985D01*
X126586900Y-93245853D01*
X126741772Y-93181703D01*
X126906184Y-93149000D01*
X127073816Y-93149000D01*
X127238228Y-93181703D01*
X127238228Y-93181703D01*
G37*
G36*
X161911000Y-93420383D02*
G01*
X161913402Y-93444769D01*
X161920515Y-93468218D01*
X161932066Y-93489829D01*
X161947611Y-93508771D01*
X161966553Y-93524316D01*
X161988164Y-93535867D01*
X162011613Y-93542980D01*
X162035999Y-93545382D01*
X162060385Y-93542980D01*
X162083834Y-93535867D01*
X162105445Y-93524316D01*
X162124387Y-93508771D01*
X162139932Y-93489829D01*
X162151477Y-93468229D01*
X162211544Y-93323216D01*
X162310147Y-93175646D01*
X162435646Y-93050147D01*
X162583216Y-92951544D01*
X162747188Y-92883624D01*
X162896488Y-92853927D01*
X162921258Y-92849000D01*
X163098742Y-92849000D01*
X163123512Y-92853927D01*
X163272812Y-92883624D01*
X163436784Y-92951544D01*
X163584354Y-93050147D01*
X163709853Y-93175646D01*
X163808456Y-93323216D01*
X163876376Y-93487188D01*
X163911000Y-93661259D01*
X163911000Y-93838741D01*
X163876376Y-94012812D01*
X163808456Y-94176784D01*
X163709853Y-94324354D01*
X163584354Y-94449853D01*
X163436784Y-94548456D01*
X163272812Y-94616376D01*
X163123512Y-94646073D01*
X163098742Y-94651000D01*
X162921258Y-94651000D01*
X162896488Y-94646073D01*
X162747188Y-94616376D01*
X162583216Y-94548456D01*
X162435646Y-94449853D01*
X162310147Y-94324354D01*
X162211544Y-94176784D01*
X162151477Y-94031771D01*
X162139932Y-94010171D01*
X162124387Y-93991229D01*
X162105445Y-93975684D01*
X162083834Y-93964133D01*
X162060385Y-93957020D01*
X162035999Y-93954618D01*
X162011613Y-93957020D01*
X161988164Y-93964133D01*
X161966553Y-93975684D01*
X161947611Y-93991229D01*
X161932066Y-94010171D01*
X161920515Y-94031782D01*
X161913402Y-94055231D01*
X161911000Y-94079617D01*
X161911000Y-94651000D01*
X160109000Y-94651000D01*
X160109000Y-92849000D01*
X161911000Y-92849000D01*
X161911000Y-93420383D01*
X161911000Y-93420383D01*
G37*
G36*
X127841000Y-92351000D02*
G01*
X126139000Y-92351000D01*
X126139000Y-90649000D01*
X127841000Y-90649000D01*
X127841000Y-92351000D01*
X127841000Y-92351000D01*
G37*
G36*
X166245331Y-87248211D02*
G01*
X166573092Y-87383974D01*
X166868070Y-87581072D01*
X167118928Y-87831930D01*
X167316026Y-88126908D01*
X167451789Y-88454669D01*
X167521000Y-88802616D01*
X167521000Y-89157384D01*
X167451789Y-89505331D01*
X167316026Y-89833092D01*
X167118928Y-90128070D01*
X166868070Y-90378928D01*
X166573092Y-90576026D01*
X166245331Y-90711789D01*
X165897384Y-90781000D01*
X165542616Y-90781000D01*
X165194669Y-90711789D01*
X164866908Y-90576026D01*
X164571930Y-90378928D01*
X164321072Y-90128070D01*
X164123974Y-89833092D01*
X163988211Y-89505331D01*
X163919000Y-89157384D01*
X163919000Y-88802616D01*
X163988211Y-88454669D01*
X164123974Y-88126908D01*
X164321072Y-87831930D01*
X164571930Y-87581072D01*
X164866908Y-87383974D01*
X165194669Y-87248211D01*
X165542616Y-87179000D01*
X165897384Y-87179000D01*
X166245331Y-87248211D01*
X166245331Y-87248211D01*
G37*
G36*
X159451000Y-87862000D02*
G01*
X157807399Y-87862000D01*
X157783013Y-87864402D01*
X157759564Y-87871515D01*
X157737953Y-87883066D01*
X157719011Y-87898611D01*
X157703466Y-87917553D01*
X157691915Y-87939164D01*
X157684802Y-87962613D01*
X157682400Y-87986999D01*
X157682400Y-89312000D01*
X156880400Y-89312000D01*
X156880400Y-87410000D01*
X157724001Y-87410000D01*
X157748387Y-87407598D01*
X157771836Y-87400485D01*
X157793447Y-87388934D01*
X157812389Y-87373389D01*
X157827934Y-87354447D01*
X157839485Y-87332836D01*
X157846598Y-87309387D01*
X157849000Y-87285001D01*
X157849000Y-84960000D01*
X159451000Y-84960000D01*
X159451000Y-87862000D01*
X159451000Y-87862000D01*
G37*
G36*
X156482400Y-89312000D02*
G01*
X155680400Y-89312000D01*
X155680400Y-87410000D01*
X156482400Y-87410000D01*
X156482400Y-89312000D01*
X156482400Y-89312000D01*
G37*
G36*
X155332430Y-89312000D02*
G01*
X154230430Y-89312000D01*
X154230430Y-87410000D01*
X155332430Y-87410000D01*
X155332430Y-89312000D01*
X155332430Y-89312000D01*
G37*
G36*
X153682430Y-89312000D02*
G01*
X152580430Y-89312000D01*
X152580430Y-87410000D01*
X153682430Y-87410000D01*
X153682430Y-89312000D01*
X153682430Y-89312000D01*
G37*
G36*
X148682430Y-89312000D02*
G01*
X147580430Y-89312000D01*
X147580430Y-87410000D01*
X148682430Y-87410000D01*
X148682430Y-89312000D01*
X148682430Y-89312000D01*
G37*
G36*
X146182428Y-89312000D02*
G01*
X145080428Y-89312000D01*
X145080428Y-87410000D01*
X146182428Y-87410000D01*
X146182428Y-89312000D01*
X146182428Y-89312000D01*
G37*
G36*
X143682430Y-89312000D02*
G01*
X142580430Y-89312000D01*
X142580430Y-87410000D01*
X143682430Y-87410000D01*
X143682430Y-89312000D01*
X143682430Y-89312000D01*
G37*
G36*
X141182430Y-89312000D02*
G01*
X140080430Y-89312000D01*
X140080430Y-87410000D01*
X141182430Y-87410000D01*
X141182430Y-89312000D01*
X141182430Y-89312000D01*
G37*
G36*
X138682430Y-89312000D02*
G01*
X137580430Y-89312000D01*
X137580430Y-87410000D01*
X138682430Y-87410000D01*
X138682430Y-89312000D01*
X138682430Y-89312000D01*
G37*
G36*
X136182430Y-89312000D02*
G01*
X135080430Y-89312000D01*
X135080430Y-87410000D01*
X136182430Y-87410000D01*
X136182430Y-89312000D01*
X136182430Y-89312000D01*
G37*
G36*
X151182430Y-89312000D02*
G01*
X150080430Y-89312000D01*
X150080430Y-87410000D01*
X151182430Y-87410000D01*
X151182430Y-89312000D01*
X151182430Y-89312000D01*
G37*
G36*
X124582585Y-85978802D02*
G01*
X124732410Y-86008604D01*
X125014674Y-86125521D01*
X125268705Y-86295259D01*
X125484741Y-86511295D01*
X125654479Y-86765326D01*
X125771396Y-87047590D01*
X125831000Y-87347240D01*
X125831000Y-87652760D01*
X125771396Y-87952410D01*
X125654479Y-88234674D01*
X125484741Y-88488705D01*
X125268705Y-88704741D01*
X125014674Y-88874479D01*
X124732410Y-88991396D01*
X124582585Y-89021198D01*
X124432761Y-89051000D01*
X124127239Y-89051000D01*
X123977415Y-89021198D01*
X123827590Y-88991396D01*
X123545326Y-88874479D01*
X123291295Y-88704741D01*
X123075259Y-88488705D01*
X122905521Y-88234674D01*
X122788604Y-87952410D01*
X122729000Y-87652760D01*
X122729000Y-87347240D01*
X122788604Y-87047590D01*
X122905521Y-86765326D01*
X123075259Y-86511295D01*
X123291295Y-86295259D01*
X123545326Y-86125521D01*
X123827590Y-86008604D01*
X123977415Y-85978802D01*
X124127239Y-85949000D01*
X124432761Y-85949000D01*
X124582585Y-85978802D01*
X124582585Y-85978802D01*
G37*
G36*
X135777395Y-84496546D02*
G01*
X135950466Y-84568234D01*
X135950467Y-84568235D01*
X136106227Y-84672310D01*
X136238690Y-84804773D01*
X136238691Y-84804775D01*
X136342766Y-84960534D01*
X136414454Y-85133605D01*
X136451000Y-85317333D01*
X136451000Y-85504667D01*
X136414454Y-85688395D01*
X136342766Y-85861466D01*
X136342765Y-85861467D01*
X136238690Y-86017227D01*
X136106227Y-86149690D01*
X136027818Y-86202081D01*
X135950466Y-86253766D01*
X135777395Y-86325454D01*
X135593667Y-86362000D01*
X135406333Y-86362000D01*
X135222605Y-86325454D01*
X135049534Y-86253766D01*
X134972182Y-86202081D01*
X134893773Y-86149690D01*
X134761310Y-86017227D01*
X134657235Y-85861467D01*
X134657234Y-85861466D01*
X134591483Y-85702729D01*
X134579932Y-85681118D01*
X134564387Y-85662176D01*
X134545445Y-85646631D01*
X134523834Y-85635080D01*
X134500385Y-85627967D01*
X134475999Y-85625565D01*
X134451613Y-85627967D01*
X134428164Y-85635080D01*
X134406553Y-85646631D01*
X134387611Y-85662176D01*
X134372066Y-85681118D01*
X134360515Y-85702729D01*
X134353402Y-85726178D01*
X134351000Y-85750564D01*
X134351000Y-87862000D01*
X132749000Y-87862000D01*
X132749000Y-84960000D01*
X134351000Y-84960000D01*
X134351000Y-85071436D01*
X134353402Y-85095822D01*
X134360515Y-85119271D01*
X134372066Y-85140882D01*
X134387611Y-85159824D01*
X134406553Y-85175369D01*
X134428164Y-85186920D01*
X134451613Y-85194033D01*
X134475999Y-85196435D01*
X134500385Y-85194033D01*
X134523834Y-85186920D01*
X134545445Y-85175369D01*
X134564387Y-85159824D01*
X134579932Y-85140882D01*
X134591483Y-85119271D01*
X134657234Y-84960534D01*
X134761309Y-84804775D01*
X134761310Y-84804773D01*
X134893773Y-84672310D01*
X135049533Y-84568235D01*
X135049534Y-84568234D01*
X135222605Y-84496546D01*
X135406333Y-84460000D01*
X135593667Y-84460000D01*
X135777395Y-84496546D01*
X135777395Y-84496546D01*
G37*
G36*
X156704473Y-84736938D02*
G01*
X156832049Y-84789782D01*
X156946859Y-84866495D01*
X157044505Y-84964141D01*
X157121218Y-85078951D01*
X157174062Y-85206527D01*
X157201000Y-85341956D01*
X157201000Y-85480044D01*
X157174062Y-85615473D01*
X157121218Y-85743049D01*
X157044505Y-85857859D01*
X156946859Y-85955505D01*
X156832049Y-86032218D01*
X156704473Y-86085062D01*
X156569044Y-86112000D01*
X156430956Y-86112000D01*
X156295527Y-86085062D01*
X156167951Y-86032218D01*
X156053141Y-85955505D01*
X155955495Y-85857859D01*
X155878782Y-85743049D01*
X155825938Y-85615473D01*
X155799000Y-85480044D01*
X155799000Y-85341956D01*
X155825938Y-85206527D01*
X155878782Y-85078951D01*
X155955495Y-84964141D01*
X156053141Y-84866495D01*
X156167951Y-84789782D01*
X156295527Y-84736938D01*
X156430956Y-84710000D01*
X156569044Y-84710000D01*
X156704473Y-84736938D01*
X156704473Y-84736938D01*
G37*
G36*
X128146442Y-83175518D02*
G01*
X128212627Y-83182037D01*
X128382466Y-83233557D01*
X128538991Y-83317222D01*
X128574729Y-83346552D01*
X128676186Y-83429814D01*
X128759448Y-83531271D01*
X128788778Y-83567009D01*
X128872443Y-83723534D01*
X128923963Y-83893373D01*
X128941359Y-84070000D01*
X128923963Y-84246627D01*
X128872443Y-84416466D01*
X128788778Y-84572991D01*
X128759448Y-84608729D01*
X128676186Y-84710186D01*
X128574729Y-84793448D01*
X128538991Y-84822778D01*
X128382466Y-84906443D01*
X128212627Y-84957963D01*
X128149930Y-84964138D01*
X128080260Y-84971000D01*
X127991740Y-84971000D01*
X127922070Y-84964138D01*
X127859373Y-84957963D01*
X127689534Y-84906443D01*
X127533009Y-84822778D01*
X127497271Y-84793448D01*
X127395814Y-84710186D01*
X127312552Y-84608729D01*
X127283222Y-84572991D01*
X127199557Y-84416466D01*
X127148037Y-84246627D01*
X127130641Y-84070000D01*
X127148037Y-83893373D01*
X127199557Y-83723534D01*
X127283222Y-83567009D01*
X127312552Y-83531271D01*
X127395814Y-83429814D01*
X127497271Y-83346552D01*
X127533009Y-83317222D01*
X127689534Y-83233557D01*
X127859373Y-83182037D01*
X127925558Y-83175518D01*
X127991740Y-83169000D01*
X128080260Y-83169000D01*
X128146442Y-83175518D01*
X128146442Y-83175518D01*
G37*
G36*
X166070442Y-81365518D02*
G01*
X166136627Y-81372037D01*
X166306466Y-81423557D01*
X166462991Y-81507222D01*
X166490746Y-81530000D01*
X166600186Y-81619814D01*
X166683448Y-81721271D01*
X166712778Y-81757009D01*
X166796443Y-81913534D01*
X166847963Y-82083373D01*
X166865359Y-82260000D01*
X166847963Y-82436627D01*
X166796443Y-82606466D01*
X166712778Y-82762991D01*
X166683448Y-82798729D01*
X166600186Y-82900186D01*
X166498729Y-82983448D01*
X166462991Y-83012778D01*
X166306466Y-83096443D01*
X166136627Y-83147963D01*
X166070443Y-83154481D01*
X166004260Y-83161000D01*
X165915740Y-83161000D01*
X165849557Y-83154481D01*
X165783373Y-83147963D01*
X165613534Y-83096443D01*
X165457009Y-83012778D01*
X165421271Y-82983448D01*
X165319814Y-82900186D01*
X165236552Y-82798729D01*
X165207222Y-82762991D01*
X165123557Y-82606466D01*
X165072037Y-82436627D01*
X165054641Y-82260000D01*
X165072037Y-82083373D01*
X165123557Y-81913534D01*
X165207222Y-81757009D01*
X165236552Y-81721271D01*
X165319814Y-81619814D01*
X165429254Y-81530000D01*
X165457009Y-81507222D01*
X165613534Y-81423557D01*
X165783373Y-81372037D01*
X165849558Y-81365518D01*
X165915740Y-81359000D01*
X166004260Y-81359000D01*
X166070442Y-81365518D01*
X166070442Y-81365518D01*
G37*
G36*
X163530442Y-81365518D02*
G01*
X163596627Y-81372037D01*
X163766466Y-81423557D01*
X163922991Y-81507222D01*
X163950746Y-81530000D01*
X164060186Y-81619814D01*
X164143448Y-81721271D01*
X164172778Y-81757009D01*
X164256443Y-81913534D01*
X164307963Y-82083373D01*
X164325359Y-82260000D01*
X164307963Y-82436627D01*
X164256443Y-82606466D01*
X164172778Y-82762991D01*
X164143448Y-82798729D01*
X164060186Y-82900186D01*
X163958729Y-82983448D01*
X163922991Y-83012778D01*
X163766466Y-83096443D01*
X163596627Y-83147963D01*
X163530443Y-83154481D01*
X163464260Y-83161000D01*
X163375740Y-83161000D01*
X163309557Y-83154481D01*
X163243373Y-83147963D01*
X163073534Y-83096443D01*
X162917009Y-83012778D01*
X162881271Y-82983448D01*
X162779814Y-82900186D01*
X162696552Y-82798729D01*
X162667222Y-82762991D01*
X162583557Y-82606466D01*
X162532037Y-82436627D01*
X162514641Y-82260000D01*
X162532037Y-82083373D01*
X162583557Y-81913534D01*
X162667222Y-81757009D01*
X162696552Y-81721271D01*
X162779814Y-81619814D01*
X162889254Y-81530000D01*
X162917009Y-81507222D01*
X163073534Y-81423557D01*
X163243373Y-81372037D01*
X163309558Y-81365518D01*
X163375740Y-81359000D01*
X163464260Y-81359000D01*
X163530442Y-81365518D01*
X163530442Y-81365518D01*
G37*
G36*
X128146443Y-80635519D02*
G01*
X128212627Y-80642037D01*
X128382466Y-80693557D01*
X128538991Y-80777222D01*
X128574729Y-80806552D01*
X128676186Y-80889814D01*
X128759448Y-80991271D01*
X128788778Y-81027009D01*
X128872443Y-81183534D01*
X128923963Y-81353373D01*
X128941359Y-81530000D01*
X128923963Y-81706627D01*
X128872443Y-81876466D01*
X128788778Y-82032991D01*
X128759448Y-82068729D01*
X128676186Y-82170186D01*
X128574729Y-82253448D01*
X128538991Y-82282778D01*
X128382466Y-82366443D01*
X128212627Y-82417963D01*
X128146443Y-82424481D01*
X128080260Y-82431000D01*
X127991740Y-82431000D01*
X127925557Y-82424481D01*
X127859373Y-82417963D01*
X127689534Y-82366443D01*
X127533009Y-82282778D01*
X127497271Y-82253448D01*
X127395814Y-82170186D01*
X127312552Y-82068729D01*
X127283222Y-82032991D01*
X127199557Y-81876466D01*
X127148037Y-81706627D01*
X127130641Y-81530000D01*
X127148037Y-81353373D01*
X127199557Y-81183534D01*
X127283222Y-81027009D01*
X127312552Y-80991271D01*
X127395814Y-80889814D01*
X127497271Y-80806552D01*
X127533009Y-80777222D01*
X127689534Y-80693557D01*
X127859373Y-80642037D01*
X127925557Y-80635519D01*
X127991740Y-80629000D01*
X128080260Y-80629000D01*
X128146443Y-80635519D01*
X128146443Y-80635519D01*
G37*
G36*
X166070443Y-78825519D02*
G01*
X166136627Y-78832037D01*
X166306466Y-78883557D01*
X166462991Y-78967222D01*
X166490746Y-78990000D01*
X166600186Y-79079814D01*
X166683448Y-79181271D01*
X166712778Y-79217009D01*
X166796443Y-79373534D01*
X166847963Y-79543373D01*
X166865359Y-79720000D01*
X166847963Y-79896627D01*
X166796443Y-80066466D01*
X166712778Y-80222991D01*
X166683448Y-80258729D01*
X166600186Y-80360186D01*
X166498729Y-80443448D01*
X166462991Y-80472778D01*
X166306466Y-80556443D01*
X166136627Y-80607963D01*
X166070443Y-80614481D01*
X166004260Y-80621000D01*
X165915740Y-80621000D01*
X165849557Y-80614481D01*
X165783373Y-80607963D01*
X165613534Y-80556443D01*
X165457009Y-80472778D01*
X165421271Y-80443448D01*
X165319814Y-80360186D01*
X165236552Y-80258729D01*
X165207222Y-80222991D01*
X165123557Y-80066466D01*
X165072037Y-79896627D01*
X165054641Y-79720000D01*
X165072037Y-79543373D01*
X165123557Y-79373534D01*
X165207222Y-79217009D01*
X165236552Y-79181271D01*
X165319814Y-79079814D01*
X165429254Y-78990000D01*
X165457009Y-78967222D01*
X165613534Y-78883557D01*
X165783373Y-78832037D01*
X165849557Y-78825519D01*
X165915740Y-78819000D01*
X166004260Y-78819000D01*
X166070443Y-78825519D01*
X166070443Y-78825519D01*
G37*
G36*
X164321000Y-80621000D02*
G01*
X162519000Y-80621000D01*
X162519000Y-78819000D01*
X164321000Y-78819000D01*
X164321000Y-80621000D01*
X164321000Y-80621000D01*
G37*
G36*
X128146442Y-78095518D02*
G01*
X128212627Y-78102037D01*
X128382466Y-78153557D01*
X128538991Y-78237222D01*
X128574729Y-78266552D01*
X128676186Y-78349814D01*
X128759448Y-78451271D01*
X128788778Y-78487009D01*
X128872443Y-78643534D01*
X128923963Y-78813373D01*
X128941359Y-78990000D01*
X128923963Y-79166627D01*
X128872443Y-79336466D01*
X128788778Y-79492991D01*
X128759448Y-79528729D01*
X128676186Y-79630186D01*
X128574729Y-79713448D01*
X128538991Y-79742778D01*
X128382466Y-79826443D01*
X128212627Y-79877963D01*
X128146443Y-79884481D01*
X128080260Y-79891000D01*
X127991740Y-79891000D01*
X127925557Y-79884481D01*
X127859373Y-79877963D01*
X127689534Y-79826443D01*
X127533009Y-79742778D01*
X127497271Y-79713448D01*
X127395814Y-79630186D01*
X127312552Y-79528729D01*
X127283222Y-79492991D01*
X127199557Y-79336466D01*
X127148037Y-79166627D01*
X127130641Y-78990000D01*
X127148037Y-78813373D01*
X127199557Y-78643534D01*
X127283222Y-78487009D01*
X127312552Y-78451271D01*
X127395814Y-78349814D01*
X127497271Y-78266552D01*
X127533009Y-78237222D01*
X127689534Y-78153557D01*
X127859373Y-78102037D01*
X127925558Y-78095518D01*
X127991740Y-78089000D01*
X128080260Y-78089000D01*
X128146442Y-78095518D01*
X128146442Y-78095518D01*
G37*
G36*
X128937000Y-77351000D02*
G01*
X127135000Y-77351000D01*
X127135000Y-75549000D01*
X128937000Y-75549000D01*
X128937000Y-77351000D01*
X128937000Y-77351000D01*
G37*
G36*
X123275880Y-70759776D02*
G01*
X123656593Y-70835504D01*
X124066249Y-71005189D01*
X124434929Y-71251534D01*
X124748466Y-71565071D01*
X124994811Y-71933751D01*
X125164496Y-72343407D01*
X125251000Y-72778296D01*
X125251000Y-73221704D01*
X125164496Y-73656593D01*
X124994811Y-74066249D01*
X124748466Y-74434929D01*
X124434929Y-74748466D01*
X124066249Y-74994811D01*
X123656593Y-75164496D01*
X123275880Y-75240224D01*
X123221705Y-75251000D01*
X122778295Y-75251000D01*
X122724120Y-75240224D01*
X122343407Y-75164496D01*
X121933751Y-74994811D01*
X121565071Y-74748466D01*
X121251534Y-74434929D01*
X121005189Y-74066249D01*
X120835504Y-73656593D01*
X120749000Y-73221704D01*
X120749000Y-72778296D01*
X120835504Y-72343407D01*
X121005189Y-71933751D01*
X121251534Y-71565071D01*
X121565071Y-71251534D01*
X121933751Y-71005189D01*
X122343407Y-70835504D01*
X122724120Y-70759776D01*
X122778295Y-70749000D01*
X123221705Y-70749000D01*
X123275880Y-70759776D01*
X123275880Y-70759776D01*
G37*
G36*
X167275880Y-70759776D02*
G01*
X167656593Y-70835504D01*
X168066249Y-71005189D01*
X168434929Y-71251534D01*
X168748466Y-71565071D01*
X168994811Y-71933751D01*
X169164496Y-72343407D01*
X169251000Y-72778296D01*
X169251000Y-73221704D01*
X169164496Y-73656593D01*
X168994811Y-74066249D01*
X168748466Y-74434929D01*
X168434929Y-74748466D01*
X168066249Y-74994811D01*
X167656593Y-75164496D01*
X167275880Y-75240224D01*
X167221705Y-75251000D01*
X166778295Y-75251000D01*
X166724120Y-75240224D01*
X166343407Y-75164496D01*
X165933751Y-74994811D01*
X165565071Y-74748466D01*
X165251534Y-74434929D01*
X165005189Y-74066249D01*
X164835504Y-73656593D01*
X164749000Y-73221704D01*
X164749000Y-72778296D01*
X164835504Y-72343407D01*
X165005189Y-71933751D01*
X165251534Y-71565071D01*
X165565071Y-71251534D01*
X165933751Y-71005189D01*
X166343407Y-70835504D01*
X166724120Y-70759776D01*
X166778295Y-70749000D01*
X167221705Y-70749000D01*
X167275880Y-70759776D01*
X167275880Y-70759776D01*
G37*
G36*
X159451000Y-73362100D02*
G01*
X157849000Y-73362100D01*
X157849000Y-70460100D01*
X159451000Y-70460100D01*
X159451000Y-73362100D01*
X159451000Y-73362100D01*
G37*
G36*
X132151000Y-73362100D02*
G01*
X130549000Y-73362100D01*
X130549000Y-70460100D01*
X132151000Y-70460100D01*
X132151000Y-73362100D01*
X132151000Y-73362100D01*
G37*
M02*
