G04 #@! TF.GenerationSoftware,KiCad,Pcbnew,(5.1.4-0-10_14)*
G04 #@! TF.CreationDate,2020-12-07T20:11:59-03:00*
G04 #@! TF.ProjectId,hub_usb_sd,6875625f-7573-4625-9f73-642e6b696361,1.0*
G04 #@! TF.SameCoordinates,Original*
G04 #@! TF.FileFunction,Copper,L3,Inr*
G04 #@! TF.FilePolarity,Positive*
%FSLAX46Y46*%
G04 Gerber Fmt 4.6, Leading zero omitted, Abs format (unit mm)*
G04 Created by KiCad (PCBNEW (5.1.4-0-10_14)) date 2020-12-07 20:11:59*
%MOMM*%
%LPD*%
G04 APERTURE LIST*
%ADD10C,0.600000*%
%ADD11R,1.700000X1.700000*%
%ADD12C,1.700000*%
%ADD13C,3.500000*%
%ADD14C,3.000000*%
%ADD15R,1.600000X1.600000*%
%ADD16C,1.600000*%
%ADD17O,2.000000X1.700000*%
%ADD18C,0.100000*%
%ADD19O,1.700000X1.700000*%
%ADD20C,0.700000*%
%ADD21C,4.400000*%
%ADD22C,0.800000*%
G04 APERTURE END LIST*
D10*
X146800000Y-93200000D03*
X145900000Y-93200000D03*
X145000000Y-93200000D03*
X144100000Y-93200000D03*
X143200000Y-93200000D03*
X146800000Y-94100000D03*
X145900000Y-94100000D03*
X145000000Y-94100000D03*
X144100000Y-94100000D03*
X143200000Y-94100000D03*
X146800000Y-95000000D03*
X145900000Y-95000000D03*
X145000000Y-95000000D03*
X144100000Y-95000000D03*
X143200000Y-95000000D03*
X146800000Y-95900000D03*
X145900000Y-95900000D03*
X145000000Y-95900000D03*
X144100000Y-95900000D03*
X143200000Y-95900000D03*
X146800000Y-96800000D03*
X145900000Y-96800000D03*
X145000000Y-96800000D03*
X144100000Y-96800000D03*
X143200000Y-96800000D03*
D11*
X161010000Y-93750000D03*
D12*
X161010000Y-96250000D03*
X163010000Y-96250000D03*
X163010000Y-93750000D03*
D13*
X165720000Y-88980000D03*
X165720000Y-101020000D03*
D14*
X124280000Y-102500000D03*
X124280000Y-87500000D03*
D15*
X126990000Y-91500000D03*
D16*
X126990000Y-94000000D03*
X126990000Y-96000000D03*
X126990000Y-98500000D03*
D17*
X166800000Y-107760000D03*
D18*
G36*
X167574504Y-109411204D02*
G01*
X167598773Y-109414804D01*
X167622571Y-109420765D01*
X167645671Y-109429030D01*
X167667849Y-109439520D01*
X167688893Y-109452133D01*
X167708598Y-109466747D01*
X167726777Y-109483223D01*
X167743253Y-109501402D01*
X167757867Y-109521107D01*
X167770480Y-109542151D01*
X167780970Y-109564329D01*
X167789235Y-109587429D01*
X167795196Y-109611227D01*
X167798796Y-109635496D01*
X167800000Y-109660000D01*
X167800000Y-110860000D01*
X167798796Y-110884504D01*
X167795196Y-110908773D01*
X167789235Y-110932571D01*
X167780970Y-110955671D01*
X167770480Y-110977849D01*
X167757867Y-110998893D01*
X167743253Y-111018598D01*
X167726777Y-111036777D01*
X167708598Y-111053253D01*
X167688893Y-111067867D01*
X167667849Y-111080480D01*
X167645671Y-111090970D01*
X167622571Y-111099235D01*
X167598773Y-111105196D01*
X167574504Y-111108796D01*
X167550000Y-111110000D01*
X166050000Y-111110000D01*
X166025496Y-111108796D01*
X166001227Y-111105196D01*
X165977429Y-111099235D01*
X165954329Y-111090970D01*
X165932151Y-111080480D01*
X165911107Y-111067867D01*
X165891402Y-111053253D01*
X165873223Y-111036777D01*
X165856747Y-111018598D01*
X165842133Y-110998893D01*
X165829520Y-110977849D01*
X165819030Y-110955671D01*
X165810765Y-110932571D01*
X165804804Y-110908773D01*
X165801204Y-110884504D01*
X165800000Y-110860000D01*
X165800000Y-109660000D01*
X165801204Y-109635496D01*
X165804804Y-109611227D01*
X165810765Y-109587429D01*
X165819030Y-109564329D01*
X165829520Y-109542151D01*
X165842133Y-109521107D01*
X165856747Y-109501402D01*
X165873223Y-109483223D01*
X165891402Y-109466747D01*
X165911107Y-109452133D01*
X165932151Y-109439520D01*
X165954329Y-109429030D01*
X165977429Y-109420765D01*
X166001227Y-109414804D01*
X166025496Y-109411204D01*
X166050000Y-109410000D01*
X167550000Y-109410000D01*
X167574504Y-109411204D01*
X167574504Y-109411204D01*
G37*
D12*
X166800000Y-110260000D03*
D11*
X128036000Y-76450000D03*
D19*
X128036000Y-78990000D03*
X128036000Y-81530000D03*
X128036000Y-84070000D03*
D20*
X124166726Y-71833274D03*
X123000000Y-71350000D03*
X121833274Y-71833274D03*
X121350000Y-73000000D03*
X121833274Y-74166726D03*
X123000000Y-74650000D03*
X124166726Y-74166726D03*
X124650000Y-73000000D03*
D21*
X123000000Y-73000000D03*
X123000000Y-117000000D03*
D20*
X124650000Y-117000000D03*
X124166726Y-118166726D03*
X123000000Y-118650000D03*
X121833274Y-118166726D03*
X121350000Y-117000000D03*
X121833274Y-115833274D03*
X123000000Y-115350000D03*
X124166726Y-115833274D03*
X168166726Y-71833274D03*
X167000000Y-71350000D03*
X165833274Y-71833274D03*
X165350000Y-73000000D03*
X165833274Y-74166726D03*
X167000000Y-74650000D03*
X168166726Y-74166726D03*
X168650000Y-73000000D03*
D21*
X167000000Y-73000000D03*
D20*
X168166726Y-115833274D03*
X167000000Y-115350000D03*
X165833274Y-115833274D03*
X165350000Y-117000000D03*
X165833274Y-118166726D03*
X167000000Y-118650000D03*
X168166726Y-118166726D03*
X168650000Y-117000000D03*
D21*
X167000000Y-117000000D03*
D14*
X152500000Y-115720000D03*
X137500000Y-115720000D03*
D15*
X141500000Y-113010000D03*
D16*
X144000000Y-113010000D03*
X146000000Y-113010000D03*
X148500000Y-113010000D03*
D11*
X163420000Y-79720000D03*
D19*
X165960000Y-79720000D03*
X163420000Y-82260000D03*
X165960000Y-82260000D03*
D22*
X141549250Y-86520500D03*
X135972930Y-91547000D03*
X146553505Y-99703452D03*
X149477000Y-93500000D03*
X153577000Y-90999000D03*
X153089000Y-102540500D03*
X150861500Y-101603000D03*
X151683000Y-88361000D03*
X147075785Y-83279000D03*
X133550000Y-84460000D03*
X131350000Y-73863000D03*
X141533000Y-107489000D03*
X147620000Y-110127000D03*
X152151000Y-110127000D03*
X140395000Y-103579000D03*
X142353000Y-103579000D03*
D10*
X138438000Y-103479000D03*
D22*
X136485000Y-102911000D03*
X130059500Y-110834000D03*
X131059500Y-110834000D03*
X153577000Y-92950000D03*
D10*
X158586000Y-91874000D03*
D22*
X149095142Y-83279000D03*
X158650000Y-84460000D03*
X158650000Y-73863000D03*
X140153000Y-92486500D03*
X142934000Y-80260000D03*
X139721000Y-74328000D03*
X129090000Y-92515000D03*
X133775000Y-109289000D03*
X139598750Y-86520500D03*
X143499250Y-86520500D03*
D10*
X156222000Y-99887000D03*
D22*
X152349000Y-95547000D03*
D10*
X159106000Y-114315000D03*
X160106000Y-114315000D03*
X158106000Y-114315000D03*
X161106000Y-114315000D03*
D22*
X125410000Y-111334000D03*
X125410000Y-110334000D03*
X126659000Y-117001500D03*
D10*
X121080000Y-114520000D03*
X168920000Y-114520000D03*
D22*
X167295000Y-92931000D03*
X167295000Y-97070000D03*
X141200000Y-117295000D03*
X148799000Y-117295000D03*
X122705000Y-91201000D03*
X122705000Y-98799000D03*
D10*
X158106000Y-113315000D03*
X161106000Y-113315000D03*
X161106000Y-112315000D03*
X160106000Y-112315000D03*
X159106000Y-112315000D03*
X158106000Y-112315000D03*
X160106000Y-113315000D03*
X159106000Y-113315000D03*
D22*
X135508500Y-100935500D03*
X151602000Y-90023500D03*
X152349000Y-97422000D03*
D10*
X157409000Y-96776000D03*
X158068000Y-79720000D03*
D22*
X146001000Y-89964000D03*
X148908500Y-101603000D03*
X153089000Y-100665500D03*
X151602000Y-91974500D03*
D10*
X158068000Y-82260000D03*
D22*
X137651000Y-94361500D03*
X136949430Y-89570665D03*
X135771000Y-74328000D03*
D10*
X132708000Y-77114000D03*
X163108000Y-108710000D03*
X164108000Y-108710000D03*
X164108000Y-107710000D03*
X163108000Y-106710000D03*
X164108000Y-106710000D03*
X164108000Y-105710000D03*
X164108000Y-104710000D03*
X162108000Y-106710000D03*
X163108000Y-107710000D03*
X162108000Y-107710000D03*
X163108000Y-105710000D03*
X163108000Y-104710000D03*
D22*
X144675500Y-116360500D03*
X144675500Y-115409500D03*
X127610000Y-106626894D03*
X128317106Y-107334000D03*
X130059500Y-113912000D03*
X131027500Y-98819000D03*
X136688500Y-110540000D03*
X131059500Y-113912000D03*
D10*
X155679500Y-106960500D03*
X154679500Y-106960500D03*
X154679500Y-107960500D03*
X156679500Y-107960500D03*
X156679500Y-106960500D03*
X157679500Y-106960500D03*
X157679500Y-107960500D03*
D22*
X130059500Y-116340000D03*
X131059500Y-116340000D03*
D10*
X155679500Y-107960500D03*
X154679500Y-108960500D03*
X155679500Y-108960500D03*
X154679500Y-109960500D03*
X155679500Y-109960500D03*
X148954000Y-99169513D03*
D22*
X123639500Y-94675500D03*
X124590500Y-94675500D03*
X126610000Y-106626894D03*
X125902894Y-107334000D03*
X149659213Y-97510000D03*
X145631428Y-86192000D03*
X150539500Y-86192000D03*
D10*
X141619632Y-90457000D03*
X142474000Y-90457000D03*
X144526000Y-90457000D03*
X145511351Y-90729990D03*
X148131430Y-89702000D03*
X141549250Y-88397500D03*
X149270010Y-94850000D03*
X149548800Y-95981200D03*
X132708000Y-81530000D03*
X126710000Y-114186182D03*
X128875686Y-108634000D03*
X140383000Y-94955005D03*
X130945502Y-104392502D03*
X140153000Y-94200010D03*
X130945502Y-101474000D03*
D18*
G36*
X167519275Y-70377474D02*
G01*
X168018770Y-70528281D01*
X168479459Y-70773233D01*
X168883797Y-71103002D01*
X169216384Y-71505031D01*
X169464548Y-71964001D01*
X169618837Y-72462427D01*
X169674986Y-72996657D01*
X169675001Y-73000846D01*
X169675000Y-116984104D01*
X169622526Y-117519274D01*
X169471719Y-118018770D01*
X169226768Y-118479458D01*
X168896995Y-118883799D01*
X168494970Y-119216383D01*
X168035997Y-119464548D01*
X167537575Y-119618836D01*
X167003342Y-119674986D01*
X166999441Y-119675000D01*
X123015896Y-119675000D01*
X122480726Y-119622526D01*
X121981230Y-119471719D01*
X121520542Y-119226768D01*
X121116201Y-118896995D01*
X120783617Y-118494970D01*
X120535452Y-118035997D01*
X120381164Y-117537575D01*
X120325014Y-117003342D01*
X120325000Y-116999441D01*
X120325000Y-116753772D01*
X120500000Y-116753772D01*
X120500000Y-117246228D01*
X120596074Y-117729223D01*
X120784529Y-118184194D01*
X121058124Y-118593657D01*
X121406343Y-118941876D01*
X121815806Y-119215471D01*
X122270777Y-119403926D01*
X122753772Y-119500000D01*
X123246228Y-119500000D01*
X123729223Y-119403926D01*
X124184194Y-119215471D01*
X124593657Y-118941876D01*
X124941876Y-118593657D01*
X125215471Y-118184194D01*
X125403926Y-117729223D01*
X125500000Y-117246228D01*
X125500000Y-116753772D01*
X125403982Y-116271056D01*
X129359500Y-116271056D01*
X129359500Y-116408944D01*
X129386401Y-116544182D01*
X129439168Y-116671574D01*
X129515774Y-116786224D01*
X129613276Y-116883726D01*
X129727926Y-116960332D01*
X129855318Y-117013099D01*
X129990556Y-117040000D01*
X130128444Y-117040000D01*
X130263682Y-117013099D01*
X130391074Y-116960332D01*
X130505724Y-116883726D01*
X130559500Y-116829950D01*
X130613276Y-116883726D01*
X130727926Y-116960332D01*
X130855318Y-117013099D01*
X130990556Y-117040000D01*
X131128444Y-117040000D01*
X131263682Y-117013099D01*
X131391074Y-116960332D01*
X131505724Y-116883726D01*
X131603226Y-116786224D01*
X131679832Y-116671574D01*
X131732599Y-116544182D01*
X131759500Y-116408944D01*
X131759500Y-116271056D01*
X131732599Y-116135818D01*
X131679832Y-116008426D01*
X131603226Y-115893776D01*
X131505724Y-115796274D01*
X131391074Y-115719668D01*
X131263682Y-115666901D01*
X131128444Y-115640000D01*
X130990556Y-115640000D01*
X130855318Y-115666901D01*
X130727926Y-115719668D01*
X130613276Y-115796274D01*
X130559500Y-115850050D01*
X130505724Y-115796274D01*
X130391074Y-115719668D01*
X130263682Y-115666901D01*
X130128444Y-115640000D01*
X129990556Y-115640000D01*
X129855318Y-115666901D01*
X129727926Y-115719668D01*
X129613276Y-115796274D01*
X129515774Y-115893776D01*
X129439168Y-116008426D01*
X129386401Y-116135818D01*
X129359500Y-116271056D01*
X125403982Y-116271056D01*
X125403926Y-116270777D01*
X125215471Y-115815806D01*
X125032998Y-115542716D01*
X135700000Y-115542716D01*
X135700000Y-115897284D01*
X135769173Y-116245041D01*
X135904861Y-116572620D01*
X136101849Y-116867433D01*
X136352567Y-117118151D01*
X136647380Y-117315139D01*
X136974959Y-117450827D01*
X137322716Y-117520000D01*
X137677284Y-117520000D01*
X138025041Y-117450827D01*
X138352620Y-117315139D01*
X138647433Y-117118151D01*
X138898151Y-116867433D01*
X139095139Y-116572620D01*
X139230827Y-116245041D01*
X139300000Y-115897284D01*
X139300000Y-115542716D01*
X139259788Y-115340556D01*
X143975500Y-115340556D01*
X143975500Y-115478444D01*
X144002401Y-115613682D01*
X144055168Y-115741074D01*
X144131774Y-115855724D01*
X144161050Y-115885000D01*
X144131774Y-115914276D01*
X144055168Y-116028926D01*
X144002401Y-116156318D01*
X143975500Y-116291556D01*
X143975500Y-116429444D01*
X144002401Y-116564682D01*
X144055168Y-116692074D01*
X144131774Y-116806724D01*
X144229276Y-116904226D01*
X144343926Y-116980832D01*
X144471318Y-117033599D01*
X144606556Y-117060500D01*
X144744444Y-117060500D01*
X144879682Y-117033599D01*
X145007074Y-116980832D01*
X145121724Y-116904226D01*
X145219226Y-116806724D01*
X145295832Y-116692074D01*
X145348599Y-116564682D01*
X145375500Y-116429444D01*
X145375500Y-116291556D01*
X145348599Y-116156318D01*
X145295832Y-116028926D01*
X145219226Y-115914276D01*
X145189950Y-115885000D01*
X145219226Y-115855724D01*
X145295832Y-115741074D01*
X145348599Y-115613682D01*
X145362715Y-115542716D01*
X150700000Y-115542716D01*
X150700000Y-115897284D01*
X150769173Y-116245041D01*
X150904861Y-116572620D01*
X151101849Y-116867433D01*
X151352567Y-117118151D01*
X151647380Y-117315139D01*
X151974959Y-117450827D01*
X152322716Y-117520000D01*
X152677284Y-117520000D01*
X153025041Y-117450827D01*
X153352620Y-117315139D01*
X153647433Y-117118151D01*
X153898151Y-116867433D01*
X153974096Y-116753772D01*
X164500000Y-116753772D01*
X164500000Y-117246228D01*
X164596074Y-117729223D01*
X164784529Y-118184194D01*
X165058124Y-118593657D01*
X165406343Y-118941876D01*
X165815806Y-119215471D01*
X166270777Y-119403926D01*
X166753772Y-119500000D01*
X167246228Y-119500000D01*
X167729223Y-119403926D01*
X168184194Y-119215471D01*
X168593657Y-118941876D01*
X168941876Y-118593657D01*
X169215471Y-118184194D01*
X169403926Y-117729223D01*
X169500000Y-117246228D01*
X169500000Y-116753772D01*
X169403926Y-116270777D01*
X169215471Y-115815806D01*
X168941876Y-115406343D01*
X168593657Y-115058124D01*
X168184194Y-114784529D01*
X167729223Y-114596074D01*
X167246228Y-114500000D01*
X166753772Y-114500000D01*
X166270777Y-114596074D01*
X165815806Y-114784529D01*
X165406343Y-115058124D01*
X165058124Y-115406343D01*
X164784529Y-115815806D01*
X164596074Y-116270777D01*
X164500000Y-116753772D01*
X153974096Y-116753772D01*
X154095139Y-116572620D01*
X154230827Y-116245041D01*
X154300000Y-115897284D01*
X154300000Y-115542716D01*
X154230827Y-115194959D01*
X154095139Y-114867380D01*
X153898151Y-114572567D01*
X153647433Y-114321849D01*
X153352620Y-114124861D01*
X153025041Y-113989173D01*
X152677284Y-113920000D01*
X152322716Y-113920000D01*
X151974959Y-113989173D01*
X151647380Y-114124861D01*
X151352567Y-114321849D01*
X151101849Y-114572567D01*
X150904861Y-114867380D01*
X150769173Y-115194959D01*
X150700000Y-115542716D01*
X145362715Y-115542716D01*
X145375500Y-115478444D01*
X145375500Y-115340556D01*
X145348599Y-115205318D01*
X145295832Y-115077926D01*
X145219226Y-114963276D01*
X145121724Y-114865774D01*
X145007074Y-114789168D01*
X144879682Y-114736401D01*
X144744444Y-114709500D01*
X144606556Y-114709500D01*
X144471318Y-114736401D01*
X144343926Y-114789168D01*
X144229276Y-114865774D01*
X144131774Y-114963276D01*
X144055168Y-115077926D01*
X144002401Y-115205318D01*
X143975500Y-115340556D01*
X139259788Y-115340556D01*
X139230827Y-115194959D01*
X139095139Y-114867380D01*
X138898151Y-114572567D01*
X138647433Y-114321849D01*
X138352620Y-114124861D01*
X138025041Y-113989173D01*
X137677284Y-113920000D01*
X137322716Y-113920000D01*
X136974959Y-113989173D01*
X136647380Y-114124861D01*
X136352567Y-114321849D01*
X136101849Y-114572567D01*
X135904861Y-114867380D01*
X135769173Y-115194959D01*
X135700000Y-115542716D01*
X125032998Y-115542716D01*
X124941876Y-115406343D01*
X124593657Y-115058124D01*
X124184194Y-114784529D01*
X123729223Y-114596074D01*
X123246228Y-114500000D01*
X122753772Y-114500000D01*
X122270777Y-114596074D01*
X121815806Y-114784529D01*
X121406343Y-115058124D01*
X121058124Y-115406343D01*
X120784529Y-115815806D01*
X120596074Y-116270777D01*
X120500000Y-116753772D01*
X120325000Y-116753772D01*
X120325000Y-114127087D01*
X126110000Y-114127087D01*
X126110000Y-114245277D01*
X126133058Y-114361196D01*
X126178287Y-114470389D01*
X126243950Y-114568660D01*
X126327522Y-114652232D01*
X126425793Y-114717895D01*
X126534986Y-114763124D01*
X126650905Y-114786182D01*
X126769095Y-114786182D01*
X126885014Y-114763124D01*
X126994207Y-114717895D01*
X127092478Y-114652232D01*
X127176050Y-114568660D01*
X127241713Y-114470389D01*
X127286942Y-114361196D01*
X127310000Y-114245277D01*
X127310000Y-114127087D01*
X127286942Y-114011168D01*
X127241713Y-113901975D01*
X127202345Y-113843056D01*
X129359500Y-113843056D01*
X129359500Y-113980944D01*
X129386401Y-114116182D01*
X129439168Y-114243574D01*
X129515774Y-114358224D01*
X129613276Y-114455726D01*
X129727926Y-114532332D01*
X129855318Y-114585099D01*
X129990556Y-114612000D01*
X130128444Y-114612000D01*
X130263682Y-114585099D01*
X130391074Y-114532332D01*
X130505724Y-114455726D01*
X130559500Y-114401950D01*
X130613276Y-114455726D01*
X130727926Y-114532332D01*
X130855318Y-114585099D01*
X130990556Y-114612000D01*
X131128444Y-114612000D01*
X131263682Y-114585099D01*
X131391074Y-114532332D01*
X131505724Y-114455726D01*
X131603226Y-114358224D01*
X131679832Y-114243574D01*
X131732599Y-114116182D01*
X131759500Y-113980944D01*
X131759500Y-113843056D01*
X131732599Y-113707818D01*
X131679832Y-113580426D01*
X131603226Y-113465776D01*
X131505724Y-113368274D01*
X131391074Y-113291668D01*
X131263682Y-113238901D01*
X131128444Y-113212000D01*
X130990556Y-113212000D01*
X130855318Y-113238901D01*
X130727926Y-113291668D01*
X130613276Y-113368274D01*
X130559500Y-113422050D01*
X130505724Y-113368274D01*
X130391074Y-113291668D01*
X130263682Y-113238901D01*
X130128444Y-113212000D01*
X129990556Y-113212000D01*
X129855318Y-113238901D01*
X129727926Y-113291668D01*
X129613276Y-113368274D01*
X129515774Y-113465776D01*
X129439168Y-113580426D01*
X129386401Y-113707818D01*
X129359500Y-113843056D01*
X127202345Y-113843056D01*
X127176050Y-113803704D01*
X127092478Y-113720132D01*
X126994207Y-113654469D01*
X126885014Y-113609240D01*
X126769095Y-113586182D01*
X126650905Y-113586182D01*
X126534986Y-113609240D01*
X126425793Y-113654469D01*
X126327522Y-113720132D01*
X126243950Y-113803704D01*
X126178287Y-113901975D01*
X126133058Y-114011168D01*
X126110000Y-114127087D01*
X120325000Y-114127087D01*
X120325000Y-112210000D01*
X140398549Y-112210000D01*
X140398549Y-113810000D01*
X140404341Y-113868810D01*
X140421496Y-113925360D01*
X140449353Y-113977477D01*
X140486842Y-114023158D01*
X140532523Y-114060647D01*
X140584640Y-114088504D01*
X140641190Y-114105659D01*
X140700000Y-114111451D01*
X142300000Y-114111451D01*
X142358810Y-114105659D01*
X142415360Y-114088504D01*
X142467477Y-114060647D01*
X142513158Y-114023158D01*
X142550647Y-113977477D01*
X142578504Y-113925360D01*
X142595659Y-113868810D01*
X142601451Y-113810000D01*
X142601451Y-112901659D01*
X142900000Y-112901659D01*
X142900000Y-113118341D01*
X142942273Y-113330858D01*
X143025193Y-113531045D01*
X143145575Y-113711209D01*
X143298791Y-113864425D01*
X143478955Y-113984807D01*
X143679142Y-114067727D01*
X143891659Y-114110000D01*
X144108341Y-114110000D01*
X144320858Y-114067727D01*
X144521045Y-113984807D01*
X144701209Y-113864425D01*
X144854425Y-113711209D01*
X144974807Y-113531045D01*
X145000000Y-113470224D01*
X145025193Y-113531045D01*
X145145575Y-113711209D01*
X145298791Y-113864425D01*
X145478955Y-113984807D01*
X145679142Y-114067727D01*
X145891659Y-114110000D01*
X146108341Y-114110000D01*
X146320858Y-114067727D01*
X146521045Y-113984807D01*
X146701209Y-113864425D01*
X146854425Y-113711209D01*
X146974807Y-113531045D01*
X147057727Y-113330858D01*
X147100000Y-113118341D01*
X147100000Y-112901659D01*
X147057727Y-112689142D01*
X146974807Y-112488955D01*
X146854425Y-112308791D01*
X146701209Y-112155575D01*
X146521045Y-112035193D01*
X146320858Y-111952273D01*
X146108341Y-111910000D01*
X145891659Y-111910000D01*
X145679142Y-111952273D01*
X145478955Y-112035193D01*
X145298791Y-112155575D01*
X145145575Y-112308791D01*
X145025193Y-112488955D01*
X145000000Y-112549776D01*
X144974807Y-112488955D01*
X144854425Y-112308791D01*
X144701209Y-112155575D01*
X144521045Y-112035193D01*
X144320858Y-111952273D01*
X144108341Y-111910000D01*
X143891659Y-111910000D01*
X143679142Y-111952273D01*
X143478955Y-112035193D01*
X143298791Y-112155575D01*
X143145575Y-112308791D01*
X143025193Y-112488955D01*
X142942273Y-112689142D01*
X142900000Y-112901659D01*
X142601451Y-112901659D01*
X142601451Y-112210000D01*
X142595659Y-112151190D01*
X142578504Y-112094640D01*
X142550647Y-112042523D01*
X142513158Y-111996842D01*
X142467477Y-111959353D01*
X142415360Y-111931496D01*
X142358810Y-111914341D01*
X142300000Y-111908549D01*
X140700000Y-111908549D01*
X140641190Y-111914341D01*
X140584640Y-111931496D01*
X140532523Y-111959353D01*
X140486842Y-111996842D01*
X140449353Y-112042523D01*
X140421496Y-112094640D01*
X140404341Y-112151190D01*
X140398549Y-112210000D01*
X120325000Y-112210000D01*
X120325000Y-110471056D01*
X135988500Y-110471056D01*
X135988500Y-110608944D01*
X136015401Y-110744182D01*
X136068168Y-110871574D01*
X136144774Y-110986224D01*
X136242276Y-111083726D01*
X136356926Y-111160332D01*
X136484318Y-111213099D01*
X136619556Y-111240000D01*
X136757444Y-111240000D01*
X136892682Y-111213099D01*
X137020074Y-111160332D01*
X137134724Y-111083726D01*
X137232226Y-110986224D01*
X137308832Y-110871574D01*
X137361599Y-110744182D01*
X137388500Y-110608944D01*
X137388500Y-110471056D01*
X137361599Y-110335818D01*
X137308832Y-110208426D01*
X137232226Y-110093776D01*
X137134724Y-109996274D01*
X137020074Y-109919668D01*
X136892682Y-109866901D01*
X136757444Y-109840000D01*
X136619556Y-109840000D01*
X136484318Y-109866901D01*
X136356926Y-109919668D01*
X136242276Y-109996274D01*
X136144774Y-110093776D01*
X136068168Y-110208426D01*
X136015401Y-110335818D01*
X135988500Y-110471056D01*
X120325000Y-110471056D01*
X120325000Y-108574905D01*
X128275686Y-108574905D01*
X128275686Y-108693095D01*
X128298744Y-108809014D01*
X128343973Y-108918207D01*
X128409636Y-109016478D01*
X128493208Y-109100050D01*
X128591479Y-109165713D01*
X128700672Y-109210942D01*
X128816591Y-109234000D01*
X128934781Y-109234000D01*
X129050700Y-109210942D01*
X129159893Y-109165713D01*
X129258164Y-109100050D01*
X129341736Y-109016478D01*
X129407399Y-108918207D01*
X129452628Y-108809014D01*
X129475686Y-108693095D01*
X129475686Y-108574905D01*
X129452628Y-108458986D01*
X129407399Y-108349793D01*
X129341736Y-108251522D01*
X129258164Y-108167950D01*
X129159893Y-108102287D01*
X129050700Y-108057058D01*
X128934781Y-108034000D01*
X128816591Y-108034000D01*
X128700672Y-108057058D01*
X128591479Y-108102287D01*
X128493208Y-108167950D01*
X128409636Y-108251522D01*
X128343973Y-108349793D01*
X128298744Y-108458986D01*
X128275686Y-108574905D01*
X120325000Y-108574905D01*
X120325000Y-107265056D01*
X125202894Y-107265056D01*
X125202894Y-107402944D01*
X125229795Y-107538182D01*
X125282562Y-107665574D01*
X125359168Y-107780224D01*
X125456670Y-107877726D01*
X125571320Y-107954332D01*
X125698712Y-108007099D01*
X125833950Y-108034000D01*
X125971838Y-108034000D01*
X126107076Y-108007099D01*
X126234468Y-107954332D01*
X126349118Y-107877726D01*
X126446620Y-107780224D01*
X126523226Y-107665574D01*
X126575993Y-107538182D01*
X126602894Y-107402944D01*
X126602894Y-107326894D01*
X126678944Y-107326894D01*
X126814182Y-107299993D01*
X126941574Y-107247226D01*
X127056224Y-107170620D01*
X127110000Y-107116844D01*
X127163776Y-107170620D01*
X127278426Y-107247226D01*
X127405818Y-107299993D01*
X127541056Y-107326894D01*
X127617106Y-107326894D01*
X127617106Y-107402944D01*
X127644007Y-107538182D01*
X127696774Y-107665574D01*
X127773380Y-107780224D01*
X127870882Y-107877726D01*
X127985532Y-107954332D01*
X128112924Y-108007099D01*
X128248162Y-108034000D01*
X128386050Y-108034000D01*
X128521288Y-108007099D01*
X128648680Y-107954332D01*
X128763330Y-107877726D01*
X128860832Y-107780224D01*
X128937438Y-107665574D01*
X128990205Y-107538182D01*
X129017106Y-107402944D01*
X129017106Y-107265056D01*
X128990205Y-107129818D01*
X128937438Y-107002426D01*
X128869939Y-106901405D01*
X154079500Y-106901405D01*
X154079500Y-107019595D01*
X154102558Y-107135514D01*
X154147787Y-107244707D01*
X154213450Y-107342978D01*
X154297022Y-107426550D01*
X154347831Y-107460500D01*
X154297022Y-107494450D01*
X154213450Y-107578022D01*
X154147787Y-107676293D01*
X154102558Y-107785486D01*
X154079500Y-107901405D01*
X154079500Y-108019595D01*
X154102558Y-108135514D01*
X154147787Y-108244707D01*
X154213450Y-108342978D01*
X154297022Y-108426550D01*
X154347831Y-108460500D01*
X154297022Y-108494450D01*
X154213450Y-108578022D01*
X154147787Y-108676293D01*
X154102558Y-108785486D01*
X154079500Y-108901405D01*
X154079500Y-109019595D01*
X154102558Y-109135514D01*
X154147787Y-109244707D01*
X154213450Y-109342978D01*
X154297022Y-109426550D01*
X154347831Y-109460500D01*
X154297022Y-109494450D01*
X154213450Y-109578022D01*
X154147787Y-109676293D01*
X154102558Y-109785486D01*
X154079500Y-109901405D01*
X154079500Y-110019595D01*
X154102558Y-110135514D01*
X154147787Y-110244707D01*
X154213450Y-110342978D01*
X154297022Y-110426550D01*
X154395293Y-110492213D01*
X154504486Y-110537442D01*
X154620405Y-110560500D01*
X154738595Y-110560500D01*
X154854514Y-110537442D01*
X154963707Y-110492213D01*
X155061978Y-110426550D01*
X155145550Y-110342978D01*
X155179500Y-110292169D01*
X155213450Y-110342978D01*
X155297022Y-110426550D01*
X155395293Y-110492213D01*
X155504486Y-110537442D01*
X155620405Y-110560500D01*
X155738595Y-110560500D01*
X155854514Y-110537442D01*
X155963707Y-110492213D01*
X156061978Y-110426550D01*
X156145550Y-110342978D01*
X156211213Y-110244707D01*
X156256442Y-110135514D01*
X156279500Y-110019595D01*
X156279500Y-109901405D01*
X156256442Y-109785486D01*
X156211213Y-109676293D01*
X156200327Y-109660000D01*
X165498549Y-109660000D01*
X165498549Y-110860000D01*
X165509145Y-110967583D01*
X165540526Y-111071031D01*
X165591485Y-111166370D01*
X165660065Y-111249935D01*
X165743630Y-111318515D01*
X165838969Y-111369474D01*
X165942417Y-111400855D01*
X166050000Y-111411451D01*
X167550000Y-111411451D01*
X167657583Y-111400855D01*
X167761031Y-111369474D01*
X167856370Y-111318515D01*
X167939935Y-111249935D01*
X168008515Y-111166370D01*
X168059474Y-111071031D01*
X168090855Y-110967583D01*
X168101451Y-110860000D01*
X168101451Y-109660000D01*
X168090855Y-109552417D01*
X168059474Y-109448969D01*
X168008515Y-109353630D01*
X167939935Y-109270065D01*
X167856370Y-109201485D01*
X167761031Y-109150526D01*
X167657583Y-109119145D01*
X167550000Y-109108549D01*
X166050000Y-109108549D01*
X165942417Y-109119145D01*
X165838969Y-109150526D01*
X165743630Y-109201485D01*
X165660065Y-109270065D01*
X165591485Y-109353630D01*
X165540526Y-109448969D01*
X165509145Y-109552417D01*
X165498549Y-109660000D01*
X156200327Y-109660000D01*
X156145550Y-109578022D01*
X156061978Y-109494450D01*
X156011169Y-109460500D01*
X156061978Y-109426550D01*
X156145550Y-109342978D01*
X156211213Y-109244707D01*
X156256442Y-109135514D01*
X156279500Y-109019595D01*
X156279500Y-108901405D01*
X156256442Y-108785486D01*
X156211213Y-108676293D01*
X156145550Y-108578022D01*
X156061978Y-108494450D01*
X156011169Y-108460500D01*
X156061978Y-108426550D01*
X156145550Y-108342978D01*
X156179500Y-108292169D01*
X156213450Y-108342978D01*
X156297022Y-108426550D01*
X156395293Y-108492213D01*
X156504486Y-108537442D01*
X156620405Y-108560500D01*
X156738595Y-108560500D01*
X156854514Y-108537442D01*
X156963707Y-108492213D01*
X157061978Y-108426550D01*
X157145550Y-108342978D01*
X157179500Y-108292169D01*
X157213450Y-108342978D01*
X157297022Y-108426550D01*
X157395293Y-108492213D01*
X157504486Y-108537442D01*
X157620405Y-108560500D01*
X157738595Y-108560500D01*
X157854514Y-108537442D01*
X157963707Y-108492213D01*
X158061978Y-108426550D01*
X158145550Y-108342978D01*
X158211213Y-108244707D01*
X158256442Y-108135514D01*
X158279500Y-108019595D01*
X158279500Y-107901405D01*
X158256442Y-107785486D01*
X158211213Y-107676293D01*
X158145550Y-107578022D01*
X158061978Y-107494450D01*
X158011169Y-107460500D01*
X158061978Y-107426550D01*
X158145550Y-107342978D01*
X158211213Y-107244707D01*
X158256442Y-107135514D01*
X158279500Y-107019595D01*
X158279500Y-106901405D01*
X158256442Y-106785486D01*
X158211213Y-106676293D01*
X158194250Y-106650905D01*
X161508000Y-106650905D01*
X161508000Y-106769095D01*
X161531058Y-106885014D01*
X161576287Y-106994207D01*
X161641950Y-107092478D01*
X161725522Y-107176050D01*
X161776331Y-107210000D01*
X161725522Y-107243950D01*
X161641950Y-107327522D01*
X161576287Y-107425793D01*
X161531058Y-107534986D01*
X161508000Y-107650905D01*
X161508000Y-107769095D01*
X161531058Y-107885014D01*
X161576287Y-107994207D01*
X161641950Y-108092478D01*
X161725522Y-108176050D01*
X161823793Y-108241713D01*
X161932986Y-108286942D01*
X162048905Y-108310000D01*
X162167095Y-108310000D01*
X162283014Y-108286942D01*
X162392207Y-108241713D01*
X162490478Y-108176050D01*
X162574050Y-108092478D01*
X162608000Y-108041669D01*
X162641950Y-108092478D01*
X162725522Y-108176050D01*
X162776331Y-108210000D01*
X162725522Y-108243950D01*
X162641950Y-108327522D01*
X162576287Y-108425793D01*
X162531058Y-108534986D01*
X162508000Y-108650905D01*
X162508000Y-108769095D01*
X162531058Y-108885014D01*
X162576287Y-108994207D01*
X162641950Y-109092478D01*
X162725522Y-109176050D01*
X162823793Y-109241713D01*
X162932986Y-109286942D01*
X163048905Y-109310000D01*
X163167095Y-109310000D01*
X163283014Y-109286942D01*
X163392207Y-109241713D01*
X163490478Y-109176050D01*
X163574050Y-109092478D01*
X163608000Y-109041669D01*
X163641950Y-109092478D01*
X163725522Y-109176050D01*
X163823793Y-109241713D01*
X163932986Y-109286942D01*
X164048905Y-109310000D01*
X164167095Y-109310000D01*
X164283014Y-109286942D01*
X164392207Y-109241713D01*
X164490478Y-109176050D01*
X164574050Y-109092478D01*
X164639713Y-108994207D01*
X164684942Y-108885014D01*
X164708000Y-108769095D01*
X164708000Y-108650905D01*
X164684942Y-108534986D01*
X164639713Y-108425793D01*
X164574050Y-108327522D01*
X164490478Y-108243950D01*
X164439669Y-108210000D01*
X164490478Y-108176050D01*
X164574050Y-108092478D01*
X164639713Y-107994207D01*
X164684942Y-107885014D01*
X164708000Y-107769095D01*
X164708000Y-107650905D01*
X164684942Y-107534986D01*
X164639713Y-107425793D01*
X164574050Y-107327522D01*
X164490478Y-107243950D01*
X164439669Y-107210000D01*
X164490478Y-107176050D01*
X164574050Y-107092478D01*
X164639713Y-106994207D01*
X164684942Y-106885014D01*
X164708000Y-106769095D01*
X164708000Y-106650905D01*
X164684942Y-106534986D01*
X164639713Y-106425793D01*
X164574050Y-106327522D01*
X164490478Y-106243950D01*
X164439669Y-106210000D01*
X164490478Y-106176050D01*
X164574050Y-106092478D01*
X164639713Y-105994207D01*
X164684942Y-105885014D01*
X164708000Y-105769095D01*
X164708000Y-105650905D01*
X164684942Y-105534986D01*
X164639713Y-105425793D01*
X164574050Y-105327522D01*
X164490478Y-105243950D01*
X164439669Y-105210000D01*
X164490478Y-105176050D01*
X164574050Y-105092478D01*
X164639713Y-104994207D01*
X164684942Y-104885014D01*
X164708000Y-104769095D01*
X164708000Y-104650905D01*
X164684942Y-104534986D01*
X164639713Y-104425793D01*
X164574050Y-104327522D01*
X164490478Y-104243950D01*
X164392207Y-104178287D01*
X164283014Y-104133058D01*
X164167095Y-104110000D01*
X164048905Y-104110000D01*
X163932986Y-104133058D01*
X163823793Y-104178287D01*
X163725522Y-104243950D01*
X163641950Y-104327522D01*
X163608000Y-104378331D01*
X163574050Y-104327522D01*
X163490478Y-104243950D01*
X163392207Y-104178287D01*
X163283014Y-104133058D01*
X163167095Y-104110000D01*
X163048905Y-104110000D01*
X162932986Y-104133058D01*
X162823793Y-104178287D01*
X162725522Y-104243950D01*
X162641950Y-104327522D01*
X162576287Y-104425793D01*
X162531058Y-104534986D01*
X162508000Y-104650905D01*
X162508000Y-104769095D01*
X162531058Y-104885014D01*
X162576287Y-104994207D01*
X162641950Y-105092478D01*
X162725522Y-105176050D01*
X162776331Y-105210000D01*
X162725522Y-105243950D01*
X162641950Y-105327522D01*
X162576287Y-105425793D01*
X162531058Y-105534986D01*
X162508000Y-105650905D01*
X162508000Y-105769095D01*
X162531058Y-105885014D01*
X162576287Y-105994207D01*
X162641950Y-106092478D01*
X162725522Y-106176050D01*
X162776331Y-106210000D01*
X162725522Y-106243950D01*
X162641950Y-106327522D01*
X162608000Y-106378331D01*
X162574050Y-106327522D01*
X162490478Y-106243950D01*
X162392207Y-106178287D01*
X162283014Y-106133058D01*
X162167095Y-106110000D01*
X162048905Y-106110000D01*
X161932986Y-106133058D01*
X161823793Y-106178287D01*
X161725522Y-106243950D01*
X161641950Y-106327522D01*
X161576287Y-106425793D01*
X161531058Y-106534986D01*
X161508000Y-106650905D01*
X158194250Y-106650905D01*
X158145550Y-106578022D01*
X158061978Y-106494450D01*
X157963707Y-106428787D01*
X157854514Y-106383558D01*
X157738595Y-106360500D01*
X157620405Y-106360500D01*
X157504486Y-106383558D01*
X157395293Y-106428787D01*
X157297022Y-106494450D01*
X157213450Y-106578022D01*
X157179500Y-106628831D01*
X157145550Y-106578022D01*
X157061978Y-106494450D01*
X156963707Y-106428787D01*
X156854514Y-106383558D01*
X156738595Y-106360500D01*
X156620405Y-106360500D01*
X156504486Y-106383558D01*
X156395293Y-106428787D01*
X156297022Y-106494450D01*
X156213450Y-106578022D01*
X156179500Y-106628831D01*
X156145550Y-106578022D01*
X156061978Y-106494450D01*
X155963707Y-106428787D01*
X155854514Y-106383558D01*
X155738595Y-106360500D01*
X155620405Y-106360500D01*
X155504486Y-106383558D01*
X155395293Y-106428787D01*
X155297022Y-106494450D01*
X155213450Y-106578022D01*
X155179500Y-106628831D01*
X155145550Y-106578022D01*
X155061978Y-106494450D01*
X154963707Y-106428787D01*
X154854514Y-106383558D01*
X154738595Y-106360500D01*
X154620405Y-106360500D01*
X154504486Y-106383558D01*
X154395293Y-106428787D01*
X154297022Y-106494450D01*
X154213450Y-106578022D01*
X154147787Y-106676293D01*
X154102558Y-106785486D01*
X154079500Y-106901405D01*
X128869939Y-106901405D01*
X128860832Y-106887776D01*
X128763330Y-106790274D01*
X128648680Y-106713668D01*
X128521288Y-106660901D01*
X128386050Y-106634000D01*
X128310000Y-106634000D01*
X128310000Y-106557950D01*
X128283099Y-106422712D01*
X128230332Y-106295320D01*
X128153726Y-106180670D01*
X128056224Y-106083168D01*
X127941574Y-106006562D01*
X127814182Y-105953795D01*
X127678944Y-105926894D01*
X127541056Y-105926894D01*
X127405818Y-105953795D01*
X127278426Y-106006562D01*
X127163776Y-106083168D01*
X127110000Y-106136944D01*
X127056224Y-106083168D01*
X126941574Y-106006562D01*
X126814182Y-105953795D01*
X126678944Y-105926894D01*
X126541056Y-105926894D01*
X126405818Y-105953795D01*
X126278426Y-106006562D01*
X126163776Y-106083168D01*
X126066274Y-106180670D01*
X125989668Y-106295320D01*
X125936901Y-106422712D01*
X125910000Y-106557950D01*
X125910000Y-106634000D01*
X125833950Y-106634000D01*
X125698712Y-106660901D01*
X125571320Y-106713668D01*
X125456670Y-106790274D01*
X125359168Y-106887776D01*
X125282562Y-107002426D01*
X125229795Y-107129818D01*
X125202894Y-107265056D01*
X120325000Y-107265056D01*
X120325000Y-104333407D01*
X130345502Y-104333407D01*
X130345502Y-104451597D01*
X130368560Y-104567516D01*
X130413789Y-104676709D01*
X130479452Y-104774980D01*
X130563024Y-104858552D01*
X130661295Y-104924215D01*
X130770488Y-104969444D01*
X130886407Y-104992502D01*
X131004597Y-104992502D01*
X131120516Y-104969444D01*
X131229709Y-104924215D01*
X131327980Y-104858552D01*
X131411552Y-104774980D01*
X131477215Y-104676709D01*
X131522444Y-104567516D01*
X131545502Y-104451597D01*
X131545502Y-104333407D01*
X131522444Y-104217488D01*
X131477215Y-104108295D01*
X131411552Y-104010024D01*
X131327980Y-103926452D01*
X131229709Y-103860789D01*
X131120516Y-103815560D01*
X131004597Y-103792502D01*
X130886407Y-103792502D01*
X130770488Y-103815560D01*
X130661295Y-103860789D01*
X130563024Y-103926452D01*
X130479452Y-104010024D01*
X130413789Y-104108295D01*
X130368560Y-104217488D01*
X130345502Y-104333407D01*
X120325000Y-104333407D01*
X120325000Y-102322716D01*
X122480000Y-102322716D01*
X122480000Y-102677284D01*
X122549173Y-103025041D01*
X122684861Y-103352620D01*
X122881849Y-103647433D01*
X123132567Y-103898151D01*
X123427380Y-104095139D01*
X123754959Y-104230827D01*
X124102716Y-104300000D01*
X124457284Y-104300000D01*
X124805041Y-104230827D01*
X125132620Y-104095139D01*
X125427433Y-103898151D01*
X125678151Y-103647433D01*
X125875139Y-103352620D01*
X126010827Y-103025041D01*
X126080000Y-102677284D01*
X126080000Y-102322716D01*
X126010827Y-101974959D01*
X125875139Y-101647380D01*
X125719804Y-101414905D01*
X130345502Y-101414905D01*
X130345502Y-101533095D01*
X130368560Y-101649014D01*
X130413789Y-101758207D01*
X130479452Y-101856478D01*
X130563024Y-101940050D01*
X130661295Y-102005713D01*
X130770488Y-102050942D01*
X130886407Y-102074000D01*
X131004597Y-102074000D01*
X131120516Y-102050942D01*
X131229709Y-102005713D01*
X131327980Y-101940050D01*
X131411552Y-101856478D01*
X131477215Y-101758207D01*
X131522444Y-101649014D01*
X131545502Y-101533095D01*
X131545502Y-101414905D01*
X131522444Y-101298986D01*
X131477215Y-101189793D01*
X131411552Y-101091522D01*
X131327980Y-101007950D01*
X131229709Y-100942287D01*
X131120516Y-100897058D01*
X131004597Y-100874000D01*
X130886407Y-100874000D01*
X130770488Y-100897058D01*
X130661295Y-100942287D01*
X130563024Y-101007950D01*
X130479452Y-101091522D01*
X130413789Y-101189793D01*
X130368560Y-101298986D01*
X130345502Y-101414905D01*
X125719804Y-101414905D01*
X125678151Y-101352567D01*
X125427433Y-101101849D01*
X125132620Y-100904861D01*
X125040144Y-100866556D01*
X134808500Y-100866556D01*
X134808500Y-101004444D01*
X134835401Y-101139682D01*
X134888168Y-101267074D01*
X134964774Y-101381724D01*
X135062276Y-101479226D01*
X135176926Y-101555832D01*
X135304318Y-101608599D01*
X135439556Y-101635500D01*
X135577444Y-101635500D01*
X135712682Y-101608599D01*
X135840074Y-101555832D01*
X135872664Y-101534056D01*
X148208500Y-101534056D01*
X148208500Y-101671944D01*
X148235401Y-101807182D01*
X148288168Y-101934574D01*
X148364774Y-102049224D01*
X148462276Y-102146726D01*
X148576926Y-102223332D01*
X148704318Y-102276099D01*
X148839556Y-102303000D01*
X148977444Y-102303000D01*
X149112682Y-102276099D01*
X149240074Y-102223332D01*
X149354724Y-102146726D01*
X149452226Y-102049224D01*
X149528832Y-101934574D01*
X149581599Y-101807182D01*
X149608500Y-101671944D01*
X149608500Y-101534056D01*
X149581599Y-101398818D01*
X149528832Y-101271426D01*
X149452226Y-101156776D01*
X149354724Y-101059274D01*
X149240074Y-100982668D01*
X149112682Y-100929901D01*
X148977444Y-100903000D01*
X148839556Y-100903000D01*
X148704318Y-100929901D01*
X148576926Y-100982668D01*
X148462276Y-101059274D01*
X148364774Y-101156776D01*
X148288168Y-101271426D01*
X148235401Y-101398818D01*
X148208500Y-101534056D01*
X135872664Y-101534056D01*
X135954724Y-101479226D01*
X136052226Y-101381724D01*
X136128832Y-101267074D01*
X136181599Y-101139682D01*
X136208500Y-101004444D01*
X136208500Y-100866556D01*
X136181599Y-100731318D01*
X136128832Y-100603926D01*
X136123908Y-100596556D01*
X152389000Y-100596556D01*
X152389000Y-100734444D01*
X152415901Y-100869682D01*
X152468668Y-100997074D01*
X152545274Y-101111724D01*
X152642776Y-101209226D01*
X152757426Y-101285832D01*
X152884818Y-101338599D01*
X153020056Y-101365500D01*
X153157944Y-101365500D01*
X153293182Y-101338599D01*
X153420574Y-101285832D01*
X153535224Y-101209226D01*
X153632726Y-101111724D01*
X153709332Y-100997074D01*
X153762099Y-100869682D01*
X153772360Y-100818093D01*
X163670000Y-100818093D01*
X163670000Y-101221907D01*
X163748780Y-101617963D01*
X163903314Y-101991039D01*
X164127661Y-102326799D01*
X164413201Y-102612339D01*
X164748961Y-102836686D01*
X165122037Y-102991220D01*
X165518093Y-103070000D01*
X165921907Y-103070000D01*
X166317963Y-102991220D01*
X166691039Y-102836686D01*
X167026799Y-102612339D01*
X167312339Y-102326799D01*
X167536686Y-101991039D01*
X167691220Y-101617963D01*
X167770000Y-101221907D01*
X167770000Y-100818093D01*
X167691220Y-100422037D01*
X167536686Y-100048961D01*
X167312339Y-99713201D01*
X167026799Y-99427661D01*
X166691039Y-99203314D01*
X166317963Y-99048780D01*
X165921907Y-98970000D01*
X165518093Y-98970000D01*
X165122037Y-99048780D01*
X164748961Y-99203314D01*
X164413201Y-99427661D01*
X164127661Y-99713201D01*
X163903314Y-100048961D01*
X163748780Y-100422037D01*
X163670000Y-100818093D01*
X153772360Y-100818093D01*
X153789000Y-100734444D01*
X153789000Y-100596556D01*
X153762099Y-100461318D01*
X153709332Y-100333926D01*
X153632726Y-100219276D01*
X153535224Y-100121774D01*
X153420574Y-100045168D01*
X153293182Y-99992401D01*
X153157944Y-99965500D01*
X153020056Y-99965500D01*
X152884818Y-99992401D01*
X152757426Y-100045168D01*
X152642776Y-100121774D01*
X152545274Y-100219276D01*
X152468668Y-100333926D01*
X152415901Y-100461318D01*
X152389000Y-100596556D01*
X136123908Y-100596556D01*
X136052226Y-100489276D01*
X135954724Y-100391774D01*
X135840074Y-100315168D01*
X135712682Y-100262401D01*
X135577444Y-100235500D01*
X135439556Y-100235500D01*
X135304318Y-100262401D01*
X135176926Y-100315168D01*
X135062276Y-100391774D01*
X134964774Y-100489276D01*
X134888168Y-100603926D01*
X134835401Y-100731318D01*
X134808500Y-100866556D01*
X125040144Y-100866556D01*
X124805041Y-100769173D01*
X124457284Y-100700000D01*
X124102716Y-100700000D01*
X123754959Y-100769173D01*
X123427380Y-100904861D01*
X123132567Y-101101849D01*
X122881849Y-101352567D01*
X122684861Y-101647380D01*
X122549173Y-101974959D01*
X122480000Y-102322716D01*
X120325000Y-102322716D01*
X120325000Y-98750056D01*
X130327500Y-98750056D01*
X130327500Y-98887944D01*
X130354401Y-99023182D01*
X130407168Y-99150574D01*
X130483774Y-99265224D01*
X130581276Y-99362726D01*
X130695926Y-99439332D01*
X130823318Y-99492099D01*
X130958556Y-99519000D01*
X131096444Y-99519000D01*
X131231682Y-99492099D01*
X131359074Y-99439332D01*
X131473724Y-99362726D01*
X131571226Y-99265224D01*
X131647832Y-99150574D01*
X131664465Y-99110418D01*
X148354000Y-99110418D01*
X148354000Y-99228608D01*
X148377058Y-99344527D01*
X148422287Y-99453720D01*
X148487950Y-99551991D01*
X148571522Y-99635563D01*
X148669793Y-99701226D01*
X148778986Y-99746455D01*
X148894905Y-99769513D01*
X149013095Y-99769513D01*
X149129014Y-99746455D01*
X149238207Y-99701226D01*
X149336478Y-99635563D01*
X149420050Y-99551991D01*
X149485713Y-99453720D01*
X149530942Y-99344527D01*
X149554000Y-99228608D01*
X149554000Y-99110418D01*
X149530942Y-98994499D01*
X149485713Y-98885306D01*
X149420050Y-98787035D01*
X149336478Y-98703463D01*
X149238207Y-98637800D01*
X149129014Y-98592571D01*
X149013095Y-98569513D01*
X148894905Y-98569513D01*
X148778986Y-98592571D01*
X148669793Y-98637800D01*
X148571522Y-98703463D01*
X148487950Y-98787035D01*
X148422287Y-98885306D01*
X148377058Y-98994499D01*
X148354000Y-99110418D01*
X131664465Y-99110418D01*
X131700599Y-99023182D01*
X131727500Y-98887944D01*
X131727500Y-98750056D01*
X131700599Y-98614818D01*
X131647832Y-98487426D01*
X131571226Y-98372776D01*
X131473724Y-98275274D01*
X131359074Y-98198668D01*
X131231682Y-98145901D01*
X131096444Y-98119000D01*
X130958556Y-98119000D01*
X130823318Y-98145901D01*
X130695926Y-98198668D01*
X130581276Y-98275274D01*
X130483774Y-98372776D01*
X130407168Y-98487426D01*
X130354401Y-98614818D01*
X130327500Y-98750056D01*
X120325000Y-98750056D01*
X120325000Y-97441056D01*
X148959213Y-97441056D01*
X148959213Y-97578944D01*
X148986114Y-97714182D01*
X149038881Y-97841574D01*
X149115487Y-97956224D01*
X149212989Y-98053726D01*
X149327639Y-98130332D01*
X149455031Y-98183099D01*
X149590269Y-98210000D01*
X149728157Y-98210000D01*
X149863395Y-98183099D01*
X149990787Y-98130332D01*
X150105437Y-98053726D01*
X150202939Y-97956224D01*
X150279545Y-97841574D01*
X150332312Y-97714182D01*
X150359213Y-97578944D01*
X150359213Y-97441056D01*
X150341709Y-97353056D01*
X151649000Y-97353056D01*
X151649000Y-97490944D01*
X151675901Y-97626182D01*
X151728668Y-97753574D01*
X151805274Y-97868224D01*
X151902776Y-97965726D01*
X152017426Y-98042332D01*
X152144818Y-98095099D01*
X152280056Y-98122000D01*
X152417944Y-98122000D01*
X152553182Y-98095099D01*
X152680574Y-98042332D01*
X152795224Y-97965726D01*
X152892726Y-97868224D01*
X152969332Y-97753574D01*
X153022099Y-97626182D01*
X153049000Y-97490944D01*
X153049000Y-97353056D01*
X153022099Y-97217818D01*
X152969332Y-97090426D01*
X152892726Y-96975776D01*
X152795224Y-96878274D01*
X152680574Y-96801668D01*
X152553182Y-96748901D01*
X152417944Y-96722000D01*
X152280056Y-96722000D01*
X152144818Y-96748901D01*
X152017426Y-96801668D01*
X151902776Y-96878274D01*
X151805274Y-96975776D01*
X151728668Y-97090426D01*
X151675901Y-97217818D01*
X151649000Y-97353056D01*
X150341709Y-97353056D01*
X150332312Y-97305818D01*
X150279545Y-97178426D01*
X150202939Y-97063776D01*
X150105437Y-96966274D01*
X149990787Y-96889668D01*
X149863395Y-96836901D01*
X149728157Y-96810000D01*
X149590269Y-96810000D01*
X149455031Y-96836901D01*
X149327639Y-96889668D01*
X149212989Y-96966274D01*
X149115487Y-97063776D01*
X149038881Y-97178426D01*
X148986114Y-97305818D01*
X148959213Y-97441056D01*
X120325000Y-97441056D01*
X120325000Y-94606556D01*
X122939500Y-94606556D01*
X122939500Y-94744444D01*
X122966401Y-94879682D01*
X123019168Y-95007074D01*
X123095774Y-95121724D01*
X123193276Y-95219226D01*
X123307926Y-95295832D01*
X123435318Y-95348599D01*
X123570556Y-95375500D01*
X123708444Y-95375500D01*
X123843682Y-95348599D01*
X123971074Y-95295832D01*
X124085724Y-95219226D01*
X124115000Y-95189950D01*
X124144276Y-95219226D01*
X124258926Y-95295832D01*
X124386318Y-95348599D01*
X124521556Y-95375500D01*
X124659444Y-95375500D01*
X124794682Y-95348599D01*
X124922074Y-95295832D01*
X125036724Y-95219226D01*
X125134226Y-95121724D01*
X125210832Y-95007074D01*
X125263599Y-94879682D01*
X125290500Y-94744444D01*
X125290500Y-94606556D01*
X125263599Y-94471318D01*
X125210832Y-94343926D01*
X125134226Y-94229276D01*
X125036724Y-94131774D01*
X124922074Y-94055168D01*
X124794682Y-94002401D01*
X124659444Y-93975500D01*
X124521556Y-93975500D01*
X124386318Y-94002401D01*
X124258926Y-94055168D01*
X124144276Y-94131774D01*
X124115000Y-94161050D01*
X124085724Y-94131774D01*
X123971074Y-94055168D01*
X123843682Y-94002401D01*
X123708444Y-93975500D01*
X123570556Y-93975500D01*
X123435318Y-94002401D01*
X123307926Y-94055168D01*
X123193276Y-94131774D01*
X123095774Y-94229276D01*
X123019168Y-94343926D01*
X122966401Y-94471318D01*
X122939500Y-94606556D01*
X120325000Y-94606556D01*
X120325000Y-93891659D01*
X125890000Y-93891659D01*
X125890000Y-94108341D01*
X125932273Y-94320858D01*
X126015193Y-94521045D01*
X126135575Y-94701209D01*
X126288791Y-94854425D01*
X126468955Y-94974807D01*
X126529776Y-95000000D01*
X126468955Y-95025193D01*
X126288791Y-95145575D01*
X126135575Y-95298791D01*
X126015193Y-95478955D01*
X125932273Y-95679142D01*
X125890000Y-95891659D01*
X125890000Y-96108341D01*
X125932273Y-96320858D01*
X126015193Y-96521045D01*
X126135575Y-96701209D01*
X126288791Y-96854425D01*
X126468955Y-96974807D01*
X126669142Y-97057727D01*
X126881659Y-97100000D01*
X127098341Y-97100000D01*
X127310858Y-97057727D01*
X127511045Y-96974807D01*
X127691209Y-96854425D01*
X127828729Y-96716905D01*
X156809000Y-96716905D01*
X156809000Y-96835095D01*
X156832058Y-96951014D01*
X156877287Y-97060207D01*
X156942950Y-97158478D01*
X157026522Y-97242050D01*
X157124793Y-97307713D01*
X157233986Y-97352942D01*
X157349905Y-97376000D01*
X157468095Y-97376000D01*
X157584014Y-97352942D01*
X157693207Y-97307713D01*
X157791478Y-97242050D01*
X157875050Y-97158478D01*
X157940713Y-97060207D01*
X157985942Y-96951014D01*
X158009000Y-96835095D01*
X158009000Y-96716905D01*
X157985942Y-96600986D01*
X157940713Y-96491793D01*
X157875050Y-96393522D01*
X157791478Y-96309950D01*
X157693207Y-96244287D01*
X157584014Y-96199058D01*
X157468095Y-96176000D01*
X157349905Y-96176000D01*
X157233986Y-96199058D01*
X157124793Y-96244287D01*
X157026522Y-96309950D01*
X156942950Y-96393522D01*
X156877287Y-96491793D01*
X156832058Y-96600986D01*
X156809000Y-96716905D01*
X127828729Y-96716905D01*
X127844425Y-96701209D01*
X127964807Y-96521045D01*
X128047727Y-96320858D01*
X128090000Y-96108341D01*
X128090000Y-95891659D01*
X128047727Y-95679142D01*
X127964807Y-95478955D01*
X127844425Y-95298791D01*
X127691209Y-95145575D01*
X127511045Y-95025193D01*
X127450224Y-95000000D01*
X127511045Y-94974807D01*
X127691209Y-94854425D01*
X127844425Y-94701209D01*
X127964807Y-94521045D01*
X128047727Y-94320858D01*
X128053356Y-94292556D01*
X136951000Y-94292556D01*
X136951000Y-94430444D01*
X136977901Y-94565682D01*
X137030668Y-94693074D01*
X137107274Y-94807724D01*
X137204776Y-94905226D01*
X137319426Y-94981832D01*
X137446818Y-95034599D01*
X137582056Y-95061500D01*
X137719944Y-95061500D01*
X137855182Y-95034599D01*
X137982574Y-94981832D01*
X138097224Y-94905226D01*
X138194726Y-94807724D01*
X138271332Y-94693074D01*
X138324099Y-94565682D01*
X138351000Y-94430444D01*
X138351000Y-94292556D01*
X138324099Y-94157318D01*
X138317305Y-94140915D01*
X139553000Y-94140915D01*
X139553000Y-94259105D01*
X139576058Y-94375024D01*
X139621287Y-94484217D01*
X139686950Y-94582488D01*
X139770522Y-94666060D01*
X139835316Y-94709355D01*
X139806058Y-94779991D01*
X139783000Y-94895910D01*
X139783000Y-95014100D01*
X139806058Y-95130019D01*
X139851287Y-95239212D01*
X139916950Y-95337483D01*
X140000522Y-95421055D01*
X140098793Y-95486718D01*
X140207986Y-95531947D01*
X140323905Y-95555005D01*
X140442095Y-95555005D01*
X140558014Y-95531947D01*
X140667207Y-95486718D01*
X140765478Y-95421055D01*
X140849050Y-95337483D01*
X140914713Y-95239212D01*
X140959942Y-95130019D01*
X140983000Y-95014100D01*
X140983000Y-94895910D01*
X140962113Y-94790905D01*
X148670010Y-94790905D01*
X148670010Y-94909095D01*
X148693068Y-95025014D01*
X148738297Y-95134207D01*
X148803960Y-95232478D01*
X148887532Y-95316050D01*
X148985803Y-95381713D01*
X149094996Y-95426942D01*
X149210915Y-95450000D01*
X149263825Y-95450000D01*
X149166322Y-95515150D01*
X149082750Y-95598722D01*
X149017087Y-95696993D01*
X148971858Y-95806186D01*
X148948800Y-95922105D01*
X148948800Y-96040295D01*
X148971858Y-96156214D01*
X149017087Y-96265407D01*
X149082750Y-96363678D01*
X149166322Y-96447250D01*
X149264593Y-96512913D01*
X149373786Y-96558142D01*
X149489705Y-96581200D01*
X149607895Y-96581200D01*
X149723814Y-96558142D01*
X149833007Y-96512913D01*
X149931278Y-96447250D01*
X150014850Y-96363678D01*
X150080513Y-96265407D01*
X150125742Y-96156214D01*
X150129616Y-96136735D01*
X159860000Y-96136735D01*
X159860000Y-96363265D01*
X159904194Y-96585443D01*
X159990884Y-96794729D01*
X160116737Y-96983082D01*
X160276918Y-97143263D01*
X160465271Y-97269116D01*
X160674557Y-97355806D01*
X160896735Y-97400000D01*
X161123265Y-97400000D01*
X161345443Y-97355806D01*
X161554729Y-97269116D01*
X161743082Y-97143263D01*
X161903263Y-96983082D01*
X162010000Y-96823338D01*
X162116737Y-96983082D01*
X162276918Y-97143263D01*
X162465271Y-97269116D01*
X162674557Y-97355806D01*
X162896735Y-97400000D01*
X163123265Y-97400000D01*
X163345443Y-97355806D01*
X163554729Y-97269116D01*
X163743082Y-97143263D01*
X163903263Y-96983082D01*
X164029116Y-96794729D01*
X164115806Y-96585443D01*
X164160000Y-96363265D01*
X164160000Y-96136735D01*
X164115806Y-95914557D01*
X164029116Y-95705271D01*
X163903263Y-95516918D01*
X163743082Y-95356737D01*
X163554729Y-95230884D01*
X163345443Y-95144194D01*
X163123265Y-95100000D01*
X162896735Y-95100000D01*
X162674557Y-95144194D01*
X162465271Y-95230884D01*
X162276918Y-95356737D01*
X162116737Y-95516918D01*
X162010000Y-95676662D01*
X161903263Y-95516918D01*
X161743082Y-95356737D01*
X161554729Y-95230884D01*
X161345443Y-95144194D01*
X161123265Y-95100000D01*
X160896735Y-95100000D01*
X160674557Y-95144194D01*
X160465271Y-95230884D01*
X160276918Y-95356737D01*
X160116737Y-95516918D01*
X159990884Y-95705271D01*
X159904194Y-95914557D01*
X159860000Y-96136735D01*
X150129616Y-96136735D01*
X150148800Y-96040295D01*
X150148800Y-95922105D01*
X150125742Y-95806186D01*
X150080513Y-95696993D01*
X150014850Y-95598722D01*
X149931278Y-95515150D01*
X149833007Y-95449487D01*
X149723814Y-95404258D01*
X149607895Y-95381200D01*
X149554985Y-95381200D01*
X149652488Y-95316050D01*
X149736060Y-95232478D01*
X149801723Y-95134207D01*
X149846952Y-95025014D01*
X149870010Y-94909095D01*
X149870010Y-94790905D01*
X149846952Y-94674986D01*
X149801723Y-94565793D01*
X149736060Y-94467522D01*
X149652488Y-94383950D01*
X149554217Y-94318287D01*
X149445024Y-94273058D01*
X149329105Y-94250000D01*
X149210915Y-94250000D01*
X149094996Y-94273058D01*
X148985803Y-94318287D01*
X148887532Y-94383950D01*
X148803960Y-94467522D01*
X148738297Y-94565793D01*
X148693068Y-94674986D01*
X148670010Y-94790905D01*
X140962113Y-94790905D01*
X140959942Y-94779991D01*
X140914713Y-94670798D01*
X140849050Y-94572527D01*
X140765478Y-94488955D01*
X140700684Y-94445660D01*
X140729942Y-94375024D01*
X140753000Y-94259105D01*
X140753000Y-94140915D01*
X140729942Y-94024996D01*
X140684713Y-93915803D01*
X140619050Y-93817532D01*
X140535478Y-93733960D01*
X140437207Y-93668297D01*
X140328014Y-93623068D01*
X140212095Y-93600010D01*
X140093905Y-93600010D01*
X139977986Y-93623068D01*
X139868793Y-93668297D01*
X139770522Y-93733960D01*
X139686950Y-93817532D01*
X139621287Y-93915803D01*
X139576058Y-94024996D01*
X139553000Y-94140915D01*
X138317305Y-94140915D01*
X138271332Y-94029926D01*
X138194726Y-93915276D01*
X138097224Y-93817774D01*
X137982574Y-93741168D01*
X137855182Y-93688401D01*
X137719944Y-93661500D01*
X137582056Y-93661500D01*
X137446818Y-93688401D01*
X137319426Y-93741168D01*
X137204776Y-93817774D01*
X137107274Y-93915276D01*
X137030668Y-94029926D01*
X136977901Y-94157318D01*
X136951000Y-94292556D01*
X128053356Y-94292556D01*
X128090000Y-94108341D01*
X128090000Y-93891659D01*
X128047727Y-93679142D01*
X127964807Y-93478955D01*
X127844425Y-93298791D01*
X127691209Y-93145575D01*
X127511045Y-93025193D01*
X127310858Y-92942273D01*
X127098341Y-92900000D01*
X159858549Y-92900000D01*
X159858549Y-94600000D01*
X159864341Y-94658810D01*
X159881496Y-94715360D01*
X159909353Y-94767477D01*
X159946842Y-94813158D01*
X159992523Y-94850647D01*
X160044640Y-94878504D01*
X160101190Y-94895659D01*
X160160000Y-94901451D01*
X161860000Y-94901451D01*
X161918810Y-94895659D01*
X161975360Y-94878504D01*
X162027477Y-94850647D01*
X162073158Y-94813158D01*
X162110647Y-94767477D01*
X162138504Y-94715360D01*
X162155659Y-94658810D01*
X162161451Y-94600000D01*
X162161451Y-92900000D01*
X162155659Y-92841190D01*
X162138504Y-92784640D01*
X162110647Y-92732523D01*
X162073158Y-92686842D01*
X162027477Y-92649353D01*
X161975360Y-92621496D01*
X161918810Y-92604341D01*
X161860000Y-92598549D01*
X160160000Y-92598549D01*
X160101190Y-92604341D01*
X160044640Y-92621496D01*
X159992523Y-92649353D01*
X159946842Y-92686842D01*
X159909353Y-92732523D01*
X159881496Y-92784640D01*
X159864341Y-92841190D01*
X159858549Y-92900000D01*
X127098341Y-92900000D01*
X126881659Y-92900000D01*
X126669142Y-92942273D01*
X126468955Y-93025193D01*
X126288791Y-93145575D01*
X126135575Y-93298791D01*
X126015193Y-93478955D01*
X125932273Y-93679142D01*
X125890000Y-93891659D01*
X120325000Y-93891659D01*
X120325000Y-90700000D01*
X125888549Y-90700000D01*
X125888549Y-92300000D01*
X125894341Y-92358810D01*
X125911496Y-92415360D01*
X125939353Y-92467477D01*
X125976842Y-92513158D01*
X126022523Y-92550647D01*
X126074640Y-92578504D01*
X126131190Y-92595659D01*
X126190000Y-92601451D01*
X127790000Y-92601451D01*
X127848810Y-92595659D01*
X127905360Y-92578504D01*
X127957477Y-92550647D01*
X128003158Y-92513158D01*
X128040647Y-92467477D01*
X128068504Y-92415360D01*
X128085659Y-92358810D01*
X128091451Y-92300000D01*
X128091451Y-91905556D01*
X150902000Y-91905556D01*
X150902000Y-92043444D01*
X150928901Y-92178682D01*
X150981668Y-92306074D01*
X151058274Y-92420724D01*
X151155776Y-92518226D01*
X151270426Y-92594832D01*
X151397818Y-92647599D01*
X151533056Y-92674500D01*
X151670944Y-92674500D01*
X151806182Y-92647599D01*
X151933574Y-92594832D01*
X152048224Y-92518226D01*
X152145726Y-92420724D01*
X152222332Y-92306074D01*
X152275099Y-92178682D01*
X152302000Y-92043444D01*
X152302000Y-91905556D01*
X152275099Y-91770318D01*
X152222332Y-91642926D01*
X152145726Y-91528276D01*
X152048224Y-91430774D01*
X151933574Y-91354168D01*
X151806182Y-91301401D01*
X151670944Y-91274500D01*
X151533056Y-91274500D01*
X151397818Y-91301401D01*
X151270426Y-91354168D01*
X151155776Y-91430774D01*
X151058274Y-91528276D01*
X150981668Y-91642926D01*
X150928901Y-91770318D01*
X150902000Y-91905556D01*
X128091451Y-91905556D01*
X128091451Y-90700000D01*
X128085659Y-90641190D01*
X128068504Y-90584640D01*
X128040647Y-90532523D01*
X128003158Y-90486842D01*
X127957477Y-90449353D01*
X127905360Y-90421496D01*
X127848810Y-90404341D01*
X127790000Y-90398549D01*
X126190000Y-90398549D01*
X126131190Y-90404341D01*
X126074640Y-90421496D01*
X126022523Y-90449353D01*
X125976842Y-90486842D01*
X125939353Y-90532523D01*
X125911496Y-90584640D01*
X125894341Y-90641190D01*
X125888549Y-90700000D01*
X120325000Y-90700000D01*
X120325000Y-90397905D01*
X141019632Y-90397905D01*
X141019632Y-90516095D01*
X141042690Y-90632014D01*
X141087919Y-90741207D01*
X141153582Y-90839478D01*
X141237154Y-90923050D01*
X141335425Y-90988713D01*
X141444618Y-91033942D01*
X141560537Y-91057000D01*
X141678727Y-91057000D01*
X141794646Y-91033942D01*
X141903839Y-90988713D01*
X142002110Y-90923050D01*
X142046816Y-90878344D01*
X142091522Y-90923050D01*
X142189793Y-90988713D01*
X142298986Y-91033942D01*
X142414905Y-91057000D01*
X142533095Y-91057000D01*
X142649014Y-91033942D01*
X142758207Y-90988713D01*
X142856478Y-90923050D01*
X142940050Y-90839478D01*
X143005713Y-90741207D01*
X143050942Y-90632014D01*
X143074000Y-90516095D01*
X143074000Y-90397905D01*
X143926000Y-90397905D01*
X143926000Y-90516095D01*
X143949058Y-90632014D01*
X143994287Y-90741207D01*
X144059950Y-90839478D01*
X144143522Y-90923050D01*
X144241793Y-90988713D01*
X144350986Y-91033942D01*
X144466905Y-91057000D01*
X144585095Y-91057000D01*
X144701014Y-91033942D01*
X144810207Y-90988713D01*
X144908478Y-90923050D01*
X144933101Y-90898427D01*
X144934409Y-90905004D01*
X144979638Y-91014197D01*
X145045301Y-91112468D01*
X145128873Y-91196040D01*
X145227144Y-91261703D01*
X145336337Y-91306932D01*
X145452256Y-91329990D01*
X145570446Y-91329990D01*
X145686365Y-91306932D01*
X145795558Y-91261703D01*
X145893829Y-91196040D01*
X145977401Y-91112468D01*
X146043064Y-91014197D01*
X146088293Y-90905004D01*
X146111351Y-90789085D01*
X146111351Y-90670895D01*
X146108456Y-90656339D01*
X146205182Y-90637099D01*
X146332574Y-90584332D01*
X146447224Y-90507726D01*
X146544726Y-90410224D01*
X146621332Y-90295574D01*
X146674099Y-90168182D01*
X146701000Y-90032944D01*
X146701000Y-89895056D01*
X146674099Y-89759818D01*
X146625673Y-89642905D01*
X147531430Y-89642905D01*
X147531430Y-89761095D01*
X147554488Y-89877014D01*
X147599717Y-89986207D01*
X147665380Y-90084478D01*
X147748952Y-90168050D01*
X147847223Y-90233713D01*
X147956416Y-90278942D01*
X148072335Y-90302000D01*
X148190525Y-90302000D01*
X148306444Y-90278942D01*
X148415637Y-90233713D01*
X148513908Y-90168050D01*
X148597480Y-90084478D01*
X148663143Y-89986207D01*
X148676253Y-89954556D01*
X150902000Y-89954556D01*
X150902000Y-90092444D01*
X150928901Y-90227682D01*
X150981668Y-90355074D01*
X151058274Y-90469724D01*
X151155776Y-90567226D01*
X151270426Y-90643832D01*
X151397818Y-90696599D01*
X151533056Y-90723500D01*
X151670944Y-90723500D01*
X151806182Y-90696599D01*
X151933574Y-90643832D01*
X152048224Y-90567226D01*
X152145726Y-90469724D01*
X152222332Y-90355074D01*
X152275099Y-90227682D01*
X152302000Y-90092444D01*
X152302000Y-89954556D01*
X152275099Y-89819318D01*
X152222332Y-89691926D01*
X152145726Y-89577276D01*
X152048224Y-89479774D01*
X151933574Y-89403168D01*
X151806182Y-89350401D01*
X151670944Y-89323500D01*
X151533056Y-89323500D01*
X151397818Y-89350401D01*
X151270426Y-89403168D01*
X151155776Y-89479774D01*
X151058274Y-89577276D01*
X150981668Y-89691926D01*
X150928901Y-89819318D01*
X150902000Y-89954556D01*
X148676253Y-89954556D01*
X148708372Y-89877014D01*
X148731430Y-89761095D01*
X148731430Y-89642905D01*
X148708372Y-89526986D01*
X148663143Y-89417793D01*
X148597480Y-89319522D01*
X148513908Y-89235950D01*
X148415637Y-89170287D01*
X148306444Y-89125058D01*
X148190525Y-89102000D01*
X148072335Y-89102000D01*
X147956416Y-89125058D01*
X147847223Y-89170287D01*
X147748952Y-89235950D01*
X147665380Y-89319522D01*
X147599717Y-89417793D01*
X147554488Y-89526986D01*
X147531430Y-89642905D01*
X146625673Y-89642905D01*
X146621332Y-89632426D01*
X146544726Y-89517776D01*
X146447224Y-89420274D01*
X146332574Y-89343668D01*
X146205182Y-89290901D01*
X146069944Y-89264000D01*
X145932056Y-89264000D01*
X145796818Y-89290901D01*
X145669426Y-89343668D01*
X145554776Y-89420274D01*
X145457274Y-89517776D01*
X145380668Y-89632426D01*
X145327901Y-89759818D01*
X145301000Y-89895056D01*
X145301000Y-90032944D01*
X145325762Y-90157428D01*
X145227144Y-90198277D01*
X145128873Y-90263940D01*
X145104250Y-90288563D01*
X145102942Y-90281986D01*
X145057713Y-90172793D01*
X144992050Y-90074522D01*
X144908478Y-89990950D01*
X144810207Y-89925287D01*
X144701014Y-89880058D01*
X144585095Y-89857000D01*
X144466905Y-89857000D01*
X144350986Y-89880058D01*
X144241793Y-89925287D01*
X144143522Y-89990950D01*
X144059950Y-90074522D01*
X143994287Y-90172793D01*
X143949058Y-90281986D01*
X143926000Y-90397905D01*
X143074000Y-90397905D01*
X143050942Y-90281986D01*
X143005713Y-90172793D01*
X142940050Y-90074522D01*
X142856478Y-89990950D01*
X142758207Y-89925287D01*
X142649014Y-89880058D01*
X142533095Y-89857000D01*
X142414905Y-89857000D01*
X142298986Y-89880058D01*
X142189793Y-89925287D01*
X142091522Y-89990950D01*
X142046816Y-90035656D01*
X142002110Y-89990950D01*
X141903839Y-89925287D01*
X141794646Y-89880058D01*
X141678727Y-89857000D01*
X141560537Y-89857000D01*
X141444618Y-89880058D01*
X141335425Y-89925287D01*
X141237154Y-89990950D01*
X141153582Y-90074522D01*
X141087919Y-90172793D01*
X141042690Y-90281986D01*
X141019632Y-90397905D01*
X120325000Y-90397905D01*
X120325000Y-89501721D01*
X136249430Y-89501721D01*
X136249430Y-89639609D01*
X136276331Y-89774847D01*
X136329098Y-89902239D01*
X136405704Y-90016889D01*
X136503206Y-90114391D01*
X136617856Y-90190997D01*
X136745248Y-90243764D01*
X136880486Y-90270665D01*
X137018374Y-90270665D01*
X137153612Y-90243764D01*
X137281004Y-90190997D01*
X137395654Y-90114391D01*
X137493156Y-90016889D01*
X137569762Y-89902239D01*
X137622529Y-89774847D01*
X137649430Y-89639609D01*
X137649430Y-89501721D01*
X137622529Y-89366483D01*
X137569762Y-89239091D01*
X137493156Y-89124441D01*
X137395654Y-89026939D01*
X137281004Y-88950333D01*
X137153612Y-88897566D01*
X137018374Y-88870665D01*
X136880486Y-88870665D01*
X136745248Y-88897566D01*
X136617856Y-88950333D01*
X136503206Y-89026939D01*
X136405704Y-89124441D01*
X136329098Y-89239091D01*
X136276331Y-89366483D01*
X136249430Y-89501721D01*
X120325000Y-89501721D01*
X120325000Y-87322716D01*
X122480000Y-87322716D01*
X122480000Y-87677284D01*
X122549173Y-88025041D01*
X122684861Y-88352620D01*
X122881849Y-88647433D01*
X123132567Y-88898151D01*
X123427380Y-89095139D01*
X123754959Y-89230827D01*
X124102716Y-89300000D01*
X124457284Y-89300000D01*
X124805041Y-89230827D01*
X125132620Y-89095139D01*
X125427433Y-88898151D01*
X125678151Y-88647433D01*
X125875139Y-88352620D01*
X125881027Y-88338405D01*
X140949250Y-88338405D01*
X140949250Y-88456595D01*
X140972308Y-88572514D01*
X141017537Y-88681707D01*
X141083200Y-88779978D01*
X141166772Y-88863550D01*
X141265043Y-88929213D01*
X141374236Y-88974442D01*
X141490155Y-88997500D01*
X141608345Y-88997500D01*
X141724264Y-88974442D01*
X141833457Y-88929213D01*
X141931728Y-88863550D01*
X142015300Y-88779978D01*
X142016559Y-88778093D01*
X163670000Y-88778093D01*
X163670000Y-89181907D01*
X163748780Y-89577963D01*
X163903314Y-89951039D01*
X164127661Y-90286799D01*
X164413201Y-90572339D01*
X164748961Y-90796686D01*
X165122037Y-90951220D01*
X165518093Y-91030000D01*
X165921907Y-91030000D01*
X166317963Y-90951220D01*
X166691039Y-90796686D01*
X167026799Y-90572339D01*
X167312339Y-90286799D01*
X167536686Y-89951039D01*
X167691220Y-89577963D01*
X167770000Y-89181907D01*
X167770000Y-88778093D01*
X167691220Y-88382037D01*
X167536686Y-88008961D01*
X167312339Y-87673201D01*
X167026799Y-87387661D01*
X166691039Y-87163314D01*
X166317963Y-87008780D01*
X165921907Y-86930000D01*
X165518093Y-86930000D01*
X165122037Y-87008780D01*
X164748961Y-87163314D01*
X164413201Y-87387661D01*
X164127661Y-87673201D01*
X163903314Y-88008961D01*
X163748780Y-88382037D01*
X163670000Y-88778093D01*
X142016559Y-88778093D01*
X142080963Y-88681707D01*
X142126192Y-88572514D01*
X142149250Y-88456595D01*
X142149250Y-88338405D01*
X142126192Y-88222486D01*
X142080963Y-88113293D01*
X142015300Y-88015022D01*
X141931728Y-87931450D01*
X141833457Y-87865787D01*
X141724264Y-87820558D01*
X141608345Y-87797500D01*
X141490155Y-87797500D01*
X141374236Y-87820558D01*
X141265043Y-87865787D01*
X141166772Y-87931450D01*
X141083200Y-88015022D01*
X141017537Y-88113293D01*
X140972308Y-88222486D01*
X140949250Y-88338405D01*
X125881027Y-88338405D01*
X126010827Y-88025041D01*
X126080000Y-87677284D01*
X126080000Y-87322716D01*
X126010827Y-86974959D01*
X125875139Y-86647380D01*
X125678151Y-86352567D01*
X125427433Y-86101849D01*
X125132620Y-85904861D01*
X124805041Y-85769173D01*
X124457284Y-85700000D01*
X124102716Y-85700000D01*
X123754959Y-85769173D01*
X123427380Y-85904861D01*
X123132567Y-86101849D01*
X122881849Y-86352567D01*
X122684861Y-86647380D01*
X122549173Y-86974959D01*
X122480000Y-87322716D01*
X120325000Y-87322716D01*
X120325000Y-85292810D01*
X134300000Y-85292810D01*
X134300000Y-85529190D01*
X134346116Y-85761027D01*
X134436574Y-85979413D01*
X134567899Y-86175955D01*
X134735045Y-86343101D01*
X134931587Y-86474426D01*
X135149973Y-86564884D01*
X135381810Y-86611000D01*
X135618190Y-86611000D01*
X135850027Y-86564884D01*
X136068413Y-86474426D01*
X136264955Y-86343101D01*
X136432101Y-86175955D01*
X136467446Y-86123056D01*
X144931428Y-86123056D01*
X144931428Y-86260944D01*
X144958329Y-86396182D01*
X145011096Y-86523574D01*
X145087702Y-86638224D01*
X145185204Y-86735726D01*
X145299854Y-86812332D01*
X145427246Y-86865099D01*
X145562484Y-86892000D01*
X145700372Y-86892000D01*
X145835610Y-86865099D01*
X145963002Y-86812332D01*
X146077652Y-86735726D01*
X146175154Y-86638224D01*
X146251760Y-86523574D01*
X146304527Y-86396182D01*
X146331428Y-86260944D01*
X146331428Y-86123056D01*
X149839500Y-86123056D01*
X149839500Y-86260944D01*
X149866401Y-86396182D01*
X149919168Y-86523574D01*
X149995774Y-86638224D01*
X150093276Y-86735726D01*
X150207926Y-86812332D01*
X150335318Y-86865099D01*
X150470556Y-86892000D01*
X150608444Y-86892000D01*
X150743682Y-86865099D01*
X150871074Y-86812332D01*
X150985724Y-86735726D01*
X151083226Y-86638224D01*
X151159832Y-86523574D01*
X151212599Y-86396182D01*
X151239500Y-86260944D01*
X151239500Y-86123056D01*
X151212599Y-85987818D01*
X151159832Y-85860426D01*
X151083226Y-85745776D01*
X150985724Y-85648274D01*
X150871074Y-85571668D01*
X150743682Y-85518901D01*
X150608444Y-85492000D01*
X150470556Y-85492000D01*
X150335318Y-85518901D01*
X150207926Y-85571668D01*
X150093276Y-85648274D01*
X149995774Y-85745776D01*
X149919168Y-85860426D01*
X149866401Y-85987818D01*
X149839500Y-86123056D01*
X146331428Y-86123056D01*
X146304527Y-85987818D01*
X146251760Y-85860426D01*
X146175154Y-85745776D01*
X146077652Y-85648274D01*
X145963002Y-85571668D01*
X145835610Y-85518901D01*
X145700372Y-85492000D01*
X145562484Y-85492000D01*
X145427246Y-85518901D01*
X145299854Y-85571668D01*
X145185204Y-85648274D01*
X145087702Y-85745776D01*
X145011096Y-85860426D01*
X144958329Y-85987818D01*
X144931428Y-86123056D01*
X136467446Y-86123056D01*
X136563426Y-85979413D01*
X136653884Y-85761027D01*
X136700000Y-85529190D01*
X136700000Y-85317433D01*
X155550000Y-85317433D01*
X155550000Y-85504567D01*
X155586508Y-85688105D01*
X155658121Y-85860994D01*
X155762087Y-86016590D01*
X155894410Y-86148913D01*
X156050006Y-86252879D01*
X156222895Y-86324492D01*
X156406433Y-86361000D01*
X156593567Y-86361000D01*
X156777105Y-86324492D01*
X156949994Y-86252879D01*
X157105590Y-86148913D01*
X157237913Y-86016590D01*
X157341879Y-85860994D01*
X157413492Y-85688105D01*
X157450000Y-85504567D01*
X157450000Y-85317433D01*
X157413492Y-85133895D01*
X157341879Y-84961006D01*
X157237913Y-84805410D01*
X157105590Y-84673087D01*
X156949994Y-84569121D01*
X156777105Y-84497508D01*
X156593567Y-84461000D01*
X156406433Y-84461000D01*
X156222895Y-84497508D01*
X156050006Y-84569121D01*
X155894410Y-84673087D01*
X155762087Y-84805410D01*
X155658121Y-84961006D01*
X155586508Y-85133895D01*
X155550000Y-85317433D01*
X136700000Y-85317433D01*
X136700000Y-85292810D01*
X136653884Y-85060973D01*
X136563426Y-84842587D01*
X136432101Y-84646045D01*
X136264955Y-84478899D01*
X136068413Y-84347574D01*
X135850027Y-84257116D01*
X135618190Y-84211000D01*
X135381810Y-84211000D01*
X135149973Y-84257116D01*
X134931587Y-84347574D01*
X134735045Y-84478899D01*
X134567899Y-84646045D01*
X134436574Y-84842587D01*
X134346116Y-85060973D01*
X134300000Y-85292810D01*
X120325000Y-85292810D01*
X120325000Y-84070000D01*
X126880436Y-84070000D01*
X126902640Y-84295439D01*
X126968398Y-84512215D01*
X127075184Y-84711997D01*
X127218893Y-84887107D01*
X127394003Y-85030816D01*
X127593785Y-85137602D01*
X127810561Y-85203360D01*
X127979508Y-85220000D01*
X128092492Y-85220000D01*
X128261439Y-85203360D01*
X128478215Y-85137602D01*
X128677997Y-85030816D01*
X128853107Y-84887107D01*
X128996816Y-84711997D01*
X129103602Y-84512215D01*
X129169360Y-84295439D01*
X129191564Y-84070000D01*
X129169360Y-83844561D01*
X129103602Y-83627785D01*
X128996816Y-83428003D01*
X128853107Y-83252893D01*
X128677997Y-83109184D01*
X128478215Y-83002398D01*
X128261439Y-82936640D01*
X128092492Y-82920000D01*
X127979508Y-82920000D01*
X127810561Y-82936640D01*
X127593785Y-83002398D01*
X127394003Y-83109184D01*
X127218893Y-83252893D01*
X127075184Y-83428003D01*
X126968398Y-83627785D01*
X126902640Y-83844561D01*
X126880436Y-84070000D01*
X120325000Y-84070000D01*
X120325000Y-81530000D01*
X126880436Y-81530000D01*
X126902640Y-81755439D01*
X126968398Y-81972215D01*
X127075184Y-82171997D01*
X127218893Y-82347107D01*
X127394003Y-82490816D01*
X127593785Y-82597602D01*
X127810561Y-82663360D01*
X127979508Y-82680000D01*
X128092492Y-82680000D01*
X128261439Y-82663360D01*
X128478215Y-82597602D01*
X128677997Y-82490816D01*
X128853107Y-82347107D01*
X128973091Y-82200905D01*
X157468000Y-82200905D01*
X157468000Y-82319095D01*
X157491058Y-82435014D01*
X157536287Y-82544207D01*
X157601950Y-82642478D01*
X157685522Y-82726050D01*
X157783793Y-82791713D01*
X157892986Y-82836942D01*
X158008905Y-82860000D01*
X158127095Y-82860000D01*
X158243014Y-82836942D01*
X158352207Y-82791713D01*
X158450478Y-82726050D01*
X158534050Y-82642478D01*
X158599713Y-82544207D01*
X158644942Y-82435014D01*
X158668000Y-82319095D01*
X158668000Y-82260000D01*
X162264436Y-82260000D01*
X162286640Y-82485439D01*
X162352398Y-82702215D01*
X162459184Y-82901997D01*
X162602893Y-83077107D01*
X162778003Y-83220816D01*
X162977785Y-83327602D01*
X163194561Y-83393360D01*
X163363508Y-83410000D01*
X163476492Y-83410000D01*
X163645439Y-83393360D01*
X163862215Y-83327602D01*
X164061997Y-83220816D01*
X164237107Y-83077107D01*
X164380816Y-82901997D01*
X164487602Y-82702215D01*
X164553360Y-82485439D01*
X164575564Y-82260000D01*
X164553360Y-82034561D01*
X164487602Y-81817785D01*
X164380816Y-81618003D01*
X164237107Y-81442893D01*
X164061997Y-81299184D01*
X163862215Y-81192398D01*
X163645439Y-81126640D01*
X163476492Y-81110000D01*
X163363508Y-81110000D01*
X163194561Y-81126640D01*
X162977785Y-81192398D01*
X162778003Y-81299184D01*
X162602893Y-81442893D01*
X162459184Y-81618003D01*
X162352398Y-81817785D01*
X162286640Y-82034561D01*
X162264436Y-82260000D01*
X158668000Y-82260000D01*
X158668000Y-82200905D01*
X158644942Y-82084986D01*
X158599713Y-81975793D01*
X158534050Y-81877522D01*
X158450478Y-81793950D01*
X158352207Y-81728287D01*
X158243014Y-81683058D01*
X158127095Y-81660000D01*
X158008905Y-81660000D01*
X157892986Y-81683058D01*
X157783793Y-81728287D01*
X157685522Y-81793950D01*
X157601950Y-81877522D01*
X157536287Y-81975793D01*
X157491058Y-82084986D01*
X157468000Y-82200905D01*
X128973091Y-82200905D01*
X128996816Y-82171997D01*
X129103602Y-81972215D01*
X129169360Y-81755439D01*
X129191564Y-81530000D01*
X129185744Y-81470905D01*
X132108000Y-81470905D01*
X132108000Y-81589095D01*
X132131058Y-81705014D01*
X132176287Y-81814207D01*
X132241950Y-81912478D01*
X132325522Y-81996050D01*
X132423793Y-82061713D01*
X132532986Y-82106942D01*
X132648905Y-82130000D01*
X132767095Y-82130000D01*
X132883014Y-82106942D01*
X132992207Y-82061713D01*
X133090478Y-81996050D01*
X133174050Y-81912478D01*
X133239713Y-81814207D01*
X133284942Y-81705014D01*
X133308000Y-81589095D01*
X133308000Y-81470905D01*
X133284942Y-81354986D01*
X133239713Y-81245793D01*
X133174050Y-81147522D01*
X133090478Y-81063950D01*
X132992207Y-80998287D01*
X132883014Y-80953058D01*
X132767095Y-80930000D01*
X132648905Y-80930000D01*
X132532986Y-80953058D01*
X132423793Y-80998287D01*
X132325522Y-81063950D01*
X132241950Y-81147522D01*
X132176287Y-81245793D01*
X132131058Y-81354986D01*
X132108000Y-81470905D01*
X129185744Y-81470905D01*
X129169360Y-81304561D01*
X129103602Y-81087785D01*
X128996816Y-80888003D01*
X128853107Y-80712893D01*
X128677997Y-80569184D01*
X128478215Y-80462398D01*
X128261439Y-80396640D01*
X128092492Y-80380000D01*
X127979508Y-80380000D01*
X127810561Y-80396640D01*
X127593785Y-80462398D01*
X127394003Y-80569184D01*
X127218893Y-80712893D01*
X127075184Y-80888003D01*
X126968398Y-81087785D01*
X126902640Y-81304561D01*
X126880436Y-81530000D01*
X120325000Y-81530000D01*
X120325000Y-78990000D01*
X126880436Y-78990000D01*
X126902640Y-79215439D01*
X126968398Y-79432215D01*
X127075184Y-79631997D01*
X127218893Y-79807107D01*
X127394003Y-79950816D01*
X127593785Y-80057602D01*
X127810561Y-80123360D01*
X127979508Y-80140000D01*
X128092492Y-80140000D01*
X128261439Y-80123360D01*
X128478215Y-80057602D01*
X128677997Y-79950816D01*
X128853107Y-79807107D01*
X128973091Y-79660905D01*
X157468000Y-79660905D01*
X157468000Y-79779095D01*
X157491058Y-79895014D01*
X157536287Y-80004207D01*
X157601950Y-80102478D01*
X157685522Y-80186050D01*
X157783793Y-80251713D01*
X157892986Y-80296942D01*
X158008905Y-80320000D01*
X158127095Y-80320000D01*
X158243014Y-80296942D01*
X158352207Y-80251713D01*
X158450478Y-80186050D01*
X158534050Y-80102478D01*
X158599713Y-80004207D01*
X158644942Y-79895014D01*
X158668000Y-79779095D01*
X158668000Y-79660905D01*
X158644942Y-79544986D01*
X158599713Y-79435793D01*
X158534050Y-79337522D01*
X158450478Y-79253950D01*
X158352207Y-79188287D01*
X158243014Y-79143058D01*
X158127095Y-79120000D01*
X158008905Y-79120000D01*
X157892986Y-79143058D01*
X157783793Y-79188287D01*
X157685522Y-79253950D01*
X157601950Y-79337522D01*
X157536287Y-79435793D01*
X157491058Y-79544986D01*
X157468000Y-79660905D01*
X128973091Y-79660905D01*
X128996816Y-79631997D01*
X129103602Y-79432215D01*
X129169360Y-79215439D01*
X129191564Y-78990000D01*
X129179745Y-78870000D01*
X162268549Y-78870000D01*
X162268549Y-80570000D01*
X162274341Y-80628810D01*
X162291496Y-80685360D01*
X162319353Y-80737477D01*
X162356842Y-80783158D01*
X162402523Y-80820647D01*
X162454640Y-80848504D01*
X162511190Y-80865659D01*
X162570000Y-80871451D01*
X164270000Y-80871451D01*
X164328810Y-80865659D01*
X164385360Y-80848504D01*
X164437477Y-80820647D01*
X164483158Y-80783158D01*
X164520647Y-80737477D01*
X164548504Y-80685360D01*
X164565659Y-80628810D01*
X164571451Y-80570000D01*
X164571451Y-79720000D01*
X164804436Y-79720000D01*
X164826640Y-79945439D01*
X164892398Y-80162215D01*
X164999184Y-80361997D01*
X165142893Y-80537107D01*
X165318003Y-80680816D01*
X165517785Y-80787602D01*
X165734561Y-80853360D01*
X165903508Y-80870000D01*
X166016492Y-80870000D01*
X166185439Y-80853360D01*
X166402215Y-80787602D01*
X166601997Y-80680816D01*
X166777107Y-80537107D01*
X166920816Y-80361997D01*
X167027602Y-80162215D01*
X167093360Y-79945439D01*
X167115564Y-79720000D01*
X167093360Y-79494561D01*
X167027602Y-79277785D01*
X166920816Y-79078003D01*
X166777107Y-78902893D01*
X166601997Y-78759184D01*
X166402215Y-78652398D01*
X166185439Y-78586640D01*
X166016492Y-78570000D01*
X165903508Y-78570000D01*
X165734561Y-78586640D01*
X165517785Y-78652398D01*
X165318003Y-78759184D01*
X165142893Y-78902893D01*
X164999184Y-79078003D01*
X164892398Y-79277785D01*
X164826640Y-79494561D01*
X164804436Y-79720000D01*
X164571451Y-79720000D01*
X164571451Y-78870000D01*
X164565659Y-78811190D01*
X164548504Y-78754640D01*
X164520647Y-78702523D01*
X164483158Y-78656842D01*
X164437477Y-78619353D01*
X164385360Y-78591496D01*
X164328810Y-78574341D01*
X164270000Y-78568549D01*
X162570000Y-78568549D01*
X162511190Y-78574341D01*
X162454640Y-78591496D01*
X162402523Y-78619353D01*
X162356842Y-78656842D01*
X162319353Y-78702523D01*
X162291496Y-78754640D01*
X162274341Y-78811190D01*
X162268549Y-78870000D01*
X129179745Y-78870000D01*
X129169360Y-78764561D01*
X129103602Y-78547785D01*
X128996816Y-78348003D01*
X128853107Y-78172893D01*
X128677997Y-78029184D01*
X128478215Y-77922398D01*
X128261439Y-77856640D01*
X128092492Y-77840000D01*
X127979508Y-77840000D01*
X127810561Y-77856640D01*
X127593785Y-77922398D01*
X127394003Y-78029184D01*
X127218893Y-78172893D01*
X127075184Y-78348003D01*
X126968398Y-78547785D01*
X126902640Y-78764561D01*
X126880436Y-78990000D01*
X120325000Y-78990000D01*
X120325000Y-77054905D01*
X132108000Y-77054905D01*
X132108000Y-77173095D01*
X132131058Y-77289014D01*
X132176287Y-77398207D01*
X132241950Y-77496478D01*
X132325522Y-77580050D01*
X132423793Y-77645713D01*
X132532986Y-77690942D01*
X132648905Y-77714000D01*
X132767095Y-77714000D01*
X132883014Y-77690942D01*
X132992207Y-77645713D01*
X133090478Y-77580050D01*
X133174050Y-77496478D01*
X133239713Y-77398207D01*
X133284942Y-77289014D01*
X133308000Y-77173095D01*
X133308000Y-77054905D01*
X133284942Y-76938986D01*
X133239713Y-76829793D01*
X133174050Y-76731522D01*
X133090478Y-76647950D01*
X132992207Y-76582287D01*
X132883014Y-76537058D01*
X132767095Y-76514000D01*
X132648905Y-76514000D01*
X132532986Y-76537058D01*
X132423793Y-76582287D01*
X132325522Y-76647950D01*
X132241950Y-76731522D01*
X132176287Y-76829793D01*
X132131058Y-76938986D01*
X132108000Y-77054905D01*
X120325000Y-77054905D01*
X120325000Y-73015897D01*
X120350701Y-72753772D01*
X120500000Y-72753772D01*
X120500000Y-73246228D01*
X120596074Y-73729223D01*
X120784529Y-74184194D01*
X121058124Y-74593657D01*
X121406343Y-74941876D01*
X121815806Y-75215471D01*
X122270777Y-75403926D01*
X122753772Y-75500000D01*
X123246228Y-75500000D01*
X123729223Y-75403926D01*
X124184194Y-75215471D01*
X124593657Y-74941876D01*
X124941876Y-74593657D01*
X125165449Y-74259056D01*
X135071000Y-74259056D01*
X135071000Y-74396944D01*
X135097901Y-74532182D01*
X135150668Y-74659574D01*
X135227274Y-74774224D01*
X135324776Y-74871726D01*
X135439426Y-74948332D01*
X135566818Y-75001099D01*
X135702056Y-75028000D01*
X135839944Y-75028000D01*
X135975182Y-75001099D01*
X136102574Y-74948332D01*
X136217224Y-74871726D01*
X136314726Y-74774224D01*
X136391332Y-74659574D01*
X136444099Y-74532182D01*
X136471000Y-74396944D01*
X136471000Y-74259056D01*
X136444099Y-74123818D01*
X136391332Y-73996426D01*
X136314726Y-73881776D01*
X136217224Y-73784274D01*
X136102574Y-73707668D01*
X135975182Y-73654901D01*
X135839944Y-73628000D01*
X135702056Y-73628000D01*
X135566818Y-73654901D01*
X135439426Y-73707668D01*
X135324776Y-73784274D01*
X135227274Y-73881776D01*
X135150668Y-73996426D01*
X135097901Y-74123818D01*
X135071000Y-74259056D01*
X125165449Y-74259056D01*
X125215471Y-74184194D01*
X125403926Y-73729223D01*
X125500000Y-73246228D01*
X125500000Y-72753772D01*
X164500000Y-72753772D01*
X164500000Y-73246228D01*
X164596074Y-73729223D01*
X164784529Y-74184194D01*
X165058124Y-74593657D01*
X165406343Y-74941876D01*
X165815806Y-75215471D01*
X166270777Y-75403926D01*
X166753772Y-75500000D01*
X167246228Y-75500000D01*
X167729223Y-75403926D01*
X168184194Y-75215471D01*
X168593657Y-74941876D01*
X168941876Y-74593657D01*
X169215471Y-74184194D01*
X169403926Y-73729223D01*
X169500000Y-73246228D01*
X169500000Y-72753772D01*
X169403926Y-72270777D01*
X169215471Y-71815806D01*
X168941876Y-71406343D01*
X168593657Y-71058124D01*
X168184194Y-70784529D01*
X167729223Y-70596074D01*
X167246228Y-70500000D01*
X166753772Y-70500000D01*
X166270777Y-70596074D01*
X165815806Y-70784529D01*
X165406343Y-71058124D01*
X165058124Y-71406343D01*
X164784529Y-71815806D01*
X164596074Y-72270777D01*
X164500000Y-72753772D01*
X125500000Y-72753772D01*
X125403926Y-72270777D01*
X125215471Y-71815806D01*
X124941876Y-71406343D01*
X124593657Y-71058124D01*
X124184194Y-70784529D01*
X123729223Y-70596074D01*
X123246228Y-70500000D01*
X122753772Y-70500000D01*
X122270777Y-70596074D01*
X121815806Y-70784529D01*
X121406343Y-71058124D01*
X121058124Y-71406343D01*
X120784529Y-71815806D01*
X120596074Y-72270777D01*
X120500000Y-72753772D01*
X120350701Y-72753772D01*
X120377474Y-72480725D01*
X120528281Y-71981230D01*
X120773233Y-71520541D01*
X121103002Y-71116203D01*
X121505031Y-70783616D01*
X121964001Y-70535452D01*
X122462427Y-70381163D01*
X122996657Y-70325014D01*
X123000559Y-70325000D01*
X166984103Y-70325000D01*
X167519275Y-70377474D01*
X167519275Y-70377474D01*
G37*
X167519275Y-70377474D02*
X168018770Y-70528281D01*
X168479459Y-70773233D01*
X168883797Y-71103002D01*
X169216384Y-71505031D01*
X169464548Y-71964001D01*
X169618837Y-72462427D01*
X169674986Y-72996657D01*
X169675001Y-73000846D01*
X169675000Y-116984104D01*
X169622526Y-117519274D01*
X169471719Y-118018770D01*
X169226768Y-118479458D01*
X168896995Y-118883799D01*
X168494970Y-119216383D01*
X168035997Y-119464548D01*
X167537575Y-119618836D01*
X167003342Y-119674986D01*
X166999441Y-119675000D01*
X123015896Y-119675000D01*
X122480726Y-119622526D01*
X121981230Y-119471719D01*
X121520542Y-119226768D01*
X121116201Y-118896995D01*
X120783617Y-118494970D01*
X120535452Y-118035997D01*
X120381164Y-117537575D01*
X120325014Y-117003342D01*
X120325000Y-116999441D01*
X120325000Y-116753772D01*
X120500000Y-116753772D01*
X120500000Y-117246228D01*
X120596074Y-117729223D01*
X120784529Y-118184194D01*
X121058124Y-118593657D01*
X121406343Y-118941876D01*
X121815806Y-119215471D01*
X122270777Y-119403926D01*
X122753772Y-119500000D01*
X123246228Y-119500000D01*
X123729223Y-119403926D01*
X124184194Y-119215471D01*
X124593657Y-118941876D01*
X124941876Y-118593657D01*
X125215471Y-118184194D01*
X125403926Y-117729223D01*
X125500000Y-117246228D01*
X125500000Y-116753772D01*
X125403982Y-116271056D01*
X129359500Y-116271056D01*
X129359500Y-116408944D01*
X129386401Y-116544182D01*
X129439168Y-116671574D01*
X129515774Y-116786224D01*
X129613276Y-116883726D01*
X129727926Y-116960332D01*
X129855318Y-117013099D01*
X129990556Y-117040000D01*
X130128444Y-117040000D01*
X130263682Y-117013099D01*
X130391074Y-116960332D01*
X130505724Y-116883726D01*
X130559500Y-116829950D01*
X130613276Y-116883726D01*
X130727926Y-116960332D01*
X130855318Y-117013099D01*
X130990556Y-117040000D01*
X131128444Y-117040000D01*
X131263682Y-117013099D01*
X131391074Y-116960332D01*
X131505724Y-116883726D01*
X131603226Y-116786224D01*
X131679832Y-116671574D01*
X131732599Y-116544182D01*
X131759500Y-116408944D01*
X131759500Y-116271056D01*
X131732599Y-116135818D01*
X131679832Y-116008426D01*
X131603226Y-115893776D01*
X131505724Y-115796274D01*
X131391074Y-115719668D01*
X131263682Y-115666901D01*
X131128444Y-115640000D01*
X130990556Y-115640000D01*
X130855318Y-115666901D01*
X130727926Y-115719668D01*
X130613276Y-115796274D01*
X130559500Y-115850050D01*
X130505724Y-115796274D01*
X130391074Y-115719668D01*
X130263682Y-115666901D01*
X130128444Y-115640000D01*
X129990556Y-115640000D01*
X129855318Y-115666901D01*
X129727926Y-115719668D01*
X129613276Y-115796274D01*
X129515774Y-115893776D01*
X129439168Y-116008426D01*
X129386401Y-116135818D01*
X129359500Y-116271056D01*
X125403982Y-116271056D01*
X125403926Y-116270777D01*
X125215471Y-115815806D01*
X125032998Y-115542716D01*
X135700000Y-115542716D01*
X135700000Y-115897284D01*
X135769173Y-116245041D01*
X135904861Y-116572620D01*
X136101849Y-116867433D01*
X136352567Y-117118151D01*
X136647380Y-117315139D01*
X136974959Y-117450827D01*
X137322716Y-117520000D01*
X137677284Y-117520000D01*
X138025041Y-117450827D01*
X138352620Y-117315139D01*
X138647433Y-117118151D01*
X138898151Y-116867433D01*
X139095139Y-116572620D01*
X139230827Y-116245041D01*
X139300000Y-115897284D01*
X139300000Y-115542716D01*
X139259788Y-115340556D01*
X143975500Y-115340556D01*
X143975500Y-115478444D01*
X144002401Y-115613682D01*
X144055168Y-115741074D01*
X144131774Y-115855724D01*
X144161050Y-115885000D01*
X144131774Y-115914276D01*
X144055168Y-116028926D01*
X144002401Y-116156318D01*
X143975500Y-116291556D01*
X143975500Y-116429444D01*
X144002401Y-116564682D01*
X144055168Y-116692074D01*
X144131774Y-116806724D01*
X144229276Y-116904226D01*
X144343926Y-116980832D01*
X144471318Y-117033599D01*
X144606556Y-117060500D01*
X144744444Y-117060500D01*
X144879682Y-117033599D01*
X145007074Y-116980832D01*
X145121724Y-116904226D01*
X145219226Y-116806724D01*
X145295832Y-116692074D01*
X145348599Y-116564682D01*
X145375500Y-116429444D01*
X145375500Y-116291556D01*
X145348599Y-116156318D01*
X145295832Y-116028926D01*
X145219226Y-115914276D01*
X145189950Y-115885000D01*
X145219226Y-115855724D01*
X145295832Y-115741074D01*
X145348599Y-115613682D01*
X145362715Y-115542716D01*
X150700000Y-115542716D01*
X150700000Y-115897284D01*
X150769173Y-116245041D01*
X150904861Y-116572620D01*
X151101849Y-116867433D01*
X151352567Y-117118151D01*
X151647380Y-117315139D01*
X151974959Y-117450827D01*
X152322716Y-117520000D01*
X152677284Y-117520000D01*
X153025041Y-117450827D01*
X153352620Y-117315139D01*
X153647433Y-117118151D01*
X153898151Y-116867433D01*
X153974096Y-116753772D01*
X164500000Y-116753772D01*
X164500000Y-117246228D01*
X164596074Y-117729223D01*
X164784529Y-118184194D01*
X165058124Y-118593657D01*
X165406343Y-118941876D01*
X165815806Y-119215471D01*
X166270777Y-119403926D01*
X166753772Y-119500000D01*
X167246228Y-119500000D01*
X167729223Y-119403926D01*
X168184194Y-119215471D01*
X168593657Y-118941876D01*
X168941876Y-118593657D01*
X169215471Y-118184194D01*
X169403926Y-117729223D01*
X169500000Y-117246228D01*
X169500000Y-116753772D01*
X169403926Y-116270777D01*
X169215471Y-115815806D01*
X168941876Y-115406343D01*
X168593657Y-115058124D01*
X168184194Y-114784529D01*
X167729223Y-114596074D01*
X167246228Y-114500000D01*
X166753772Y-114500000D01*
X166270777Y-114596074D01*
X165815806Y-114784529D01*
X165406343Y-115058124D01*
X165058124Y-115406343D01*
X164784529Y-115815806D01*
X164596074Y-116270777D01*
X164500000Y-116753772D01*
X153974096Y-116753772D01*
X154095139Y-116572620D01*
X154230827Y-116245041D01*
X154300000Y-115897284D01*
X154300000Y-115542716D01*
X154230827Y-115194959D01*
X154095139Y-114867380D01*
X153898151Y-114572567D01*
X153647433Y-114321849D01*
X153352620Y-114124861D01*
X153025041Y-113989173D01*
X152677284Y-113920000D01*
X152322716Y-113920000D01*
X151974959Y-113989173D01*
X151647380Y-114124861D01*
X151352567Y-114321849D01*
X151101849Y-114572567D01*
X150904861Y-114867380D01*
X150769173Y-115194959D01*
X150700000Y-115542716D01*
X145362715Y-115542716D01*
X145375500Y-115478444D01*
X145375500Y-115340556D01*
X145348599Y-115205318D01*
X145295832Y-115077926D01*
X145219226Y-114963276D01*
X145121724Y-114865774D01*
X145007074Y-114789168D01*
X144879682Y-114736401D01*
X144744444Y-114709500D01*
X144606556Y-114709500D01*
X144471318Y-114736401D01*
X144343926Y-114789168D01*
X144229276Y-114865774D01*
X144131774Y-114963276D01*
X144055168Y-115077926D01*
X144002401Y-115205318D01*
X143975500Y-115340556D01*
X139259788Y-115340556D01*
X139230827Y-115194959D01*
X139095139Y-114867380D01*
X138898151Y-114572567D01*
X138647433Y-114321849D01*
X138352620Y-114124861D01*
X138025041Y-113989173D01*
X137677284Y-113920000D01*
X137322716Y-113920000D01*
X136974959Y-113989173D01*
X136647380Y-114124861D01*
X136352567Y-114321849D01*
X136101849Y-114572567D01*
X135904861Y-114867380D01*
X135769173Y-115194959D01*
X135700000Y-115542716D01*
X125032998Y-115542716D01*
X124941876Y-115406343D01*
X124593657Y-115058124D01*
X124184194Y-114784529D01*
X123729223Y-114596074D01*
X123246228Y-114500000D01*
X122753772Y-114500000D01*
X122270777Y-114596074D01*
X121815806Y-114784529D01*
X121406343Y-115058124D01*
X121058124Y-115406343D01*
X120784529Y-115815806D01*
X120596074Y-116270777D01*
X120500000Y-116753772D01*
X120325000Y-116753772D01*
X120325000Y-114127087D01*
X126110000Y-114127087D01*
X126110000Y-114245277D01*
X126133058Y-114361196D01*
X126178287Y-114470389D01*
X126243950Y-114568660D01*
X126327522Y-114652232D01*
X126425793Y-114717895D01*
X126534986Y-114763124D01*
X126650905Y-114786182D01*
X126769095Y-114786182D01*
X126885014Y-114763124D01*
X126994207Y-114717895D01*
X127092478Y-114652232D01*
X127176050Y-114568660D01*
X127241713Y-114470389D01*
X127286942Y-114361196D01*
X127310000Y-114245277D01*
X127310000Y-114127087D01*
X127286942Y-114011168D01*
X127241713Y-113901975D01*
X127202345Y-113843056D01*
X129359500Y-113843056D01*
X129359500Y-113980944D01*
X129386401Y-114116182D01*
X129439168Y-114243574D01*
X129515774Y-114358224D01*
X129613276Y-114455726D01*
X129727926Y-114532332D01*
X129855318Y-114585099D01*
X129990556Y-114612000D01*
X130128444Y-114612000D01*
X130263682Y-114585099D01*
X130391074Y-114532332D01*
X130505724Y-114455726D01*
X130559500Y-114401950D01*
X130613276Y-114455726D01*
X130727926Y-114532332D01*
X130855318Y-114585099D01*
X130990556Y-114612000D01*
X131128444Y-114612000D01*
X131263682Y-114585099D01*
X131391074Y-114532332D01*
X131505724Y-114455726D01*
X131603226Y-114358224D01*
X131679832Y-114243574D01*
X131732599Y-114116182D01*
X131759500Y-113980944D01*
X131759500Y-113843056D01*
X131732599Y-113707818D01*
X131679832Y-113580426D01*
X131603226Y-113465776D01*
X131505724Y-113368274D01*
X131391074Y-113291668D01*
X131263682Y-113238901D01*
X131128444Y-113212000D01*
X130990556Y-113212000D01*
X130855318Y-113238901D01*
X130727926Y-113291668D01*
X130613276Y-113368274D01*
X130559500Y-113422050D01*
X130505724Y-113368274D01*
X130391074Y-113291668D01*
X130263682Y-113238901D01*
X130128444Y-113212000D01*
X129990556Y-113212000D01*
X129855318Y-113238901D01*
X129727926Y-113291668D01*
X129613276Y-113368274D01*
X129515774Y-113465776D01*
X129439168Y-113580426D01*
X129386401Y-113707818D01*
X129359500Y-113843056D01*
X127202345Y-113843056D01*
X127176050Y-113803704D01*
X127092478Y-113720132D01*
X126994207Y-113654469D01*
X126885014Y-113609240D01*
X126769095Y-113586182D01*
X126650905Y-113586182D01*
X126534986Y-113609240D01*
X126425793Y-113654469D01*
X126327522Y-113720132D01*
X126243950Y-113803704D01*
X126178287Y-113901975D01*
X126133058Y-114011168D01*
X126110000Y-114127087D01*
X120325000Y-114127087D01*
X120325000Y-112210000D01*
X140398549Y-112210000D01*
X140398549Y-113810000D01*
X140404341Y-113868810D01*
X140421496Y-113925360D01*
X140449353Y-113977477D01*
X140486842Y-114023158D01*
X140532523Y-114060647D01*
X140584640Y-114088504D01*
X140641190Y-114105659D01*
X140700000Y-114111451D01*
X142300000Y-114111451D01*
X142358810Y-114105659D01*
X142415360Y-114088504D01*
X142467477Y-114060647D01*
X142513158Y-114023158D01*
X142550647Y-113977477D01*
X142578504Y-113925360D01*
X142595659Y-113868810D01*
X142601451Y-113810000D01*
X142601451Y-112901659D01*
X142900000Y-112901659D01*
X142900000Y-113118341D01*
X142942273Y-113330858D01*
X143025193Y-113531045D01*
X143145575Y-113711209D01*
X143298791Y-113864425D01*
X143478955Y-113984807D01*
X143679142Y-114067727D01*
X143891659Y-114110000D01*
X144108341Y-114110000D01*
X144320858Y-114067727D01*
X144521045Y-113984807D01*
X144701209Y-113864425D01*
X144854425Y-113711209D01*
X144974807Y-113531045D01*
X145000000Y-113470224D01*
X145025193Y-113531045D01*
X145145575Y-113711209D01*
X145298791Y-113864425D01*
X145478955Y-113984807D01*
X145679142Y-114067727D01*
X145891659Y-114110000D01*
X146108341Y-114110000D01*
X146320858Y-114067727D01*
X146521045Y-113984807D01*
X146701209Y-113864425D01*
X146854425Y-113711209D01*
X146974807Y-113531045D01*
X147057727Y-113330858D01*
X147100000Y-113118341D01*
X147100000Y-112901659D01*
X147057727Y-112689142D01*
X146974807Y-112488955D01*
X146854425Y-112308791D01*
X146701209Y-112155575D01*
X146521045Y-112035193D01*
X146320858Y-111952273D01*
X146108341Y-111910000D01*
X145891659Y-111910000D01*
X145679142Y-111952273D01*
X145478955Y-112035193D01*
X145298791Y-112155575D01*
X145145575Y-112308791D01*
X145025193Y-112488955D01*
X145000000Y-112549776D01*
X144974807Y-112488955D01*
X144854425Y-112308791D01*
X144701209Y-112155575D01*
X144521045Y-112035193D01*
X144320858Y-111952273D01*
X144108341Y-111910000D01*
X143891659Y-111910000D01*
X143679142Y-111952273D01*
X143478955Y-112035193D01*
X143298791Y-112155575D01*
X143145575Y-112308791D01*
X143025193Y-112488955D01*
X142942273Y-112689142D01*
X142900000Y-112901659D01*
X142601451Y-112901659D01*
X142601451Y-112210000D01*
X142595659Y-112151190D01*
X142578504Y-112094640D01*
X142550647Y-112042523D01*
X142513158Y-111996842D01*
X142467477Y-111959353D01*
X142415360Y-111931496D01*
X142358810Y-111914341D01*
X142300000Y-111908549D01*
X140700000Y-111908549D01*
X140641190Y-111914341D01*
X140584640Y-111931496D01*
X140532523Y-111959353D01*
X140486842Y-111996842D01*
X140449353Y-112042523D01*
X140421496Y-112094640D01*
X140404341Y-112151190D01*
X140398549Y-112210000D01*
X120325000Y-112210000D01*
X120325000Y-110471056D01*
X135988500Y-110471056D01*
X135988500Y-110608944D01*
X136015401Y-110744182D01*
X136068168Y-110871574D01*
X136144774Y-110986224D01*
X136242276Y-111083726D01*
X136356926Y-111160332D01*
X136484318Y-111213099D01*
X136619556Y-111240000D01*
X136757444Y-111240000D01*
X136892682Y-111213099D01*
X137020074Y-111160332D01*
X137134724Y-111083726D01*
X137232226Y-110986224D01*
X137308832Y-110871574D01*
X137361599Y-110744182D01*
X137388500Y-110608944D01*
X137388500Y-110471056D01*
X137361599Y-110335818D01*
X137308832Y-110208426D01*
X137232226Y-110093776D01*
X137134724Y-109996274D01*
X137020074Y-109919668D01*
X136892682Y-109866901D01*
X136757444Y-109840000D01*
X136619556Y-109840000D01*
X136484318Y-109866901D01*
X136356926Y-109919668D01*
X136242276Y-109996274D01*
X136144774Y-110093776D01*
X136068168Y-110208426D01*
X136015401Y-110335818D01*
X135988500Y-110471056D01*
X120325000Y-110471056D01*
X120325000Y-108574905D01*
X128275686Y-108574905D01*
X128275686Y-108693095D01*
X128298744Y-108809014D01*
X128343973Y-108918207D01*
X128409636Y-109016478D01*
X128493208Y-109100050D01*
X128591479Y-109165713D01*
X128700672Y-109210942D01*
X128816591Y-109234000D01*
X128934781Y-109234000D01*
X129050700Y-109210942D01*
X129159893Y-109165713D01*
X129258164Y-109100050D01*
X129341736Y-109016478D01*
X129407399Y-108918207D01*
X129452628Y-108809014D01*
X129475686Y-108693095D01*
X129475686Y-108574905D01*
X129452628Y-108458986D01*
X129407399Y-108349793D01*
X129341736Y-108251522D01*
X129258164Y-108167950D01*
X129159893Y-108102287D01*
X129050700Y-108057058D01*
X128934781Y-108034000D01*
X128816591Y-108034000D01*
X128700672Y-108057058D01*
X128591479Y-108102287D01*
X128493208Y-108167950D01*
X128409636Y-108251522D01*
X128343973Y-108349793D01*
X128298744Y-108458986D01*
X128275686Y-108574905D01*
X120325000Y-108574905D01*
X120325000Y-107265056D01*
X125202894Y-107265056D01*
X125202894Y-107402944D01*
X125229795Y-107538182D01*
X125282562Y-107665574D01*
X125359168Y-107780224D01*
X125456670Y-107877726D01*
X125571320Y-107954332D01*
X125698712Y-108007099D01*
X125833950Y-108034000D01*
X125971838Y-108034000D01*
X126107076Y-108007099D01*
X126234468Y-107954332D01*
X126349118Y-107877726D01*
X126446620Y-107780224D01*
X126523226Y-107665574D01*
X126575993Y-107538182D01*
X126602894Y-107402944D01*
X126602894Y-107326894D01*
X126678944Y-107326894D01*
X126814182Y-107299993D01*
X126941574Y-107247226D01*
X127056224Y-107170620D01*
X127110000Y-107116844D01*
X127163776Y-107170620D01*
X127278426Y-107247226D01*
X127405818Y-107299993D01*
X127541056Y-107326894D01*
X127617106Y-107326894D01*
X127617106Y-107402944D01*
X127644007Y-107538182D01*
X127696774Y-107665574D01*
X127773380Y-107780224D01*
X127870882Y-107877726D01*
X127985532Y-107954332D01*
X128112924Y-108007099D01*
X128248162Y-108034000D01*
X128386050Y-108034000D01*
X128521288Y-108007099D01*
X128648680Y-107954332D01*
X128763330Y-107877726D01*
X128860832Y-107780224D01*
X128937438Y-107665574D01*
X128990205Y-107538182D01*
X129017106Y-107402944D01*
X129017106Y-107265056D01*
X128990205Y-107129818D01*
X128937438Y-107002426D01*
X128869939Y-106901405D01*
X154079500Y-106901405D01*
X154079500Y-107019595D01*
X154102558Y-107135514D01*
X154147787Y-107244707D01*
X154213450Y-107342978D01*
X154297022Y-107426550D01*
X154347831Y-107460500D01*
X154297022Y-107494450D01*
X154213450Y-107578022D01*
X154147787Y-107676293D01*
X154102558Y-107785486D01*
X154079500Y-107901405D01*
X154079500Y-108019595D01*
X154102558Y-108135514D01*
X154147787Y-108244707D01*
X154213450Y-108342978D01*
X154297022Y-108426550D01*
X154347831Y-108460500D01*
X154297022Y-108494450D01*
X154213450Y-108578022D01*
X154147787Y-108676293D01*
X154102558Y-108785486D01*
X154079500Y-108901405D01*
X154079500Y-109019595D01*
X154102558Y-109135514D01*
X154147787Y-109244707D01*
X154213450Y-109342978D01*
X154297022Y-109426550D01*
X154347831Y-109460500D01*
X154297022Y-109494450D01*
X154213450Y-109578022D01*
X154147787Y-109676293D01*
X154102558Y-109785486D01*
X154079500Y-109901405D01*
X154079500Y-110019595D01*
X154102558Y-110135514D01*
X154147787Y-110244707D01*
X154213450Y-110342978D01*
X154297022Y-110426550D01*
X154395293Y-110492213D01*
X154504486Y-110537442D01*
X154620405Y-110560500D01*
X154738595Y-110560500D01*
X154854514Y-110537442D01*
X154963707Y-110492213D01*
X155061978Y-110426550D01*
X155145550Y-110342978D01*
X155179500Y-110292169D01*
X155213450Y-110342978D01*
X155297022Y-110426550D01*
X155395293Y-110492213D01*
X155504486Y-110537442D01*
X155620405Y-110560500D01*
X155738595Y-110560500D01*
X155854514Y-110537442D01*
X155963707Y-110492213D01*
X156061978Y-110426550D01*
X156145550Y-110342978D01*
X156211213Y-110244707D01*
X156256442Y-110135514D01*
X156279500Y-110019595D01*
X156279500Y-109901405D01*
X156256442Y-109785486D01*
X156211213Y-109676293D01*
X156200327Y-109660000D01*
X165498549Y-109660000D01*
X165498549Y-110860000D01*
X165509145Y-110967583D01*
X165540526Y-111071031D01*
X165591485Y-111166370D01*
X165660065Y-111249935D01*
X165743630Y-111318515D01*
X165838969Y-111369474D01*
X165942417Y-111400855D01*
X166050000Y-111411451D01*
X167550000Y-111411451D01*
X167657583Y-111400855D01*
X167761031Y-111369474D01*
X167856370Y-111318515D01*
X167939935Y-111249935D01*
X168008515Y-111166370D01*
X168059474Y-111071031D01*
X168090855Y-110967583D01*
X168101451Y-110860000D01*
X168101451Y-109660000D01*
X168090855Y-109552417D01*
X168059474Y-109448969D01*
X168008515Y-109353630D01*
X167939935Y-109270065D01*
X167856370Y-109201485D01*
X167761031Y-109150526D01*
X167657583Y-109119145D01*
X167550000Y-109108549D01*
X166050000Y-109108549D01*
X165942417Y-109119145D01*
X165838969Y-109150526D01*
X165743630Y-109201485D01*
X165660065Y-109270065D01*
X165591485Y-109353630D01*
X165540526Y-109448969D01*
X165509145Y-109552417D01*
X165498549Y-109660000D01*
X156200327Y-109660000D01*
X156145550Y-109578022D01*
X156061978Y-109494450D01*
X156011169Y-109460500D01*
X156061978Y-109426550D01*
X156145550Y-109342978D01*
X156211213Y-109244707D01*
X156256442Y-109135514D01*
X156279500Y-109019595D01*
X156279500Y-108901405D01*
X156256442Y-108785486D01*
X156211213Y-108676293D01*
X156145550Y-108578022D01*
X156061978Y-108494450D01*
X156011169Y-108460500D01*
X156061978Y-108426550D01*
X156145550Y-108342978D01*
X156179500Y-108292169D01*
X156213450Y-108342978D01*
X156297022Y-108426550D01*
X156395293Y-108492213D01*
X156504486Y-108537442D01*
X156620405Y-108560500D01*
X156738595Y-108560500D01*
X156854514Y-108537442D01*
X156963707Y-108492213D01*
X157061978Y-108426550D01*
X157145550Y-108342978D01*
X157179500Y-108292169D01*
X157213450Y-108342978D01*
X157297022Y-108426550D01*
X157395293Y-108492213D01*
X157504486Y-108537442D01*
X157620405Y-108560500D01*
X157738595Y-108560500D01*
X157854514Y-108537442D01*
X157963707Y-108492213D01*
X158061978Y-108426550D01*
X158145550Y-108342978D01*
X158211213Y-108244707D01*
X158256442Y-108135514D01*
X158279500Y-108019595D01*
X158279500Y-107901405D01*
X158256442Y-107785486D01*
X158211213Y-107676293D01*
X158145550Y-107578022D01*
X158061978Y-107494450D01*
X158011169Y-107460500D01*
X158061978Y-107426550D01*
X158145550Y-107342978D01*
X158211213Y-107244707D01*
X158256442Y-107135514D01*
X158279500Y-107019595D01*
X158279500Y-106901405D01*
X158256442Y-106785486D01*
X158211213Y-106676293D01*
X158194250Y-106650905D01*
X161508000Y-106650905D01*
X161508000Y-106769095D01*
X161531058Y-106885014D01*
X161576287Y-106994207D01*
X161641950Y-107092478D01*
X161725522Y-107176050D01*
X161776331Y-107210000D01*
X161725522Y-107243950D01*
X161641950Y-107327522D01*
X161576287Y-107425793D01*
X161531058Y-107534986D01*
X161508000Y-107650905D01*
X161508000Y-107769095D01*
X161531058Y-107885014D01*
X161576287Y-107994207D01*
X161641950Y-108092478D01*
X161725522Y-108176050D01*
X161823793Y-108241713D01*
X161932986Y-108286942D01*
X162048905Y-108310000D01*
X162167095Y-108310000D01*
X162283014Y-108286942D01*
X162392207Y-108241713D01*
X162490478Y-108176050D01*
X162574050Y-108092478D01*
X162608000Y-108041669D01*
X162641950Y-108092478D01*
X162725522Y-108176050D01*
X162776331Y-108210000D01*
X162725522Y-108243950D01*
X162641950Y-108327522D01*
X162576287Y-108425793D01*
X162531058Y-108534986D01*
X162508000Y-108650905D01*
X162508000Y-108769095D01*
X162531058Y-108885014D01*
X162576287Y-108994207D01*
X162641950Y-109092478D01*
X162725522Y-109176050D01*
X162823793Y-109241713D01*
X162932986Y-109286942D01*
X163048905Y-109310000D01*
X163167095Y-109310000D01*
X163283014Y-109286942D01*
X163392207Y-109241713D01*
X163490478Y-109176050D01*
X163574050Y-109092478D01*
X163608000Y-109041669D01*
X163641950Y-109092478D01*
X163725522Y-109176050D01*
X163823793Y-109241713D01*
X163932986Y-109286942D01*
X164048905Y-109310000D01*
X164167095Y-109310000D01*
X164283014Y-109286942D01*
X164392207Y-109241713D01*
X164490478Y-109176050D01*
X164574050Y-109092478D01*
X164639713Y-108994207D01*
X164684942Y-108885014D01*
X164708000Y-108769095D01*
X164708000Y-108650905D01*
X164684942Y-108534986D01*
X164639713Y-108425793D01*
X164574050Y-108327522D01*
X164490478Y-108243950D01*
X164439669Y-108210000D01*
X164490478Y-108176050D01*
X164574050Y-108092478D01*
X164639713Y-107994207D01*
X164684942Y-107885014D01*
X164708000Y-107769095D01*
X164708000Y-107650905D01*
X164684942Y-107534986D01*
X164639713Y-107425793D01*
X164574050Y-107327522D01*
X164490478Y-107243950D01*
X164439669Y-107210000D01*
X164490478Y-107176050D01*
X164574050Y-107092478D01*
X164639713Y-106994207D01*
X164684942Y-106885014D01*
X164708000Y-106769095D01*
X164708000Y-106650905D01*
X164684942Y-106534986D01*
X164639713Y-106425793D01*
X164574050Y-106327522D01*
X164490478Y-106243950D01*
X164439669Y-106210000D01*
X164490478Y-106176050D01*
X164574050Y-106092478D01*
X164639713Y-105994207D01*
X164684942Y-105885014D01*
X164708000Y-105769095D01*
X164708000Y-105650905D01*
X164684942Y-105534986D01*
X164639713Y-105425793D01*
X164574050Y-105327522D01*
X164490478Y-105243950D01*
X164439669Y-105210000D01*
X164490478Y-105176050D01*
X164574050Y-105092478D01*
X164639713Y-104994207D01*
X164684942Y-104885014D01*
X164708000Y-104769095D01*
X164708000Y-104650905D01*
X164684942Y-104534986D01*
X164639713Y-104425793D01*
X164574050Y-104327522D01*
X164490478Y-104243950D01*
X164392207Y-104178287D01*
X164283014Y-104133058D01*
X164167095Y-104110000D01*
X164048905Y-104110000D01*
X163932986Y-104133058D01*
X163823793Y-104178287D01*
X163725522Y-104243950D01*
X163641950Y-104327522D01*
X163608000Y-104378331D01*
X163574050Y-104327522D01*
X163490478Y-104243950D01*
X163392207Y-104178287D01*
X163283014Y-104133058D01*
X163167095Y-104110000D01*
X163048905Y-104110000D01*
X162932986Y-104133058D01*
X162823793Y-104178287D01*
X162725522Y-104243950D01*
X162641950Y-104327522D01*
X162576287Y-104425793D01*
X162531058Y-104534986D01*
X162508000Y-104650905D01*
X162508000Y-104769095D01*
X162531058Y-104885014D01*
X162576287Y-104994207D01*
X162641950Y-105092478D01*
X162725522Y-105176050D01*
X162776331Y-105210000D01*
X162725522Y-105243950D01*
X162641950Y-105327522D01*
X162576287Y-105425793D01*
X162531058Y-105534986D01*
X162508000Y-105650905D01*
X162508000Y-105769095D01*
X162531058Y-105885014D01*
X162576287Y-105994207D01*
X162641950Y-106092478D01*
X162725522Y-106176050D01*
X162776331Y-106210000D01*
X162725522Y-106243950D01*
X162641950Y-106327522D01*
X162608000Y-106378331D01*
X162574050Y-106327522D01*
X162490478Y-106243950D01*
X162392207Y-106178287D01*
X162283014Y-106133058D01*
X162167095Y-106110000D01*
X162048905Y-106110000D01*
X161932986Y-106133058D01*
X161823793Y-106178287D01*
X161725522Y-106243950D01*
X161641950Y-106327522D01*
X161576287Y-106425793D01*
X161531058Y-106534986D01*
X161508000Y-106650905D01*
X158194250Y-106650905D01*
X158145550Y-106578022D01*
X158061978Y-106494450D01*
X157963707Y-106428787D01*
X157854514Y-106383558D01*
X157738595Y-106360500D01*
X157620405Y-106360500D01*
X157504486Y-106383558D01*
X157395293Y-106428787D01*
X157297022Y-106494450D01*
X157213450Y-106578022D01*
X157179500Y-106628831D01*
X157145550Y-106578022D01*
X157061978Y-106494450D01*
X156963707Y-106428787D01*
X156854514Y-106383558D01*
X156738595Y-106360500D01*
X156620405Y-106360500D01*
X156504486Y-106383558D01*
X156395293Y-106428787D01*
X156297022Y-106494450D01*
X156213450Y-106578022D01*
X156179500Y-106628831D01*
X156145550Y-106578022D01*
X156061978Y-106494450D01*
X155963707Y-106428787D01*
X155854514Y-106383558D01*
X155738595Y-106360500D01*
X155620405Y-106360500D01*
X155504486Y-106383558D01*
X155395293Y-106428787D01*
X155297022Y-106494450D01*
X155213450Y-106578022D01*
X155179500Y-106628831D01*
X155145550Y-106578022D01*
X155061978Y-106494450D01*
X154963707Y-106428787D01*
X154854514Y-106383558D01*
X154738595Y-106360500D01*
X154620405Y-106360500D01*
X154504486Y-106383558D01*
X154395293Y-106428787D01*
X154297022Y-106494450D01*
X154213450Y-106578022D01*
X154147787Y-106676293D01*
X154102558Y-106785486D01*
X154079500Y-106901405D01*
X128869939Y-106901405D01*
X128860832Y-106887776D01*
X128763330Y-106790274D01*
X128648680Y-106713668D01*
X128521288Y-106660901D01*
X128386050Y-106634000D01*
X128310000Y-106634000D01*
X128310000Y-106557950D01*
X128283099Y-106422712D01*
X128230332Y-106295320D01*
X128153726Y-106180670D01*
X128056224Y-106083168D01*
X127941574Y-106006562D01*
X127814182Y-105953795D01*
X127678944Y-105926894D01*
X127541056Y-105926894D01*
X127405818Y-105953795D01*
X127278426Y-106006562D01*
X127163776Y-106083168D01*
X127110000Y-106136944D01*
X127056224Y-106083168D01*
X126941574Y-106006562D01*
X126814182Y-105953795D01*
X126678944Y-105926894D01*
X126541056Y-105926894D01*
X126405818Y-105953795D01*
X126278426Y-106006562D01*
X126163776Y-106083168D01*
X126066274Y-106180670D01*
X125989668Y-106295320D01*
X125936901Y-106422712D01*
X125910000Y-106557950D01*
X125910000Y-106634000D01*
X125833950Y-106634000D01*
X125698712Y-106660901D01*
X125571320Y-106713668D01*
X125456670Y-106790274D01*
X125359168Y-106887776D01*
X125282562Y-107002426D01*
X125229795Y-107129818D01*
X125202894Y-107265056D01*
X120325000Y-107265056D01*
X120325000Y-104333407D01*
X130345502Y-104333407D01*
X130345502Y-104451597D01*
X130368560Y-104567516D01*
X130413789Y-104676709D01*
X130479452Y-104774980D01*
X130563024Y-104858552D01*
X130661295Y-104924215D01*
X130770488Y-104969444D01*
X130886407Y-104992502D01*
X131004597Y-104992502D01*
X131120516Y-104969444D01*
X131229709Y-104924215D01*
X131327980Y-104858552D01*
X131411552Y-104774980D01*
X131477215Y-104676709D01*
X131522444Y-104567516D01*
X131545502Y-104451597D01*
X131545502Y-104333407D01*
X131522444Y-104217488D01*
X131477215Y-104108295D01*
X131411552Y-104010024D01*
X131327980Y-103926452D01*
X131229709Y-103860789D01*
X131120516Y-103815560D01*
X131004597Y-103792502D01*
X130886407Y-103792502D01*
X130770488Y-103815560D01*
X130661295Y-103860789D01*
X130563024Y-103926452D01*
X130479452Y-104010024D01*
X130413789Y-104108295D01*
X130368560Y-104217488D01*
X130345502Y-104333407D01*
X120325000Y-104333407D01*
X120325000Y-102322716D01*
X122480000Y-102322716D01*
X122480000Y-102677284D01*
X122549173Y-103025041D01*
X122684861Y-103352620D01*
X122881849Y-103647433D01*
X123132567Y-103898151D01*
X123427380Y-104095139D01*
X123754959Y-104230827D01*
X124102716Y-104300000D01*
X124457284Y-104300000D01*
X124805041Y-104230827D01*
X125132620Y-104095139D01*
X125427433Y-103898151D01*
X125678151Y-103647433D01*
X125875139Y-103352620D01*
X126010827Y-103025041D01*
X126080000Y-102677284D01*
X126080000Y-102322716D01*
X126010827Y-101974959D01*
X125875139Y-101647380D01*
X125719804Y-101414905D01*
X130345502Y-101414905D01*
X130345502Y-101533095D01*
X130368560Y-101649014D01*
X130413789Y-101758207D01*
X130479452Y-101856478D01*
X130563024Y-101940050D01*
X130661295Y-102005713D01*
X130770488Y-102050942D01*
X130886407Y-102074000D01*
X131004597Y-102074000D01*
X131120516Y-102050942D01*
X131229709Y-102005713D01*
X131327980Y-101940050D01*
X131411552Y-101856478D01*
X131477215Y-101758207D01*
X131522444Y-101649014D01*
X131545502Y-101533095D01*
X131545502Y-101414905D01*
X131522444Y-101298986D01*
X131477215Y-101189793D01*
X131411552Y-101091522D01*
X131327980Y-101007950D01*
X131229709Y-100942287D01*
X131120516Y-100897058D01*
X131004597Y-100874000D01*
X130886407Y-100874000D01*
X130770488Y-100897058D01*
X130661295Y-100942287D01*
X130563024Y-101007950D01*
X130479452Y-101091522D01*
X130413789Y-101189793D01*
X130368560Y-101298986D01*
X130345502Y-101414905D01*
X125719804Y-101414905D01*
X125678151Y-101352567D01*
X125427433Y-101101849D01*
X125132620Y-100904861D01*
X125040144Y-100866556D01*
X134808500Y-100866556D01*
X134808500Y-101004444D01*
X134835401Y-101139682D01*
X134888168Y-101267074D01*
X134964774Y-101381724D01*
X135062276Y-101479226D01*
X135176926Y-101555832D01*
X135304318Y-101608599D01*
X135439556Y-101635500D01*
X135577444Y-101635500D01*
X135712682Y-101608599D01*
X135840074Y-101555832D01*
X135872664Y-101534056D01*
X148208500Y-101534056D01*
X148208500Y-101671944D01*
X148235401Y-101807182D01*
X148288168Y-101934574D01*
X148364774Y-102049224D01*
X148462276Y-102146726D01*
X148576926Y-102223332D01*
X148704318Y-102276099D01*
X148839556Y-102303000D01*
X148977444Y-102303000D01*
X149112682Y-102276099D01*
X149240074Y-102223332D01*
X149354724Y-102146726D01*
X149452226Y-102049224D01*
X149528832Y-101934574D01*
X149581599Y-101807182D01*
X149608500Y-101671944D01*
X149608500Y-101534056D01*
X149581599Y-101398818D01*
X149528832Y-101271426D01*
X149452226Y-101156776D01*
X149354724Y-101059274D01*
X149240074Y-100982668D01*
X149112682Y-100929901D01*
X148977444Y-100903000D01*
X148839556Y-100903000D01*
X148704318Y-100929901D01*
X148576926Y-100982668D01*
X148462276Y-101059274D01*
X148364774Y-101156776D01*
X148288168Y-101271426D01*
X148235401Y-101398818D01*
X148208500Y-101534056D01*
X135872664Y-101534056D01*
X135954724Y-101479226D01*
X136052226Y-101381724D01*
X136128832Y-101267074D01*
X136181599Y-101139682D01*
X136208500Y-101004444D01*
X136208500Y-100866556D01*
X136181599Y-100731318D01*
X136128832Y-100603926D01*
X136123908Y-100596556D01*
X152389000Y-100596556D01*
X152389000Y-100734444D01*
X152415901Y-100869682D01*
X152468668Y-100997074D01*
X152545274Y-101111724D01*
X152642776Y-101209226D01*
X152757426Y-101285832D01*
X152884818Y-101338599D01*
X153020056Y-101365500D01*
X153157944Y-101365500D01*
X153293182Y-101338599D01*
X153420574Y-101285832D01*
X153535224Y-101209226D01*
X153632726Y-101111724D01*
X153709332Y-100997074D01*
X153762099Y-100869682D01*
X153772360Y-100818093D01*
X163670000Y-100818093D01*
X163670000Y-101221907D01*
X163748780Y-101617963D01*
X163903314Y-101991039D01*
X164127661Y-102326799D01*
X164413201Y-102612339D01*
X164748961Y-102836686D01*
X165122037Y-102991220D01*
X165518093Y-103070000D01*
X165921907Y-103070000D01*
X166317963Y-102991220D01*
X166691039Y-102836686D01*
X167026799Y-102612339D01*
X167312339Y-102326799D01*
X167536686Y-101991039D01*
X167691220Y-101617963D01*
X167770000Y-101221907D01*
X167770000Y-100818093D01*
X167691220Y-100422037D01*
X167536686Y-100048961D01*
X167312339Y-99713201D01*
X167026799Y-99427661D01*
X166691039Y-99203314D01*
X166317963Y-99048780D01*
X165921907Y-98970000D01*
X165518093Y-98970000D01*
X165122037Y-99048780D01*
X164748961Y-99203314D01*
X164413201Y-99427661D01*
X164127661Y-99713201D01*
X163903314Y-100048961D01*
X163748780Y-100422037D01*
X163670000Y-100818093D01*
X153772360Y-100818093D01*
X153789000Y-100734444D01*
X153789000Y-100596556D01*
X153762099Y-100461318D01*
X153709332Y-100333926D01*
X153632726Y-100219276D01*
X153535224Y-100121774D01*
X153420574Y-100045168D01*
X153293182Y-99992401D01*
X153157944Y-99965500D01*
X153020056Y-99965500D01*
X152884818Y-99992401D01*
X152757426Y-100045168D01*
X152642776Y-100121774D01*
X152545274Y-100219276D01*
X152468668Y-100333926D01*
X152415901Y-100461318D01*
X152389000Y-100596556D01*
X136123908Y-100596556D01*
X136052226Y-100489276D01*
X135954724Y-100391774D01*
X135840074Y-100315168D01*
X135712682Y-100262401D01*
X135577444Y-100235500D01*
X135439556Y-100235500D01*
X135304318Y-100262401D01*
X135176926Y-100315168D01*
X135062276Y-100391774D01*
X134964774Y-100489276D01*
X134888168Y-100603926D01*
X134835401Y-100731318D01*
X134808500Y-100866556D01*
X125040144Y-100866556D01*
X124805041Y-100769173D01*
X124457284Y-100700000D01*
X124102716Y-100700000D01*
X123754959Y-100769173D01*
X123427380Y-100904861D01*
X123132567Y-101101849D01*
X122881849Y-101352567D01*
X122684861Y-101647380D01*
X122549173Y-101974959D01*
X122480000Y-102322716D01*
X120325000Y-102322716D01*
X120325000Y-98750056D01*
X130327500Y-98750056D01*
X130327500Y-98887944D01*
X130354401Y-99023182D01*
X130407168Y-99150574D01*
X130483774Y-99265224D01*
X130581276Y-99362726D01*
X130695926Y-99439332D01*
X130823318Y-99492099D01*
X130958556Y-99519000D01*
X131096444Y-99519000D01*
X131231682Y-99492099D01*
X131359074Y-99439332D01*
X131473724Y-99362726D01*
X131571226Y-99265224D01*
X131647832Y-99150574D01*
X131664465Y-99110418D01*
X148354000Y-99110418D01*
X148354000Y-99228608D01*
X148377058Y-99344527D01*
X148422287Y-99453720D01*
X148487950Y-99551991D01*
X148571522Y-99635563D01*
X148669793Y-99701226D01*
X148778986Y-99746455D01*
X148894905Y-99769513D01*
X149013095Y-99769513D01*
X149129014Y-99746455D01*
X149238207Y-99701226D01*
X149336478Y-99635563D01*
X149420050Y-99551991D01*
X149485713Y-99453720D01*
X149530942Y-99344527D01*
X149554000Y-99228608D01*
X149554000Y-99110418D01*
X149530942Y-98994499D01*
X149485713Y-98885306D01*
X149420050Y-98787035D01*
X149336478Y-98703463D01*
X149238207Y-98637800D01*
X149129014Y-98592571D01*
X149013095Y-98569513D01*
X148894905Y-98569513D01*
X148778986Y-98592571D01*
X148669793Y-98637800D01*
X148571522Y-98703463D01*
X148487950Y-98787035D01*
X148422287Y-98885306D01*
X148377058Y-98994499D01*
X148354000Y-99110418D01*
X131664465Y-99110418D01*
X131700599Y-99023182D01*
X131727500Y-98887944D01*
X131727500Y-98750056D01*
X131700599Y-98614818D01*
X131647832Y-98487426D01*
X131571226Y-98372776D01*
X131473724Y-98275274D01*
X131359074Y-98198668D01*
X131231682Y-98145901D01*
X131096444Y-98119000D01*
X130958556Y-98119000D01*
X130823318Y-98145901D01*
X130695926Y-98198668D01*
X130581276Y-98275274D01*
X130483774Y-98372776D01*
X130407168Y-98487426D01*
X130354401Y-98614818D01*
X130327500Y-98750056D01*
X120325000Y-98750056D01*
X120325000Y-97441056D01*
X148959213Y-97441056D01*
X148959213Y-97578944D01*
X148986114Y-97714182D01*
X149038881Y-97841574D01*
X149115487Y-97956224D01*
X149212989Y-98053726D01*
X149327639Y-98130332D01*
X149455031Y-98183099D01*
X149590269Y-98210000D01*
X149728157Y-98210000D01*
X149863395Y-98183099D01*
X149990787Y-98130332D01*
X150105437Y-98053726D01*
X150202939Y-97956224D01*
X150279545Y-97841574D01*
X150332312Y-97714182D01*
X150359213Y-97578944D01*
X150359213Y-97441056D01*
X150341709Y-97353056D01*
X151649000Y-97353056D01*
X151649000Y-97490944D01*
X151675901Y-97626182D01*
X151728668Y-97753574D01*
X151805274Y-97868224D01*
X151902776Y-97965726D01*
X152017426Y-98042332D01*
X152144818Y-98095099D01*
X152280056Y-98122000D01*
X152417944Y-98122000D01*
X152553182Y-98095099D01*
X152680574Y-98042332D01*
X152795224Y-97965726D01*
X152892726Y-97868224D01*
X152969332Y-97753574D01*
X153022099Y-97626182D01*
X153049000Y-97490944D01*
X153049000Y-97353056D01*
X153022099Y-97217818D01*
X152969332Y-97090426D01*
X152892726Y-96975776D01*
X152795224Y-96878274D01*
X152680574Y-96801668D01*
X152553182Y-96748901D01*
X152417944Y-96722000D01*
X152280056Y-96722000D01*
X152144818Y-96748901D01*
X152017426Y-96801668D01*
X151902776Y-96878274D01*
X151805274Y-96975776D01*
X151728668Y-97090426D01*
X151675901Y-97217818D01*
X151649000Y-97353056D01*
X150341709Y-97353056D01*
X150332312Y-97305818D01*
X150279545Y-97178426D01*
X150202939Y-97063776D01*
X150105437Y-96966274D01*
X149990787Y-96889668D01*
X149863395Y-96836901D01*
X149728157Y-96810000D01*
X149590269Y-96810000D01*
X149455031Y-96836901D01*
X149327639Y-96889668D01*
X149212989Y-96966274D01*
X149115487Y-97063776D01*
X149038881Y-97178426D01*
X148986114Y-97305818D01*
X148959213Y-97441056D01*
X120325000Y-97441056D01*
X120325000Y-94606556D01*
X122939500Y-94606556D01*
X122939500Y-94744444D01*
X122966401Y-94879682D01*
X123019168Y-95007074D01*
X123095774Y-95121724D01*
X123193276Y-95219226D01*
X123307926Y-95295832D01*
X123435318Y-95348599D01*
X123570556Y-95375500D01*
X123708444Y-95375500D01*
X123843682Y-95348599D01*
X123971074Y-95295832D01*
X124085724Y-95219226D01*
X124115000Y-95189950D01*
X124144276Y-95219226D01*
X124258926Y-95295832D01*
X124386318Y-95348599D01*
X124521556Y-95375500D01*
X124659444Y-95375500D01*
X124794682Y-95348599D01*
X124922074Y-95295832D01*
X125036724Y-95219226D01*
X125134226Y-95121724D01*
X125210832Y-95007074D01*
X125263599Y-94879682D01*
X125290500Y-94744444D01*
X125290500Y-94606556D01*
X125263599Y-94471318D01*
X125210832Y-94343926D01*
X125134226Y-94229276D01*
X125036724Y-94131774D01*
X124922074Y-94055168D01*
X124794682Y-94002401D01*
X124659444Y-93975500D01*
X124521556Y-93975500D01*
X124386318Y-94002401D01*
X124258926Y-94055168D01*
X124144276Y-94131774D01*
X124115000Y-94161050D01*
X124085724Y-94131774D01*
X123971074Y-94055168D01*
X123843682Y-94002401D01*
X123708444Y-93975500D01*
X123570556Y-93975500D01*
X123435318Y-94002401D01*
X123307926Y-94055168D01*
X123193276Y-94131774D01*
X123095774Y-94229276D01*
X123019168Y-94343926D01*
X122966401Y-94471318D01*
X122939500Y-94606556D01*
X120325000Y-94606556D01*
X120325000Y-93891659D01*
X125890000Y-93891659D01*
X125890000Y-94108341D01*
X125932273Y-94320858D01*
X126015193Y-94521045D01*
X126135575Y-94701209D01*
X126288791Y-94854425D01*
X126468955Y-94974807D01*
X126529776Y-95000000D01*
X126468955Y-95025193D01*
X126288791Y-95145575D01*
X126135575Y-95298791D01*
X126015193Y-95478955D01*
X125932273Y-95679142D01*
X125890000Y-95891659D01*
X125890000Y-96108341D01*
X125932273Y-96320858D01*
X126015193Y-96521045D01*
X126135575Y-96701209D01*
X126288791Y-96854425D01*
X126468955Y-96974807D01*
X126669142Y-97057727D01*
X126881659Y-97100000D01*
X127098341Y-97100000D01*
X127310858Y-97057727D01*
X127511045Y-96974807D01*
X127691209Y-96854425D01*
X127828729Y-96716905D01*
X156809000Y-96716905D01*
X156809000Y-96835095D01*
X156832058Y-96951014D01*
X156877287Y-97060207D01*
X156942950Y-97158478D01*
X157026522Y-97242050D01*
X157124793Y-97307713D01*
X157233986Y-97352942D01*
X157349905Y-97376000D01*
X157468095Y-97376000D01*
X157584014Y-97352942D01*
X157693207Y-97307713D01*
X157791478Y-97242050D01*
X157875050Y-97158478D01*
X157940713Y-97060207D01*
X157985942Y-96951014D01*
X158009000Y-96835095D01*
X158009000Y-96716905D01*
X157985942Y-96600986D01*
X157940713Y-96491793D01*
X157875050Y-96393522D01*
X157791478Y-96309950D01*
X157693207Y-96244287D01*
X157584014Y-96199058D01*
X157468095Y-96176000D01*
X157349905Y-96176000D01*
X157233986Y-96199058D01*
X157124793Y-96244287D01*
X157026522Y-96309950D01*
X156942950Y-96393522D01*
X156877287Y-96491793D01*
X156832058Y-96600986D01*
X156809000Y-96716905D01*
X127828729Y-96716905D01*
X127844425Y-96701209D01*
X127964807Y-96521045D01*
X128047727Y-96320858D01*
X128090000Y-96108341D01*
X128090000Y-95891659D01*
X128047727Y-95679142D01*
X127964807Y-95478955D01*
X127844425Y-95298791D01*
X127691209Y-95145575D01*
X127511045Y-95025193D01*
X127450224Y-95000000D01*
X127511045Y-94974807D01*
X127691209Y-94854425D01*
X127844425Y-94701209D01*
X127964807Y-94521045D01*
X128047727Y-94320858D01*
X128053356Y-94292556D01*
X136951000Y-94292556D01*
X136951000Y-94430444D01*
X136977901Y-94565682D01*
X137030668Y-94693074D01*
X137107274Y-94807724D01*
X137204776Y-94905226D01*
X137319426Y-94981832D01*
X137446818Y-95034599D01*
X137582056Y-95061500D01*
X137719944Y-95061500D01*
X137855182Y-95034599D01*
X137982574Y-94981832D01*
X138097224Y-94905226D01*
X138194726Y-94807724D01*
X138271332Y-94693074D01*
X138324099Y-94565682D01*
X138351000Y-94430444D01*
X138351000Y-94292556D01*
X138324099Y-94157318D01*
X138317305Y-94140915D01*
X139553000Y-94140915D01*
X139553000Y-94259105D01*
X139576058Y-94375024D01*
X139621287Y-94484217D01*
X139686950Y-94582488D01*
X139770522Y-94666060D01*
X139835316Y-94709355D01*
X139806058Y-94779991D01*
X139783000Y-94895910D01*
X139783000Y-95014100D01*
X139806058Y-95130019D01*
X139851287Y-95239212D01*
X139916950Y-95337483D01*
X140000522Y-95421055D01*
X140098793Y-95486718D01*
X140207986Y-95531947D01*
X140323905Y-95555005D01*
X140442095Y-95555005D01*
X140558014Y-95531947D01*
X140667207Y-95486718D01*
X140765478Y-95421055D01*
X140849050Y-95337483D01*
X140914713Y-95239212D01*
X140959942Y-95130019D01*
X140983000Y-95014100D01*
X140983000Y-94895910D01*
X140962113Y-94790905D01*
X148670010Y-94790905D01*
X148670010Y-94909095D01*
X148693068Y-95025014D01*
X148738297Y-95134207D01*
X148803960Y-95232478D01*
X148887532Y-95316050D01*
X148985803Y-95381713D01*
X149094996Y-95426942D01*
X149210915Y-95450000D01*
X149263825Y-95450000D01*
X149166322Y-95515150D01*
X149082750Y-95598722D01*
X149017087Y-95696993D01*
X148971858Y-95806186D01*
X148948800Y-95922105D01*
X148948800Y-96040295D01*
X148971858Y-96156214D01*
X149017087Y-96265407D01*
X149082750Y-96363678D01*
X149166322Y-96447250D01*
X149264593Y-96512913D01*
X149373786Y-96558142D01*
X149489705Y-96581200D01*
X149607895Y-96581200D01*
X149723814Y-96558142D01*
X149833007Y-96512913D01*
X149931278Y-96447250D01*
X150014850Y-96363678D01*
X150080513Y-96265407D01*
X150125742Y-96156214D01*
X150129616Y-96136735D01*
X159860000Y-96136735D01*
X159860000Y-96363265D01*
X159904194Y-96585443D01*
X159990884Y-96794729D01*
X160116737Y-96983082D01*
X160276918Y-97143263D01*
X160465271Y-97269116D01*
X160674557Y-97355806D01*
X160896735Y-97400000D01*
X161123265Y-97400000D01*
X161345443Y-97355806D01*
X161554729Y-97269116D01*
X161743082Y-97143263D01*
X161903263Y-96983082D01*
X162010000Y-96823338D01*
X162116737Y-96983082D01*
X162276918Y-97143263D01*
X162465271Y-97269116D01*
X162674557Y-97355806D01*
X162896735Y-97400000D01*
X163123265Y-97400000D01*
X163345443Y-97355806D01*
X163554729Y-97269116D01*
X163743082Y-97143263D01*
X163903263Y-96983082D01*
X164029116Y-96794729D01*
X164115806Y-96585443D01*
X164160000Y-96363265D01*
X164160000Y-96136735D01*
X164115806Y-95914557D01*
X164029116Y-95705271D01*
X163903263Y-95516918D01*
X163743082Y-95356737D01*
X163554729Y-95230884D01*
X163345443Y-95144194D01*
X163123265Y-95100000D01*
X162896735Y-95100000D01*
X162674557Y-95144194D01*
X162465271Y-95230884D01*
X162276918Y-95356737D01*
X162116737Y-95516918D01*
X162010000Y-95676662D01*
X161903263Y-95516918D01*
X161743082Y-95356737D01*
X161554729Y-95230884D01*
X161345443Y-95144194D01*
X161123265Y-95100000D01*
X160896735Y-95100000D01*
X160674557Y-95144194D01*
X160465271Y-95230884D01*
X160276918Y-95356737D01*
X160116737Y-95516918D01*
X159990884Y-95705271D01*
X159904194Y-95914557D01*
X159860000Y-96136735D01*
X150129616Y-96136735D01*
X150148800Y-96040295D01*
X150148800Y-95922105D01*
X150125742Y-95806186D01*
X150080513Y-95696993D01*
X150014850Y-95598722D01*
X149931278Y-95515150D01*
X149833007Y-95449487D01*
X149723814Y-95404258D01*
X149607895Y-95381200D01*
X149554985Y-95381200D01*
X149652488Y-95316050D01*
X149736060Y-95232478D01*
X149801723Y-95134207D01*
X149846952Y-95025014D01*
X149870010Y-94909095D01*
X149870010Y-94790905D01*
X149846952Y-94674986D01*
X149801723Y-94565793D01*
X149736060Y-94467522D01*
X149652488Y-94383950D01*
X149554217Y-94318287D01*
X149445024Y-94273058D01*
X149329105Y-94250000D01*
X149210915Y-94250000D01*
X149094996Y-94273058D01*
X148985803Y-94318287D01*
X148887532Y-94383950D01*
X148803960Y-94467522D01*
X148738297Y-94565793D01*
X148693068Y-94674986D01*
X148670010Y-94790905D01*
X140962113Y-94790905D01*
X140959942Y-94779991D01*
X140914713Y-94670798D01*
X140849050Y-94572527D01*
X140765478Y-94488955D01*
X140700684Y-94445660D01*
X140729942Y-94375024D01*
X140753000Y-94259105D01*
X140753000Y-94140915D01*
X140729942Y-94024996D01*
X140684713Y-93915803D01*
X140619050Y-93817532D01*
X140535478Y-93733960D01*
X140437207Y-93668297D01*
X140328014Y-93623068D01*
X140212095Y-93600010D01*
X140093905Y-93600010D01*
X139977986Y-93623068D01*
X139868793Y-93668297D01*
X139770522Y-93733960D01*
X139686950Y-93817532D01*
X139621287Y-93915803D01*
X139576058Y-94024996D01*
X139553000Y-94140915D01*
X138317305Y-94140915D01*
X138271332Y-94029926D01*
X138194726Y-93915276D01*
X138097224Y-93817774D01*
X137982574Y-93741168D01*
X137855182Y-93688401D01*
X137719944Y-93661500D01*
X137582056Y-93661500D01*
X137446818Y-93688401D01*
X137319426Y-93741168D01*
X137204776Y-93817774D01*
X137107274Y-93915276D01*
X137030668Y-94029926D01*
X136977901Y-94157318D01*
X136951000Y-94292556D01*
X128053356Y-94292556D01*
X128090000Y-94108341D01*
X128090000Y-93891659D01*
X128047727Y-93679142D01*
X127964807Y-93478955D01*
X127844425Y-93298791D01*
X127691209Y-93145575D01*
X127511045Y-93025193D01*
X127310858Y-92942273D01*
X127098341Y-92900000D01*
X159858549Y-92900000D01*
X159858549Y-94600000D01*
X159864341Y-94658810D01*
X159881496Y-94715360D01*
X159909353Y-94767477D01*
X159946842Y-94813158D01*
X159992523Y-94850647D01*
X160044640Y-94878504D01*
X160101190Y-94895659D01*
X160160000Y-94901451D01*
X161860000Y-94901451D01*
X161918810Y-94895659D01*
X161975360Y-94878504D01*
X162027477Y-94850647D01*
X162073158Y-94813158D01*
X162110647Y-94767477D01*
X162138504Y-94715360D01*
X162155659Y-94658810D01*
X162161451Y-94600000D01*
X162161451Y-92900000D01*
X162155659Y-92841190D01*
X162138504Y-92784640D01*
X162110647Y-92732523D01*
X162073158Y-92686842D01*
X162027477Y-92649353D01*
X161975360Y-92621496D01*
X161918810Y-92604341D01*
X161860000Y-92598549D01*
X160160000Y-92598549D01*
X160101190Y-92604341D01*
X160044640Y-92621496D01*
X159992523Y-92649353D01*
X159946842Y-92686842D01*
X159909353Y-92732523D01*
X159881496Y-92784640D01*
X159864341Y-92841190D01*
X159858549Y-92900000D01*
X127098341Y-92900000D01*
X126881659Y-92900000D01*
X126669142Y-92942273D01*
X126468955Y-93025193D01*
X126288791Y-93145575D01*
X126135575Y-93298791D01*
X126015193Y-93478955D01*
X125932273Y-93679142D01*
X125890000Y-93891659D01*
X120325000Y-93891659D01*
X120325000Y-90700000D01*
X125888549Y-90700000D01*
X125888549Y-92300000D01*
X125894341Y-92358810D01*
X125911496Y-92415360D01*
X125939353Y-92467477D01*
X125976842Y-92513158D01*
X126022523Y-92550647D01*
X126074640Y-92578504D01*
X126131190Y-92595659D01*
X126190000Y-92601451D01*
X127790000Y-92601451D01*
X127848810Y-92595659D01*
X127905360Y-92578504D01*
X127957477Y-92550647D01*
X128003158Y-92513158D01*
X128040647Y-92467477D01*
X128068504Y-92415360D01*
X128085659Y-92358810D01*
X128091451Y-92300000D01*
X128091451Y-91905556D01*
X150902000Y-91905556D01*
X150902000Y-92043444D01*
X150928901Y-92178682D01*
X150981668Y-92306074D01*
X151058274Y-92420724D01*
X151155776Y-92518226D01*
X151270426Y-92594832D01*
X151397818Y-92647599D01*
X151533056Y-92674500D01*
X151670944Y-92674500D01*
X151806182Y-92647599D01*
X151933574Y-92594832D01*
X152048224Y-92518226D01*
X152145726Y-92420724D01*
X152222332Y-92306074D01*
X152275099Y-92178682D01*
X152302000Y-92043444D01*
X152302000Y-91905556D01*
X152275099Y-91770318D01*
X152222332Y-91642926D01*
X152145726Y-91528276D01*
X152048224Y-91430774D01*
X151933574Y-91354168D01*
X151806182Y-91301401D01*
X151670944Y-91274500D01*
X151533056Y-91274500D01*
X151397818Y-91301401D01*
X151270426Y-91354168D01*
X151155776Y-91430774D01*
X151058274Y-91528276D01*
X150981668Y-91642926D01*
X150928901Y-91770318D01*
X150902000Y-91905556D01*
X128091451Y-91905556D01*
X128091451Y-90700000D01*
X128085659Y-90641190D01*
X128068504Y-90584640D01*
X128040647Y-90532523D01*
X128003158Y-90486842D01*
X127957477Y-90449353D01*
X127905360Y-90421496D01*
X127848810Y-90404341D01*
X127790000Y-90398549D01*
X126190000Y-90398549D01*
X126131190Y-90404341D01*
X126074640Y-90421496D01*
X126022523Y-90449353D01*
X125976842Y-90486842D01*
X125939353Y-90532523D01*
X125911496Y-90584640D01*
X125894341Y-90641190D01*
X125888549Y-90700000D01*
X120325000Y-90700000D01*
X120325000Y-90397905D01*
X141019632Y-90397905D01*
X141019632Y-90516095D01*
X141042690Y-90632014D01*
X141087919Y-90741207D01*
X141153582Y-90839478D01*
X141237154Y-90923050D01*
X141335425Y-90988713D01*
X141444618Y-91033942D01*
X141560537Y-91057000D01*
X141678727Y-91057000D01*
X141794646Y-91033942D01*
X141903839Y-90988713D01*
X142002110Y-90923050D01*
X142046816Y-90878344D01*
X142091522Y-90923050D01*
X142189793Y-90988713D01*
X142298986Y-91033942D01*
X142414905Y-91057000D01*
X142533095Y-91057000D01*
X142649014Y-91033942D01*
X142758207Y-90988713D01*
X142856478Y-90923050D01*
X142940050Y-90839478D01*
X143005713Y-90741207D01*
X143050942Y-90632014D01*
X143074000Y-90516095D01*
X143074000Y-90397905D01*
X143926000Y-90397905D01*
X143926000Y-90516095D01*
X143949058Y-90632014D01*
X143994287Y-90741207D01*
X144059950Y-90839478D01*
X144143522Y-90923050D01*
X144241793Y-90988713D01*
X144350986Y-91033942D01*
X144466905Y-91057000D01*
X144585095Y-91057000D01*
X144701014Y-91033942D01*
X144810207Y-90988713D01*
X144908478Y-90923050D01*
X144933101Y-90898427D01*
X144934409Y-90905004D01*
X144979638Y-91014197D01*
X145045301Y-91112468D01*
X145128873Y-91196040D01*
X145227144Y-91261703D01*
X145336337Y-91306932D01*
X145452256Y-91329990D01*
X145570446Y-91329990D01*
X145686365Y-91306932D01*
X145795558Y-91261703D01*
X145893829Y-91196040D01*
X145977401Y-91112468D01*
X146043064Y-91014197D01*
X146088293Y-90905004D01*
X146111351Y-90789085D01*
X146111351Y-90670895D01*
X146108456Y-90656339D01*
X146205182Y-90637099D01*
X146332574Y-90584332D01*
X146447224Y-90507726D01*
X146544726Y-90410224D01*
X146621332Y-90295574D01*
X146674099Y-90168182D01*
X146701000Y-90032944D01*
X146701000Y-89895056D01*
X146674099Y-89759818D01*
X146625673Y-89642905D01*
X147531430Y-89642905D01*
X147531430Y-89761095D01*
X147554488Y-89877014D01*
X147599717Y-89986207D01*
X147665380Y-90084478D01*
X147748952Y-90168050D01*
X147847223Y-90233713D01*
X147956416Y-90278942D01*
X148072335Y-90302000D01*
X148190525Y-90302000D01*
X148306444Y-90278942D01*
X148415637Y-90233713D01*
X148513908Y-90168050D01*
X148597480Y-90084478D01*
X148663143Y-89986207D01*
X148676253Y-89954556D01*
X150902000Y-89954556D01*
X150902000Y-90092444D01*
X150928901Y-90227682D01*
X150981668Y-90355074D01*
X151058274Y-90469724D01*
X151155776Y-90567226D01*
X151270426Y-90643832D01*
X151397818Y-90696599D01*
X151533056Y-90723500D01*
X151670944Y-90723500D01*
X151806182Y-90696599D01*
X151933574Y-90643832D01*
X152048224Y-90567226D01*
X152145726Y-90469724D01*
X152222332Y-90355074D01*
X152275099Y-90227682D01*
X152302000Y-90092444D01*
X152302000Y-89954556D01*
X152275099Y-89819318D01*
X152222332Y-89691926D01*
X152145726Y-89577276D01*
X152048224Y-89479774D01*
X151933574Y-89403168D01*
X151806182Y-89350401D01*
X151670944Y-89323500D01*
X151533056Y-89323500D01*
X151397818Y-89350401D01*
X151270426Y-89403168D01*
X151155776Y-89479774D01*
X151058274Y-89577276D01*
X150981668Y-89691926D01*
X150928901Y-89819318D01*
X150902000Y-89954556D01*
X148676253Y-89954556D01*
X148708372Y-89877014D01*
X148731430Y-89761095D01*
X148731430Y-89642905D01*
X148708372Y-89526986D01*
X148663143Y-89417793D01*
X148597480Y-89319522D01*
X148513908Y-89235950D01*
X148415637Y-89170287D01*
X148306444Y-89125058D01*
X148190525Y-89102000D01*
X148072335Y-89102000D01*
X147956416Y-89125058D01*
X147847223Y-89170287D01*
X147748952Y-89235950D01*
X147665380Y-89319522D01*
X147599717Y-89417793D01*
X147554488Y-89526986D01*
X147531430Y-89642905D01*
X146625673Y-89642905D01*
X146621332Y-89632426D01*
X146544726Y-89517776D01*
X146447224Y-89420274D01*
X146332574Y-89343668D01*
X146205182Y-89290901D01*
X146069944Y-89264000D01*
X145932056Y-89264000D01*
X145796818Y-89290901D01*
X145669426Y-89343668D01*
X145554776Y-89420274D01*
X145457274Y-89517776D01*
X145380668Y-89632426D01*
X145327901Y-89759818D01*
X145301000Y-89895056D01*
X145301000Y-90032944D01*
X145325762Y-90157428D01*
X145227144Y-90198277D01*
X145128873Y-90263940D01*
X145104250Y-90288563D01*
X145102942Y-90281986D01*
X145057713Y-90172793D01*
X144992050Y-90074522D01*
X144908478Y-89990950D01*
X144810207Y-89925287D01*
X144701014Y-89880058D01*
X144585095Y-89857000D01*
X144466905Y-89857000D01*
X144350986Y-89880058D01*
X144241793Y-89925287D01*
X144143522Y-89990950D01*
X144059950Y-90074522D01*
X143994287Y-90172793D01*
X143949058Y-90281986D01*
X143926000Y-90397905D01*
X143074000Y-90397905D01*
X143050942Y-90281986D01*
X143005713Y-90172793D01*
X142940050Y-90074522D01*
X142856478Y-89990950D01*
X142758207Y-89925287D01*
X142649014Y-89880058D01*
X142533095Y-89857000D01*
X142414905Y-89857000D01*
X142298986Y-89880058D01*
X142189793Y-89925287D01*
X142091522Y-89990950D01*
X142046816Y-90035656D01*
X142002110Y-89990950D01*
X141903839Y-89925287D01*
X141794646Y-89880058D01*
X141678727Y-89857000D01*
X141560537Y-89857000D01*
X141444618Y-89880058D01*
X141335425Y-89925287D01*
X141237154Y-89990950D01*
X141153582Y-90074522D01*
X141087919Y-90172793D01*
X141042690Y-90281986D01*
X141019632Y-90397905D01*
X120325000Y-90397905D01*
X120325000Y-89501721D01*
X136249430Y-89501721D01*
X136249430Y-89639609D01*
X136276331Y-89774847D01*
X136329098Y-89902239D01*
X136405704Y-90016889D01*
X136503206Y-90114391D01*
X136617856Y-90190997D01*
X136745248Y-90243764D01*
X136880486Y-90270665D01*
X137018374Y-90270665D01*
X137153612Y-90243764D01*
X137281004Y-90190997D01*
X137395654Y-90114391D01*
X137493156Y-90016889D01*
X137569762Y-89902239D01*
X137622529Y-89774847D01*
X137649430Y-89639609D01*
X137649430Y-89501721D01*
X137622529Y-89366483D01*
X137569762Y-89239091D01*
X137493156Y-89124441D01*
X137395654Y-89026939D01*
X137281004Y-88950333D01*
X137153612Y-88897566D01*
X137018374Y-88870665D01*
X136880486Y-88870665D01*
X136745248Y-88897566D01*
X136617856Y-88950333D01*
X136503206Y-89026939D01*
X136405704Y-89124441D01*
X136329098Y-89239091D01*
X136276331Y-89366483D01*
X136249430Y-89501721D01*
X120325000Y-89501721D01*
X120325000Y-87322716D01*
X122480000Y-87322716D01*
X122480000Y-87677284D01*
X122549173Y-88025041D01*
X122684861Y-88352620D01*
X122881849Y-88647433D01*
X123132567Y-88898151D01*
X123427380Y-89095139D01*
X123754959Y-89230827D01*
X124102716Y-89300000D01*
X124457284Y-89300000D01*
X124805041Y-89230827D01*
X125132620Y-89095139D01*
X125427433Y-88898151D01*
X125678151Y-88647433D01*
X125875139Y-88352620D01*
X125881027Y-88338405D01*
X140949250Y-88338405D01*
X140949250Y-88456595D01*
X140972308Y-88572514D01*
X141017537Y-88681707D01*
X141083200Y-88779978D01*
X141166772Y-88863550D01*
X141265043Y-88929213D01*
X141374236Y-88974442D01*
X141490155Y-88997500D01*
X141608345Y-88997500D01*
X141724264Y-88974442D01*
X141833457Y-88929213D01*
X141931728Y-88863550D01*
X142015300Y-88779978D01*
X142016559Y-88778093D01*
X163670000Y-88778093D01*
X163670000Y-89181907D01*
X163748780Y-89577963D01*
X163903314Y-89951039D01*
X164127661Y-90286799D01*
X164413201Y-90572339D01*
X164748961Y-90796686D01*
X165122037Y-90951220D01*
X165518093Y-91030000D01*
X165921907Y-91030000D01*
X166317963Y-90951220D01*
X166691039Y-90796686D01*
X167026799Y-90572339D01*
X167312339Y-90286799D01*
X167536686Y-89951039D01*
X167691220Y-89577963D01*
X167770000Y-89181907D01*
X167770000Y-88778093D01*
X167691220Y-88382037D01*
X167536686Y-88008961D01*
X167312339Y-87673201D01*
X167026799Y-87387661D01*
X166691039Y-87163314D01*
X166317963Y-87008780D01*
X165921907Y-86930000D01*
X165518093Y-86930000D01*
X165122037Y-87008780D01*
X164748961Y-87163314D01*
X164413201Y-87387661D01*
X164127661Y-87673201D01*
X163903314Y-88008961D01*
X163748780Y-88382037D01*
X163670000Y-88778093D01*
X142016559Y-88778093D01*
X142080963Y-88681707D01*
X142126192Y-88572514D01*
X142149250Y-88456595D01*
X142149250Y-88338405D01*
X142126192Y-88222486D01*
X142080963Y-88113293D01*
X142015300Y-88015022D01*
X141931728Y-87931450D01*
X141833457Y-87865787D01*
X141724264Y-87820558D01*
X141608345Y-87797500D01*
X141490155Y-87797500D01*
X141374236Y-87820558D01*
X141265043Y-87865787D01*
X141166772Y-87931450D01*
X141083200Y-88015022D01*
X141017537Y-88113293D01*
X140972308Y-88222486D01*
X140949250Y-88338405D01*
X125881027Y-88338405D01*
X126010827Y-88025041D01*
X126080000Y-87677284D01*
X126080000Y-87322716D01*
X126010827Y-86974959D01*
X125875139Y-86647380D01*
X125678151Y-86352567D01*
X125427433Y-86101849D01*
X125132620Y-85904861D01*
X124805041Y-85769173D01*
X124457284Y-85700000D01*
X124102716Y-85700000D01*
X123754959Y-85769173D01*
X123427380Y-85904861D01*
X123132567Y-86101849D01*
X122881849Y-86352567D01*
X122684861Y-86647380D01*
X122549173Y-86974959D01*
X122480000Y-87322716D01*
X120325000Y-87322716D01*
X120325000Y-85292810D01*
X134300000Y-85292810D01*
X134300000Y-85529190D01*
X134346116Y-85761027D01*
X134436574Y-85979413D01*
X134567899Y-86175955D01*
X134735045Y-86343101D01*
X134931587Y-86474426D01*
X135149973Y-86564884D01*
X135381810Y-86611000D01*
X135618190Y-86611000D01*
X135850027Y-86564884D01*
X136068413Y-86474426D01*
X136264955Y-86343101D01*
X136432101Y-86175955D01*
X136467446Y-86123056D01*
X144931428Y-86123056D01*
X144931428Y-86260944D01*
X144958329Y-86396182D01*
X145011096Y-86523574D01*
X145087702Y-86638224D01*
X145185204Y-86735726D01*
X145299854Y-86812332D01*
X145427246Y-86865099D01*
X145562484Y-86892000D01*
X145700372Y-86892000D01*
X145835610Y-86865099D01*
X145963002Y-86812332D01*
X146077652Y-86735726D01*
X146175154Y-86638224D01*
X146251760Y-86523574D01*
X146304527Y-86396182D01*
X146331428Y-86260944D01*
X146331428Y-86123056D01*
X149839500Y-86123056D01*
X149839500Y-86260944D01*
X149866401Y-86396182D01*
X149919168Y-86523574D01*
X149995774Y-86638224D01*
X150093276Y-86735726D01*
X150207926Y-86812332D01*
X150335318Y-86865099D01*
X150470556Y-86892000D01*
X150608444Y-86892000D01*
X150743682Y-86865099D01*
X150871074Y-86812332D01*
X150985724Y-86735726D01*
X151083226Y-86638224D01*
X151159832Y-86523574D01*
X151212599Y-86396182D01*
X151239500Y-86260944D01*
X151239500Y-86123056D01*
X151212599Y-85987818D01*
X151159832Y-85860426D01*
X151083226Y-85745776D01*
X150985724Y-85648274D01*
X150871074Y-85571668D01*
X150743682Y-85518901D01*
X150608444Y-85492000D01*
X150470556Y-85492000D01*
X150335318Y-85518901D01*
X150207926Y-85571668D01*
X150093276Y-85648274D01*
X149995774Y-85745776D01*
X149919168Y-85860426D01*
X149866401Y-85987818D01*
X149839500Y-86123056D01*
X146331428Y-86123056D01*
X146304527Y-85987818D01*
X146251760Y-85860426D01*
X146175154Y-85745776D01*
X146077652Y-85648274D01*
X145963002Y-85571668D01*
X145835610Y-85518901D01*
X145700372Y-85492000D01*
X145562484Y-85492000D01*
X145427246Y-85518901D01*
X145299854Y-85571668D01*
X145185204Y-85648274D01*
X145087702Y-85745776D01*
X145011096Y-85860426D01*
X144958329Y-85987818D01*
X144931428Y-86123056D01*
X136467446Y-86123056D01*
X136563426Y-85979413D01*
X136653884Y-85761027D01*
X136700000Y-85529190D01*
X136700000Y-85317433D01*
X155550000Y-85317433D01*
X155550000Y-85504567D01*
X155586508Y-85688105D01*
X155658121Y-85860994D01*
X155762087Y-86016590D01*
X155894410Y-86148913D01*
X156050006Y-86252879D01*
X156222895Y-86324492D01*
X156406433Y-86361000D01*
X156593567Y-86361000D01*
X156777105Y-86324492D01*
X156949994Y-86252879D01*
X157105590Y-86148913D01*
X157237913Y-86016590D01*
X157341879Y-85860994D01*
X157413492Y-85688105D01*
X157450000Y-85504567D01*
X157450000Y-85317433D01*
X157413492Y-85133895D01*
X157341879Y-84961006D01*
X157237913Y-84805410D01*
X157105590Y-84673087D01*
X156949994Y-84569121D01*
X156777105Y-84497508D01*
X156593567Y-84461000D01*
X156406433Y-84461000D01*
X156222895Y-84497508D01*
X156050006Y-84569121D01*
X155894410Y-84673087D01*
X155762087Y-84805410D01*
X155658121Y-84961006D01*
X155586508Y-85133895D01*
X155550000Y-85317433D01*
X136700000Y-85317433D01*
X136700000Y-85292810D01*
X136653884Y-85060973D01*
X136563426Y-84842587D01*
X136432101Y-84646045D01*
X136264955Y-84478899D01*
X136068413Y-84347574D01*
X135850027Y-84257116D01*
X135618190Y-84211000D01*
X135381810Y-84211000D01*
X135149973Y-84257116D01*
X134931587Y-84347574D01*
X134735045Y-84478899D01*
X134567899Y-84646045D01*
X134436574Y-84842587D01*
X134346116Y-85060973D01*
X134300000Y-85292810D01*
X120325000Y-85292810D01*
X120325000Y-84070000D01*
X126880436Y-84070000D01*
X126902640Y-84295439D01*
X126968398Y-84512215D01*
X127075184Y-84711997D01*
X127218893Y-84887107D01*
X127394003Y-85030816D01*
X127593785Y-85137602D01*
X127810561Y-85203360D01*
X127979508Y-85220000D01*
X128092492Y-85220000D01*
X128261439Y-85203360D01*
X128478215Y-85137602D01*
X128677997Y-85030816D01*
X128853107Y-84887107D01*
X128996816Y-84711997D01*
X129103602Y-84512215D01*
X129169360Y-84295439D01*
X129191564Y-84070000D01*
X129169360Y-83844561D01*
X129103602Y-83627785D01*
X128996816Y-83428003D01*
X128853107Y-83252893D01*
X128677997Y-83109184D01*
X128478215Y-83002398D01*
X128261439Y-82936640D01*
X128092492Y-82920000D01*
X127979508Y-82920000D01*
X127810561Y-82936640D01*
X127593785Y-83002398D01*
X127394003Y-83109184D01*
X127218893Y-83252893D01*
X127075184Y-83428003D01*
X126968398Y-83627785D01*
X126902640Y-83844561D01*
X126880436Y-84070000D01*
X120325000Y-84070000D01*
X120325000Y-81530000D01*
X126880436Y-81530000D01*
X126902640Y-81755439D01*
X126968398Y-81972215D01*
X127075184Y-82171997D01*
X127218893Y-82347107D01*
X127394003Y-82490816D01*
X127593785Y-82597602D01*
X127810561Y-82663360D01*
X127979508Y-82680000D01*
X128092492Y-82680000D01*
X128261439Y-82663360D01*
X128478215Y-82597602D01*
X128677997Y-82490816D01*
X128853107Y-82347107D01*
X128973091Y-82200905D01*
X157468000Y-82200905D01*
X157468000Y-82319095D01*
X157491058Y-82435014D01*
X157536287Y-82544207D01*
X157601950Y-82642478D01*
X157685522Y-82726050D01*
X157783793Y-82791713D01*
X157892986Y-82836942D01*
X158008905Y-82860000D01*
X158127095Y-82860000D01*
X158243014Y-82836942D01*
X158352207Y-82791713D01*
X158450478Y-82726050D01*
X158534050Y-82642478D01*
X158599713Y-82544207D01*
X158644942Y-82435014D01*
X158668000Y-82319095D01*
X158668000Y-82260000D01*
X162264436Y-82260000D01*
X162286640Y-82485439D01*
X162352398Y-82702215D01*
X162459184Y-82901997D01*
X162602893Y-83077107D01*
X162778003Y-83220816D01*
X162977785Y-83327602D01*
X163194561Y-83393360D01*
X163363508Y-83410000D01*
X163476492Y-83410000D01*
X163645439Y-83393360D01*
X163862215Y-83327602D01*
X164061997Y-83220816D01*
X164237107Y-83077107D01*
X164380816Y-82901997D01*
X164487602Y-82702215D01*
X164553360Y-82485439D01*
X164575564Y-82260000D01*
X164553360Y-82034561D01*
X164487602Y-81817785D01*
X164380816Y-81618003D01*
X164237107Y-81442893D01*
X164061997Y-81299184D01*
X163862215Y-81192398D01*
X163645439Y-81126640D01*
X163476492Y-81110000D01*
X163363508Y-81110000D01*
X163194561Y-81126640D01*
X162977785Y-81192398D01*
X162778003Y-81299184D01*
X162602893Y-81442893D01*
X162459184Y-81618003D01*
X162352398Y-81817785D01*
X162286640Y-82034561D01*
X162264436Y-82260000D01*
X158668000Y-82260000D01*
X158668000Y-82200905D01*
X158644942Y-82084986D01*
X158599713Y-81975793D01*
X158534050Y-81877522D01*
X158450478Y-81793950D01*
X158352207Y-81728287D01*
X158243014Y-81683058D01*
X158127095Y-81660000D01*
X158008905Y-81660000D01*
X157892986Y-81683058D01*
X157783793Y-81728287D01*
X157685522Y-81793950D01*
X157601950Y-81877522D01*
X157536287Y-81975793D01*
X157491058Y-82084986D01*
X157468000Y-82200905D01*
X128973091Y-82200905D01*
X128996816Y-82171997D01*
X129103602Y-81972215D01*
X129169360Y-81755439D01*
X129191564Y-81530000D01*
X129185744Y-81470905D01*
X132108000Y-81470905D01*
X132108000Y-81589095D01*
X132131058Y-81705014D01*
X132176287Y-81814207D01*
X132241950Y-81912478D01*
X132325522Y-81996050D01*
X132423793Y-82061713D01*
X132532986Y-82106942D01*
X132648905Y-82130000D01*
X132767095Y-82130000D01*
X132883014Y-82106942D01*
X132992207Y-82061713D01*
X133090478Y-81996050D01*
X133174050Y-81912478D01*
X133239713Y-81814207D01*
X133284942Y-81705014D01*
X133308000Y-81589095D01*
X133308000Y-81470905D01*
X133284942Y-81354986D01*
X133239713Y-81245793D01*
X133174050Y-81147522D01*
X133090478Y-81063950D01*
X132992207Y-80998287D01*
X132883014Y-80953058D01*
X132767095Y-80930000D01*
X132648905Y-80930000D01*
X132532986Y-80953058D01*
X132423793Y-80998287D01*
X132325522Y-81063950D01*
X132241950Y-81147522D01*
X132176287Y-81245793D01*
X132131058Y-81354986D01*
X132108000Y-81470905D01*
X129185744Y-81470905D01*
X129169360Y-81304561D01*
X129103602Y-81087785D01*
X128996816Y-80888003D01*
X128853107Y-80712893D01*
X128677997Y-80569184D01*
X128478215Y-80462398D01*
X128261439Y-80396640D01*
X128092492Y-80380000D01*
X127979508Y-80380000D01*
X127810561Y-80396640D01*
X127593785Y-80462398D01*
X127394003Y-80569184D01*
X127218893Y-80712893D01*
X127075184Y-80888003D01*
X126968398Y-81087785D01*
X126902640Y-81304561D01*
X126880436Y-81530000D01*
X120325000Y-81530000D01*
X120325000Y-78990000D01*
X126880436Y-78990000D01*
X126902640Y-79215439D01*
X126968398Y-79432215D01*
X127075184Y-79631997D01*
X127218893Y-79807107D01*
X127394003Y-79950816D01*
X127593785Y-80057602D01*
X127810561Y-80123360D01*
X127979508Y-80140000D01*
X128092492Y-80140000D01*
X128261439Y-80123360D01*
X128478215Y-80057602D01*
X128677997Y-79950816D01*
X128853107Y-79807107D01*
X128973091Y-79660905D01*
X157468000Y-79660905D01*
X157468000Y-79779095D01*
X157491058Y-79895014D01*
X157536287Y-80004207D01*
X157601950Y-80102478D01*
X157685522Y-80186050D01*
X157783793Y-80251713D01*
X157892986Y-80296942D01*
X158008905Y-80320000D01*
X158127095Y-80320000D01*
X158243014Y-80296942D01*
X158352207Y-80251713D01*
X158450478Y-80186050D01*
X158534050Y-80102478D01*
X158599713Y-80004207D01*
X158644942Y-79895014D01*
X158668000Y-79779095D01*
X158668000Y-79660905D01*
X158644942Y-79544986D01*
X158599713Y-79435793D01*
X158534050Y-79337522D01*
X158450478Y-79253950D01*
X158352207Y-79188287D01*
X158243014Y-79143058D01*
X158127095Y-79120000D01*
X158008905Y-79120000D01*
X157892986Y-79143058D01*
X157783793Y-79188287D01*
X157685522Y-79253950D01*
X157601950Y-79337522D01*
X157536287Y-79435793D01*
X157491058Y-79544986D01*
X157468000Y-79660905D01*
X128973091Y-79660905D01*
X128996816Y-79631997D01*
X129103602Y-79432215D01*
X129169360Y-79215439D01*
X129191564Y-78990000D01*
X129179745Y-78870000D01*
X162268549Y-78870000D01*
X162268549Y-80570000D01*
X162274341Y-80628810D01*
X162291496Y-80685360D01*
X162319353Y-80737477D01*
X162356842Y-80783158D01*
X162402523Y-80820647D01*
X162454640Y-80848504D01*
X162511190Y-80865659D01*
X162570000Y-80871451D01*
X164270000Y-80871451D01*
X164328810Y-80865659D01*
X164385360Y-80848504D01*
X164437477Y-80820647D01*
X164483158Y-80783158D01*
X164520647Y-80737477D01*
X164548504Y-80685360D01*
X164565659Y-80628810D01*
X164571451Y-80570000D01*
X164571451Y-79720000D01*
X164804436Y-79720000D01*
X164826640Y-79945439D01*
X164892398Y-80162215D01*
X164999184Y-80361997D01*
X165142893Y-80537107D01*
X165318003Y-80680816D01*
X165517785Y-80787602D01*
X165734561Y-80853360D01*
X165903508Y-80870000D01*
X166016492Y-80870000D01*
X166185439Y-80853360D01*
X166402215Y-80787602D01*
X166601997Y-80680816D01*
X166777107Y-80537107D01*
X166920816Y-80361997D01*
X167027602Y-80162215D01*
X167093360Y-79945439D01*
X167115564Y-79720000D01*
X167093360Y-79494561D01*
X167027602Y-79277785D01*
X166920816Y-79078003D01*
X166777107Y-78902893D01*
X166601997Y-78759184D01*
X166402215Y-78652398D01*
X166185439Y-78586640D01*
X166016492Y-78570000D01*
X165903508Y-78570000D01*
X165734561Y-78586640D01*
X165517785Y-78652398D01*
X165318003Y-78759184D01*
X165142893Y-78902893D01*
X164999184Y-79078003D01*
X164892398Y-79277785D01*
X164826640Y-79494561D01*
X164804436Y-79720000D01*
X164571451Y-79720000D01*
X164571451Y-78870000D01*
X164565659Y-78811190D01*
X164548504Y-78754640D01*
X164520647Y-78702523D01*
X164483158Y-78656842D01*
X164437477Y-78619353D01*
X164385360Y-78591496D01*
X164328810Y-78574341D01*
X164270000Y-78568549D01*
X162570000Y-78568549D01*
X162511190Y-78574341D01*
X162454640Y-78591496D01*
X162402523Y-78619353D01*
X162356842Y-78656842D01*
X162319353Y-78702523D01*
X162291496Y-78754640D01*
X162274341Y-78811190D01*
X162268549Y-78870000D01*
X129179745Y-78870000D01*
X129169360Y-78764561D01*
X129103602Y-78547785D01*
X128996816Y-78348003D01*
X128853107Y-78172893D01*
X128677997Y-78029184D01*
X128478215Y-77922398D01*
X128261439Y-77856640D01*
X128092492Y-77840000D01*
X127979508Y-77840000D01*
X127810561Y-77856640D01*
X127593785Y-77922398D01*
X127394003Y-78029184D01*
X127218893Y-78172893D01*
X127075184Y-78348003D01*
X126968398Y-78547785D01*
X126902640Y-78764561D01*
X126880436Y-78990000D01*
X120325000Y-78990000D01*
X120325000Y-77054905D01*
X132108000Y-77054905D01*
X132108000Y-77173095D01*
X132131058Y-77289014D01*
X132176287Y-77398207D01*
X132241950Y-77496478D01*
X132325522Y-77580050D01*
X132423793Y-77645713D01*
X132532986Y-77690942D01*
X132648905Y-77714000D01*
X132767095Y-77714000D01*
X132883014Y-77690942D01*
X132992207Y-77645713D01*
X133090478Y-77580050D01*
X133174050Y-77496478D01*
X133239713Y-77398207D01*
X133284942Y-77289014D01*
X133308000Y-77173095D01*
X133308000Y-77054905D01*
X133284942Y-76938986D01*
X133239713Y-76829793D01*
X133174050Y-76731522D01*
X133090478Y-76647950D01*
X132992207Y-76582287D01*
X132883014Y-76537058D01*
X132767095Y-76514000D01*
X132648905Y-76514000D01*
X132532986Y-76537058D01*
X132423793Y-76582287D01*
X132325522Y-76647950D01*
X132241950Y-76731522D01*
X132176287Y-76829793D01*
X132131058Y-76938986D01*
X132108000Y-77054905D01*
X120325000Y-77054905D01*
X120325000Y-73015897D01*
X120350701Y-72753772D01*
X120500000Y-72753772D01*
X120500000Y-73246228D01*
X120596074Y-73729223D01*
X120784529Y-74184194D01*
X121058124Y-74593657D01*
X121406343Y-74941876D01*
X121815806Y-75215471D01*
X122270777Y-75403926D01*
X122753772Y-75500000D01*
X123246228Y-75500000D01*
X123729223Y-75403926D01*
X124184194Y-75215471D01*
X124593657Y-74941876D01*
X124941876Y-74593657D01*
X125165449Y-74259056D01*
X135071000Y-74259056D01*
X135071000Y-74396944D01*
X135097901Y-74532182D01*
X135150668Y-74659574D01*
X135227274Y-74774224D01*
X135324776Y-74871726D01*
X135439426Y-74948332D01*
X135566818Y-75001099D01*
X135702056Y-75028000D01*
X135839944Y-75028000D01*
X135975182Y-75001099D01*
X136102574Y-74948332D01*
X136217224Y-74871726D01*
X136314726Y-74774224D01*
X136391332Y-74659574D01*
X136444099Y-74532182D01*
X136471000Y-74396944D01*
X136471000Y-74259056D01*
X136444099Y-74123818D01*
X136391332Y-73996426D01*
X136314726Y-73881776D01*
X136217224Y-73784274D01*
X136102574Y-73707668D01*
X135975182Y-73654901D01*
X135839944Y-73628000D01*
X135702056Y-73628000D01*
X135566818Y-73654901D01*
X135439426Y-73707668D01*
X135324776Y-73784274D01*
X135227274Y-73881776D01*
X135150668Y-73996426D01*
X135097901Y-74123818D01*
X135071000Y-74259056D01*
X125165449Y-74259056D01*
X125215471Y-74184194D01*
X125403926Y-73729223D01*
X125500000Y-73246228D01*
X125500000Y-72753772D01*
X164500000Y-72753772D01*
X164500000Y-73246228D01*
X164596074Y-73729223D01*
X164784529Y-74184194D01*
X165058124Y-74593657D01*
X165406343Y-74941876D01*
X165815806Y-75215471D01*
X166270777Y-75403926D01*
X166753772Y-75500000D01*
X167246228Y-75500000D01*
X167729223Y-75403926D01*
X168184194Y-75215471D01*
X168593657Y-74941876D01*
X168941876Y-74593657D01*
X169215471Y-74184194D01*
X169403926Y-73729223D01*
X169500000Y-73246228D01*
X169500000Y-72753772D01*
X169403926Y-72270777D01*
X169215471Y-71815806D01*
X168941876Y-71406343D01*
X168593657Y-71058124D01*
X168184194Y-70784529D01*
X167729223Y-70596074D01*
X167246228Y-70500000D01*
X166753772Y-70500000D01*
X166270777Y-70596074D01*
X165815806Y-70784529D01*
X165406343Y-71058124D01*
X165058124Y-71406343D01*
X164784529Y-71815806D01*
X164596074Y-72270777D01*
X164500000Y-72753772D01*
X125500000Y-72753772D01*
X125403926Y-72270777D01*
X125215471Y-71815806D01*
X124941876Y-71406343D01*
X124593657Y-71058124D01*
X124184194Y-70784529D01*
X123729223Y-70596074D01*
X123246228Y-70500000D01*
X122753772Y-70500000D01*
X122270777Y-70596074D01*
X121815806Y-70784529D01*
X121406343Y-71058124D01*
X121058124Y-71406343D01*
X120784529Y-71815806D01*
X120596074Y-72270777D01*
X120500000Y-72753772D01*
X120350701Y-72753772D01*
X120377474Y-72480725D01*
X120528281Y-71981230D01*
X120773233Y-71520541D01*
X121103002Y-71116203D01*
X121505031Y-70783616D01*
X121964001Y-70535452D01*
X122462427Y-70381163D01*
X122996657Y-70325014D01*
X123000559Y-70325000D01*
X166984103Y-70325000D01*
X167519275Y-70377474D01*
M02*
